<svg xmlns="http://www.w3.org/2000/svg" xml:space="preserve" id="Layer_1" x="0" y="0" version="1.1" viewBox="0 0 96 96">
  <style>
    .st0{fill:none;stroke:#000;stroke-width:.5}
  </style>
  <path d="M32.8 66.9s2.1 5.7.8 7.7c-1.2 2-6.1 1.7-7.7 2.5-1.1.6-1.1 2.5-.4 3.4.6.7 10.4.1 12.2-3.6 1.9-3.7-.6-10.7-.6-10.7l-4.3.7zm15.5-.6-4.1.8s1.8 7.5.3 9.9c-1.4 2.4-6.6 5-7.6 7-.8 1.9 1.2 3.4 4.5 1.3 3.3-2 6.8-5 7.6-6.4 1.7-3.4-.7-12.6-.7-12.6z" class="st0"/>
  <path d="M20.1 10.2c-8.7 2-15.6 9.4-13 20.6 1.6 6.6 2.4 8.9 3 12 1.2 6.3.8 9 3.5 14.8 2.8 6.1 13.3 14.1 26.3 12.1S58.1 66 58.1 66l4.7-4.1 4.5-1.1.6-3.3s3.3-.1 4-1.2c1.1-1.8.4-3-1.4-3.8-1.9-.6-3-1.2-3-1.2S85.8 39.4 88.1 38c2.2-1.3 5.7-3.6 5.9-4.5.4-2.1-5.3-6.7-12.7-8.9s-13.9-2.8-14.9-2c-1.4 1.1-7.6 12.6-11.7 12.1-5.4-.7-8.9-5.7-10.1-8.6-1.1-3.3-8-19.6-24.5-15.9z" class="st0"/>
  <path d="M8.9 27.5c-1.3-.2-4.8 3.4-5.5 4.2s-1.8 2.2-1.3 3c.5 1.6 3.6 1.6 5.5 1.8 1.9.1 5.5.4 6-.6.5-1.1-.6-3.9-1.8-5.7-.8-1.5-1.5-2.5-2.9-2.7zM33.6 51c-1.6.5.4 6 2.5 8.4 2.2 2.6 7.6 8.4 15.6 9.1 5.5.5 8-.9 9.2-2.4.9-1.1 2-2.3 2.7-2.8.9-.7 2.1-.1 3.8-1.4 1.3-.9 1.6-2.5 2.2-3 .6-.5 1.8-.4 2.4-.9.9-.9.8-3.8.1-3.9-.7-.1-.7 2-1.6 2.3-.7.3-1.8.1-3 .8-1.2.6-.7 2-1.7 2.6-.8.5-2.3-.2-4.2.8-1.1.6-2 3.5-5.1 4.1-3.8.8-9.7-2-12.4-4-6.5-4.5-7.9-10.6-10.5-9.7zm-8.3-26.6c0 1.8-1.4 3.2-3.2 3.2S19 26.1 19 24.4s1.4-3.2 3.2-3.2 3.1 1.4 3.1 3.2z" class="st0"/>
</svg>