<svg xmlns="http://www.w3.org/2000/svg" xml:space="preserve" id="Layer_1" x="0" y="0" version="1.1" viewBox="0 0 96 96">
  <style>
    .st0{fill:none;stroke:#010101;stroke-width:.5}
  </style>
  <path d="M40.8 34.1C35.3 19.6 23 9.9 18.4 8.4c-1.7-.5-4-.6-4.9.9C11 13.4 7.8 26.4 14.9 45l25.9-10.9zm19.7-10c6.1-9.3 14.5-15.6 18-16.6 1.7-.5 3.8-.4 4.7 1.2 2.5 4.1 4.5 16.6-.3 34.3l-18-8.6-4.4-10.3z" class="st0"/>
  <path d="M86.5 54.8c-1.5-19.5-15.1-32.9-38-32.9S12.1 36.2 10.7 55.6C10 67 14.2 77.1 22.6 82.8c5.6 3.8 13.4 6 26.1 6 12.8 0 20.2-2.8 25.9-6.5 9.2-6.4 12.8-16.4 11.9-27.5z" class="st0"/>
  <path d="M41.1 35.9c.8.7 2.6.6 3.6-.5 1.2-1.4 2.5-6.2 1.7-13.4-3.5.1-6.8.6-10 1.5 2.6 4 3.2 11.1 4.7 12.4zm14.8 0c-.8.7-2.6.6-3.6-.5-1.2-1.4-2.5-6.2-1.7-13.4 3.5.1 6.8.6 10 1.5-2.5 4-3 11.1-4.7 12.4zm16.8 16c-.2 4.1-2.8 6.4-5.7 6.4-2.9 0-5.3-2.9-5.3-6.5s2.5-6.5 5.7-6.4c3.7.2 5.5 3.1 5.3 6.5zm-37.6-.4c.5 4.2-1.2 6.8-4.1 7.4s-5.4-1.4-6.2-4.9c-.7-3.6.6-7 4-7.5 3.9-.8 5.9 1.5 6.3 5zM34.4 66c-2 1.3.3 4.1 1.7 5 1.3.9 3.8 2.2 7.3 1.8 4.1-.4 5.3-3.5 5.3-3.5s1.5 3.5 6.6 3.6c5.2.1 6.8-2.7 7.6-3.5.7-.8 1.4-3 .2-3.9-1.2-.8-2.1.2-3.4 2-1.3 1.7-3.9 2.7-6.4 1.5s-2.7-5.3-2.7-5.3l-3.7.3s-.5 3.5-2.2 4.6c-1.6 1.1-5.5 1.4-7.1-1.1-.6-1-1.6-2.6-3.2-1.5z" class="st0"/>
  <path d="M42.4 60.3c0-2.3 3.3-3.5 6.4-3.5 3.2 0 6.5.9 6.5 3.3 0 2.3-3.9 5.3-6.4 5.3-2.4.2-6.5-2.6-6.5-5.1zm51.3 1.3c-.2.2-.4.3-.7.3 0 0-3.3 0-6.3.2-2.9.2-5.8.8-5.8.9-.5.1-1.1-.2-1.2-.7-.1-.5.2-1.1.7-1.3.1 0 3-.7 6.2-.9 3.2-.2 6.3-.2 6.4-.2.5 0 .9.4.9 1.1.1.2 0 .4-.2.6zm-.5-8.2c-.1.2-.4.4-.6.5 0 0-3.2.7-6.1 1.7-2.8.9-5.4 2.3-5.4 2.3-.5.3-1.1.1-1.4-.4-.2-.5 0-1.2.4-1.4.1-.1 2.7-1.5 5.8-2.4 2.9-.9 6.1-1.7 6.2-1.7.5-.1 1.1.2 1.2.7.1.3 0 .5-.1.7zm-.3 17.3c-.2.1-.5.1-.8.1 0 0-3-1.1-6-1.8-2.8-.7-5.8-.9-5.8-.9-.5 0-.9-.5-.9-1.1 0-.5.5-.9 1.2-.9.1 0 3 .2 6.2.9 3 .7 6.1 1.8 6.2 1.8.5.2.8.7.6 1.3-.2.3-.4.5-.7.6zM2.3 63.8c.2.2.4.3.7.3 0 0 3.3 0 6.3.2 2.9.2 5.8.8 5.8.9.5.1 1.1-.2 1.2-.7.1-.5-.2-1.1-.7-1.3-.1 0-3-.7-6.2-.9-3.2-.2-6.3-.2-6.4-.2-.5 0-.9.4-.9 1.1-.1.2 0 .4.2.6zm.5-8.1c.1.2.4.4.6.5 0 0 3.2.7 6.1 1.7 2.8.9 5.4 2.3 5.4 2.3.5.3 1.1.1 1.4-.4.2-.5 0-1.2-.4-1.4-.1-.1-2.7-1.5-5.8-2.4-2.9-.9-6.1-1.7-6.2-1.7-.5-.1-1.1.2-1.2.7 0 .2 0 .5.1.7zM3.1 73c.2.1.5.1.8.1 0 0 3-1.1 6-1.8 2.8-.7 5.8-.9 5.8-.9.5 0 .9-.5.9-1.1 0-.5-.5-.9-1.2-.9-.1 0-3 .2-6.2.9-3 .7-6.1 1.8-6.2 1.8-.5.2-.8.7-.6 1.3.2.2.4.5.7.6zm24.7-45.2c1.2-.9 1.7-2 .4-3.9-2-3-5.5-6.6-6.8-7.7-2.3-1.7-4-2.4-4.6.5-1.2 5.3-1.2 12.5.2 16.4.4 1.4 2 2.2 3 1.2l7.8-6.5zm45.9 3.1c1.8 1.8 3.4 3 4.3 4.2.7.7 2.1.4 2.3-.6 1.8-8.8 1.3-16.3 0-18.4-.6-.9-1.7-1.2-2.7-.8-1.8.6-6.5 4.1-9.8 9.1-.4.5-.2 1.4.3 1.7 1.3.9 3.3 2.4 5.6 4.8z" class="st0"/>
</svg>