<svg xmlns="http://www.w3.org/2000/svg" xml:space="preserve" id="Layer_1" x="0" y="0" version="1.1" viewBox="0 0 96 96">
  <style>
    .st0{fill:none;stroke:#010101;stroke-width:.5}
  </style>
  <path d="M14.9 58s4 14.7 5.1 21.7c1.1 8 9.2 14.3 28.1 14.3s27-6.3 28.1-14.2c1-7 5.1-21.7 5.1-21.7H14.9V58z" class="st0"/>
  <path d="M72.6 84.5c-.6 0-.9-.5-.9-.9v-.2l3.7-19.1c.1-.6.6-.9 1.1-.8.6.1.9.6.8 1.1l-3.7 19.1c-.2.4-.6.8-1 .8zM65 89.3c-.7 0-1.3-.6-1.3-1.3v-.2l2.9-20.1c.1-.7.8-1.1 1.5-1 .7.1 1.1.7 1 1.5l-2.9 20.1c.1.5-.5 1-1.2 1zM57.3 92c-.8-.1-1.4-.7-1.3-1.4l1.8-21.8c0-.7.7-1.3 1.4-1.1.7 0 1.3.7 1.1 1.4l-1.8 21.8c0 .7-.5 1.1-1.2 1.1zm-9.2.9c-.7 0-1.3-.6-1.3-1.3V69.5c0-.7.6-1.3 1.3-1.3.7 0 1.3.6 1.3 1.3v22.1c0 .7-.6 1.3-1.3 1.3zm-8.9-.9c-.7 0-1.3-.5-1.3-1.1l-1.8-21.8c0-.7.5-1.4 1.1-1.4.7 0 1.4.5 1.4 1.1l1.8 21.8c0 .8-.4 1.4-1.2 1.4zM31 89.6c-.7 0-1.1-.5-1.3-1.1L27.1 68c-.1-.7.5-1.4 1.1-1.4.7-.1 1.4.3 1.4 1L32.2 88c.1.7-.5 1.4-1.1 1.4 0 .2-.1.2-.1.2zm-7.1-5.2c-.5 0-.8-.3-.9-.8l-3.8-19.1c-.1-.5.2-1 .7-1.1.5-.1 1 .2 1.1.8l3.8 19.1c.1.5-.2 1-.7 1.1h-.2z" class="st0"/>
  <path d="M15.2 58.3c.7 3.1 1.7 5.1 3.4 4.1 1.7-.9 4.2-.5 3.4 1.6-.7 2 2.5 2.8 3.8 1.7 1.3-1 4-2.3 4.2.1.2 2.2 3 2.9 4.2 1.1 1.3-1.7 4.8-1 5.4 1 .7 2.1 4.1 1.7 5.1.3.9-1.4 1.8-2.3 3.3-2.3 1.5 0 2.4.9 3.3 2.3.9 1.4 4.4 1.7 5.1-.3.7-2.1 4.1-2.8 5.4-1 1.3 1.6 4 1 4.2-1.1.2-2.4 3-1.3 4.2-.1 1.4 1.1 4.6.2 3.8-1.7-.8-2.1 1.7-2.6 3.4-1.6s2.8-.9 3.4-4.1H15.2z" class="st0"/>
  <path d="M86.5 50.6C86.5 38 69.2 27.8 48 27.8S9.5 38.1 9.5 50.6C9.5 60.7 32.5 66 48 66s38.5-5.1 38.5-15.4z" class="st0"/>
  <path d="M45.4 2s2.8 2.9 5.5 3c5.7.1 11.1 3.3 11.1 9 0 0 13.4 0 13.9 11.9 0 0 6.8.1 8.4 11.9 1.1 8.8-7.8 21-36.2 20.9-25-.1-37.9-9-36.2-20.9C13.5 26.3 23 25.9 23 25.9S21.5 11 39.7 11c0 0 2-6 5.7-9z" class="st0"/>
  <path d="M75.9 25.9c0-.3-.1-.7-.1-1-.3-1.7-1.1-3.9-2-5.5-.5-.7-1-1.3-1.6-1.8C75.1 29 58 42.5 41.6 45.6c-21.2 4.1-29.7-7.8-29.7-7.8-.9 6.1 2.2 11.4 8.9 15.2C47 63.8 76.1 37.6 75.9 25.9z" class="st0"/>
  <path d="M47.9 28.9C55.4 26 62.2 21 62 13.9c0-2.2-.8-4-2.2-5.4 1.6 7.1-9.3 15.4-21.5 16.7-15.2 1.6-13.4-7.4-13.4-7.4-2.3 3.9-1.8 8-1.8 8 2.3 6.2 14.2 7.1 24.8 3.1zM79.7 38l-2.5 4.5c-.7 1.3-2.3 1.6-3.4.9-1.3-.7-1.6-2.3-.9-3.4l2.5-4.5c.7-1.3 2.3-1.6 3.4-.9 1.2.6 1.7 2.2.9 3.4zm-15.3-6.5-4.8 1.8c-1.4.5-2.8-.2-3.3-1.5-.5-1.4.2-2.8 1.5-3.3l4.8-1.8c1.4-.5 2.8.2 3.3 1.5s-.2 2.7-1.5 3.3zm-20.3 6.8 3.3 3.9c.9 1 .8 2.6-.2 3.6-1 .9-2.6.8-3.6-.2l-3.3-3.9c-.9-1-.8-2.6.2-3.6 1.1-1 2.7-.8 3.6.2z" class="st0"/>
  <path d="m40.3 23-5.1-1c-1.4-.3-2.3-1.6-2-3 .3-1.4 1.6-2.3 3-2l5.1 1c1.4.3 2.3 1.6 2 3-.2 1.4-1.6 2.2-3 2zm-16 15.4-3 4.1c-.8 1.1-2.4 1.4-3.6.6-1.1-.8-1.4-2.4-.6-3.6l3-4.1c.8-1.1 2.4-1.4 3.6-.6 1.2.9 1.4 2.5.6 3.6z" class="st0"/>
</svg>