<svg xmlns="http://www.w3.org/2000/svg" xml:space="preserve" id="Layer_1" x="0" y="0" version="1.1" viewBox="0 0 96 96">
  <style>
    .st0{fill:none;stroke:#010101;stroke-width:.5}
  </style>
  <path d="M47.6 13.5c-22.5-.6-29.8 16.9-30.4 23.4-.4 5.1-2.6 23.7 8 36.3 5.4 6.4 14.3 9.6 23.6 9.4s17.9-2.1 23.6-9.5c9.5-12.7 8.5-31.5 7.3-37.6-1.3-6-6.1-21.3-32.1-22z" class="st0"/>
  <path d="M12.9 18.7s-7.6 2.9-9.4 7.4C1 32 2.1 43.9 3.5 48.5c1.3 4.5 4.8 9.1 10.1 8.9 5.3-.1 10-5.6 11.8-12.8 1.7-7.1 2.1-19.4 2.6-21.5.5-2.2 1.4-3.9 1.4-3.9s-6.8-6.3-16.5-.5zm63.7-1s10.3.4 12.9 1.5c2.5 1.1 4.7 6 4.5 12.7s-.7 17.3-3.9 21c-2.8 3-8.4 3.2-11.4-.5-3.1-3.7-5.1-10.1-5.8-14.3-.7-4.1-2-9.4-2.8-12-.8-2.4-2.8-7.2-3.7-8.3-1.3-1 .8-2 10.2-.1zm-3.4 30.2c.8 6-1.9 11.9-8.7 12.3-6.3.4-10.2-3.6-10.5-9.5-.3-6.1 2.9-11.8 8.3-12.4 5.5-.7 10.2 3.5 10.9 9.6z" class="st0"/>
  <path d="M21.5 15.3c-5.6-.4-14.8 4-16.7 8.6-1.9 4.5-.8 19.5.8 23.8C7.3 52.2 10.7 58 16.8 53c6-4.9 7.6-17.4 8.2-21.3.6-3.9 1.4-8.8 2.3-9.8.9-1 2.1-2.5 2.1-2.5s-1.1-3.6-7.9-4.1zm56.4-.9c5.2.4 10.9 2.4 13.2 6.9 2.1 4.5 1.3 15.4.5 20.5s-2.7 10.5-7.4 9.9-7.1-7-8.5-13.1c-1.5-6-2.9-12.1-4.8-16.4-1.2-2.7-5.1-4.5-5.1-4.5s1.5-4.1 12.1-3.3zM37.1 67.9c-1.1 1.6 1 2.8 2.7 4 1.7 1.1 3.7 2.8 6.1 2.8 2.7 0 3.4-1.9 3.4-1.9s.9 2.2 4.6 1.8c2.1-.2 4.5-2.5 5.3-2.9 1.5-1 3.1-2.2 2.5-3.2-.9-1.2-2.8.4-4.6 1.4-1.9 1-2.6 1.5-3.9 1.5-1.4 0-2.4-.6-2.5-2.9-.1-2 0-2.3 0-2.3h-3.2s.1 2.1.1 2.6c0 1.5-.8 2.2-2.4 2.3-1.6.1-3.1-1.2-3.9-1.7-.9-.8-3.4-2.8-4.2-1.5zm.2-17.5c-.3 2.7-1.7 4.7-4.6 4.4-2.1-.2-3.5-2.8-3.1-5.3.4-2.6 1.2-4.5 3.7-4.5 3.8.1 4.4 2.7 4 5.4zm30.4-.7c.1 2.7-.9 4.9-4 5.1-2.7.2-4-2.1-4.1-4.7-.1-2.7 1.2-4.8 3.7-5.1 3.4-.5 4.3 2 4.4 4.7z" class="st0"/>
  <path d="M56.4 63.1c.1 2.7-1.7 5.1-7.3 5.1-5.4-.1-7.4-2.3-7.6-4.9-.2-2.7 2.9-5 7.4-5.1 6.2-.4 7.3 2.3 7.5 4.9z" class="st0"/>
</svg>