<svg xmlns="http://www.w3.org/2000/svg" xml:space="preserve" id="Layer_1" x="0" y="0" version="1.1" viewBox="0 0 96 96">
  <style>
    .st0{fill:none;stroke:#010101;stroke-width:.5}
  </style>
  <path d="M6.9 65.4C8.8 59.5 7.4 55.2 4 51s10-4.9 14.4 1 14.8 16.2 5.5 16c-9.2-.2-17-2.6-17-2.6zm77.7-12.2c0-2.6 3.9-16 7.8-19.9 3.9-3.9 0-8.1-3.9-8.1C79.7 25.2 65 43 65 53.4c0 12.9 14.8 27 23.5 27 3.9 0 7.8-3.6 3.9-7.5-3.9-4.1-7.8-14.5-7.8-19.7z" class="st0"/>
  <path d="M24.8 28.3c0-7.8 3.8-15.7 7.7-15.7 11.8 0 34.5 12.5 38.4 32.2 4 19.6-46.1-16.5-46.1-16.5zm12.7 47.3c3.9 3.9 11.8 7.8 19.6 7.8s-8-10.8-3.9-15.7c5.6-6.7-15.7 7.9-15.7 7.9z" class="st0"/>
  <path d="M2 51.9c2.5 2.2 11.1 5.2 18.1 4.5-.2 2.1-1.6 4.3-6.8 5.3C8.7 63 7.6 62.8 6.5 63c-2.2.8-1.4 3.1-.6 4.4 3.8 6.7 18.8 12.1 31.5 12.1 21.7 0 43.5-19.6 43.5-27.6 0-7.8-24.1-27.6-45.9-27.6C13.1 24.4 2.1 40 2 51.9z" class="st0"/>
  <path d="M40.6 68.6c-1.4 0-2.6-1.1-2.6-2.5 0-.4.1-.8.3-1.2 4.1-7.8 5.7-14.9.4-23.9-.7-1.2-.3-2.8.9-3.5 1.2-.7 2.8-.3 3.5.9 6.9 11.7 3.7 21.1-.3 29-.4.7-1.3 1.2-2.2 1.2zM19.6 35c2.8-.1 5.2 2.2 5.2 5 .1 2.8-2.2 5.2-5 5.2h-.2c-2.8-.1-5.1-2.4-5-5.2 0-2.7 2.2-4.9 5-5z" class="st0"/>
</svg>