<svg xmlns="http://www.w3.org/2000/svg" xml:space="preserve" id="Layer_1" x="0" y="0" version="1.1" viewBox="0 0 96 96">
  <style>
    .st0{fill:none;stroke:#010101;stroke-width:.5}
  </style>
  <path d="M46 15c14.1 0 25.6 7.5 37.9 29.3 10.3 18.1 8.3 37.8-2.7 43.9-10.9 6-15 5-19.9 4.7C56.9 92.7 46.4 73 46.4 73s-9.4 19.5-16 19.3c-2.4 0-15.7.1-22.5-8.5C1 75.1 1.5 60.4 8 47.2 14.7 34.3 28.4 15 46 15z" class="st0"/>
  <path d="M94 18c.3 9.8-7.2 15.7-15.1 15.7s-13.3-7-13.3-15S72.7 4.6 80.7 4.6C88.8 4.5 93.6 10.1 94 18zM12.5 30.9C3.2 27.8.3 20.8 2.8 12.9 5.4 5 13.8 1.2 21.5 3.6c7.6 2.4 10.8 10.8 8.3 18.7-2.5 8-10.2 10.9-17.3 8.6zM47.2 87s7.7 5.1 14.4 5.6c6.6.5 14.3-2 14.8-11.7.4-10.9-7.6-16.9-9.8-18.7-1.2-.9-7.6-5.3-7.6-5.3s-1.7-13.5-2.3-17.8c-.7-4.4-1.1-11.2-9.5-11.4-8.1-.1-9.1 8.2-9.2 10.8-.1 3.2-1.4 18.5-1.4 18.5s-4.5 3.1-7.7 5.5c-2.8 2.2-10.1 7.6-9.8 16.9.2 7.7 4.4 13 13.3 12.7 10.5-.2 14.8-5.1 14.8-5.1z" class="st0"/>
  <path d="M14.2 82.5c-.3 0-.8-.2-1-.5-.3-.5-.2-1.2.3-1.7.2-.1 4.7-3.1 7.3-4.4 2.5-1.4 6.9-3.7 6.9-3.7s1-.7 1.7.3c.8 1-.5 1.8-.5 1.8S24.6 76.7 22 78c-2.4 1.4-7 4.3-7.2 4.3 0 .1-.3.2-.6.2zm5.1 6.1c-.2 0-.5-.1-.8-.2-.5-.3-.5-1.1-.1-1.8.1-.1 2.4-2.7 5-5 2.5-2.3 4.9-4.4 4.9-4.4.5-.3 1.2-.3 1.8.1.5.5.3 1.2-.1 1.8 0 0-2.4 2.2-4.9 4.4-2.4 2.2-4.7 4.7-4.7 4.9-.5-.1-.8.2-1.1.2zm62-5.6c-.2 0-.7-.1-.8-.2 0 0-1.5-1.4-6.4-4.3-5-3.1-8-4.4-8-4.4-.7-.2-.9-1-.5-1.7.2-.5 1-.8 1.5-.5.1 0 3.1 1.4 8.2 4.5s6.7 4.5 6.7 4.5c.5.3.5 1.2.1 1.8-.2.2-.5.3-.8.3zm-5.6 4.9c-.3 0-.7-.1-.9-.3 0 0-2.7-2.8-5.3-5.3-2.7-2.4-5.6-4.2-5.6-4.3-.5-.3-.8-1.1-.3-1.7.3-.5 1.1-.8 1.7-.3.1.1 3.2 1.9 6 4.5 2.8 2.5 5.5 5.3 5.5 5.5.5.5.3 1.2 0 1.8-.4 0-.8.1-1.1.1zM41.9 76.3s-.7 8.1 2.2 9.3c2.3 1 3.5-2.3 3.5-2.3s.8 1.9 2.7 2.3c3.5.7 2.7-10.1 2.7-10.1l-5.2-2.8-5.9 3.6zm27.3-26.4c.3 3-.3 6.1-3.3 6.1-3.1 0-4.2-2.7-4.4-5.6-.2-3 .9-4.7 3.2-5.1 2.6-.3 4.2 2.2 4.5 4.6zm-35.1.3c.1 3.1-1.1 6.2-4.3 6.1-3.1-.2-4-4-3.5-7.2.3-3 1.7-4.1 4-4.2 2.6 0 3.7 2.8 3.8 5.3z" class="st0"/>
  <path d="M44.1 71.7c0-1.1-1.5-1.7-3.1-2.7-.9-.7-2.2-1.4-1.8-2.7.3-1.2 2.7-1.4 7.5-1.5 4.9-.1 8.2.3 8.1 1.7-.1 1.2-1.7 2.2-2.7 3.1-.5.3-2.3 1.4-2.3 2.2.1.8 2.2 2.4 4 2.4 2.8 0 4.2-1.7 4.9-2.4.7-.7 1.5-1.5 2.5-1s.1 3.3-2 5.3c-2.2 2-5.9 2.4-8.4 1.4-2.4-1-3.5-2.5-3.5-2.5s-2.7 3.9-7 3.2c-3.3-.5-5.3-2.7-6.4-4.3-1-1.7-.7-2.7.1-2.8 1-.1 1.7 1 3 1.7 1.2.5 2.2 1.2 4.1 1.1 2-.6 3-1.5 3-2.2zM24 17.5c0 4.2-3.3 7-7.2 7s-6.9-3.2-6.9-7.4 3-7.5 6.9-7.5c5 .2 7.2 3.8 7.2 7.9zm55.2 8.2c-4.1-.3-6.7-3.9-6.4-7.7.3-4 4.3-6.7 8.5-6.5 4.1.3 6.6 3.9 6.2 7.7-.4 5-4.2 6.8-8.3 6.5z" class="st0"/>
</svg>