<?xml version="1.0" encoding="UTF-8"?>
<svg id="Layer_1" data-name="Layer 1" xmlns="http://www.w3.org/2000/svg" viewBox="0 0 90.500000000002728 87.362107420868597">
  <defs>
    <style>
      .cls-1 {
        fill: none;
        stroke: #000;
        stroke-miterlimit: 10;
        stroke-width: .5px;
      }
    </style>
  </defs>
  <path class="cls-1" d="M52.422166395662316.737263337755394c-.426129305817085.261176026146131-1.140926851059703.701051438603827-1.567056156878607.962227464749958-.426129305817085.261176026146131-.879750824913572.48111373237407-1.003465784666332.48111373237407-.123714959754579,0-.962227464749958-.219937706227938-1.869470502941112-.48111373237407-1.00346578466997-.302414346064324-1.924454929499916-.481113732374979-2.391822555236104-.481113732374979-.412383199178294,0-2.130646529088153.013746106638791-3.793925432441029.027492213278492l-3.051635673919918.041238319918193-.783528078438394.549844265570755c-.439875412456786.288668239424624-1.237149597534881.714797545242618-1.773247756466844.934735251470556-1.085942424503628.439875412457695-1.457087303763728.701051438603827-1.457087303763728,1.072196317863927,0,.137461066393371-.068730533196685.288668239425533-.151207173032162.329906559342817-.068730533196685.054984426556985-.274922132785832.412383199178294-.453621519096487.797274185078095l-.302414346063415.701051438603827-.522352052293172-.852258611635989c-.632320905406232-1.044704104584525-1.017211891306033-1.360864557288551-1.814486076385037-1.484579517042221-.728543651881409-.109968853113969-.975973571388749.054984426557894-.756035865159902.467367625736188.219937706228848.398637092538593-.329906559342817.577336478849247-2.185630955645138.714797545242618-.86600471827478.068730533195776-1.745755543188352.178699386310655-1.938201036138707.24742991950643-.192445492949446.082476639835477-.948481358110257.219937706228848-1.677025009991667.302414346064324-1.250895704174582.164953279670954-1.374610663928252.206191599589147-1.951947142777499.714797545242618-.439875412456786.384890985899801-.797274185078095.907243038192064-1.250895704174582,1.84197828966353-.426129305817994.879750824913572-.701051438602917,1.292134024091865-.852258611635079,1.292134024091865-.481113732374979-.013746106638791-1.374610663928252-.536098158931964-1.759501649828053-1.044704104585435-.522352052292263-.701051438602917-.852258611635079-.989719678027541-1.429595090485236-1.250895704173672-.453621519095577-.206191599589147-.48111373237407-.192445492950355-.783528078438394.164953279670954-.302414346064324.329906559342817-.316160452703116.481113732374979-.316160452703116,2.21312316892363,0,2.58426804818464-.206191599589147,2.982905140724142-1.677025009992576,3.409034446541227-1.168419064338195.329906559342817-1.484579517042221.659813118685634-1.567056156877698,1.663278903352875-.137461066392461,1.580802263517398-.013746106638791,1.47083341040252-1.567056156877698,1.415848983845535-1.237149597534881-.041238319917284-1.388356770567043-.013746106638791-1.649532796713174.24742991950734-.24742991950734.24742991950734-.261176026147041.329906559342817-.137461066393371.632320905407141.24742991950734.536098158931054-.12371495975367,1.113434637781211-1.072196317863018,1.663278903351966-.439875412457695.261176026147041-1.223403490896089.893496931553273-1.759501649828053,1.415848983846445s-1.250895704174582,1.195911277616688-1.59454837015619,1.498325623681012c-.549844265571664.49485983901377-.659813118685634.673559225324425-.920989144831765,1.663278903352875-.219937706228848.824766398356587-.261176026146131,1.209657384256388-.164953279671863,1.47083341040252.068730533196685.178699386310655.178699386310655.769781971799603.233683812868549,1.305880130731566l.082476639835477.975973571388749-.453621519096487.274922132785832c-.591082585488948.357398772621309-1.044704104585435.357398772621309-2.185630955645138,0-1.030957997945734-.329906559342817-1.553310050238906-.288668239424624-1.800739969745337.164953279670954-.261176026147041.49485983901468-.027492213278492,1.140926851060613.783528078438394,2.061915995892377.412383199178294.48111373237407,1.044704104585435,1.305880130731566,1.402102877206744,1.828232183023829l.646067012045933.934735251470556.041238319918193,1.855724396303231.054984426556985,1.84197828966353.357398772621309.151207173031253c.206191599589147.082476639836386.893496931553273.164953279671863,1.539563943599205.178699386310655,1.910708822859306.027492213278492,2.226869275563331.329906559342817,2.391822555234285,2.295599808760016.068730533196685.893496931553273.054984426556985.934735251470556-.233683812867639.934735251470556-.37114487926101,0-.563590372210456-.137461066392461-.687305331964126-.453621519095577-.041238319918193-.12371495975367-.178699386310655-.233683812867639-.302414346064324-.233683812867639-.329906559342817,0-1.415848983845535,1.072196317863018-1.951947142777499,1.924454929499007-.274922132785832.412383199178294-.756035865159902,1.044704104584525-1.072196317863927,1.388356770567043-.797274185078095.85225861163417-.838512504995379,1.058450211223317-.426129305817085,2.103154315809661.563590372210456,1.402102877205834.508605945653471,2.226869275562422-.274922132785832,3.835163752359222-.74228975852111,1.553310050237997-.728543651881409,1.71826332990895.302414346064324,2.831697967691071l.728543651881409.783528078438394-.261176026146131.563590372210456c-.137461066392461.302414346064324-.563590372210456.907243038192973-.934735251470556,1.319626237371267-.852258611635989.934735251470556-1.003465784667242,1.525817836960414-.659813118685634,2.433060875151568.137461066392461.343652665982518.398637092538593,1.140926851059703.577336478849247,1.786993863106545s.646067012046842,2.130646529089063,1.017211891306943,3.299065593426349c.37114487926101,1.168419064339105.769781971799603,2.611760261463132.893496931553273,3.189096740314199.151207173032162.728543651881409.343652665981608,1.209657384255479.61857479876744,1.553310050237997.316160452703116.398637092539502.384890985899801.591082585488039.316160452703116.934735251470556-.082476639835477.453621519096487-.536098158931964,1.910708822859306-.920989144831765,2.95541292744565-.178699386310655.453621519094668-.192445492949446.714797545242618-.082476639835477,1.09968853114151.178699386310655.673559225324425.508605945653471,1.127180744420912.811020291717796,1.127180744420912.288668239424624,0,.646067012045933.3711448792601.728543651881409.756035865160811.041238319918193.219937706227938.151207173032162.274922132784923.591082585488948.261176026146131.302414346064324-.013746106638791.687305331964126-.068730533195776.852258611635989-.123714959754579.49485983901377-.164953279670954.563590372209546.467367625737097.12371495975276,1.223403490896089-.192445492949446.343652665982518-.357398772621309.646067012046842-.357398772621309.687305331965035s.233683812868549.206191599589147.508605945653471.357398772621309c.728543651882319.384890985898892,1.044704104585435.673559225324425,1.663278903352875,1.553310050237997.288668239424624.426129305817085.838512504996288,1.017211891306943,1.209657384256388,1.305880130730657.769781971799603.61857479876744,2.405568661873986,2.08940820917087,4.508722977683647,4.05510145858716,1.085942424502718,1.017211891306943,1.553310050238906,1.36086455728946,1.910708822860215,1.429595090485236.412383199178294.054984426556985.522352052292263.01374610664061.714797545241709-.288668239423714.206191599589147-.316160452703116.233683812867639-.563590372210456.151207173032162-1.512071730321622-.12371495975367-1.745755543188352-.508605945653471-2.817951861052279-1.237149597534881-3.491511086376704-.329906559342817-.302414346064324-.783528078439303-.646067012045023-1.017211891306943-.769781971799603-.563590372210456-.288668239423714-.989719678027541-.86600471827478-.989719678027541-1.34711845064885,0-.302414346064324.109968853113969-.453621519096487.481113732374979-.687305331965035.61857479876744-.35739877261949.852258611635079-.797274185077185,1.058450211224226-1.993185462693873.137461066392461-.86600471827478.12371495975367-1.127180744420912-.288668239424624-3.340303913344542-.577336478850157-3.189096740314199-.769781971799603-5.470950442433605-.577336478850157-7.120483239146779.096222746475178-.728543651881409.481113732374979-2.391822555235194.920989144831765-3.917640392195608.426129305817994-1.443341197124028.975973571388749-3.464018873097302,1.237149597534881-4.467484657765453.632320905407141-2.501791408349163.948481358110257-3.0653817805578,2.309345915398808-4.027609245307758,1.470833410403429-1.058450211225136,2.391822555234285-1.59454837015619,3.409034446541227-2.020677675975094.838512504996288-.357398772621309.920989144831765-.3711448792601,2.996651247362934-.302414346064324,5.718380361940035.178699386311564,8.096456810535528-.013746106638791,8.577570542909598-.714797545240799.288668239425533-.398637092539502.164953279671863-1.182165170979715-.343652665981608-2.199377062284839-.549844265570755-1.099688531143329-1.113434637781211-1.6082944767968-2.611760261463132-2.350584235317001-2.762967434495295-1.402102877206744-3.738941005884044-1.388356770567043-7.505374225045671.068730533195776-1.044704104585435.398637092539502-1.759501649828053.797274185079004-2.790459647773787,1.553310050237997-.769781971799603.563590372210456-1.732009436549561,1.182165170979715-2.144392635727854,1.374610663928252-1.553310050237997.728543651881409-1.59454837015619.591082585489858-1.649532796713174-4.6736762573546-.054984426556985-5.374727695957517-.082476639835477-5.622157615464857-.714797545242618-6.309462947428983-.3711448792601-.398637092538593-.412383199178294-.48111373237407-.164953279670954-.316160452703116q1.072196317863018.728543651881409,1.690771116630458.068730533196685c.74228975852111-.769781971799603,2.666744688020117-3.395288339902436,3.32655780670575-4.508722977683647.288668239424624-.49485983901377.673559225324425-1.127180744420912.879750824913572-1.429595090485236.384890985899801-.577336478849247,3.725194899245253-3.422780553180019,5.031075029976819-4.288785271454799,2.46055308843097-1.622040583434682,5.044821136614701-2.309345915398808,8.72877771594176-2.323092022038509,1.924454929499007,0,2.020677675974184.013746106639701,2.639252474741625.37114487926101.756035865159902.453621519096487,1.498325623681012,1.278387917453074,2.611760261463132,2.900428500887756,1.333372344010058,1.924454929499007,2.584268048183731,2.914174607527457,5.113551669810477,4.013863138668967,2.323092022039418,1.003465784668151,3.285319486789376,1.292134024092775,5.196028309648682,1.512071730320713,2.721729114577101.316160452704025,2.859190180970472.302414346064324,3.642718259408866-.343652665981608.357398772621309-.302414346064324,1.030957997945734-.838512504996288,1.47083341040161-1.168419064339105.797274185079004-.61857479876744.811020291717796-.61857479876744,1.168419064339105-.384890985899801.192445492950355.137461066393371.687305331965035.412383199178294,1.085942424502718.61857479876835,1.003465784668151.536098158931054,2.103154315809661,1.360864557288551,2.694236901299519,2.061915995891468.549844265571664.632320905407141,1.319626237371267,2.116900422448452,1.319626237371267,2.543029728266447,0,.522352052292263.48111373237407.907243038192064,2.281853702119406,1.773247756466844,1.663278903353785.797274185078095,1.896962716220514.948481358110257,2.433060875153387,1.635786690074383.646067012045023.824766398356587,1.512071730319803,2.378076448595493,2.336838128676391,4.165070311701129,1.072196317863927,2.378076448595493,1.36086455728946,4.92110617686285.714797545242618,6.323209054068684-.453621519096487.975973571388749-.439875412457695,1.429595090485236.151207173032162,3.835163752359222.522352052292263,2.226869275562422,1.09968853114151,5.113551669810477,1.663278903351966,8.426363369877436.316160452704935,1.828232183024738.371144879261919,2.543029728267356.371144879261919,4.948598390139523,0,2.391822555235194-.054984426556985,3.230335060230573-.384890985900711,5.498442655713006-.563590372210456,3.862655965636804-.426129305817085,4.824883430386762.893496931554182,6.254478520871999.288668239423714.316160452703116.536098158931054.659813118683815.536098158931054.742289758520201,0,.384890985898892-.563590372210456,1.250895704173672-.824766398356587,1.250895704173672-.329906559343726,0-.962227464749958.274922132786742-.962227464749958.426129305818904,0,.054984426556985.164953279670954.23368381286673.357398772621309.384890985898892.426129305817085.343652665982518,1.250895704175491.384890985900711,1.649532796713174.082476639836386.343652665982518-.261176026146131.824766398356587-.261176026146131,1.622040583435592.013746106638791,1.374610663928252.467367625735278,3.354050019983333-.151207173032162,4.604945724158824-1.443341197124028.824766398356587-.838512504995379,1.113434637780301-1.635786690074383,1.113434637780301-2.996651247363843,0-.85225861163417-.041238319916374-1.044704104584525-.302414346064324-1.305880130730657-.178699386309745-.178699386309745-.412383199178294-.49485983901468-.522352052292263-.728543651881409-.109968853113969-.219937706227938-.60482869212683-.714797545242618-1.09968853114151-1.085942424502718s-.893496931554182-.701051438603827-.893496931554182-.74228975852202.151207173032162-.178699386309745.343652665982518-.329906559341907c.219937706227938-.164953279670954.756035865160811-.302414346064324,1.512071730321622-.384890985900711,1.154672957698494-.137461066391552,2.405568661873986-.48111373237407,2.776713541134086-.783528078438394.096222746475178-.082476639836386.439875412455876-.219937706227938.769781971799603-.302414346064324.701051438602008-.192445492950355,1.677025009990757-1.305880130730657,1.677025009990757-1.938201036138707,0-.24742991950734.109968853115788-.453621519096487.316160452704935-.577336478849247.164953279670954-.12371495975276.426129305817085-.536098158931054.563590372210456-.934735251470556.151207173032162-.412383199178294.591082585488039-1.168419064339105.989719678027541-1.704517223270159.467367625735278-.61857479876744.934735251470556-1.484579517042221,1.278387917453074-2.350584235317001l.536098158931054-1.388356770567043.041238319918193-2.804205754413488c.041238319918193-2.446806981792179.068730533195776-2.872936287609264.288668239425533-3.18909674031238.343652665980699-.49485983901468.316160452703116-.824766398356587-.151207173032162-1.663278903353785-.219937706229757-.384890985898892-.508605945653471-1.058450211223317-.632320905408051-1.47083341040161-.109968853113969-.412383199178294-.357398772621309-1.030957997945734-.536098158931054-1.374610663928252-.24742991950734-.49485983901468-.384890985900711-.61857479876744-.659813118685634-.61857479876744-.192445492950355,0-.467367625735278-.096222746475178-.604828692128649-.219937706227938-.151207173032162-.123714959754579-.467367625735278-.357398772621309-.728543651881409-.508605945653471l-.467367625735278-.274922132786742.989719678027541-.494859839012861c1.099688531143329-.563590372210456,1.525817836960414-1.085942424502718,1.525817836960414-1.869470502942931,0-.60482869212683-.137461066393371-.811020291715977-.48111373237407-.783528078438394-.426129305818904.041238319918193-.646067012046842-.811020291717796-.453621519096487-1.745755543188352.109968853113969-.549844265571664.109968853113969-1.030957997945734-.013746106638791-1.800739969745337-.082476639836386-.577336478850157-.151207173032162-1.59454837015619-.151207173032162-2.268107595481524,0-.673559225324425-.068730533197595-1.388356770567043-.151207173032162-1.608294476794981-.192445492950355-.536098158931964-.769781971799603-1.099688531142419-1.498325623682831-1.512071730320713-1.828232183022919-1.003465784667242-1.71826332990895-.893496931553273-1.759501649827143-1.59454837015619-.054984426556985-.74228975852111.054984426556985-.86600471827478,1.525817836960414-1.910708822860215.989719678027541-.701051438602917,1.182165170977896-.975973571388749.962227464749958-1.333372344010058-.24742991950734-.398637092538593-.879750824915391-.591082585488948-2.419314768514596-.728543651881409-.907243038191154-.068730533196685-1.759501649827143-.219937706228848-2.089408209169051-.37114487926101-1.278387917453074-.563590372210456-2.034423782613885-1.635786690074383-2.048169889252677-2.831697967691071,0-.811020291717796.137461066393371-1.044704104585435,1.140926851059703-1.869470502942022.989719678027541-.797274185078095,1.250895704173672-1.333372344010058,1.250895704173672-2.46055308843097,0-1.34711845064885-.439875412455876-2.941666820805949-1.498325623681012-5.402219909236919-.522352052292263-1.22340349089518-1.195911277616688-3.010397354001725-1.512071730319803-3.972624818750774-.302414346064324-.948481358110257-.632320905408051-1.910708822860215-.74228975852202-2.130646529089063-.192445492948536-.3573987726204-2.433060875151568-2.515537514987955-3.491511086376704-3.367796126623034-.591082585488039-.467367625735278-3.519003299654287-1.622040583434682-4.110085885144144-1.622040583434682-.604828692128649,0-1.512071730319803.426129305817994-2.240615382203032,1.058450211224226l-.60482869212683.522352052293172.096222746475178-.481113732374979c.054984426556985-.261176026146131.137461066391552-.907243038192973.178699386309745-1.415848983845535.054984426556985-.783528078439303.027492213279402-.975973571388749-.178699386309745-1.209657384257298-.412383199180113-.453621519095577-.728543651883228-.563590372210456-1.828232183024738-.659813118684724l-1.044704104584525-.082476639835477-.151207173032162-.481113732374979c-.123714959754579-.412383199178294-.316160452704935-.563590372210456-1.374610663928252-1.127180744420912-2.996651247363843-1.59454837015619-4.439992444487871-1.773247756466844-6.543146760297532-.838512504996288l-.797274185077185.357398772621309-.508605945653471-.398637092538593c-.288668239425533-.219937706228848-.852258611635989-.659813118685634-1.250895704175491-.975973571389659-.934735251470556-.769781971799603-1.443341197124028-.783528078438394-2.543029728265537-.109968853113969Z"/>
  <path class="cls-1" d="M55.91367748203902,42.539173627802484c-1.11343463778212.398637092539502-1.539563943599205.61857479876744-2.006931569334483,1.072196317863927-.659813118685634.61857479876744-.907243038192973,1.374610663928252-.646067012046842,1.938201036138707.151207173032162.329906559341907,1.828232183024738,1.732009436547742,2.295599808760016,1.910708822859306.714797545242618.261176026146131,2.254361488841823.343652665982518,2.914174607527457.151207173032162,1.374610663928252-.412383199178294,2.776713541134086-.632320905408051,4.591199617518214-.756035865160811,1.140926851059703-.068730533195776,2.075662102532078-.206191599589147,2.391822555235194-.329906559341907l.522352052292263-.219937706229757-.3711448792601-.343652665980699c-.192445492950355-.178699386311564-.357398772621309-.467367625735278-.357398772621309-.632320905408051,0-.549844265569845-.948481358111167-1.264641810812464-2.488045301710372-1.869470502941112-3.903894285554998-1.553310050238906-4.687422363993392-1.663278903352875-6.845561106360037-.920989144831765Z"/>
  <path class="cls-1" d="M32.462819555429633,48.628698869003529c-.673559225325334.068730533195776-.824766398357497.12371495975276-.811020291717796.316160452703116,0,.137461066391552.013746106638791.426129305817085.027492213278492.632320905406232.013746106639701.219937706227938.219937706228848.673559225324425.439875412456786,1.017211891306943.233683812867639.343652665982518.384890985899801.714797545242618.343652665982518.824766398356587-.164953279671863.412383199178294-1.099688531142419.673559225324425-3.354050019984243.948481358111167-3.257827273509065.384890985898892-4.494976871043946.61857479876744-5.099805563172595.975973571388749-3.18909674031238,1.910708822859306-3.161604527033887,1.883216609579904-3.161604527033887,2.831697967691071,0,.563590372210456.027492213278492.604828692128649.591082585488948.85225861163417.316160452703116.137461066393371,1.058450211224226.357398772621309,1.649532796713174.481113732375889,1.278387917453074.274922132784923,1.443341197124028.206191599589147,1.182165170977896-.536098158932873-.164953279670954-.453621519096487-.151207173032162-.508605945653471.151207173032162-.838512504995379.687305331964126-.728543651881409,1.484579517042221-.178699386311564,1.333372344010058.920989144831765-.068730533196685.549844265571664-.041238319918193.61857479876744.577336478850157,1.237149597534881.426129305817085.426129305817085.783528078438394.659813118685634,1.003465784667242.659813118685634.206191599589147,0,.439875412456786.151207173032162.632320905406232.412383199178294l.302414346064324.398637092539502,1.347118450649759-.068730533197595c2.048169889251767-.109968853113969,2.254361488840914-.151207173032162,2.199377062283929-.508605945653471-.027492213278492-.206191599589147-.164953279670954-.329906559341907-.453621519095577-.384890985898892-.219937706228848-.054984426556985-.343652665982518-.096222746475178-.24742991950734-.109968853113969.082476639835477,0,.384890985899801-.219937706227938.646067012045933-.481113732375889.481113732374979-.439875412455876.49485983901377-.494859839012861.49485983901377-1.415848983844626,0-1.319626237371267.12371495975367-1.814486076385947.49485983901468-2.061915995891468.467367625735278-.302414346064324.769781971799603-.137461066393371,1.415848983845535.756035865158992l.577336478849247.797274185079004.920989144831765-.109968853113969c1.11343463778212-.151207173032162,1.457087303763728-.357398772621309,1.622040583435592-.962227464749958.109968853113969-.384890985900711.219937706227938-.467367625735278.673559225324425-.577336478849247.302414346064324-.054984426556985.632320905407141-.137461066393371.728543651881409-.164953279670954.24742991950734-.068730533197595.206191599589147-.811020291717796-.096222746474268-1.924454929499916-.61857479876835-2.199377062284839-1.443341197124937-3.340303913344542-2.680490794659818-3.697702685965851-.86600471827478-.24742991950734-2.364330341955792-.343652665982518-3.450272766458511-.219937706227938Z"/>
  <path class="cls-1" d="M54.154175832211877,52.065225528823248c-1.250895704175491.357398772621309-1.512071730321622.577336478849247-1.635786690074383,1.319626237369448-.137461066393371.948481358111167.013746106638791,1.567056156878607.522352052292263,2.08940820917087.536098158931054.549844265571664.948481358109348.577336478849247,1.59454837015619.082476639836386.439875412457695-.329906559343726.49485983901468-.343652665982518.646067012046842-.123714959754579.096222746473359.123714959754579.206191599589147.536098158932873.261176026146131.907243038192973.137461066391552.989719678027541.48111373237407,1.305880130730657,1.855724396302321,1.71826332990895,1.896962716220514.563590372210456,2.405568661873986.453621519096487,3.862655965636804-.838512504995379.563590372210456-.508605945653471,1.36086455728946-1.154672957698494,1.759501649827143-1.457087303762819.838512504997198-.61857479876744.893496931554182-.893496931554182.288668239425533-1.415848983846445-.659813118685634-.536098158931054-1.264641810814283-.811020291717796-3.216588953591781-1.415848983844626-3.766433219161627-1.182165170979715-4.467484657765453-1.278387917453074-5.938318068167064-.86600471827478Z"/>
  <path class="cls-1" d="M44.84806163741905,75.653544521824188c-1.072196317863018.384890985900711-1.951947142777499.439875412457695-2.3368381286773.137461066393371-.384890985899801-.288668239425533-.769781971799603-.261176026146131-1.608294476794981.137461066393371-1.017211891306943.467367625735278-1.745755543188352.549844265571664-2.378076448595493.288668239423714-.288668239424624-.12371495975276-.797274185078095-.219937706227938-1.127180744420912-.219937706227938-.536098158931964,0-.646067012045933.054984426556985-.879750824913572.439875412457695-.151207173032162.24742991950734-.274922132785832.591082585488039-.274922132785832.756035865158992,0,.288668239425533-.068730533196685.316160452704935-.728543651882319.316160452704935-.687305331963216,0-.756035865159902.027492213277583-1.388356770567043.687305331963216-.591082585488948.61857479876744-.659813118684724.728543651881409-.577336478849247,1.140926851059703.054984426556985.288668239425533.013746106638791.549844265571664-.096222746475178.701051438603827-.178699386310655.24742991950734-.219937706227938.24742991950734-.838512504996288.041238319918193l-.646067012045933-.219937706229757-1.264641810813373,1.264641810814283c-.701051438602917.701051438603827-1.993185462695692,2.130646529089063-2.886682394248965,3.175350633673588-1.402102877205834,1.649532796713174-1.622040583434682,1.979439356056901-1.580802263516489,2.33683812867821.041238319917284.398637092537683.082476639835477.426129305817085.659813118684724.467367625735278.687305331964126.054984426556985,1.896962716220514-.178699386311564,2.543029728267356-.481113732375889.233683812867639-.109968853113969.646067012045933-.549844265569845.962227464749049-1.044704104584525l.549844265571664-.852258611635989,1.237149597534881.041238319918193c.920989144831765.027492213279402,1.498325623681012-.027492213277583,2.268107595480615-.23368381286673.632320905407141-.178699386311564,1.457087303763728-.288668239425533,2.158138742366646-.288668239425533h1.140926851060613l.646067012045933-.673559225324425c.577336478850157-.577336478849247.769781971799603-.687305331965035,1.484579517042221-.811020291717796,1.539563943599205-.302414346064324,3.422780553180019-.439875412457695,5.924571961529182-.439875412457695h2.488045301708553l.604828692128649.453621519096487c.934735251470556.701051438603827,1.223403490896089.852258611635989,2.185630955646047,1.195911277618507.783528078438394.274922132784923,1.250895704173672.329906559341907,3.93138649883258.412383199178294,2.804205754413488.082476639834567,3.065381780559619.109968853113969,3.45027276646033.384890985898892.219937706227938.151207173032162.494859839012861.384890985900711.591082585488039.508605945653471s.288668239425533.274922132784923.426129305818904.357398772621309c.206191599589147.109968853113969.288668239423714.054984426556985.467367625735278-.274922132784923.151207173032162-.302414346064324.316160452703116-.426129305818904.632320905406232-.453621519096487.797274185079004-.082476639836386,1.278387917453074-1.127180744420912,1.085942424502718-2.364330341955792-.082476639834567-.522352052292263-.23368381286673-.783528078440213-.907243038192973-1.498325623682831-.439875412455876-.467367625735278-.879750824913572-.975973571388749-.962227464748139-1.127180744419093-.137461066393371-.233683812868549-.206191599589147-.24742991950734-.673559225324425-.109968853115788-.288668239425533.096222746475178-.591082585489858.123714959754579-.659813118685634.082476639836386-.068730533197595-.041238319918193-.096222746475178-.343652665982518-.068730533197595-.659813118685634.068730533197595-.563590372210456.041238319918193-.632320905406232-.659813118683815-1.360864557287641-.687305331965035-.728543651883228-1.168419064339105-.948481358111167-1.36086455728946-.632320905408051-.192445492950355.302414346064324-.426129305817085.109968853113969-.61857479876744-.508605945653471-.137461066393371-.439875412455876-.329906559341907-.728543651881409-.577336478849247-.86600471827478-.343652665982518-.192445492948536-.453621519096487-.178699386309745-1.237149597534881.109968853115788-1.140926851061522.398637092537683-1.567056156878607.384890985898892-2.859190180970472-.123714959754579l-1.085942424502718-.426129305817085-.371144879261919.288668239425533c-.467367625735278.3711448792601-.687305331963216.35739877261949-2.103154315807842-.054984426558804-1.415848983846445-.412383199178294-1.498325623682831-.412383199178294-2.680490794660727,0Z"/>
</svg>