<svg xmlns="http://www.w3.org/2000/svg" xml:space="preserve" id="Layer_1" x="0" y="0" version="1.1" viewBox="0 0 96 96">
  <style>
    .st0{fill:none;stroke:#010101;stroke-width:.5;stroke-miterlimit:10}
  </style>
  <path d="M94 48c0 25.4-20.6 46-46 46S2 73.4 2 48 22.6 2 48 2s46 20.6 46 46z" class="st0"/>
  <path d="M15 68.7c-1.5 0-2.7-1.1-2.7-2.7V42.2c0-1.9 1.1-3.5 2.7-3.5h7.7c3.1 0 5.7 1.1 7.7 3.1 1.9 1.9 3.1 4.6 3.1 7.3 0 5.7-4.6 10.3-10.7 10.3h-4.9v5.7c-.2 2.1-1.3 3.6-2.9 3.6z" class="st0"/>
  <path d="M22.3 54.5c3.1 0 5-2.3 5-5s-1.5-5.4-5.4-5.4h-4.2v10.3h4.6zm19.6 11.2c0 1.5 1.1 2.6 2.6 2.6s2.7-1.1 2.7-2.7V44.2h5.4c1.5 0 2.7-1.1 2.7-2.7s-1.1-2.7-2.7-2.7H36.5c-1.5 0-2.7 1.1-2.7 2.7 0 1.5 1.1 2.7 2.7 2.7h5.4v21.5z" class="st0"/>
  <path d="M81.7 44.5c1-.4 1.9-1.9 1.9-3.1 0-1.5-.8-2.7-1.9-3.1L57.2 27.7c-1.5-.8-3.1 0-3.8 1.5-.8 1.5 0 3.1 1.5 3.8l19.9 8.4-19.9 8.4c-1.5.8-2.3 2.3-1.5 3.8.8 1.5 2.3 2.3 3.8 1.5l24.5-10.6z" class="st0"/>
</svg>