<svg xmlns="http://www.w3.org/2000/svg" xml:space="preserve" id="Layer_1" x="0" y="0" version="1.1" viewBox="0 0 96 96">
  <style>
    .st0{fill:none;stroke:#010101;stroke-width:.5}
  </style>
  <path d="M30.2 86.4c.7 0 1.3.6 1.3 1.3v5c0 .7-.6 1.3-1.3 1.3-.7 0-1.3-.6-1.3-1.3v-5c0-.6.5-1.3 1.3-1.3zm34.6 0c.7 0 1.3.6 1.3 1.3v5c0 .7-.6 1.3-1.3 1.3-.7 0-1.3-.6-1.3-1.3v-5c-.2-.6.6-1.3 1.3-1.3zM26.1 2h40.5c2.9 0 5.3 2.3 5.3 5.3 0 1-.7 1.8-1.8 1.8H22.5c-1 0-1.8-.7-1.8-1.8.1-2.8 2.4-5.3 5.4-5.3z" class="st0"/>
  <path d="M26.8 4.6h38.9c1.9 0 3.5 1.6 3.5 3.5v3.5H23.3V8.2c.1-1.9 1.6-3.6 3.5-3.6z" class="st0"/>
  <path d="M46.5 2.4c.6 0 1 .4 1 1v8.2c0 .6-.4 1-1 1s-1-.4-1-1V3.5c-.1-.6.4-1.1 1-1.1z" class="st0"/>
  <path d="M74.9 89.3H20.8c-4.5 0-8.1-3.7-8.1-8.1l2.1-51.6c0-18.3.9-18.3 16.3-18.3H65c16 0 16.3 0 16.3 18.3l2.1 51.6c-.4 4.4-4.1 8.1-8.5 8.1z" class="st0"/>
  <path d="M21.1 77c0-1.6 1.3-2.9 2.9-2.9h10c1.6 0 2.9 1.3 2.9 2.9 0 1.6-1.3 2.9-2.9 2.9H24c-1.6 0-2.9-1.3-2.9-2.9zm36.5 0c0-1.6 1.3-2.9 2.9-2.9h10c1.6 0 2.9 1.3 2.9 2.9 0 1.6-1.3 2.9-2.9 2.9h-10c-1.6 0-2.9-1.3-2.9-2.9zM68 69.6H27.5c-3.4 0-6-2.2-6-5L23 32.5c0-11.4.6-11.4 12.2-11.4h25.2c11.9 0 12.2 0 12.2 11.4L74 64.7c0 2.7-2.6 4.9-6 4.9z" class="st0"/>
  <path d="M63.9 64.8H31.6c-2.6 0-4.8-1.8-4.8-4.1L28 35c0-9.1.4-9.1 9.7-9.1h20.1c9.5 0 9.7 0 9.7 9.1l1.2 25.7c.1 2.2-2.1 4.1-4.8 4.1z" class="st0"/>
  <path d="M37.4 42.5c.7.1 1.3.7 1.2 1.5l-1.9 16.4c-.1.7-.7 1.3-1.5 1.2-.7-.1-1.3-.7-1.2-1.5l1.9-16.4c0-.8.7-1.2 1.5-1.2z" class="st0"/>
  <path d="M45.9 66.6c-.6.4-1.5.3-1.9-.3L35.3 54c-.4-.6-.3-1.5.3-1.9.6-.4 1.5-.3 1.9.3l8.7 12.3c.4.5.3 1.4-.3 1.9z" class="st0"/>
</svg>