<svg xmlns="http://www.w3.org/2000/svg" xml:space="preserve" id="Layer_1" x="0" y="0" version="1.1" viewBox="0 0 96 96">
  <style>
    .st0{fill:none;stroke:#010101;stroke-width:.5}
  </style>
  <path d="M77.1 67h-58c-4.4 0-9.8-3.6-9.8-8.1l3.8-48.8c0-4.4 3.6-8.1 8.1-8.1H75c4.4 0 8.1 3.6 8.1 8.1l3.8 48.8c-.1 4.4-5.4 8.1-9.8 8.1z" class="st0"/>
  <path d="M67.3 40H28.8c-2.8 0-5.1-2.3-5.1-5.1l1.6-15.6c0-2.8 2.3-5.1 5.1-5.1h35.4c2.8 0 5.1 2.3 5.1 5.1l1.6 15.6c-.1 2.8-2.3 5.1-5.2 5.1z" class="st0"/>
  <path d="M41.6 34.8h-9.5c-4.4 0-4.3 0-4-3.1l1.3-9.4c.4-3.1.4-3.1 4-3.1H42c4.4 0 4.1 0 4.1 3.1v9.4c0 3.1-.5 3.1-4.5 3.1zm12.9 0H64c4.4 0 4.3 0 4-3.1l-1.3-9.4c-.4-3.1-.4-3.1-4-3.1H54c-4.4 0-4.1 0-4.1 3.1v9.4c.1 3.1.6 3.1 4.6 3.1zm24.8 41.6H16.8c-1 0-1.8-.9-1.8-1.8 0-1 .9-1.8 1.8-1.8h62.4c1 0 1.8.9 1.8 1.8.1.9-.7 1.8-1.7 1.8zm10.1 10.2H6.7c-1.6 0-2.8-1.3-2.8-2.8S5.2 81 6.7 81h82.5c1.6 0 2.8 1.3 2.8 2.8.3 1.4-1.1 2.8-2.6 2.8z" class="st0"/>
  <path d="M19.1 89.9C20.3 88 34.3 67 34.3 67c.7-1.4-.6-2.6 1.8-2.4 1.6 0 .4 2.4.4 2.4l-8 23.9C27.4 94 26.8 94 22.2 94c-4.8-.1-5.8-.1-3.1-4.1zm57.9 0C75.9 88 61.8 67 61.8 67c-.7-1.4.6-2.6-1.8-2.4-1.6 0-.4 2.4-.4 2.4l8 23.9C68.9 94 69.4 94 74 94s5.7-.1 3-4.1zM25.6 52.6c0 1.5-1.3 2.8-2.8 2.8S20 54.1 20 52.6s1.3-2.8 2.8-2.8 2.8 1.3 2.8 2.8zm8 0c0 1.5-1.3 2.8-2.8 2.8S28 54.1 28 52.6s1.3-2.8 2.8-2.8 2.8 1.3 2.8 2.8zm42.5 0c0 1.5-1.3 2.8-2.8 2.8s-2.8-1.3-2.8-2.8 1.3-2.8 2.8-2.8 2.8 1.3 2.8 2.8zm-8 0c0 1.5-1.3 2.8-2.8 2.8s-2.8-1.3-2.8-2.8 1.3-2.8 2.8-2.8 2.8 1.3 2.8 2.8z" class="st0"/>
</svg>