<svg xmlns="http://www.w3.org/2000/svg" xml:space="preserve" id="Layer_1" x="0" y="0" version="1.1" viewBox="0 0 96 96">
  <style>
    .st0{fill:none;stroke:#010101;stroke-width:.5}
  </style>
  <path d="M69.6 94c-3 0-5.5-2.5-5.5-5.5v-5.3c0-3 2.5-5.5 5.5-5.5s5.5 2.5 5.5 5.5v5.3c0 3-2.5 5.5-5.5 5.5zM26 94c-3 0-5.5-2.5-5.5-5.5v-5.3c0-3 2.5-5.5 5.5-5.5s5.5 2.5 5.5 5.5v5.3c0 3-2.5 5.5-5.5 5.5z" class="st0"/>
  <path d="M76.9 83.8H19.2c-5.4 0-10-4.4-10-10L10.9 12c0-5.4 4.4-10 10-10h54.2c5.4 0 10 4.4 10 10l1.7 61.8c.1 5.4-4.4 10-9.9 10z" class="st0"/>
  <path d="M75.3 68.8c0 3.1-2.6 5.7-5.7 5.7s-5.7-2.6-5.7-5.7 2.6-5.7 5.7-5.7 5.7 2.6 5.7 5.7zm-43.6 0c0 3.1-2.6 5.7-5.7 5.7s-5.7-2.6-5.7-5.7 2.6-5.7 5.7-5.7 5.7 2.6 5.7 5.7z" class="st0"/>
  <path d="M72.4 69c0 1.5-1.3 2.8-2.8 2.8s-2.8-1.3-2.8-2.8 1.3-2.8 2.8-2.8 2.8 1.3 2.8 2.8zM26 71.7c-1.5 0-2.8-1.2-2.8-2.8s1.2-2.8 2.8-2.8c1.5 0 2.8 1.2 2.8 2.8.1 1.6-1.1 2.8-2.8 2.8zm18.1-17.4H18.5c-1.2 0-2.2-1-2.2-2.2l.6-27.9c0-1.2 1-2.2 2.2-2.2h25c1.2 0 2.2 1 2.2 2.2v27.9c0 1.1-.9 2.2-2.2 2.2zm7.8 0h25.6c1.2 0 2.2-1 2.2-2.2l-.6-27.9c0-1.2-1-2.2-2.2-2.2h-25c-1.2 0-2.2 1-2.2 2.2v27.9c0 1.1.9 2.2 2.2 2.2zm27.6-37.9H16.3v-4.3c0-2.5 1.9-4.3 4.3-4.3h54.5c2.5 0 4.3 1.9 4.3 4.3l.1 4.3z" class="st0"/>
</svg>