<?xml version="1.0" encoding="UTF-8"?>
<svg id="emoji" xmlns="http://www.w3.org/2000/svg" version="1.1" viewBox="0 0 96 96">
  <!-- Generator: Adobe Illustrator 29.3.1, SVG Export Plug-In . SVG Version: 2.1.0 Build 151)  -->
  <defs>
    <style>
      .st0 {
        stroke-miterlimit: 2;
      }

      .st0, .st1 {
        fill: none;
        stroke: #000;
        stroke-width: .5px;
      }

      .st1 {
        stroke-linecap: round;
        stroke-linejoin: round;
      }
    </style>
  </defs>
  <path class="st1" d="M44.3,15.8v-4.6c0-2.6,2-4.6,4.6-4.6s4.6,2,4.6,4.6v4.6h-9.2Z"/>
  <path class="st1" d="M69.2,89.4H27c-8.6,0-15.6-7-15.6-15.6V31.6c0-8.6,7-15.6,15.6-15.6h42.1c8.6,0,15.6,7,15.6,15.6v42.1c0,8.6-7,15.6-15.6,15.6Z"/>
  <path class="st1" d="M69.3,39.7c0-2.8-2.3-5.2-5.1-5.2-2.8,0-5.2,2.3-5.2,5.1h0c0,2.9,2.3,5.2,5.1,5.2,2.8,0,5.2-2.3,5.2-5.1h0Z"/>
  <path class="st1" d="M37.1,39.7c0-2.8-2.3-5.2-5.2-5.2s-5.2,2.3-5.2,5.2,2.3,5.2,5.2,5.2,5.2-2.3,5.2-5.2Z"/>
  <path class="st0" d="M63.6,73.8h-31.3c-4,0-7.4-3.3-7.4-7.4h0c0-4,3.3-7.4,7.4-7.4h31.3c4,0,7.4,3.3,7.4,7.4h0c0,4-3.3,7.4-7.4,7.4Z"/>
  <path class="st1" d="M6.6,61.8h0c-2.6,0-4.6-2-4.6-4.6v-14.7c0-2.6,2-4.6,4.6-4.6h0c2.6,0,4.6,2,4.6,4.6v14.7c0,2.6-2,4.6-4.6,4.6Z"/>
  <path class="st1" d="M89.4,61.8h0c2.6,0,4.6-2,4.6-4.6v-14.7c0-2.6-2-4.6-4.6-4.6h0c-2.6,0-4.6,2-4.6,4.6v14.7c0,2.6,2,4.6,4.6,4.6Z"/>
  <path d="M33.3,72.3c-.2,0-.4,0-.4-.4v-11s.2-.4.4-.4.4,0,.4.4v11s-.2.4-.4.4Z"/>
  <path d="M42.5,72.3s-.4,0-.4-.4v-11s0-.4.4-.4.4,0,.4.4v11s0,.4-.4.4Z"/>
  <path d="M51.7,72.3s-.4,0-.4-.4v-11s0-.4.4-.4.4,0,.4.4v11s0,.4-.4.4Z"/>
  <path d="M60.9,72.3s-.4,0-.4-.4v-11s0-.4.4-.4.4,0,.4.4v11s0,.4-.4.4Z"/>
</svg>