<?xml version="1.0" encoding="UTF-8"?>
<svg id="Layer_1" data-name="Layer 1" xmlns="http://www.w3.org/2000/svg" viewBox="0 0 90.5 34.64208984375">
  <defs>
    <style>
      .cls-1 {
        stroke: #f89938;
      }

      .cls-1, .cls-2, .cls-3 {
        fill: none;
        stroke-miterlimit: 10;
        stroke-width: .5px;
      }

      .cls-2 {
        stroke: #33669a;
      }

      .cls-3 {
        stroke: #349946;
      }
    </style>
  </defs>
  <path id="BACKGROUND" class="cls-1" d="M73.25.39208984375c-5.7781982421875,0-10.8751220703125,2.88897705078125-13.9468994140625,7.2947998046875C56.242919921875,3.19873046875,51.0919189453125.25,45.25.25c-5.81005859375,0-10.933837890625,2.91900634765625-14,7.36590576171875C28.183837890625,3.16900634765625,23.06005859375.25,17.25.25,7.86114501953125.25.25,7.8612060546875.25,17.25c0,9.38885498046875,7.61114501953125,17,17,17,5.81005859375,0,10.933837890625-2.9189453125,14-7.3658447265625,3.066162109375,4.4468994140625,8.18994140625,7.3658447265625,14,7.3658447265625,5.7781982421875,0,10.8751220703125-2.88897705078125,13.9468994140625-7.2947998046875,3.0601806640625,4.4881591796875,8.211181640625,7.4368896484375,14.0531005859375,7.4368896484375,9.38885498046875,0,17-7.6112060546875,17-17,0-9.38885498046875-7.61114501953125-17-17-17Z"/>
  <path id="MIDDLE" class="cls-3" d="M56.25,17.39208984375c0-3.61065673828125,1.13360595703125-6.9521484375,3.0531005859375-9.7052001953125C56.242919921875,3.19873046875,51.0919189453125.25,45.25.25c-5.81005859375,0-10.933837890625,2.91900634765625-14,7.36590576171875,1.888671875,2.7391357421875,3,6.0552978515625,3,9.63409423828125s-1.111328125,6.89501953125-3,9.6341552734375c3.066162109375,4.4468994140625,8.18994140625,7.3658447265625,14,7.3658447265625,5.7781982421875,0,10.8751220703125-2.88897705078125,13.9468994140625-7.2947998046875-1.8580322265625-2.7249755859375-2.9468994140625-6.01617431640625-2.9468994140625-9.5631103515625Z"/>
  <path id="LEFT" class="cls-1" d="M28.25,17.25c0-3.57879638671875,1.111328125-6.89495849609375,3-9.63409423828125C28.183837890625,3.16900634765625,23.06005859375.25,17.25.25,7.86114501953125.25.25,7.8612060546875.25,17.25c0,9.38885498046875,7.61114501953125,17,17,17,5.81005859375,0,10.933837890625-2.9189453125,14-7.3658447265625-1.888671875-2.7391357421875-3-6.05535888671875-3-9.6341552734375Z"/>
  <path id="RIGHT" class="cls-2" d="M73.25.39208984375c-5.7781982421875,0-10.8751220703125,2.88897705078125-13.9468994140625,7.2947998046875,1.8580322265625,2.7249755859375,2.9468994140625,6.01617431640625,2.9468994140625,9.5631103515625,0,3.61065673828125-1.13360595703125,6.9521484375-3.0531005859375,9.7052001953125,3.0601806640625,4.4881591796875,8.211181640625,7.4368896484375,14.0531005859375,7.4368896484375,9.38885498046875,0,17-7.6112060546875,17-17,0-9.38885498046875-7.61114501953125-17-17-17Z"/>
</svg>