<?xml version="1.0" encoding="UTF-8"?>
<svg id="Layer_1" data-name="Layer 1" xmlns="http://www.w3.org/2000/svg" viewBox="0 0 85.698556186471251 90.500000000005457">
  <defs>
    <style>
      .cls-1 {
        fill: none;
        stroke: #000;
        stroke-miterlimit: 10;
        stroke-width: .5px;
      }
    </style>
  </defs>
  <path class="cls-1" d="M85.103179873380213,20.173791391836858c-1.312504107303539-9.667519973958406-9.813772189119845-17.287535757821388-19.890036616612633-18.765038971392642-1.702505246015789-.251250574552614-8.14501993018348-1.158752420444216-23.066300704780588-1.158752420444216h-.112499228078377c-14.925030510446959,0-18.131287120986599.907501845891602-19.830040843009556,1.158752308685507C12.405532811466401,2.845005186894923,3.458014870971965,9.69251883558718,1.286760233584573,19.476288667547124.248008077545819,24.295049711125102.135507955394132,29.638809536596455.32675834186557,34.536318609316368c.277500569525728,7.027512815950104.330000671232483,14.043778212493635.975001952709135,21.04129314164129.442501016901588,4.650008625174451,1.218752664404747,9.262516315560788,2.325004759622971,13.800029288941005,2.062504474604793,8.388765277450148,10.413770605409809,15.367529739203746,18.600037629945291,18.213788462262528,8.760017736911323,2.97000537054555,18.183788787318917,3.461258317929605,27.210055651026778,1.424999759097773.993753314174683-.228753556437368,1.97625563265683-.495000895090925,2.947506955444624-.798749168532595,2.193754617113882-.69000146444705,4.762507853252828-1.462500693885886,6.652510620639077-2.823756731671892.051448450110911-.038116055977298.083105733607226-.097289283805367.086252865270581-.161247582274882v-6.783763892397474c.00001430514385-.060067299324146-.027651843200147-.11678719496922-.075001869578045-.153751686861142-.048487285319425-.038752634882258-.112295379776697-.052621471912062-.172498577967417-.037500934788113-5.786141036793197,1.369159629801288-11.712873028040121,2.055098433374951-17.658784640996601,2.043754454245573-10.237519162341414,0-12.986277600721223-4.815011307728128-13.777527297554116-6.817516879478717-.633129576646752-1.73091526184362-1.035343731980902-3.537726464757725-1.196253355232329-5.373763076702744-.005460988691993-.109627470435953.078985852158439-.202932771659107.188616898882174-.208390184065138.01981262433037-.000987054931102.039659223377384.000994207503027.058883548663289.005886566723348,5.688762345838768,1.361256037786006,11.520025382842505,2.047502401954262,17.370035310956155,2.047502401954262,1.410004391982511,0,2.812505735977538,0,4.218758603965398-.037500934788113,5.887510862901763-.165002682555496,12.09002099493955-.465003008290296,17.880035149448304-1.58250654623771.142500691166788-.029997886802448.288749330040446-.056247825896207.41250313009914-.090000812977451,9.131266620086535-1.740006180803903,17.823787323552096-7.200014970205302,18.708789357355272-21.015043202547531.029997886800629-.543752825571573.11250280436434-5.700013341531303.11250280436434-6.262513058212789.007503047985665-1.920004230472841.626250590563359-13.612528191284582-.090007965549376-20.793776600808997ZM71.048154241480006,54.655108782366369h-9.603772676362496v-23.317545523746958c0-4.908760068412448-2.062501345355486-7.410014482962652-6.262513058212789-7.410014482962652-4.612507690386337,0-6.922513059571429,2.962505898845848-6.922513059571429,8.812515826959498v12.761275568276687h-9.547521274180326v-12.765023515985376c0-5.850011716254812-2.313753316893781-8.81251761510066-6.930012531272951-8.81251761510066-4.170008461625912,0-6.255013586511268,2.505004150400055-6.262513058212789,7.413764218812503v23.317545523746958h-9.588768368530509v-24.022545931595232c0-4.912509804262299,1.263752176821072-8.81251761510066,3.791258318608016-11.700023432511443,2.610005694919892-2.887505817410783,6.030011554068551-4.365009030983856,10.275020097127708-4.365009030983856,4.91625954011397,0,8.63251777728874,1.875003823985026,11.107522252743365,5.617512000255374l2.39250671046284,3.975007892269787,2.392506710464659-3.975007892269787c2.475004475452806-3.7462579121202,6.187511188636563-5.617512000255374,11.100022781041844-5.617512000255374,4.237509071361274,0,7.661266454500947,1.481252949422924,10.27502367341549,4.365009030983856,2.531252301350833,2.887505817410783,3.795004478171904,6.787513628249144,3.795004478171904,11.700023432511443l-.011250995692535,24.022545931595232Z"/>
</svg>