<?xml version="1.0" encoding="UTF-8"?>
<svg id="Layer_1" data-name="Layer 1" xmlns="http://www.w3.org/2000/svg" viewBox="0 0 86.5 78.855202982421361">
  <defs>
    <style>
      .cls-1 {
        fill: none;
        stroke: #000;
        stroke-miterlimit: 10;
        stroke-width: .5px;
      }
    </style>
  </defs>
  <path class="cls-1" d="M31.814149658708629,49.888631500086376L53.710822418841417,10.340098592670074c.29992563151427-.542158141840446.602714987922809-1.082166781341584.873258391924537-1.642599964722649.245456763834227-.508833166598379.454009750639671-1.022682977762997.589817973892423-1.577741550965584.287742840040664-1.167808558924662.210699071811177-2.385066777961583-.236499934537278-3.499841748988729-.443617641560195-1.109041540902581-1.224423511606801-2.03461673516631-2.222024975202658-2.635541467861913-.989502384831212-.598852974678266-2.153756917632563-.842069249688393-3.30024815447905-.689433225340508-1.149173843105018.154083264793371-2.198373614815864.693375118738004-3.025409163135919,1.53653321609454-.392015916109813.400616488463129-.715234088069337.846024812417454-1.014800899636612,1.322249789329362-.329666678968351.524241920244094-.627083988198137,1.067474813253284-.928082662214365,1.60963295509373l-1.38460073513761,2.500808422945738-1.384959555083697-2.500808422945738c-.299925631513361-.542874927397861-.597342940743147-1.085749854794813-.927009619711498-1.609633382260654-.299925631513361-.476224976911908-.623140386135674-.921633300866233-1.01587394213675-1.322249789329362-.825959088482705-.843158097355627-1.87515886019446-1.382091558522006-3.024332703299478-1.537250001651046-1.146566418168732-.152247302740761-2.310769690978304.091210748565572-3.300248154479959.690150010897014-.997601463594037.600925159862527-1.77876615358764,1.526499926960241-2.222742615093921,2.635541895028837-.446484783788947,1.114416151081969-.523525134685769,2.332033190064067-.236499934536369,3.499841748988729.136167043197929.555416538814825.344716612671618,1.069266349979443.590532196450113,1.577741550965584.269825764111374.560433183381065.572615120520823,1.100083002937936.873258391923628,1.642599964722649l4.472000315469813,8.077908385920637-17.423958222103465,31.470624521495665H7.522374268483873c-.600566767083365,0-1.200774714222462-.002508322282665-1.800983088526664.032967009630738-.545383249680526.032249369738565-1.076433351217929.101768171118238-1.605333096083086.255848872911884-1.113699792690568.324650034403021-2.086216538367808,1.002618108161187-2.788908160682695,1.963667780008109-.698749942499489.954959984774177-1.077149923191428,2.124555808759396-1.077149923191428,3.324975974703193,0,1.201130971165185.378758320073757,2.369298350035024,1.077149923191428,3.32425833481102.702333229536634.961405074456707,1.675208367992127,1.639376565548446,2.788549767903532,1.96366778000629.52925813764432.154080701793646,1.060666631959975.223240683228141,1.605691488862249.256211110192453.600208374304202.035834151856761,1.200416748609314.03225278707032,1.800983088526664.03225278707032h46.932346826045432c.061276194637685-.127924436455942.211416711699712-.463684219826973.358334683922294-.966421719022037,1.487083128815357-5.070775118661913-2.205898581665679-10.187417678314887-7.291009411468622-10.187417678314887l-15.707896708274347-.000010251997082Z"/>
  <path class="cls-1" d="M11.232944784664141,63.044486678075373l-2.666746208981749,5.202271976066186c-.293116595886204.556492144316508-.589100334001159,1.110831368961954-.854266564824684,1.685961646431679-.240083007987778.522448674852058-.444333145617748,1.049913994269446-.577275080974687,1.619665389893271-.281291770026655,1.198984886163089-.206400067134382,2.44884702321724.231124897190057,3.593721861645463.434300283651282,1.137705274190012,1.198983177496302,2.089083894179566,2.175082783041034,2.705058133409693.977175211049143.616336476508877,2.110941154840475.865733425072904,3.229658019265116.707709121215885,1.124808260160535-.157668901247234,2.151791951266205-.711652723279258,2.960908714989273-1.57738614835398.384133837980698-.411364854488056.700182445697465-.868597149968991.993300750251365-1.357009190020108.323216463287281-.538571651053644.614183556835997-1.096143672537437.908374903891854-1.652635816855764l4.116891593719629-7.799829763069283c-.321066960949793-.533917243765245-3.394491358749292-5.268932579054308-10.34508316222491-3.303118714042284l-.171970645342299.175591503679243Z"/>
  <path class="cls-1" d="M85.171772471150689,52.09882908642885c-.691032537097271-.936318434289205-1.672545197814543-1.617580816879126-2.791414133549551-1.937508097335012-.528900599198096-.152290019401335-1.06102716057103-.220732360945476-1.606406138585953-.252626328072438-.60128654280561-.035475331913403-1.201130971167004-.032608189685561-1.802417513974433-.032608189685561h-11.899535590080632l-15.727607883925884-28.010915074710283c-2.384707103681649,2.510124926522622-3.451465131378427,5.321250235727348-3.860325080917391,7.874732572293397-.593040518731868,3.702659597002821.131509218575957,7.501349663334622,1.956498215768079,10.751434789478481l18.898855142113462,33.65932708445871c.300998674016228.535352523545953.598415983246014,1.071415852315113.928441482161361,1.589210119878771.299925631512451.469418504286296.623143803466519.909092543781298,1.016232762081927,1.304334422065949.827753188206771.832407595498807,1.876949542585862,1.364889559483345,3.027558665473407,1.516468773661472,1.143801795924446.151934616787912,2.30408197066572-.087435877310782,3.302756476761715-.680472978710895.997601463595856-.592326296175088,1.780198016034774-1.506435484525355,2.225250937377496-2.600426237393549.446481366456283-1.100798079827655.523166314742411-2.302291288273409.235782294645105-3.454691093551446-.136522445809533-.547894134964736-.344720030001554-1.055292876115345-.591253253671312-1.557319570085383-.269825764113193-.552910779530066-.572615120521732-1.085748146129845-.873613794536141-1.621100669675798l-4.357331712988525-7.762218598147228h5.71900214496236c.600924305528679,0,1.200775568553581.003225962174838,1.802055276695683-.032252787073958.545385812680252-.032252787072139,1.077505539386038-.10033289133753,1.606406138585953-.252622910738864,1.11886893573319-.319923863124131,2.10038159645228-1.001189663045807,2.791414133549551-1.937511514668586.701516914159583-.950182553506238,1.079357733771758-2.100525124431442,1.077874611331936-3.281616855992979.001284917136218-1.18111223555934-.37667209178835-2.331430885156806-1.078223179278211-3.281616855994798Z"/>
</svg>