<?xml version="1.0" encoding="UTF-8"?>
<svg id="Layer_1" data-name="Layer 1" xmlns="http://www.w3.org/2000/svg" viewBox="0 0 90.5 88.271503168021809">
  <defs>
    <style>
      .cls-1 {
        fill: none;
        stroke: #000;
        stroke-miterlimit: 10;
        stroke-width: .5px;
      }
    </style>
  </defs>
  <path class="cls-1" d="M45.138558688560806.250135185338877C20.276058259407364.250135185338877.25,20.39875054359436.25,45.25c0,19.886251688001721,12.89249986410141,36.750000715255737,30.768749713897705,42.693747282028198,2.250001430511475.423753261566162,3.07499885559082-.967497825622559,3.07499885559082-2.163748741149902,0-1.06874942779541-.037500858305975-3.900003433227539-.056251287460327-7.650003433227539-12.51750111579895,2.714996337892444-15.157499313354492-6.03750228881654-15.157499313354492-6.03750228881654-2.047498226166681-5.193743705751331-5.006248354912714-6.581239700319202-5.006248354912714-6.581239700319202-4.076249599455878-2.789998054504395.315000414848328-2.733750343322754.315000414848328-2.733750343322754,4.518749713897705.314998626710803,6.89250111579895,4.635000228881836,6.89250111579895,4.635000228881836,4.012500643731073,6.881246566772461,10.533750057220459,4.89375114440918,13.106249570846558,3.742496967315674.404999256134943-2.909996509552002,1.563749313355402-4.893751144410999,2.850000858307794-6.018748283388049-9.993749856948853-1.124997138973413-20.49750030040741-4.995002746580212-20.49750030040741-22.237501144407361,0-4.912497997283936,1.74375057220459-8.925000429153442,4.631250500679016-12.075001001358032-.506250858307794-1.13625168800354-2.024999856948853-5.711249113082886.393750071525574-11.910000443458557,0,0,3.768750429153442-1.207500100135803,12.374998927115485,4.612500071525574,3.600000143052057-1.001250743865967,7.425001859665826-1.496250629425049,11.250000000000909-1.518750786781311,3.824998140336902.022500157356262,7.649999856950672.517500042915344,11.25,1.518750786781311,8.549998998643787-5.820000171661377,12.318753004074097-4.612500071525574,12.318753004074097-4.612500071525574,2.41875171661377,6.198749542236328.899999141691296,10.773748755455017.450003147125244,11.910000443458557,2.868747711181641,3.15000057220459,4.612498283384411,7.16249942779541,4.612498283384411,12.075001001358032,0,17.287502288818359-10.518751144407361,21.09375-20.531251430511475,22.200000286102295,1.575000286102295,1.350002288818359,3.037501573564441,4.110002517700195,3.037501573564441,8.324997425081165,0,6.022503376005261-.056251287460327,10.859999656675427-.056251287460327,12.322497367855249,0,1.181252002717883.787500143052966,2.587502002717883,3.093749284746082,2.137498855592639,18.003748655317395-5.902497768400281,30.88499665260133-22.7774977684021,30.88499665260133-42.633744478225708C90.25,20.39875054359436,70.102445880125742.25,45.251200000000608.25l-.112641311439802.000135185338877Z"/>
</svg>