<?xml version="1.0" encoding="UTF-8"?>
<svg id="Layer_1" data-name="Layer 1" xmlns="http://www.w3.org/2000/svg" viewBox="0 0 90.5 80.499043778018859">
  <defs>
    <style>
      .cls-1 {
        fill: none;
        stroke: #000;
        stroke-miterlimit: 10;
        stroke-width: .5px;
      }
    </style>
  </defs>
  <path class="cls-1" d="M45.25,35.747783959238404c-4.076249599456787-7.927501201629639-15.172500014305115-22.698749899864197-25.492499470710754-29.981249570846558C9.872499942779541-1.212216734559661,6.103749960660934-.004716634423858,3.632500037550926,1.116533458559388.771249994635582,2.402783215372438.25,6.797782957880372.25,9.377782821981782c0,2.58749932050705,1.417499966919422,21.18750125169754,2.340000048279762,24.296249449253082,3.056249991059303,10.260000228881836,13.923749551177025,13.72499942779541,23.93624983727932,12.615001201629639.510000586509705-.07500171661377,1.031250357627869-.146248340606689,1.556249856948853-.209999084472656-.517500042915344.082501173019409-1.035000085830688.149999856948853-1.556249856948853.209999084472656-14.669999778270721,2.174999713897705-27.701250314712524,7.518750429153442-10.612499713897705,26.542496681213379,18.798751831054688,19.462502002716064,25.762499570846558-4.173753261566162,29.336249828338623-16.155002117156982,3.573750257492065,11.98124885559082,7.687500715255737,34.766249656677246,28.998749256134033,16.155002117156982,16.001250743865967-16.155002117156982,4.395003318786621-24.36750054359436-10.274999141693115-26.542500257492065-.520355701446533-.057560205459595-1.039252281188965-.127580165863037-1.556253433227539-.209999084472656.524997711181641.063750743865967,1.046247482299805.135000944137573,1.556253433227539.209999084472656,10.012500286102295,1.113749742507935,20.880002975463867-2.355000972747803,23.936247825622559-12.615001201629639.922501087188721-3.105000257492065,2.340002059936523-21.712499856948853,2.340002059936523-24.292500615119934,0-2.587500214576721-.521249771118164-6.978749781847-3.382501602172852-8.272500336170197-2.471251487731934-1.11749991774559-6.239998340606689-2.325000017881393-16.124997138977051,4.650000035762787-10.320003032684326,7.293756008148193-21.416251659393311,22.065006494522095-25.492501258850098,29.98875617980957Z"/>
</svg>