<svg xmlns="http://www.w3.org/2000/svg" xml:space="preserve" id="Layer_1" x="0" y="0" version="1.1" viewBox="0 0 96 96">
  <style>
    .st0{fill:none;stroke:#010101;stroke-width:.5}
  </style>
  <path d="M88.6 48c0 12.5-10.2 22.7-22.7 22.7S43.2 60.5 43.2 48s10.2-22.7 22.7-22.7S88.6 35.5 88.6 48z" class="st0"/>
  <path d="M38.8 20.8c-2.6 0-5.3 0-8 .1-3.2.2-5.8.6-8.2 1.2C17 23.8 12 27 8.5 31.7S3 42 3 47.9c0 5.8 1.9 11.6 5.4 16.2C12 68.7 17 72 22.6 73.6c2.4.7 5 1 8.2 1.2 2.8.1 5.7.1 8.6.1h17.2c2.8 0 5.8 0 8.6-.1 3.2-.2 5.8-.6 8.2-1.2C79 72 84 68.7 87.5 64.1s5.4-10.3 5.4-16.2c0-5.8-1.9-11.6-5.4-16.2s-8.4-7.9-14.2-9.5c-2.4-.7-5-1-8.2-1.2-2.8-.1-5.7-.1-8.7-.1h-17c-.1-.1-.4-.1-.6-.1z" class="st0"/>
  <path d="M40.2 76.2h-.8c-2.9 0-5.8 0-8.6-.1-3.3-.2-6-.6-8.4-1.2-5.9-1.7-11-5.1-14.7-10C4 60.1 2 54.1 2 48c0-6 2-12 5.7-16.9 3.7-4.9 8.8-8.3 14.7-10 2.5-.7 5.2-1.1 8.4-1.2 2.9-.1 5.9-.1 8.7-.1h17c3.1 0 5.9 0 8.7.1 3.3.2 6 .6 8.4 1.2 5.9 1.7 11 5.1 14.7 10C92 35.9 94 41.9 94 48c0 6-2 12-5.7 16.9-3.7 4.9-8.8 8.3-14.7 10-2.5.7-5.1 1.1-8.4 1.2-2.8.1-5.8.1-8.6.1H40.2z" class="st0"/>
  <path d="M65.9 71.8c-13.1 0-23.8-10.7-23.8-23.8s10.7-23.8 23.8-23.8S89.7 34.9 89.7 48 79 71.8 65.9 71.8z" class="st0"/>
</svg>