<svg xmlns="http://www.w3.org/2000/svg" xml:space="preserve" id="Layer_1" x="0" y="0" version="1.1" viewBox="0 0 96 96">
  <style>
    .st0{fill:none;stroke:#010101;stroke-width:.5}
  </style>
  <path d="M85.4 37.7s3-1.7 3.8-2.1c.7-.4 3.6-2.2 4.6-.6.6.9-.5 3.5-2.4 6.1-1.7 2.4-5.5 7.4-5.8 8.4-.2.9.8 4.9 1.2 6.5.3 1.6 1.4 5.2.9 6.6-.4 1.5-2.6 5.3-8.3 5.2-4.5 0-5.8-1.4-6-2.2-.1-.6-.4-2.5-.4-2.5s-3.7 2.3-5.4 3.1c-1.8.8-6.4 3.2-6.4 3.2s.9 4.1 1 5.8c.1 1.7.6 4.1-.2 5.6s-3.2 3.9-9.1 3.9c-4.6 0-5.8-1.5-6.5-2.3-.7-.8-.8-5-.8-5.9 0-.8-.1-3.9-.1-3.9s-6.2-.3-9.9-.6c-3.3-.2-7.8-.7-7.8-.7s.2 1.8.3 3.1c.1 1.2.2 3.6-1 4.8-1.7 1.6-5.9 1.7-8.2 1.5s-5.5-1.4-6.5-3.6c-.9-2.1.3-4.8.8-6.5.4-1.4 1.3-3.5.9-4-.3-.5-3.1-1.4-7.2-5.3-4.1-4.1-9.4-18.2 2.5-28s34 .8 35.1 1.6c1.2.6 40.9 2.8 40.9 2.8z" class="st0"/>
  <path d="M49.5 11.3c-10.8.5-18.9 6-22.9 11.7-2.4 3.5-3.6 6-3.6 6s3.8.1 7.1 1.9c3.9 2.1 8.4 4.3 11.3 14 2.2 7.3 3 14.3 8.9 15.9 6.5 1.8 21.8.8 29.1-6.2 7.3-7.1 8.7-12.4 6.8-19.4-1.9-7-10.1-19.4-21.8-22.6-4.9-1.5-10-1.5-14.9-1.3z" class="st0"/>
  <path d="M84.8 31.6c-.3-.7-1-1.9-1-1.9s0 1.6-.2 2.4c-.2 1.4-.9 4.2-1.4 3.8-.7-.7-4.4-5.3-6.2-8-1.4-2-5.9-7-6-8.7 0-.8.9-3.6.9-3.6l-1.8-1c-.7-.4-1.7-.8-1.7-.8s-.6 3.8-1.3 4.5c-.6.6-4.1 2-6.8 3-3.3 1.3-6.5 2.9-7.7 3.1-1 .2-7-1-9.3-1.6-2.8-.5-7.1-1.8-8.1-2.4-1.2-.8-2.4-2.9-2.4-2.9s-.7.4-1.4 1c-.7.5-1.6 1.6-1.6 1.6s1.8 1.8 1.9 2.5c.1.9-.9 2.2-1.9 3.3-.5.7-2.1 3.8-2.1 3.8s.7.1 1.7.5c.9.4 1.9.9 1.9.9s2.3-5.3 3.8-5.9c1.3-.4 4.9.7 7.5 1.4 3.7.7 7.4 1.5 8.3 2.4.8 1 1.6 5.1 2.3 8.7.8 3.9 2.9 13.7 2.4 14.4-.5.7-4.4.5-6.6.2-1.9-.2-4.9-1.4-4.9-1.4s.4 1.7.6 2.1c.2.6.9 2.4.9 2.4s4.4 1.9 17.4.7 19.4-10 21.1-13.9c2.4-5.2 2.7-8.1 2.7-8.1s-.7-1.8-1-2.5z" class="st0"/>
  <path d="M73 48.5c-3.2 2.1-11.7 4.3-13.3 3.5-1.3-.6-3-10.8-3.9-15.3-.5-2.9-1.9-7.3-1-8.7.5-.9 3.7-2.3 6.1-3.5 2.2-1 5.4-2.4 6.3-2.3 1.4.1 4.1 4.7 7 8.7 2.8 3.9 6 8 6 9.4-.1 1.4-3.8 6-7.2 8.2zm-42.9-5.7c.4 2.2-.7 4.4-3.1 4.6-2 .2-3.6-1.3-4-3.5-.4-2.2.8-4.3 2.8-4.6 2-.2 3.9 1.3 4.3 3.5zm-14.3.2c0 2.2-1.9 4.4-4.3 4-2-.4-3-2.1-2.8-4.3.2-2.2 2-3.8 4-3.6 2 .1 3.1 1.6 3.1 3.9zm6.2 8.1c.9-.6 2.4-2.1 3.3-.8.9 1.3-.7 2.4-1.7 3.1-.9.7-3.1 2.4-4.7 2.4-1.5 0-3.7-1.8-5.1-3-1.2-.9-1.7-2.2-1-3 .6-.7 1.7-.5 2.5.3.9.8 2.8 2.6 3.7 2.6.7 0 1.8-.8 3-1.6z" class="st0"/>
</svg>