<?xml version="1.0" encoding="UTF-8"?>
<!--Generator: Apple Native CoreSVG 341-->
<!DOCTYPE svg
PUBLIC "-//W3C//DTD SVG 1.1//EN"
       "http://www.w3.org/Graphics/SVG/1.1/DTD/svg11.dtd">
<svg version="1.1" xmlns="http://www.w3.org/2000/svg" xmlns:xlink="http://www.w3.org/1999/xlink" viewBox="0 0 3300 2200">
 <!--glyph: "", point size: 100.0, font version: "20.0d10e1", template writer version: "138.0.0"-->
 <style>.monochrome-0 {-sfsymbols-motion-group:4;-sfsymbols-layer-tags:739bd32d1d4c6214}
.monochrome-1 {-sfsymbols-motion-group:3;-sfsymbols-layer-tags:739bd32d1d4c6214}
.monochrome-2 {opacity:0.0;-sfsymbols-clear-behind:true;-sfsymbols-motion-group:2;-sfsymbols-layer-tags:739bd32d1d4c6214}
.monochrome-3 {-sfsymbols-motion-group:1;-sfsymbols-layer-tags:739bd32d1d4c6214}
.monochrome-4 {opacity:0.0;-sfsymbols-clear-behind:true;-sfsymbols-motion-group:0;-sfsymbols-layer-tags:739bd32d1d4c6214}

.multicolor-0:systemOrangeColor {-sfsymbols-motion-group:4;-sfsymbols-layer-tags:739bd32d1d4c6214}
.multicolor-1:systemCyanColor {-sfsymbols-motion-group:3;-sfsymbols-layer-tags:739bd32d1d4c6214}
.multicolor-2:systemBlueColor {-sfsymbols-motion-group:2;-sfsymbols-layer-tags:739bd32d1d4c6214}
.multicolor-3:systemOrangeColor {-sfsymbols-motion-group:1;-sfsymbols-layer-tags:739bd32d1d4c6214}
.multicolor-4:black {-sfsymbols-motion-group:0;-sfsymbols-layer-tags:739bd32d1d4c6214}

.hierarchical-0:secondary {-sfsymbols-motion-group:4;-sfsymbols-layer-tags:739bd32d1d4c6214}
.hierarchical-1:tertiary {-sfsymbols-motion-group:3;-sfsymbols-layer-tags:739bd32d1d4c6214}
.hierarchical-2:secondary {-sfsymbols-motion-group:2;-sfsymbols-layer-tags:739bd32d1d4c6214}
.hierarchical-3:secondary {-sfsymbols-motion-group:1;-sfsymbols-layer-tags:739bd32d1d4c6214}
.hierarchical-4:primary {-sfsymbols-motion-group:0;-sfsymbols-layer-tags:739bd32d1d4c6214}

.SFSymbolsPreviewWireframe {fill:none;opacity:1.0;stroke:black;stroke-width:0.5}
</style>
 <g id="Notes">
  <rect height="2200" id="artboard" style="fill:white;opacity:1" width="3300" x="0" y="0"/>
  <line style="fill:none;stroke:black;opacity:1;stroke-width:0.5;" x1="263" x2="3036" y1="292" y2="292"/>
  <text style="stroke:none;fill:black;font-family:sans-serif;font-size:13;font-weight:bold;" transform="matrix(1 0 0 1 263 322)">Weight/Scale Variations</text>
  <text style="stroke:none;fill:black;font-family:sans-serif;font-size:13;text-anchor:middle;" transform="matrix(1 0 0 1 559.711 322)">Ultralight</text>
  <text style="stroke:none;fill:black;font-family:sans-serif;font-size:13;text-anchor:middle;" transform="matrix(1 0 0 1 856.422 322)">Thin</text>
  <text style="stroke:none;fill:black;font-family:sans-serif;font-size:13;text-anchor:middle;" transform="matrix(1 0 0 1 1153.13 322)">Light</text>
  <text style="stroke:none;fill:black;font-family:sans-serif;font-size:13;text-anchor:middle;" transform="matrix(1 0 0 1 1449.84 322)">Regular</text>
  <text style="stroke:none;fill:black;font-family:sans-serif;font-size:13;text-anchor:middle;" transform="matrix(1 0 0 1 1746.56 322)">Medium</text>
  <text style="stroke:none;fill:black;font-family:sans-serif;font-size:13;text-anchor:middle;" transform="matrix(1 0 0 1 2043.27 322)">Semibold</text>
  <text style="stroke:none;fill:black;font-family:sans-serif;font-size:13;text-anchor:middle;" transform="matrix(1 0 0 1 2339.98 322)">Bold</text>
  <text style="stroke:none;fill:black;font-family:sans-serif;font-size:13;text-anchor:middle;" transform="matrix(1 0 0 1 2636.69 322)">Heavy</text>
  <text style="stroke:none;fill:black;font-family:sans-serif;font-size:13;text-anchor:middle;" transform="matrix(1 0 0 1 2933.4 322)">Black</text>
  <line style="fill:none;stroke:black;opacity:1;stroke-width:0.5;" x1="263" x2="3036" y1="1903" y2="1903"/>
  <g transform="matrix(0.2 0 0 0.2 263 1933)">
   <path d="m46.2402 4.15039c21.7773 0 39.4531-17.627 39.4531-39.4043s-17.6758-39.4043-39.4531-39.4043c-21.7285 0-39.4043 17.627-39.4043 39.4043s17.6758 39.4043 39.4043 39.4043Zm0-7.42188c-17.6758 0-31.9336-14.3066-31.9336-31.9824s14.2578-31.9824 31.9336-31.9824 31.9824 14.3066 31.9824 31.9824-14.3066 31.9824-31.9824 31.9824Zm-17.9688-31.9824c0 2.14844 1.51367 3.61328 3.75977 3.61328h10.498v10.5957c0 2.19727 1.46484 3.71094 3.61328 3.71094 2.24609 0 3.71094-1.51367 3.71094-3.71094v-10.5957h10.5957c2.19727 0 3.71094-1.46484 3.71094-3.61328 0-2.19727-1.51367-3.71094-3.71094-3.71094h-10.5957v-10.5469c0-2.24609-1.46484-3.75977-3.71094-3.75977-2.14844 0-3.61328 1.51367-3.61328 3.75977v10.5469h-10.498c-2.24609 0-3.75977 1.51367-3.75977 3.71094Z"/>
  </g>
  <g transform="matrix(0.2 0 0 0.2 281.506 1933)">
   <path d="m58.5449 14.5508c27.4902 0 49.8047-22.3145 49.8047-49.8047s-22.3145-49.8047-49.8047-49.8047-49.8047 22.3145-49.8047 49.8047 22.3145 49.8047 49.8047 49.8047Zm0-8.30078c-22.9492 0-41.5039-18.5547-41.5039-41.5039s18.5547-41.5039 41.5039-41.5039 41.5039 18.5547 41.5039 41.5039-18.5547 41.5039-41.5039 41.5039Zm-22.6562-41.5039c0 2.39258 1.66016 4.00391 4.15039 4.00391h14.3555v14.4043c0 2.44141 1.66016 4.15039 4.05273 4.15039 2.44141 0 4.15039-1.66016 4.15039-4.15039v-14.4043h14.4043c2.44141 0 4.15039-1.61133 4.15039-4.00391 0-2.44141-1.70898-4.15039-4.15039-4.15039h-14.4043v-14.3555c0-2.49023-1.70898-4.19922-4.15039-4.19922-2.39258 0-4.05273 1.70898-4.05273 4.19922v14.3555h-14.3555c-2.49023 0-4.15039 1.70898-4.15039 4.15039Z"/>
  </g>
  <g transform="matrix(0.2 0 0 0.2 304.924 1933)">
   <path d="m74.8535 28.3203c35.1074 0 63.623-28.4668 63.623-63.5742s-28.5156-63.623-63.623-63.623-63.5742 28.5156-63.5742 63.623 28.4668 63.5742 63.5742 63.5742Zm0-9.08203c-30.127 0-54.4922-24.3652-54.4922-54.4922s24.3652-54.4922 54.4922-54.4922 54.4922 24.3652 54.4922 54.4922-24.3652 54.4922-54.4922 54.4922Zm-28.8574-54.4922c0 2.58789 1.85547 4.39453 4.58984 4.39453h19.7266v19.7754c0 2.68555 1.85547 4.58984 4.44336 4.58984 2.68555 0 4.54102-1.85547 4.54102-4.58984v-19.7754h19.7754c2.68555 0 4.58984-1.80664 4.58984-4.39453 0-2.73438-1.85547-4.58984-4.58984-4.58984h-19.7754v-19.7266c0-2.73438-1.85547-4.63867-4.54102-4.63867-2.58789 0-4.44336 1.9043-4.44336 4.63867v19.7266h-19.7266c-2.73438 0-4.58984 1.85547-4.58984 4.58984Z"/>
  </g>
  <text style="stroke:none;fill:black;font-family:sans-serif;font-size:13;font-weight:bold;" transform="matrix(1 0 0 1 263 1953)">Design Variations</text>
  <text style="stroke:none;fill:black;font-family:sans-serif;font-size:13;" transform="matrix(1 0 0 1 263 1971)">Symbols are supported in up to nine weights and three scales.</text>
  <text style="stroke:none;fill:black;font-family:sans-serif;font-size:13;" transform="matrix(1 0 0 1 263 1989)">For optimal layout with text and other symbols, vertically align</text>
  <text style="stroke:none;fill:black;font-family:sans-serif;font-size:13;" transform="matrix(1 0 0 1 263 2007)">symbols with the adjacent text.</text>
  <line style="fill:none;stroke:#00AEEF;stroke-width:0.5;opacity:1.0;" x1="776" x2="776" y1="1919" y2="1933"/>
  <g transform="matrix(0.2 0 0 0.2 776 1933)">
   <path d="m16.5527 0.78125c2.58789 0 3.85742-0.976562 4.78516-3.71094l6.29883-17.2363h28.8086l6.29883 17.2363c0.927734 2.73438 2.19727 3.71094 4.73633 3.71094 2.58789 0 4.24805-1.5625 4.24805-4.00391 0-0.830078-0.146484-1.61133-0.537109-2.63672l-22.9004-60.9863c-1.12305-2.97852-3.125-4.49219-6.25-4.49219-3.02734 0-5.07812 1.46484-6.15234 4.44336l-22.9004 61.084c-0.390625 1.02539-0.537109 1.80664-0.537109 2.63672 0 2.44141 1.5625 3.95508 4.10156 3.95508Zm13.4766-28.3691 11.8652-32.8613h0.244141l11.8652 32.8613Z"/>
  </g>
  <line style="fill:none;stroke:#00AEEF;stroke-width:0.5;opacity:1.0;" x1="792.836" x2="792.836" y1="1919" y2="1933"/>
  <text style="stroke:none;fill:black;font-family:sans-serif;font-size:13;font-weight:bold;" transform="matrix(1 0 0 1 776 1953)">Margins</text>
  <text style="stroke:none;fill:black;font-family:sans-serif;font-size:13;" transform="matrix(1 0 0 1 776 1971)">Leading and trailing margins on the left and right side of each symbol</text>
  <text style="stroke:none;fill:black;font-family:sans-serif;font-size:13;" transform="matrix(1 0 0 1 776 1989)">can be adjusted by modifying the x-location of the margin guidelines.</text>
  <text style="stroke:none;fill:black;font-family:sans-serif;font-size:13;" transform="matrix(1 0 0 1 776 2007)">Modifications are automatically applied proportionally to all</text>
  <text style="stroke:none;fill:black;font-family:sans-serif;font-size:13;" transform="matrix(1 0 0 1 776 2025)">scales and weights.</text>
  <g transform="matrix(0.2 0 0 0.2 1289 1933)">
   <path d="m14.209 9.32617 8.49609 8.54492c4.29688 4.3457 9.22852 4.05273 13.8672-1.07422l53.4668-58.9355-4.83398-4.88281-53.0762 58.3984c-1.75781 2.00195-3.41797 2.49023-5.76172 0.146484l-5.85938-5.81055c-2.34375-2.29492-1.80664-4.00391 0.195312-5.81055l57.373-54.0039-4.88281-4.83398-57.959 54.4434c-4.93164 4.58984-5.32227 9.47266-1.02539 13.8184Zm32.0801-90.9668c-2.09961 2.05078-2.24609 4.93164-1.07422 6.88477 1.17188 1.80664 3.4668 2.97852 6.68945 2.14844 7.32422-1.70898 14.9414-2.00195 22.0703 2.68555l-2.92969 7.27539c-1.70898 4.15039-0.830078 7.08008 1.85547 9.81445l11.4746 11.5723c2.44141 2.44141 4.49219 2.53906 7.32422 2.05078l5.32227-0.976562 3.32031 3.36914-0.195312 2.7832c-0.195312 2.49023 0.439453 4.39453 2.88086 6.78711l3.80859 3.71094c2.39258 2.39258 5.46875 2.53906 7.8125 0.195312l14.5508-14.5996c2.34375-2.34375 2.24609-5.32227-0.146484-7.71484l-3.85742-3.80859c-2.39258-2.39258-4.24805-3.17383-6.64062-2.97852l-2.88086 0.244141-3.22266-3.17383 1.2207-5.61523c0.634766-2.83203-0.146484-5.0293-3.07617-7.95898l-10.9863-10.9375c-16.6992-16.6016-38.8672-16.2109-53.3203-1.75781Zm7.4707 1.85547c12.1582-8.88672 28.6133-7.37305 39.7461 3.75977l12.1582 12.0605c1.17188 1.17188 1.36719 2.09961 1.02539 3.80859l-1.61133 7.42188 7.51953 7.42188 4.93164-0.292969c1.26953-0.0488281 1.66016 0.0488281 2.63672 1.02539l2.88086 2.88086-12.207 12.207-2.88086-2.88086c-0.976562-0.976562-1.12305-1.36719-1.07422-2.68555l0.341797-4.88281-7.4707-7.42188-7.61719 1.26953c-1.61133 0.341797-2.34375 0.195312-3.56445-0.976562l-10.0098-10.0098c-1.26953-1.17188-1.41602-2.00195-0.634766-3.85742l4.39453-10.4492c-7.8125-7.27539-17.9688-10.4004-28.125-7.42188-0.78125 0.195312-1.07422-0.439453-0.439453-0.976562Z"/>
  </g>
  <text style="stroke:none;fill:black;font-family:sans-serif;font-size:13;font-weight:bold;" transform="matrix(1 0 0 1 1289 1953)">Exporting</text>
  <text style="stroke:none;fill:black;font-family:sans-serif;font-size:13;" transform="matrix(1 0 0 1 1289 1971)">Symbols should be outlined when exporting to ensure the</text>
  <text style="stroke:none;fill:black;font-family:sans-serif;font-size:13;" transform="matrix(1 0 0 1 1289 1989)">design is preserved when submitting to Xcode.</text>
  <text id="template-version" style="stroke:none;fill:black;font-family:sans-serif;font-size:13;text-anchor:end;" transform="matrix(1 0 0 1 3036 1933)">Template v.6.0</text>
  <text style="stroke:none;fill:black;font-family:sans-serif;font-size:13;text-anchor:end;" transform="matrix(1 0 0 1 3036 1951)">Requires Xcode 16 or greater</text>
  <text id="descriptive-name" style="stroke:none;fill:black;font-family:sans-serif;font-size:13;text-anchor:end;" transform="matrix(1 0 0 1 3036 1969)">Generated from bird</text>
  <text style="stroke:none;fill:black;font-family:sans-serif;font-size:13;text-anchor:end;" transform="matrix(1 0 0 1 3036 1987)">Typeset at 100.0 points</text>
  <text style="stroke:none;fill:black;font-family:sans-serif;font-size:13;" transform="matrix(1 0 0 1 263 726)">Small</text>
  <text style="stroke:none;fill:black;font-family:sans-serif;font-size:13;" transform="matrix(1 0 0 1 263 1156)">Medium</text>
  <text style="stroke:none;fill:black;font-family:sans-serif;font-size:13;" transform="matrix(1 0 0 1 263 1586)">Large</text>
 </g>
 <g id="Guides">
  <g id="H-reference" style="fill:#27AAE1;stroke:none;" transform="matrix(1 0 0 1 339 696)">
   <path d="M0.993654 0L3.63775 0L29.3281-67.1323L30.0303-67.1323L30.0303-70.459L28.1226-70.459ZM11.6885-24.4799L46.9815-24.4799L46.2315-26.7285L12.4385-26.7285ZM55.1196 0L57.7637 0L30.6382-70.459L29.4326-70.459L29.4326-67.1323Z"/>
  </g>
  <line id="Baseline-S" style="fill:none;stroke:#27AAE1;opacity:1;stroke-width:0.5;" x1="263" x2="3036" y1="696" y2="696"/>
  <line id="Capline-S" style="fill:none;stroke:#27AAE1;opacity:1;stroke-width:0.5;" x1="263" x2="3036" y1="625.541" y2="625.541"/>
  <g id="H-reference" style="fill:#27AAE1;stroke:none;" transform="matrix(1 0 0 1 339 1126)">
   <path d="M0.993654 0L3.63775 0L29.3281-67.1323L30.0303-67.1323L30.0303-70.459L28.1226-70.459ZM11.6885-24.4799L46.9815-24.4799L46.2315-26.7285L12.4385-26.7285ZM55.1196 0L57.7637 0L30.6382-70.459L29.4326-70.459L29.4326-67.1323Z"/>
  </g>
  <line id="Baseline-M" style="fill:none;stroke:#27AAE1;opacity:1;stroke-width:0.5;" x1="263" x2="3036" y1="1126" y2="1126"/>
  <line id="Capline-M" style="fill:none;stroke:#27AAE1;opacity:1;stroke-width:0.5;" x1="263" x2="3036" y1="1055.54" y2="1055.54"/>
  <g id="H-reference" style="fill:#27AAE1;stroke:none;" transform="matrix(1 0 0 1 339 1556)">
   <path d="M0.993654 0L3.63775 0L29.3281-67.1323L30.0303-67.1323L30.0303-70.459L28.1226-70.459ZM11.6885-24.4799L46.9815-24.4799L46.2315-26.7285L12.4385-26.7285ZM55.1196 0L57.7637 0L30.6382-70.459L29.4326-70.459L29.4326-67.1323Z"/>
  </g>
  <line id="Baseline-L" style="fill:none;stroke:#27AAE1;opacity:1;stroke-width:0.5;" x1="263" x2="3036" y1="1556" y2="1556"/>
  <line id="Capline-L" style="fill:none;stroke:#27AAE1;opacity:1;stroke-width:0.5;" x1="263" x2="3036" y1="1485.54" y2="1485.54"/>
  <line id="right-margin-Black-S" style="fill:none;stroke:#00AEEF;stroke-width:0.5;opacity:1.0;" x1="2982.2" x2="2982.2" y1="600.785" y2="720.121"/>
  <line id="left-margin-Black-S" style="fill:none;stroke:#00AEEF;stroke-width:0.5;opacity:1.0;" x1="2884.6" x2="2884.6" y1="600.785" y2="720.121"/>
  <line id="right-margin-Regular-S" style="fill:none;stroke:#00AEEF;stroke-width:0.5;opacity:1.0;" x1="1496.09" x2="1496.09" y1="600.785" y2="720.121"/>
  <line id="left-margin-Regular-S" style="fill:none;stroke:#00AEEF;stroke-width:0.5;opacity:1.0;" x1="1403.59" x2="1403.59" y1="600.785" y2="720.121"/>
  <line id="right-margin-Ultralight-S" style="fill:none;stroke:#00AEEF;stroke-width:0.5;opacity:1.0;" x1="603.811" x2="603.811" y1="600.785" y2="720.121"/>
  <line id="left-margin-Ultralight-S" style="fill:none;stroke:#00AEEF;stroke-width:0.5;opacity:1.0;" x1="515.611" x2="515.611" y1="600.785" y2="720.121"/>
 </g>
 <g id="Symbols">
  <g id="Black-S" transform="matrix(1 0 0 1 2884.6 696)">
   <path class="monochrome-0 multicolor-0:systemOrangeColor hierarchical-0:secondary SFSymbolsPreviewWireframe" d="M34.6-18C34.6-18 36.5-12.8 35.3-11C34.2-9.2 29.8-9.4 28.3-8.7C27.3-8.2 27.3-6.4 27.9-5.6C28.4-5 37.3-5.5 39-8.9C40.7-12.3 38.5-18.7 38.5-18.7L34.6-18ZM48.7-18.5L45-17.8C45-17.8 46.6-11 45.3-8.8C44-6.6 39.3-4.2 38.4-2.4C37.7-0.7 39.5 0.7 42.5-1.2C45.5-3 48.7-5.8 49.4-7C50.9-10.1 48.7-18.5 48.7-18.5Z"/>
   <path class="monochrome-1 multicolor-1:systemCyanColor hierarchical-1:tertiary SFSymbolsPreviewWireframe" d="M23.1-69.8C15.2-68 9-61.2 11.3-51C12.8-45 13.5-42.9 14-40C15.1-34.2 14.7-31.8 17.2-26.5C19.7-20.9 29.3-13.6 41-15.5C52.8-17.3 57.5-18.9 57.5-18.9L61.8-22.6L65.9-23.6L66.4-26.6C66.4-26.6 69.4-26.7 70-27.7C71-29.3 70.4-30.4 68.7-31.2C67-31.7 66-32.3 66-32.3C66-32.3 82.6-43.2 84.7-44.4C86.7-45.6 89.9-47.7 90-48.5C90.4-50.4 85.2-54.6 78.5-56.6C71.8-58.6 65.9-59.2 65-58.4C63.7-57.4 58.1-46.9 54.4-47.4C49.5-48 46.3-52.6 45.2-55.3C44.3-58.2 38.1-73.1 23.1-69.8Z"/>
   <path class="monochrome-2 multicolor-2:systemBlueColor hierarchical-2:secondary SFSymbolsPreviewWireframe" d="M35.3-32.5C33.8-32 35.7-27 37.6-24.8C39.6-22.4 44.5-17.1 51.7-16.5C56.7-16 59-17.3 60-18.7C60.8-19.7 61.8-20.8 62.4-21.3C63.2-21.9 64.3-21.4 65.8-22.6C67-23.4 67.3-24.9 67.8-25.3C68.3-25.8 69.4-25.7 70-26.1C70.8-26.9 70.7-29.6 70.1-29.7C69.5-29.8 69.5-27.9 68.6-27.6C68-27.3 67-27.5 65.9-26.9C64.8-26.4 65.3-25.1 64.4-24.5C63.7-24 62.3-24.7 60.6-23.8C59.6-23.3 58.8-20.6 56-20.1C52.6-19.4 47.2-21.9 44.8-23.8C39-27.8 37.7-33.3 35.3-32.5L35.3-32.5Z"/>
   <path class="monochrome-3 multicolor-3:systemOrangeColor hierarchical-3:secondary SFSymbolsPreviewWireframe" d="M13-54C11.8-54.2 8.6-50.9 8-50.2C7.4-49.5 6.4-48.2 6.8-47.5C7.3-46 10.1-46 11.8-45.9C13.5-45.8 16.8-45.5 17.2-46.4C17.7-47.4 16.7-50 15.6-51.6C14.9-52.9 14.2-53.8 13-54Z"/>
   <path class="monochrome-4 multicolor-4:black hierarchical-4:primary SFSymbolsPreviewWireframe" d="M27.8-56.8C27.8-55.2 26.5-53.9 24.9-53.9C23.3-53.9 22.1-55.3 22.1-56.8C22.1-58.4 23.4-59.7 25-59.7C26.6-59.7 27.8-58.4 27.8-56.8Z"/>
  </g>
  <g id="Regular-S" transform="matrix(1 0 0 1 1403.59 696)">
   <path class="monochrome-0 multicolor-0:systemOrangeColor hierarchical-0:secondary SFSymbolsPreviewWireframe" d="M32.6-18C32.6-18 34.5-12.8 33.3-11C32.2-9.2 27.8-9.4 26.3-8.7C25.3-8.2 25.3-6.4 25.9-5.6C26.4-5 35.3-5.5 37-8.9C38.7-12.3 36.5-18.7 36.5-18.7L32.6-18ZM46.7-18.5L43-17.8C43-17.8 44.6-11 43.3-8.8C42-6.6 37.3-4.2 36.4-2.4C35.7-0.7 37.5 0.7 40.5-1.2C43.5-3 46.7-5.8 47.4-7C48.9-10.1 46.7-18.5 46.7-18.5Z"/>
   <path class="monochrome-1 multicolor-1:systemCyanColor hierarchical-1:tertiary SFSymbolsPreviewWireframe" d="M21.1-69.8C13.2-68 7-61.2 9.3-51C10.8-45 11.5-42.9 12-40C13.1-34.2 12.7-31.8 15.2-26.5C17.7-20.9 27.3-13.6 39-15.5C50.7-17.4 55.5-18.9 55.5-18.9L59.8-22.6L63.9-23.6L64.4-26.6C64.4-26.6 67.4-26.7 68-27.7C69-29.3 68.4-30.4 66.7-31.2C65-31.7 64-32.3 64-32.3C64-32.3 80.6-43.2 82.7-44.4C84.7-45.6 87.9-47.7 88-48.5C88.4-50.4 83.2-54.6 76.5-56.6C69.8-58.6 63.9-59.2 63-58.4C61.7-57.4 56.1-46.9 52.4-47.4C47.5-48 44.3-52.6 43.2-55.3C42.3-58.2 36.1-73.1 21.1-69.8Z"/>
   <path class="monochrome-2 multicolor-2:systemBlueColor hierarchical-2:secondary SFSymbolsPreviewWireframe" d="M33.3-32.5C31.8-32 33.7-27 35.6-24.8C37.6-22.4 42.5-17.1 49.7-16.5C54.7-16 57-17.3 58-18.7C58.8-19.7 59.8-20.8 60.4-21.3C61.2-21.9 62.3-21.4 63.8-22.6C65-23.4 65.3-24.9 65.8-25.3C66.3-25.7 67.4-25.7 68-26.1C68.8-26.9 68.7-29.6 68.1-29.7C67.5-29.8 67.5-27.9 66.6-27.6C66-27.3 65-27.5 63.9-26.9C62.8-26.4 63.3-25.1 62.4-24.5C61.7-24 60.3-24.7 58.6-23.8C57.6-23.3 56.8-20.6 54-20.1C50.6-19.4 45.2-21.9 42.8-23.8C37-27.8 35.7-33.3 33.3-32.5L33.3-32.5Z"/>
   <path class="monochrome-3 multicolor-3:systemOrangeColor hierarchical-3:secondary SFSymbolsPreviewWireframe" d="M11-54C9.8-54.2 6.6-50.9 6-50.2C5.4-49.5 4.4-48.2 4.8-47.5C5.3-46 8.1-46 9.8-45.9C11.5-45.8 14.8-45.5 15.2-46.4C15.7-47.4 14.7-50 13.6-51.6C12.9-52.9 12.2-53.8 11-54Z"/>
   <path class="monochrome-4 multicolor-4:black hierarchical-4:primary SFSymbolsPreviewWireframe" d="M25.8-56.8C25.8-55.2 24.5-53.9 22.9-53.9C21.3-53.9 20.1-55.3 20.1-56.8C20.1-58.4 21.4-59.7 23-59.7C24.6-59.7 25.8-58.4 25.8-56.8Z"/>
  </g>
  <g id="Ultralight-S" transform="matrix(1 0 0 1 515.611 696)">
   <path class="monochrome-0 multicolor-0:systemOrangeColor hierarchical-0:secondary SFSymbolsPreviewWireframe" d="M30-18C30-18 31.9-12.8 30.7-11C29.6-9.2 25.2-9.4 23.7-8.7C22.7-8.2 22.7-6.4 23.3-5.6C23.8-5 32.7-5.5 34.4-8.9C36.1-12.3 33.9-18.7 33.9-18.7L30-18ZM44.1-18.5L40.4-17.8C40.4-17.8 42-11 40.7-8.8C39.4-6.6 34.7-4.2 33.8-2.4C33.1-0.7 34.9 0.7 37.9-1.2C40.9-3 44.1-5.8 44.8-7C46.2-10.1 44.1-18.5 44.1-18.5Z"/>
   <path class="monochrome-1 multicolor-1:systemCyanColor hierarchical-1:tertiary SFSymbolsPreviewWireframe" d="M18.5-69.8C10.6-68 4.4-61.2 6.7-51C8.2-45 8.9-42.9 9.4-40C10.5-34.2 10.1-31.8 12.6-26.5C15.1-20.9 24.7-13.6 36.4-15.5C48.2-17.3 52.9-18.9 52.9-18.9L57.2-22.6L61.3-23.6L61.8-26.6C61.8-26.6 64.8-26.7 65.4-27.7C66.4-29.3 65.8-30.4 64.1-31.2C62.4-31.7 61.4-32.3 61.4-32.3C61.4-32.3 78-43.2 80.1-44.4C82.1-45.6 85.3-47.7 85.4-48.5C85.8-50.4 80.6-54.6 73.9-56.6C67.2-58.6 61.3-59.2 60.4-58.4C59.1-57.4 53.5-46.9 49.8-47.4C44.9-48 41.7-52.6 40.6-55.3C39.7-58.2 33.5-73.1 18.5-69.8Z"/>
   <path class="monochrome-2 multicolor-2:systemBlueColor hierarchical-2:secondary SFSymbolsPreviewWireframe" d="M30.7-32.5C29.2-32 31.1-27 33-24.8C35-22.4 39.9-17.1 47.1-16.5C52.1-16 54.4-17.3 55.4-18.7C56.2-19.7 57.2-20.8 57.8-21.3C58.6-21.9 59.7-21.4 61.2-22.6C62.4-23.4 62.7-24.9 63.2-25.3C63.7-25.7 64.8-25.7 65.4-26.1C66.2-26.9 66.1-29.6 65.5-29.7C64.9-29.8 64.9-27.9 64-27.6C63.4-27.3 62.4-27.5 61.3-26.9C60.2-26.4 60.7-25.1 59.8-24.5C59.1-24 57.7-24.7 56-23.8C55-23.3 54.2-20.6 51.4-20.1C48-19.4 42.6-21.9 40.2-23.8C34.4-27.8 33.1-33.3 30.7-32.5L30.7-32.5Z"/>
   <path class="monochrome-3 multicolor-3:systemOrangeColor hierarchical-3:secondary SFSymbolsPreviewWireframe" d="M8.3-54C7.1-54.2 3.9-50.9 3.3-50.2C2.7-49.5 1.7-48.2 2.1-47.5C2.6-46 5.4-46 7.1-45.9C8.8-45.8 12.1-45.5 12.5-46.4C13-47.4 12-50 10.9-51.6C10.2-52.9 9.6-53.8 8.3-54Z"/>
   <path class="monochrome-4 multicolor-4:black hierarchical-4:primary SFSymbolsPreviewWireframe" d="M23.2-56.8C23.2-55.2 21.9-53.9 20.3-53.9C18.7-53.9 17.5-55.3 17.5-56.8C17.5-58.4 18.8-59.7 20.4-59.7C22-59.7 23.2-58.4 23.2-56.8Z"/>
  </g>
 </g>
</svg>
