<?xml version="1.0" encoding="UTF-8"?>
<!--Generator: Apple Native CoreSVG 341-->
<!DOCTYPE svg
PUBLIC "-//W3C//DTD SVG 1.1//EN"
       "http://www.w3.org/Graphics/SVG/1.1/DTD/svg11.dtd">
<svg version="1.1" xmlns="http://www.w3.org/2000/svg" xmlns:xlink="http://www.w3.org/1999/xlink" viewBox="0 0 3300 2200">
 <!--glyph: "", point size: 100.0, font version: "20.0d10e1", template writer version: "138.0.0"-->
 <style>.monochrome-0 {-sfsymbols-motion-group:4;-sfsymbols-layer-tags:6b68b3bf61be97f0}
.monochrome-1 {-sfsymbols-motion-group:3;-sfsymbols-layer-tags:6b68b3bf61be97f0}
.monochrome-2 {-sfsymbols-motion-group:2;-sfsymbols-layer-tags:6b68b3bf61be97f0}
.monochrome-4 {-sfsymbols-motion-group:0;-sfsymbols-layer-tags:6b68b3bf61be97f0}

.multicolor-0:systemOrangeColor {-sfsymbols-clear-behind:true;-sfsymbols-motion-group:4;-sfsymbols-layer-tags:6b68b3bf61be97f0}
.multicolor-1:systemCyanColor {-sfsymbols-clear-behind:true;-sfsymbols-motion-group:3;-sfsymbols-layer-tags:6b68b3bf61be97f0}
.multicolor-2:systemOrangeColor {-sfsymbols-clear-behind:true;-sfsymbols-motion-group:2;-sfsymbols-layer-tags:6b68b3bf61be97f0}
.multicolor-4:systemBlueColor {-sfsymbols-clear-behind:true;-sfsymbols-motion-group:0;-sfsymbols-layer-tags:6b68b3bf61be97f0}

.hierarchical-0:secondary {-sfsymbols-clear-behind:true;-sfsymbols-motion-group:4;-sfsymbols-layer-tags:6b68b3bf61be97f0}
.hierarchical-1:tertiary {-sfsymbols-clear-behind:true;-sfsymbols-motion-group:3;-sfsymbols-layer-tags:6b68b3bf61be97f0}
.hierarchical-2:primary {-sfsymbols-clear-behind:true;-sfsymbols-motion-group:2;-sfsymbols-layer-tags:6b68b3bf61be97f0}
.hierarchical-4:secondary {-sfsymbols-clear-behind:true;-sfsymbols-motion-group:0;-sfsymbols-layer-tags:6b68b3bf61be97f0}

.SFSymbolsPreviewWireframe {fill:none;opacity:1.0;stroke:black;stroke-width:0.5}
</style>
 <g id="Notes">
  <rect height="2200" id="artboard" style="fill:white;opacity:1" width="3300" x="0" y="0"/>
  <line style="fill:none;stroke:black;opacity:1;stroke-width:0.5;" x1="263" x2="3036" y1="292" y2="292"/>
  <text style="stroke:none;fill:black;font-family:sans-serif;font-size:13;font-weight:bold;" transform="matrix(1 0 0 1 263 322)">Weight/Scale Variations</text>
  <text style="stroke:none;fill:black;font-family:sans-serif;font-size:13;text-anchor:middle;" transform="matrix(1 0 0 1 559.711 322)">Ultralight</text>
  <text style="stroke:none;fill:black;font-family:sans-serif;font-size:13;text-anchor:middle;" transform="matrix(1 0 0 1 856.422 322)">Thin</text>
  <text style="stroke:none;fill:black;font-family:sans-serif;font-size:13;text-anchor:middle;" transform="matrix(1 0 0 1 1153.13 322)">Light</text>
  <text style="stroke:none;fill:black;font-family:sans-serif;font-size:13;text-anchor:middle;" transform="matrix(1 0 0 1 1449.84 322)">Regular</text>
  <text style="stroke:none;fill:black;font-family:sans-serif;font-size:13;text-anchor:middle;" transform="matrix(1 0 0 1 1746.56 322)">Medium</text>
  <text style="stroke:none;fill:black;font-family:sans-serif;font-size:13;text-anchor:middle;" transform="matrix(1 0 0 1 2043.27 322)">Semibold</text>
  <text style="stroke:none;fill:black;font-family:sans-serif;font-size:13;text-anchor:middle;" transform="matrix(1 0 0 1 2339.98 322)">Bold</text>
  <text style="stroke:none;fill:black;font-family:sans-serif;font-size:13;text-anchor:middle;" transform="matrix(1 0 0 1 2636.69 322)">Heavy</text>
  <text style="stroke:none;fill:black;font-family:sans-serif;font-size:13;text-anchor:middle;" transform="matrix(1 0 0 1 2933.4 322)">Black</text>
  <line style="fill:none;stroke:black;opacity:1;stroke-width:0.5;" x1="263" x2="3036" y1="1903" y2="1903"/>
  <g transform="matrix(0.2 0 0 0.2 263 1933)">
   <path d="m46.2402 4.15039c21.7773 0 39.4531-17.627 39.4531-39.4043s-17.6758-39.4043-39.4531-39.4043c-21.7285 0-39.4043 17.627-39.4043 39.4043s17.6758 39.4043 39.4043 39.4043Zm0-7.42188c-17.6758 0-31.9336-14.3066-31.9336-31.9824s14.2578-31.9824 31.9336-31.9824 31.9824 14.3066 31.9824 31.9824-14.3066 31.9824-31.9824 31.9824Zm-17.9688-31.9824c0 2.14844 1.51367 3.61328 3.75977 3.61328h10.498v10.5957c0 2.19727 1.46484 3.71094 3.61328 3.71094 2.24609 0 3.71094-1.51367 3.71094-3.71094v-10.5957h10.5957c2.19727 0 3.71094-1.46484 3.71094-3.61328 0-2.19727-1.51367-3.71094-3.71094-3.71094h-10.5957v-10.5469c0-2.24609-1.46484-3.75977-3.71094-3.75977-2.14844 0-3.61328 1.51367-3.61328 3.75977v10.5469h-10.498c-2.24609 0-3.75977 1.51367-3.75977 3.71094Z"/>
  </g>
  <g transform="matrix(0.2 0 0 0.2 281.506 1933)">
   <path d="m58.5449 14.5508c27.4902 0 49.8047-22.3145 49.8047-49.8047s-22.3145-49.8047-49.8047-49.8047-49.8047 22.3145-49.8047 49.8047 22.3145 49.8047 49.8047 49.8047Zm0-8.30078c-22.9492 0-41.5039-18.5547-41.5039-41.5039s18.5547-41.5039 41.5039-41.5039 41.5039 18.5547 41.5039 41.5039-18.5547 41.5039-41.5039 41.5039Zm-22.6562-41.5039c0 2.39258 1.66016 4.00391 4.15039 4.00391h14.3555v14.4043c0 2.44141 1.66016 4.15039 4.05273 4.15039 2.44141 0 4.15039-1.66016 4.15039-4.15039v-14.4043h14.4043c2.44141 0 4.15039-1.61133 4.15039-4.00391 0-2.44141-1.70898-4.15039-4.15039-4.15039h-14.4043v-14.3555c0-2.49023-1.70898-4.19922-4.15039-4.19922-2.39258 0-4.05273 1.70898-4.05273 4.19922v14.3555h-14.3555c-2.49023 0-4.15039 1.70898-4.15039 4.15039Z"/>
  </g>
  <g transform="matrix(0.2 0 0 0.2 304.924 1933)">
   <path d="m74.8535 28.3203c35.1074 0 63.623-28.4668 63.623-63.5742s-28.5156-63.623-63.623-63.623-63.5742 28.5156-63.5742 63.623 28.4668 63.5742 63.5742 63.5742Zm0-9.08203c-30.127 0-54.4922-24.3652-54.4922-54.4922s24.3652-54.4922 54.4922-54.4922 54.4922 24.3652 54.4922 54.4922-24.3652 54.4922-54.4922 54.4922Zm-28.8574-54.4922c0 2.58789 1.85547 4.39453 4.58984 4.39453h19.7266v19.7754c0 2.68555 1.85547 4.58984 4.44336 4.58984 2.68555 0 4.54102-1.85547 4.54102-4.58984v-19.7754h19.7754c2.68555 0 4.58984-1.80664 4.58984-4.39453 0-2.73438-1.85547-4.58984-4.58984-4.58984h-19.7754v-19.7266c0-2.73438-1.85547-4.63867-4.54102-4.63867-2.58789 0-4.44336 1.9043-4.44336 4.63867v19.7266h-19.7266c-2.73438 0-4.58984 1.85547-4.58984 4.58984Z"/>
  </g>
  <text style="stroke:none;fill:black;font-family:sans-serif;font-size:13;font-weight:bold;" transform="matrix(1 0 0 1 263 1953)">Design Variations</text>
  <text style="stroke:none;fill:black;font-family:sans-serif;font-size:13;" transform="matrix(1 0 0 1 263 1971)">Symbols are supported in up to nine weights and three scales.</text>
  <text style="stroke:none;fill:black;font-family:sans-serif;font-size:13;" transform="matrix(1 0 0 1 263 1989)">For optimal layout with text and other symbols, vertically align</text>
  <text style="stroke:none;fill:black;font-family:sans-serif;font-size:13;" transform="matrix(1 0 0 1 263 2007)">symbols with the adjacent text.</text>
  <line style="fill:none;stroke:#00AEEF;stroke-width:0.5;opacity:1.0;" x1="776" x2="776" y1="1919" y2="1933"/>
  <g transform="matrix(0.2 0 0 0.2 776 1933)">
   <path d="m16.5527 0.78125c2.58789 0 3.85742-0.976562 4.78516-3.71094l6.29883-17.2363h28.8086l6.29883 17.2363c0.927734 2.73438 2.19727 3.71094 4.73633 3.71094 2.58789 0 4.24805-1.5625 4.24805-4.00391 0-0.830078-0.146484-1.61133-0.537109-2.63672l-22.9004-60.9863c-1.12305-2.97852-3.125-4.49219-6.25-4.49219-3.02734 0-5.07812 1.46484-6.15234 4.44336l-22.9004 61.084c-0.390625 1.02539-0.537109 1.80664-0.537109 2.63672 0 2.44141 1.5625 3.95508 4.10156 3.95508Zm13.4766-28.3691 11.8652-32.8613h0.244141l11.8652 32.8613Z"/>
  </g>
  <line style="fill:none;stroke:#00AEEF;stroke-width:0.5;opacity:1.0;" x1="792.836" x2="792.836" y1="1919" y2="1933"/>
  <text style="stroke:none;fill:black;font-family:sans-serif;font-size:13;font-weight:bold;" transform="matrix(1 0 0 1 776 1953)">Margins</text>
  <text style="stroke:none;fill:black;font-family:sans-serif;font-size:13;" transform="matrix(1 0 0 1 776 1971)">Leading and trailing margins on the left and right side of each symbol</text>
  <text style="stroke:none;fill:black;font-family:sans-serif;font-size:13;" transform="matrix(1 0 0 1 776 1989)">can be adjusted by modifying the x-location of the margin guidelines.</text>
  <text style="stroke:none;fill:black;font-family:sans-serif;font-size:13;" transform="matrix(1 0 0 1 776 2007)">Modifications are automatically applied proportionally to all</text>
  <text style="stroke:none;fill:black;font-family:sans-serif;font-size:13;" transform="matrix(1 0 0 1 776 2025)">scales and weights.</text>
  <g transform="matrix(0.2 0 0 0.2 1289 1933)">
   <path d="m14.209 9.32617 8.49609 8.54492c4.29688 4.3457 9.22852 4.05273 13.8672-1.07422l53.4668-58.9355-4.83398-4.88281-53.0762 58.3984c-1.75781 2.00195-3.41797 2.49023-5.76172 0.146484l-5.85938-5.81055c-2.34375-2.29492-1.80664-4.00391 0.195312-5.81055l57.373-54.0039-4.88281-4.83398-57.959 54.4434c-4.93164 4.58984-5.32227 9.47266-1.02539 13.8184Zm32.0801-90.9668c-2.09961 2.05078-2.24609 4.93164-1.07422 6.88477 1.17188 1.80664 3.4668 2.97852 6.68945 2.14844 7.32422-1.70898 14.9414-2.00195 22.0703 2.68555l-2.92969 7.27539c-1.70898 4.15039-0.830078 7.08008 1.85547 9.81445l11.4746 11.5723c2.44141 2.44141 4.49219 2.53906 7.32422 2.05078l5.32227-0.976562 3.32031 3.36914-0.195312 2.7832c-0.195312 2.49023 0.439453 4.39453 2.88086 6.78711l3.80859 3.71094c2.39258 2.39258 5.46875 2.53906 7.8125 0.195312l14.5508-14.5996c2.34375-2.34375 2.24609-5.32227-0.146484-7.71484l-3.85742-3.80859c-2.39258-2.39258-4.24805-3.17383-6.64062-2.97852l-2.88086 0.244141-3.22266-3.17383 1.2207-5.61523c0.634766-2.83203-0.146484-5.0293-3.07617-7.95898l-10.9863-10.9375c-16.6992-16.6016-38.8672-16.2109-53.3203-1.75781Zm7.4707 1.85547c12.1582-8.88672 28.6133-7.37305 39.7461 3.75977l12.1582 12.0605c1.17188 1.17188 1.36719 2.09961 1.02539 3.80859l-1.61133 7.42188 7.51953 7.42188 4.93164-0.292969c1.26953-0.0488281 1.66016 0.0488281 2.63672 1.02539l2.88086 2.88086-12.207 12.207-2.88086-2.88086c-0.976562-0.976562-1.12305-1.36719-1.07422-2.68555l0.341797-4.88281-7.4707-7.42188-7.61719 1.26953c-1.61133 0.341797-2.34375 0.195312-3.56445-0.976562l-10.0098-10.0098c-1.26953-1.17188-1.41602-2.00195-0.634766-3.85742l4.39453-10.4492c-7.8125-7.27539-17.9688-10.4004-28.125-7.42188-0.78125 0.195312-1.07422-0.439453-0.439453-0.976562Z"/>
  </g>
  <text style="stroke:none;fill:black;font-family:sans-serif;font-size:13;font-weight:bold;" transform="matrix(1 0 0 1 1289 1953)">Exporting</text>
  <text style="stroke:none;fill:black;font-family:sans-serif;font-size:13;" transform="matrix(1 0 0 1 1289 1971)">Symbols should be outlined when exporting to ensure the</text>
  <text style="stroke:none;fill:black;font-family:sans-serif;font-size:13;" transform="matrix(1 0 0 1 1289 1989)">design is preserved when submitting to Xcode.</text>
  <text id="template-version" style="stroke:none;fill:black;font-family:sans-serif;font-size:13;text-anchor:end;" transform="matrix(1 0 0 1 3036 1933)">Template v.6.0</text>
  <text style="stroke:none;fill:black;font-family:sans-serif;font-size:13;text-anchor:end;" transform="matrix(1 0 0 1 3036 1951)">Requires Xcode 16 or greater</text>
  <text id="descriptive-name" style="stroke:none;fill:black;font-family:sans-serif;font-size:13;text-anchor:end;" transform="matrix(1 0 0 1 3036 1969)">Generated from bird</text>
  <text style="stroke:none;fill:black;font-family:sans-serif;font-size:13;text-anchor:end;" transform="matrix(1 0 0 1 3036 1987)">Typeset at 100.0 points</text>
  <text style="stroke:none;fill:black;font-family:sans-serif;font-size:13;" transform="matrix(1 0 0 1 263 726)">Small</text>
  <text style="stroke:none;fill:black;font-family:sans-serif;font-size:13;" transform="matrix(1 0 0 1 263 1156)">Medium</text>
  <text style="stroke:none;fill:black;font-family:sans-serif;font-size:13;" transform="matrix(1 0 0 1 263 1586)">Large</text>
 </g>
 <g id="Guides">
  <g id="H-reference" style="fill:#27AAE1;stroke:none;" transform="matrix(1 0 0 1 339 696)">
   <path d="M0.993654 0L3.63775 0L29.3281-67.1323L30.0303-67.1323L30.0303-70.459L28.1226-70.459ZM11.6885-24.4799L46.9815-24.4799L46.2315-26.7285L12.4385-26.7285ZM55.1196 0L57.7637 0L30.6382-70.459L29.4326-70.459L29.4326-67.1323Z"/>
  </g>
  <line id="Baseline-S" style="fill:none;stroke:#27AAE1;opacity:1;stroke-width:0.5;" x1="263" x2="3036" y1="696" y2="696"/>
  <line id="Capline-S" style="fill:none;stroke:#27AAE1;opacity:1;stroke-width:0.5;" x1="263" x2="3036" y1="625.541" y2="625.541"/>
  <g id="H-reference" style="fill:#27AAE1;stroke:none;" transform="matrix(1 0 0 1 339 1126)">
   <path d="M0.993654 0L3.63775 0L29.3281-67.1323L30.0303-67.1323L30.0303-70.459L28.1226-70.459ZM11.6885-24.4799L46.9815-24.4799L46.2315-26.7285L12.4385-26.7285ZM55.1196 0L57.7637 0L30.6382-70.459L29.4326-70.459L29.4326-67.1323Z"/>
  </g>
  <line id="Baseline-M" style="fill:none;stroke:#27AAE1;opacity:1;stroke-width:0.5;" x1="263" x2="3036" y1="1126" y2="1126"/>
  <line id="Capline-M" style="fill:none;stroke:#27AAE1;opacity:1;stroke-width:0.5;" x1="263" x2="3036" y1="1055.54" y2="1055.54"/>
  <g id="H-reference" style="fill:#27AAE1;stroke:none;" transform="matrix(1 0 0 1 339 1556)">
   <path d="M0.993654 0L3.63775 0L29.3281-67.1323L30.0303-67.1323L30.0303-70.459L28.1226-70.459ZM11.6885-24.4799L46.9815-24.4799L46.2315-26.7285L12.4385-26.7285ZM55.1196 0L57.7637 0L30.6382-70.459L29.4326-70.459L29.4326-67.1323Z"/>
  </g>
  <line id="Baseline-L" style="fill:none;stroke:#27AAE1;opacity:1;stroke-width:0.5;" x1="263" x2="3036" y1="1556" y2="1556"/>
  <line id="Capline-L" style="fill:none;stroke:#27AAE1;opacity:1;stroke-width:0.5;" x1="263" x2="3036" y1="1485.54" y2="1485.54"/>
  <line id="right-margin-Black-S" style="fill:none;stroke:#FF3B30;stroke-width:0.5;opacity:1.0;" x1="2982.2" x2="2982.2" y1="600.785" y2="720.121"/>
  <line id="left-margin-Black-S" style="fill:none;stroke:#00AEEF;stroke-width:0.5;opacity:1.0;" x1="2884.6" x2="2884.6" y1="600.785" y2="720.121"/>
  <line id="right-margin-Regular-S" style="fill:none;stroke:#00AEEF;stroke-width:0.5;opacity:1.0;" x1="1496.09" x2="1496.09" y1="600.785" y2="720.121"/>
  <line id="left-margin-Regular-S" style="fill:none;stroke:#00AEEF;stroke-width:0.5;opacity:1.0;" x1="1403.59" x2="1403.59" y1="600.785" y2="720.121"/>
  <line id="right-margin-Ultralight-S" style="fill:none;stroke:#00AEEF;stroke-width:0.5;opacity:1.0;" x1="603.811" x2="603.811" y1="600.785" y2="720.121"/>
  <line id="left-margin-Ultralight-S" style="fill:none;stroke:#00AEEF;stroke-width:0.5;opacity:1.0;" x1="515.611" x2="515.611" y1="600.785" y2="720.121"/>
 </g>
 <g id="Symbols">
  <g id="Black-S" transform="matrix(1 0 0 1 2884.6 696)">
   <path class="monochrome-0 multicolor-0:systemOrangeColor hierarchical-0:secondary SFSymbolsPreviewWireframe" d="M32.9-15.2C32.9-15.2 35.1-9.2 33.8-7.1C32.5-5 27.3-5.4 25.7-4.4C24.6-3.7 24.6-1.7 25.3-0.9C26-0.1 36.2-0.8 38.2-4.6C40.2-8.4 37.5-15.9 37.5-15.9L32.9-15.2L32.9-15.2ZM49.3-15.9L45-15C45-15 46.9-7.1 45.3-4.5C43.8-1.9 38.3 0.9 37.3 3.1C36.4 5 38.6 6.6 42 4.5C45.4 2.4 49.3-0.8 50-2.4C51.7-6.1 49.3-15.9 49.3-15.9L49.3-15.9Z"/>
   <path class="monochrome-1 multicolor-1:systemCyanColor hierarchical-1:tertiary SFSymbolsPreviewWireframe" d="M19.5-75.3C10.2-73.2 3-65.4 5.8-53.5C7.4-46.4 8.4-44 9-40.8C10.2-34.1 9.9-31.2 12.7-25C15.7-18.5 26.7-10.1 40.5-12.2C54.2-14.2 59.8-16.1 59.8-16.1L64.8-20.4L69.5-21.6L70.2-25C70.2-25 73.7-25.2 74.4-26.3C75.5-28.1 74.9-29.6 72.9-30.3C70.9-31 69.7-31.6 69.7-31.6C69.7-31.6 89.1-44.4 91.5-45.8C93.8-47.2 97.5-49.6 97.7-50.5C98.1-52.7 92.1-57.7 84.3-60C76.4-62.3 69.7-63 68.5-62.1C67-60.9 60.5-48.7 56.2-49.3C50.5-50.1 46.7-55.4 45.6-58.4C44.3-61.9 37-79.3 19.5-75.3L19.5-75.3Z"/>
   <path class="monochrome-2 multicolor-2:systemOrangeColor hierarchical-2:primary SFSymbolsPreviewWireframe" d="M7.7-56.9C6.3-57.1 2.6-53.3 1.9-52.4C1.2-51.5 0.1-50.1 0.5-49.1C1.1-47.5 4.3-47.5 6.3-47.3C8.2-47.1 12.1-46.8 12.7-48C13.3-49.2 12-52.1 10.9-54C9.8-55.6 9.1-56.7 7.7-56.9L7.7-56.9Z"/>
   <path class="monochrome-4 multicolor-4:systemBlueColor hierarchical-4:secondary SFSymbolsPreviewWireframe" d="M33.6-32C32-31.4 34.1-25.6 36.3-23C38.6-20.3 44.2-14.1 52.8-13.4C58.6-12.9 61.2-14.5 62.6-16C63.6-17.1 64.7-18.4 65.4-19C66.5-19.8 67.6-19.1 69.4-20.5C70.7-21.5 71-23.1 71.7-23.7C72.4-24.3 73.6-24.2 74.2-24.7C75.3-25.7 75.1-28.7 74.4-28.8C73.6-28.9 73.6-26.7 72.8-26.4C72-26.1 71-26.3 69.5-25.5C68.3-24.8 68.7-23.4 67.8-22.8C66.9-22.2 65.4-23 63.3-21.9C62.2-21.3 61.2-18.2 57.8-17.5C53.7-16.6 47.6-19.6 44.6-21.7C37.9-26.6 36.5-33 33.6-32L33.6-32Z"/>
  </g>
  <g id="Regular-S" transform="matrix(1 0 0 1 1403.59 696)">
   <path class="monochrome-0 multicolor-0:systemOrangeColor hierarchical-0:secondary SFSymbolsPreviewWireframe" d="M31-17C31-17 33.1-11.3 31.9-9.3C30.7-7.3 25.8-7.6 24.2-6.7C23.2-6 23.2-4.1 23.8-3.4C24.4-2.6 34.1-3.3 36-6.9C37.9-10.5 35.3-17.6 35.3-17.6L31-17L31-17ZM46.5-17.7L42.4-16.8C42.4-16.8 44.2-9.4 42.7-6.9C41.3-4.4 36.1-1.8 35.1 0.2C34.3 2.1 36.3 3.5 39.5 1.5C42.7-0.5 46.4-3.5 47.1-5C48.8-8.4 46.5-17.7 46.5-17.7L46.5-17.7Z"/>
   <path class="monochrome-1 multicolor-1:systemCyanColor hierarchical-1:tertiary SFSymbolsPreviewWireframe" d="M18.3-73.9C9.5-71.9 2.7-64.6 5.3-53.3C6.9-46.7 7.8-44.3 8.3-41.3C9.4-35 9.1-32.2 11.8-26.4C14.6-20.2 25-12.3 38.1-14.2C51.1-16.1 56.4-17.9 56.4-17.9L61.1-22L65.5-23.1L66.1-26.3C66.1-26.3 69.4-26.4 70.1-27.5C71.1-29.3 70.5-30.6 68.7-31.3C66.8-31.9 65.7-32.5 65.7-32.5C65.7-32.5 84.1-44.6 86.3-45.9C88.5-47.2 92-49.5 92.2-50.3C92.6-52.4 86.9-57.1 79.5-59.3C72.1-61.6 65.6-62.1 64.6-61.3C63.2-60.2 57-48.6 52.9-49.2C47.5-49.9 43.9-54.9 42.9-57.8C41.7-61.2 34.8-77.6 18.3-73.9L18.3-73.9Z"/>
   <path class="monochrome-2 multicolor-2:systemOrangeColor hierarchical-2:primary SFSymbolsPreviewWireframe" d="M7-56.5C5.7-56.7 2.2-53.1 1.6-52.2C1-51.3-0.2-50 0.3-49.1C0.9-47.7 3.9-47.5 5.7-47.3C7.6-47.2 11.1-46.9 11.7-47.9C12.3-49 11.1-51.8 9.9-53.6C9.1-55.3 8.5-56.3 7-56.5L7-56.5Z"/>
   <path class="monochrome-4 multicolor-4:systemBlueColor hierarchical-4:secondary SFSymbolsPreviewWireframe" d="M31.6-33C30-32.5 32.1-27 34.2-24.5C36.4-21.9 41.6-16.1 49.8-15.4C55.3-14.9 57.8-16.4 59-17.9C59.9-18.9 61-20.2 61.7-20.7C62.7-21.5 63.8-20.8 65.5-22.1C66.7-23 67.1-24.6 67.8-25.1C68.4-25.6 69.6-25.5 70.2-26C71.2-26.9 71.1-29.8 70.3-29.9C69.6-30 69.5-27.9 68.7-27.6C68-27.3 66.9-27.5 65.6-26.7C64.4-26.1 64.8-24.7 63.9-24.1C63.1-23.5 61.6-24.3 59.6-23.2C58.5-22.6 57.6-19.7 54.4-19.1C50.6-18.3 44.7-21.1 41.9-23.1C35.8-27.8 34.3-33.9 31.6-33L31.6-33Z"/>
  </g>
  <g id="Ultralight-S" transform="matrix(1 0 0 1 515.611 696)">
   <path class="monochrome-0 multicolor-0:systemOrangeColor hierarchical-0:secondary SFSymbolsPreviewWireframe" d="M29.6-17.5C29.6-17.5 31.6-12.1 30.4-10.2C29.3-8.3 24.6-8.6 23.1-7.8C22.1-7.2 22.1-5.4 22.7-4.6C23.3-3.9 32.6-4.5 34.3-8C36.1-11.5 33.7-18.2 33.7-18.2L29.6-17.5L29.6-17.5ZM44.4-18.1L40.5-17.3C40.5-17.3 42.2-10.2 40.8-7.9C39.5-5.6 34.5-3.1 33.6-1.2C32.8 0.6 34.7 2 37.9 0C41-1.9 44.4-4.8 45.1-6.1C46.7-9.3 44.4-18.1 44.4-18.1L44.4-18.1Z"/>
   <path class="monochrome-1 multicolor-1:systemCyanColor hierarchical-1:tertiary SFSymbolsPreviewWireframe" d="M17.6-71.5C9.3-69.6 2.8-62.6 5.2-51.9C6.7-45.6 7.5-43.4 8.1-40.5C9.2-34.5 8.9-31.9 11.4-26.4C14.1-20.6 24.1-13 36.4-14.9C48.8-16.8 53.7-18.4 53.7-18.4L58.2-22.3L62.5-23.3L63.1-26.4C63.1-26.4 66.2-26.5 66.9-27.5C67.9-29.2 67.3-30.4 65.6-31.1C63.8-31.7 62.7-32.2 62.7-32.2C62.7-32.2 80.1-43.7 82.3-45C84.4-46.2 87.7-48.4 87.9-49.3C88.3-51.3 82.9-55.7 75.8-57.8C68.7-59.9 62.6-60.5 61.6-59.7C60.3-58.7 54.4-47.7 50.5-48.2C45.4-48.9 42-53.6 40.9-56.4C39.8-59.5 33.3-75 17.6-71.5L17.6-71.5Z"/>
   <path class="monochrome-2 multicolor-2:systemOrangeColor hierarchical-2:primary SFSymbolsPreviewWireframe" d="M6.9-55C5.7-55.2 2.3-51.8 1.7-51C1.1-50.2-1.13687e-13-48.9 0.5-48.1C1-46.6 3.9-46.6 5.7-46.4C7.5-46.3 10.9-46 11.4-47C11.9-48 10.8-50.7 9.7-52.4C8.9-53.9 8.2-54.8 6.9-55L6.9-55Z"/>
   <path class="monochrome-4 multicolor-4:systemBlueColor hierarchical-4:secondary SFSymbolsPreviewWireframe" d="M30.4-32.6C28.9-32.1 30.8-26.9 32.8-24.6C34.9-22.1 40-16.6 47.6-15.9C52.8-15.4 55.2-16.8 56.4-18.2C57.3-19.2 58.3-20.4 59-20.9C59.9-21.6 61-21 62.6-22.2C63.8-23.1 64.1-24.6 64.7-25.1C65.3-25.6 66.4-25.5 67-26C67.9-26.9 67.8-29.6 67.1-29.7C66.4-29.8 66.4-27.8 65.6-27.5C64.9-27.2 63.9-27.4 62.7-26.7C61.6-26.1 62-24.8 61.1-24.2C60.3-23.7 58.9-24.4 57.1-23.4C56.1-22.8 55.2-20.1 52.2-19.5C48.6-18.7 43-21.4 40.4-23.3C34.2-27.7 32.9-33.5 30.4-32.6L30.4-32.6Z"/>
  </g>
 </g>
</svg>
