<?xml version="1.0" encoding="UTF-8"?>
<!--Generator: Apple Native CoreSVG 341-->
<!DOCTYPE svg
PUBLIC "-//W3C//DTD SVG 1.1//EN"
       "http://www.w3.org/Graphics/SVG/1.1/DTD/svg11.dtd">
<svg version="1.1" xmlns="http://www.w3.org/2000/svg" xmlns:xlink="http://www.w3.org/1999/xlink" viewBox="0 0 3300 2200">
 <!--glyph: "", point size: 100.0, font version: "20.0d10e1", template writer version: "138.0.0"-->
 <style>.monochrome-0 {-sfsymbols-motion-group:6;-sfsymbols-layer-tags:-5a362f6354329c3e}
.monochrome-1 {-sfsymbols-motion-group:5;-sfsymbols-layer-tags:-5a362f6354329c3e}
.monochrome-2 {-sfsymbols-motion-group:4;-sfsymbols-layer-tags:-5a362f6354329c3e}
.monochrome-3 {opacity:0.0;-sfsymbols-clear-behind:true;-sfsymbols-motion-group:3;-sfsymbols-layer-tags:-5a362f6354329c3e}
.monochrome-4 {opacity:0.0;-sfsymbols-clear-behind:true;-sfsymbols-motion-group:2;-sfsymbols-layer-tags:-5a362f6354329c3e}
.monochrome-5 {-sfsymbols-motion-group:1;-sfsymbols-layer-tags:-5a362f6354329c3e}
.monochrome-6 {opacity:0.0;-sfsymbols-clear-behind:true;-sfsymbols-motion-group:0;-sfsymbols-layer-tags:-5a362f6354329c3e}

.multicolor-0:custom {fill:#FFC022;-sfsymbols-motion-group:6;-sfsymbols-layer-tags:-5a362f6354329c3e}
.multicolor-1:custom {fill:#FFC022;-sfsymbols-clear-behind:true;-sfsymbols-motion-group:5;-sfsymbols-layer-tags:-5a362f6354329c3e}
.multicolor-2:systemOrangeColor {-sfsymbols-motion-group:4;-sfsymbols-layer-tags:-5a362f6354329c3e}
.multicolor-3:black {-sfsymbols-motion-group:3;-sfsymbols-layer-tags:-5a362f6354329c3e}
.multicolor-4:black {-sfsymbols-clear-behind:true;-sfsymbols-motion-group:2;-sfsymbols-layer-tags:-5a362f6354329c3e}
.multicolor-5:systemGrayColor {-sfsymbols-motion-group:1;-sfsymbols-layer-tags:-5a362f6354329c3e}
.multicolor-6:custom {fill:#FFD1D1;opacity:0.95;-sfsymbols-motion-group:0;-sfsymbols-layer-tags:-5a362f6354329c3e}

.hierarchical-0:tertiary {-sfsymbols-motion-group:6;-sfsymbols-layer-tags:-5a362f6354329c3e}
.hierarchical-1:tertiary {-sfsymbols-clear-behind:true;-sfsymbols-motion-group:5;-sfsymbols-layer-tags:-5a362f6354329c3e}
.hierarchical-2:primary {-sfsymbols-motion-group:4;-sfsymbols-layer-tags:-5a362f6354329c3e}
.hierarchical-3:primary {-sfsymbols-motion-group:3;-sfsymbols-layer-tags:-5a362f6354329c3e}
.hierarchical-4:primary {-sfsymbols-clear-behind:true;-sfsymbols-motion-group:2;-sfsymbols-layer-tags:-5a362f6354329c3e}
.hierarchical-5:secondary {-sfsymbols-motion-group:1;-sfsymbols-layer-tags:-5a362f6354329c3e}
.hierarchical-6:secondary {-sfsymbols-motion-group:0;-sfsymbols-layer-tags:-5a362f6354329c3e}

.SFSymbolsPreviewWireframe {fill:none;opacity:1.0;stroke:black;stroke-width:0.5}
</style>
 <g id="Notes">
  <rect height="2200" id="artboard" style="fill:white;opacity:1" width="3300" x="0" y="0"/>
  <line style="fill:none;stroke:black;opacity:1;stroke-width:0.5;" x1="263" x2="3036" y1="292" y2="292"/>
  <text style="stroke:none;fill:black;font-family:sans-serif;font-size:13;font-weight:bold;" transform="matrix(1 0 0 1 263 322)">Weight/Scale Variations</text>
  <text style="stroke:none;fill:black;font-family:sans-serif;font-size:13;text-anchor:middle;" transform="matrix(1 0 0 1 559.711 322)">Ultralight</text>
  <text style="stroke:none;fill:black;font-family:sans-serif;font-size:13;text-anchor:middle;" transform="matrix(1 0 0 1 856.422 322)">Thin</text>
  <text style="stroke:none;fill:black;font-family:sans-serif;font-size:13;text-anchor:middle;" transform="matrix(1 0 0 1 1153.13 322)">Light</text>
  <text style="stroke:none;fill:black;font-family:sans-serif;font-size:13;text-anchor:middle;" transform="matrix(1 0 0 1 1449.84 322)">Regular</text>
  <text style="stroke:none;fill:black;font-family:sans-serif;font-size:13;text-anchor:middle;" transform="matrix(1 0 0 1 1746.56 322)">Medium</text>
  <text style="stroke:none;fill:black;font-family:sans-serif;font-size:13;text-anchor:middle;" transform="matrix(1 0 0 1 2043.27 322)">Semibold</text>
  <text style="stroke:none;fill:black;font-family:sans-serif;font-size:13;text-anchor:middle;" transform="matrix(1 0 0 1 2339.98 322)">Bold</text>
  <text style="stroke:none;fill:black;font-family:sans-serif;font-size:13;text-anchor:middle;" transform="matrix(1 0 0 1 2636.69 322)">Heavy</text>
  <text style="stroke:none;fill:black;font-family:sans-serif;font-size:13;text-anchor:middle;" transform="matrix(1 0 0 1 2933.4 322)">Black</text>
  <line style="fill:none;stroke:black;opacity:1;stroke-width:0.5;" x1="263" x2="3036" y1="1903" y2="1903"/>
  <g transform="matrix(0.2 0 0 0.2 263 1933)">
   <path d="m46.2402 4.15039c21.7773 0 39.4531-17.627 39.4531-39.4043s-17.6758-39.4043-39.4531-39.4043c-21.7285 0-39.4043 17.627-39.4043 39.4043s17.6758 39.4043 39.4043 39.4043Zm0-7.42188c-17.6758 0-31.9336-14.3066-31.9336-31.9824s14.2578-31.9824 31.9336-31.9824 31.9824 14.3066 31.9824 31.9824-14.3066 31.9824-31.9824 31.9824Zm-17.9688-31.9824c0 2.14844 1.51367 3.61328 3.75977 3.61328h10.498v10.5957c0 2.19727 1.46484 3.71094 3.61328 3.71094 2.24609 0 3.71094-1.51367 3.71094-3.71094v-10.5957h10.5957c2.19727 0 3.71094-1.46484 3.71094-3.61328 0-2.19727-1.51367-3.71094-3.71094-3.71094h-10.5957v-10.5469c0-2.24609-1.46484-3.75977-3.71094-3.75977-2.14844 0-3.61328 1.51367-3.61328 3.75977v10.5469h-10.498c-2.24609 0-3.75977 1.51367-3.75977 3.71094Z"/>
  </g>
  <g transform="matrix(0.2 0 0 0.2 281.506 1933)">
   <path d="m58.5449 14.5508c27.4902 0 49.8047-22.3145 49.8047-49.8047s-22.3145-49.8047-49.8047-49.8047-49.8047 22.3145-49.8047 49.8047 22.3145 49.8047 49.8047 49.8047Zm0-8.30078c-22.9492 0-41.5039-18.5547-41.5039-41.5039s18.5547-41.5039 41.5039-41.5039 41.5039 18.5547 41.5039 41.5039-18.5547 41.5039-41.5039 41.5039Zm-22.6562-41.5039c0 2.39258 1.66016 4.00391 4.15039 4.00391h14.3555v14.4043c0 2.44141 1.66016 4.15039 4.05273 4.15039 2.44141 0 4.15039-1.66016 4.15039-4.15039v-14.4043h14.4043c2.44141 0 4.15039-1.61133 4.15039-4.00391 0-2.44141-1.70898-4.15039-4.15039-4.15039h-14.4043v-14.3555c0-2.49023-1.70898-4.19922-4.15039-4.19922-2.39258 0-4.05273 1.70898-4.05273 4.19922v14.3555h-14.3555c-2.49023 0-4.15039 1.70898-4.15039 4.15039Z"/>
  </g>
  <g transform="matrix(0.2 0 0 0.2 304.924 1933)">
   <path d="m74.8535 28.3203c35.1074 0 63.623-28.4668 63.623-63.5742s-28.5156-63.623-63.623-63.623-63.5742 28.5156-63.5742 63.623 28.4668 63.5742 63.5742 63.5742Zm0-9.08203c-30.127 0-54.4922-24.3652-54.4922-54.4922s24.3652-54.4922 54.4922-54.4922 54.4922 24.3652 54.4922 54.4922-24.3652 54.4922-54.4922 54.4922Zm-28.8574-54.4922c0 2.58789 1.85547 4.39453 4.58984 4.39453h19.7266v19.7754c0 2.68555 1.85547 4.58984 4.44336 4.58984 2.68555 0 4.54102-1.85547 4.54102-4.58984v-19.7754h19.7754c2.68555 0 4.58984-1.80664 4.58984-4.39453 0-2.73438-1.85547-4.58984-4.58984-4.58984h-19.7754v-19.7266c0-2.73438-1.85547-4.63867-4.54102-4.63867-2.58789 0-4.44336 1.9043-4.44336 4.63867v19.7266h-19.7266c-2.73438 0-4.58984 1.85547-4.58984 4.58984Z"/>
  </g>
  <text style="stroke:none;fill:black;font-family:sans-serif;font-size:13;font-weight:bold;" transform="matrix(1 0 0 1 263 1953)">Design Variations</text>
  <text style="stroke:none;fill:black;font-family:sans-serif;font-size:13;" transform="matrix(1 0 0 1 263 1971)">Symbols are supported in up to nine weights and three scales.</text>
  <text style="stroke:none;fill:black;font-family:sans-serif;font-size:13;" transform="matrix(1 0 0 1 263 1989)">For optimal layout with text and other symbols, vertically align</text>
  <text style="stroke:none;fill:black;font-family:sans-serif;font-size:13;" transform="matrix(1 0 0 1 263 2007)">symbols with the adjacent text.</text>
  <line style="fill:none;stroke:#00AEEF;stroke-width:0.5;opacity:1.0;" x1="776" x2="776" y1="1919" y2="1933"/>
  <g transform="matrix(0.2 0 0 0.2 776 1933)">
   <path d="m16.5527 0.78125c2.58789 0 3.85742-0.976562 4.78516-3.71094l6.29883-17.2363h28.8086l6.29883 17.2363c0.927734 2.73438 2.19727 3.71094 4.73633 3.71094 2.58789 0 4.24805-1.5625 4.24805-4.00391 0-0.830078-0.146484-1.61133-0.537109-2.63672l-22.9004-60.9863c-1.12305-2.97852-3.125-4.49219-6.25-4.49219-3.02734 0-5.07812 1.46484-6.15234 4.44336l-22.9004 61.084c-0.390625 1.02539-0.537109 1.80664-0.537109 2.63672 0 2.44141 1.5625 3.95508 4.10156 3.95508Zm13.4766-28.3691 11.8652-32.8613h0.244141l11.8652 32.8613Z"/>
  </g>
  <line style="fill:none;stroke:#00AEEF;stroke-width:0.5;opacity:1.0;" x1="792.836" x2="792.836" y1="1919" y2="1933"/>
  <text style="stroke:none;fill:black;font-family:sans-serif;font-size:13;font-weight:bold;" transform="matrix(1 0 0 1 776 1953)">Margins</text>
  <text style="stroke:none;fill:black;font-family:sans-serif;font-size:13;" transform="matrix(1 0 0 1 776 1971)">Leading and trailing margins on the left and right side of each symbol</text>
  <text style="stroke:none;fill:black;font-family:sans-serif;font-size:13;" transform="matrix(1 0 0 1 776 1989)">can be adjusted by modifying the x-location of the margin guidelines.</text>
  <text style="stroke:none;fill:black;font-family:sans-serif;font-size:13;" transform="matrix(1 0 0 1 776 2007)">Modifications are automatically applied proportionally to all</text>
  <text style="stroke:none;fill:black;font-family:sans-serif;font-size:13;" transform="matrix(1 0 0 1 776 2025)">scales and weights.</text>
  <g transform="matrix(0.2 0 0 0.2 1289 1933)">
   <path d="m14.209 9.32617 8.49609 8.54492c4.29688 4.3457 9.22852 4.05273 13.8672-1.07422l53.4668-58.9355-4.83398-4.88281-53.0762 58.3984c-1.75781 2.00195-3.41797 2.49023-5.76172 0.146484l-5.85938-5.81055c-2.34375-2.29492-1.80664-4.00391 0.195312-5.81055l57.373-54.0039-4.88281-4.83398-57.959 54.4434c-4.93164 4.58984-5.32227 9.47266-1.02539 13.8184Zm32.0801-90.9668c-2.09961 2.05078-2.24609 4.93164-1.07422 6.88477 1.17188 1.80664 3.4668 2.97852 6.68945 2.14844 7.32422-1.70898 14.9414-2.00195 22.0703 2.68555l-2.92969 7.27539c-1.70898 4.15039-0.830078 7.08008 1.85547 9.81445l11.4746 11.5723c2.44141 2.44141 4.49219 2.53906 7.32422 2.05078l5.32227-0.976562 3.32031 3.36914-0.195312 2.7832c-0.195312 2.49023 0.439453 4.39453 2.88086 6.78711l3.80859 3.71094c2.39258 2.39258 5.46875 2.53906 7.8125 0.195312l14.5508-14.5996c2.34375-2.34375 2.24609-5.32227-0.146484-7.71484l-3.85742-3.80859c-2.39258-2.39258-4.24805-3.17383-6.64062-2.97852l-2.88086 0.244141-3.22266-3.17383 1.2207-5.61523c0.634766-2.83203-0.146484-5.0293-3.07617-7.95898l-10.9863-10.9375c-16.6992-16.6016-38.8672-16.2109-53.3203-1.75781Zm7.4707 1.85547c12.1582-8.88672 28.6133-7.37305 39.7461 3.75977l12.1582 12.0605c1.17188 1.17188 1.36719 2.09961 1.02539 3.80859l-1.61133 7.42188 7.51953 7.42188 4.93164-0.292969c1.26953-0.0488281 1.66016 0.0488281 2.63672 1.02539l2.88086 2.88086-12.207 12.207-2.88086-2.88086c-0.976562-0.976562-1.12305-1.36719-1.07422-2.68555l0.341797-4.88281-7.4707-7.42188-7.61719 1.26953c-1.61133 0.341797-2.34375 0.195312-3.56445-0.976562l-10.0098-10.0098c-1.26953-1.17188-1.41602-2.00195-0.634766-3.85742l4.39453-10.4492c-7.8125-7.27539-17.9688-10.4004-28.125-7.42188-0.78125 0.195312-1.07422-0.439453-0.439453-0.976562Z"/>
  </g>
  <text style="stroke:none;fill:black;font-family:sans-serif;font-size:13;font-weight:bold;" transform="matrix(1 0 0 1 1289 1953)">Exporting</text>
  <text style="stroke:none;fill:black;font-family:sans-serif;font-size:13;" transform="matrix(1 0 0 1 1289 1971)">Symbols should be outlined when exporting to ensure the</text>
  <text style="stroke:none;fill:black;font-family:sans-serif;font-size:13;" transform="matrix(1 0 0 1 1289 1989)">design is preserved when submitting to Xcode.</text>
  <text id="template-version" style="stroke:none;fill:black;font-family:sans-serif;font-size:13;text-anchor:end;" transform="matrix(1 0 0 1 3036 1933)">Template v.6.0</text>
  <text style="stroke:none;fill:black;font-family:sans-serif;font-size:13;text-anchor:end;" transform="matrix(1 0 0 1 3036 1951)">Requires Xcode 16 or greater</text>
  <text id="descriptive-name" style="stroke:none;fill:black;font-family:sans-serif;font-size:13;text-anchor:end;" transform="matrix(1 0 0 1 3036 1969)">Generated from cat</text>
  <text style="stroke:none;fill:black;font-family:sans-serif;font-size:13;text-anchor:end;" transform="matrix(1 0 0 1 3036 1987)">Typeset at 100.0 points</text>
  <text style="stroke:none;fill:black;font-family:sans-serif;font-size:13;" transform="matrix(1 0 0 1 263 726)">Small</text>
  <text style="stroke:none;fill:black;font-family:sans-serif;font-size:13;" transform="matrix(1 0 0 1 263 1156)">Medium</text>
  <text style="stroke:none;fill:black;font-family:sans-serif;font-size:13;" transform="matrix(1 0 0 1 263 1586)">Large</text>
 </g>
 <g id="Guides">
  <g id="H-reference" style="fill:#27AAE1;stroke:none;" transform="matrix(1 0 0 1 339 696)">
   <path d="M0.993654 0L3.63775 0L29.3281-67.1323L30.0303-67.1323L30.0303-70.459L28.1226-70.459ZM11.6885-24.4799L46.9815-24.4799L46.2315-26.7285L12.4385-26.7285ZM55.1196 0L57.7637 0L30.6382-70.459L29.4326-70.459L29.4326-67.1323Z"/>
  </g>
  <line id="Baseline-S" style="fill:none;stroke:#27AAE1;opacity:1;stroke-width:0.5;" x1="263" x2="3036" y1="696" y2="696"/>
  <line id="Capline-S" style="fill:none;stroke:#27AAE1;opacity:1;stroke-width:0.5;" x1="263" x2="3036" y1="625.541" y2="625.541"/>
  <g id="H-reference" style="fill:#27AAE1;stroke:none;" transform="matrix(1 0 0 1 339 1126)">
   <path d="M0.993654 0L3.63775 0L29.3281-67.1323L30.0303-67.1323L30.0303-70.459L28.1226-70.459ZM11.6885-24.4799L46.9815-24.4799L46.2315-26.7285L12.4385-26.7285ZM55.1196 0L57.7637 0L30.6382-70.459L29.4326-70.459L29.4326-67.1323Z"/>
  </g>
  <line id="Baseline-M" style="fill:none;stroke:#27AAE1;opacity:1;stroke-width:0.5;" x1="263" x2="3036" y1="1126" y2="1126"/>
  <line id="Capline-M" style="fill:none;stroke:#27AAE1;opacity:1;stroke-width:0.5;" x1="263" x2="3036" y1="1055.54" y2="1055.54"/>
  <g id="H-reference" style="fill:#27AAE1;stroke:none;" transform="matrix(1 0 0 1 339 1556)">
   <path d="M0.993654 0L3.63775 0L29.3281-67.1323L30.0303-67.1323L30.0303-70.459L28.1226-70.459ZM11.6885-24.4799L46.9815-24.4799L46.2315-26.7285L12.4385-26.7285ZM55.1196 0L57.7637 0L30.6382-70.459L29.4326-70.459L29.4326-67.1323Z"/>
  </g>
  <line id="Baseline-L" style="fill:none;stroke:#27AAE1;opacity:1;stroke-width:0.5;" x1="263" x2="3036" y1="1556" y2="1556"/>
  <line id="Capline-L" style="fill:none;stroke:#27AAE1;opacity:1;stroke-width:0.5;" x1="263" x2="3036" y1="1485.54" y2="1485.54"/>
  <line id="right-margin-Black-S" style="fill:none;stroke:#FF3B30;stroke-width:0.5;opacity:1.0;" x1="2982.2" x2="2982.2" y1="600.785" y2="720.121"/>
  <line id="left-margin-Black-S" style="fill:none;stroke:#FF3B30;stroke-width:0.5;opacity:1.0;" x1="2884.6" x2="2884.6" y1="600.785" y2="720.121"/>
  <line id="right-margin-Regular-S" style="fill:none;stroke:#00AEEF;stroke-width:0.5;opacity:1.0;" x1="1496.09" x2="1496.09" y1="600.785" y2="720.121"/>
  <line id="left-margin-Regular-S" style="fill:none;stroke:#00AEEF;stroke-width:0.5;opacity:1.0;" x1="1403.59" x2="1403.59" y1="600.785" y2="720.121"/>
  <line id="right-margin-Ultralight-S" style="fill:none;stroke:#00AEEF;stroke-width:0.5;opacity:1.0;" x1="603.811" x2="603.811" y1="600.785" y2="720.121"/>
  <line id="left-margin-Ultralight-S" style="fill:none;stroke:#00AEEF;stroke-width:0.5;opacity:1.0;" x1="515.611" x2="515.611" y1="600.785" y2="720.121"/>
 </g>
 <g id="Symbols">
  <g id="Black-S" transform="matrix(1 0 0 1 2884.6 696)">
   <path class="monochrome-0 multicolor-0:custom hierarchical-0:tertiary SFSymbolsPreviewWireframe" d="M41.9-50.5C35.8-66.2 22.6-76.8 17.5-78.5C15.6-79.1 13.2-79.2 12.1-77.4C9.3-73 5.8-58.7 13.6-38.3L41.9-50.5ZM63.3-61.5C69.9-71.6 79.2-78.5 83-79.7C84.9-80.3 87.1-80.3 88.2-78.4C91-74 93.2-60.2 87.9-41L68.3-50.5L63.3-61.5Z"/>
   <path class="monochrome-1 multicolor-1:custom hierarchical-1:tertiary SFSymbolsPreviewWireframe" d="M91.8-28C90.1-49.2 75.3-63.9 50.4-63.9C25.5-63.9 10.5-48.4 9.1-27.1C8.2-14.8 12.8-3.7 22.1 2.6C28.2 6.8 36.7 9 50.5 9C64.6 9 72.6 5.9 78.7 1.8C88.8-4.9 92.7-15.8 91.8-28L91.8-28Z"/>
   <path class="monochrome-2 multicolor-2:systemOrangeColor hierarchical-2:primary SFSymbolsPreviewWireframe" d="M42.3-48.5C43.2-47.7 45.1-47.8 46.2-49.1C47.5-50.6 48.8-55.8 48.1-63.7C44.2-63.6 40.7-63 37.3-62C39.9-57.7 40.6-50 42.3-48.5ZM58.4-48.5C57.5-47.7 55.6-47.8 54.5-49.1C53.2-50.6 51.9-55.8 52.6-63.7C56.5-63.6 60-63 63.4-62C60.8-57.7 60.1-50 58.4-48.5Z"/>
   <path class="monochrome-3 multicolor-3:black hierarchical-3:primary SFSymbolsPreviewWireframe" d="M76.6-31.1C76.3-26.6 73.5-24.2 70.3-24.2C67.1-24.2 64.6-27.4 64.6-31.2C64.6-35 67.2-38.4 70.9-38.1C75-37.9 76.8-34.7 76.6-31.1ZM35.7-31.5C36.4-26.9 34.4-24.1 31.2-23.5C28-22.8 25.3-25 24.5-28.9C23.7-32.9 25.3-36.5 28.9-37C33-37.7 35.1-35.3 35.7-31.5ZM34.8-15.7C32.7-14.4 35.1-11.2 36.7-10.1C38.1-9 40.8-7.7 44.6-8.1C49.1-8.5 50.4-12 50.4-12C50.4-12 52.1-8.3 57.6-8C63.3-7.9 65.1-10.9 65.9-11.9C66.7-12.8 67.4-15.2 66.1-16.1C64.8-17 63.9-15.9 62.5-13.9C61.1-11.9 58.3-10.9 55.6-12.2C52.8-13.5 52.7-17.9 52.7-17.9L48.7-17.7C48.7-17.7 48-13.8 46.3-12.6C44.5-11.4 40.4-11.1 38.6-13.7C37.7-15.1 36.5-16.9 34.8-15.7L34.8-15.7Z"/>
   <path class="monochrome-4 multicolor-4:black hierarchical-4:primary SFSymbolsPreviewWireframe" d="M43.6-21.7C43.6-24.2 47.1-25.4 50.5-25.4C53.9-25.5 57.5-24.3 57.7-21.9C57.8-19.5 53.4-16.1 50.8-16.1C48-16.1 43.6-19.3 43.6-21.7Z"/>
   <path class="monochrome-5 multicolor-5:systemGrayColor hierarchical-5:secondary SFSymbolsPreviewWireframe" d="M97.5-20.4C97.3-20.2 97-20.1 96.7-20.1C96.7-20.1 93.4-20.1 90.3-19.9C87.3-19.7 84.4-19 84.3-19C83.7-18.9 83.2-19.2 83.1-19.8C83-20.4 83.3-20.9 83.9-21.1C84-21.1 87-21.9 90.2-22.1C93.4-22.3 96.7-22.3 96.8-22.3C97.4-22.3 97.8-21.8 97.8-21.3C97.8-20.9 97.6-20.6 97.5-20.4L97.5-20.4ZM96.9-28.8C96.8-28.6 96.5-28.4 96.2-28.3C96.2-28.3 93-27.5 90-26.6C87.1-25.7 84.5-24.3 84.4-24.3C83.9-24 83.3-24.2 83-24.7C82.7-25.2 83-25.8 83.5-26.1C83.6-26.2 86.3-27.6 89.4-28.6C92.4-29.6 95.6-30.3 95.8-30.4C96.4-30.5 96.9-30.2 97-29.6C97.1-29.3 97-29 96.9-28.8L96.9-28.8ZM96.7-11C96.5-10.9 96.2-10.8 95.9-10.9C95.9-10.9 92.7-11.9 89.7-12.7C86.7-13.4 83.8-13.6 83.7-13.6C83.1-13.6 82.7-14.1 82.8-14.7C82.9-15.3 83.4-15.7 83.9-15.7C84-15.7 87.1-15.5 90.2-14.7C93.3-13.9 96.4-12.9 96.5-12.9C97-12.7 97.3-12.1 97.1-11.6C97.1-11.4 96.9-11.2 96.7-11L96.7-11ZM-0.3-18.8C-0.1-18.6 0.2-18.5 0.5-18.5C0.5-18.5 4-18.5 7.3-18.3C10.5-18.1 13.5-17.3 13.6-17.3C14.2-17.2 14.8-17.5 14.9-18.1C15-18.7 14.7-19.3 14.1-19.4C14-19.4 10.9-20.2 7.4-20.4C4-20.6 0.6-20.6 0.5-20.6C-0.1-20.6-0.6-20.1-0.5-19.5C-0.7-19.3-0.5-19-0.3-18.8L-0.3-18.8ZM0.3-27.6C0.5-27.3 0.7-27.2 1-27.1C1-27.1 4.4-26.3 7.5-25.3C10.6-24.3 13.3-22.9 13.3-22.8C13.8-22.5 14.5-22.7 14.7-23.3C15-23.8 14.7-24.5 14.2-24.8C14.1-24.9 11.2-26.4 8-27.4C4.8-28.4 1.4-29.2 1.3-29.3C0.7-29.4 0.1-29.1 4.54747e-13-28.5C0.1-28.1 0.1-27.8 0.3-27.6L0.3-27.6ZM0.5-8.9C0.8-8.8 1.1-8.7 1.4-8.8C1.4-8.8 4.7-9.9 7.9-10.7C11-11.5 14.1-11.7 14.2-11.7C14.8-11.7 15.3-12.2 15.2-12.8C15.1-13.4 14.6-13.8 14-13.8C13.9-13.8 10.7-13.6 7.3-12.8C4-12 0.8-10.9 0.6-10.9C9.09495e-13-10.7-0.3-10.1-0.1-9.5C0-9.3 0.2-9 0.5-8.9L0.5-8.9Z"/>
   <path class="monochrome-6 multicolor-6:custom hierarchical-6:secondary SFSymbolsPreviewWireframe" d="M27.5-57.4C28.7-58.5 29.4-59.5 27.9-61.6C25.8-64.9 22-68.8 20.4-70C18-72 16.1-72.6 15.3-69.4C14-63.6 14.1-55.7 15.5-51.5C16.1-50 17.6-49.2 18.8-50.2L27.5-57.4ZM77.7-54.1C79.7-52.1 81.3-50.8 82.4-49.5C83.2-48.6 84.6-49.1 84.8-50.2C86.8-59.9 86.1-68 84.8-70.2C84.1-71.2 82.9-71.5 81.8-71.1C79.8-70.4 74.8-66.7 71.1-61.1C70.7-60.4 70.9-59.6 71.4-59.1C73-58.3 75.3-56.6 77.7-54.1Z"/>
  </g>
  <g id="Regular-S" transform="matrix(1 0 0 1 1403.59 696)">
   <path class="monochrome-0 multicolor-0:custom hierarchical-0:tertiary SFSymbolsPreviewWireframe" d="M40.3-48.9C35.1-62.6 23.4-71.9 19-73.3C17.4-73.8 15.2-73.9 14.3-72.4C11.9-68.5 8.9-56.1 15.6-38.4L40.3-48.9ZM59-58.4C64.8-67.2 72.8-73.2 76.2-74.2C77.8-74.7 79.8-74.6 80.7-73.1C83.1-69.2 85-57.3 80.4-40.5L63.3-48.7L59-58.4Z"/>
   <path class="monochrome-1 multicolor-1:custom hierarchical-1:tertiary SFSymbolsPreviewWireframe" d="M83.8-29.2C82.4-47.7 69.4-60.5 47.7-60.5C26-60.5 13-46.9 11.7-28.4C11-17.6 15-8 23-2.5C28.3 1.1 35.7 3.2 47.8 3.2C60 3.2 67 0.5 72.4-3C81.2-9.1 84.6-18.6 83.8-29.2L83.8-29.2Z"/>
   <path class="monochrome-2 multicolor-2:systemOrangeColor hierarchical-2:primary SFSymbolsPreviewWireframe" d="M40.6-47.1C41.4-46.4 43.1-46.5 44-47.6C45.1-48.9 46.4-53.5 45.6-60.3C42.3-60.2 39.1-59.7 36.1-58.9C38.6-55.1 39.2-48.4 40.6-47.1ZM54.7-47.1C53.9-46.4 52.2-46.5 51.3-47.6C50.2-48.9 48.9-53.5 49.7-60.3C53-60.2 56.2-59.7 59.2-58.9C56.8-55.1 56.3-48.4 54.7-47.1Z"/>
   <path class="monochrome-3 multicolor-3:black hierarchical-3:primary SFSymbolsPreviewWireframe" d="M70.6-31.9C70.4-28 67.9-25.8 65.2-25.8C62.4-25.8 60.2-28.6 60.2-32C60.2-35.4 62.6-38.2 65.6-38.1C69.1-37.9 70.8-35.2 70.6-31.9ZM34.9-32.3C35.4-28.3 33.8-25.8 31-25.3C28.2-24.8 25.9-26.6 25.1-30C24.4-33.4 25.7-36.7 28.9-37.1C32.6-37.8 34.5-35.6 34.9-32.3ZM34.2-18.5C32.3-17.3 34.5-14.6 35.8-13.7C37-12.8 39.4-11.6 42.7-12C46.6-12.4 47.7-15.3 47.7-15.3C47.7-15.3 49.1-12 54-11.9C58.9-11.8 60.5-14.5 61.2-15.2C61.9-16 62.5-18.1 61.4-18.9C60.3-19.7 59.4-18.7 58.2-17C57-15.4 54.5-14.4 52.1-15.6C49.7-16.8 49.5-20.6 49.5-20.6L46.1-20.4C46.1-20.4 45.6-17.1 44-16C42.5-15 38.8-14.7 37.2-17C36.7-18 35.7-19.6 34.2-18.5L34.2-18.5Z"/>
   <path class="monochrome-4 multicolor-4:black hierarchical-4:primary SFSymbolsPreviewWireframe" d="M41.8-23.9C41.8-26.1 44.9-27.2 47.9-27.2C50.9-27.2 54.1-26.3 54.1-24.1C54.1-21.9 50.4-19.1 48-19.1C45.7-18.9 41.8-21.6 41.8-23.9Z"/>
   <path class="monochrome-5 multicolor-5:systemGrayColor hierarchical-5:secondary SFSymbolsPreviewWireframe" d="M90.6-22.7C90.4-22.5 90.2-22.4 89.9-22.4C89.9-22.4 86.8-22.4 83.9-22.2C81.1-22 78.4-21.4 78.4-21.3C77.9-21.2 77.4-21.5 77.3-22C77.2-22.5 77.5-23 78-23.2C78.1-23.2 80.9-23.9 83.9-24.1C86.9-24.3 89.9-24.3 90-24.3C90.5-24.3 90.9-23.9 90.9-23.3C90.9-23.1 90.8-22.9 90.6-22.7L90.6-22.7ZM90.1-30.5C90-30.3 89.7-30.1 89.5-30C89.5-30 86.5-29.3 83.7-28.4C81-27.5 78.6-26.2 78.6-26.2C78.1-25.9 77.6-26.1 77.3-26.6C77.1-27.1 77.3-27.7 77.7-27.9C77.8-28 80.3-29.3 83.2-30.2C86-31.1 89-31.8 89.1-31.8C89.6-31.9 90.1-31.6 90.2-31.1C90.3-30.9 90.2-30.7 90.1-30.5L90.1-30.5ZM89.9-14C89.7-13.9 89.4-13.9 89.1-13.9C89.1-13.9 86.2-14.9 83.4-15.6C80.7-16.3 77.9-16.5 77.9-16.5C77.4-16.5 77-17 77-17.5C77-18 77.5-18.4 78.1-18.4C78.2-18.4 81-18.2 84-17.5C86.9-16.8 89.8-15.8 89.9-15.8C90.4-15.6 90.7-15.1 90.5-14.6C90.3-14.3 90.1-14.1 89.9-14L89.9-14ZM3.7-20.6C3.9-20.4 4.1-20.3 4.4-20.3C4.4-20.3 7.5-20.3 10.4-20.1C13.2-19.9 15.9-19.3 15.9-19.2C16.4-19.1 16.9-19.4 17-19.9C17.1-20.4 16.8-20.9 16.3-21.1C16.2-21.1 13.4-21.8 10.4-22C7.4-22.2 4.4-22.2 4.3-22.2C3.8-22.2 3.4-21.8 3.4-21.2C3.4-21 3.5-20.8 3.7-20.6L3.7-20.6ZM4.2-28.3C4.3-28.1 4.6-27.9 4.8-27.8C4.8-27.8 7.8-27.1 10.6-26.2C13.3-25.3 15.7-24 15.7-24C16.2-23.7 16.7-23.9 17-24.4C17.2-24.9 17-25.5 16.6-25.7C16.5-25.8 14-27.1 11.1-28C8.3-28.9 5.3-29.6 5.2-29.6C4.7-29.7 4.2-29.4 4.1-28.9C4.1-28.8 4.1-28.5 4.2-28.3L4.2-28.3ZM4.4-11.9C4.6-11.8 4.9-11.8 5.2-11.8C5.2-11.8 8.1-12.8 10.9-13.5C13.6-14.2 16.4-14.4 16.4-14.4C16.9-14.4 17.3-14.9 17.3-15.4C17.3-15.9 16.8-16.3 16.2-16.3C16.1-16.3 13.3-16.1 10.3-15.4C7.4-14.7 4.5-13.7 4.4-13.7C3.9-13.5 3.6-13 3.8-12.5C4-12.2 4.2-12 4.4-11.9L4.4-11.9Z"/>
   <path class="monochrome-6 multicolor-6:custom hierarchical-6:secondary SFSymbolsPreviewWireframe" d="M27.9-54.8C29-55.7 29.5-56.7 28.3-58.5C26.4-61.4 23.1-64.8 21.8-65.8C19.6-67.4 18-68.1 17.4-65.3C16.3-60.3 16.3-53.4 17.6-49.7C18-48.4 19.5-47.6 20.5-48.6L27.9-54.8ZM71.6-51.9C73.3-50.2 74.8-49 75.7-47.9C76.4-47.2 77.7-47.5 77.9-48.5C79.6-56.9 79.1-64 77.9-66C77.3-66.9 76.3-67.1 75.3-66.8C73.6-66.2 69.1-62.9 66-58.1C65.6-57.6 65.8-56.8 66.3-56.5C67.5-55.6 69.4-54.2 71.6-51.9Z"/>
  </g>
  <g id="Ultralight-S" transform="matrix(1 0 0 1 515.611 696)">
   <path class="monochrome-0 multicolor-0:custom hierarchical-0:tertiary SFSymbolsPreviewWireframe" d="M37-46.9C32.3-59.1 22.1-67.4 18.1-68.6C16.6-69.1 14.8-69.1 13.9-67.7C11.8-64.3 9-53.1 15.1-37.3L37-46.9ZM53.6-55.4C58.8-63.3 65.9-68.6 68.8-69.6C70.3-70.1 72-70 72.8-68.6C74.9-65.2 76.7-54.4 72.5-39.6L57.3-46.9L53.6-55.4Z"/>
   <path class="monochrome-1 multicolor-1:custom hierarchical-1:tertiary SFSymbolsPreviewWireframe" d="M75.7-29.4C74.4-45.9 62.9-57.2 43.6-57.2C24.3-57.2 12.6-45.1 11.5-28.6C10.8-19 14.4-10.4 21.6-5.6C26.3-2.4 32.9-0.6 43.7-0.6C54.6-0.6 60.9-2.9 65.6-6.2C73.5-11.5 76.5-20 75.7-29.4L75.7-29.4Z"/>
   <path class="monochrome-2 multicolor-2:systemOrangeColor hierarchical-2:primary SFSymbolsPreviewWireframe" d="M37.3-45.4C38-44.8 39.4-44.9 40.3-45.9C41.3-47.1 42.4-51.1 41.8-57.2C38.9-57.1 36-56.7 33.4-55.9C35.5-52.5 36-46.5 37.3-45.4ZM49.8-45.4C49.1-44.8 47.7-44.9 46.8-45.9C45.8-47.1 44.7-51.1 45.3-57.2C48.2-57.1 51.1-56.7 53.7-55.9C51.7-52.5 51.2-46.5 49.8-45.4Z"/>
   <path class="monochrome-3 multicolor-3:black hierarchical-3:primary SFSymbolsPreviewWireframe" d="M64-31.8C63.8-28.3 61.7-26.4 59.1-26.4C56.5-26.4 54.6-28.8 54.6-31.9C54.6-35 56.7-37.5 59.5-37.3C62.7-37.1 64.1-34.7 64-31.8ZM32.2-32.2C32.7-28.7 31.2-26.4 28.7-25.9C26.2-25.4 24.1-27.1 23.5-30.1C22.9-33.1 24.1-36.1 26.9-36.4C30.1-37 31.8-35.1 32.2-32.2ZM31.5-19.9C29.8-18.8 31.8-16.4 33-15.5C34.2-14.6 36.1-13.6 39.2-13.9C42.7-14.3 43.7-16.8 43.7-16.8C43.7-16.8 45-13.9 49.3-13.8C53.7-13.7 55.1-16 55.6-16.7C56.2-17.4 56.8-19.2 55.8-20C54.8-20.7 54-19.8 53-18.3C51.9-16.8 49.7-16 47.6-17C45.5-18 45.4-21.5 45.4-21.5L42.4-21.3C42.4-21.3 41.9-18.4 40.5-17.4C39.1-16.4 35.8-16.2 34.4-18.3C33.7-19.4 32.9-20.8 31.5-19.9L31.5-19.9Z"/>
   <path class="monochrome-4 multicolor-4:black hierarchical-4:primary SFSymbolsPreviewWireframe" d="M38.3-24.7C38.3-26.7 41-27.6 43.7-27.6C46.3-27.6 49.2-26.8 49.3-24.9C49.3-22.9 46-20.4 43.9-20.4C41.7-20.3 38.3-22.7 38.3-24.7Z"/>
   <path class="monochrome-5 multicolor-5:systemGrayColor hierarchical-5:secondary SFSymbolsPreviewWireframe" d="M83.2-23.7C83-23.5 82.8-23.4 82.5-23.4C82.5-23.4 79.4-23.4 76.5-23.2C73.7-23 71-22.4 71-22.3C70.5-22.2 70-22.5 69.9-23C69.8-23.5 70.1-24 70.6-24.2C70.7-24.2 73.5-24.9 76.5-25.1C79.5-25.3 82.5-25.3 82.6-25.3C83.1-25.3 83.5-24.9 83.5-24.3C83.5-24.1 83.4-23.9 83.2-23.7L83.2-23.7ZM82.7-31.4C82.6-31.2 82.3-31 82.1-30.9C82.1-30.9 79.1-30.2 76.3-29.3C73.6-28.4 71.2-27.1 71.2-27.1C70.7-26.8 70.2-27 69.9-27.5C69.7-28 69.9-28.6 70.3-28.8C70.4-28.9 72.9-30.2 75.8-31.1C78.6-32 81.6-32.7 81.7-32.7C82.2-32.8 82.7-32.5 82.8-32C82.9-31.9 82.8-31.6 82.7-31.4L82.7-31.4ZM82.5-15C82.3-14.9 82-14.9 81.7-14.9C81.7-14.9 78.8-15.9 76-16.6C73.3-17.3 70.5-17.5 70.5-17.5C70-17.5 69.6-18 69.6-18.5C69.6-19 70.1-19.4 70.7-19.4C70.8-19.4 73.6-19.2 76.6-18.5C79.5-17.8 82.4-16.8 82.5-16.8C83-16.6 83.3-16.1 83.1-15.6C82.9-15.3 82.7-15.1 82.5-15L82.5-15ZM3.3-21.6C3.5-21.4 3.7-21.3 4-21.3C4-21.3 7.1-21.3 10-21.1C12.8-20.9 15.5-20.3 15.5-20.2C16-20.1 16.5-20.4 16.6-20.9C16.7-21.4 16.4-21.9 15.9-22.1C15.8-22.1 13-22.8 10-23C7-23.2 4-23.2 3.9-23.2C3.4-23.2 3-22.8 3-22.2C3-22 3.2-21.7 3.3-21.6L3.3-21.6ZM3.8-29.3C3.9-29.1 4.2-28.9 4.4-28.8C4.4-28.8 7.4-28.1 10.2-27.2C12.9-26.3 15.3-25 15.3-25C15.8-24.7 16.3-24.9 16.6-25.4C16.8-25.9 16.6-26.5 16.2-26.7C16.1-26.8 13.6-28.1 10.7-29C7.9-29.9 4.9-30.6 4.8-30.6C4.3-30.7 3.8-30.4 3.7-29.9C3.7-29.8 3.7-29.5 3.8-29.3L3.8-29.3ZM4-12.9C4.2-12.8 4.5-12.8 4.8-12.8C4.8-12.8 7.7-13.8 10.5-14.5C13.2-15.2 16-15.4 16-15.4C16.5-15.4 16.9-15.9 16.9-16.4C16.9-16.9 16.4-17.3 15.8-17.3C15.7-17.3 12.9-17.1 9.9-16.4C7-15.7 4.1-14.7 4-14.7C3.5-14.5 3.2-14 3.4-13.5C3.6-13.2 3.8-13 4-12.9L4-12.9Z"/>
   <path class="monochrome-6 multicolor-6:custom hierarchical-6:secondary SFSymbolsPreviewWireframe" d="M25.9-52.2C26.9-53 27.4-53.9 26.3-55.5C24.6-58 21.6-61.1 20.4-61.9C18.5-63.4 17-64 16.5-61.5C15.4-57 15.5-51 16.7-47.5C17.1-46.3 18.4-45.6 19.2-46.5L25.9-52.2ZM64.9-49.7C66.5-48.1 67.7-47.2 68.6-46.2C69.2-45.5 70.3-45.8 70.5-46.7C72.1-54.2 71.6-60.6 70.5-62.2C70-63 69-63.2 68.2-62.9C66.6-62.4 62.7-59.5 59.9-55.2C59.6-54.7 59.7-54 60.2-53.7C61.2-53 62.9-51.6 64.9-49.7Z"/>
  </g>
 </g>
</svg>
