<?xml version="1.0" encoding="UTF-8"?>
<!--Generator: Apple Native CoreSVG 341-->
<!DOCTYPE svg
PUBLIC "-//W3C//DTD SVG 1.1//EN"
       "http://www.w3.org/Graphics/SVG/1.1/DTD/svg11.dtd">
<svg version="1.1" xmlns="http://www.w3.org/2000/svg" xmlns:xlink="http://www.w3.org/1999/xlink" viewBox="0 0 3300 2200">
 <!--glyph: "", point size: 100.0, font version: "20.0d10e1", template writer version: "138.0.0"-->
 <style>.monochrome-0 {-sfsymbols-motion-group:6;-sfsymbols-layer-tags:1d069205e54cdc19}
.monochrome-1 {-sfsymbols-motion-group:5;-sfsymbols-layer-tags:1d069205e54cdc19}
.monochrome-2 {opacity:0.0;-sfsymbols-clear-behind:true;-sfsymbols-motion-group:4;-sfsymbols-layer-tags:1d069205e54cdc19}
.monochrome-3 {opacity:0.0;-sfsymbols-clear-behind:true;-sfsymbols-motion-group:3;-sfsymbols-layer-tags:1d069205e54cdc19}
.monochrome-4 {opacity:0.0;-sfsymbols-clear-behind:true;-sfsymbols-motion-group:2;-sfsymbols-layer-tags:1d069205e54cdc19}
.monochrome-5 {-sfsymbols-motion-group:1;-sfsymbols-layer-tags:1d069205e54cdc19}
.monochrome-6 {opacity:0.0;-sfsymbols-clear-behind:true;-sfsymbols-motion-group:0;-sfsymbols-layer-tags:1d069205e54cdc19}

.multicolor-0:systemOrangeColor {-sfsymbols-motion-group:6;-sfsymbols-layer-tags:1d069205e54cdc19}
.multicolor-1:systemOrangeColor {-sfsymbols-clear-behind:true;-sfsymbols-motion-group:5;-sfsymbols-layer-tags:1d069205e54cdc19}
.multicolor-2:systemYellowColor {-sfsymbols-motion-group:4;-sfsymbols-layer-tags:1d069205e54cdc19}
.multicolor-3:black {-sfsymbols-motion-group:3;-sfsymbols-layer-tags:1d069205e54cdc19}
.multicolor-4:black {-sfsymbols-clear-behind:true;-sfsymbols-motion-group:2;-sfsymbols-layer-tags:1d069205e54cdc19}
.multicolor-5:systemGrayColor {-sfsymbols-clear-behind:true;-sfsymbols-motion-group:1;-sfsymbols-layer-tags:1d069205e54cdc19}
.multicolor-6:custom {fill:#FFD1D1;opacity:0.9;-sfsymbols-motion-group:0;-sfsymbols-layer-tags:1d069205e54cdc19}

.hierarchical-0:tertiary {-sfsymbols-motion-group:6;-sfsymbols-layer-tags:1d069205e54cdc19}
.hierarchical-1:tertiary {-sfsymbols-clear-behind:true;-sfsymbols-motion-group:5;-sfsymbols-layer-tags:1d069205e54cdc19}
.hierarchical-2:primary {-sfsymbols-motion-group:4;-sfsymbols-layer-tags:1d069205e54cdc19}
.hierarchical-3:primary {-sfsymbols-motion-group:3;-sfsymbols-layer-tags:1d069205e54cdc19}
.hierarchical-4:secondary {-sfsymbols-clear-behind:true;-sfsymbols-motion-group:2;-sfsymbols-layer-tags:1d069205e54cdc19}
.hierarchical-5:secondary {-sfsymbols-clear-behind:true;-sfsymbols-motion-group:1;-sfsymbols-layer-tags:1d069205e54cdc19}
.hierarchical-6:tertiary {-sfsymbols-motion-group:0;-sfsymbols-layer-tags:1d069205e54cdc19}

.SFSymbolsPreviewWireframe {fill:none;opacity:1.0;stroke:black;stroke-width:0.5}
</style>
 <g id="Notes">
  <rect height="2200" id="artboard" style="fill:white;opacity:1" width="3300" x="0" y="0"/>
  <line style="fill:none;stroke:black;opacity:1;stroke-width:0.5;" x1="263" x2="3036" y1="292" y2="292"/>
  <text style="stroke:none;fill:black;font-family:sans-serif;font-size:13;font-weight:bold;" transform="matrix(1 0 0 1 263 322)">Weight/Scale Variations</text>
  <text style="stroke:none;fill:black;font-family:sans-serif;font-size:13;text-anchor:middle;" transform="matrix(1 0 0 1 559.711 322)">Ultralight</text>
  <text style="stroke:none;fill:black;font-family:sans-serif;font-size:13;text-anchor:middle;" transform="matrix(1 0 0 1 856.422 322)">Thin</text>
  <text style="stroke:none;fill:black;font-family:sans-serif;font-size:13;text-anchor:middle;" transform="matrix(1 0 0 1 1153.13 322)">Light</text>
  <text style="stroke:none;fill:black;font-family:sans-serif;font-size:13;text-anchor:middle;" transform="matrix(1 0 0 1 1449.84 322)">Regular</text>
  <text style="stroke:none;fill:black;font-family:sans-serif;font-size:13;text-anchor:middle;" transform="matrix(1 0 0 1 1746.56 322)">Medium</text>
  <text style="stroke:none;fill:black;font-family:sans-serif;font-size:13;text-anchor:middle;" transform="matrix(1 0 0 1 2043.27 322)">Semibold</text>
  <text style="stroke:none;fill:black;font-family:sans-serif;font-size:13;text-anchor:middle;" transform="matrix(1 0 0 1 2339.98 322)">Bold</text>
  <text style="stroke:none;fill:black;font-family:sans-serif;font-size:13;text-anchor:middle;" transform="matrix(1 0 0 1 2636.69 322)">Heavy</text>
  <text style="stroke:none;fill:black;font-family:sans-serif;font-size:13;text-anchor:middle;" transform="matrix(1 0 0 1 2933.4 322)">Black</text>
  <line style="fill:none;stroke:black;opacity:1;stroke-width:0.5;" x1="263" x2="3036" y1="1903" y2="1903"/>
  <g transform="matrix(0.2 0 0 0.2 263 1933)">
   <path d="m46.2402 4.15039c21.7773 0 39.4531-17.627 39.4531-39.4043s-17.6758-39.4043-39.4531-39.4043c-21.7285 0-39.4043 17.627-39.4043 39.4043s17.6758 39.4043 39.4043 39.4043Zm0-7.42188c-17.6758 0-31.9336-14.3066-31.9336-31.9824s14.2578-31.9824 31.9336-31.9824 31.9824 14.3066 31.9824 31.9824-14.3066 31.9824-31.9824 31.9824Zm-17.9688-31.9824c0 2.14844 1.51367 3.61328 3.75977 3.61328h10.498v10.5957c0 2.19727 1.46484 3.71094 3.61328 3.71094 2.24609 0 3.71094-1.51367 3.71094-3.71094v-10.5957h10.5957c2.19727 0 3.71094-1.46484 3.71094-3.61328 0-2.19727-1.51367-3.71094-3.71094-3.71094h-10.5957v-10.5469c0-2.24609-1.46484-3.75977-3.71094-3.75977-2.14844 0-3.61328 1.51367-3.61328 3.75977v10.5469h-10.498c-2.24609 0-3.75977 1.51367-3.75977 3.71094Z"/>
  </g>
  <g transform="matrix(0.2 0 0 0.2 281.506 1933)">
   <path d="m58.5449 14.5508c27.4902 0 49.8047-22.3145 49.8047-49.8047s-22.3145-49.8047-49.8047-49.8047-49.8047 22.3145-49.8047 49.8047 22.3145 49.8047 49.8047 49.8047Zm0-8.30078c-22.9492 0-41.5039-18.5547-41.5039-41.5039s18.5547-41.5039 41.5039-41.5039 41.5039 18.5547 41.5039 41.5039-18.5547 41.5039-41.5039 41.5039Zm-22.6562-41.5039c0 2.39258 1.66016 4.00391 4.15039 4.00391h14.3555v14.4043c0 2.44141 1.66016 4.15039 4.05273 4.15039 2.44141 0 4.15039-1.66016 4.15039-4.15039v-14.4043h14.4043c2.44141 0 4.15039-1.61133 4.15039-4.00391 0-2.44141-1.70898-4.15039-4.15039-4.15039h-14.4043v-14.3555c0-2.49023-1.70898-4.19922-4.15039-4.19922-2.39258 0-4.05273 1.70898-4.05273 4.19922v14.3555h-14.3555c-2.49023 0-4.15039 1.70898-4.15039 4.15039Z"/>
  </g>
  <g transform="matrix(0.2 0 0 0.2 304.924 1933)">
   <path d="m74.8535 28.3203c35.1074 0 63.623-28.4668 63.623-63.5742s-28.5156-63.623-63.623-63.623-63.5742 28.5156-63.5742 63.623 28.4668 63.5742 63.5742 63.5742Zm0-9.08203c-30.127 0-54.4922-24.3652-54.4922-54.4922s24.3652-54.4922 54.4922-54.4922 54.4922 24.3652 54.4922 54.4922-24.3652 54.4922-54.4922 54.4922Zm-28.8574-54.4922c0 2.58789 1.85547 4.39453 4.58984 4.39453h19.7266v19.7754c0 2.68555 1.85547 4.58984 4.44336 4.58984 2.68555 0 4.54102-1.85547 4.54102-4.58984v-19.7754h19.7754c2.68555 0 4.58984-1.80664 4.58984-4.39453 0-2.73438-1.85547-4.58984-4.58984-4.58984h-19.7754v-19.7266c0-2.73438-1.85547-4.63867-4.54102-4.63867-2.58789 0-4.44336 1.9043-4.44336 4.63867v19.7266h-19.7266c-2.73438 0-4.58984 1.85547-4.58984 4.58984Z"/>
  </g>
  <text style="stroke:none;fill:black;font-family:sans-serif;font-size:13;font-weight:bold;" transform="matrix(1 0 0 1 263 1953)">Design Variations</text>
  <text style="stroke:none;fill:black;font-family:sans-serif;font-size:13;" transform="matrix(1 0 0 1 263 1971)">Symbols are supported in up to nine weights and three scales.</text>
  <text style="stroke:none;fill:black;font-family:sans-serif;font-size:13;" transform="matrix(1 0 0 1 263 1989)">For optimal layout with text and other symbols, vertically align</text>
  <text style="stroke:none;fill:black;font-family:sans-serif;font-size:13;" transform="matrix(1 0 0 1 263 2007)">symbols with the adjacent text.</text>
  <line style="fill:none;stroke:#00AEEF;stroke-width:0.5;opacity:1.0;" x1="776" x2="776" y1="1919" y2="1933"/>
  <g transform="matrix(0.2 0 0 0.2 776 1933)">
   <path d="m16.5527 0.78125c2.58789 0 3.85742-0.976562 4.78516-3.71094l6.29883-17.2363h28.8086l6.29883 17.2363c0.927734 2.73438 2.19727 3.71094 4.73633 3.71094 2.58789 0 4.24805-1.5625 4.24805-4.00391 0-0.830078-0.146484-1.61133-0.537109-2.63672l-22.9004-60.9863c-1.12305-2.97852-3.125-4.49219-6.25-4.49219-3.02734 0-5.07812 1.46484-6.15234 4.44336l-22.9004 61.084c-0.390625 1.02539-0.537109 1.80664-0.537109 2.63672 0 2.44141 1.5625 3.95508 4.10156 3.95508Zm13.4766-28.3691 11.8652-32.8613h0.244141l11.8652 32.8613Z"/>
  </g>
  <line style="fill:none;stroke:#00AEEF;stroke-width:0.5;opacity:1.0;" x1="792.836" x2="792.836" y1="1919" y2="1933"/>
  <text style="stroke:none;fill:black;font-family:sans-serif;font-size:13;font-weight:bold;" transform="matrix(1 0 0 1 776 1953)">Margins</text>
  <text style="stroke:none;fill:black;font-family:sans-serif;font-size:13;" transform="matrix(1 0 0 1 776 1971)">Leading and trailing margins on the left and right side of each symbol</text>
  <text style="stroke:none;fill:black;font-family:sans-serif;font-size:13;" transform="matrix(1 0 0 1 776 1989)">can be adjusted by modifying the x-location of the margin guidelines.</text>
  <text style="stroke:none;fill:black;font-family:sans-serif;font-size:13;" transform="matrix(1 0 0 1 776 2007)">Modifications are automatically applied proportionally to all</text>
  <text style="stroke:none;fill:black;font-family:sans-serif;font-size:13;" transform="matrix(1 0 0 1 776 2025)">scales and weights.</text>
  <g transform="matrix(0.2 0 0 0.2 1289 1933)">
   <path d="m14.209 9.32617 8.49609 8.54492c4.29688 4.3457 9.22852 4.05273 13.8672-1.07422l53.4668-58.9355-4.83398-4.88281-53.0762 58.3984c-1.75781 2.00195-3.41797 2.49023-5.76172 0.146484l-5.85938-5.81055c-2.34375-2.29492-1.80664-4.00391 0.195312-5.81055l57.373-54.0039-4.88281-4.83398-57.959 54.4434c-4.93164 4.58984-5.32227 9.47266-1.02539 13.8184Zm32.0801-90.9668c-2.09961 2.05078-2.24609 4.93164-1.07422 6.88477 1.17188 1.80664 3.4668 2.97852 6.68945 2.14844 7.32422-1.70898 14.9414-2.00195 22.0703 2.68555l-2.92969 7.27539c-1.70898 4.15039-0.830078 7.08008 1.85547 9.81445l11.4746 11.5723c2.44141 2.44141 4.49219 2.53906 7.32422 2.05078l5.32227-0.976562 3.32031 3.36914-0.195312 2.7832c-0.195312 2.49023 0.439453 4.39453 2.88086 6.78711l3.80859 3.71094c2.39258 2.39258 5.46875 2.53906 7.8125 0.195312l14.5508-14.5996c2.34375-2.34375 2.24609-5.32227-0.146484-7.71484l-3.85742-3.80859c-2.39258-2.39258-4.24805-3.17383-6.64062-2.97852l-2.88086 0.244141-3.22266-3.17383 1.2207-5.61523c0.634766-2.83203-0.146484-5.0293-3.07617-7.95898l-10.9863-10.9375c-16.6992-16.6016-38.8672-16.2109-53.3203-1.75781Zm7.4707 1.85547c12.1582-8.88672 28.6133-7.37305 39.7461 3.75977l12.1582 12.0605c1.17188 1.17188 1.36719 2.09961 1.02539 3.80859l-1.61133 7.42188 7.51953 7.42188 4.93164-0.292969c1.26953-0.0488281 1.66016 0.0488281 2.63672 1.02539l2.88086 2.88086-12.207 12.207-2.88086-2.88086c-0.976562-0.976562-1.12305-1.36719-1.07422-2.68555l0.341797-4.88281-7.4707-7.42188-7.61719 1.26953c-1.61133 0.341797-2.34375 0.195312-3.56445-0.976562l-10.0098-10.0098c-1.26953-1.17188-1.41602-2.00195-0.634766-3.85742l4.39453-10.4492c-7.8125-7.27539-17.9688-10.4004-28.125-7.42188-0.78125 0.195312-1.07422-0.439453-0.439453-0.976562Z"/>
  </g>
  <text style="stroke:none;fill:black;font-family:sans-serif;font-size:13;font-weight:bold;" transform="matrix(1 0 0 1 1289 1953)">Exporting</text>
  <text style="stroke:none;fill:black;font-family:sans-serif;font-size:13;" transform="matrix(1 0 0 1 1289 1971)">Symbols should be outlined when exporting to ensure the</text>
  <text style="stroke:none;fill:black;font-family:sans-serif;font-size:13;" transform="matrix(1 0 0 1 1289 1989)">design is preserved when submitting to Xcode.</text>
  <text id="template-version" style="stroke:none;fill:black;font-family:sans-serif;font-size:13;text-anchor:end;" transform="matrix(1 0 0 1 3036 1933)">Template v.6.0</text>
  <text style="stroke:none;fill:black;font-family:sans-serif;font-size:13;text-anchor:end;" transform="matrix(1 0 0 1 3036 1951)">Requires Xcode 16 or greater</text>
  <text id="descriptive-name" style="stroke:none;fill:black;font-family:sans-serif;font-size:13;text-anchor:end;" transform="matrix(1 0 0 1 3036 1969)">Generated from cat</text>
  <text style="stroke:none;fill:black;font-family:sans-serif;font-size:13;text-anchor:end;" transform="matrix(1 0 0 1 3036 1987)">Typeset at 100.0 points</text>
  <text style="stroke:none;fill:black;font-family:sans-serif;font-size:13;" transform="matrix(1 0 0 1 263 726)">Small</text>
  <text style="stroke:none;fill:black;font-family:sans-serif;font-size:13;" transform="matrix(1 0 0 1 263 1156)">Medium</text>
  <text style="stroke:none;fill:black;font-family:sans-serif;font-size:13;" transform="matrix(1 0 0 1 263 1586)">Large</text>
 </g>
 <g id="Guides">
  <g id="H-reference" style="fill:#27AAE1;stroke:none;" transform="matrix(1 0 0 1 339 696)">
   <path d="M0.993654 0L3.63775 0L29.3281-67.1323L30.0303-67.1323L30.0303-70.459L28.1226-70.459ZM11.6885-24.4799L46.9815-24.4799L46.2315-26.7285L12.4385-26.7285ZM55.1196 0L57.7637 0L30.6382-70.459L29.4326-70.459L29.4326-67.1323Z"/>
  </g>
  <line id="Baseline-S" style="fill:none;stroke:#27AAE1;opacity:1;stroke-width:0.5;" x1="263" x2="3036" y1="696" y2="696"/>
  <line id="Capline-S" style="fill:none;stroke:#27AAE1;opacity:1;stroke-width:0.5;" x1="263" x2="3036" y1="625.541" y2="625.541"/>
  <g id="H-reference" style="fill:#27AAE1;stroke:none;" transform="matrix(1 0 0 1 339 1126)">
   <path d="M0.993654 0L3.63775 0L29.3281-67.1323L30.0303-67.1323L30.0303-70.459L28.1226-70.459ZM11.6885-24.4799L46.9815-24.4799L46.2315-26.7285L12.4385-26.7285ZM55.1196 0L57.7637 0L30.6382-70.459L29.4326-70.459L29.4326-67.1323Z"/>
  </g>
  <line id="Baseline-M" style="fill:none;stroke:#27AAE1;opacity:1;stroke-width:0.5;" x1="263" x2="3036" y1="1126" y2="1126"/>
  <line id="Capline-M" style="fill:none;stroke:#27AAE1;opacity:1;stroke-width:0.5;" x1="263" x2="3036" y1="1055.54" y2="1055.54"/>
  <g id="H-reference" style="fill:#27AAE1;stroke:none;" transform="matrix(1 0 0 1 339 1556)">
   <path d="M0.993654 0L3.63775 0L29.3281-67.1323L30.0303-67.1323L30.0303-70.459L28.1226-70.459ZM11.6885-24.4799L46.9815-24.4799L46.2315-26.7285L12.4385-26.7285ZM55.1196 0L57.7637 0L30.6382-70.459L29.4326-70.459L29.4326-67.1323Z"/>
  </g>
  <line id="Baseline-L" style="fill:none;stroke:#27AAE1;opacity:1;stroke-width:0.5;" x1="263" x2="3036" y1="1556" y2="1556"/>
  <line id="Capline-L" style="fill:none;stroke:#27AAE1;opacity:1;stroke-width:0.5;" x1="263" x2="3036" y1="1485.54" y2="1485.54"/>
  <line id="right-margin-Black-S" style="fill:none;stroke:#00AEEF;stroke-width:0.5;opacity:1.0;" x1="2982.2" x2="2982.2" y1="600.785" y2="720.121"/>
  <line id="left-margin-Black-S" style="fill:none;stroke:#00AEEF;stroke-width:0.5;opacity:1.0;" x1="2884.6" x2="2884.6" y1="600.785" y2="720.121"/>
  <line id="right-margin-Regular-S" style="fill:none;stroke:#00AEEF;stroke-width:0.5;opacity:1.0;" x1="1496.09" x2="1496.09" y1="600.785" y2="720.121"/>
  <line id="left-margin-Regular-S" style="fill:none;stroke:#00AEEF;stroke-width:0.5;opacity:1.0;" x1="1403.59" x2="1403.59" y1="600.785" y2="720.121"/>
  <line id="right-margin-Ultralight-S" style="fill:none;stroke:#00AEEF;stroke-width:0.5;opacity:1.0;" x1="603.811" x2="603.811" y1="600.785" y2="720.121"/>
  <line id="left-margin-Ultralight-S" style="fill:none;stroke:#00AEEF;stroke-width:0.5;opacity:1.0;" x1="515.611" x2="515.611" y1="600.785" y2="720.121"/>
 </g>
 <g id="Symbols">
  <g id="Black-S" transform="matrix(1 0 0 1 2884.6 696)">
   <path class="monochrome-0 multicolor-0:systemOrangeColor hierarchical-0:tertiary SFSymbolsPreviewWireframe" d="M43.4-46.6C38.8-58.7 28.6-66.8 24.7-68C23.3-68.4 21.4-68.5 20.6-67.2C18.5-63.8 15.8-52.9 21.8-37.4L43.4-46.6ZM59.8-54.9C64.9-62.7 71.9-67.9 74.8-68.7C76.2-69.1 78-69 78.7-67.7C80.8-64.3 82.5-53.9 78.5-39.1L63.5-46.3C63.5-46.4 59.8-54.9 59.8-54.9Z"/>
   <path class="monochrome-1 multicolor-1:systemOrangeColor hierarchical-1:tertiary SFSymbolsPreviewWireframe" d="M81.5-29.3C80.2-45.6 68.9-56.7 49.8-56.7C30.7-56.7 19.5-44.8 18.3-28.6C17.7-19.1 21.2-10.7 28.2-5.9C32.9-2.7 39.4-0.9 50-0.9C60.7-0.9 66.8-3.2 71.6-6.3C79.2-11.8 82.2-20.1 81.5-29.3Z"/>
   <path class="monochrome-2 multicolor-2:systemYellowColor hierarchical-2:primary SFSymbolsPreviewWireframe" d="M43.6-45.1C44.3-44.5 45.8-44.6 46.6-45.5C47.6-46.7 48.7-50.7 48-56.7C45.1-56.6 42.3-56.2 39.7-55.4C41.9-52.1 42.4-46.2 43.6-45.1ZM56-45.1C55.3-44.5 53.8-44.6 53-45.5C52-46.7 50.9-50.7 51.6-56.7C54.5-56.6 57.3-56.2 59.9-55.4C57.8-52.1 57.4-46.2 56-45.1Z"/>
   <path class="monochrome-3 multicolor-3:black hierarchical-3:primary SFSymbolsPreviewWireframe" d="M70-31.8C69.8-28.4 67.7-26.5 65.2-26.5C62.7-26.5 60.8-28.9 60.8-31.9C60.8-34.9 62.9-37.3 65.6-37.2C68.7-37 70.2-34.6 70-31.8ZM38.6-32.1C39-28.6 37.6-26.4 35.2-25.9C32.8-25.4 30.7-27.1 30-30C29.4-33 30.5-35.8 33.3-36.3C36.6-36.9 38.3-35 38.6-32.1ZM38.1-20C36.4-18.9 38.3-16.6 39.5-15.8C40.6-15 42.7-14 45.6-14.3C49-14.6 50-17.2 50-17.2C50-17.2 51.3-14.3 55.5-14.2C59.8-14.1 61.2-16.5 61.8-17.1C62.4-17.8 63-19.6 62-20.4C61-21.1 60.2-20.2 59.2-18.7C58.1-17.3 55.9-16.4 53.9-17.4C51.8-18.4 51.6-21.8 51.6-21.8L48.5-21.5C48.5-21.5 48.1-18.6 46.7-17.7C45.4-16.8 42.1-16.5 40.8-18.6C40.2-19.6 39.4-20.9 38.1-20Z"/>
   <path class="monochrome-4 multicolor-4:black hierarchical-4:secondary SFSymbolsPreviewWireframe" d="M44.7-24.8C44.7-26.7 47.5-27.7 50-27.7C52.7-27.7 55.4-26.9 55.4-24.9C55.4-23 52.1-20.5 50.1-20.5C48.1-20.3 44.7-22.7 44.7-24.8Z"/>
   <path class="monochrome-5 multicolor-5:systemGrayColor hierarchical-5:secondary SFSymbolsPreviewWireframe" d="M87.5-23.7C87.3-23.5 87.2-23.4 86.9-23.4C86.9-23.4 84.1-23.4 81.6-23.2C79.2-23 76.8-22.5 76.8-22.4C76.4-22.3 75.9-22.6 75.8-23C75.7-23.4 76-23.9 76.4-24.1C76.5-24.1 78.9-24.7 81.6-24.9C84.3-25.1 86.9-25.1 86.9-25.1C87.3-25.1 87.7-24.8 87.7-24.2C87.7-24 87.7-23.8 87.5-23.7ZM87.1-30.5C87-30.3 86.8-30.2 86.6-30.1C86.6-30.1 83.9-29.5 81.5-28.7C79.2-27.9 77-26.8 77-26.8C76.6-26.5 76.1-26.7 75.8-27.1C75.6-27.5 75.8-28.1 76.1-28.3C76.2-28.4 78.4-29.6 80.9-30.3C83.3-31.1 86-31.7 86.1-31.7C86.5-31.8 87-31.5 87.1-31.1C87.2-30.8 87.2-30.7 87.1-30.5ZM86.8-16.1C86.6-16 86.4-16 86.1-16C86.1-16 83.6-16.9 81.1-17.5C78.8-18.1 76.3-18.3 76.3-18.3C75.9-18.3 75.5-18.7 75.5-19.2C75.5-19.6 75.9-20 76.5-20C76.6-20 79-19.8 81.7-19.2C84.2-18.6 86.8-17.7 86.9-17.7C87.3-17.5 87.6-17.1 87.4-16.6C87.2-16.3 87.1-16.2 86.8-16.1L86.8-16.1ZM11.3-21.8C11.5-21.6 11.6-21.5 11.9-21.5C11.9-21.5 14.7-21.5 17.2-21.3C19.6-21.1 22-20.6 22-20.5C22.4-20.4 22.9-20.7 23-21.1C23.1-21.5 22.8-22 22.4-22.2C22.3-22.2 19.9-22.8 17.2-23C14.5-23.2 11.9-23.2 11.9-23.2C11.5-23.2 11.1-22.9 11.1-22.3C11.1-22.2 11.1-22 11.3-21.8ZM11.7-28.6C11.8-28.4 12-28.3 12.2-28.2C12.2-28.2 14.9-27.6 17.3-26.8C19.6-26 21.8-24.9 21.8-24.9C22.2-24.6 22.7-24.8 23-25.2C23.2-25.6 23-26.2 22.7-26.4C22.6-26.5 20.4-27.7 17.9-28.4C15.5-29.2 12.8-29.8 12.7-29.8C12.3-29.9 11.8-29.6 11.7-29.2C11.6-29 11.6-28.8 11.7-28.6ZM12-14.2C12.2-14.1 12.4-14.1 12.7-14.1C12.7-14.1 15.2-15 17.7-15.6C20-16.2 22.5-16.4 22.5-16.4C22.9-16.4 23.3-16.8 23.3-17.3C23.3-17.7 22.9-18.1 22.3-18.1C22.2-18.1 19.8-17.9 17.1-17.3C14.6-16.7 12-15.8 11.9-15.8C11.5-15.6 11.2-15.2 11.4-14.7C11.6-14.5 11.7-14.3 12-14.2Z"/>
   <path class="monochrome-6 multicolor-6:custom hierarchical-6:tertiary SFSymbolsPreviewWireframe" d="M32.6-51.9C33.6-52.7 34-53.6 32.9-55.2C31.2-57.7 28.3-60.7 27.2-61.6C25.3-63 23.9-63.6 23.4-61.2C22.4-56.8 22.4-50.8 23.6-47.5C23.9-46.3 25.3-45.7 26.1-46.5C26.1-46.4 32.6-51.9 32.6-51.9ZM70.8-49.3C72.3-47.8 73.6-46.8 74.4-45.8C75-45.2 76.2-45.5 76.3-46.3C77.8-53.6 77.4-59.9 76.3-61.6C75.8-62.4 74.9-62.6 74-62.3C72.5-61.8 68.6-58.9 65.8-54.7C65.5-54.3 65.6-53.5 66-53.3C67.2-52.5 68.9-51.3 70.8-49.3Z"/>
  </g>
  <g id="Regular-S" transform="matrix(1 0 0 1 1403.59 696)">
   <path class="monochrome-0 multicolor-0:systemOrangeColor hierarchical-0:tertiary SFSymbolsPreviewWireframe" d="M40.4-46.6C35.8-58.7 25.6-66.8 21.7-68C20.3-68.4 18.4-68.5 17.6-67.2C15.5-63.8 12.8-52.9 18.8-37.4L40.4-46.6ZM56.8-54.9C61.9-62.7 68.9-67.9 71.8-68.7C73.2-69.1 75-69 75.7-67.7C77.8-64.3 79.5-53.9 75.4-39.1L60.4-46.3C60.5-46.4 56.8-54.9 56.8-54.9Z"/>
   <path class="monochrome-1 multicolor-1:systemOrangeColor hierarchical-1:tertiary SFSymbolsPreviewWireframe" d="M78.5-29.3C77.2-45.6 65.9-56.7 46.8-56.7C27.7-56.7 16.5-44.8 15.3-28.6C14.7-19.1 18.2-10.7 25.2-5.9C29.9-2.7 36.4-0.9 47-0.9C57.7-0.9 63.8-3.2 68.6-6.3C76.2-11.8 79.2-20.1 78.5-29.3Z"/>
   <path class="monochrome-2 multicolor-2:systemYellowColor hierarchical-2:primary SFSymbolsPreviewWireframe" d="M40.6-45.1C41.3-44.5 42.8-44.6 43.6-45.5C44.6-46.7 45.7-50.7 45-56.7C42.1-56.6 39.3-56.2 36.7-55.4C38.9-52.1 39.4-46.2 40.6-45.1ZM53-45.1C52.3-44.5 50.8-44.6 50-45.5C49-46.7 47.9-50.7 48.6-56.7C51.5-56.6 54.3-56.2 56.9-55.4C54.8-52.1 54.4-46.2 53-45.1Z"/>
   <path class="monochrome-3 multicolor-3:black hierarchical-3:primary SFSymbolsPreviewWireframe" d="M67-31.8C66.8-28.4 64.7-26.5 62.2-26.5C59.8-26.5 57.8-28.9 57.8-31.9C57.8-34.9 59.9-37.3 62.6-37.2C65.7-37 67.2-34.6 67-31.8ZM35.6-32.1C36-28.6 34.6-26.4 32.2-25.9C29.8-25.4 27.7-27.1 27-30C26.4-33 27.5-35.8 30.3-36.3C33.6-36.9 35.3-35 35.6-32.1ZM35.1-20C33.4-18.9 35.4-16.6 36.5-15.8C37.6-15 39.7-14 42.6-14.3C46-14.6 47-17.2 47-17.2C47-17.2 48.3-14.3 52.5-14.2C56.8-14.1 58.2-16.5 58.8-17.1C59.4-17.8 60-19.6 59-20.4C58-21.1 57.2-20.2 56.2-18.7C55.1-17.3 52.9-16.4 50.9-17.4C48.8-18.4 48.6-21.8 48.6-21.8L45.5-21.5C45.5-21.5 45.1-18.6 43.7-17.7C42.4-16.8 39.1-16.5 37.8-18.6C37.2-19.6 36.4-20.9 35.1-20Z"/>
   <path class="monochrome-4 multicolor-4:black hierarchical-4:secondary SFSymbolsPreviewWireframe" d="M41.7-24.8C41.7-26.7 44.5-27.7 47-27.7C49.7-27.7 52.4-26.9 52.4-24.9C52.4-23 49.1-20.5 47.1-20.5C45.1-20.3 41.7-22.7 41.7-24.8Z"/>
   <path class="monochrome-5 multicolor-5:systemGrayColor hierarchical-5:secondary SFSymbolsPreviewWireframe" d="M84.5-23.7C84.3-23.5 84.2-23.4 83.9-23.4C83.9-23.4 81.1-23.4 78.6-23.2C76.2-23 73.8-22.5 73.8-22.4C73.4-22.3 72.9-22.6 72.8-23C72.7-23.4 73-23.9 73.4-24.1C73.5-24.1 75.9-24.7 78.6-24.9C81.3-25.1 83.9-25.1 83.9-25.1C84.3-25.1 84.7-24.8 84.7-24.2C84.7-24 84.7-23.8 84.5-23.7ZM84.1-30.5C84-30.3 83.8-30.2 83.6-30.1C83.6-30.1 80.9-29.5 78.5-28.7C76.2-27.9 74-26.8 74-26.8C73.6-26.5 73.1-26.7 72.8-27.1C72.6-27.5 72.8-28.1 73.1-28.3C73.2-28.4 75.4-29.6 77.9-30.3C80.3-31.1 83-31.7 83.1-31.7C83.5-31.8 84-31.5 84.1-31.1C84.2-30.8 84.2-30.7 84.1-30.5ZM83.8-16.1C83.6-16 83.4-16 83.1-16C83.1-16 80.6-16.9 78.1-17.5C75.8-18.1 73.3-18.3 73.3-18.3C72.9-18.3 72.5-18.7 72.5-19.2C72.5-19.6 72.9-20 73.5-20C73.6-20 76-19.8 78.7-19.2C81.2-18.6 83.8-17.7 83.9-17.7C84.3-17.5 84.6-17.1 84.4-16.6C84.2-16.3 84.1-16.2 83.8-16.1L83.8-16.1ZM8.3-21.8C8.5-21.6 8.6-21.5 8.9-21.5C8.9-21.5 11.7-21.5 14.2-21.3C16.6-21.1 19-20.6 19-20.5C19.4-20.4 19.9-20.7 20-21.1C20.1-21.5 19.8-22 19.4-22.2C19.3-22.2 16.9-22.8 14.2-23C11.5-23.2 8.9-23.2 8.9-23.2C8.5-23.2 8.1-22.9 8.1-22.3C8.1-22.2 8.1-22 8.3-21.8ZM8.7-28.6C8.8-28.4 9-28.3 9.2-28.2C9.2-28.2 11.9-27.6 14.3-26.8C16.6-26 18.8-24.9 18.8-24.9C19.2-24.6 19.7-24.8 20-25.2C20.2-25.6 20-26.2 19.7-26.4C19.6-26.5 17.4-27.7 14.9-28.4C12.5-29.2 9.8-29.8 9.7-29.8C9.3-29.9 8.8-29.6 8.7-29.2C8.6-29 8.6-28.8 8.7-28.6ZM9-14.2C9.2-14.1 9.4-14.1 9.7-14.1C9.7-14.1 12.2-15 14.7-15.6C17-16.2 19.5-16.4 19.5-16.4C19.9-16.4 20.3-16.8 20.3-17.3C20.3-17.7 19.9-18.1 19.3-18.1C19.2-18.1 16.8-17.9 14.1-17.3C11.6-16.7 9-15.8 8.9-15.8C8.5-15.6 8.2-15.2 8.4-14.7C8.6-14.5 8.7-14.3 9-14.2Z"/>
   <path class="monochrome-6 multicolor-6:custom hierarchical-6:tertiary SFSymbolsPreviewWireframe" d="M29.6-51.9C30.6-52.7 31-53.6 29.9-55.2C28.2-57.7 25.3-60.7 24.2-61.6C22.3-63 20.9-63.6 20.4-61.2C19.4-56.8 19.4-50.8 20.6-47.5C20.9-46.3 22.3-45.7 23.1-46.5C23.1-46.4 29.6-51.9 29.6-51.9ZM67.8-49.3C69.3-47.8 70.6-46.8 71.4-45.8C72-45.2 73.2-45.5 73.3-46.3C74.8-53.6 74.4-59.9 73.3-61.6C72.8-62.4 71.9-62.6 71-62.3C69.5-61.8 65.6-58.9 62.8-54.7C62.5-54.3 62.6-53.5 63.1-53.3C64.2-52.5 65.9-51.3 67.8-49.3Z"/>
  </g>
  <g id="Ultralight-S" transform="matrix(1 0 0 1 515.611 696)">
   <path class="monochrome-0 multicolor-0:systemOrangeColor hierarchical-0:tertiary SFSymbolsPreviewWireframe" d="M38.4-46.6C33.8-58.7 23.6-66.8 19.7-68C18.3-68.4 16.4-68.5 15.6-67.2C13.5-63.8 10.8-52.9 16.8-37.4L38.4-46.6ZM54.8-54.9C59.9-62.7 66.9-67.9 69.8-68.7C71.2-69.1 73-69 73.7-67.7C75.8-64.3 77.5-53.9 73.4-39.1L58.4-46.3C58.5-46.4 54.8-54.9 54.8-54.9Z"/>
   <path class="monochrome-1 multicolor-1:systemOrangeColor hierarchical-1:tertiary SFSymbolsPreviewWireframe" d="M76.5-29.3C75.2-45.6 63.9-56.7 44.8-56.7C25.7-56.7 14.5-44.8 13.3-28.6C12.7-19.1 16.2-10.7 23.2-5.9C27.9-2.7 34.4-0.9 45-0.9C55.7-0.9 61.8-3.2 66.6-6.3C74.2-11.8 77.2-20.1 76.5-29.3Z"/>
   <path class="monochrome-2 multicolor-2:systemYellowColor hierarchical-2:primary SFSymbolsPreviewWireframe" d="M38.6-45.1C39.3-44.5 40.8-44.6 41.6-45.5C42.6-46.7 43.7-50.7 43-56.7C40.1-56.6 37.3-56.2 34.7-55.4C36.9-52.1 37.4-46.2 38.6-45.1ZM51-45.1C50.3-44.5 48.8-44.6 48-45.5C47-46.7 45.9-50.7 46.6-56.7C49.5-56.6 52.3-56.2 54.9-55.4C52.8-52.1 52.4-46.2 51-45.1Z"/>
   <path class="monochrome-3 multicolor-3:black hierarchical-3:primary SFSymbolsPreviewWireframe" d="M65-31.8C64.8-28.4 62.7-26.5 60.2-26.5C57.8-26.5 55.8-28.9 55.8-31.9C55.8-34.9 57.9-37.3 60.6-37.2C63.7-37 65.2-34.6 65-31.8ZM33.6-32.1C34-28.6 32.6-26.4 30.2-25.9C27.8-25.4 25.7-27.1 25-30C24.4-33 25.5-35.8 28.3-36.3C31.6-36.9 33.3-35 33.6-32.1ZM33.1-20C31.4-18.9 33.4-16.6 34.5-15.8C35.6-15 37.7-14 40.6-14.3C44-14.6 45-17.2 45-17.2C45-17.2 46.3-14.3 50.5-14.2C54.8-14.1 56.2-16.5 56.8-17.1C57.4-17.8 58-19.6 57-20.4C56-21.1 55.2-20.2 54.2-18.7C53.1-17.3 50.9-16.4 48.9-17.4C46.8-18.4 46.6-21.8 46.6-21.8L43.5-21.5C43.5-21.5 43.1-18.6 41.7-17.7C40.4-16.8 37.1-16.5 35.8-18.6C35.2-19.6 34.4-20.9 33.1-20Z"/>
   <path class="monochrome-4 multicolor-4:black hierarchical-4:secondary SFSymbolsPreviewWireframe" d="M39.7-24.8C39.7-26.7 42.5-27.7 45-27.7C47.7-27.7 50.4-26.9 50.4-24.9C50.4-23 47.1-20.5 45.1-20.5C43.1-20.3 39.7-22.7 39.7-24.8Z"/>
   <path class="monochrome-5 multicolor-5:systemGrayColor hierarchical-5:secondary SFSymbolsPreviewWireframe" d="M82.5-23.7C82.3-23.5 82.2-23.4 81.9-23.4C81.9-23.4 79.1-23.4 76.6-23.2C74.2-23 71.8-22.5 71.8-22.4C71.4-22.3 70.9-22.6 70.8-23C70.7-23.4 71-23.9 71.4-24.1C71.5-24.1 73.9-24.7 76.6-24.9C79.3-25.1 81.9-25.1 81.9-25.1C82.3-25.1 82.7-24.8 82.7-24.2C82.7-24 82.7-23.8 82.5-23.7ZM82.1-30.5C82-30.3 81.8-30.2 81.6-30.1C81.6-30.1 78.9-29.5 76.5-28.7C74.2-27.9 72-26.8 72-26.8C71.6-26.5 71.1-26.7 70.8-27.1C70.6-27.5 70.8-28.1 71.1-28.3C71.2-28.4 73.4-29.6 75.9-30.3C78.3-31.1 81-31.7 81.1-31.7C81.5-31.8 82-31.5 82.1-31.1C82.2-30.8 82.2-30.7 82.1-30.5ZM81.8-16.1C81.6-16 81.4-16 81.1-16C81.1-16 78.6-16.9 76.1-17.5C73.8-18.1 71.3-18.3 71.3-18.3C70.9-18.3 70.5-18.7 70.5-19.2C70.5-19.6 70.9-20 71.5-20C71.6-20 74-19.8 76.7-19.2C79.2-18.6 81.8-17.7 81.9-17.7C82.3-17.5 82.6-17.1 82.4-16.6C82.2-16.3 82.1-16.2 81.8-16.1L81.8-16.1ZM6.3-21.8C6.5-21.6 6.6-21.5 6.9-21.5C6.9-21.5 9.7-21.5 12.2-21.3C14.6-21.1 17-20.6 17-20.5C17.4-20.4 17.9-20.7 18-21.1C18.1-21.5 17.8-22 17.4-22.2C17.3-22.2 14.9-22.8 12.2-23C9.5-23.2 6.9-23.2 6.9-23.2C6.5-23.2 6.1-22.9 6.1-22.3C6.1-22.2 6.1-22 6.3-21.8ZM6.7-28.6C6.8-28.4 7-28.3 7.2-28.2C7.2-28.2 9.9-27.6 12.3-26.8C14.6-26 16.8-24.9 16.8-24.9C17.2-24.6 17.7-24.8 18-25.2C18.2-25.6 18-26.2 17.7-26.4C17.6-26.5 15.4-27.7 12.9-28.4C10.5-29.2 7.8-29.8 7.7-29.8C7.3-29.9 6.8-29.6 6.7-29.2C6.6-29 6.6-28.8 6.7-28.6ZM7-14.2C7.2-14.1 7.4-14.1 7.7-14.1C7.7-14.1 10.2-15 12.7-15.6C15-16.2 17.5-16.4 17.5-16.4C17.9-16.4 18.3-16.8 18.3-17.3C18.3-17.7 17.9-18.1 17.3-18.1C17.2-18.1 14.8-17.9 12.1-17.3C9.6-16.7 7-15.8 6.9-15.8C6.5-15.6 6.2-15.2 6.4-14.7C6.6-14.5 6.7-14.3 7-14.2Z"/>
   <path class="monochrome-6 multicolor-6:custom hierarchical-6:tertiary SFSymbolsPreviewWireframe" d="M27.6-51.9C28.6-52.7 29-53.6 27.9-55.2C26.2-57.7 23.3-60.7 22.2-61.6C20.3-63 18.9-63.6 18.4-61.2C17.4-56.8 17.4-50.8 18.6-47.5C18.9-46.3 20.3-45.7 21.1-46.5C21.1-46.4 27.6-51.9 27.6-51.9ZM65.8-49.3C67.3-47.8 68.6-46.8 69.4-45.8C70-45.2 71.2-45.5 71.3-46.3C72.8-53.6 72.4-59.9 71.3-61.6C70.8-62.4 69.9-62.6 69-62.3C67.5-61.8 63.6-58.9 60.8-54.7C60.5-54.3 60.6-53.5 61.1-53.3C62.2-52.5 63.9-51.3 65.8-49.3Z"/>
  </g>
 </g>
</svg>
