<?xml version="1.0" encoding="UTF-8"?>
<!--Generator: Apple Native CoreSVG 341-->
<!DOCTYPE svg
PUBLIC "-//W3C//DTD SVG 1.1//EN"
       "http://www.w3.org/Graphics/SVG/1.1/DTD/svg11.dtd">
<svg version="1.1" xmlns="http://www.w3.org/2000/svg" xmlns:xlink="http://www.w3.org/1999/xlink" viewBox="0 0 3300 2200">
 <!--glyph: "", point size: 100.0, font version: "20.0d10e1", template writer version: "138.0.0"-->
 <style>.monochrome-0 {-sfsymbols-motion-group:5;-sfsymbols-layer-tags:-265d57584a9b4254}
.monochrome-1 {opacity:0.0;-sfsymbols-clear-behind:true;-sfsymbols-motion-group:5;-sfsymbols-layer-tags:-265d57584a9b4254}
.monochrome-2 {opacity:0.0;-sfsymbols-clear-behind:true;-sfsymbols-motion-group:5;-sfsymbols-layer-tags:-265d57584a9b4254}
.monochrome-3 {opacity:0.0;-sfsymbols-clear-behind:true;-sfsymbols-motion-group:5;-sfsymbols-layer-tags:-265d57584a9b4254}
.monochrome-4 {opacity:0.0;-sfsymbols-clear-behind:true;-sfsymbols-motion-group:5;-sfsymbols-layer-tags:-265d57584a9b4254}
.monochrome-5 {opacity:0.0;-sfsymbols-clear-behind:true;-sfsymbols-motion-group:5;-sfsymbols-layer-tags:-265d57584a9b4254}
.monochrome-6 {opacity:0.0;-sfsymbols-clear-behind:true;-sfsymbols-motion-group:5;-sfsymbols-layer-tags:-265d57584a9b4254}
.monochrome-7 {opacity:0.0;-sfsymbols-clear-behind:true;-sfsymbols-motion-group:5;-sfsymbols-layer-tags:-265d57584a9b4254}
.monochrome-8 {opacity:0.0;-sfsymbols-clear-behind:true;-sfsymbols-motion-group:4;-sfsymbols-layer-tags:-265d57584a9b4254}
.monochrome-9 {-sfsymbols-motion-group:3;-sfsymbols-layer-tags:-265d57584a9b4254}
.monochrome-10 {-sfsymbols-motion-group:2;-sfsymbols-layer-tags:-265d57584a9b4254}
.monochrome-11 {-sfsymbols-motion-group:1;-sfsymbols-layer-tags:-265d57584a9b4254}
.monochrome-12 {-sfsymbols-motion-group:1;-sfsymbols-layer-tags:-265d57584a9b4254}
.monochrome-13 {opacity:0.0;-sfsymbols-clear-behind:true;-sfsymbols-motion-group:0;-sfsymbols-layer-tags:-265d57584a9b4254}
.monochrome-14 {opacity:0.0;-sfsymbols-clear-behind:true;-sfsymbols-motion-group:0;-sfsymbols-layer-tags:-265d57584a9b4254}
.monochrome-15 {opacity:0.0;-sfsymbols-clear-behind:true;-sfsymbols-motion-group:0;-sfsymbols-layer-tags:-265d57584a9b4254}
.monochrome-16 {opacity:0.0;-sfsymbols-clear-behind:true;-sfsymbols-motion-group:0;-sfsymbols-layer-tags:-265d57584a9b4254}
.monochrome-17 {opacity:0.0;-sfsymbols-clear-behind:true;-sfsymbols-motion-group:0;-sfsymbols-layer-tags:-265d57584a9b4254}

.multicolor-0:systemCyanColor {-sfsymbols-motion-group:5;-sfsymbols-layer-tags:-265d57584a9b4254}
.multicolor-1:systemBlueColor {opacity:0.5;-sfsymbols-clear-behind:true;-sfsymbols-motion-group:5;-sfsymbols-layer-tags:-265d57584a9b4254}
.multicolor-2:systemBlueColor {opacity:0.5;-sfsymbols-clear-behind:true;-sfsymbols-motion-group:5;-sfsymbols-layer-tags:-265d57584a9b4254}
.multicolor-3:systemBlueColor {opacity:0.5;-sfsymbols-clear-behind:true;-sfsymbols-motion-group:5;-sfsymbols-layer-tags:-265d57584a9b4254}
.multicolor-4:systemBlueColor {opacity:0.5;-sfsymbols-clear-behind:true;-sfsymbols-motion-group:5;-sfsymbols-layer-tags:-265d57584a9b4254}
.multicolor-5:systemBlueColor {opacity:0.5;-sfsymbols-clear-behind:true;-sfsymbols-motion-group:5;-sfsymbols-layer-tags:-265d57584a9b4254}
.multicolor-6:systemBlueColor {opacity:0.5;-sfsymbols-clear-behind:true;-sfsymbols-motion-group:5;-sfsymbols-layer-tags:-265d57584a9b4254}
.multicolor-7:systemBlueColor {opacity:0.5;-sfsymbols-clear-behind:true;-sfsymbols-motion-group:5;-sfsymbols-layer-tags:-265d57584a9b4254}
.multicolor-8:custom {fill:#662113;-sfsymbols-clear-behind:true;-sfsymbols-motion-group:4;-sfsymbols-layer-tags:-265d57584a9b4254}
.multicolor-9:custom {fill:#C1694F;-sfsymbols-clear-behind:true;-sfsymbols-motion-group:3;-sfsymbols-layer-tags:-265d57584a9b4254}
.multicolor-10:custom {fill:#FFE8B6;-sfsymbols-clear-behind:true;-sfsymbols-motion-group:2;-sfsymbols-layer-tags:-265d57584a9b4254}
.multicolor-11:custom {fill:#FFCC4D;-sfsymbols-motion-group:1;-sfsymbols-layer-tags:-265d57584a9b4254}
.multicolor-12:custom {fill:#FFCC4D;-sfsymbols-motion-group:1;-sfsymbols-layer-tags:-265d57584a9b4254}
.multicolor-13:systemIndigoColor {-sfsymbols-clear-behind:true;-sfsymbols-motion-group:0;-sfsymbols-layer-tags:-265d57584a9b4254}
.multicolor-14:systemOrangeColor {-sfsymbols-clear-behind:true;-sfsymbols-motion-group:0;-sfsymbols-layer-tags:-265d57584a9b4254}
.multicolor-15:systemGreenColor {-sfsymbols-clear-behind:true;-sfsymbols-motion-group:0;-sfsymbols-layer-tags:-265d57584a9b4254}
.multicolor-16:systemBlueColor {-sfsymbols-clear-behind:true;-sfsymbols-motion-group:0;-sfsymbols-layer-tags:-265d57584a9b4254}
.multicolor-17:systemPinkColor {-sfsymbols-clear-behind:true;-sfsymbols-motion-group:0;-sfsymbols-layer-tags:-265d57584a9b4254}

.hierarchical-0:primary {-sfsymbols-motion-group:5;-sfsymbols-layer-tags:-265d57584a9b4254}
.hierarchical-1:secondary {-sfsymbols-clear-behind:true;-sfsymbols-motion-group:5;-sfsymbols-layer-tags:-265d57584a9b4254}
.hierarchical-2:secondary {-sfsymbols-clear-behind:true;-sfsymbols-motion-group:5;-sfsymbols-layer-tags:-265d57584a9b4254}
.hierarchical-3:secondary {-sfsymbols-clear-behind:true;-sfsymbols-motion-group:5;-sfsymbols-layer-tags:-265d57584a9b4254}
.hierarchical-4:secondary {-sfsymbols-clear-behind:true;-sfsymbols-motion-group:5;-sfsymbols-layer-tags:-265d57584a9b4254}
.hierarchical-5:secondary {-sfsymbols-clear-behind:true;-sfsymbols-motion-group:5;-sfsymbols-layer-tags:-265d57584a9b4254}
.hierarchical-6:secondary {-sfsymbols-clear-behind:true;-sfsymbols-motion-group:5;-sfsymbols-layer-tags:-265d57584a9b4254}
.hierarchical-7:secondary {-sfsymbols-clear-behind:true;-sfsymbols-motion-group:5;-sfsymbols-layer-tags:-265d57584a9b4254}
.hierarchical-8:secondary {-sfsymbols-clear-behind:true;-sfsymbols-motion-group:4;-sfsymbols-layer-tags:-265d57584a9b4254}
.hierarchical-9:tertiary {-sfsymbols-clear-behind:true;-sfsymbols-motion-group:3;-sfsymbols-layer-tags:-265d57584a9b4254}
.hierarchical-10:primary {-sfsymbols-clear-behind:true;-sfsymbols-motion-group:2;-sfsymbols-layer-tags:-265d57584a9b4254}
.hierarchical-11:primary {-sfsymbols-motion-group:1;-sfsymbols-layer-tags:-265d57584a9b4254}
.hierarchical-12:primary {-sfsymbols-motion-group:1;-sfsymbols-layer-tags:-265d57584a9b4254}
.hierarchical-13:secondary {-sfsymbols-clear-behind:true;-sfsymbols-motion-group:0;-sfsymbols-layer-tags:-265d57584a9b4254}
.hierarchical-14:secondary {-sfsymbols-clear-behind:true;-sfsymbols-motion-group:0;-sfsymbols-layer-tags:-265d57584a9b4254}
.hierarchical-15:secondary {-sfsymbols-clear-behind:true;-sfsymbols-motion-group:0;-sfsymbols-layer-tags:-265d57584a9b4254}
.hierarchical-16:secondary {-sfsymbols-clear-behind:true;-sfsymbols-motion-group:0;-sfsymbols-layer-tags:-265d57584a9b4254}
.hierarchical-17:secondary {-sfsymbols-clear-behind:true;-sfsymbols-motion-group:0;-sfsymbols-layer-tags:-265d57584a9b4254}

.SFSymbolsPreviewWireframe {fill:none;opacity:1.0;stroke:black;stroke-width:0.5}
</style>
 <g id="Notes">
  <rect height="2200" id="artboard" style="fill:white;opacity:1" width="3300" x="0" y="0"/>
  <line style="fill:none;stroke:black;opacity:1;stroke-width:0.5;" x1="263" x2="3036" y1="292" y2="292"/>
  <text style="stroke:none;fill:black;font-family:sans-serif;font-size:13;font-weight:bold;" transform="matrix(1 0 0 1 263 322)">Weight/Scale Variations</text>
  <text style="stroke:none;fill:black;font-family:sans-serif;font-size:13;text-anchor:middle;" transform="matrix(1 0 0 1 559.711 322)">Ultralight</text>
  <text style="stroke:none;fill:black;font-family:sans-serif;font-size:13;text-anchor:middle;" transform="matrix(1 0 0 1 856.422 322)">Thin</text>
  <text style="stroke:none;fill:black;font-family:sans-serif;font-size:13;text-anchor:middle;" transform="matrix(1 0 0 1 1153.13 322)">Light</text>
  <text style="stroke:none;fill:black;font-family:sans-serif;font-size:13;text-anchor:middle;" transform="matrix(1 0 0 1 1449.84 322)">Regular</text>
  <text style="stroke:none;fill:black;font-family:sans-serif;font-size:13;text-anchor:middle;" transform="matrix(1 0 0 1 1746.56 322)">Medium</text>
  <text style="stroke:none;fill:black;font-family:sans-serif;font-size:13;text-anchor:middle;" transform="matrix(1 0 0 1 2043.27 322)">Semibold</text>
  <text style="stroke:none;fill:black;font-family:sans-serif;font-size:13;text-anchor:middle;" transform="matrix(1 0 0 1 2339.98 322)">Bold</text>
  <text style="stroke:none;fill:black;font-family:sans-serif;font-size:13;text-anchor:middle;" transform="matrix(1 0 0 1 2636.69 322)">Heavy</text>
  <text style="stroke:none;fill:black;font-family:sans-serif;font-size:13;text-anchor:middle;" transform="matrix(1 0 0 1 2933.4 322)">Black</text>
  <line style="fill:none;stroke:black;opacity:1;stroke-width:0.5;" x1="263" x2="3036" y1="1903" y2="1903"/>
  <g transform="matrix(0.2 0 0 0.2 263 1933)">
   <path d="m46.2402 4.15039c21.7773 0 39.4531-17.627 39.4531-39.4043s-17.6758-39.4043-39.4531-39.4043c-21.7285 0-39.4043 17.627-39.4043 39.4043s17.6758 39.4043 39.4043 39.4043Zm0-7.42188c-17.6758 0-31.9336-14.3066-31.9336-31.9824s14.2578-31.9824 31.9336-31.9824 31.9824 14.3066 31.9824 31.9824-14.3066 31.9824-31.9824 31.9824Zm-17.9688-31.9824c0 2.14844 1.51367 3.61328 3.75977 3.61328h10.498v10.5957c0 2.19727 1.46484 3.71094 3.61328 3.71094 2.24609 0 3.71094-1.51367 3.71094-3.71094v-10.5957h10.5957c2.19727 0 3.71094-1.46484 3.71094-3.61328 0-2.19727-1.51367-3.71094-3.71094-3.71094h-10.5957v-10.5469c0-2.24609-1.46484-3.75977-3.71094-3.75977-2.14844 0-3.61328 1.51367-3.61328 3.75977v10.5469h-10.498c-2.24609 0-3.75977 1.51367-3.75977 3.71094Z"/>
  </g>
  <g transform="matrix(0.2 0 0 0.2 281.506 1933)">
   <path d="m58.5449 14.5508c27.4902 0 49.8047-22.3145 49.8047-49.8047s-22.3145-49.8047-49.8047-49.8047-49.8047 22.3145-49.8047 49.8047 22.3145 49.8047 49.8047 49.8047Zm0-8.30078c-22.9492 0-41.5039-18.5547-41.5039-41.5039s18.5547-41.5039 41.5039-41.5039 41.5039 18.5547 41.5039 41.5039-18.5547 41.5039-41.5039 41.5039Zm-22.6562-41.5039c0 2.39258 1.66016 4.00391 4.15039 4.00391h14.3555v14.4043c0 2.44141 1.66016 4.15039 4.05273 4.15039 2.44141 0 4.15039-1.66016 4.15039-4.15039v-14.4043h14.4043c2.44141 0 4.15039-1.61133 4.15039-4.00391 0-2.44141-1.70898-4.15039-4.15039-4.15039h-14.4043v-14.3555c0-2.49023-1.70898-4.19922-4.15039-4.19922-2.39258 0-4.05273 1.70898-4.05273 4.19922v14.3555h-14.3555c-2.49023 0-4.15039 1.70898-4.15039 4.15039Z"/>
  </g>
  <g transform="matrix(0.2 0 0 0.2 304.924 1933)">
   <path d="m74.8535 28.3203c35.1074 0 63.623-28.4668 63.623-63.5742s-28.5156-63.623-63.623-63.623-63.5742 28.5156-63.5742 63.623 28.4668 63.5742 63.5742 63.5742Zm0-9.08203c-30.127 0-54.4922-24.3652-54.4922-54.4922s24.3652-54.4922 54.4922-54.4922 54.4922 24.3652 54.4922 54.4922-24.3652 54.4922-54.4922 54.4922Zm-28.8574-54.4922c0 2.58789 1.85547 4.39453 4.58984 4.39453h19.7266v19.7754c0 2.68555 1.85547 4.58984 4.44336 4.58984 2.68555 0 4.54102-1.85547 4.54102-4.58984v-19.7754h19.7754c2.68555 0 4.58984-1.80664 4.58984-4.39453 0-2.73438-1.85547-4.58984-4.58984-4.58984h-19.7754v-19.7266c0-2.73438-1.85547-4.63867-4.54102-4.63867-2.58789 0-4.44336 1.9043-4.44336 4.63867v19.7266h-19.7266c-2.73438 0-4.58984 1.85547-4.58984 4.58984Z"/>
  </g>
  <text style="stroke:none;fill:black;font-family:sans-serif;font-size:13;font-weight:bold;" transform="matrix(1 0 0 1 263 1953)">Design Variations</text>
  <text style="stroke:none;fill:black;font-family:sans-serif;font-size:13;" transform="matrix(1 0 0 1 263 1971)">Symbols are supported in up to nine weights and three scales.</text>
  <text style="stroke:none;fill:black;font-family:sans-serif;font-size:13;" transform="matrix(1 0 0 1 263 1989)">For optimal layout with text and other symbols, vertically align</text>
  <text style="stroke:none;fill:black;font-family:sans-serif;font-size:13;" transform="matrix(1 0 0 1 263 2007)">symbols with the adjacent text.</text>
  <line style="fill:none;stroke:#00AEEF;stroke-width:0.5;opacity:1.0;" x1="776" x2="776" y1="1919" y2="1933"/>
  <g transform="matrix(0.2 0 0 0.2 776 1933)">
   <path d="m16.5527 0.78125c2.58789 0 3.85742-0.976562 4.78516-3.71094l6.29883-17.2363h28.8086l6.29883 17.2363c0.927734 2.73438 2.19727 3.71094 4.73633 3.71094 2.58789 0 4.24805-1.5625 4.24805-4.00391 0-0.830078-0.146484-1.61133-0.537109-2.63672l-22.9004-60.9863c-1.12305-2.97852-3.125-4.49219-6.25-4.49219-3.02734 0-5.07812 1.46484-6.15234 4.44336l-22.9004 61.084c-0.390625 1.02539-0.537109 1.80664-0.537109 2.63672 0 2.44141 1.5625 3.95508 4.10156 3.95508Zm13.4766-28.3691 11.8652-32.8613h0.244141l11.8652 32.8613Z"/>
  </g>
  <line style="fill:none;stroke:#00AEEF;stroke-width:0.5;opacity:1.0;" x1="792.836" x2="792.836" y1="1919" y2="1933"/>
  <text style="stroke:none;fill:black;font-family:sans-serif;font-size:13;font-weight:bold;" transform="matrix(1 0 0 1 776 1953)">Margins</text>
  <text style="stroke:none;fill:black;font-family:sans-serif;font-size:13;" transform="matrix(1 0 0 1 776 1971)">Leading and trailing margins on the left and right side of each symbol</text>
  <text style="stroke:none;fill:black;font-family:sans-serif;font-size:13;" transform="matrix(1 0 0 1 776 1989)">can be adjusted by modifying the x-location of the margin guidelines.</text>
  <text style="stroke:none;fill:black;font-family:sans-serif;font-size:13;" transform="matrix(1 0 0 1 776 2007)">Modifications are automatically applied proportionally to all</text>
  <text style="stroke:none;fill:black;font-family:sans-serif;font-size:13;" transform="matrix(1 0 0 1 776 2025)">scales and weights.</text>
  <g transform="matrix(0.2 0 0 0.2 1289 1933)">
   <path d="m14.209 9.32617 8.49609 8.54492c4.29688 4.3457 9.22852 4.05273 13.8672-1.07422l53.4668-58.9355-4.83398-4.88281-53.0762 58.3984c-1.75781 2.00195-3.41797 2.49023-5.76172 0.146484l-5.85938-5.81055c-2.34375-2.29492-1.80664-4.00391 0.195312-5.81055l57.373-54.0039-4.88281-4.83398-57.959 54.4434c-4.93164 4.58984-5.32227 9.47266-1.02539 13.8184Zm32.0801-90.9668c-2.09961 2.05078-2.24609 4.93164-1.07422 6.88477 1.17188 1.80664 3.4668 2.97852 6.68945 2.14844 7.32422-1.70898 14.9414-2.00195 22.0703 2.68555l-2.92969 7.27539c-1.70898 4.15039-0.830078 7.08008 1.85547 9.81445l11.4746 11.5723c2.44141 2.44141 4.49219 2.53906 7.32422 2.05078l5.32227-0.976562 3.32031 3.36914-0.195312 2.7832c-0.195312 2.49023 0.439453 4.39453 2.88086 6.78711l3.80859 3.71094c2.39258 2.39258 5.46875 2.53906 7.8125 0.195312l14.5508-14.5996c2.34375-2.34375 2.24609-5.32227-0.146484-7.71484l-3.85742-3.80859c-2.39258-2.39258-4.24805-3.17383-6.64062-2.97852l-2.88086 0.244141-3.22266-3.17383 1.2207-5.61523c0.634766-2.83203-0.146484-5.0293-3.07617-7.95898l-10.9863-10.9375c-16.6992-16.6016-38.8672-16.2109-53.3203-1.75781Zm7.4707 1.85547c12.1582-8.88672 28.6133-7.37305 39.7461 3.75977l12.1582 12.0605c1.17188 1.17188 1.36719 2.09961 1.02539 3.80859l-1.61133 7.42188 7.51953 7.42188 4.93164-0.292969c1.26953-0.0488281 1.66016 0.0488281 2.63672 1.02539l2.88086 2.88086-12.207 12.207-2.88086-2.88086c-0.976562-0.976562-1.12305-1.36719-1.07422-2.68555l0.341797-4.88281-7.4707-7.42188-7.61719 1.26953c-1.61133 0.341797-2.34375 0.195312-3.56445-0.976562l-10.0098-10.0098c-1.26953-1.17188-1.41602-2.00195-0.634766-3.85742l4.39453-10.4492c-7.8125-7.27539-17.9688-10.4004-28.125-7.42188-0.78125 0.195312-1.07422-0.439453-0.439453-0.976562Z"/>
  </g>
  <text style="stroke:none;fill:black;font-family:sans-serif;font-size:13;font-weight:bold;" transform="matrix(1 0 0 1 1289 1953)">Exporting</text>
  <text style="stroke:none;fill:black;font-family:sans-serif;font-size:13;" transform="matrix(1 0 0 1 1289 1971)">Symbols should be outlined when exporting to ensure the</text>
  <text style="stroke:none;fill:black;font-family:sans-serif;font-size:13;" transform="matrix(1 0 0 1 1289 1989)">design is preserved when submitting to Xcode.</text>
  <text id="template-version" style="stroke:none;fill:black;font-family:sans-serif;font-size:13;text-anchor:end;" transform="matrix(1 0 0 1 3036 1933)">Template v.6.0</text>
  <text style="stroke:none;fill:black;font-family:sans-serif;font-size:13;text-anchor:end;" transform="matrix(1 0 0 1 3036 1951)">Requires Xcode 16 or greater</text>
  <text id="descriptive-name" style="stroke:none;fill:black;font-family:sans-serif;font-size:13;text-anchor:end;" transform="matrix(1 0 0 1 3036 1969)">Generated from cupcake</text>
  <text style="stroke:none;fill:black;font-family:sans-serif;font-size:13;text-anchor:end;" transform="matrix(1 0 0 1 3036 1987)">Typeset at 100.0 points</text>
  <text style="stroke:none;fill:black;font-family:sans-serif;font-size:13;" transform="matrix(1 0 0 1 263 726)">Small</text>
  <text style="stroke:none;fill:black;font-family:sans-serif;font-size:13;" transform="matrix(1 0 0 1 263 1156)">Medium</text>
  <text style="stroke:none;fill:black;font-family:sans-serif;font-size:13;" transform="matrix(1 0 0 1 263 1586)">Large</text>
 </g>
 <g id="Guides">
  <g id="H-reference" style="fill:#27AAE1;stroke:none;" transform="matrix(1 0 0 1 339 696)">
   <path d="M0.993654 0L3.63775 0L29.3281-67.1323L30.0303-67.1323L30.0303-70.459L28.1226-70.459ZM11.6885-24.4799L46.9815-24.4799L46.2315-26.7285L12.4385-26.7285ZM55.1196 0L57.7637 0L30.6382-70.459L29.4326-70.459L29.4326-67.1323Z"/>
  </g>
  <line id="Baseline-S" style="fill:none;stroke:#27AAE1;opacity:1;stroke-width:0.5;" x1="263" x2="3036" y1="696" y2="696"/>
  <line id="Capline-S" style="fill:none;stroke:#27AAE1;opacity:1;stroke-width:0.5;" x1="263" x2="3036" y1="625.541" y2="625.541"/>
  <g id="H-reference" style="fill:#27AAE1;stroke:none;" transform="matrix(1 0 0 1 339 1126)">
   <path d="M0.993654 0L3.63775 0L29.3281-67.1323L30.0303-67.1323L30.0303-70.459L28.1226-70.459ZM11.6885-24.4799L46.9815-24.4799L46.2315-26.7285L12.4385-26.7285ZM55.1196 0L57.7637 0L30.6382-70.459L29.4326-70.459L29.4326-67.1323Z"/>
  </g>
  <line id="Baseline-M" style="fill:none;stroke:#27AAE1;opacity:1;stroke-width:0.5;" x1="263" x2="3036" y1="1126" y2="1126"/>
  <line id="Capline-M" style="fill:none;stroke:#27AAE1;opacity:1;stroke-width:0.5;" x1="263" x2="3036" y1="1055.54" y2="1055.54"/>
  <g id="H-reference" style="fill:#27AAE1;stroke:none;" transform="matrix(1 0 0 1 339 1556)">
   <path d="M0.993654 0L3.63775 0L29.3281-67.1323L30.0303-67.1323L30.0303-70.459L28.1226-70.459ZM11.6885-24.4799L46.9815-24.4799L46.2315-26.7285L12.4385-26.7285ZM55.1196 0L57.7637 0L30.6382-70.459L29.4326-70.459L29.4326-67.1323Z"/>
  </g>
  <line id="Baseline-L" style="fill:none;stroke:#27AAE1;opacity:1;stroke-width:0.5;" x1="263" x2="3036" y1="1556" y2="1556"/>
  <line id="Capline-L" style="fill:none;stroke:#27AAE1;opacity:1;stroke-width:0.5;" x1="263" x2="3036" y1="1485.54" y2="1485.54"/>
  <line id="right-margin-Black-S" style="fill:none;stroke:#00AEEF;stroke-width:0.5;opacity:1.0;" x1="2982.2" x2="2982.2" y1="600.785" y2="720.121"/>
  <line id="left-margin-Black-S" style="fill:none;stroke:#00AEEF;stroke-width:0.5;opacity:1.0;" x1="2884.6" x2="2884.6" y1="600.785" y2="720.121"/>
  <line id="right-margin-Regular-S" style="fill:none;stroke:#00AEEF;stroke-width:0.5;opacity:1.0;" x1="1496.09" x2="1496.09" y1="600.785" y2="720.121"/>
  <line id="left-margin-Regular-S" style="fill:none;stroke:#00AEEF;stroke-width:0.5;opacity:1.0;" x1="1403.59" x2="1403.59" y1="600.785" y2="720.121"/>
  <line id="right-margin-Ultralight-S" style="fill:none;stroke:#00AEEF;stroke-width:0.5;opacity:1.0;" x1="603.811" x2="603.811" y1="600.785" y2="720.121"/>
  <line id="left-margin-Ultralight-S" style="fill:none;stroke:#00AEEF;stroke-width:0.5;opacity:1.0;" x1="515.611" x2="515.611" y1="600.785" y2="720.121"/>
 </g>
 <g id="Symbols">
  <g id="Black-S" transform="matrix(1 0 0 1 2884.6 696)">
   <path class="monochrome-0 multicolor-0:systemCyanColor hierarchical-0:primary SFSymbolsPreviewWireframe" d="M19.8-25.9C19.8-25.9 23.3-13.1 24.2-7C25.2-0.1 32.2 5.4 48.7 5.4C65.2 5.4 72.2-0.1 73.2-7C74.1-13.1 77.6-25.9 77.6-25.9L19.8-25.9L19.8-25.9Z"/>
   <path class="monochrome-1 multicolor-1:systemBlueColor hierarchical-1:secondary SFSymbolsPreviewWireframe" d="M70-2.9C69.5-2.9 69.2-3.3 69.2-3.7C69.2-3.8 69.2-3.8 69.2-3.9L72.4-20.5C72.5-21 72.9-21.3 73.4-21.2C73.9-21.1 74.2-20.7 74.1-20.2L74.1-20.2L70.9-3.6C70.8-3.2 70.4-2.9 70-2.9Z"/>
   <path class="monochrome-2 multicolor-2:systemBlueColor hierarchical-2:secondary SFSymbolsPreviewWireframe" d="M63.5 1.4C62.9 1.4 62.4 0.9 62.4 0.3C62.4 0.2 62.4 0.2 62.4 0.1L64.9-17.4C65-18 65.6-18.4 66.2-18.3C66.8-18.2 67.2-17.7 67.1-17L67.1-17L64.6 0.5C64.5 1 64 1.4 63.5 1.4L63.5 1.4Z"/>
   <path class="monochrome-3 multicolor-3:systemBlueColor hierarchical-3:secondary SFSymbolsPreviewWireframe" d="M56.7 3.8L56.7 3.8C56 3.7 55.5 3.2 55.6 2.6L57.2-16.4C57.2-17 57.8-17.5 58.4-17.4C59-17.4 59.5-16.8 59.4-16.2L57.8 2.8C57.8 3.3 57.3 3.8 56.7 3.8Z"/>
   <path class="monochrome-4 multicolor-4:systemBlueColor hierarchical-4:secondary SFSymbolsPreviewWireframe" d="M48.7 4.4C48.1 4.4 47.6 3.9 47.6 3.3L47.6-15.9C47.6-16.5 48.1-17 48.7-17C49.3-17 49.8-16.5 49.8-15.9L49.8 3.3C49.8 3.9 49.3 4.4 48.7 4.4Z"/>
   <path class="monochrome-5 multicolor-5:systemBlueColor hierarchical-5:secondary SFSymbolsPreviewWireframe" d="M40.9 3.8C40.3 3.8 39.8 3.4 39.8 2.8L38.2-16.2C38.2-16.8 38.6-17.4 39.2-17.4C39.8-17.4 40.4-17 40.4-16.4L42 2.6C42 3.2 41.6 3.7 40.9 3.8L40.9 3.8Z"/>
   <path class="monochrome-6 multicolor-6:systemBlueColor hierarchical-6:secondary SFSymbolsPreviewWireframe" d="M33.8 1.6C33.2 1.6 32.8 1.2 32.7 0.6L30.4-17.2C30.3-17.8 30.8-18.4 31.4-18.4C32-18.4 32.6-18.1 32.6-17.5C32.6-17.5 32.6-17.5 32.6-17.5L34.9 0.3C35 0.9 34.5 1.5 33.9 1.5C33.9 1.6 33.9 1.6 33.8 1.6L33.8 1.6Z"/>
   <path class="monochrome-7 multicolor-7:systemBlueColor hierarchical-7:secondary SFSymbolsPreviewWireframe" d="M27.6-3C27.2-3 26.9-3.3 26.8-3.7L23.5-20.3C23.4-20.7 23.7-21.2 24.1-21.3L24.1-21.3C24.5-21.4 25-21.1 25.1-20.6L28.4-4C28.5-3.6 28.2-3.1 27.8-3C27.7-3 27.7-3 27.6-3Z"/>
   <path class="monochrome-8 multicolor-8:custom hierarchical-8:secondary SFSymbolsPreviewWireframe" d="M20-25.7C20.6-23 21.5-21.3 23-22.1C24.5-22.9 26.7-22.5 26-20.7C25.4-19 28.2-18.3 29.3-19.2C30.4-20.1 32.8-21.2 33-19.1C33.2-17.2 35.6-16.6 36.7-18.1C37.8-19.6 40.9-19 41.4-17.2C42-15.4 45-15.7 45.8-16.9C46.6-18.1 47.4-18.9 48.7-18.9L48.7-18.9C50-18.9 50.8-18.1 51.6-16.9C52.4-15.7 55.4-15.4 56-17.2C56.6-19 59.6-19.6 60.7-18.1C61.8-16.7 64.2-17.2 64.4-19.1C64.6-21.2 67-20.2 68.1-19.2C69.3-18.2 72.1-19 71.4-20.7C70.7-22.5 72.9-23 74.4-22.1C75.9-21.2 76.8-22.9 77.4-25.7L20-25.7L20-25.7Z"/>
   <path class="monochrome-9 multicolor-9:custom hierarchical-9:tertiary SFSymbolsPreviewWireframe" d="M82.1-32.4C82.1-43.4 67.1-52.2 48.6-52.2C30.1-52.2 15.1-43.3 15.1-32.4C15.1-23.6 35.1-19 48.6-19C62.1-18.9 82.1-23.4 82.1-32.4Z"/>
   <path class="monochrome-10 multicolor-10:custom hierarchical-10:primary SFSymbolsPreviewWireframe" d="M46.3-74.6C46.3-74.6 48.7-72.1 51.1-72C56.1-71.9 60.8-69.1 60.8-64.2C60.8-64.2 72.5-64.2 72.9-53.8C72.9-53.8 78.8-53.7 80.2-43.4C81.2-35.7 73.4-25.1 48.7-25.2C26.9-25.3 15.7-33 17.2-43.4C18.6-53.4 26.9-53.8 26.9-53.8C26.9-53.8 25.5-66.8 41.4-66.8C41.5-66.8 43.1-72 46.3-74.6L46.3-74.6Z"/>
   <path class="monochrome-11 multicolor-11:custom hierarchical-11:primary SFSymbolsPreviewWireframe" d="M73-53.8C73-54.1 72.9-54.4 72.9-54.7C72.6-56.2 71.9-58.1 71.2-59.5C70.8-60.1 70.3-60.6 69.8-61.1C72.3-51.2 57.4-39.4 43.2-36.7C24.7-33.1 17.3-43.5 17.3-43.5C16.5-38.1 19.2-33.5 25-30.2C47.7-20.8 73.2-43.7 73-53.8L73-53.8Z"/>
   <path class="monochrome-12 multicolor-12:custom hierarchical-12:primary SFSymbolsPreviewWireframe" d="M48.5-51.2C55-53.7 61-58.1 60.8-64.2C60.8-66.1 60.1-67.7 58.9-68.9C60.3-62.7 50.8-55.5 40.2-54.4C27-53 28.5-60.8 28.5-60.8L28.5-60.8C26.5-57.4 26.9-53.8 26.9-53.8C28.9-48.5 39.3-47.7 48.5-51.2L48.5-51.2Z"/>
   <path class="monochrome-13 multicolor-13:systemIndigoColor hierarchical-13:secondary SFSymbolsPreviewWireframe" d="M76.3-43.3L74.1-39.4C73.5-38.3 72.1-38 71.1-38.6C70-39.2 69.7-40.6 70.3-41.6L72.5-45.5C73.1-46.6 74.5-46.9 75.5-46.3C76.5-45.7 76.9-44.4 76.3-43.3Z"/>
   <path class="monochrome-14 multicolor-14:systemOrangeColor hierarchical-14:secondary SFSymbolsPreviewWireframe" d="M62.9-49L58.7-47.4C57.5-47 56.3-47.6 55.8-48.7C55.4-49.9 56-51.1 57.1-51.6L61.3-53.2C62.5-53.6 63.7-53 64.2-51.9C64.6-50.7 64.1-49.4 62.9-49L62.9-49Z"/>
   <path class="monochrome-15 multicolor-15:systemGreenColor hierarchical-15:secondary SFSymbolsPreviewWireframe" d="M45.2-43L48.1-39.6C48.9-38.7 48.8-37.3 47.9-36.5C47-35.7 45.6-35.8 44.8-36.7L41.9-40.1C41.1-41 41.2-42.4 42.1-43.2C43-44.1 44.4-44 45.2-43Z"/>
   <path class="monochrome-16 multicolor-16:systemBlueColor hierarchical-16:secondary SFSymbolsPreviewWireframe" d="M41.9-56.4L37.5-57.3C36.3-57.6 35.5-58.7 35.8-59.9C36.1-61.1 37.2-61.9 38.4-61.6L42.8-60.7C44-60.4 44.8-59.3 44.5-58.1C44.3-56.9 43.1-56.1 41.9-56.4L41.9-56.4Z"/>
   <path class="monochrome-17 multicolor-17:systemPinkColor hierarchical-17:secondary SFSymbolsPreviewWireframe" d="M28-43L25.4-39.4C24.7-38.4 23.3-38.2 22.3-38.9C21.3-39.6 21.1-41 21.8-42L24.4-45.6C25.1-46.6 26.5-46.8 27.5-46.1C28.5-45.4 28.7-44 28-43Z"/>
  </g>
  <g id="Regular-S" transform="matrix(1 0 0 1 1403.59 696)">
   <path class="monochrome-0 multicolor-0:systemCyanColor hierarchical-0:primary SFSymbolsPreviewWireframe" d="M17.4-27.1C17.4-27.1 20.9-14.3 21.8-8.2C22.8-1.3 29.8 4.2 46.3 4.2C62.8 4.2 69.8-1.3 70.8-8.2C71.7-14.3 75.2-27.1 75.2-27.1L17.4-27.1L17.4-27.1Z"/>
   <path class="monochrome-1 multicolor-1:systemBlueColor hierarchical-1:secondary SFSymbolsPreviewWireframe" d="M67.6-4.1C67.1-4.1 66.8-4.5 66.8-4.9C66.8-5 66.8-5 66.8-5.1L70-21.7C70.1-22.2 70.5-22.5 71-22.4C71.5-22.3 71.8-21.9 71.7-21.4L71.7-21.4L68.5-4.8C68.3-4.4 68-4.1 67.6-4.1Z"/>
   <path class="monochrome-2 multicolor-2:systemBlueColor hierarchical-2:secondary SFSymbolsPreviewWireframe" d="M61 0.1C60.4 0.1 59.9-0.4 59.9-1C59.9-1.1 59.9-1.1 59.9-1.2L62.4-18.7C62.5-19.3 63.1-19.7 63.7-19.6C64.3-19.5 64.7-19 64.6-18.3L64.6-18.3L62.1-0.8C62.1-0.3 61.6 0.1 61 0.1L61 0.1Z"/>
   <path class="monochrome-3 multicolor-3:systemBlueColor hierarchical-3:secondary SFSymbolsPreviewWireframe" d="M54.3 2.5L54.3 2.5C53.6 2.4 53.1 1.9 53.2 1.3L54.8-17.7C54.8-18.3 55.4-18.8 56-18.7C56.6-18.7 57.1-18.1 57-17.5L55.4 1.5C55.3 2.1 54.9 2.5 54.3 2.5Z"/>
   <path class="monochrome-4 multicolor-4:systemBlueColor hierarchical-4:secondary SFSymbolsPreviewWireframe" d="M46.3 3.2C45.7 3.2 45.2 2.7 45.2 2.1L45.2-17.1C45.2-17.7 45.7-18.2 46.3-18.2C46.9-18.2 47.4-17.7 47.4-17.1L47.4 2.1C47.4 2.7 46.9 3.2 46.3 3.2Z"/>
   <path class="monochrome-5 multicolor-5:systemBlueColor hierarchical-5:secondary SFSymbolsPreviewWireframe" d="M38.5 2.5C37.9 2.5 37.4 2.1 37.4 1.5L35.8-17.5C35.8-18.1 36.2-18.7 36.8-18.7C37.4-18.7 38-18.3 38-17.7L39.6 1.3C39.6 1.9 39.2 2.5 38.5 2.5L38.5 2.5Z"/>
   <path class="monochrome-6 multicolor-6:systemBlueColor hierarchical-6:secondary SFSymbolsPreviewWireframe" d="M31.4 0.4C30.8 0.4 30.4 0 30.3-0.6L28-18.4C27.9-19 28.4-19.6 29-19.6C29.6-19.7 30.2-19.3 30.2-18.7C30.2-18.7 30.2-18.7 30.2-18.7L32.5-0.9C32.6-0.3 32.1 0.3 31.5 0.3C31.5 0.4 31.4 0.4 31.4 0.4L31.4 0.4Z"/>
   <path class="monochrome-7 multicolor-7:systemBlueColor hierarchical-7:secondary SFSymbolsPreviewWireframe" d="M25.2-4.2C24.8-4.2 24.5-4.5 24.4-4.9L21.1-21.5C21-21.9 21.3-22.4 21.7-22.5L21.7-22.5C22.1-22.6 22.6-22.3 22.7-21.8L26-5.2C26.1-4.8 25.8-4.3 25.4-4.2C25.3-4.2 25.3-4.2 25.2-4.2Z"/>
   <path class="monochrome-8 multicolor-8:custom hierarchical-8:secondary SFSymbolsPreviewWireframe" d="M17.6-26.9C18.2-24.2 19.1-22.5 20.6-23.3C22.1-24.1 24.3-23.7 23.6-21.9C23-20.2 25.8-19.5 26.9-20.4C28-21.3 30.4-22.4 30.6-20.3C30.8-18.4 33.2-17.8 34.3-19.3C35.4-20.8 38.5-20.2 39-18.4C39.6-16.6 42.6-16.9 43.4-18.1C44.2-19.3 45-20.1 46.3-20.1L46.3-20.1C47.6-20.1 48.4-19.3 49.2-18.1C50-16.9 53-16.6 53.6-18.4C54.2-20.2 57.2-20.8 58.3-19.3C59.4-17.9 61.8-18.4 62-20.3C62.2-22.4 64.6-21.4 65.7-20.4C66.9-19.4 69.7-20.2 69-21.9C68.3-23.7 70.5-24.2 72-23.3C73.5-22.4 74.4-24.1 75-26.9L17.6-26.9L17.6-26.9Z"/>
   <path class="monochrome-9 multicolor-9:custom hierarchical-9:tertiary SFSymbolsPreviewWireframe" d="M79.7-33.6C79.7-44.6 64.7-53.4 46.2-53.4C27.7-53.4 12.7-44.5 12.7-33.6C12.7-24.8 32.7-20.2 46.2-20.2C59.7-20.2 79.7-24.6 79.7-33.6Z"/>
   <path class="monochrome-10 multicolor-10:custom hierarchical-10:primary SFSymbolsPreviewWireframe" d="M43.9-75.9C43.9-75.9 46.3-73.4 48.7-73.3C53.7-73.2 58.4-70.4 58.4-65.5C58.4-65.5 70.1-65.5 70.5-55.1C70.5-55.1 76.4-55 77.8-44.7C78.8-37 71-26.4 46.3-26.5C24.5-26.6 13.3-34.3 14.8-44.7C16.2-54.7 24.5-55.1 24.5-55.1C24.5-55.1 23.1-68.1 39-68.1C39-68.1 40.7-73.3 43.9-75.9L43.9-75.9Z"/>
   <path class="monochrome-11 multicolor-11:custom hierarchical-11:primary SFSymbolsPreviewWireframe" d="M70.5-55.1C70.5-55.4 70.4-55.7 70.4-56C70.1-57.5 69.4-59.4 68.7-60.8C68.3-61.4 67.8-61.9 67.3-62.4C69.8-52.5 54.9-40.7 40.7-38C22.2-34.4 14.8-44.8 14.8-44.8C14-39.4 16.7-34.8 22.5-31.5C45.3-22.1 70.7-44.9 70.5-55.1L70.5-55.1Z"/>
   <path class="monochrome-12 multicolor-12:custom hierarchical-12:primary SFSymbolsPreviewWireframe" d="M46.1-52.5C52.6-55 58.6-59.4 58.4-65.5C58.4-67.4 57.7-69 56.5-70.2C57.9-64 48.4-56.8 37.8-55.7C24.6-54.3 26.1-62.1 26.1-62.1L26.1-62.1C24.1-58.7 24.5-55.1 24.5-55.1C26.5-49.8 36.9-49 46.1-52.5L46.1-52.5Z"/>
   <path class="monochrome-13 multicolor-13:systemIndigoColor hierarchical-13:secondary SFSymbolsPreviewWireframe" d="M73.8-44.6L71.6-40.7C71-39.6 69.6-39.3 68.6-39.9C67.5-40.5 67.2-41.9 67.8-42.9L70-46.8C70.6-47.9 72-48.2 73-47.6C74.1-47 74.5-45.6 73.8-44.6Z"/>
   <path class="monochrome-14 multicolor-14:systemOrangeColor hierarchical-14:secondary SFSymbolsPreviewWireframe" d="M60.5-50.2L56.3-48.6C55.1-48.2 53.9-48.8 53.4-49.9C53-51.1 53.6-52.3 54.7-52.8L58.9-54.4C60.1-54.8 61.3-54.2 61.8-53.1C62.2-52 61.6-50.7 60.5-50.2L60.5-50.2Z"/>
   <path class="monochrome-15 multicolor-15:systemGreenColor hierarchical-15:secondary SFSymbolsPreviewWireframe" d="M42.8-44.3L45.7-40.9C46.5-40 46.4-38.6 45.5-37.8C44.6-37 43.2-37.1 42.4-38L39.5-41.4C38.7-42.3 38.8-43.7 39.7-44.5C40.6-45.3 42-45.2 42.8-44.3Z"/>
   <path class="monochrome-16 multicolor-16:systemBlueColor hierarchical-16:secondary SFSymbolsPreviewWireframe" d="M39.5-57.6L35.1-58.5C33.9-58.8 33.1-59.9 33.4-61.1C33.7-62.3 34.8-63.1 36-62.8L40.4-61.9C41.6-61.6 42.4-60.5 42.1-59.3C41.9-58.1 40.7-57.4 39.5-57.6L39.5-57.6Z"/>
   <path class="monochrome-17 multicolor-17:systemPinkColor hierarchical-17:secondary SFSymbolsPreviewWireframe" d="M25.6-44.2L23-40.6C22.3-39.6 20.9-39.4 19.9-40.1C18.9-40.8 18.7-42.2 19.4-43.2L22-46.8C22.7-47.8 24.1-48 25.1-47.3C26.1-46.6 26.3-45.2 25.6-44.2Z"/>
  </g>
  <g id="Ultralight-S" transform="matrix(1 0 0 1 515.611 696)">
   <path class="monochrome-0 multicolor-0:systemCyanColor hierarchical-0:primary SFSymbolsPreviewWireframe" d="M15.9-27.7C15.9-27.7 19.4-14.9 20.3-8.8C21.3-1.9 28.3 3.6 44.8 3.6C61.3 3.6 68.3-1.9 69.3-8.8C70.2-14.9 73.7-27.7 73.7-27.7L15.9-27.7L15.9-27.7Z"/>
   <path class="monochrome-1 multicolor-1:systemBlueColor hierarchical-1:secondary SFSymbolsPreviewWireframe" d="M66.1-4.7C65.6-4.7 65.3-5.1 65.3-5.5C65.3-5.6 65.3-5.6 65.3-5.7L68.5-22.3C68.6-22.8 69-23.1 69.5-23C70-22.9 70.3-22.5 70.2-22L70.2-22L67-5.4C66.9-5 66.5-4.7 66.1-4.7Z"/>
   <path class="monochrome-2 multicolor-2:systemBlueColor hierarchical-2:secondary SFSymbolsPreviewWireframe" d="M59.6-0.5C59-0.5 58.5-1 58.5-1.6C58.5-1.7 58.5-1.7 58.5-1.8L61-19.3C61.1-19.9 61.7-20.3 62.3-20.2C62.9-20.1 63.3-19.6 63.2-18.9L63.2-18.9L60.7-1.4C60.6-0.9 60.2-0.5 59.6-0.5L59.6-0.5Z"/>
   <path class="monochrome-3 multicolor-3:systemBlueColor hierarchical-3:secondary SFSymbolsPreviewWireframe" d="M52.8 2L52.8 2C52.1 1.9 51.6 1.4 51.7 0.8L53.3-18.2C53.3-18.8 53.9-19.3 54.5-19.2C55.1-19.2 55.6-18.6 55.5-18L53.9 1C53.9 1.5 53.4 2 52.8 2Z"/>
   <path class="monochrome-4 multicolor-4:systemBlueColor hierarchical-4:secondary SFSymbolsPreviewWireframe" d="M44.9 2.6C44.3 2.6 43.8 2.1 43.8 1.5L43.8-17.7C43.8-18.3 44.3-18.8 44.9-18.8C45.5-18.8 46-18.3 46-17.7L46 1.5C46 2.1 45.5 2.6 44.9 2.6Z"/>
   <path class="monochrome-5 multicolor-5:systemBlueColor hierarchical-5:secondary SFSymbolsPreviewWireframe" d="M37 2C36.4 2 35.9 1.6 35.9 1L34.3-18C34.3-18.6 34.7-19.2 35.3-19.2C35.9-19.2 36.5-18.8 36.5-18.2L38.1 0.8C38.2 1.4 37.7 1.9 37 2L37 2Z"/>
   <path class="monochrome-6 multicolor-6:systemBlueColor hierarchical-6:secondary SFSymbolsPreviewWireframe" d="M29.9-0.2C29.3-0.2 28.9-0.6 28.8-1.2L26.5-19C26.4-19.6 26.9-20.2 27.5-20.2C28.1-20.3 28.7-19.9 28.7-19.3C28.7-19.3 28.7-19.3 28.7-19.3L31-1.5C31.1-0.9 30.6-0.3 30-0.3C30-0.2 30-0.2 29.9-0.2L29.9-0.2Z"/>
   <path class="monochrome-7 multicolor-7:systemBlueColor hierarchical-7:secondary SFSymbolsPreviewWireframe" d="M23.8-4.8C23.4-4.8 23.1-5.1 23-5.5L19.7-22.1C19.6-22.5 19.9-23 20.3-23.1L20.3-23.1C20.7-23.2 21.2-22.9 21.3-22.4L24.6-5.8C24.7-5.4 24.4-4.9 24-4.8C23.9-4.8 23.8-4.8 23.8-4.8Z"/>
   <path class="monochrome-8 multicolor-8:custom hierarchical-8:secondary SFSymbolsPreviewWireframe" d="M16.1-27.5C16.7-24.8 17.6-23.1 19.1-23.9C20.6-24.7 22.8-24.3 22.1-22.5C21.5-20.8 24.3-20.1 25.4-21C26.5-21.9 28.9-23 29.1-20.9C29.3-19 31.7-18.4 32.8-19.9C33.9-21.4 37-20.8 37.5-19C38.1-17.2 41.1-17.5 41.9-18.7C42.7-19.9 43.5-20.7 44.8-20.7L44.8-20.7C46.1-20.7 46.9-19.9 47.7-18.7C48.5-17.5 51.5-17.2 52.1-19C52.7-20.8 55.7-21.4 56.8-19.9C57.9-18.5 60.3-19 60.5-20.9C60.7-23 63.1-22 64.2-21C65.4-20 68.2-20.8 67.5-22.5C66.8-24.3 69-24.8 70.5-23.9C71.9-23 72.9-24.7 73.5-27.5L16.1-27.5L16.1-27.5Z"/>
   <path class="monochrome-9 multicolor-9:custom hierarchical-9:tertiary SFSymbolsPreviewWireframe" d="M78.3-34.2C78.3-45.2 63.3-54 44.8-54C26.3-54 11.3-45.1 11.3-34.2C11.3-25.4 31.3-20.8 44.8-20.8C58.3-20.8 78.3-25.2 78.3-34.2Z"/>
   <path class="monochrome-10 multicolor-10:custom hierarchical-10:primary SFSymbolsPreviewWireframe" d="M42.4-76.4C42.4-76.4 44.8-73.9 47.2-73.8C52.2-73.7 56.9-70.9 56.9-66C56.9-66 68.6-66 69-55.6C69-55.6 74.9-55.5 76.3-45.2C77.3-37.5 69.5-26.9 44.8-27C23-27.1 11.8-34.8 13.3-45.2C14.7-55.2 23-55.6 23-55.6C23-55.6 21.6-68.6 37.5-68.6C37.6-68.6 39.2-73.8 42.4-76.4L42.4-76.4Z"/>
   <path class="monochrome-11 multicolor-11:custom hierarchical-11:primary SFSymbolsPreviewWireframe" d="M69.1-55.6C69.1-55.9 69-56.2 69-56.5C68.7-58 68-59.9 67.3-61.3C66.9-61.9 66.4-62.4 65.9-62.9C68.4-53 53.5-41.2 39.3-38.5C20.8-34.9 13.4-45.3 13.4-45.3C12.6-39.9 15.3-35.3 21.1-32C43.8-22.6 69.3-45.5 69.1-55.6L69.1-55.6Z"/>
   <path class="monochrome-12 multicolor-12:custom hierarchical-12:primary SFSymbolsPreviewWireframe" d="M44.7-53C51.2-55.5 57.2-59.9 57-66C57-67.9 56.3-69.5 55.1-70.7C56.5-64.5 47-57.3 36.4-56.2C23.2-54.8 24.7-62.6 24.7-62.6L24.7-62.6C22.7-59.2 23.1-55.6 23.1-55.6C25.1-50.3 35.5-49.6 44.7-53L44.7-53Z"/>
   <path class="monochrome-13 multicolor-13:systemIndigoColor hierarchical-13:secondary SFSymbolsPreviewWireframe" d="M72.4-45.1L70.2-41.2C69.6-40.1 68.2-39.8 67.2-40.4C66.1-41 65.8-42.4 66.4-43.4L68.6-47.3C69.2-48.4 70.6-48.7 71.6-48.1C72.6-47.6 73-46.2 72.4-45.1Z"/>
   <path class="monochrome-14 multicolor-14:systemOrangeColor hierarchical-14:secondary SFSymbolsPreviewWireframe" d="M59-50.8L54.8-49.2C53.6-48.8 52.4-49.4 51.9-50.5C51.5-51.7 52.1-52.9 53.2-53.4L57.4-55C58.6-55.4 59.8-54.8 60.3-53.7C60.8-52.5 60.2-51.3 59-50.8L59-50.8Z"/>
   <path class="monochrome-15 multicolor-15:systemGreenColor hierarchical-15:secondary SFSymbolsPreviewWireframe" d="M41.4-44.9L44.3-41.5C45.1-40.6 45-39.2 44.1-38.4C43.2-37.6 41.8-37.7 41-38.6L38.1-42C37.3-42.9 37.4-44.3 38.3-45.1C39.2-45.9 40.6-45.8 41.4-44.9Z"/>
   <path class="monochrome-16 multicolor-16:systemBlueColor hierarchical-16:secondary SFSymbolsPreviewWireframe" d="M38-58.2L33.6-59.1C32.4-59.4 31.6-60.5 31.9-61.7C32.2-62.9 33.3-63.7 34.5-63.4L38.9-62.5C40.1-62.2 40.9-61.1 40.6-59.9C40.4-58.7 39.2-57.9 38-58.2L38-58.2Z"/>
   <path class="monochrome-17 multicolor-17:systemPinkColor hierarchical-17:secondary SFSymbolsPreviewWireframe" d="M24.1-44.8L21.5-41.2C20.8-40.2 19.4-40 18.4-40.7C17.4-41.4 17.2-42.8 17.9-43.8L20.5-47.4C21.2-48.4 22.6-48.6 23.6-47.9C24.6-47.2 24.9-45.8 24.1-44.8Z"/>
  </g>
 </g>
</svg>
