<?xml version="1.0" encoding="UTF-8"?>
<!--Generator: Apple Native CoreSVG 341-->
<!DOCTYPE svg
PUBLIC "-//W3C//DTD SVG 1.1//EN"
       "http://www.w3.org/Graphics/SVG/1.1/DTD/svg11.dtd">
<svg version="1.1" xmlns="http://www.w3.org/2000/svg" xmlns:xlink="http://www.w3.org/1999/xlink" viewBox="0 0 3300 2200">
 <!--glyph: "", point size: 100.0, font version: "20.0d10e1", template writer version: "138.0.0"-->
 <style>.monochrome-0 {-sfsymbols-motion-group:3;-sfsymbols-layer-tags:59bb33ade57a1b43}
.monochrome-1 {opacity:0.0;-sfsymbols-clear-behind:true;-sfsymbols-motion-group:3;-sfsymbols-layer-tags:59bb33ade57a1b43}
.monochrome-2 {opacity:0.0;-sfsymbols-clear-behind:true;-sfsymbols-motion-group:3;-sfsymbols-layer-tags:59bb33ade57a1b43}
.monochrome-3 {opacity:0.0;-sfsymbols-clear-behind:true;-sfsymbols-motion-group:3;-sfsymbols-layer-tags:59bb33ade57a1b43}
.monochrome-4 {opacity:0.0;-sfsymbols-clear-behind:true;-sfsymbols-motion-group:3;-sfsymbols-layer-tags:59bb33ade57a1b43}
.monochrome-5 {opacity:0.0;-sfsymbols-clear-behind:true;-sfsymbols-motion-group:3;-sfsymbols-layer-tags:59bb33ade57a1b43}
.monochrome-6 {opacity:0.0;-sfsymbols-clear-behind:true;-sfsymbols-motion-group:3;-sfsymbols-layer-tags:59bb33ade57a1b43}
.monochrome-7 {opacity:0.0;-sfsymbols-clear-behind:true;-sfsymbols-motion-group:3;-sfsymbols-layer-tags:59bb33ade57a1b43}
.monochrome-8 {-sfsymbols-motion-group:2;-sfsymbols-layer-tags:59bb33ade57a1b43}
.monochrome-9 {-sfsymbols-motion-group:2;-sfsymbols-layer-tags:59bb33ade57a1b43}
.monochrome-10 {-sfsymbols-motion-group:2;-sfsymbols-layer-tags:59bb33ade57a1b43}
.monochrome-11 {opacity:0.0;-sfsymbols-clear-behind:true;-sfsymbols-motion-group:1;-sfsymbols-layer-tags:59bb33ade57a1b43}
.monochrome-12 {opacity:0.0;-sfsymbols-clear-behind:true;-sfsymbols-motion-group:1;-sfsymbols-layer-tags:59bb33ade57a1b43}
.monochrome-13 {opacity:0.0;-sfsymbols-clear-behind:true;-sfsymbols-motion-group:0;-sfsymbols-layer-tags:59bb33ade57a1b43}
.monochrome-14 {opacity:0.0;-sfsymbols-clear-behind:true;-sfsymbols-motion-group:0;-sfsymbols-layer-tags:59bb33ade57a1b43}
.monochrome-15 {opacity:0.0;-sfsymbols-clear-behind:true;-sfsymbols-motion-group:0;-sfsymbols-layer-tags:59bb33ade57a1b43}
.monochrome-16 {opacity:0.0;-sfsymbols-clear-behind:true;-sfsymbols-motion-group:0;-sfsymbols-layer-tags:59bb33ade57a1b43}
.monochrome-17 {opacity:0.0;-sfsymbols-clear-behind:true;-sfsymbols-motion-group:0;-sfsymbols-layer-tags:59bb33ade57a1b43}

.multicolor-0:systemCyanColor {-sfsymbols-motion-group:3;-sfsymbols-layer-tags:59bb33ade57a1b43}
.multicolor-1:systemBlueColor {opacity:0.5;-sfsymbols-clear-behind:true;-sfsymbols-motion-group:3;-sfsymbols-layer-tags:59bb33ade57a1b43}
.multicolor-2:systemBlueColor {opacity:0.5;-sfsymbols-clear-behind:true;-sfsymbols-motion-group:3;-sfsymbols-layer-tags:59bb33ade57a1b43}
.multicolor-3:systemBlueColor {opacity:0.5;-sfsymbols-clear-behind:true;-sfsymbols-motion-group:3;-sfsymbols-layer-tags:59bb33ade57a1b43}
.multicolor-4:systemBlueColor {opacity:0.5;-sfsymbols-clear-behind:true;-sfsymbols-motion-group:3;-sfsymbols-layer-tags:59bb33ade57a1b43}
.multicolor-5:systemBlueColor {opacity:0.5;-sfsymbols-clear-behind:true;-sfsymbols-motion-group:3;-sfsymbols-layer-tags:59bb33ade57a1b43}
.multicolor-6:systemBlueColor {opacity:0.5;-sfsymbols-clear-behind:true;-sfsymbols-motion-group:3;-sfsymbols-layer-tags:59bb33ade57a1b43}
.multicolor-7:systemBlueColor {opacity:0.5;-sfsymbols-clear-behind:true;-sfsymbols-motion-group:3;-sfsymbols-layer-tags:59bb33ade57a1b43}
.multicolor-8:custom {fill:#662113;-sfsymbols-clear-behind:true;-sfsymbols-motion-group:2;-sfsymbols-layer-tags:59bb33ade57a1b43}
.multicolor-9:custom {fill:#C1694F;-sfsymbols-motion-group:2;-sfsymbols-layer-tags:59bb33ade57a1b43}
.multicolor-10:custom {fill:#FFE8B6;-sfsymbols-clear-behind:true;-sfsymbols-motion-group:2;-sfsymbols-layer-tags:59bb33ade57a1b43}
.multicolor-11:custom {fill:#FFCC4D;-sfsymbols-clear-behind:true;-sfsymbols-motion-group:1;-sfsymbols-layer-tags:59bb33ade57a1b43}
.multicolor-12:custom {fill:#FFCC4D;-sfsymbols-clear-behind:true;-sfsymbols-motion-group:1;-sfsymbols-layer-tags:59bb33ade57a1b43}
.multicolor-13:systemIndigoColor {-sfsymbols-clear-behind:true;-sfsymbols-motion-group:0;-sfsymbols-layer-tags:59bb33ade57a1b43}
.multicolor-14:systemOrangeColor {-sfsymbols-clear-behind:true;-sfsymbols-motion-group:0;-sfsymbols-layer-tags:59bb33ade57a1b43}
.multicolor-15:systemGreenColor {-sfsymbols-clear-behind:true;-sfsymbols-motion-group:0;-sfsymbols-layer-tags:59bb33ade57a1b43}
.multicolor-16:systemBlueColor {-sfsymbols-clear-behind:true;-sfsymbols-motion-group:0;-sfsymbols-layer-tags:59bb33ade57a1b43}
.multicolor-17:systemPinkColor {-sfsymbols-clear-behind:true;-sfsymbols-motion-group:0;-sfsymbols-layer-tags:59bb33ade57a1b43}

.hierarchical-0:secondary {-sfsymbols-motion-group:3;-sfsymbols-layer-tags:59bb33ade57a1b43}
.hierarchical-1:tertiary {-sfsymbols-clear-behind:true;-sfsymbols-motion-group:3;-sfsymbols-layer-tags:59bb33ade57a1b43}
.hierarchical-2:tertiary {-sfsymbols-clear-behind:true;-sfsymbols-motion-group:3;-sfsymbols-layer-tags:59bb33ade57a1b43}
.hierarchical-3:tertiary {-sfsymbols-clear-behind:true;-sfsymbols-motion-group:3;-sfsymbols-layer-tags:59bb33ade57a1b43}
.hierarchical-4:tertiary {-sfsymbols-clear-behind:true;-sfsymbols-motion-group:3;-sfsymbols-layer-tags:59bb33ade57a1b43}
.hierarchical-5:tertiary {-sfsymbols-clear-behind:true;-sfsymbols-motion-group:3;-sfsymbols-layer-tags:59bb33ade57a1b43}
.hierarchical-6:tertiary {-sfsymbols-clear-behind:true;-sfsymbols-motion-group:3;-sfsymbols-layer-tags:59bb33ade57a1b43}
.hierarchical-7:tertiary {-sfsymbols-clear-behind:true;-sfsymbols-motion-group:3;-sfsymbols-layer-tags:59bb33ade57a1b43}
.hierarchical-8:primary {-sfsymbols-clear-behind:true;-sfsymbols-motion-group:2;-sfsymbols-layer-tags:59bb33ade57a1b43}
.hierarchical-9:primary {-sfsymbols-motion-group:2;-sfsymbols-layer-tags:59bb33ade57a1b43}
.hierarchical-10:primary {-sfsymbols-clear-behind:true;-sfsymbols-motion-group:2;-sfsymbols-layer-tags:59bb33ade57a1b43}
.hierarchical-11:tertiary {-sfsymbols-clear-behind:true;-sfsymbols-motion-group:1;-sfsymbols-layer-tags:59bb33ade57a1b43}
.hierarchical-12:tertiary {-sfsymbols-clear-behind:true;-sfsymbols-motion-group:1;-sfsymbols-layer-tags:59bb33ade57a1b43}
.hierarchical-13:secondary {-sfsymbols-clear-behind:true;-sfsymbols-motion-group:0;-sfsymbols-layer-tags:59bb33ade57a1b43}
.hierarchical-14:secondary {-sfsymbols-clear-behind:true;-sfsymbols-motion-group:0;-sfsymbols-layer-tags:59bb33ade57a1b43}
.hierarchical-15:secondary {-sfsymbols-clear-behind:true;-sfsymbols-motion-group:0;-sfsymbols-layer-tags:59bb33ade57a1b43}
.hierarchical-16:secondary {-sfsymbols-clear-behind:true;-sfsymbols-motion-group:0;-sfsymbols-layer-tags:59bb33ade57a1b43}
.hierarchical-17:secondary {-sfsymbols-clear-behind:true;-sfsymbols-motion-group:0;-sfsymbols-layer-tags:59bb33ade57a1b43}

.SFSymbolsPreviewWireframe {fill:none;opacity:1.0;stroke:black;stroke-width:0.5}
</style>
 <g id="Notes">
  <rect height="2200" id="artboard" style="fill:white;opacity:1" width="3300" x="0" y="0"/>
  <line style="fill:none;stroke:black;opacity:1;stroke-width:0.5;" x1="263" x2="3036" y1="292" y2="292"/>
  <text style="stroke:none;fill:black;font-family:sans-serif;font-size:13;font-weight:bold;" transform="matrix(1 0 0 1 263 322)">Weight/Scale Variations</text>
  <text style="stroke:none;fill:black;font-family:sans-serif;font-size:13;text-anchor:middle;" transform="matrix(1 0 0 1 559.711 322)">Ultralight</text>
  <text style="stroke:none;fill:black;font-family:sans-serif;font-size:13;text-anchor:middle;" transform="matrix(1 0 0 1 856.422 322)">Thin</text>
  <text style="stroke:none;fill:black;font-family:sans-serif;font-size:13;text-anchor:middle;" transform="matrix(1 0 0 1 1153.13 322)">Light</text>
  <text style="stroke:none;fill:black;font-family:sans-serif;font-size:13;text-anchor:middle;" transform="matrix(1 0 0 1 1449.84 322)">Regular</text>
  <text style="stroke:none;fill:black;font-family:sans-serif;font-size:13;text-anchor:middle;" transform="matrix(1 0 0 1 1746.56 322)">Medium</text>
  <text style="stroke:none;fill:black;font-family:sans-serif;font-size:13;text-anchor:middle;" transform="matrix(1 0 0 1 2043.27 322)">Semibold</text>
  <text style="stroke:none;fill:black;font-family:sans-serif;font-size:13;text-anchor:middle;" transform="matrix(1 0 0 1 2339.98 322)">Bold</text>
  <text style="stroke:none;fill:black;font-family:sans-serif;font-size:13;text-anchor:middle;" transform="matrix(1 0 0 1 2636.69 322)">Heavy</text>
  <text style="stroke:none;fill:black;font-family:sans-serif;font-size:13;text-anchor:middle;" transform="matrix(1 0 0 1 2933.4 322)">Black</text>
  <line style="fill:none;stroke:black;opacity:1;stroke-width:0.5;" x1="263" x2="3036" y1="1903" y2="1903"/>
  <g transform="matrix(0.2 0 0 0.2 263 1933)">
   <path d="m46.2402 4.15039c21.7773 0 39.4531-17.627 39.4531-39.4043s-17.6758-39.4043-39.4531-39.4043c-21.7285 0-39.4043 17.627-39.4043 39.4043s17.6758 39.4043 39.4043 39.4043Zm0-7.42188c-17.6758 0-31.9336-14.3066-31.9336-31.9824s14.2578-31.9824 31.9336-31.9824 31.9824 14.3066 31.9824 31.9824-14.3066 31.9824-31.9824 31.9824Zm-17.9688-31.9824c0 2.14844 1.51367 3.61328 3.75977 3.61328h10.498v10.5957c0 2.19727 1.46484 3.71094 3.61328 3.71094 2.24609 0 3.71094-1.51367 3.71094-3.71094v-10.5957h10.5957c2.19727 0 3.71094-1.46484 3.71094-3.61328 0-2.19727-1.51367-3.71094-3.71094-3.71094h-10.5957v-10.5469c0-2.24609-1.46484-3.75977-3.71094-3.75977-2.14844 0-3.61328 1.51367-3.61328 3.75977v10.5469h-10.498c-2.24609 0-3.75977 1.51367-3.75977 3.71094Z"/>
  </g>
  <g transform="matrix(0.2 0 0 0.2 281.506 1933)">
   <path d="m58.5449 14.5508c27.4902 0 49.8047-22.3145 49.8047-49.8047s-22.3145-49.8047-49.8047-49.8047-49.8047 22.3145-49.8047 49.8047 22.3145 49.8047 49.8047 49.8047Zm0-8.30078c-22.9492 0-41.5039-18.5547-41.5039-41.5039s18.5547-41.5039 41.5039-41.5039 41.5039 18.5547 41.5039 41.5039-18.5547 41.5039-41.5039 41.5039Zm-22.6562-41.5039c0 2.39258 1.66016 4.00391 4.15039 4.00391h14.3555v14.4043c0 2.44141 1.66016 4.15039 4.05273 4.15039 2.44141 0 4.15039-1.66016 4.15039-4.15039v-14.4043h14.4043c2.44141 0 4.15039-1.61133 4.15039-4.00391 0-2.44141-1.70898-4.15039-4.15039-4.15039h-14.4043v-14.3555c0-2.49023-1.70898-4.19922-4.15039-4.19922-2.39258 0-4.05273 1.70898-4.05273 4.19922v14.3555h-14.3555c-2.49023 0-4.15039 1.70898-4.15039 4.15039Z"/>
  </g>
  <g transform="matrix(0.2 0 0 0.2 304.924 1933)">
   <path d="m74.8535 28.3203c35.1074 0 63.623-28.4668 63.623-63.5742s-28.5156-63.623-63.623-63.623-63.5742 28.5156-63.5742 63.623 28.4668 63.5742 63.5742 63.5742Zm0-9.08203c-30.127 0-54.4922-24.3652-54.4922-54.4922s24.3652-54.4922 54.4922-54.4922 54.4922 24.3652 54.4922 54.4922-24.3652 54.4922-54.4922 54.4922Zm-28.8574-54.4922c0 2.58789 1.85547 4.39453 4.58984 4.39453h19.7266v19.7754c0 2.68555 1.85547 4.58984 4.44336 4.58984 2.68555 0 4.54102-1.85547 4.54102-4.58984v-19.7754h19.7754c2.68555 0 4.58984-1.80664 4.58984-4.39453 0-2.73438-1.85547-4.58984-4.58984-4.58984h-19.7754v-19.7266c0-2.73438-1.85547-4.63867-4.54102-4.63867-2.58789 0-4.44336 1.9043-4.44336 4.63867v19.7266h-19.7266c-2.73438 0-4.58984 1.85547-4.58984 4.58984Z"/>
  </g>
  <text style="stroke:none;fill:black;font-family:sans-serif;font-size:13;font-weight:bold;" transform="matrix(1 0 0 1 263 1953)">Design Variations</text>
  <text style="stroke:none;fill:black;font-family:sans-serif;font-size:13;" transform="matrix(1 0 0 1 263 1971)">Symbols are supported in up to nine weights and three scales.</text>
  <text style="stroke:none;fill:black;font-family:sans-serif;font-size:13;" transform="matrix(1 0 0 1 263 1989)">For optimal layout with text and other symbols, vertically align</text>
  <text style="stroke:none;fill:black;font-family:sans-serif;font-size:13;" transform="matrix(1 0 0 1 263 2007)">symbols with the adjacent text.</text>
  <line style="fill:none;stroke:#00AEEF;stroke-width:0.5;opacity:1.0;" x1="776" x2="776" y1="1919" y2="1933"/>
  <g transform="matrix(0.2 0 0 0.2 776 1933)">
   <path d="m16.5527 0.78125c2.58789 0 3.85742-0.976562 4.78516-3.71094l6.29883-17.2363h28.8086l6.29883 17.2363c0.927734 2.73438 2.19727 3.71094 4.73633 3.71094 2.58789 0 4.24805-1.5625 4.24805-4.00391 0-0.830078-0.146484-1.61133-0.537109-2.63672l-22.9004-60.9863c-1.12305-2.97852-3.125-4.49219-6.25-4.49219-3.02734 0-5.07812 1.46484-6.15234 4.44336l-22.9004 61.084c-0.390625 1.02539-0.537109 1.80664-0.537109 2.63672 0 2.44141 1.5625 3.95508 4.10156 3.95508Zm13.4766-28.3691 11.8652-32.8613h0.244141l11.8652 32.8613Z"/>
  </g>
  <line style="fill:none;stroke:#00AEEF;stroke-width:0.5;opacity:1.0;" x1="792.836" x2="792.836" y1="1919" y2="1933"/>
  <text style="stroke:none;fill:black;font-family:sans-serif;font-size:13;font-weight:bold;" transform="matrix(1 0 0 1 776 1953)">Margins</text>
  <text style="stroke:none;fill:black;font-family:sans-serif;font-size:13;" transform="matrix(1 0 0 1 776 1971)">Leading and trailing margins on the left and right side of each symbol</text>
  <text style="stroke:none;fill:black;font-family:sans-serif;font-size:13;" transform="matrix(1 0 0 1 776 1989)">can be adjusted by modifying the x-location of the margin guidelines.</text>
  <text style="stroke:none;fill:black;font-family:sans-serif;font-size:13;" transform="matrix(1 0 0 1 776 2007)">Modifications are automatically applied proportionally to all</text>
  <text style="stroke:none;fill:black;font-family:sans-serif;font-size:13;" transform="matrix(1 0 0 1 776 2025)">scales and weights.</text>
  <g transform="matrix(0.2 0 0 0.2 1289 1933)">
   <path d="m14.209 9.32617 8.49609 8.54492c4.29688 4.3457 9.22852 4.05273 13.8672-1.07422l53.4668-58.9355-4.83398-4.88281-53.0762 58.3984c-1.75781 2.00195-3.41797 2.49023-5.76172 0.146484l-5.85938-5.81055c-2.34375-2.29492-1.80664-4.00391 0.195312-5.81055l57.373-54.0039-4.88281-4.83398-57.959 54.4434c-4.93164 4.58984-5.32227 9.47266-1.02539 13.8184Zm32.0801-90.9668c-2.09961 2.05078-2.24609 4.93164-1.07422 6.88477 1.17188 1.80664 3.4668 2.97852 6.68945 2.14844 7.32422-1.70898 14.9414-2.00195 22.0703 2.68555l-2.92969 7.27539c-1.70898 4.15039-0.830078 7.08008 1.85547 9.81445l11.4746 11.5723c2.44141 2.44141 4.49219 2.53906 7.32422 2.05078l5.32227-0.976562 3.32031 3.36914-0.195312 2.7832c-0.195312 2.49023 0.439453 4.39453 2.88086 6.78711l3.80859 3.71094c2.39258 2.39258 5.46875 2.53906 7.8125 0.195312l14.5508-14.5996c2.34375-2.34375 2.24609-5.32227-0.146484-7.71484l-3.85742-3.80859c-2.39258-2.39258-4.24805-3.17383-6.64062-2.97852l-2.88086 0.244141-3.22266-3.17383 1.2207-5.61523c0.634766-2.83203-0.146484-5.0293-3.07617-7.95898l-10.9863-10.9375c-16.6992-16.6016-38.8672-16.2109-53.3203-1.75781Zm7.4707 1.85547c12.1582-8.88672 28.6133-7.37305 39.7461 3.75977l12.1582 12.0605c1.17188 1.17188 1.36719 2.09961 1.02539 3.80859l-1.61133 7.42188 7.51953 7.42188 4.93164-0.292969c1.26953-0.0488281 1.66016 0.0488281 2.63672 1.02539l2.88086 2.88086-12.207 12.207-2.88086-2.88086c-0.976562-0.976562-1.12305-1.36719-1.07422-2.68555l0.341797-4.88281-7.4707-7.42188-7.61719 1.26953c-1.61133 0.341797-2.34375 0.195312-3.56445-0.976562l-10.0098-10.0098c-1.26953-1.17188-1.41602-2.00195-0.634766-3.85742l4.39453-10.4492c-7.8125-7.27539-17.9688-10.4004-28.125-7.42188-0.78125 0.195312-1.07422-0.439453-0.439453-0.976562Z"/>
  </g>
  <text style="stroke:none;fill:black;font-family:sans-serif;font-size:13;font-weight:bold;" transform="matrix(1 0 0 1 1289 1953)">Exporting</text>
  <text style="stroke:none;fill:black;font-family:sans-serif;font-size:13;" transform="matrix(1 0 0 1 1289 1971)">Symbols should be outlined when exporting to ensure the</text>
  <text style="stroke:none;fill:black;font-family:sans-serif;font-size:13;" transform="matrix(1 0 0 1 1289 1989)">design is preserved when submitting to Xcode.</text>
  <text id="template-version" style="stroke:none;fill:black;font-family:sans-serif;font-size:13;text-anchor:end;" transform="matrix(1 0 0 1 3036 1933)">Template v.6.0</text>
  <text style="stroke:none;fill:black;font-family:sans-serif;font-size:13;text-anchor:end;" transform="matrix(1 0 0 1 3036 1951)">Requires Xcode 16 or greater</text>
  <text id="descriptive-name" style="stroke:none;fill:black;font-family:sans-serif;font-size:13;text-anchor:end;" transform="matrix(1 0 0 1 3036 1969)">Generated from cupcake</text>
  <text style="stroke:none;fill:black;font-family:sans-serif;font-size:13;text-anchor:end;" transform="matrix(1 0 0 1 3036 1987)">Typeset at 100.0 points</text>
  <text style="stroke:none;fill:black;font-family:sans-serif;font-size:13;" transform="matrix(1 0 0 1 263 726)">Small</text>
  <text style="stroke:none;fill:black;font-family:sans-serif;font-size:13;" transform="matrix(1 0 0 1 263 1156)">Medium</text>
  <text style="stroke:none;fill:black;font-family:sans-serif;font-size:13;" transform="matrix(1 0 0 1 263 1586)">Large</text>
 </g>
 <g id="Guides">
  <g id="H-reference" style="fill:#27AAE1;stroke:none;" transform="matrix(1 0 0 1 339 696)">
   <path d="M0.993654 0L3.63775 0L29.3281-67.1323L30.0303-67.1323L30.0303-70.459L28.1226-70.459ZM11.6885-24.4799L46.9815-24.4799L46.2315-26.7285L12.4385-26.7285ZM55.1196 0L57.7637 0L30.6382-70.459L29.4326-70.459L29.4326-67.1323Z"/>
  </g>
  <line id="Baseline-S" style="fill:none;stroke:#27AAE1;opacity:1;stroke-width:0.5;" x1="263" x2="3036" y1="696" y2="696"/>
  <line id="Capline-S" style="fill:none;stroke:#27AAE1;opacity:1;stroke-width:0.5;" x1="263" x2="3036" y1="625.541" y2="625.541"/>
  <g id="H-reference" style="fill:#27AAE1;stroke:none;" transform="matrix(1 0 0 1 339 1126)">
   <path d="M0.993654 0L3.63775 0L29.3281-67.1323L30.0303-67.1323L30.0303-70.459L28.1226-70.459ZM11.6885-24.4799L46.9815-24.4799L46.2315-26.7285L12.4385-26.7285ZM55.1196 0L57.7637 0L30.6382-70.459L29.4326-70.459L29.4326-67.1323Z"/>
  </g>
  <line id="Baseline-M" style="fill:none;stroke:#27AAE1;opacity:1;stroke-width:0.5;" x1="263" x2="3036" y1="1126" y2="1126"/>
  <line id="Capline-M" style="fill:none;stroke:#27AAE1;opacity:1;stroke-width:0.5;" x1="263" x2="3036" y1="1055.54" y2="1055.54"/>
  <g id="H-reference" style="fill:#27AAE1;stroke:none;" transform="matrix(1 0 0 1 339 1556)">
   <path d="M0.993654 0L3.63775 0L29.3281-67.1323L30.0303-67.1323L30.0303-70.459L28.1226-70.459ZM11.6885-24.4799L46.9815-24.4799L46.2315-26.7285L12.4385-26.7285ZM55.1196 0L57.7637 0L30.6382-70.459L29.4326-70.459L29.4326-67.1323Z"/>
  </g>
  <line id="Baseline-L" style="fill:none;stroke:#27AAE1;opacity:1;stroke-width:0.5;" x1="263" x2="3036" y1="1556" y2="1556"/>
  <line id="Capline-L" style="fill:none;stroke:#27AAE1;opacity:1;stroke-width:0.5;" x1="263" x2="3036" y1="1485.54" y2="1485.54"/>
  <line id="right-margin-Black-S" style="fill:none;stroke:#00AEEF;stroke-width:0.5;opacity:1.0;" x1="2982.2" x2="2982.2" y1="600.785" y2="720.121"/>
  <line id="left-margin-Black-S" style="fill:none;stroke:#00AEEF;stroke-width:0.5;opacity:1.0;" x1="2884.6" x2="2884.6" y1="600.785" y2="720.121"/>
  <line id="right-margin-Regular-S" style="fill:none;stroke:#00AEEF;stroke-width:0.5;opacity:1.0;" x1="1496.09" x2="1496.09" y1="600.785" y2="720.121"/>
  <line id="left-margin-Regular-S" style="fill:none;stroke:#00AEEF;stroke-width:0.5;opacity:1.0;" x1="1403.59" x2="1403.59" y1="600.785" y2="720.121"/>
  <line id="right-margin-Ultralight-S" style="fill:none;stroke:#00AEEF;stroke-width:0.5;opacity:1.0;" x1="603.811" x2="603.811" y1="600.785" y2="720.121"/>
  <line id="left-margin-Ultralight-S" style="fill:none;stroke:#00AEEF;stroke-width:0.5;opacity:1.0;" x1="515.611" x2="515.611" y1="600.785" y2="720.121"/>
 </g>
 <g id="Symbols">
  <g id="Black-S" transform="matrix(1 0 0 1 2884.6 696)">
   <path class="monochrome-0 multicolor-0:systemCyanColor hierarchical-0:secondary SFSymbolsPreviewWireframe" d="M24.9-28.1C24.9-28.1 27.9-17.2 28.7-12.1C29.5-6.2 35.5-1.5 49.5-1.5C63.5-1.5 69.5-6.2 70.3-12C71-17.2 74.1-28 74.1-28L24.9-28.1L24.9-28.1Z"/>
   <path class="monochrome-1 multicolor-1:systemBlueColor hierarchical-1:tertiary SFSymbolsPreviewWireframe" d="M67.6-8.5C67.2-8.5 66.9-8.9 66.9-9.2L66.9-9.3L69.6-23.4C69.7-23.8 70-24.1 70.4-24C70.8-23.9 71.1-23.6 71-23.2L68.3-9.1C68.2-8.8 67.9-8.5 67.6-8.5Z"/>
   <path class="monochrome-2 multicolor-2:systemBlueColor hierarchical-2:tertiary SFSymbolsPreviewWireframe" d="M62-5C61.5-5 61-5.4 61-6L61-6.1L63.1-21C63.2-21.5 63.7-21.8 64.2-21.7C64.7-21.6 65-21.2 64.9-20.6L62.8-5.7C62.9-5.3 62.5-5 62-5Z"/>
   <path class="monochrome-3 multicolor-3:systemBlueColor hierarchical-3:tertiary SFSymbolsPreviewWireframe" d="M56.3-3C55.7-3.1 55.3-3.5 55.3-4L56.6-20.1C56.6-20.6 57.1-21.1 57.6-20.9C58.1-20.9 58.6-20.4 58.4-19.9L57.1-3.8C57.2-3.3 56.8-3 56.3-3Z"/>
   <path class="monochrome-4 multicolor-4:systemBlueColor hierarchical-4:tertiary SFSymbolsPreviewWireframe" d="M49.5-2.3C49-2.3 48.5-2.7 48.5-3.3L48.5-19.6C48.5-20.1 48.9-20.6 49.5-20.6C50.1-20.6 50.5-20.2 50.5-19.6L50.5-3.3C50.4-2.8 50-2.3 49.5-2.3Z"/>
   <path class="monochrome-5 multicolor-5:systemBlueColor hierarchical-5:tertiary SFSymbolsPreviewWireframe" d="M42.9-3C42.4-3 41.9-3.4 41.9-3.8L40.6-19.9C40.6-20.4 41-20.9 41.4-20.9C41.9-20.9 42.4-20.5 42.4-20.1L43.7-4C43.8-3.4 43.5-3 42.9-3Z"/>
   <path class="monochrome-6 multicolor-6:systemBlueColor hierarchical-6:tertiary SFSymbolsPreviewWireframe" d="M36.8-4.8C36.3-4.8 36-5.2 35.8-5.6L33.9-20.8C33.8-21.3 34.3-21.8 34.7-21.8C35.2-21.9 35.7-21.6 35.7-21.1L37.6-6C37.7-5.5 37.2-5 36.8-5C36.9-4.8 36.8-4.8 36.8-4.8Z"/>
   <path class="monochrome-7 multicolor-7:systemBlueColor hierarchical-7:tertiary SFSymbolsPreviewWireframe" d="M31.6-8.6C31.2-8.6 31-8.8 30.9-9.2L28.1-23.3C28-23.7 28.2-24 28.6-24.1C29-24.2 29.3-24 29.4-23.5L32.2-9.4C32.3-9 32.1-8.7 31.7-8.6L31.6-8.6Z"/>
   <path class="monochrome-8 multicolor-8:custom hierarchical-8:primary SFSymbolsPreviewWireframe" d="M25.2-27.9C25.7-25.6 26.5-24.1 27.7-24.9C29-25.6 30.8-25.3 30.2-23.7C29.7-22.2 32-21.6 33-22.4C34-23.1 36-24.1 36.1-22.3C36.2-20.7 38.3-20.2 39.2-21.5C40.2-22.8 42.7-22.2 43.2-20.8C43.7-19.2 46.2-19.5 47-20.6C47.7-21.6 48.3-22.3 49.4-22.3C50.5-22.3 51.2-21.6 51.8-20.6C52.5-19.6 55.1-19.3 55.6-20.8C56.1-22.4 58.6-22.9 59.6-21.5C60.6-20.3 62.6-20.8 62.7-22.3C62.8-24.1 64.9-23.3 65.8-22.4C66.8-21.6 69.2-22.3 68.6-23.7C68-25.3 69.9-25.6 71.1-24.9C72.3-24.2 73.2-25.6 73.6-27.9L25.2-27.9Z"/>
   <path class="monochrome-9 multicolor-9:custom hierarchical-9:primary SFSymbolsPreviewWireframe" d="M77.9-33.6C77.9-42.9 65.1-50.5 49.4-50.5C33.7-50.5 20.9-42.9 20.9-33.6C20.9-26.1 37.9-22.2 49.4-22.2C60.9-22.2 77.9-26 77.9-33.6Z"/>
   <path class="monochrome-10 multicolor-10:custom hierarchical-10:primary SFSymbolsPreviewWireframe" d="M47.5-69.5C47.5-69.5 49.6-67.4 51.6-67.3C55.8-67.2 59.8-64.9 59.8-60.6C59.8-60.6 69.7-60.6 70.1-51.8C70.1-51.8 75.1-51.7 76.3-43C77.1-36.5 70.5-27.5 49.5-27.6C31-27.7 21.5-34.3 22.7-43C23.9-51.5 30.9-51.8 30.9-51.8C30.9-51.8 29.8-62.8 43.2-62.8C43.3-62.8 44.7-67.3 47.5-69.5Z"/>
   <path class="monochrome-11 multicolor-11:custom hierarchical-11:tertiary SFSymbolsPreviewWireframe" d="M70-51.8C70-52 69.9-52.3 69.9-52.5C69.7-53.8 69.1-55.4 68.4-56.6C68-57.1 67.7-57.6 67.2-57.9C69.3-49.5 56.7-39.5 44.6-37.2C28.9-34.2 22.6-43 22.6-43C21.9-38.5 24.2-34.6 29.2-31.8C48.7-23.8 70.2-43.2 70-51.8Z"/>
   <path class="monochrome-12 multicolor-12:custom hierarchical-12:tertiary SFSymbolsPreviewWireframe" d="M49.3-49.6C54.8-51.7 59.9-55.4 59.7-60.7C59.7-62.3 59.1-63.7 58.1-64.7C59.3-59.5 51.2-53.3 42.2-52.4C31-51.2 32.3-57.9 32.3-57.9C30.6-55 31-52 31-52C32.7-47.3 41.5-46.7 49.3-49.6Z"/>
   <path class="monochrome-13 multicolor-13:systemIndigoColor hierarchical-13:secondary SFSymbolsPreviewWireframe" d="M72.8-42.9L71-39.6C70.5-38.6 69.3-38.4 68.5-38.9C67.5-39.4 67.3-40.6 67.8-41.4L69.6-44.7C70.1-45.7 71.3-45.9 72.1-45.4C73.1-45 73.4-43.8 72.8-42.9Z"/>
   <path class="monochrome-14 multicolor-14:systemOrangeColor hierarchical-14:secondary SFSymbolsPreviewWireframe" d="M61.5-47.7L58-46.4C57-46 55.9-46.5 55.6-47.5C55.2-48.5 55.7-49.6 56.7-49.9L60.2-51.2C61.2-51.6 62.3-51.1 62.6-50.1C62.9-49.1 62.5-48.1 61.5-47.7Z"/>
   <path class="monochrome-15 multicolor-15:systemGreenColor hierarchical-15:secondary SFSymbolsPreviewWireframe" d="M46.5-42.7L48.9-39.8C49.6-39.1 49.5-37.9 48.8-37.1C48.1-36.4 46.9-36.5 46.1-37.2L43.7-40.1C43-40.8 43.1-42 43.8-42.8C44.7-43.6 45.9-43.4 46.5-42.7Z"/>
   <path class="monochrome-16 multicolor-16:systemBlueColor hierarchical-16:secondary SFSymbolsPreviewWireframe" d="M43.7-54L39.9-54.7C38.9-54.9 38.2-55.9 38.4-56.9C38.6-57.9 39.6-58.6 40.6-58.4L44.4-57.7C45.4-57.5 46.1-56.5 45.9-55.5C45.8-54.4 44.7-53.8 43.7-54Z"/>
   <path class="monochrome-17 multicolor-17:systemPinkColor hierarchical-17:secondary SFSymbolsPreviewWireframe" d="M31.9-42.6L29.7-39.6C29.1-38.8 27.9-38.6 27-39.2C26.2-39.8 26-41 26.6-41.9L28.8-44.9C29.4-45.7 30.6-45.9 31.5-45.3C32.3-44.6 32.5-43.4 31.9-42.6Z"/>
  </g>
  <g id="Regular-S" transform="matrix(1 0 0 1 1403.59 696)">
   <path class="monochrome-0 multicolor-0:systemCyanColor hierarchical-0:secondary SFSymbolsPreviewWireframe" d="M20.9-28.1C20.9-28.1 23.9-17.2 24.7-12.1C25.5-6.2 31.5-1.5 45.5-1.5C59.5-1.5 65.5-6.2 66.3-12C67-17.2 70.1-28 70.1-28L20.9-28.1L20.9-28.1Z"/>
   <path class="monochrome-1 multicolor-1:systemBlueColor hierarchical-1:tertiary SFSymbolsPreviewWireframe" d="M63.6-8.5C63.2-8.5 62.9-8.9 62.9-9.2L62.9-9.3L65.6-23.4C65.7-23.8 66-24.1 66.4-24C66.8-23.9 67.1-23.6 67-23.2L64.3-9.1C64.2-8.8 63.9-8.5 63.6-8.5Z"/>
   <path class="monochrome-2 multicolor-2:systemBlueColor hierarchical-2:tertiary SFSymbolsPreviewWireframe" d="M58-5C57.5-5 57-5.4 57-6L57-6.1L59.1-21C59.2-21.5 59.7-21.8 60.2-21.7C60.7-21.6 61-21.2 60.9-20.6L58.8-5.7C58.9-5.3 58.5-5 58-5Z"/>
   <path class="monochrome-3 multicolor-3:systemBlueColor hierarchical-3:tertiary SFSymbolsPreviewWireframe" d="M52.3-3C51.7-3.1 51.3-3.5 51.3-4L52.6-20.1C52.6-20.6 53.1-21.1 53.6-20.9C54.1-20.9 54.6-20.4 54.4-19.9L53.1-3.8C53.2-3.3 52.8-3 52.3-3Z"/>
   <path class="monochrome-4 multicolor-4:systemBlueColor hierarchical-4:tertiary SFSymbolsPreviewWireframe" d="M45.5-2.3C45-2.3 44.5-2.7 44.5-3.3L44.5-19.6C44.5-20.1 44.9-20.6 45.5-20.6C46-20.6 46.5-20.2 46.5-19.6L46.5-3.3C46.4-2.8 46-2.3 45.5-2.3Z"/>
   <path class="monochrome-5 multicolor-5:systemBlueColor hierarchical-5:tertiary SFSymbolsPreviewWireframe" d="M38.9-3C38.4-3 37.9-3.4 37.9-3.8L36.6-19.9C36.6-20.4 37-20.9 37.4-20.9C37.9-20.9 38.4-20.5 38.4-20.1L39.7-4C39.8-3.4 39.5-3 38.9-3Z"/>
   <path class="monochrome-6 multicolor-6:systemBlueColor hierarchical-6:tertiary SFSymbolsPreviewWireframe" d="M32.8-4.8C32.3-4.8 32-5.2 31.8-5.6L29.9-20.8C29.8-21.3 30.3-21.8 30.7-21.8C31.2-21.9 31.7-21.6 31.7-21.1L33.6-6C33.7-5.5 33.2-5 32.8-5C32.9-4.8 32.8-4.8 32.8-4.8Z"/>
   <path class="monochrome-7 multicolor-7:systemBlueColor hierarchical-7:tertiary SFSymbolsPreviewWireframe" d="M27.6-8.6C27.2-8.6 27-8.8 26.9-9.2L24.1-23.3C24-23.7 24.2-24 24.6-24.1C25-24.2 25.3-24 25.4-23.5L28.2-9.4C28.3-9 28.1-8.7 27.7-8.6L27.6-8.6Z"/>
   <path class="monochrome-8 multicolor-8:custom hierarchical-8:primary SFSymbolsPreviewWireframe" d="M21.2-27.9C21.7-25.6 22.5-24.1 23.7-24.9C25-25.6 26.8-25.3 26.2-23.7C25.7-22.2 28-21.6 29-22.4C30-23.1 32-24.1 32.1-22.3C32.2-20.7 34.3-20.2 35.2-21.5C36.2-22.8 38.7-22.2 39.2-20.8C39.7-19.2 42.2-19.5 43-20.6C43.7-21.6 44.3-22.3 45.4-22.3C46.5-22.3 47.2-21.6 47.8-20.6C48.5-19.6 51.1-19.3 51.6-20.8C52.1-22.4 54.6-22.9 55.6-21.5C56.6-20.3 58.6-20.8 58.7-22.3C58.8-24.1 60.9-23.3 61.8-22.4C62.8-21.6 65.2-22.3 64.6-23.7C64-25.3 65.9-25.6 67.1-24.9C68.4-24.2 69.2-25.6 69.6-27.9L21.2-27.9Z"/>
   <path class="monochrome-9 multicolor-9:custom hierarchical-9:primary SFSymbolsPreviewWireframe" d="M73.9-33.6C73.9-42.9 61.1-50.5 45.4-50.5C29.7-50.5 16.9-42.9 16.9-33.6C16.9-26.1 33.9-22.2 45.4-22.2C56.9-22.2 73.9-26 73.9-33.6Z"/>
   <path class="monochrome-10 multicolor-10:custom hierarchical-10:primary SFSymbolsPreviewWireframe" d="M43.5-69.5C43.5-69.5 45.6-67.4 47.6-67.3C51.8-67.2 55.8-64.9 55.8-60.6C55.8-60.6 65.7-60.6 66.1-51.8C66.1-51.8 71.1-51.7 72.3-43C73.1-36.5 66.5-27.5 45.5-27.6C27-27.7 17.5-34.3 18.7-43C19.9-51.5 26.9-51.8 26.9-51.8C26.9-51.8 25.8-62.8 39.2-62.8C39.3-62.8 40.7-67.3 43.5-69.5Z"/>
   <path class="monochrome-11 multicolor-11:custom hierarchical-11:tertiary SFSymbolsPreviewWireframe" d="M66-51.8C66-52 65.9-52.3 65.9-52.5C65.7-53.8 65.1-55.4 64.4-56.6C64-57.1 63.7-57.6 63.2-57.9C65.3-49.5 52.7-39.5 40.6-37.2C24.9-34.2 18.6-43 18.6-43C17.9-38.5 20.2-34.6 25.2-31.8C44.7-23.8 66.2-43.2 66-51.8Z"/>
   <path class="monochrome-12 multicolor-12:custom hierarchical-12:tertiary SFSymbolsPreviewWireframe" d="M45.3-49.6C50.8-51.7 55.9-55.4 55.7-60.7C55.7-62.3 55.1-63.7 54.1-64.7C55.3-59.5 47.2-53.3 38.2-52.4C27-51.2 28.3-57.9 28.3-57.9C26.6-55 27-52 27-52C28.7-47.3 37.5-46.7 45.3-49.6Z"/>
   <path class="monochrome-13 multicolor-13:systemIndigoColor hierarchical-13:secondary SFSymbolsPreviewWireframe" d="M68.8-42.9L67-39.6C66.5-38.6 65.3-38.4 64.5-38.9C63.5-39.4 63.3-40.6 63.8-41.4L65.6-44.7C66.1-45.7 67.3-45.9 68.1-45.4C69.1-45 69.4-43.8 68.8-42.9Z"/>
   <path class="monochrome-14 multicolor-14:systemOrangeColor hierarchical-14:secondary SFSymbolsPreviewWireframe" d="M57.5-47.7L54-46.4C53-46 51.9-46.5 51.6-47.5C51.2-48.5 51.7-49.6 52.7-49.9L56.2-51.2C57.2-51.6 58.3-51.1 58.6-50.1C59-49.2 58.5-48.1 57.5-47.7Z"/>
   <path class="monochrome-15 multicolor-15:systemGreenColor hierarchical-15:secondary SFSymbolsPreviewWireframe" d="M42.5-42.7L44.9-39.8C45.6-39.1 45.5-37.9 44.8-37.1C44.1-36.4 42.9-36.5 42.1-37.2L39.7-40.1C39-40.8 39.1-42 39.8-42.8C40.7-43.6 41.9-43.4 42.5-42.7Z"/>
   <path class="monochrome-16 multicolor-16:systemBlueColor hierarchical-16:secondary SFSymbolsPreviewWireframe" d="M39.7-54L35.9-54.7C34.9-54.9 34.2-55.9 34.4-56.9C34.6-57.9 35.6-58.6 36.6-58.4L40.4-57.7C41.4-57.5 42.1-56.5 41.9-55.5C41.8-54.4 40.7-53.8 39.7-54Z"/>
   <path class="monochrome-17 multicolor-17:systemPinkColor hierarchical-17:secondary SFSymbolsPreviewWireframe" d="M27.9-42.6L25.7-39.6C25.1-38.8 23.9-38.6 23-39.2C22.2-39.8 22-41 22.6-41.9L24.8-44.9C25.4-45.7 26.6-45.9 27.5-45.3C28.3-44.6 28.5-43.4 27.9-42.6Z"/>
  </g>
  <g id="Ultralight-S" transform="matrix(1 0 0 1 515.611 696)">
   <path class="monochrome-0 multicolor-0:systemCyanColor hierarchical-0:secondary SFSymbolsPreviewWireframe" d="M19.9-28.1C19.9-28.1 22.9-17.2 23.7-12.1C24.5-6.2 30.5-1.5 44.5-1.5C58.5-1.5 64.5-6.2 65.3-12C66-17.2 69.1-28 69.1-28L19.9-28.1L19.9-28.1Z"/>
   <path class="monochrome-1 multicolor-1:systemBlueColor hierarchical-1:tertiary SFSymbolsPreviewWireframe" d="M62.6-8.5C62.2-8.5 61.9-8.9 61.9-9.2L61.9-9.3L64.6-23.4C64.7-23.8 65-24.1 65.4-24C65.8-23.9 66.1-23.6 66-23.2L63.3-9.1C63.2-8.8 62.9-8.5 62.6-8.5Z"/>
   <path class="monochrome-2 multicolor-2:systemBlueColor hierarchical-2:tertiary SFSymbolsPreviewWireframe" d="M57-5C56.5-5 56-5.4 56-6L56-6.1L58.1-21C58.2-21.5 58.7-21.8 59.2-21.7C59.7-21.6 60-21.2 59.9-20.6L57.8-5.7C57.9-5.3 57.5-5 57-5Z"/>
   <path class="monochrome-3 multicolor-3:systemBlueColor hierarchical-3:tertiary SFSymbolsPreviewWireframe" d="M51.3-3C50.7-3.1 50.3-3.5 50.3-4L51.6-20.1C51.6-20.6 52.1-21.1 52.6-20.9C53.1-20.9 53.6-20.4 53.4-19.9L52.1-3.8C52.2-3.3 51.8-3 51.3-3Z"/>
   <path class="monochrome-4 multicolor-4:systemBlueColor hierarchical-4:tertiary SFSymbolsPreviewWireframe" d="M44.5-2.3C44-2.3 43.5-2.7 43.5-3.3L43.5-19.6C43.5-20.1 43.9-20.6 44.5-20.6C45.1-20.6 45.5-20.2 45.5-19.6L45.5-3.3C45.4-2.8 45-2.3 44.5-2.3Z"/>
   <path class="monochrome-5 multicolor-5:systemBlueColor hierarchical-5:tertiary SFSymbolsPreviewWireframe" d="M37.9-3C37.4-3 36.9-3.4 36.9-3.8L35.6-19.9C35.6-20.4 36-20.9 36.4-20.9C36.9-20.9 37.4-20.5 37.4-20.1L38.7-4C38.8-3.4 38.5-3 37.9-3Z"/>
   <path class="monochrome-6 multicolor-6:systemBlueColor hierarchical-6:tertiary SFSymbolsPreviewWireframe" d="M31.8-4.8C31.3-4.8 31-5.2 30.8-5.6L28.9-20.8C28.8-21.3 29.3-21.8 29.7-21.8C30.2-21.9 30.7-21.6 30.7-21.1L32.6-6C32.7-5.5 32.2-5 31.8-5C31.9-4.8 31.8-4.8 31.8-4.8Z"/>
   <path class="monochrome-7 multicolor-7:systemBlueColor hierarchical-7:tertiary SFSymbolsPreviewWireframe" d="M26.6-8.6C26.2-8.6 26-8.8 25.9-9.2L23.1-23.3C23-23.7 23.2-24 23.6-24.1C24-24.2 24.3-24 24.4-23.5L27.2-9.4C27.3-9 27.1-8.7 26.7-8.6L26.6-8.6Z"/>
   <path class="monochrome-8 multicolor-8:custom hierarchical-8:primary SFSymbolsPreviewWireframe" d="M20.2-27.9C20.7-25.6 21.5-24.1 22.7-24.9C24-25.6 25.8-25.3 25.2-23.7C24.7-22.2 27-21.6 28-22.4C29-23.1 31-24.1 31.1-22.3C31.2-20.7 33.3-20.2 34.2-21.5C35.2-22.8 37.7-22.2 38.2-20.8C38.7-19.2 41.2-19.5 42-20.6C42.7-21.6 43.3-22.3 44.4-22.3C45.5-22.3 46.2-21.6 46.8-20.6C47.4-19.6 50.1-19.3 50.6-20.8C51.1-22.4 53.6-22.9 54.6-21.5C55.6-20.3 57.6-20.8 57.7-22.3C57.8-24.1 59.9-23.3 60.8-22.4C61.8-21.6 64.2-22.3 63.6-23.7C63-25.3 64.9-25.6 66.1-24.9C67.4-24.2 68.2-25.6 68.6-27.9L20.2-27.9Z"/>
   <path class="monochrome-9 multicolor-9:custom hierarchical-9:primary SFSymbolsPreviewWireframe" d="M72.9-33.6C72.9-42.9 60.1-50.5 44.4-50.5C28.7-50.5 15.9-42.9 15.9-33.6C15.9-26.1 32.9-22.2 44.4-22.2C55.9-22.2 72.9-26 72.9-33.6Z"/>
   <path class="monochrome-10 multicolor-10:custom hierarchical-10:primary SFSymbolsPreviewWireframe" d="M42.5-69.5C42.5-69.5 44.6-67.4 46.6-67.3C50.8-67.2 54.8-64.9 54.8-60.6C54.8-60.6 64.7-60.6 65.1-51.8C65.1-51.8 70.1-51.7 71.3-43C72.1-36.5 65.5-27.5 44.5-27.6C26-27.7 16.5-34.3 17.7-43C18.9-51.5 25.9-51.8 25.9-51.8C25.9-51.8 24.8-62.8 38.2-62.8C38.3-62.8 39.7-67.3 42.5-69.5Z"/>
   <path class="monochrome-11 multicolor-11:custom hierarchical-11:tertiary SFSymbolsPreviewWireframe" d="M65-51.8C65-52 64.9-52.3 64.9-52.5C64.7-53.8 64.1-55.4 63.4-56.6C63-57.1 62.7-57.6 62.2-57.9C64.3-49.5 51.7-39.5 39.6-37.2C23.9-34.2 17.6-43 17.6-43C16.9-38.5 19.2-34.6 24.2-31.8C43.7-23.8 65.2-43.2 65-51.8Z"/>
   <path class="monochrome-12 multicolor-12:custom hierarchical-12:tertiary SFSymbolsPreviewWireframe" d="M44.3-49.6C49.8-51.7 54.9-55.4 54.7-60.7C54.7-62.3 54.1-63.7 53.1-64.7C54.3-59.5 46.2-53.3 37.2-52.4C26-51.2 27.3-57.9 27.3-57.9C25.6-55 26-52 26-52C27.7-47.3 36.5-46.7 44.3-49.6Z"/>
   <path class="monochrome-13 multicolor-13:systemIndigoColor hierarchical-13:secondary SFSymbolsPreviewWireframe" d="M67.8-42.9L66-39.6C65.5-38.6 64.3-38.4 63.5-38.9C62.5-39.4 62.3-40.6 62.8-41.4L64.6-44.7C65.1-45.7 66.3-45.9 67.1-45.4C68.1-45 68.4-43.8 67.8-42.9Z"/>
   <path class="monochrome-14 multicolor-14:systemOrangeColor hierarchical-14:secondary SFSymbolsPreviewWireframe" d="M56.5-47.7L53-46.4C52-46 50.9-46.5 50.6-47.5C50.2-48.5 50.7-49.6 51.7-49.9L55.2-51.2C56.2-51.6 57.3-51.1 57.6-50.1C57.9-49.1 57.5-48.1 56.5-47.7Z"/>
   <path class="monochrome-15 multicolor-15:systemGreenColor hierarchical-15:secondary SFSymbolsPreviewWireframe" d="M41.5-42.7L43.9-39.8C44.6-39.1 44.5-37.9 43.8-37.1C43.1-36.4 41.9-36.5 41.1-37.2L38.7-40.1C38-40.8 38.1-42 38.8-42.8C39.7-43.6 40.9-43.4 41.5-42.7Z"/>
   <path class="monochrome-16 multicolor-16:systemBlueColor hierarchical-16:secondary SFSymbolsPreviewWireframe" d="M38.7-54L34.9-54.7C33.9-54.9 33.2-55.9 33.4-56.9C33.6-57.9 34.6-58.6 35.6-58.4L39.4-57.7C40.4-57.5 41.1-56.5 40.9-55.5C40.8-54.4 39.7-53.8 38.7-54Z"/>
   <path class="monochrome-17 multicolor-17:systemPinkColor hierarchical-17:secondary SFSymbolsPreviewWireframe" d="M26.9-42.6L24.7-39.6C24.1-38.8 22.9-38.6 22-39.2C21.2-39.8 21-41 21.6-41.9L23.8-44.9C24.4-45.7 25.6-45.9 26.5-45.3C27.3-44.6 27.5-43.4 26.9-42.6Z"/>
  </g>
 </g>
</svg>
