<?xml version="1.0" encoding="UTF-8"?>
<!--Generator: Apple Native CoreSVG 341-->
<!DOCTYPE svg
PUBLIC "-//W3C//DTD SVG 1.1//EN"
       "http://www.w3.org/Graphics/SVG/1.1/DTD/svg11.dtd">
<svg version="1.1" xmlns="http://www.w3.org/2000/svg" xmlns:xlink="http://www.w3.org/1999/xlink" viewBox="0 0 3300 2200">
 <!--glyph: "", point size: 100.0, font version: "20.0d10e1", template writer version: "138.0.0"-->
 <style>.monochrome-0 {-sfsymbols-motion-group:4;-sfsymbols-layer-tags:-33d3b26050700115}
.monochrome-1 {-sfsymbols-motion-group:3;-sfsymbols-layer-tags:-33d3b26050700115}
.monochrome-2 {-sfsymbols-motion-group:2;-sfsymbols-always-pulses:true;-sfsymbols-layer-tags:-33d3b26050700115}
.monochrome-3 {opacity:0.0;-sfsymbols-clear-behind:true;-sfsymbols-motion-group:1;-sfsymbols-layer-tags:-33d3b26050700115}
.monochrome-4 {opacity:0.0;-sfsymbols-clear-behind:true;-sfsymbols-motion-group:0;-sfsymbols-layer-tags:-33d3b26050700115}

.multicolor-0:custom {fill:#FFEAC8;-sfsymbols-clear-behind:true;-sfsymbols-motion-group:4;-sfsymbols-layer-tags:-33d3b26050700115}
.multicolor-1:custom {fill:#D27856;-sfsymbols-motion-group:3;-sfsymbols-layer-tags:-33d3b26050700115}
.multicolor-2:custom {fill:#865B51;-sfsymbols-motion-group:2;-sfsymbols-always-pulses:true;-sfsymbols-layer-tags:-33d3b26050700115}
.multicolor-3:custom {fill:#2F2F2F;-sfsymbols-clear-behind:true;-sfsymbols-motion-group:1;-sfsymbols-layer-tags:-33d3b26050700115}
.multicolor-4:custom {fill:#2F2F2F;-sfsymbols-clear-behind:true;-sfsymbols-motion-group:0;-sfsymbols-layer-tags:-33d3b26050700115}

.hierarchical-0:tertiary {-sfsymbols-clear-behind:true;-sfsymbols-motion-group:4;-sfsymbols-layer-tags:-33d3b26050700115}
.hierarchical-1:secondary {-sfsymbols-motion-group:3;-sfsymbols-layer-tags:-33d3b26050700115}
.hierarchical-2:secondary {-sfsymbols-motion-group:2;-sfsymbols-layer-tags:-33d3b26050700115}
.hierarchical-3:primary {-sfsymbols-clear-behind:true;-sfsymbols-motion-group:1;-sfsymbols-layer-tags:-33d3b26050700115}
.hierarchical-4:primary {-sfsymbols-clear-behind:true;-sfsymbols-motion-group:0;-sfsymbols-layer-tags:-33d3b26050700115}

.SFSymbolsPreviewWireframe {fill:none;opacity:1.0;stroke:black;stroke-width:0.5}
</style>
 <g id="Notes">
  <rect height="2200" id="artboard" style="fill:white;opacity:1" width="3300" x="0" y="0"/>
  <line style="fill:none;stroke:black;opacity:1;stroke-width:0.5;" x1="263" x2="3036" y1="292" y2="292"/>
  <text style="stroke:none;fill:black;font-family:sans-serif;font-size:13;font-weight:bold;" transform="matrix(1 0 0 1 263 322)">Weight/Scale Variations</text>
  <text style="stroke:none;fill:black;font-family:sans-serif;font-size:13;text-anchor:middle;" transform="matrix(1 0 0 1 559.711 322)">Ultralight</text>
  <text style="stroke:none;fill:black;font-family:sans-serif;font-size:13;text-anchor:middle;" transform="matrix(1 0 0 1 856.422 322)">Thin</text>
  <text style="stroke:none;fill:black;font-family:sans-serif;font-size:13;text-anchor:middle;" transform="matrix(1 0 0 1 1153.13 322)">Light</text>
  <text style="stroke:none;fill:black;font-family:sans-serif;font-size:13;text-anchor:middle;" transform="matrix(1 0 0 1 1449.84 322)">Regular</text>
  <text style="stroke:none;fill:black;font-family:sans-serif;font-size:13;text-anchor:middle;" transform="matrix(1 0 0 1 1746.56 322)">Medium</text>
  <text style="stroke:none;fill:black;font-family:sans-serif;font-size:13;text-anchor:middle;" transform="matrix(1 0 0 1 2043.27 322)">Semibold</text>
  <text style="stroke:none;fill:black;font-family:sans-serif;font-size:13;text-anchor:middle;" transform="matrix(1 0 0 1 2339.98 322)">Bold</text>
  <text style="stroke:none;fill:black;font-family:sans-serif;font-size:13;text-anchor:middle;" transform="matrix(1 0 0 1 2636.69 322)">Heavy</text>
  <text style="stroke:none;fill:black;font-family:sans-serif;font-size:13;text-anchor:middle;" transform="matrix(1 0 0 1 2933.4 322)">Black</text>
  <line style="fill:none;stroke:black;opacity:1;stroke-width:0.5;" x1="263" x2="3036" y1="1903" y2="1903"/>
  <g transform="matrix(0.2 0 0 0.2 263 1933)">
   <path d="m46.2402 4.15039c21.7773 0 39.4531-17.627 39.4531-39.4043s-17.6758-39.4043-39.4531-39.4043c-21.7285 0-39.4043 17.627-39.4043 39.4043s17.6758 39.4043 39.4043 39.4043Zm0-7.42188c-17.6758 0-31.9336-14.3066-31.9336-31.9824s14.2578-31.9824 31.9336-31.9824 31.9824 14.3066 31.9824 31.9824-14.3066 31.9824-31.9824 31.9824Zm-17.9688-31.9824c0 2.14844 1.51367 3.61328 3.75977 3.61328h10.498v10.5957c0 2.19727 1.46484 3.71094 3.61328 3.71094 2.24609 0 3.71094-1.51367 3.71094-3.71094v-10.5957h10.5957c2.19727 0 3.71094-1.46484 3.71094-3.61328 0-2.19727-1.51367-3.71094-3.71094-3.71094h-10.5957v-10.5469c0-2.24609-1.46484-3.75977-3.71094-3.75977-2.14844 0-3.61328 1.51367-3.61328 3.75977v10.5469h-10.498c-2.24609 0-3.75977 1.51367-3.75977 3.71094Z"/>
  </g>
  <g transform="matrix(0.2 0 0 0.2 281.506 1933)">
   <path d="m58.5449 14.5508c27.4902 0 49.8047-22.3145 49.8047-49.8047s-22.3145-49.8047-49.8047-49.8047-49.8047 22.3145-49.8047 49.8047 22.3145 49.8047 49.8047 49.8047Zm0-8.30078c-22.9492 0-41.5039-18.5547-41.5039-41.5039s18.5547-41.5039 41.5039-41.5039 41.5039 18.5547 41.5039 41.5039-18.5547 41.5039-41.5039 41.5039Zm-22.6562-41.5039c0 2.39258 1.66016 4.00391 4.15039 4.00391h14.3555v14.4043c0 2.44141 1.66016 4.15039 4.05273 4.15039 2.44141 0 4.15039-1.66016 4.15039-4.15039v-14.4043h14.4043c2.44141 0 4.15039-1.61133 4.15039-4.00391 0-2.44141-1.70898-4.15039-4.15039-4.15039h-14.4043v-14.3555c0-2.49023-1.70898-4.19922-4.15039-4.19922-2.39258 0-4.05273 1.70898-4.05273 4.19922v14.3555h-14.3555c-2.49023 0-4.15039 1.70898-4.15039 4.15039Z"/>
  </g>
  <g transform="matrix(0.2 0 0 0.2 304.924 1933)">
   <path d="m74.8535 28.3203c35.1074 0 63.623-28.4668 63.623-63.5742s-28.5156-63.623-63.623-63.623-63.5742 28.5156-63.5742 63.623 28.4668 63.5742 63.5742 63.5742Zm0-9.08203c-30.127 0-54.4922-24.3652-54.4922-54.4922s24.3652-54.4922 54.4922-54.4922 54.4922 24.3652 54.4922 54.4922-24.3652 54.4922-54.4922 54.4922Zm-28.8574-54.4922c0 2.58789 1.85547 4.39453 4.58984 4.39453h19.7266v19.7754c0 2.68555 1.85547 4.58984 4.44336 4.58984 2.68555 0 4.54102-1.85547 4.54102-4.58984v-19.7754h19.7754c2.68555 0 4.58984-1.80664 4.58984-4.39453 0-2.73438-1.85547-4.58984-4.58984-4.58984h-19.7754v-19.7266c0-2.73438-1.85547-4.63867-4.54102-4.63867-2.58789 0-4.44336 1.9043-4.44336 4.63867v19.7266h-19.7266c-2.73438 0-4.58984 1.85547-4.58984 4.58984Z"/>
  </g>
  <text style="stroke:none;fill:black;font-family:sans-serif;font-size:13;font-weight:bold;" transform="matrix(1 0 0 1 263 1953)">Design Variations</text>
  <text style="stroke:none;fill:black;font-family:sans-serif;font-size:13;" transform="matrix(1 0 0 1 263 1971)">Symbols are supported in up to nine weights and three scales.</text>
  <text style="stroke:none;fill:black;font-family:sans-serif;font-size:13;" transform="matrix(1 0 0 1 263 1989)">For optimal layout with text and other symbols, vertically align</text>
  <text style="stroke:none;fill:black;font-family:sans-serif;font-size:13;" transform="matrix(1 0 0 1 263 2007)">symbols with the adjacent text.</text>
  <line style="fill:none;stroke:#00AEEF;stroke-width:0.5;opacity:1.0;" x1="776" x2="776" y1="1919" y2="1933"/>
  <g transform="matrix(0.2 0 0 0.2 776 1933)">
   <path d="m16.5527 0.78125c2.58789 0 3.85742-0.976562 4.78516-3.71094l6.29883-17.2363h28.8086l6.29883 17.2363c0.927734 2.73438 2.19727 3.71094 4.73633 3.71094 2.58789 0 4.24805-1.5625 4.24805-4.00391 0-0.830078-0.146484-1.61133-0.537109-2.63672l-22.9004-60.9863c-1.12305-2.97852-3.125-4.49219-6.25-4.49219-3.02734 0-5.07812 1.46484-6.15234 4.44336l-22.9004 61.084c-0.390625 1.02539-0.537109 1.80664-0.537109 2.63672 0 2.44141 1.5625 3.95508 4.10156 3.95508Zm13.4766-28.3691 11.8652-32.8613h0.244141l11.8652 32.8613Z"/>
  </g>
  <line style="fill:none;stroke:#00AEEF;stroke-width:0.5;opacity:1.0;" x1="792.836" x2="792.836" y1="1919" y2="1933"/>
  <text style="stroke:none;fill:black;font-family:sans-serif;font-size:13;font-weight:bold;" transform="matrix(1 0 0 1 776 1953)">Margins</text>
  <text style="stroke:none;fill:black;font-family:sans-serif;font-size:13;" transform="matrix(1 0 0 1 776 1971)">Leading and trailing margins on the left and right side of each symbol</text>
  <text style="stroke:none;fill:black;font-family:sans-serif;font-size:13;" transform="matrix(1 0 0 1 776 1989)">can be adjusted by modifying the x-location of the margin guidelines.</text>
  <text style="stroke:none;fill:black;font-family:sans-serif;font-size:13;" transform="matrix(1 0 0 1 776 2007)">Modifications are automatically applied proportionally to all</text>
  <text style="stroke:none;fill:black;font-family:sans-serif;font-size:13;" transform="matrix(1 0 0 1 776 2025)">scales and weights.</text>
  <g transform="matrix(0.2 0 0 0.2 1289 1933)">
   <path d="m14.209 9.32617 8.49609 8.54492c4.29688 4.3457 9.22852 4.05273 13.8672-1.07422l53.4668-58.9355-4.83398-4.88281-53.0762 58.3984c-1.75781 2.00195-3.41797 2.49023-5.76172 0.146484l-5.85938-5.81055c-2.34375-2.29492-1.80664-4.00391 0.195312-5.81055l57.373-54.0039-4.88281-4.83398-57.959 54.4434c-4.93164 4.58984-5.32227 9.47266-1.02539 13.8184Zm32.0801-90.9668c-2.09961 2.05078-2.24609 4.93164-1.07422 6.88477 1.17188 1.80664 3.4668 2.97852 6.68945 2.14844 7.32422-1.70898 14.9414-2.00195 22.0703 2.68555l-2.92969 7.27539c-1.70898 4.15039-0.830078 7.08008 1.85547 9.81445l11.4746 11.5723c2.44141 2.44141 4.49219 2.53906 7.32422 2.05078l5.32227-0.976562 3.32031 3.36914-0.195312 2.7832c-0.195312 2.49023 0.439453 4.39453 2.88086 6.78711l3.80859 3.71094c2.39258 2.39258 5.46875 2.53906 7.8125 0.195312l14.5508-14.5996c2.34375-2.34375 2.24609-5.32227-0.146484-7.71484l-3.85742-3.80859c-2.39258-2.39258-4.24805-3.17383-6.64062-2.97852l-2.88086 0.244141-3.22266-3.17383 1.2207-5.61523c0.634766-2.83203-0.146484-5.0293-3.07617-7.95898l-10.9863-10.9375c-16.6992-16.6016-38.8672-16.2109-53.3203-1.75781Zm7.4707 1.85547c12.1582-8.88672 28.6133-7.37305 39.7461 3.75977l12.1582 12.0605c1.17188 1.17188 1.36719 2.09961 1.02539 3.80859l-1.61133 7.42188 7.51953 7.42188 4.93164-0.292969c1.26953-0.0488281 1.66016 0.0488281 2.63672 1.02539l2.88086 2.88086-12.207 12.207-2.88086-2.88086c-0.976562-0.976562-1.12305-1.36719-1.07422-2.68555l0.341797-4.88281-7.4707-7.42188-7.61719 1.26953c-1.61133 0.341797-2.34375 0.195312-3.56445-0.976562l-10.0098-10.0098c-1.26953-1.17188-1.41602-2.00195-0.634766-3.85742l4.39453-10.4492c-7.8125-7.27539-17.9688-10.4004-28.125-7.42188-0.78125 0.195312-1.07422-0.439453-0.439453-0.976562Z"/>
  </g>
  <text style="stroke:none;fill:black;font-family:sans-serif;font-size:13;font-weight:bold;" transform="matrix(1 0 0 1 1289 1953)">Exporting</text>
  <text style="stroke:none;fill:black;font-family:sans-serif;font-size:13;" transform="matrix(1 0 0 1 1289 1971)">Symbols should be outlined when exporting to ensure the</text>
  <text style="stroke:none;fill:black;font-family:sans-serif;font-size:13;" transform="matrix(1 0 0 1 1289 1989)">design is preserved when submitting to Xcode.</text>
  <text id="template-version" style="stroke:none;fill:black;font-family:sans-serif;font-size:13;text-anchor:end;" transform="matrix(1 0 0 1 3036 1933)">Template v.6.0</text>
  <text style="stroke:none;fill:black;font-family:sans-serif;font-size:13;text-anchor:end;" transform="matrix(1 0 0 1 3036 1951)">Requires Xcode 16 or greater</text>
  <text id="descriptive-name" style="stroke:none;fill:black;font-family:sans-serif;font-size:13;text-anchor:end;" transform="matrix(1 0 0 1 3036 1969)">Generated from dog</text>
  <text style="stroke:none;fill:black;font-family:sans-serif;font-size:13;text-anchor:end;" transform="matrix(1 0 0 1 3036 1987)">Typeset at 100.0 points</text>
  <text style="stroke:none;fill:black;font-family:sans-serif;font-size:13;" transform="matrix(1 0 0 1 263 726)">Small</text>
  <text style="stroke:none;fill:black;font-family:sans-serif;font-size:13;" transform="matrix(1 0 0 1 263 1156)">Medium</text>
  <text style="stroke:none;fill:black;font-family:sans-serif;font-size:13;" transform="matrix(1 0 0 1 263 1586)">Large</text>
 </g>
 <g id="Guides">
  <g id="H-reference" style="fill:#27AAE1;stroke:none;" transform="matrix(1 0 0 1 339 696)">
   <path d="M0.993654 0L3.63775 0L29.3281-67.1323L30.0303-67.1323L30.0303-70.459L28.1226-70.459ZM11.6885-24.4799L46.9815-24.4799L46.2315-26.7285L12.4385-26.7285ZM55.1196 0L57.7637 0L30.6382-70.459L29.4326-70.459L29.4326-67.1323Z"/>
  </g>
  <line id="Baseline-S" style="fill:none;stroke:#27AAE1;opacity:1;stroke-width:0.5;" x1="263" x2="3036" y1="696" y2="696"/>
  <line id="Capline-S" style="fill:none;stroke:#27AAE1;opacity:1;stroke-width:0.5;" x1="263" x2="3036" y1="625.541" y2="625.541"/>
  <g id="H-reference" style="fill:#27AAE1;stroke:none;" transform="matrix(1 0 0 1 339 1126)">
   <path d="M0.993654 0L3.63775 0L29.3281-67.1323L30.0303-67.1323L30.0303-70.459L28.1226-70.459ZM11.6885-24.4799L46.9815-24.4799L46.2315-26.7285L12.4385-26.7285ZM55.1196 0L57.7637 0L30.6382-70.459L29.4326-70.459L29.4326-67.1323Z"/>
  </g>
  <line id="Baseline-M" style="fill:none;stroke:#27AAE1;opacity:1;stroke-width:0.5;" x1="263" x2="3036" y1="1126" y2="1126"/>
  <line id="Capline-M" style="fill:none;stroke:#27AAE1;opacity:1;stroke-width:0.5;" x1="263" x2="3036" y1="1055.54" y2="1055.54"/>
  <g id="H-reference" style="fill:#27AAE1;stroke:none;" transform="matrix(1 0 0 1 339 1556)">
   <path d="M0.993654 0L3.63775 0L29.3281-67.1323L30.0303-67.1323L30.0303-70.459L28.1226-70.459ZM11.6885-24.4799L46.9815-24.4799L46.2315-26.7285L12.4385-26.7285ZM55.1196 0L57.7637 0L30.6382-70.459L29.4326-70.459L29.4326-67.1323Z"/>
  </g>
  <line id="Baseline-L" style="fill:none;stroke:#27AAE1;opacity:1;stroke-width:0.5;" x1="263" x2="3036" y1="1556" y2="1556"/>
  <line id="Capline-L" style="fill:none;stroke:#27AAE1;opacity:1;stroke-width:0.5;" x1="263" x2="3036" y1="1485.54" y2="1485.54"/>
  <line id="right-margin-Black-S" style="fill:none;stroke:#00AEEF;stroke-width:0.5;opacity:1.0;" x1="2982.2" x2="2982.2" y1="600.785" y2="720.121"/>
  <line id="left-margin-Black-S" style="fill:none;stroke:#FF3B30;stroke-width:0.5;opacity:1.0;" x1="2884.6" x2="2884.6" y1="600.785" y2="720.121"/>
  <line id="right-margin-Regular-S" style="fill:none;stroke:#00AEEF;stroke-width:0.5;opacity:1.0;" x1="1496.09" x2="1496.09" y1="600.785" y2="720.121"/>
  <line id="left-margin-Regular-S" style="fill:none;stroke:#00AEEF;stroke-width:0.5;opacity:1.0;" x1="1403.59" x2="1403.59" y1="600.785" y2="720.121"/>
  <line id="right-margin-Ultralight-S" style="fill:none;stroke:#00AEEF;stroke-width:0.5;opacity:1.0;" x1="603.811" x2="603.811" y1="600.785" y2="720.121"/>
  <line id="left-margin-Ultralight-S" style="fill:none;stroke:#00AEEF;stroke-width:0.5;opacity:1.0;" x1="515.611" x2="515.611" y1="600.785" y2="720.121"/>
 </g>
 <g id="Symbols">
  <g id="Black-S" transform="matrix(1 0 0 1 2884.6 696)">
   <path class="monochrome-0 multicolor-0:custom hierarchical-0:tertiary SFSymbolsPreviewWireframe" d="M48.3-71.5C24.5-72.1 16.7-53.7 16.1-46.7C15.7-41.3 13.3-21.6 24.6-8.4C30.4-1.6 39.7 1.9 49.6 1.7C59.5 1.5 68.6-0.5 74.6-8.5C84.8-21.9 83.7-42 82.3-48.4C80.9-54.5 75.9-70.9 48.3-71.5Z"/>
   <path class="monochrome-1 multicolor-1:custom hierarchical-1:secondary SFSymbolsPreviewWireframe" d="M11.5-66C11.5-66 3.4-62.8 1.4-58.1C-1.2-51.8-0.1-39.2 1.4-34.4C2.7-29.6 6.5-24.7 12.2-24.9C17.9-25.1 22.9-30.8 24.6-38.4C26.4-46 26.8-58.9 27.3-61.2C27.8-63.5 28.8-65.3 28.8-65.3C28.8-65.3 21.8-72.3 11.5-66L11.5-66ZM79-67.1C79-67.1 90-66.7 92.6-65.5C95.2-64.4 97.6-59.1 97.4-52.1C97.2-45.1 96.7-33.8 93.2-29.8C90.3-26.6 84.4-26.4 81.1-30.3C77.8-34.3 75.7-41.1 75-45.4C74.3-49.7 72.9-55.5 72.1-58C71.3-60.6 69.2-65.7 68.1-66.8C66.8-68.1 68.9-69.3 79-67.1Z"/>
   <path class="monochrome-2 multicolor-2:custom hierarchical-2:secondary SFSymbolsPreviewWireframe" d="M75.5-35.2C76.3-28.8 73.5-22.7 66.3-22.2C59.6-21.8 55.4-26 55.1-32.4C54.8-38.8 58.3-44.8 63.9-45.5C69.7-46 74.6-41.5 75.5-35.2L75.5-35.2ZM20.5-69.7C14.6-70.1 4.7-65.3 2.8-60.6C0.8-55.7 2-40 3.6-35.4C5.4-30.5 9.1-24.4 15.4-29.7C21.8-35 23.5-48.1 24.1-52.3C24.7-56.5 25.6-61.7 26.5-62.8C27.4-63.8 28.8-65.4 28.8-65.4C28.8-65.4 27.9-69.3 20.5-69.7L20.5-69.7ZM80.3-70.7C85.9-70.3 91.9-68.2 94.2-63.3C96.5-58.4 95.5-46.9 94.7-41.5C93.9-36 91.9-30.3 86.8-30.9C81.8-31.5 79.2-38.3 77.7-44.7C76.2-51.1 74.5-57.4 72.5-62.1C71.3-64.9 67.1-67 67.1-67C67.1-67 69.2-71.4 80.3-70.7L80.3-70.7Z"/>
   <path class="monochrome-3 multicolor-3:custom hierarchical-3:primary SFSymbolsPreviewWireframe" d="M37.1-13.9C36-12.2 38.1-10.8 39.9-9.7C41.7-8.5 43.8-6.7 46.3-6.7C49.1-6.7 49.9-8.7 49.9-8.7C49.9-8.7 50.8-6.4 54.9-6.8C57.1-7 59.7-9.5 60.5-10C62.1-11 63.9-12.4 63.1-13.4C62.2-14.6 60.2-13 58.2-11.9C56.2-10.9 55.5-10.3 54.1-10.3C52.6-10.3 51.5-10.9 51.5-13.4C51.4-15.5 51.5-15.8 51.5-15.8L48.1-15.8C48.1-15.8 48.2-13.6 48.2-13C48.2-11.3 47.4-10.7 45.7-10.6C44-10.5 42.4-11.8 41.5-12.4C40.7-13.1 38.1-15.3 37.1-13.9L37.1-13.9Z"/>
   <path class="monochrome-4 multicolor-4:custom hierarchical-4:primary SFSymbolsPreviewWireframe" d="M37.4-32.5C37.1-29.7 35.6-27.4 32.5-27.7C30.3-27.9 28.8-30.6 29.1-33.4C29.4-36.2 30.4-38.3 33-38.2C37.1-38.1 37.8-35.3 37.4-32.5ZM69.7-33.2C69.8-30.4 68.8-27.9 65.5-27.7C62.7-27.5 61.3-30 61-32.8C60.9-35.6 62.2-37.9 64.9-38.2C68.4-38.7 69.5-36.1 69.7-33.2L69.7-33.2ZM57.6-19C57.7-16.2 55.8-13.5 49.9-13.6C44.1-13.7 42-16 41.9-18.9C41.8-21.7 45-24.3 49.8-24.4C56.3-24.5 57.5-21.8 57.6-19L57.6-19Z"/>
  </g>
  <g id="Regular-S" transform="matrix(1 0 0 1 1403.59 696)">
   <path class="monochrome-0 multicolor-0:custom hierarchical-0:tertiary SFSymbolsPreviewWireframe" d="M45.9-69.1C23.5-69.7 16.2-52.3 15.6-45.8C15.2-40.7 13-22.2 23.6-9.7C29-3.3 37.8-0.1 47.1-0.3C56.4-0.5 64.9-2.4 70.6-9.8C80.1-22.4 79.1-41.2 77.9-47.2C76.6-53.1 71.8-68.4 45.9-69.1Z"/>
   <path class="monochrome-1 multicolor-1:custom hierarchical-1:secondary SFSymbolsPreviewWireframe" d="M11.4-63.9C11.4-63.9 3.8-61 2-56.5C-0.5-50.6 0.6-38.8 2-34.2C3.3-29.7 6.8-25.1 12.1-25.3C17.4-25.4 22.1-30.9 23.8-38C25.5-45.1 25.9-57.3 26.4-59.4C26.9-61.6 27.8-63.3 27.8-63.3C27.8-63.3 21-69.7 11.4-63.9L11.4-63.9ZM74.8-64.9C74.8-64.9 85.1-64.5 87.6-63.4C90.1-62.3 92.3-57.4 92.1-50.8C91.9-44.2 91.4-33.6 88.2-29.9C85.4-26.9 79.8-26.7 76.8-30.4C73.7-34.1 71.7-40.5 71-44.6C70.3-48.7 69-54 68.2-56.5C67.4-58.9 65.4-63.7 64.5-64.8C63.3-65.8 65.4-66.8 74.8-64.9Z"/>
   <path class="monochrome-2 multicolor-2:custom hierarchical-2:secondary SFSymbolsPreviewWireframe" d="M71.4-34.8C72.2-28.8 69.5-23 62.7-22.6C56.4-22.2 52.5-26.2 52.2-32.1C51.9-38.2 55.1-43.8 60.5-44.4C66-45.1 70.7-40.9 71.4-34.8L71.4-34.8ZM19.9-67.3C14.3-67.7 5.2-63.3 3.3-58.7C1.4-54.2 2.5-39.3 4.1-35C5.8-30.5 9.2-24.7 15.2-29.7C21.2-34.6 22.8-47 23.4-50.9C24-54.8 24.8-59.7 25.7-60.7C26.6-61.7 27.8-63.2 27.8-63.2C27.8-63.2 26.7-66.8 19.9-67.3L19.9-67.3ZM76.1-68.2C81.3-67.8 87-65.8 89.2-61.3C91.3-56.8 90.5-46 89.7-40.9C88.9-35.8 87-30.4 82.3-31C77.6-31.6 75.2-38 73.8-44C72.3-50 70.9-56 69-60.3C67.8-63 63.9-64.8 63.9-64.8C63.9-64.8 65.5-69 76.1-68.2L76.1-68.2Z"/>
   <path class="monochrome-3 multicolor-3:custom hierarchical-3:primary SFSymbolsPreviewWireframe" d="M35.5-14.9C34.4-13.3 36.5-12.1 38.2-10.9C39.9-9.8 41.9-8.1 44.3-8.1C47-8.1 47.7-10 47.7-10C47.7-10 48.6-7.8 52.3-8.2C54.4-8.4 56.8-10.7 57.6-11.1C59.1-12.1 60.7-13.3 60.1-14.3C59.2-15.5 57.3-13.9 55.5-12.9C53.6-11.9 52.9-11.4 51.6-11.4C50.2-11.4 49.2-12 49.1-14.3C49-16.3 49.1-16.6 49.1-16.6L45.9-16.6C45.9-16.6 46-14.5 46-14C46-12.5 45.2-11.8 43.6-11.7C42-11.6 40.5-12.9 39.7-13.4C38.7-14.2 36.3-16.2 35.5-14.9L35.5-14.9Z"/>
   <path class="monochrome-4 multicolor-4:custom hierarchical-4:primary SFSymbolsPreviewWireframe" d="M35.7-32.3C35.4-29.6 34-27.6 31.1-27.9C29-28.1 27.6-30.7 28-33.2C28.4-35.8 29.2-37.7 31.7-37.7C35.5-37.6 36.1-35 35.7-32.3ZM65.9-33C66-30.3 65-28.1 61.9-27.9C59.2-27.7 57.9-30 57.8-32.6C57.7-35.3 59-37.4 61.5-37.7C64.9-38.2 65.8-35.7 65.9-33L65.9-33ZM54.7-19.7C54.8-17 53-14.6 47.4-14.6C42-14.7 40-16.9 39.8-19.5C39.6-22.2 42.7-24.5 47.2-24.6C53.4-24.9 54.5-22.3 54.7-19.7L54.7-19.7Z"/>
  </g>
  <g id="Ultralight-S" transform="matrix(1 0 0 1 515.611 696)">
   <path class="monochrome-0 multicolor-0:custom hierarchical-0:tertiary SFSymbolsPreviewWireframe" d="M43.6-67.9C22.2-68.5 15.2-51.9 14.7-45.7C14.3-40.9 12.3-23.2 22.3-11.3C27.5-5.2 35.9-2.1 44.7-2.4C53.6-2.6 61.7-4.4 67.1-11.5C76.2-23.6 75.3-41.5 74-47.3C72.9-52.5 68.4-67.2 43.6-67.9Z"/>
   <path class="monochrome-1 multicolor-1:custom hierarchical-1:secondary SFSymbolsPreviewWireframe" d="M10.6-62.9C10.6-62.9 3.3-60.1 1.7-55.8C-0.7-50.1 0.4-38.8 1.7-34.5C2.9-30.2 6.2-25.8 11.4-25.9C16.5-26 21-31.3 22.6-38C24.2-44.8 24.6-56.4 25-58.4C25.4-60.4 26.3-62.2 26.3-62.2C26.3-62.2 19.9-68.4 10.6-62.9L10.6-62.9ZM71.2-63.8C71.2-63.8 81-63.4 83.4-62.4C85.8-61.4 87.9-56.7 87.7-50.3C87.5-43.9 87-33.8 83.9-30.3C81.3-27.4 76-27.2 73-30.8C70-34.4 68.2-40.5 67.4-44.5C66.7-48.5 65.5-53.5 64.8-55.8C64.1-58.1 62.2-62.7 61.2-63.7C60.2-64.8 62.2-65.7 71.2-63.8Z"/>
   <path class="monochrome-2 multicolor-2:custom hierarchical-2:secondary SFSymbolsPreviewWireframe" d="M68-35.1C68.8-29.4 66.2-23.9 59.7-23.5C53.7-23.1 50-27 49.7-32.6C49.4-38.3 52.5-43.8 57.6-44.3C62.8-44.9 67.2-40.8 68-35.1L68-35.1ZM18.7-66.2C13.3-66.6 4.6-62.3 2.8-58C1-53.7 2-39.5 3.6-35.4C5.2-31.1 8.5-25.6 14.2-30.3C19.9-35 21.5-46.8 22-50.6C22.6-54.4 23.3-59.1 24.2-60C25.1-60.9 26.2-62.4 26.2-62.4C26.2-62.4 25.3-65.7 18.7-66.2L18.7-66.2ZM72.3-67C77.3-66.6 82.8-64.7 84.7-60.4C86.6-56.1 85.9-45.7 85.2-40.8C84.5-35.9 82.7-30.8 78.1-31.3C73.6-31.9 71.3-37.9 69.9-43.6C68.5-49.3 67.1-55.1 65.3-59.2C64.2-61.7 60.5-63.5 60.5-63.5C60.5-63.5 62.2-67.7 72.3-67L72.3-67Z"/>
   <path class="monochrome-3 multicolor-3:custom hierarchical-3:primary SFSymbolsPreviewWireframe" d="M33.6-16.2C32.6-14.7 34.5-13.5 36.1-12.3C37.7-11.3 39.6-9.6 41.9-9.7C44.4-9.7 45.2-11.5 45.2-11.5C45.2-11.5 46-9.4 49.6-9.8C51.6-10 53.9-12.2 54.7-12.6C56.1-13.5 57.7-14.7 57.1-15.7C56.3-16.8 54.5-15.3 52.7-14.4C50.9-13.5 50.3-13 48.9-13C47.5-13 46.6-13.6 46.5-15.8C46.4-17.7 46.5-18 46.5-18L43.4-18C43.4-18 43.5-16 43.5-15.6C43.5-14.2 42.7-13.5 41.2-13.4C39.7-13.3 38.2-14.5 37.4-15C36.7-15.4 34.4-17.3 33.6-16.2L33.6-16.2Z"/>
   <path class="monochrome-4 multicolor-4:custom hierarchical-4:primary SFSymbolsPreviewWireframe" d="M33.9-32.7C33.6-30.2 32.3-28.2 29.5-28.5C27.5-28.7 26.2-31.1 26.5-33.6C26.8-36.1 27.6-37.9 30-37.9C33.6-37.8 34.2-35.3 33.9-32.7ZM62.7-33.4C62.8-30.9 61.9-28.7 58.9-28.5C56.4-28.3 55-30.5 54.9-33C54.8-35.5 56-37.6 58.5-37.9C61.7-38.4 62.6-35.9 62.7-33.4L62.7-33.4ZM52-20.7C52.1-18.2 50.4-15.8 45.1-15.9C39.9-16 38-18.1 37.9-20.6C37.8-23.1 40.7-25.4 45-25.5C50.8-25.6 51.9-23.2 52-20.7L52-20.7Z"/>
  </g>
 </g>
</svg>
