<?xml version="1.0" encoding="UTF-8"?>
<!--Generator: Apple Native CoreSVG 341-->
<!DOCTYPE svg
PUBLIC "-//W3C//DTD SVG 1.1//EN"
       "http://www.w3.org/Graphics/SVG/1.1/DTD/svg11.dtd">
<svg version="1.1" xmlns="http://www.w3.org/2000/svg" xmlns:xlink="http://www.w3.org/1999/xlink" viewBox="0 0 3300 2200">
 <!--glyph: "", point size: 100.0, font version: "20.0d10e1", template writer version: "138.0.0"-->
 <style>.monochrome-0 {-sfsymbols-motion-group:4;-sfsymbols-layer-tags:5023b066296d5101}
.monochrome-1 {-sfsymbols-motion-group:3;-sfsymbols-layer-tags:5023b066296d5101}
.monochrome-2 {-sfsymbols-motion-group:2;-sfsymbols-layer-tags:5023b066296d5101}
.monochrome-3 {opacity:0.0;-sfsymbols-clear-behind:true;-sfsymbols-motion-group:1;-sfsymbols-layer-tags:5023b066296d5101}
.monochrome-4 {opacity:0.0;-sfsymbols-clear-behind:true;-sfsymbols-motion-group:0;-sfsymbols-layer-tags:5023b066296d5101}

.multicolor-0:custom {fill:#FFEAC8;-sfsymbols-clear-behind:true;-sfsymbols-motion-group:4;-sfsymbols-layer-tags:5023b066296d5101}
.multicolor-1:custom {fill:#D27856;-sfsymbols-clear-behind:true;-sfsymbols-motion-group:3;-sfsymbols-layer-tags:5023b066296d5101}
.multicolor-2:custom {fill:#865B51;-sfsymbols-clear-behind:true;-sfsymbols-motion-group:2;-sfsymbols-layer-tags:5023b066296d5101}
.multicolor-3:black {-sfsymbols-clear-behind:true;-sfsymbols-motion-group:1;-sfsymbols-layer-tags:5023b066296d5101}
.multicolor-4:black {-sfsymbols-clear-behind:true;-sfsymbols-motion-group:0;-sfsymbols-layer-tags:5023b066296d5101}

.hierarchical-0:tertiary {-sfsymbols-clear-behind:true;-sfsymbols-motion-group:4;-sfsymbols-layer-tags:5023b066296d5101}
.hierarchical-1:primary {-sfsymbols-clear-behind:true;-sfsymbols-motion-group:3;-sfsymbols-layer-tags:5023b066296d5101}
.hierarchical-2:secondary {-sfsymbols-clear-behind:true;-sfsymbols-motion-group:2;-sfsymbols-layer-tags:5023b066296d5101}
.hierarchical-3:primary {-sfsymbols-clear-behind:true;-sfsymbols-motion-group:1;-sfsymbols-layer-tags:5023b066296d5101}
.hierarchical-4:primary {-sfsymbols-clear-behind:true;-sfsymbols-motion-group:0;-sfsymbols-layer-tags:5023b066296d5101}

.SFSymbolsPreviewWireframe {fill:none;opacity:1.0;stroke:black;stroke-width:0.5}
</style>
 <g id="Notes">
  <rect height="2200" id="artboard" style="fill:white;opacity:1" width="3300" x="0" y="0"/>
  <line style="fill:none;stroke:black;opacity:1;stroke-width:0.5;" x1="263" x2="3036" y1="292" y2="292"/>
  <text style="stroke:none;fill:black;font-family:sans-serif;font-size:13;font-weight:bold;" transform="matrix(1 0 0 1 263 322)">Weight/Scale Variations</text>
  <text style="stroke:none;fill:black;font-family:sans-serif;font-size:13;text-anchor:middle;" transform="matrix(1 0 0 1 559.711 322)">Ultralight</text>
  <text style="stroke:none;fill:black;font-family:sans-serif;font-size:13;text-anchor:middle;" transform="matrix(1 0 0 1 856.422 322)">Thin</text>
  <text style="stroke:none;fill:black;font-family:sans-serif;font-size:13;text-anchor:middle;" transform="matrix(1 0 0 1 1153.13 322)">Light</text>
  <text style="stroke:none;fill:black;font-family:sans-serif;font-size:13;text-anchor:middle;" transform="matrix(1 0 0 1 1449.84 322)">Regular</text>
  <text style="stroke:none;fill:black;font-family:sans-serif;font-size:13;text-anchor:middle;" transform="matrix(1 0 0 1 1746.56 322)">Medium</text>
  <text style="stroke:none;fill:black;font-family:sans-serif;font-size:13;text-anchor:middle;" transform="matrix(1 0 0 1 2043.27 322)">Semibold</text>
  <text style="stroke:none;fill:black;font-family:sans-serif;font-size:13;text-anchor:middle;" transform="matrix(1 0 0 1 2339.98 322)">Bold</text>
  <text style="stroke:none;fill:black;font-family:sans-serif;font-size:13;text-anchor:middle;" transform="matrix(1 0 0 1 2636.69 322)">Heavy</text>
  <text style="stroke:none;fill:black;font-family:sans-serif;font-size:13;text-anchor:middle;" transform="matrix(1 0 0 1 2933.4 322)">Black</text>
  <line style="fill:none;stroke:black;opacity:1;stroke-width:0.5;" x1="263" x2="3036" y1="1903" y2="1903"/>
  <g transform="matrix(0.2 0 0 0.2 263 1933)">
   <path d="m46.2402 4.15039c21.7773 0 39.4531-17.627 39.4531-39.4043s-17.6758-39.4043-39.4531-39.4043c-21.7285 0-39.4043 17.627-39.4043 39.4043s17.6758 39.4043 39.4043 39.4043Zm0-7.42188c-17.6758 0-31.9336-14.3066-31.9336-31.9824s14.2578-31.9824 31.9336-31.9824 31.9824 14.3066 31.9824 31.9824-14.3066 31.9824-31.9824 31.9824Zm-17.9688-31.9824c0 2.14844 1.51367 3.61328 3.75977 3.61328h10.498v10.5957c0 2.19727 1.46484 3.71094 3.61328 3.71094 2.24609 0 3.71094-1.51367 3.71094-3.71094v-10.5957h10.5957c2.19727 0 3.71094-1.46484 3.71094-3.61328 0-2.19727-1.51367-3.71094-3.71094-3.71094h-10.5957v-10.5469c0-2.24609-1.46484-3.75977-3.71094-3.75977-2.14844 0-3.61328 1.51367-3.61328 3.75977v10.5469h-10.498c-2.24609 0-3.75977 1.51367-3.75977 3.71094Z"/>
  </g>
  <g transform="matrix(0.2 0 0 0.2 281.506 1933)">
   <path d="m58.5449 14.5508c27.4902 0 49.8047-22.3145 49.8047-49.8047s-22.3145-49.8047-49.8047-49.8047-49.8047 22.3145-49.8047 49.8047 22.3145 49.8047 49.8047 49.8047Zm0-8.30078c-22.9492 0-41.5039-18.5547-41.5039-41.5039s18.5547-41.5039 41.5039-41.5039 41.5039 18.5547 41.5039 41.5039-18.5547 41.5039-41.5039 41.5039Zm-22.6562-41.5039c0 2.39258 1.66016 4.00391 4.15039 4.00391h14.3555v14.4043c0 2.44141 1.66016 4.15039 4.05273 4.15039 2.44141 0 4.15039-1.66016 4.15039-4.15039v-14.4043h14.4043c2.44141 0 4.15039-1.61133 4.15039-4.00391 0-2.44141-1.70898-4.15039-4.15039-4.15039h-14.4043v-14.3555c0-2.49023-1.70898-4.19922-4.15039-4.19922-2.39258 0-4.05273 1.70898-4.05273 4.19922v14.3555h-14.3555c-2.49023 0-4.15039 1.70898-4.15039 4.15039Z"/>
  </g>
  <g transform="matrix(0.2 0 0 0.2 304.924 1933)">
   <path d="m74.8535 28.3203c35.1074 0 63.623-28.4668 63.623-63.5742s-28.5156-63.623-63.623-63.623-63.5742 28.5156-63.5742 63.623 28.4668 63.5742 63.5742 63.5742Zm0-9.08203c-30.127 0-54.4922-24.3652-54.4922-54.4922s24.3652-54.4922 54.4922-54.4922 54.4922 24.3652 54.4922 54.4922-24.3652 54.4922-54.4922 54.4922Zm-28.8574-54.4922c0 2.58789 1.85547 4.39453 4.58984 4.39453h19.7266v19.7754c0 2.68555 1.85547 4.58984 4.44336 4.58984 2.68555 0 4.54102-1.85547 4.54102-4.58984v-19.7754h19.7754c2.68555 0 4.58984-1.80664 4.58984-4.39453 0-2.73438-1.85547-4.58984-4.58984-4.58984h-19.7754v-19.7266c0-2.73438-1.85547-4.63867-4.54102-4.63867-2.58789 0-4.44336 1.9043-4.44336 4.63867v19.7266h-19.7266c-2.73438 0-4.58984 1.85547-4.58984 4.58984Z"/>
  </g>
  <text style="stroke:none;fill:black;font-family:sans-serif;font-size:13;font-weight:bold;" transform="matrix(1 0 0 1 263 1953)">Design Variations</text>
  <text style="stroke:none;fill:black;font-family:sans-serif;font-size:13;" transform="matrix(1 0 0 1 263 1971)">Symbols are supported in up to nine weights and three scales.</text>
  <text style="stroke:none;fill:black;font-family:sans-serif;font-size:13;" transform="matrix(1 0 0 1 263 1989)">For optimal layout with text and other symbols, vertically align</text>
  <text style="stroke:none;fill:black;font-family:sans-serif;font-size:13;" transform="matrix(1 0 0 1 263 2007)">symbols with the adjacent text.</text>
  <line style="fill:none;stroke:#00AEEF;stroke-width:0.5;opacity:1.0;" x1="776" x2="776" y1="1919" y2="1933"/>
  <g transform="matrix(0.2 0 0 0.2 776 1933)">
   <path d="m16.5527 0.78125c2.58789 0 3.85742-0.976562 4.78516-3.71094l6.29883-17.2363h28.8086l6.29883 17.2363c0.927734 2.73438 2.19727 3.71094 4.73633 3.71094 2.58789 0 4.24805-1.5625 4.24805-4.00391 0-0.830078-0.146484-1.61133-0.537109-2.63672l-22.9004-60.9863c-1.12305-2.97852-3.125-4.49219-6.25-4.49219-3.02734 0-5.07812 1.46484-6.15234 4.44336l-22.9004 61.084c-0.390625 1.02539-0.537109 1.80664-0.537109 2.63672 0 2.44141 1.5625 3.95508 4.10156 3.95508Zm13.4766-28.3691 11.8652-32.8613h0.244141l11.8652 32.8613Z"/>
  </g>
  <line style="fill:none;stroke:#00AEEF;stroke-width:0.5;opacity:1.0;" x1="792.836" x2="792.836" y1="1919" y2="1933"/>
  <text style="stroke:none;fill:black;font-family:sans-serif;font-size:13;font-weight:bold;" transform="matrix(1 0 0 1 776 1953)">Margins</text>
  <text style="stroke:none;fill:black;font-family:sans-serif;font-size:13;" transform="matrix(1 0 0 1 776 1971)">Leading and trailing margins on the left and right side of each symbol</text>
  <text style="stroke:none;fill:black;font-family:sans-serif;font-size:13;" transform="matrix(1 0 0 1 776 1989)">can be adjusted by modifying the x-location of the margin guidelines.</text>
  <text style="stroke:none;fill:black;font-family:sans-serif;font-size:13;" transform="matrix(1 0 0 1 776 2007)">Modifications are automatically applied proportionally to all</text>
  <text style="stroke:none;fill:black;font-family:sans-serif;font-size:13;" transform="matrix(1 0 0 1 776 2025)">scales and weights.</text>
  <g transform="matrix(0.2 0 0 0.2 1289 1933)">
   <path d="m14.209 9.32617 8.49609 8.54492c4.29688 4.3457 9.22852 4.05273 13.8672-1.07422l53.4668-58.9355-4.83398-4.88281-53.0762 58.3984c-1.75781 2.00195-3.41797 2.49023-5.76172 0.146484l-5.85938-5.81055c-2.34375-2.29492-1.80664-4.00391 0.195312-5.81055l57.373-54.0039-4.88281-4.83398-57.959 54.4434c-4.93164 4.58984-5.32227 9.47266-1.02539 13.8184Zm32.0801-90.9668c-2.09961 2.05078-2.24609 4.93164-1.07422 6.88477 1.17188 1.80664 3.4668 2.97852 6.68945 2.14844 7.32422-1.70898 14.9414-2.00195 22.0703 2.68555l-2.92969 7.27539c-1.70898 4.15039-0.830078 7.08008 1.85547 9.81445l11.4746 11.5723c2.44141 2.44141 4.49219 2.53906 7.32422 2.05078l5.32227-0.976562 3.32031 3.36914-0.195312 2.7832c-0.195312 2.49023 0.439453 4.39453 2.88086 6.78711l3.80859 3.71094c2.39258 2.39258 5.46875 2.53906 7.8125 0.195312l14.5508-14.5996c2.34375-2.34375 2.24609-5.32227-0.146484-7.71484l-3.85742-3.80859c-2.39258-2.39258-4.24805-3.17383-6.64062-2.97852l-2.88086 0.244141-3.22266-3.17383 1.2207-5.61523c0.634766-2.83203-0.146484-5.0293-3.07617-7.95898l-10.9863-10.9375c-16.6992-16.6016-38.8672-16.2109-53.3203-1.75781Zm7.4707 1.85547c12.1582-8.88672 28.6133-7.37305 39.7461 3.75977l12.1582 12.0605c1.17188 1.17188 1.36719 2.09961 1.02539 3.80859l-1.61133 7.42188 7.51953 7.42188 4.93164-0.292969c1.26953-0.0488281 1.66016 0.0488281 2.63672 1.02539l2.88086 2.88086-12.207 12.207-2.88086-2.88086c-0.976562-0.976562-1.12305-1.36719-1.07422-2.68555l0.341797-4.88281-7.4707-7.42188-7.61719 1.26953c-1.61133 0.341797-2.34375 0.195312-3.56445-0.976562l-10.0098-10.0098c-1.26953-1.17188-1.41602-2.00195-0.634766-3.85742l4.39453-10.4492c-7.8125-7.27539-17.9688-10.4004-28.125-7.42188-0.78125 0.195312-1.07422-0.439453-0.439453-0.976562Z"/>
  </g>
  <text style="stroke:none;fill:black;font-family:sans-serif;font-size:13;font-weight:bold;" transform="matrix(1 0 0 1 1289 1953)">Exporting</text>
  <text style="stroke:none;fill:black;font-family:sans-serif;font-size:13;" transform="matrix(1 0 0 1 1289 1971)">Symbols should be outlined when exporting to ensure the</text>
  <text style="stroke:none;fill:black;font-family:sans-serif;font-size:13;" transform="matrix(1 0 0 1 1289 1989)">design is preserved when submitting to Xcode.</text>
  <text id="template-version" style="stroke:none;fill:black;font-family:sans-serif;font-size:13;text-anchor:end;" transform="matrix(1 0 0 1 3036 1933)">Template v.6.0</text>
  <text style="stroke:none;fill:black;font-family:sans-serif;font-size:13;text-anchor:end;" transform="matrix(1 0 0 1 3036 1951)">Requires Xcode 16 or greater</text>
  <text id="descriptive-name" style="stroke:none;fill:black;font-family:sans-serif;font-size:13;text-anchor:end;" transform="matrix(1 0 0 1 3036 1969)">Generated from dog</text>
  <text style="stroke:none;fill:black;font-family:sans-serif;font-size:13;text-anchor:end;" transform="matrix(1 0 0 1 3036 1987)">Typeset at 100.0 points</text>
  <text style="stroke:none;fill:black;font-family:sans-serif;font-size:13;" transform="matrix(1 0 0 1 263 726)">Small</text>
  <text style="stroke:none;fill:black;font-family:sans-serif;font-size:13;" transform="matrix(1 0 0 1 263 1156)">Medium</text>
  <text style="stroke:none;fill:black;font-family:sans-serif;font-size:13;" transform="matrix(1 0 0 1 263 1586)">Large</text>
 </g>
 <g id="Guides">
  <g id="H-reference" style="fill:#27AAE1;stroke:none;" transform="matrix(1 0 0 1 339 696)">
   <path d="M0.993654 0L3.63775 0L29.3281-67.1323L30.0303-67.1323L30.0303-70.459L28.1226-70.459ZM11.6885-24.4799L46.9815-24.4799L46.2315-26.7285L12.4385-26.7285ZM55.1196 0L57.7637 0L30.6382-70.459L29.4326-70.459L29.4326-67.1323Z"/>
  </g>
  <line id="Baseline-S" style="fill:none;stroke:#27AAE1;opacity:1;stroke-width:0.5;" x1="263" x2="3036" y1="696" y2="696"/>
  <line id="Capline-S" style="fill:none;stroke:#27AAE1;opacity:1;stroke-width:0.5;" x1="263" x2="3036" y1="625.541" y2="625.541"/>
  <g id="H-reference" style="fill:#27AAE1;stroke:none;" transform="matrix(1 0 0 1 339 1126)">
   <path d="M0.993654 0L3.63775 0L29.3281-67.1323L30.0303-67.1323L30.0303-70.459L28.1226-70.459ZM11.6885-24.4799L46.9815-24.4799L46.2315-26.7285L12.4385-26.7285ZM55.1196 0L57.7637 0L30.6382-70.459L29.4326-70.459L29.4326-67.1323Z"/>
  </g>
  <line id="Baseline-M" style="fill:none;stroke:#27AAE1;opacity:1;stroke-width:0.5;" x1="263" x2="3036" y1="1126" y2="1126"/>
  <line id="Capline-M" style="fill:none;stroke:#27AAE1;opacity:1;stroke-width:0.5;" x1="263" x2="3036" y1="1055.54" y2="1055.54"/>
  <g id="H-reference" style="fill:#27AAE1;stroke:none;" transform="matrix(1 0 0 1 339 1556)">
   <path d="M0.993654 0L3.63775 0L29.3281-67.1323L30.0303-67.1323L30.0303-70.459L28.1226-70.459ZM11.6885-24.4799L46.9815-24.4799L46.2315-26.7285L12.4385-26.7285ZM55.1196 0L57.7637 0L30.6382-70.459L29.4326-70.459L29.4326-67.1323Z"/>
  </g>
  <line id="Baseline-L" style="fill:none;stroke:#27AAE1;opacity:1;stroke-width:0.5;" x1="263" x2="3036" y1="1556" y2="1556"/>
  <line id="Capline-L" style="fill:none;stroke:#27AAE1;opacity:1;stroke-width:0.5;" x1="263" x2="3036" y1="1485.54" y2="1485.54"/>
  <line id="right-margin-Black-S" style="fill:none;stroke:#00AEEF;stroke-width:0.5;opacity:1.0;" x1="2982.2" x2="2982.2" y1="600.785" y2="720.121"/>
  <line id="left-margin-Black-S" style="fill:none;stroke:#00AEEF;stroke-width:0.5;opacity:1.0;" x1="2884.6" x2="2884.6" y1="600.785" y2="720.121"/>
  <line id="right-margin-Regular-S" style="fill:none;stroke:#00AEEF;stroke-width:0.5;opacity:1.0;" x1="1496.09" x2="1496.09" y1="600.785" y2="720.121"/>
  <line id="left-margin-Regular-S" style="fill:none;stroke:#00AEEF;stroke-width:0.5;opacity:1.0;" x1="1403.59" x2="1403.59" y1="600.785" y2="720.121"/>
  <line id="right-margin-Ultralight-S" style="fill:none;stroke:#FF3B30;stroke-width:0.5;opacity:1.0;" x1="603.811" x2="603.811" y1="600.785" y2="720.121"/>
  <line id="left-margin-Ultralight-S" style="fill:none;stroke:#00AEEF;stroke-width:0.5;opacity:1.0;" x1="515.611" x2="515.611" y1="600.785" y2="720.121"/>
 </g>
 <g id="Symbols">
  <g id="Black-S" transform="matrix(1 0 0 1 2884.6 696)">
   <path class="monochrome-0 multicolor-0:custom hierarchical-0:tertiary SFSymbolsPreviewWireframe" d="M48-68C26.5-68.6 19.5-51.9 19-45.7C18.6-40.8 16.5-23.1 26.6-11C31.8-4.9 40.3-1.8 49.1-2C58-2.2 66.2-4 71.6-11.1C80.7-23.2 79.7-41.2 78.6-47C77.4-52.7 72.8-67.3 48-68Z"/>
   <path class="monochrome-1 multicolor-1:custom hierarchical-1:primary SFSymbolsPreviewWireframe" d="M14.9-63C14.9-63 7.6-60.2 5.9-55.9C3.5-50.3 4.6-38.9 5.9-34.5C7.1-30.2 10.5-25.8 15.5-26C20.6-26.1 25-31.3 26.8-38.2C28.4-45 28.8-56.7 29.3-58.7C29.8-60.8 30.6-62.4 30.6-62.4C30.6-62.4 24.1-68.6 14.9-63ZM75.7-64C75.7-64 85.5-63.6 88-62.6C90.4-61.5 92.5-56.9 92.3-50.5C92.1-44.1 91.6-34 88.6-30.4C85.9-27.5 80.6-27.3 77.7-30.9C74.7-34.4 72.8-40.5 72.2-44.6C71.5-48.5 70.3-53.6 69.5-56.1C68.7-58.4 66.8-63 66-64C64.7-64.8 66.7-65.8 75.7-64Z"/>
   <path class="monochrome-2 multicolor-2:custom hierarchical-2:secondary SFSymbolsPreviewWireframe" d="M72.5-35.1C73.3-29.4 70.7-23.7 64.2-23.4C58.2-23 54.5-26.8 54.2-32.5C53.9-38.3 57-43.8 62.1-44.3C67.3-45 71.8-41 72.5-35.1ZM23.1-66.3C17.8-66.7 9-62.5 7.2-58.1C5.4-53.8 6.4-39.5 8-35.4C9.6-31.1 12.9-25.6 18.7-30.3C24.4-35 26-46.9 26.5-50.6C27.1-54.3 27.8-59 28.7-60C29.6-61 30.7-62.4 30.7-62.4C30.7-62.4 29.6-65.8 23.1-66.3ZM76.9-67.1C81.9-66.7 87.3-64.8 89.5-60.5C91.5-56.2 90.7-45.8 90-40.9C89.2-36 87.4-30.9 82.9-31.4C78.4-31.9 76.1-38.1 74.8-43.9C73.4-49.6 72-55.5 70.2-59.6C69.1-62.2 65.3-63.9 65.3-63.9C65.3-63.9 66.8-67.9 76.9-67.1Z"/>
   <path class="monochrome-3 multicolor-3:black hierarchical-3:primary SFSymbolsPreviewWireframe" d="M38-16C36.9-14.5 39-13.3 40.6-12.2C42.2-11.1 44.1-9.5 46.4-9.5C49-9.5 49.6-11.3 49.6-11.3C49.6-11.3 50.5-9.2 54-9.6C56-9.8 58.3-12 59.1-12.4C60.5-13.4 62.1-14.5 61.5-15.5C60.6-16.6 58.8-15.1 57.1-14.2C55.3-13.2 54.6-12.8 53.4-12.8C52.1-12.8 51.1-13.4 51-15.6C50.9-17.5 51-17.8 51-17.8L47.9-17.8C47.9-17.8 48-15.8 48-15.3C48-13.9 47.2-13.2 45.7-13.1C44.2-13 42.7-14.2 42-14.7C41.1-15.4 38.7-17.3 38-16Z"/>
   <path class="monochrome-4 multicolor-4:black hierarchical-4:primary SFSymbolsPreviewWireframe" d="M38.2-32.8C37.9-30.2 36.6-28.3 33.8-28.6C31.8-28.8 30.5-31.3 30.8-33.7C31.2-36.2 31.9-38 34.3-38C38-37.8 38.6-35.3 38.2-32.8ZM67.2-33.4C67.3-30.8 66.3-28.7 63.4-28.5C60.8-28.3 59.6-30.5 59.5-33C59.4-35.6 60.6-37.6 63-37.9C66.2-38.4 67.1-36 67.2-33.4ZM56.4-20.6C56.5-18 54.8-15.7 49.4-15.7C44.2-15.8 42.3-17.9 42.1-20.4C41.9-23 44.9-25.2 49.2-25.3C55.2-25.7 56.2-23.1 56.4-20.6Z"/>
  </g>
  <g id="Regular-S" transform="matrix(1 0 0 1 1403.59 696)">
   <path class="monochrome-0 multicolor-0:custom hierarchical-0:tertiary SFSymbolsPreviewWireframe" d="M46-68C24.5-68.6 17.5-51.9 17-45.7C16.6-40.8 14.5-23.1 24.6-11C29.8-4.9 38.3-1.8 47.1-2C56-2.2 64.2-4 69.6-11.1C78.7-23.2 77.7-41.2 76.6-47C75.4-52.7 70.8-67.3 46-68Z"/>
   <path class="monochrome-1 multicolor-1:custom hierarchical-1:primary SFSymbolsPreviewWireframe" d="M12.9-63C12.9-63 5.6-60.2 3.9-55.9C1.5-50.3 2.6-38.9 3.9-34.5C5.1-30.2 8.5-25.8 13.5-26C18.6-26.1 23-31.3 24.8-38.2C26.4-45 26.8-56.7 27.3-58.7C27.8-60.8 28.6-62.4 28.6-62.4C28.6-62.4 22.1-68.6 12.9-63ZM73.7-64C73.7-64 83.5-63.6 86-62.6C88.4-61.5 90.5-56.9 90.3-50.5C90.1-44.1 89.6-34 86.6-30.4C83.9-27.5 78.6-27.3 75.7-30.9C72.7-34.4 70.8-40.5 70.2-44.6C69.5-48.5 68.3-53.6 67.5-56.1C66.7-58.4 64.8-63 64-64C62.7-64.8 64.7-65.8 73.7-64Z"/>
   <path class="monochrome-2 multicolor-2:custom hierarchical-2:secondary SFSymbolsPreviewWireframe" d="M70.5-35.1C71.3-29.4 68.7-23.7 62.2-23.4C56.2-23 52.5-26.8 52.2-32.5C51.9-38.3 55-43.8 60.1-44.3C65.3-45 69.8-41 70.5-35.1ZM21.1-66.3C15.8-66.7 7-62.5 5.2-58.1C3.4-53.8 4.4-39.5 6-35.4C7.6-31.1 10.9-25.6 16.7-30.3C22.4-35 24-46.9 24.5-50.6C25-54.3 25.8-59 26.7-60C27.6-61 28.7-62.4 28.7-62.4C28.7-62.4 27.6-65.8 21.1-66.3ZM74.9-67.1C79.9-66.7 85.3-64.8 87.5-60.5C89.5-56.2 88.7-45.8 88-40.9C87.2-36 85.4-30.9 80.9-31.4C76.4-31.9 74.1-38.1 72.8-43.9C71.4-49.6 70-55.5 68.2-59.6C67.1-62.2 63.3-63.9 63.3-63.9C63.3-63.9 64.8-67.9 74.9-67.1Z"/>
   <path class="monochrome-3 multicolor-3:black hierarchical-3:primary SFSymbolsPreviewWireframe" d="M36-16C34.9-14.5 37-13.3 38.6-12.2C40.2-11.1 42.1-9.5 44.4-9.5C47-9.5 47.6-11.3 47.6-11.3C47.6-11.3 48.5-9.2 52-9.6C54-9.8 56.3-12 57.1-12.4C58.5-13.4 60.1-14.5 59.5-15.5C58.6-16.6 56.8-15.1 55.1-14.2C53.3-13.2 52.6-12.8 51.4-12.8C50.1-12.8 49.1-13.4 49-15.6C48.9-17.5 49-17.8 49-17.8L45.9-17.8C45.9-17.8 46-15.8 46-15.3C46-13.9 45.2-13.2 43.7-13.1C42.2-13 40.7-14.2 40-14.7C39.1-15.4 36.7-17.3 36-16Z"/>
   <path class="monochrome-4 multicolor-4:black hierarchical-4:primary SFSymbolsPreviewWireframe" d="M36.2-32.8C35.9-30.2 34.6-28.3 31.8-28.6C29.8-28.8 28.5-31.3 28.8-33.7C29.2-36.2 29.9-38 32.3-38C36-37.8 36.6-35.3 36.2-32.8ZM65.2-33.4C65.3-30.8 64.3-28.7 61.4-28.5C58.8-28.3 57.6-30.5 57.5-33C57.4-35.6 58.6-37.6 61-37.9C64.2-38.4 65.1-36 65.2-33.4ZM54.4-20.6C54.5-18 52.8-15.7 47.4-15.7C42.2-15.8 40.3-17.9 40.1-20.4C39.9-23 42.9-25.2 47.2-25.3C53.2-25.7 54.2-23.1 54.4-20.6Z"/>
  </g>
  <g id="Ultralight-S" transform="matrix(1 0 0 1 515.611 696)">
   <path class="monochrome-0 multicolor-0:custom hierarchical-0:tertiary SFSymbolsPreviewWireframe" d="M44-68C22.5-68.6 15.5-51.9 15-45.7C14.6-40.8 12.5-23.1 22.6-11C27.8-4.9 36.3-1.8 45.1-2C53.9-2.2 62.2-4 67.6-11.1C76.7-23.2 75.7-41.2 74.6-47C73.4-52.7 68.8-67.3 44-68Z"/>
   <path class="monochrome-1 multicolor-1:custom hierarchical-1:primary SFSymbolsPreviewWireframe" d="M10.9-63C10.9-63 3.6-60.2 1.9-55.9C-0.5-50.3 0.6-38.9 1.9-34.5C3.1-30.2 6.5-25.8 11.5-26C16.6-26.1 21-31.3 22.8-38.2C24.4-45 24.8-56.7 25.3-58.7C25.8-60.8 26.6-62.4 26.6-62.4C26.6-62.4 20.1-68.6 10.9-63ZM71.7-64C71.7-64 81.5-63.6 84-62.6C86.4-61.5 88.5-56.9 88.3-50.5C88.1-44.1 87.6-34 84.6-30.4C81.9-27.5 76.6-27.3 73.7-30.9C70.7-34.4 68.8-40.5 68.2-44.6C67.5-48.5 66.3-53.6 65.5-56.1C64.7-58.4 62.8-63 62-64C60.7-64.8 62.7-65.8 71.7-64Z"/>
   <path class="monochrome-2 multicolor-2:custom hierarchical-2:secondary SFSymbolsPreviewWireframe" d="M68.5-35.1C69.3-29.4 66.7-23.7 60.2-23.4C54.2-23 50.5-26.8 50.2-32.5C49.9-38.3 53-43.8 58.1-44.3C63.3-45 67.8-41 68.5-35.1ZM19.1-66.3C13.8-66.7 5-62.5 3.2-58.1C1.4-53.8 2.4-39.5 4-35.4C5.6-31.1 8.9-25.6 14.7-30.3C20.4-35 22-46.9 22.5-50.6C23-54.3 23.8-59 24.7-60C25.6-61 26.7-62.4 26.7-62.4C26.7-62.4 25.6-65.8 19.1-66.3ZM72.9-67.1C77.9-66.7 83.3-64.8 85.5-60.5C87.5-56.2 86.7-45.8 86-40.9C85.2-36 83.4-30.9 78.9-31.4C74.4-31.9 72.1-38.1 70.8-43.9C69.4-49.6 68-55.5 66.2-59.6C65.1-62.2 61.3-63.9 61.3-63.9C61.3-63.9 62.8-67.9 72.9-67.1Z"/>
   <path class="monochrome-3 multicolor-3:black hierarchical-3:primary SFSymbolsPreviewWireframe" d="M34-16C32.9-14.5 35-13.3 36.6-12.2C38.2-11.1 40.1-9.5 42.4-9.5C45-9.5 45.6-11.3 45.6-11.3C45.6-11.3 46.5-9.2 50-9.6C52-9.8 54.3-12 55.1-12.4C56.5-13.4 58.1-14.5 57.5-15.5C56.6-16.6 54.8-15.1 53.1-14.2C51.3-13.2 50.6-12.8 49.4-12.8C48.1-12.8 47.1-13.4 47-15.6C46.9-17.5 47-17.8 47-17.8L43.9-17.8C43.9-17.8 44-15.8 44-15.3C44-13.9 43.2-13.2 41.7-13.1C40.2-13 38.7-14.2 38-14.7C37.1-15.4 34.7-17.3 34-16Z"/>
   <path class="monochrome-4 multicolor-4:black hierarchical-4:primary SFSymbolsPreviewWireframe" d="M34.2-32.8C33.9-30.2 32.6-28.3 29.8-28.6C27.8-28.8 26.5-31.3 26.8-33.7C27.2-36.2 27.9-38 30.3-38C34-37.8 34.6-35.3 34.2-32.8ZM63.2-33.4C63.3-30.8 62.3-28.7 59.4-28.5C56.8-28.3 55.6-30.5 55.5-33C55.4-35.6 56.6-37.6 59-37.9C62.2-38.4 63.1-36 63.2-33.4ZM52.4-20.6C52.5-18 50.8-15.7 45.4-15.7C40.2-15.8 38.3-17.9 38.1-20.4C37.9-23 40.9-25.2 45.2-25.3C51.2-25.7 52.2-23.1 52.4-20.6Z"/>
  </g>
 </g>
</svg>
