<?xml version="1.0" encoding="UTF-8"?>
<!--Generator: Apple Native CoreSVG 341-->
<!DOCTYPE svg
PUBLIC "-//W3C//DTD SVG 1.1//EN"
       "http://www.w3.org/Graphics/SVG/1.1/DTD/svg11.dtd">
<svg version="1.1" xmlns="http://www.w3.org/2000/svg" xmlns:xlink="http://www.w3.org/1999/xlink" viewBox="0 0 3300 2200">
 <!--glyph: "", point size: 100.0, font version: "20.0d10e1", template writer version: "138.0.0"-->
 <style>.monochrome-0 {opacity:0.0;-sfsymbols-clear-behind:true;-sfsymbols-motion-group:4;-sfsymbols-layer-tags:-20665278d44d3ca6}
.monochrome-1 {-sfsymbols-motion-group:3;-sfsymbols-layer-tags:-20665278d44d3ca6}
.monochrome-2 {-sfsymbols-motion-group:2;-sfsymbols-layer-tags:-20665278d44d3ca6}
.monochrome-3 {opacity:0.0;-sfsymbols-clear-behind:true;-sfsymbols-motion-group:1;-sfsymbols-layer-tags:-20665278d44d3ca6}
.monochrome-4 {opacity:0.0;-sfsymbols-clear-behind:true;-sfsymbols-motion-group:0;-sfsymbols-layer-tags:-20665278d44d3ca6}

.multicolor-0:black {-sfsymbols-motion-group:4;-sfsymbols-layer-tags:-20665278d44d3ca6}
.multicolor-1:systemBlueColor {-sfsymbols-clear-behind:true;-sfsymbols-motion-group:3;-sfsymbols-layer-tags:-20665278d44d3ca6}
.multicolor-2:systemCyanColor {-sfsymbols-clear-behind:true;-sfsymbols-motion-group:2;-sfsymbols-layer-tags:-20665278d44d3ca6}
.multicolor-3:systemBlueColor {-sfsymbols-motion-group:1;-sfsymbols-layer-tags:-20665278d44d3ca6}
.multicolor-4:black {-sfsymbols-motion-group:0;-sfsymbols-layer-tags:-20665278d44d3ca6}

.hierarchical-0:primary {opacity:0.0;-sfsymbols-clear-behind:true;-sfsymbols-motion-group:4;-sfsymbols-layer-tags:-20665278d44d3ca6}
.hierarchical-1:tertiary {-sfsymbols-clear-behind:true;-sfsymbols-motion-group:3;-sfsymbols-layer-tags:-20665278d44d3ca6}
.hierarchical-2:tertiary {-sfsymbols-clear-behind:true;-sfsymbols-motion-group:2;-sfsymbols-layer-tags:-20665278d44d3ca6}
.hierarchical-3:primary {-sfsymbols-motion-group:1;-sfsymbols-layer-tags:-20665278d44d3ca6}
.hierarchical-4:primary {-sfsymbols-motion-group:0;-sfsymbols-layer-tags:-20665278d44d3ca6}

.SFSymbolsPreviewWireframe {fill:none;opacity:1.0;stroke:black;stroke-width:0.5}
</style>
 <g id="Notes">
  <rect height="2200" id="artboard" style="fill:white;opacity:1" width="3300" x="0" y="0"/>
  <line style="fill:none;stroke:black;opacity:1;stroke-width:0.5;" x1="263" x2="3036" y1="292" y2="292"/>
  <text style="stroke:none;fill:black;font-family:sans-serif;font-size:13;font-weight:bold;" transform="matrix(1 0 0 1 263 322)">Weight/Scale Variations</text>
  <text style="stroke:none;fill:black;font-family:sans-serif;font-size:13;text-anchor:middle;" transform="matrix(1 0 0 1 559.711 322)">Ultralight</text>
  <text style="stroke:none;fill:black;font-family:sans-serif;font-size:13;text-anchor:middle;" transform="matrix(1 0 0 1 856.422 322)">Thin</text>
  <text style="stroke:none;fill:black;font-family:sans-serif;font-size:13;text-anchor:middle;" transform="matrix(1 0 0 1 1153.13 322)">Light</text>
  <text style="stroke:none;fill:black;font-family:sans-serif;font-size:13;text-anchor:middle;" transform="matrix(1 0 0 1 1449.84 322)">Regular</text>
  <text style="stroke:none;fill:black;font-family:sans-serif;font-size:13;text-anchor:middle;" transform="matrix(1 0 0 1 1746.56 322)">Medium</text>
  <text style="stroke:none;fill:black;font-family:sans-serif;font-size:13;text-anchor:middle;" transform="matrix(1 0 0 1 2043.27 322)">Semibold</text>
  <text style="stroke:none;fill:black;font-family:sans-serif;font-size:13;text-anchor:middle;" transform="matrix(1 0 0 1 2339.98 322)">Bold</text>
  <text style="stroke:none;fill:black;font-family:sans-serif;font-size:13;text-anchor:middle;" transform="matrix(1 0 0 1 2636.69 322)">Heavy</text>
  <text style="stroke:none;fill:black;font-family:sans-serif;font-size:13;text-anchor:middle;" transform="matrix(1 0 0 1 2933.4 322)">Black</text>
  <line style="fill:none;stroke:black;opacity:1;stroke-width:0.5;" x1="263" x2="3036" y1="1903" y2="1903"/>
  <g transform="matrix(0.2 0 0 0.2 263 1933)">
   <path d="m46.2402 4.15039c21.7773 0 39.4531-17.627 39.4531-39.4043s-17.6758-39.4043-39.4531-39.4043c-21.7285 0-39.4043 17.627-39.4043 39.4043s17.6758 39.4043 39.4043 39.4043Zm0-7.42188c-17.6758 0-31.9336-14.3066-31.9336-31.9824s14.2578-31.9824 31.9336-31.9824 31.9824 14.3066 31.9824 31.9824-14.3066 31.9824-31.9824 31.9824Zm-17.9688-31.9824c0 2.14844 1.51367 3.61328 3.75977 3.61328h10.498v10.5957c0 2.19727 1.46484 3.71094 3.61328 3.71094 2.24609 0 3.71094-1.51367 3.71094-3.71094v-10.5957h10.5957c2.19727 0 3.71094-1.46484 3.71094-3.61328 0-2.19727-1.51367-3.71094-3.71094-3.71094h-10.5957v-10.5469c0-2.24609-1.46484-3.75977-3.71094-3.75977-2.14844 0-3.61328 1.51367-3.61328 3.75977v10.5469h-10.498c-2.24609 0-3.75977 1.51367-3.75977 3.71094Z"/>
  </g>
  <g transform="matrix(0.2 0 0 0.2 281.506 1933)">
   <path d="m58.5449 14.5508c27.4902 0 49.8047-22.3145 49.8047-49.8047s-22.3145-49.8047-49.8047-49.8047-49.8047 22.3145-49.8047 49.8047 22.3145 49.8047 49.8047 49.8047Zm0-8.30078c-22.9492 0-41.5039-18.5547-41.5039-41.5039s18.5547-41.5039 41.5039-41.5039 41.5039 18.5547 41.5039 41.5039-18.5547 41.5039-41.5039 41.5039Zm-22.6562-41.5039c0 2.39258 1.66016 4.00391 4.15039 4.00391h14.3555v14.4043c0 2.44141 1.66016 4.15039 4.05273 4.15039 2.44141 0 4.15039-1.66016 4.15039-4.15039v-14.4043h14.4043c2.44141 0 4.15039-1.61133 4.15039-4.00391 0-2.44141-1.70898-4.15039-4.15039-4.15039h-14.4043v-14.3555c0-2.49023-1.70898-4.19922-4.15039-4.19922-2.39258 0-4.05273 1.70898-4.05273 4.19922v14.3555h-14.3555c-2.49023 0-4.15039 1.70898-4.15039 4.15039Z"/>
  </g>
  <g transform="matrix(0.2 0 0 0.2 304.924 1933)">
   <path d="m74.8535 28.3203c35.1074 0 63.623-28.4668 63.623-63.5742s-28.5156-63.623-63.623-63.623-63.5742 28.5156-63.5742 63.623 28.4668 63.5742 63.5742 63.5742Zm0-9.08203c-30.127 0-54.4922-24.3652-54.4922-54.4922s24.3652-54.4922 54.4922-54.4922 54.4922 24.3652 54.4922 54.4922-24.3652 54.4922-54.4922 54.4922Zm-28.8574-54.4922c0 2.58789 1.85547 4.39453 4.58984 4.39453h19.7266v19.7754c0 2.68555 1.85547 4.58984 4.44336 4.58984 2.68555 0 4.54102-1.85547 4.54102-4.58984v-19.7754h19.7754c2.68555 0 4.58984-1.80664 4.58984-4.39453 0-2.73438-1.85547-4.58984-4.58984-4.58984h-19.7754v-19.7266c0-2.73438-1.85547-4.63867-4.54102-4.63867-2.58789 0-4.44336 1.9043-4.44336 4.63867v19.7266h-19.7266c-2.73438 0-4.58984 1.85547-4.58984 4.58984Z"/>
  </g>
  <text style="stroke:none;fill:black;font-family:sans-serif;font-size:13;font-weight:bold;" transform="matrix(1 0 0 1 263 1953)">Design Variations</text>
  <text style="stroke:none;fill:black;font-family:sans-serif;font-size:13;" transform="matrix(1 0 0 1 263 1971)">Symbols are supported in up to nine weights and three scales.</text>
  <text style="stroke:none;fill:black;font-family:sans-serif;font-size:13;" transform="matrix(1 0 0 1 263 1989)">For optimal layout with text and other symbols, vertically align</text>
  <text style="stroke:none;fill:black;font-family:sans-serif;font-size:13;" transform="matrix(1 0 0 1 263 2007)">symbols with the adjacent text.</text>
  <line style="fill:none;stroke:#00AEEF;stroke-width:0.5;opacity:1.0;" x1="776" x2="776" y1="1919" y2="1933"/>
  <g transform="matrix(0.2 0 0 0.2 776 1933)">
   <path d="m16.5527 0.78125c2.58789 0 3.85742-0.976562 4.78516-3.71094l6.29883-17.2363h28.8086l6.29883 17.2363c0.927734 2.73438 2.19727 3.71094 4.73633 3.71094 2.58789 0 4.24805-1.5625 4.24805-4.00391 0-0.830078-0.146484-1.61133-0.537109-2.63672l-22.9004-60.9863c-1.12305-2.97852-3.125-4.49219-6.25-4.49219-3.02734 0-5.07812 1.46484-6.15234 4.44336l-22.9004 61.084c-0.390625 1.02539-0.537109 1.80664-0.537109 2.63672 0 2.44141 1.5625 3.95508 4.10156 3.95508Zm13.4766-28.3691 11.8652-32.8613h0.244141l11.8652 32.8613Z"/>
  </g>
  <line style="fill:none;stroke:#00AEEF;stroke-width:0.5;opacity:1.0;" x1="792.836" x2="792.836" y1="1919" y2="1933"/>
  <text style="stroke:none;fill:black;font-family:sans-serif;font-size:13;font-weight:bold;" transform="matrix(1 0 0 1 776 1953)">Margins</text>
  <text style="stroke:none;fill:black;font-family:sans-serif;font-size:13;" transform="matrix(1 0 0 1 776 1971)">Leading and trailing margins on the left and right side of each symbol</text>
  <text style="stroke:none;fill:black;font-family:sans-serif;font-size:13;" transform="matrix(1 0 0 1 776 1989)">can be adjusted by modifying the x-location of the margin guidelines.</text>
  <text style="stroke:none;fill:black;font-family:sans-serif;font-size:13;" transform="matrix(1 0 0 1 776 2007)">Modifications are automatically applied proportionally to all</text>
  <text style="stroke:none;fill:black;font-family:sans-serif;font-size:13;" transform="matrix(1 0 0 1 776 2025)">scales and weights.</text>
  <g transform="matrix(0.2 0 0 0.2 1289 1933)">
   <path d="m14.209 9.32617 8.49609 8.54492c4.29688 4.3457 9.22852 4.05273 13.8672-1.07422l53.4668-58.9355-4.83398-4.88281-53.0762 58.3984c-1.75781 2.00195-3.41797 2.49023-5.76172 0.146484l-5.85938-5.81055c-2.34375-2.29492-1.80664-4.00391 0.195312-5.81055l57.373-54.0039-4.88281-4.83398-57.959 54.4434c-4.93164 4.58984-5.32227 9.47266-1.02539 13.8184Zm32.0801-90.9668c-2.09961 2.05078-2.24609 4.93164-1.07422 6.88477 1.17188 1.80664 3.4668 2.97852 6.68945 2.14844 7.32422-1.70898 14.9414-2.00195 22.0703 2.68555l-2.92969 7.27539c-1.70898 4.15039-0.830078 7.08008 1.85547 9.81445l11.4746 11.5723c2.44141 2.44141 4.49219 2.53906 7.32422 2.05078l5.32227-0.976562 3.32031 3.36914-0.195312 2.7832c-0.195312 2.49023 0.439453 4.39453 2.88086 6.78711l3.80859 3.71094c2.39258 2.39258 5.46875 2.53906 7.8125 0.195312l14.5508-14.5996c2.34375-2.34375 2.24609-5.32227-0.146484-7.71484l-3.85742-3.80859c-2.39258-2.39258-4.24805-3.17383-6.64062-2.97852l-2.88086 0.244141-3.22266-3.17383 1.2207-5.61523c0.634766-2.83203-0.146484-5.0293-3.07617-7.95898l-10.9863-10.9375c-16.6992-16.6016-38.8672-16.2109-53.3203-1.75781Zm7.4707 1.85547c12.1582-8.88672 28.6133-7.37305 39.7461 3.75977l12.1582 12.0605c1.17188 1.17188 1.36719 2.09961 1.02539 3.80859l-1.61133 7.42188 7.51953 7.42188 4.93164-0.292969c1.26953-0.0488281 1.66016 0.0488281 2.63672 1.02539l2.88086 2.88086-12.207 12.207-2.88086-2.88086c-0.976562-0.976562-1.12305-1.36719-1.07422-2.68555l0.341797-4.88281-7.4707-7.42188-7.61719 1.26953c-1.61133 0.341797-2.34375 0.195312-3.56445-0.976562l-10.0098-10.0098c-1.26953-1.17188-1.41602-2.00195-0.634766-3.85742l4.39453-10.4492c-7.8125-7.27539-17.9688-10.4004-28.125-7.42188-0.78125 0.195312-1.07422-0.439453-0.439453-0.976562Z"/>
  </g>
  <text style="stroke:none;fill:black;font-family:sans-serif;font-size:13;font-weight:bold;" transform="matrix(1 0 0 1 1289 1953)">Exporting</text>
  <text style="stroke:none;fill:black;font-family:sans-serif;font-size:13;" transform="matrix(1 0 0 1 1289 1971)">Symbols should be outlined when exporting to ensure the</text>
  <text style="stroke:none;fill:black;font-family:sans-serif;font-size:13;" transform="matrix(1 0 0 1 1289 1989)">design is preserved when submitting to Xcode.</text>
  <text id="template-version" style="stroke:none;fill:black;font-family:sans-serif;font-size:13;text-anchor:end;" transform="matrix(1 0 0 1 3036 1933)">Template v.6.0</text>
  <text style="stroke:none;fill:black;font-family:sans-serif;font-size:13;text-anchor:end;" transform="matrix(1 0 0 1 3036 1951)">Requires Xcode 16 or greater</text>
  <text id="descriptive-name" style="stroke:none;fill:black;font-family:sans-serif;font-size:13;text-anchor:end;" transform="matrix(1 0 0 1 3036 1969)">Generated from fish</text>
  <text style="stroke:none;fill:black;font-family:sans-serif;font-size:13;text-anchor:end;" transform="matrix(1 0 0 1 3036 1987)">Typeset at 100.0 points</text>
  <text style="stroke:none;fill:black;font-family:sans-serif;font-size:13;" transform="matrix(1 0 0 1 263 726)">Small</text>
  <text style="stroke:none;fill:black;font-family:sans-serif;font-size:13;" transform="matrix(1 0 0 1 263 1156)">Medium</text>
  <text style="stroke:none;fill:black;font-family:sans-serif;font-size:13;" transform="matrix(1 0 0 1 263 1586)">Large</text>
 </g>
 <g id="Guides">
  <g id="H-reference" style="fill:#27AAE1;stroke:none;" transform="matrix(1 0 0 1 339 696)">
   <path d="M0.993654 0L3.63775 0L29.3281-67.1323L30.0303-67.1323L30.0303-70.459L28.1226-70.459ZM11.6885-24.4799L46.9815-24.4799L46.2315-26.7285L12.4385-26.7285ZM55.1196 0L57.7637 0L30.6382-70.459L29.4326-70.459L29.4326-67.1323Z"/>
  </g>
  <line id="Baseline-S" style="fill:none;stroke:#27AAE1;opacity:1;stroke-width:0.5;" x1="263" x2="3036" y1="696" y2="696"/>
  <line id="Capline-S" style="fill:none;stroke:#27AAE1;opacity:1;stroke-width:0.5;" x1="263" x2="3036" y1="625.541" y2="625.541"/>
  <g id="H-reference" style="fill:#27AAE1;stroke:none;" transform="matrix(1 0 0 1 339 1126)">
   <path d="M0.993654 0L3.63775 0L29.3281-67.1323L30.0303-67.1323L30.0303-70.459L28.1226-70.459ZM11.6885-24.4799L46.9815-24.4799L46.2315-26.7285L12.4385-26.7285ZM55.1196 0L57.7637 0L30.6382-70.459L29.4326-70.459L29.4326-67.1323Z"/>
  </g>
  <line id="Baseline-M" style="fill:none;stroke:#27AAE1;opacity:1;stroke-width:0.5;" x1="263" x2="3036" y1="1126" y2="1126"/>
  <line id="Capline-M" style="fill:none;stroke:#27AAE1;opacity:1;stroke-width:0.5;" x1="263" x2="3036" y1="1055.54" y2="1055.54"/>
  <g id="H-reference" style="fill:#27AAE1;stroke:none;" transform="matrix(1 0 0 1 339 1556)">
   <path d="M0.993654 0L3.63775 0L29.3281-67.1323L30.0303-67.1323L30.0303-70.459L28.1226-70.459ZM11.6885-24.4799L46.9815-24.4799L46.2315-26.7285L12.4385-26.7285ZM55.1196 0L57.7637 0L30.6382-70.459L29.4326-70.459L29.4326-67.1323Z"/>
  </g>
  <line id="Baseline-L" style="fill:none;stroke:#27AAE1;opacity:1;stroke-width:0.5;" x1="263" x2="3036" y1="1556" y2="1556"/>
  <line id="Capline-L" style="fill:none;stroke:#27AAE1;opacity:1;stroke-width:0.5;" x1="263" x2="3036" y1="1485.54" y2="1485.54"/>
  <line id="right-margin-Black-S" style="fill:none;stroke:#00AEEF;stroke-width:0.5;opacity:1.0;" x1="2982.2" x2="2982.2" y1="600.785" y2="720.121"/>
  <line id="left-margin-Black-S" style="fill:none;stroke:#00AEEF;stroke-width:0.5;opacity:1.0;" x1="2884.6" x2="2884.6" y1="600.785" y2="720.121"/>
  <line id="right-margin-Regular-S" style="fill:none;stroke:#00AEEF;stroke-width:0.5;opacity:1.0;" x1="1496.09" x2="1496.09" y1="600.785" y2="720.121"/>
  <line id="left-margin-Regular-S" style="fill:none;stroke:#00AEEF;stroke-width:0.5;opacity:1.0;" x1="1403.59" x2="1403.59" y1="600.785" y2="720.121"/>
  <line id="right-margin-Ultralight-S" style="fill:none;stroke:#FF3B30;stroke-width:0.5;opacity:1.0;" x1="603.811" x2="603.811" y1="600.785" y2="720.121"/>
  <line id="left-margin-Ultralight-S" style="fill:none;stroke:#00AEEF;stroke-width:0.5;opacity:1.0;" x1="515.611" x2="515.611" y1="600.785" y2="720.121"/>
 </g>
 <g id="Symbols">
  <g id="Black-S" transform="matrix(1 0 0 1 2884.6 696)">
   <path class="monochrome-0 multicolor-0:black hierarchical-0:primary SFSymbolsPreviewWireframe" d="M8.9-18.3C10.7-24 9.4-28.1 6.1-32.1C2.8-36.1 15.7-36.8 19.9-31.1C24.1-25.4 34.1-15.5 25.2-15.7C16.4-16 8.9-18.3 8.9-18.3Z"/>
   <path class="monochrome-1 multicolor-1:systemBlueColor hierarchical-1:tertiary SFSymbolsPreviewWireframe" d="M83.5-30C83.5-32.5 87.2-45.4 91-49.1C94.7-52.8 91-56.9 87.3-56.9C78.8-56.9 64.7-39.8 64.7-29.8C64.7-17.4 78.9-3.9 87.3-3.9C91-3.9 94.8-7.4 91-11.1C87.3-15 83.5-25 83.5-30ZM26.1-53.9C26.1-61.4 29.7-69 33.5-69C44.8-69 66.6-57 70.4-38.1C74.2-19.2 26.1-53.9 26.1-53.9ZM38.3-8.5C42-4.8 49.6-1 57.1-1C64.6-1 49.4-11.4 53.4-16.1C58.8-22.5 38.3-8.5 38.3-8.5Z"/>
   <path class="monochrome-2 multicolor-2:systemCyanColor hierarchical-2:tertiary SFSymbolsPreviewWireframe" d="M4.2-31.3C6.6-29.2 14.9-26.3 21.6-27C21.4-25 20.1-22.9 15.1-21.9C10.7-20.7 9.6-20.8 8.6-20.7C6.5-19.9 7.3-17.7 8-16.5C11.6-10.1 26.1-4.9 38.3-4.9C59.1-4.9 80.1-23.7 80.1-31.4C80.1-38.9 57-57.9 36-57.9C14.9-57.7 4.3-42.7 4.2-31.3Z"/>
   <path class="monochrome-3 multicolor-3:systemBlueColor hierarchical-3:primary SFSymbolsPreviewWireframe" d="M41.3-15.2C40-15.2 38.8-16.3 38.8-17.6C38.8-18 38.9-18.4 39.1-18.8C43-26.3 44.6-33.1 39.5-41.8C38.8-43 39.2-44.5 40.4-45.2C41.6-45.9 43.1-45.5 43.8-44.3C50.4-33.1 47.4-24 43.5-16.4C43-15.7 42.1-15.2 41.3-15.2Z"/>
   <path class="monochrome-4 multicolor-4:black hierarchical-4:primary SFSymbolsPreviewWireframe" d="M21.1-47.5C23.8-47.6 26.1-45.4 26.1-42.7C26.2-40 24-37.7 21.3-37.7L21.1-37.7C18.4-37.8 16.2-40 16.3-42.7C16.3-45.3 18.4-47.4 21.1-47.5Z"/>
  </g>
  <g id="Regular-S" transform="matrix(1 0 0 1 1403.59 696)">
   <path class="monochrome-0 multicolor-0:black hierarchical-0:primary SFSymbolsPreviewWireframe" d="M6.9-18.3C8.7-24 7.4-28.1 4.1-32.1C0.8-36.1 13.7-36.8 17.9-31.1C22.1-25.4 32.1-15.5 23.2-15.7C14.4-16 6.9-18.3 6.9-18.3Z"/>
   <path class="monochrome-1 multicolor-1:systemBlueColor hierarchical-1:tertiary SFSymbolsPreviewWireframe" d="M81.5-30C81.5-32.5 85.2-45.4 89-49.1C92.7-52.8 89-56.9 85.3-56.9C76.8-56.9 62.7-39.8 62.7-29.8C62.7-17.4 76.9-3.9 85.3-3.9C89-3.9 92.8-7.4 89-11.1C85.3-15 81.5-25 81.5-30ZM24.1-53.9C24.1-61.4 27.7-69 31.5-69C42.8-69 64.6-57 68.4-38.1C72.2-19.2 24.1-53.9 24.1-53.9ZM36.3-8.5C40-4.8 47.6-1 55.1-1C62.6-1 47.4-11.4 51.4-16.1C56.8-22.5 36.3-8.5 36.3-8.5Z"/>
   <path class="monochrome-2 multicolor-2:systemCyanColor hierarchical-2:tertiary SFSymbolsPreviewWireframe" d="M2.2-31.3C4.6-29.2 12.9-26.3 19.6-27C19.4-25 18.1-22.9 13.1-21.9C8.7-20.7 7.6-20.8 6.6-20.7C4.5-19.9 5.3-17.7 6-16.5C9.6-10.1 24.1-4.9 36.3-4.9C57.1-4.9 78.1-23.7 78.1-31.4C78.1-38.9 55-57.9 34-57.9C12.9-57.7 2.3-42.7 2.2-31.3Z"/>
   <path class="monochrome-3 multicolor-3:systemBlueColor hierarchical-3:primary SFSymbolsPreviewWireframe" d="M39.3-15.2C38-15.2 36.8-16.3 36.8-17.6C36.8-18 36.9-18.4 37.1-18.8C41-26.3 42.6-33.1 37.5-41.8C36.8-43 37.2-44.5 38.4-45.2C39.6-45.9 41.1-45.5 41.8-44.3C48.4-33.1 45.4-24 41.5-16.4C41-15.7 40.1-15.2 39.3-15.2Z"/>
   <path class="monochrome-4 multicolor-4:black hierarchical-4:primary SFSymbolsPreviewWireframe" d="M19.1-47.5C21.8-47.6 24.1-45.4 24.1-42.7C24.2-40 22-37.7 19.3-37.7L19.1-37.7C16.4-37.8 14.2-40 14.3-42.7C14.3-45.3 16.4-47.4 19.1-47.5Z"/>
  </g>
  <g id="Ultralight-S" transform="matrix(1 0 0 1 515.611 696)">
   <path class="monochrome-0 multicolor-0:black hierarchical-0:primary SFSymbolsPreviewWireframe" d="M4.9-18.3C6.7-24 5.4-28.1 2.1-32.1C-1.2-36.1 11.7-36.8 15.9-31.1C20.1-25.4 30.1-15.5 21.2-15.7C12.4-16 4.9-18.3 4.9-18.3Z"/>
   <path class="monochrome-1 multicolor-1:systemBlueColor hierarchical-1:tertiary SFSymbolsPreviewWireframe" d="M79.5-30C79.5-32.5 83.2-45.4 87-49.1C90.7-52.8 87-56.9 83.3-56.9C74.8-56.9 60.7-39.8 60.7-29.8C60.7-17.4 74.9-3.9 83.3-3.9C87-3.9 90.8-7.4 87-11.1C83.3-15 79.5-25 79.5-30ZM22.1-53.9C22.1-61.4 25.7-69 29.5-69C40.8-69 62.6-57 66.4-38.1C70.2-19.2 22.1-53.9 22.1-53.9ZM34.3-8.5C38-4.8 45.6-1 53.1-1C60.6-1 45.4-11.4 49.4-16.1C54.8-22.5 34.3-8.5 34.3-8.5Z"/>
   <path class="monochrome-2 multicolor-2:systemCyanColor hierarchical-2:tertiary SFSymbolsPreviewWireframe" d="M0.2-31.3C2.6-29.2 10.9-26.3 17.6-27C17.4-25 16.1-22.9 11.1-21.9C6.7-20.7 5.6-20.8 4.6-20.7C2.5-19.9 3.3-17.7 4-16.5C7.6-10.1 22.1-4.9 34.3-4.9C55.1-4.9 76.1-23.7 76.1-31.4C76.1-38.9 53-57.9 32-57.9C10.9-57.7 0.3-42.7 0.2-31.3Z"/>
   <path class="monochrome-3 multicolor-3:systemBlueColor hierarchical-3:primary SFSymbolsPreviewWireframe" d="M37.3-15.2C36-15.2 34.8-16.3 34.8-17.6C34.8-18 34.9-18.4 35.1-18.8C39-26.3 40.6-33.1 35.5-41.8C34.8-43 35.2-44.5 36.4-45.2C37.6-45.9 39.1-45.5 39.8-44.3C46.4-33.1 43.4-24 39.5-16.4C39-15.7 38.1-15.2 37.3-15.2Z"/>
   <path class="monochrome-4 multicolor-4:black hierarchical-4:primary SFSymbolsPreviewWireframe" d="M17.1-47.5C19.8-47.6 22.1-45.4 22.1-42.7C22.2-40 20-37.7 17.3-37.7L17.1-37.7C14.4-37.8 12.2-40 12.3-42.7C12.3-45.3 14.4-47.4 17.1-47.5Z"/>
  </g>
 </g>
</svg>
