<?xml version="1.0" encoding="UTF-8"?>
<!--Generator: Apple Native CoreSVG 341-->
<!DOCTYPE svg
PUBLIC "-//W3C//DTD SVG 1.1//EN"
       "http://www.w3.org/Graphics/SVG/1.1/DTD/svg11.dtd">
<svg version="1.1" xmlns="http://www.w3.org/2000/svg" xmlns:xlink="http://www.w3.org/1999/xlink" viewBox="0 0 3300 2200">
 <!--glyph: "", point size: 100.0, font version: "20.0d10e1", template writer version: "138.0.0"-->
 <style>.monochrome-0 {-sfsymbols-motion-group:3;-sfsymbols-layer-tags:-3c4b4de7b37c921c}
.monochrome-1 {-sfsymbols-motion-group:2;-sfsymbols-layer-tags:-3c4b4de7b37c921c}
.monochrome-2 {opacity:0.0;-sfsymbols-clear-behind:true;-sfsymbols-motion-group:1;-sfsymbols-layer-tags:-3c4b4de7b37c921c}
.monochrome-3 {opacity:0.0;-sfsymbols-clear-behind:true;-sfsymbols-motion-group:0;-sfsymbols-layer-tags:-3c4b4de7b37c921c}

.multicolor-0:black {-sfsymbols-motion-group:4;-sfsymbols-layer-tags:-3c4b4de7b37c921c}
.multicolor-1:systemBlueColor {-sfsymbols-clear-behind:true;-sfsymbols-motion-group:3;-sfsymbols-layer-tags:-3c4b4de7b37c921c}
.multicolor-2:systemCyanColor {-sfsymbols-clear-behind:true;-sfsymbols-motion-group:2;-sfsymbols-layer-tags:-3c4b4de7b37c921c}
.multicolor-3:systemBlueColor {-sfsymbols-motion-group:1;-sfsymbols-layer-tags:-3c4b4de7b37c921c}
.multicolor-4:black {-sfsymbols-motion-group:0;-sfsymbols-layer-tags:-3c4b4de7b37c921c}

.hierarchical-0:secondary {-sfsymbols-motion-group:4;-sfsymbols-layer-tags:-3c4b4de7b37c921c}
.hierarchical-1:secondary {-sfsymbols-clear-behind:true;-sfsymbols-motion-group:3;-sfsymbols-layer-tags:-3c4b4de7b37c921c}
.hierarchical-2:tertiary {-sfsymbols-clear-behind:true;-sfsymbols-motion-group:2;-sfsymbols-layer-tags:-3c4b4de7b37c921c}
.hierarchical-3:primary {-sfsymbols-motion-group:1;-sfsymbols-layer-tags:-3c4b4de7b37c921c}
.hierarchical-4:primary {-sfsymbols-motion-group:0;-sfsymbols-layer-tags:-3c4b4de7b37c921c}

.SFSymbolsPreviewWireframe {fill:none;opacity:1.0;stroke:black;stroke-width:0.5}
</style>
 <g id="Notes">
  <rect height="2200" id="artboard" style="fill:white;opacity:1" width="3300" x="0" y="0"/>
  <line style="fill:none;stroke:black;opacity:1;stroke-width:0.5;" x1="263" x2="3036" y1="292" y2="292"/>
  <text style="stroke:none;fill:black;font-family:sans-serif;font-size:13;font-weight:bold;" transform="matrix(1 0 0 1 263 322)">Weight/Scale Variations</text>
  <text style="stroke:none;fill:black;font-family:sans-serif;font-size:13;text-anchor:middle;" transform="matrix(1 0 0 1 559.711 322)">Ultralight</text>
  <text style="stroke:none;fill:black;font-family:sans-serif;font-size:13;text-anchor:middle;" transform="matrix(1 0 0 1 856.422 322)">Thin</text>
  <text style="stroke:none;fill:black;font-family:sans-serif;font-size:13;text-anchor:middle;" transform="matrix(1 0 0 1 1153.13 322)">Light</text>
  <text style="stroke:none;fill:black;font-family:sans-serif;font-size:13;text-anchor:middle;" transform="matrix(1 0 0 1 1449.84 322)">Regular</text>
  <text style="stroke:none;fill:black;font-family:sans-serif;font-size:13;text-anchor:middle;" transform="matrix(1 0 0 1 1746.56 322)">Medium</text>
  <text style="stroke:none;fill:black;font-family:sans-serif;font-size:13;text-anchor:middle;" transform="matrix(1 0 0 1 2043.27 322)">Semibold</text>
  <text style="stroke:none;fill:black;font-family:sans-serif;font-size:13;text-anchor:middle;" transform="matrix(1 0 0 1 2339.98 322)">Bold</text>
  <text style="stroke:none;fill:black;font-family:sans-serif;font-size:13;text-anchor:middle;" transform="matrix(1 0 0 1 2636.69 322)">Heavy</text>
  <text style="stroke:none;fill:black;font-family:sans-serif;font-size:13;text-anchor:middle;" transform="matrix(1 0 0 1 2933.4 322)">Black</text>
  <line style="fill:none;stroke:black;opacity:1;stroke-width:0.5;" x1="263" x2="3036" y1="1903" y2="1903"/>
  <g transform="matrix(0.2 0 0 0.2 263 1933)">
   <path d="m46.2402 4.15039c21.7773 0 39.4531-17.627 39.4531-39.4043s-17.6758-39.4043-39.4531-39.4043c-21.7285 0-39.4043 17.627-39.4043 39.4043s17.6758 39.4043 39.4043 39.4043Zm0-7.42188c-17.6758 0-31.9336-14.3066-31.9336-31.9824s14.2578-31.9824 31.9336-31.9824 31.9824 14.3066 31.9824 31.9824-14.3066 31.9824-31.9824 31.9824Zm-17.9688-31.9824c0 2.14844 1.51367 3.61328 3.75977 3.61328h10.498v10.5957c0 2.19727 1.46484 3.71094 3.61328 3.71094 2.24609 0 3.71094-1.51367 3.71094-3.71094v-10.5957h10.5957c2.19727 0 3.71094-1.46484 3.71094-3.61328 0-2.19727-1.51367-3.71094-3.71094-3.71094h-10.5957v-10.5469c0-2.24609-1.46484-3.75977-3.71094-3.75977-2.14844 0-3.61328 1.51367-3.61328 3.75977v10.5469h-10.498c-2.24609 0-3.75977 1.51367-3.75977 3.71094Z"/>
  </g>
  <g transform="matrix(0.2 0 0 0.2 281.506 1933)">
   <path d="m58.5449 14.5508c27.4902 0 49.8047-22.3145 49.8047-49.8047s-22.3145-49.8047-49.8047-49.8047-49.8047 22.3145-49.8047 49.8047 22.3145 49.8047 49.8047 49.8047Zm0-8.30078c-22.9492 0-41.5039-18.5547-41.5039-41.5039s18.5547-41.5039 41.5039-41.5039 41.5039 18.5547 41.5039 41.5039-18.5547 41.5039-41.5039 41.5039Zm-22.6562-41.5039c0 2.39258 1.66016 4.00391 4.15039 4.00391h14.3555v14.4043c0 2.44141 1.66016 4.15039 4.05273 4.15039 2.44141 0 4.15039-1.66016 4.15039-4.15039v-14.4043h14.4043c2.44141 0 4.15039-1.61133 4.15039-4.00391 0-2.44141-1.70898-4.15039-4.15039-4.15039h-14.4043v-14.3555c0-2.49023-1.70898-4.19922-4.15039-4.19922-2.39258 0-4.05273 1.70898-4.05273 4.19922v14.3555h-14.3555c-2.49023 0-4.15039 1.70898-4.15039 4.15039Z"/>
  </g>
  <g transform="matrix(0.2 0 0 0.2 304.924 1933)">
   <path d="m74.8535 28.3203c35.1074 0 63.623-28.4668 63.623-63.5742s-28.5156-63.623-63.623-63.623-63.5742 28.5156-63.5742 63.623 28.4668 63.5742 63.5742 63.5742Zm0-9.08203c-30.127 0-54.4922-24.3652-54.4922-54.4922s24.3652-54.4922 54.4922-54.4922 54.4922 24.3652 54.4922 54.4922-24.3652 54.4922-54.4922 54.4922Zm-28.8574-54.4922c0 2.58789 1.85547 4.39453 4.58984 4.39453h19.7266v19.7754c0 2.68555 1.85547 4.58984 4.44336 4.58984 2.68555 0 4.54102-1.85547 4.54102-4.58984v-19.7754h19.7754c2.68555 0 4.58984-1.80664 4.58984-4.39453 0-2.73438-1.85547-4.58984-4.58984-4.58984h-19.7754v-19.7266c0-2.73438-1.85547-4.63867-4.54102-4.63867-2.58789 0-4.44336 1.9043-4.44336 4.63867v19.7266h-19.7266c-2.73438 0-4.58984 1.85547-4.58984 4.58984Z"/>
  </g>
  <text style="stroke:none;fill:black;font-family:sans-serif;font-size:13;font-weight:bold;" transform="matrix(1 0 0 1 263 1953)">Design Variations</text>
  <text style="stroke:none;fill:black;font-family:sans-serif;font-size:13;" transform="matrix(1 0 0 1 263 1971)">Symbols are supported in up to nine weights and three scales.</text>
  <text style="stroke:none;fill:black;font-family:sans-serif;font-size:13;" transform="matrix(1 0 0 1 263 1989)">For optimal layout with text and other symbols, vertically align</text>
  <text style="stroke:none;fill:black;font-family:sans-serif;font-size:13;" transform="matrix(1 0 0 1 263 2007)">symbols with the adjacent text.</text>
  <line style="fill:none;stroke:#00AEEF;stroke-width:0.5;opacity:1.0;" x1="776" x2="776" y1="1919" y2="1933"/>
  <g transform="matrix(0.2 0 0 0.2 776 1933)">
   <path d="m16.5527 0.78125c2.58789 0 3.85742-0.976562 4.78516-3.71094l6.29883-17.2363h28.8086l6.29883 17.2363c0.927734 2.73438 2.19727 3.71094 4.73633 3.71094 2.58789 0 4.24805-1.5625 4.24805-4.00391 0-0.830078-0.146484-1.61133-0.537109-2.63672l-22.9004-60.9863c-1.12305-2.97852-3.125-4.49219-6.25-4.49219-3.02734 0-5.07812 1.46484-6.15234 4.44336l-22.9004 61.084c-0.390625 1.02539-0.537109 1.80664-0.537109 2.63672 0 2.44141 1.5625 3.95508 4.10156 3.95508Zm13.4766-28.3691 11.8652-32.8613h0.244141l11.8652 32.8613Z"/>
  </g>
  <line style="fill:none;stroke:#00AEEF;stroke-width:0.5;opacity:1.0;" x1="792.836" x2="792.836" y1="1919" y2="1933"/>
  <text style="stroke:none;fill:black;font-family:sans-serif;font-size:13;font-weight:bold;" transform="matrix(1 0 0 1 776 1953)">Margins</text>
  <text style="stroke:none;fill:black;font-family:sans-serif;font-size:13;" transform="matrix(1 0 0 1 776 1971)">Leading and trailing margins on the left and right side of each symbol</text>
  <text style="stroke:none;fill:black;font-family:sans-serif;font-size:13;" transform="matrix(1 0 0 1 776 1989)">can be adjusted by modifying the x-location of the margin guidelines.</text>
  <text style="stroke:none;fill:black;font-family:sans-serif;font-size:13;" transform="matrix(1 0 0 1 776 2007)">Modifications are automatically applied proportionally to all</text>
  <text style="stroke:none;fill:black;font-family:sans-serif;font-size:13;" transform="matrix(1 0 0 1 776 2025)">scales and weights.</text>
  <g transform="matrix(0.2 0 0 0.2 1289 1933)">
   <path d="m14.209 9.32617 8.49609 8.54492c4.29688 4.3457 9.22852 4.05273 13.8672-1.07422l53.4668-58.9355-4.83398-4.88281-53.0762 58.3984c-1.75781 2.00195-3.41797 2.49023-5.76172 0.146484l-5.85938-5.81055c-2.34375-2.29492-1.80664-4.00391 0.195312-5.81055l57.373-54.0039-4.88281-4.83398-57.959 54.4434c-4.93164 4.58984-5.32227 9.47266-1.02539 13.8184Zm32.0801-90.9668c-2.09961 2.05078-2.24609 4.93164-1.07422 6.88477 1.17188 1.80664 3.4668 2.97852 6.68945 2.14844 7.32422-1.70898 14.9414-2.00195 22.0703 2.68555l-2.92969 7.27539c-1.70898 4.15039-0.830078 7.08008 1.85547 9.81445l11.4746 11.5723c2.44141 2.44141 4.49219 2.53906 7.32422 2.05078l5.32227-0.976562 3.32031 3.36914-0.195312 2.7832c-0.195312 2.49023 0.439453 4.39453 2.88086 6.78711l3.80859 3.71094c2.39258 2.39258 5.46875 2.53906 7.8125 0.195312l14.5508-14.5996c2.34375-2.34375 2.24609-5.32227-0.146484-7.71484l-3.85742-3.80859c-2.39258-2.39258-4.24805-3.17383-6.64062-2.97852l-2.88086 0.244141-3.22266-3.17383 1.2207-5.61523c0.634766-2.83203-0.146484-5.0293-3.07617-7.95898l-10.9863-10.9375c-16.6992-16.6016-38.8672-16.2109-53.3203-1.75781Zm7.4707 1.85547c12.1582-8.88672 28.6133-7.37305 39.7461 3.75977l12.1582 12.0605c1.17188 1.17188 1.36719 2.09961 1.02539 3.80859l-1.61133 7.42188 7.51953 7.42188 4.93164-0.292969c1.26953-0.0488281 1.66016 0.0488281 2.63672 1.02539l2.88086 2.88086-12.207 12.207-2.88086-2.88086c-0.976562-0.976562-1.12305-1.36719-1.07422-2.68555l0.341797-4.88281-7.4707-7.42188-7.61719 1.26953c-1.61133 0.341797-2.34375 0.195312-3.56445-0.976562l-10.0098-10.0098c-1.26953-1.17188-1.41602-2.00195-0.634766-3.85742l4.39453-10.4492c-7.8125-7.27539-17.9688-10.4004-28.125-7.42188-0.78125 0.195312-1.07422-0.439453-0.439453-0.976562Z"/>
  </g>
  <text style="stroke:none;fill:black;font-family:sans-serif;font-size:13;font-weight:bold;" transform="matrix(1 0 0 1 1289 1953)">Exporting</text>
  <text style="stroke:none;fill:black;font-family:sans-serif;font-size:13;" transform="matrix(1 0 0 1 1289 1971)">Symbols should be outlined when exporting to ensure the</text>
  <text style="stroke:none;fill:black;font-family:sans-serif;font-size:13;" transform="matrix(1 0 0 1 1289 1989)">design is preserved when submitting to Xcode.</text>
  <text id="template-version" style="stroke:none;fill:black;font-family:sans-serif;font-size:13;text-anchor:end;" transform="matrix(1 0 0 1 3036 1933)">Template v.6.0</text>
  <text style="stroke:none;fill:black;font-family:sans-serif;font-size:13;text-anchor:end;" transform="matrix(1 0 0 1 3036 1951)">Requires Xcode 16 or greater</text>
  <text id="descriptive-name" style="stroke:none;fill:black;font-family:sans-serif;font-size:13;text-anchor:end;" transform="matrix(1 0 0 1 3036 1969)">Generated from fish</text>
  <text style="stroke:none;fill:black;font-family:sans-serif;font-size:13;text-anchor:end;" transform="matrix(1 0 0 1 3036 1987)">Typeset at 100.0 points</text>
  <text style="stroke:none;fill:black;font-family:sans-serif;font-size:13;" transform="matrix(1 0 0 1 263 726)">Small</text>
  <text style="stroke:none;fill:black;font-family:sans-serif;font-size:13;" transform="matrix(1 0 0 1 263 1156)">Medium</text>
  <text style="stroke:none;fill:black;font-family:sans-serif;font-size:13;" transform="matrix(1 0 0 1 263 1586)">Large</text>
 </g>
 <g id="Guides">
  <g id="H-reference" style="fill:#27AAE1;stroke:none;" transform="matrix(1 0 0 1 339 696)">
   <path d="M0.993654 0L3.63775 0L29.3281-67.1323L30.0303-67.1323L30.0303-70.459L28.1226-70.459ZM11.6885-24.4799L46.9815-24.4799L46.2315-26.7285L12.4385-26.7285ZM55.1196 0L57.7637 0L30.6382-70.459L29.4326-70.459L29.4326-67.1323Z"/>
  </g>
  <line id="Baseline-S" style="fill:none;stroke:#27AAE1;opacity:1;stroke-width:0.5;" x1="263" x2="3036" y1="696" y2="696"/>
  <line id="Capline-S" style="fill:none;stroke:#27AAE1;opacity:1;stroke-width:0.5;" x1="263" x2="3036" y1="625.541" y2="625.541"/>
  <g id="H-reference" style="fill:#27AAE1;stroke:none;" transform="matrix(1 0 0 1 339 1126)">
   <path d="M0.993654 0L3.63775 0L29.3281-67.1323L30.0303-67.1323L30.0303-70.459L28.1226-70.459ZM11.6885-24.4799L46.9815-24.4799L46.2315-26.7285L12.4385-26.7285ZM55.1196 0L57.7637 0L30.6382-70.459L29.4326-70.459L29.4326-67.1323Z"/>
  </g>
  <line id="Baseline-M" style="fill:none;stroke:#27AAE1;opacity:1;stroke-width:0.5;" x1="263" x2="3036" y1="1126" y2="1126"/>
  <line id="Capline-M" style="fill:none;stroke:#27AAE1;opacity:1;stroke-width:0.5;" x1="263" x2="3036" y1="1055.54" y2="1055.54"/>
  <g id="H-reference" style="fill:#27AAE1;stroke:none;" transform="matrix(1 0 0 1 339 1556)">
   <path d="M0.993654 0L3.63775 0L29.3281-67.1323L30.0303-67.1323L30.0303-70.459L28.1226-70.459ZM11.6885-24.4799L46.9815-24.4799L46.2315-26.7285L12.4385-26.7285ZM55.1196 0L57.7637 0L30.6382-70.459L29.4326-70.459L29.4326-67.1323Z"/>
  </g>
  <line id="Baseline-L" style="fill:none;stroke:#27AAE1;opacity:1;stroke-width:0.5;" x1="263" x2="3036" y1="1556" y2="1556"/>
  <line id="Capline-L" style="fill:none;stroke:#27AAE1;opacity:1;stroke-width:0.5;" x1="263" x2="3036" y1="1485.54" y2="1485.54"/>
  <line id="right-margin-Black-S" style="fill:none;stroke:#00AEEF;stroke-width:0.5;opacity:1.0;" x1="2982.2" x2="2982.2" y1="600.785" y2="720.121"/>
  <line id="left-margin-Black-S" style="fill:none;stroke:#00AEEF;stroke-width:0.5;opacity:1.0;" x1="2884.6" x2="2884.6" y1="600.785" y2="720.121"/>
  <line id="right-margin-Regular-S" style="fill:none;stroke:#00AEEF;stroke-width:0.5;opacity:1.0;" x1="1496.09" x2="1496.09" y1="600.785" y2="720.121"/>
  <line id="left-margin-Regular-S" style="fill:none;stroke:#00AEEF;stroke-width:0.5;opacity:1.0;" x1="1403.59" x2="1403.59" y1="600.785" y2="720.121"/>
  <line id="right-margin-Ultralight-S" style="fill:none;stroke:#00AEEF;stroke-width:0.5;opacity:1.0;" x1="603.811" x2="603.811" y1="600.785" y2="720.121"/>
  <line id="left-margin-Ultralight-S" style="fill:none;stroke:#00AEEF;stroke-width:0.5;opacity:1.0;" x1="515.611" x2="515.611" y1="600.785" y2="720.121"/>
 </g>
 <g id="Symbols">
  <g id="Black-S" transform="matrix(1 0 0 1 2884.6 696)">
   <path class="multicolor-0:black hierarchical-0:secondary SFSymbolsPreviewWireframe" d="M5.6-17.5C7.7-23.7 6.1-28.2 2.5-32.7C-1.2-37.2 13.1-37.9 17.7-31.7C22.4-25.5 33.3-14.7 23.6-14.8C13.9-14.9 5.6-17.5 5.6-17.5L5.6-17.5Z"/>
   <path class="monochrome-0 multicolor-1:systemBlueColor hierarchical-1:secondary SFSymbolsPreviewWireframe" d="M87.5-30.3C87.5-33 91.7-47.2 95.8-51.3C100-55.5 95.8-59.9 91.6-59.9C82.3-59.9 66.7-41.1 66.7-30.2C66.7-16.6 82.3-1.9 91.6-1.9C95.8-1.9 99.9-5.8 95.8-9.8C91.6-14.1 87.5-24.9 87.5-30.3ZM24.5-56.6C24.5-64.9 28.6-73.1 32.8-73.1C45.2-73.1 69-60 73.2-39.2C77.3-18.5 24.5-56.6 24.5-56.6L24.5-56.6ZM37.7-6.8C41.9-2.6 50.1 1.5 58.4 1.5C66.7 1.5 49.9-9.9 54.2-15C60.3-22.2 37.7-6.8 37.7-6.8L37.7-6.8Z"/>
   <path class="monochrome-1 multicolor-2:systemCyanColor hierarchical-2:tertiary SFSymbolsPreviewWireframe" d="M0.4-31.8C3-29.4 12.1-26.3 19.5-27C19.3-24.7 17.8-22.5 12.3-21.4C7.4-20 6.2-20.2 5.1-20C2.8-19.2 3.6-16.8 4.5-15.4C8.6-8.3 24.4-2.7 37.6-2.7C60.5-2.7 83.3-23.4 83.3-31.7C83.3-40 57.9-60.7 35-60.7C12.1-60.7 0.4-44.2 0.4-31.8Z"/>
   <path class="monochrome-2 multicolor-3:systemBlueColor hierarchical-3:primary SFSymbolsPreviewWireframe" d="M41-14.1C39.5-14.1 38.3-15.3 38.3-16.8C38.3-17.2 38.4-17.6 38.6-18.1C42.9-26.4 44.7-33.8 39-43.2C38.3-44.5 38.7-46.1 39.9-47C41.2-47.7 42.8-47.3 43.7-46.1L43.7-46.1C51-33.8 47.7-23.8 43.4-15.7C42.9-14.6 42.1-14.1 41-14.1L41-14.1Z"/>
   <path class="monochrome-3 multicolor-4:black hierarchical-4:primary SFSymbolsPreviewWireframe" d="M19-49.5C22-49.6 24.5-47.2 24.5-44.2C24.6-41.2 22.2-38.7 19.2-38.7C19.1-38.7 19-38.7 19-38.7C16-38.8 13.6-41.2 13.7-44.2C13.7-47 16.1-49.4 19-49.5Z"/>
  </g>
  <g id="Regular-S" transform="matrix(1 0 0 1 1403.59 696)">
   <path class="multicolor-0:black hierarchical-0:secondary SFSymbolsPreviewWireframe" d="M5.3-17.9C7.2-23.8 5.8-28.1 2.4-32.3C-1-36.5 12.4-37.2 16.8-31.3C21.2-25.4 31.6-15.1 22.3-15.3C13.1-15.5 5.3-17.9 5.3-17.9L5.3-17.9Z"/>
   <path class="monochrome-0 multicolor-1:systemBlueColor hierarchical-1:secondary SFSymbolsPreviewWireframe" d="M82.8-30.1C82.8-32.7 86.7-46.1 90.6-50C94.5-53.9 90.6-58.1 86.7-58.1C77.9-58.1 63.2-40.3 63.2-30C63.2-17.1 78-3.1 86.7-3.1C90.6-3.1 94.5-6.7 90.6-10.6C86.7-14.5 82.8-24.9 82.8-30.1ZM23.2-54.9C23.2-62.7 27-70.6 30.9-70.6C42.7-70.6 65.3-58.1 69.2-38.5C73.2-18.9 23.2-54.9 23.2-54.9L23.2-54.9ZM35.8-7.7C39.7-3.8 47.6 0.1 55.4 0.1C63.2 0.1 47.4-10.7 51.5-15.6C57.1-22.3 35.8-7.7 35.8-7.7L35.8-7.7Z"/>
   <path class="monochrome-1 multicolor-2:systemCyanColor hierarchical-2:tertiary SFSymbolsPreviewWireframe" d="M0.4-31.4C2.9-29.2 11.5-26.2 18.5-26.9C18.3-24.8 16.9-22.6 11.7-21.6C7.1-20.3 6-20.5 4.9-20.3C2.7-19.5 3.5-17.2 4.3-15.9C8.1-9.2 23.1-3.8 35.7-3.8C57.4-3.8 79.1-23.4 79.1-31.3C79.1-39.1 55-58.8 33.3-58.8C11.5-58.8 0.5-43.2 0.4-31.4Z"/>
   <path class="monochrome-2 multicolor-3:systemBlueColor hierarchical-3:primary SFSymbolsPreviewWireframe" d="M38.9-14.7C37.5-14.7 36.3-15.8 36.3-17.2C36.3-17.6 36.4-18 36.6-18.4C40.7-26.2 42.3-33.3 37-42.2C36.3-43.4 36.7-45 37.9-45.7C39.1-46.4 40.7-46 41.4-44.8L41.4-44.8C48.3-33.1 45.1-23.7 41.1-15.9C40.7-15.2 39.8-14.7 38.9-14.7L38.9-14.7Z"/>
   <path class="monochrome-3 multicolor-4:black hierarchical-4:primary SFSymbolsPreviewWireframe" d="M18-48.2C20.8-48.3 23.2-46 23.2-43.2C23.3-40.4 21-38 18.2-38C18.1-38 18-38 18-38C15.2-38.1 12.9-40.4 13-43.2C13-45.9 15.2-48.1 18-48.2Z"/>
  </g>
  <g id="Ultralight-S" transform="matrix(1 0 0 1 515.611 696)">
   <path class="multicolor-0:black hierarchical-0:secondary SFSymbolsPreviewWireframe" d="M5.2-19.1C7-24.7 5.7-28.7 2.4-32.7C-0.8-36.7 11.8-37.4 16-31.7C20.2-26.1 29.9-16.3 21.2-16.5C12.5-16.7 5.2-19.1 5.2-19.1L5.2-19.1Z"/>
   <path class="monochrome-0 multicolor-1:systemBlueColor hierarchical-1:secondary SFSymbolsPreviewWireframe" d="M78.7-30.6C78.7-33.1 82.4-45.8 86.1-49.5C89.8-53.2 86.1-57.2 82.4-57.2C74.1-57.2 60.1-40.3 60.1-30.6C60.1-18.4 74.1-5.1 82.4-5.1C86.1-5.1 89.8-8.5 86.1-12.3C82.4-16 78.7-25.7 78.7-30.6ZM22.2-54.1C22.2-61.5 25.8-69 29.5-69C40.7-69 62-57.2 65.7-38.6C69.5-20 22.2-54.1 22.2-54.1L22.2-54.1ZM34-9.4C37.7-5.7 45.2-2 52.6-2C60-2 45-12.2 48.9-16.9C54.3-23.3 34-9.4 34-9.4L34-9.4Z"/>
   <path class="monochrome-1 multicolor-2:systemCyanColor hierarchical-2:tertiary SFSymbolsPreviewWireframe" d="M0.6-31.9C3-29.8 11.1-26.9 17.8-27.6C17.7-25.6 16.3-23.5 11.3-22.5C6.9-21.3 5.9-21.5 4.8-21.3C2.7-20.5 3.5-18.3 4.2-17.1C7.8-10.7 22-5.8 33.9-5.8C54.4-5.8 74.9-24.4 74.9-31.8C74.9-39.2 52.1-57.8 31.5-57.8C11.2-57.9 0.6-43 0.6-31.9Z"/>
   <path class="monochrome-2 multicolor-3:systemBlueColor hierarchical-3:primary SFSymbolsPreviewWireframe" d="M37-16C35.7-16 34.5-17 34.5-18.4C34.5-18.8 34.6-19.2 34.8-19.5C38.7-26.9 40.2-33.6 35.2-42.1C34.5-43.2 34.9-44.8 36.1-45.4C37.3-46 38.8-45.7 39.4-44.5L39.4-44.5C46-33.4 42.9-24.5 39.1-17.1C38.7-16.5 38-16 37-16L37-16Z"/>
   <path class="monochrome-3 multicolor-4:black hierarchical-4:primary SFSymbolsPreviewWireframe" d="M17.3-47.7C20-47.8 22.3-45.6 22.3-42.9C22.4-40.2 20.2-37.9 17.5-37.9C17.4-37.9 17.4-37.9 17.3-37.9C14.6-38 12.4-40.2 12.5-42.9C12.6-45.6 14.7-47.7 17.3-47.7Z"/>
  </g>
 </g>
</svg>
