<?xml version="1.0" encoding="UTF-8"?>
<!--Generator: Apple Native CoreSVG 341-->
<!DOCTYPE svg
PUBLIC "-//W3C//DTD SVG 1.1//EN"
       "http://www.w3.org/Graphics/SVG/1.1/DTD/svg11.dtd">
<svg version="1.1" xmlns="http://www.w3.org/2000/svg" xmlns:xlink="http://www.w3.org/1999/xlink" viewBox="0 0 3300 2200">
 <!--glyph: "", point size: 100.0, font version: "20.0d10e1", template writer version: "138.0.0"-->
 <style>.monochrome-0 {-sfsymbols-motion-group:5;-sfsymbols-layer-tags:-62982b6e6b179f77}
.monochrome-1 {-sfsymbols-motion-group:4;-sfsymbols-layer-tags:-62982b6e6b179f77}
.monochrome-2 {opacity:0.0;-sfsymbols-clear-behind:true;-sfsymbols-motion-group:3;-sfsymbols-layer-tags:-62982b6e6b179f77}
.monochrome-3 {opacity:0.0;-sfsymbols-clear-behind:true;-sfsymbols-motion-group:2;-sfsymbols-layer-tags:-62982b6e6b179f77}
.monochrome-4 {opacity:0.0;-sfsymbols-clear-behind:true;-sfsymbols-motion-group:1;-sfsymbols-layer-tags:-62982b6e6b179f77}
.monochrome-5 {opacity:0.0;-sfsymbols-clear-behind:true;-sfsymbols-motion-group:0;-sfsymbols-layer-tags:-62982b6e6b179f77}

.multicolor-0:systemOrangeColor {-sfsymbols-motion-group:5;-sfsymbols-layer-tags:-62982b6e6b179f77}
.multicolor-1:custom {fill:#FED2B1;-sfsymbols-clear-behind:true;-sfsymbols-motion-group:4;-sfsymbols-layer-tags:-62982b6e6b179f77}
.multicolor-2:systemGrayColor {-sfsymbols-motion-group:3;-sfsymbols-layer-tags:-62982b6e6b179f77}
.multicolor-3:white {-sfsymbols-motion-group:2;-sfsymbols-layer-tags:-62982b6e6b179f77}
.multicolor-4:black {-sfsymbols-clear-behind:true;-sfsymbols-motion-group:1;-sfsymbols-layer-tags:-62982b6e6b179f77}
.multicolor-5:custom {fill:#FFA7AA;-sfsymbols-motion-group:0;-sfsymbols-layer-tags:-62982b6e6b179f77}

.hierarchical-0:tertiary {-sfsymbols-motion-group:5;-sfsymbols-layer-tags:-62982b6e6b179f77}
.hierarchical-1:secondary {-sfsymbols-clear-behind:true;-sfsymbols-motion-group:4;-sfsymbols-layer-tags:-62982b6e6b179f77}
.hierarchical-2:primary {-sfsymbols-motion-group:3;-sfsymbols-layer-tags:-62982b6e6b179f77}
.hierarchical-3:primary {-sfsymbols-motion-group:2;-sfsymbols-layer-tags:-62982b6e6b179f77}
.hierarchical-4:primary {-sfsymbols-clear-behind:true;-sfsymbols-motion-group:1;-sfsymbols-layer-tags:-62982b6e6b179f77}
.hierarchical-5:primary {-sfsymbols-motion-group:0;-sfsymbols-layer-tags:-62982b6e6b179f77}

.SFSymbolsPreviewWireframe {fill:none;opacity:1.0;stroke:black;stroke-width:0.5}
</style>
 <g id="Notes">
  <rect height="2200" id="artboard" style="fill:white;opacity:1" width="3300" x="0" y="0"/>
  <line style="fill:none;stroke:black;opacity:1;stroke-width:0.5;" x1="263" x2="3036" y1="292" y2="292"/>
  <text style="stroke:none;fill:black;font-family:sans-serif;font-size:13;font-weight:bold;" transform="matrix(1 0 0 1 263 322)">Weight/Scale Variations</text>
  <text style="stroke:none;fill:black;font-family:sans-serif;font-size:13;text-anchor:middle;" transform="matrix(1 0 0 1 559.711 322)">Ultralight</text>
  <text style="stroke:none;fill:black;font-family:sans-serif;font-size:13;text-anchor:middle;" transform="matrix(1 0 0 1 856.422 322)">Thin</text>
  <text style="stroke:none;fill:black;font-family:sans-serif;font-size:13;text-anchor:middle;" transform="matrix(1 0 0 1 1153.13 322)">Light</text>
  <text style="stroke:none;fill:black;font-family:sans-serif;font-size:13;text-anchor:middle;" transform="matrix(1 0 0 1 1449.84 322)">Regular</text>
  <text style="stroke:none;fill:black;font-family:sans-serif;font-size:13;text-anchor:middle;" transform="matrix(1 0 0 1 1746.56 322)">Medium</text>
  <text style="stroke:none;fill:black;font-family:sans-serif;font-size:13;text-anchor:middle;" transform="matrix(1 0 0 1 2043.27 322)">Semibold</text>
  <text style="stroke:none;fill:black;font-family:sans-serif;font-size:13;text-anchor:middle;" transform="matrix(1 0 0 1 2339.98 322)">Bold</text>
  <text style="stroke:none;fill:black;font-family:sans-serif;font-size:13;text-anchor:middle;" transform="matrix(1 0 0 1 2636.69 322)">Heavy</text>
  <text style="stroke:none;fill:black;font-family:sans-serif;font-size:13;text-anchor:middle;" transform="matrix(1 0 0 1 2933.4 322)">Black</text>
  <line style="fill:none;stroke:black;opacity:1;stroke-width:0.5;" x1="263" x2="3036" y1="1903" y2="1903"/>
  <g transform="matrix(0.2 0 0 0.2 263 1933)">
   <path d="m46.2402 4.15039c21.7773 0 39.4531-17.627 39.4531-39.4043s-17.6758-39.4043-39.4531-39.4043c-21.7285 0-39.4043 17.627-39.4043 39.4043s17.6758 39.4043 39.4043 39.4043Zm0-7.42188c-17.6758 0-31.9336-14.3066-31.9336-31.9824s14.2578-31.9824 31.9336-31.9824 31.9824 14.3066 31.9824 31.9824-14.3066 31.9824-31.9824 31.9824Zm-17.9688-31.9824c0 2.14844 1.51367 3.61328 3.75977 3.61328h10.498v10.5957c0 2.19727 1.46484 3.71094 3.61328 3.71094 2.24609 0 3.71094-1.51367 3.71094-3.71094v-10.5957h10.5957c2.19727 0 3.71094-1.46484 3.71094-3.61328 0-2.19727-1.51367-3.71094-3.71094-3.71094h-10.5957v-10.5469c0-2.24609-1.46484-3.75977-3.71094-3.75977-2.14844 0-3.61328 1.51367-3.61328 3.75977v10.5469h-10.498c-2.24609 0-3.75977 1.51367-3.75977 3.71094Z"/>
  </g>
  <g transform="matrix(0.2 0 0 0.2 281.506 1933)">
   <path d="m58.5449 14.5508c27.4902 0 49.8047-22.3145 49.8047-49.8047s-22.3145-49.8047-49.8047-49.8047-49.8047 22.3145-49.8047 49.8047 22.3145 49.8047 49.8047 49.8047Zm0-8.30078c-22.9492 0-41.5039-18.5547-41.5039-41.5039s18.5547-41.5039 41.5039-41.5039 41.5039 18.5547 41.5039 41.5039-18.5547 41.5039-41.5039 41.5039Zm-22.6562-41.5039c0 2.39258 1.66016 4.00391 4.15039 4.00391h14.3555v14.4043c0 2.44141 1.66016 4.15039 4.05273 4.15039 2.44141 0 4.15039-1.66016 4.15039-4.15039v-14.4043h14.4043c2.44141 0 4.15039-1.61133 4.15039-4.00391 0-2.44141-1.70898-4.15039-4.15039-4.15039h-14.4043v-14.3555c0-2.49023-1.70898-4.19922-4.15039-4.19922-2.39258 0-4.05273 1.70898-4.05273 4.19922v14.3555h-14.3555c-2.49023 0-4.15039 1.70898-4.15039 4.15039Z"/>
  </g>
  <g transform="matrix(0.2 0 0 0.2 304.924 1933)">
   <path d="m74.8535 28.3203c35.1074 0 63.623-28.4668 63.623-63.5742s-28.5156-63.623-63.623-63.623-63.5742 28.5156-63.5742 63.623 28.4668 63.5742 63.5742 63.5742Zm0-9.08203c-30.127 0-54.4922-24.3652-54.4922-54.4922s24.3652-54.4922 54.4922-54.4922 54.4922 24.3652 54.4922 54.4922-24.3652 54.4922-54.4922 54.4922Zm-28.8574-54.4922c0 2.58789 1.85547 4.39453 4.58984 4.39453h19.7266v19.7754c0 2.68555 1.85547 4.58984 4.44336 4.58984 2.68555 0 4.54102-1.85547 4.54102-4.58984v-19.7754h19.7754c2.68555 0 4.58984-1.80664 4.58984-4.39453 0-2.73438-1.85547-4.58984-4.58984-4.58984h-19.7754v-19.7266c0-2.73438-1.85547-4.63867-4.54102-4.63867-2.58789 0-4.44336 1.9043-4.44336 4.63867v19.7266h-19.7266c-2.73438 0-4.58984 1.85547-4.58984 4.58984Z"/>
  </g>
  <text style="stroke:none;fill:black;font-family:sans-serif;font-size:13;font-weight:bold;" transform="matrix(1 0 0 1 263 1953)">Design Variations</text>
  <text style="stroke:none;fill:black;font-family:sans-serif;font-size:13;" transform="matrix(1 0 0 1 263 1971)">Symbols are supported in up to nine weights and three scales.</text>
  <text style="stroke:none;fill:black;font-family:sans-serif;font-size:13;" transform="matrix(1 0 0 1 263 1989)">For optimal layout with text and other symbols, vertically align</text>
  <text style="stroke:none;fill:black;font-family:sans-serif;font-size:13;" transform="matrix(1 0 0 1 263 2007)">symbols with the adjacent text.</text>
  <line style="fill:none;stroke:#00AEEF;stroke-width:0.5;opacity:1.0;" x1="776" x2="776" y1="1919" y2="1933"/>
  <g transform="matrix(0.2 0 0 0.2 776 1933)">
   <path d="m16.5527 0.78125c2.58789 0 3.85742-0.976562 4.78516-3.71094l6.29883-17.2363h28.8086l6.29883 17.2363c0.927734 2.73438 2.19727 3.71094 4.73633 3.71094 2.58789 0 4.24805-1.5625 4.24805-4.00391 0-0.830078-0.146484-1.61133-0.537109-2.63672l-22.9004-60.9863c-1.12305-2.97852-3.125-4.49219-6.25-4.49219-3.02734 0-5.07812 1.46484-6.15234 4.44336l-22.9004 61.084c-0.390625 1.02539-0.537109 1.80664-0.537109 2.63672 0 2.44141 1.5625 3.95508 4.10156 3.95508Zm13.4766-28.3691 11.8652-32.8613h0.244141l11.8652 32.8613Z"/>
  </g>
  <line style="fill:none;stroke:#00AEEF;stroke-width:0.5;opacity:1.0;" x1="792.836" x2="792.836" y1="1919" y2="1933"/>
  <text style="stroke:none;fill:black;font-family:sans-serif;font-size:13;font-weight:bold;" transform="matrix(1 0 0 1 776 1953)">Margins</text>
  <text style="stroke:none;fill:black;font-family:sans-serif;font-size:13;" transform="matrix(1 0 0 1 776 1971)">Leading and trailing margins on the left and right side of each symbol</text>
  <text style="stroke:none;fill:black;font-family:sans-serif;font-size:13;" transform="matrix(1 0 0 1 776 1989)">can be adjusted by modifying the x-location of the margin guidelines.</text>
  <text style="stroke:none;fill:black;font-family:sans-serif;font-size:13;" transform="matrix(1 0 0 1 776 2007)">Modifications are automatically applied proportionally to all</text>
  <text style="stroke:none;fill:black;font-family:sans-serif;font-size:13;" transform="matrix(1 0 0 1 776 2025)">scales and weights.</text>
  <g transform="matrix(0.2 0 0 0.2 1289 1933)">
   <path d="m14.209 9.32617 8.49609 8.54492c4.29688 4.3457 9.22852 4.05273 13.8672-1.07422l53.4668-58.9355-4.83398-4.88281-53.0762 58.3984c-1.75781 2.00195-3.41797 2.49023-5.76172 0.146484l-5.85938-5.81055c-2.34375-2.29492-1.80664-4.00391 0.195312-5.81055l57.373-54.0039-4.88281-4.83398-57.959 54.4434c-4.93164 4.58984-5.32227 9.47266-1.02539 13.8184Zm32.0801-90.9668c-2.09961 2.05078-2.24609 4.93164-1.07422 6.88477 1.17188 1.80664 3.4668 2.97852 6.68945 2.14844 7.32422-1.70898 14.9414-2.00195 22.0703 2.68555l-2.92969 7.27539c-1.70898 4.15039-0.830078 7.08008 1.85547 9.81445l11.4746 11.5723c2.44141 2.44141 4.49219 2.53906 7.32422 2.05078l5.32227-0.976562 3.32031 3.36914-0.195312 2.7832c-0.195312 2.49023 0.439453 4.39453 2.88086 6.78711l3.80859 3.71094c2.39258 2.39258 5.46875 2.53906 7.8125 0.195312l14.5508-14.5996c2.34375-2.34375 2.24609-5.32227-0.146484-7.71484l-3.85742-3.80859c-2.39258-2.39258-4.24805-3.17383-6.64062-2.97852l-2.88086 0.244141-3.22266-3.17383 1.2207-5.61523c0.634766-2.83203-0.146484-5.0293-3.07617-7.95898l-10.9863-10.9375c-16.6992-16.6016-38.8672-16.2109-53.3203-1.75781Zm7.4707 1.85547c12.1582-8.88672 28.6133-7.37305 39.7461 3.75977l12.1582 12.0605c1.17188 1.17188 1.36719 2.09961 1.02539 3.80859l-1.61133 7.42188 7.51953 7.42188 4.93164-0.292969c1.26953-0.0488281 1.66016 0.0488281 2.63672 1.02539l2.88086 2.88086-12.207 12.207-2.88086-2.88086c-0.976562-0.976562-1.12305-1.36719-1.07422-2.68555l0.341797-4.88281-7.4707-7.42188-7.61719 1.26953c-1.61133 0.341797-2.34375 0.195312-3.56445-0.976562l-10.0098-10.0098c-1.26953-1.17188-1.41602-2.00195-0.634766-3.85742l4.39453-10.4492c-7.8125-7.27539-17.9688-10.4004-28.125-7.42188-0.78125 0.195312-1.07422-0.439453-0.439453-0.976562Z"/>
  </g>
  <text style="stroke:none;fill:black;font-family:sans-serif;font-size:13;font-weight:bold;" transform="matrix(1 0 0 1 1289 1953)">Exporting</text>
  <text style="stroke:none;fill:black;font-family:sans-serif;font-size:13;" transform="matrix(1 0 0 1 1289 1971)">Symbols should be outlined when exporting to ensure the</text>
  <text style="stroke:none;fill:black;font-family:sans-serif;font-size:13;" transform="matrix(1 0 0 1 1289 1989)">design is preserved when submitting to Xcode.</text>
  <text id="template-version" style="stroke:none;fill:black;font-family:sans-serif;font-size:13;text-anchor:end;" transform="matrix(1 0 0 1 3036 1933)">Template v.6.0</text>
  <text style="stroke:none;fill:black;font-family:sans-serif;font-size:13;text-anchor:end;" transform="matrix(1 0 0 1 3036 1951)">Requires Xcode 16 or greater</text>
  <text id="descriptive-name" style="stroke:none;fill:black;font-family:sans-serif;font-size:13;text-anchor:end;" transform="matrix(1 0 0 1 3036 1969)">Generated from hamster</text>
  <text style="stroke:none;fill:black;font-family:sans-serif;font-size:13;text-anchor:end;" transform="matrix(1 0 0 1 3036 1987)">Typeset at 100.0 points</text>
  <text style="stroke:none;fill:black;font-family:sans-serif;font-size:13;" transform="matrix(1 0 0 1 263 726)">Small</text>
  <text style="stroke:none;fill:black;font-family:sans-serif;font-size:13;" transform="matrix(1 0 0 1 263 1156)">Medium</text>
  <text style="stroke:none;fill:black;font-family:sans-serif;font-size:13;" transform="matrix(1 0 0 1 263 1586)">Large</text>
 </g>
 <g id="Guides">
  <g id="H-reference" style="fill:#27AAE1;stroke:none;" transform="matrix(1 0 0 1 339 696)">
   <path d="M0.993654 0L3.63775 0L29.3281-67.1323L30.0303-67.1323L30.0303-70.459L28.1226-70.459ZM11.6885-24.4799L46.9815-24.4799L46.2315-26.7285L12.4385-26.7285ZM55.1196 0L57.7637 0L30.6382-70.459L29.4326-70.459L29.4326-67.1323Z"/>
  </g>
  <line id="Baseline-S" style="fill:none;stroke:#27AAE1;opacity:1;stroke-width:0.5;" x1="263" x2="3036" y1="696" y2="696"/>
  <line id="Capline-S" style="fill:none;stroke:#27AAE1;opacity:1;stroke-width:0.5;" x1="263" x2="3036" y1="625.541" y2="625.541"/>
  <g id="H-reference" style="fill:#27AAE1;stroke:none;" transform="matrix(1 0 0 1 339 1126)">
   <path d="M0.993654 0L3.63775 0L29.3281-67.1323L30.0303-67.1323L30.0303-70.459L28.1226-70.459ZM11.6885-24.4799L46.9815-24.4799L46.2315-26.7285L12.4385-26.7285ZM55.1196 0L57.7637 0L30.6382-70.459L29.4326-70.459L29.4326-67.1323Z"/>
  </g>
  <line id="Baseline-M" style="fill:none;stroke:#27AAE1;opacity:1;stroke-width:0.5;" x1="263" x2="3036" y1="1126" y2="1126"/>
  <line id="Capline-M" style="fill:none;stroke:#27AAE1;opacity:1;stroke-width:0.5;" x1="263" x2="3036" y1="1055.54" y2="1055.54"/>
  <g id="H-reference" style="fill:#27AAE1;stroke:none;" transform="matrix(1 0 0 1 339 1556)">
   <path d="M0.993654 0L3.63775 0L29.3281-67.1323L30.0303-67.1323L30.0303-70.459L28.1226-70.459ZM11.6885-24.4799L46.9815-24.4799L46.2315-26.7285L12.4385-26.7285ZM55.1196 0L57.7637 0L30.6382-70.459L29.4326-70.459L29.4326-67.1323Z"/>
  </g>
  <line id="Baseline-L" style="fill:none;stroke:#27AAE1;opacity:1;stroke-width:0.5;" x1="263" x2="3036" y1="1556" y2="1556"/>
  <line id="Capline-L" style="fill:none;stroke:#27AAE1;opacity:1;stroke-width:0.5;" x1="263" x2="3036" y1="1485.54" y2="1485.54"/>
  <line id="right-margin-Black-S" style="fill:none;stroke:#00AEEF;stroke-width:0.5;opacity:1.0;" x1="2970.7" x2="2970.7" y1="600.785" y2="720.121"/>
  <line id="left-margin-Black-S" style="fill:none;stroke:#00AEEF;stroke-width:0.5;opacity:1.0;" x1="2896.1" x2="2896.1" y1="600.785" y2="720.121"/>
  <line id="right-margin-Regular-S" style="fill:none;stroke:#00AEEF;stroke-width:0.5;opacity:1.0;" x1="1496.09" x2="1496.09" y1="600.785" y2="720.121"/>
  <line id="left-margin-Regular-S" style="fill:none;stroke:#00AEEF;stroke-width:0.5;opacity:1.0;" x1="1403.59" x2="1403.59" y1="600.785" y2="720.121"/>
  <line id="right-margin-Ultralight-S" style="fill:none;stroke:#00AEEF;stroke-width:0.5;opacity:1.0;" x1="603.811" x2="603.811" y1="600.785" y2="720.121"/>
  <line id="left-margin-Ultralight-S" style="fill:none;stroke:#00AEEF;stroke-width:0.5;opacity:1.0;" x1="515.611" x2="515.611" y1="600.785" y2="720.121"/>
 </g>
 <g id="Symbols">
  <g id="Black-S" transform="matrix(1 0 0 1 2896.1 696)">
   <path class="monochrome-0 multicolor-0:systemOrangeColor hierarchical-0:tertiary SFSymbolsPreviewWireframe" d="M35.4-59.9C46-59.9 54.7-54.2 64-37.8C71.8-24.2 70.3-9.3 62-4.7C53.8-0.2 50.7-0.9 47-1.2C43.7-1.4 35.8-16.2 35.8-16.2C35.8-16.2 28.7-1.5 23.7-1.7C21.9-1.7 11.9-1.6 6.7-8.1C1.5-14.7 1.9-25.7 6.8-35.7C11.8-45.3 22.2-59.9 35.4-59.9ZM71.6-57.6C71.8-50.2 66.2-45.8 60.2-45.8C54.2-45.8 50.2-51.1 50.2-57.1C50.2-63.1 55.5-67.7 61.6-67.7C67.7-67.8 71.3-63.6 71.6-57.6ZM10.2-47.9C3.2-50.2 1-55.5 2.9-61.5C4.9-67.5 11.2-70.3 17-68.5C22.7-66.7 25.1-60.4 23.3-54.4C21.3-48.3 15.5-46.2 10.2-47.9Z"/>
   <path class="monochrome-1 multicolor-1:custom hierarchical-1:secondary SFSymbolsPreviewWireframe" d="M36.3-5.6C36.3-5.6 42.1-1.8 47.1-1.4C52.1-1 57.9-2.9 58.2-10.2C58.5-18.4 52.5-22.9 50.8-24.3C49.9-25 45.1-28.3 45.1-28.3C45.1-28.3 43.8-38.5 43.4-41.7C42.9-45 42.6-50.1 36.2-50.3C30.1-50.4 29.3-44.1 29.3-42.2C29.2-39.8 28.2-28.3 28.2-28.3C28.2-28.3 24.8-26 22.4-24.2C20.3-22.5 14.8-18.5 15-11.5C15.2-5.7 18.3-1.7 25-1.9C33.1-1.9 36.3-5.6 36.3-5.6Z"/>
   <path class="monochrome-2 multicolor-2:systemGrayColor hierarchical-2:primary SFSymbolsPreviewWireframe" d="M11.5-9C11.3-9 10.9-9.2 10.7-9.4C10.5-9.8 10.5-10.3 10.9-10.7C11.1-10.8 14.4-13 16.4-14C18.3-15.1 21.6-16.8 21.6-16.8C21.6-16.8 22.4-17.3 22.9-16.6C23.5-15.8 22.5-15.2 22.5-15.2C22.5-15.2 19.3-13.4 17.3-12.4C15.5-11.3 12-9.2 11.9-9.2C11.9-9.1 11.7-9 11.5-9ZM15.3-4.4C15.1-4.4 14.9-4.5 14.7-4.6C14.3-4.8 14.3-5.4 14.6-6C14.7-6.1 16.4-8 18.4-9.8C20.3-11.5 22.1-13.1 22.1-13.1C22.5-13.3 23-13.3 23.5-13C23.9-12.6 23.7-12.1 23.4-11.6C23.4-11.6 21.6-9.9 19.7-8.3C17.9-6.6 16.2-4.8 16.2-4.6C15.7-4.7 15.5-4.4 15.3-4.4ZM62-8.6C61.8-8.6 61.5-8.7 61.4-8.8C61.4-8.8 60.3-9.9 56.6-12C52.8-14.3 50.6-15.3 50.6-15.3C50.1-15.5 49.9-16.1 50.2-16.6C50.4-17 51-17.2 51.3-17C51.4-17 53.6-15.9 57.5-13.6C61.3-11.3 62.5-10.2 62.5-10.2C62.9-10 62.9-9.3 62.6-8.8C62.5-8.7 62.2-8.6 62-8.6L62-8.6ZM57.8-5C57.6-5 57.3-5.1 57.1-5.2C57.1-5.2 55.1-7.3 53.1-9.2C51.1-11 48.9-12.4 48.9-12.4C48.5-12.6 48.3-13.2 48.7-13.7C48.9-14.1 49.5-14.3 50-13.9C50.1-13.8 52.4-12.5 54.5-10.5C56.6-8.6 58.6-6.5 58.6-6.4C59-6 58.8-5.5 58.6-5C58.3-5 58-5 57.8-5Z"/>
   <path class="monochrome-3 multicolor-3:white hierarchical-3:primary SFSymbolsPreviewWireframe" d="M32.3-13.7C32.3-13.7 31.8-7.6 34-6.7C35.7-5.9 36.6-8.4 36.6-8.4C36.6-8.4 37.2-7 38.6-6.7C41.2-6.2 40.6-14.3 40.6-14.3L36.7-16.4L32.3-13.7Z"/>
   <path class="monochrome-4 multicolor-4:black hierarchical-4:primary SFSymbolsPreviewWireframe" d="M52.9-33.6C53.1-31.3 52.7-29 50.4-29C48.1-29 47.2-31 47.1-33.2C46.9-35.5 47.8-36.7 49.5-37C51.5-37.3 52.7-35.4 52.9-33.6ZM26.4-33.4C26.5-31.1 25.6-28.7 23.2-28.8C20.9-29 20.2-31.8 20.6-34.2C20.8-36.5 21.9-37.3 23.6-37.4C25.5-37.3 26.4-35.2 26.4-33.4ZM34-17.2C34-18 32.9-18.5 31.7-19.2C31-19.7 30-20.3 30.3-21.2C30.5-22.1 32.3-22.3 36-22.3C39.7-22.4 42.2-22.1 42.1-21C42-20.1 40.8-19.3 40.1-18.7C39.7-18.5 38.4-17.6 38.4-17C38.5-16.4 40.1-15.2 41.4-15.2C43.5-15.2 44.6-16.5 45.1-17C45.6-17.5 46.2-18.1 47-17.8C47.8-17.4 47.1-15.3 45.5-13.8C43.8-12.3 41.1-12 39.2-12.7C37.4-13.5 36.6-14.6 36.6-14.6C36.6-14.6 34.6-11.7 31.3-12.2C28.8-12.6 27.3-14.2 26.5-15.4C25.7-16.7 26-17.4 26.6-17.5C27.4-17.6 27.9-16.7 28.9-16.2C29.8-15.8 30.6-15.3 32-15.4C33.2-16 34-16.6 34-17.2Z"/>
   <path class="monochrome-5 multicolor-5:custom hierarchical-5:primary SFSymbolsPreviewWireframe" d="M18.8-58C18.8-54.8 16.3-52.7 13.4-52.7C10.5-52.7 8.2-55.1 8.2-58.3C8.2-61.5 10.5-64 13.4-64C17.2-63.8 18.8-61.1 18.8-58ZM60.4-51.8C57.3-52 55.4-54.7 55.6-57.6C55.8-60.6 58.8-62.6 62-62.5C65.1-62.3 67-59.6 66.7-56.7C66.4-52.9 63.5-51.6 60.4-51.8Z"/>
  </g>
  <g id="Regular-S" transform="matrix(1 0 0 1 1403.59 696)">
   <path class="monochrome-0 multicolor-0:systemOrangeColor hierarchical-0:tertiary SFSymbolsPreviewWireframe" d="M44.9-59.9C55.5-59.9 64.2-54.2 73.5-37.8C81.3-24.2 79.8-9.3 71.5-4.7C63.3-0.2 60.2-0.9 56.5-1.2C53.2-1.4 45.3-16.2 45.3-16.2C45.3-16.2 38.2-1.5 33.2-1.7C31.4-1.7 21.4-1.6 16.2-8.1C11-14.7 11.4-25.7 16.3-35.7C21.3-45.3 31.7-59.9 44.9-59.9ZM81.1-57.6C81.3-50.2 75.7-45.8 69.7-45.8C63.7-45.8 59.7-51.1 59.7-57.1C59.7-63.1 65-67.7 71.1-67.7C77.2-67.8 80.8-63.6 81.1-57.6ZM19.7-47.9C12.7-50.2 10.5-55.5 12.4-61.5C14.4-67.5 20.7-70.3 26.5-68.5C32.2-66.7 34.6-60.4 32.8-54.4C30.8-48.3 25-46.2 19.7-47.9Z"/>
   <path class="monochrome-1 multicolor-1:custom hierarchical-1:secondary SFSymbolsPreviewWireframe" d="M45.8-5.6C45.8-5.6 51.6-1.8 56.6-1.4C61.6-1 67.4-2.9 67.7-10.2C68-18.4 62-22.9 60.3-24.3C59.4-25 54.6-28.3 54.6-28.3C54.6-28.3 53.3-38.5 52.9-41.7C52.4-45 52.1-50.1 45.7-50.3C39.6-50.4 38.8-44.1 38.8-42.2C38.7-39.8 37.7-28.3 37.7-28.3C37.7-28.3 34.3-26 31.9-24.2C29.8-22.5 24.3-18.5 24.5-11.5C24.7-5.7 27.8-1.7 34.5-1.9C42.6-1.9 45.8-5.6 45.8-5.6Z"/>
   <path class="monochrome-2 multicolor-2:systemGrayColor hierarchical-2:primary SFSymbolsPreviewWireframe" d="M21-9C20.8-9 20.4-9.2 20.2-9.4C20-9.8 20-10.3 20.4-10.7C20.6-10.8 23.9-13 25.9-14C27.8-15.1 31.1-16.8 31.1-16.8C31.1-16.8 31.9-17.3 32.4-16.6C33-15.8 32-15.2 32-15.2C32-15.2 28.8-13.4 26.8-12.4C25-11.3 21.5-9.2 21.4-9.2C21.4-9.1 21.2-9 21-9ZM24.8-4.4C24.6-4.4 24.4-4.5 24.2-4.6C23.8-4.8 23.8-5.4 24.1-6C24.2-6.1 25.9-8 27.9-9.8C29.8-11.5 31.6-13.1 31.6-13.1C32-13.3 32.5-13.3 33-13C33.4-12.6 33.2-12.1 32.9-11.6C32.9-11.6 31.1-9.9 29.2-8.3C27.4-6.6 25.7-4.8 25.7-4.6C25.2-4.7 25-4.4 24.8-4.4ZM71.5-8.6C71.3-8.6 71-8.7 70.9-8.8C70.9-8.8 69.8-9.9 66.1-12C62.3-14.3 60.1-15.3 60.1-15.3C59.6-15.5 59.4-16.1 59.7-16.6C59.9-17 60.5-17.2 60.8-17C60.9-17 63.1-15.9 67-13.6C70.8-11.3 72-10.2 72-10.2C72.4-10 72.4-9.3 72.1-8.8C72-8.7 71.7-8.6 71.5-8.6L71.5-8.6ZM67.3-5C67.1-5 66.8-5.1 66.6-5.2C66.6-5.2 64.6-7.3 62.6-9.2C60.6-11 58.4-12.4 58.4-12.4C58-12.6 57.8-13.2 58.2-13.7C58.4-14.1 59-14.3 59.5-13.9C59.6-13.8 61.9-12.5 64-10.5C66.1-8.6 68.1-6.5 68.1-6.4C68.5-6 68.3-5.5 68.1-5C67.8-5 67.5-5 67.3-5Z"/>
   <path class="monochrome-3 multicolor-3:white hierarchical-3:primary SFSymbolsPreviewWireframe" d="M41.8-13.7C41.8-13.7 41.3-7.6 43.5-6.7C45.2-5.9 46.1-8.4 46.1-8.4C46.1-8.4 46.7-7 48.1-6.7C50.7-6.2 50.1-14.3 50.1-14.3L46.2-16.4L41.8-13.7Z"/>
   <path class="monochrome-4 multicolor-4:black hierarchical-4:primary SFSymbolsPreviewWireframe" d="M62.4-33.6C62.6-31.3 62.2-29 59.9-29C57.6-29 56.7-31 56.6-33.2C56.4-35.5 57.3-36.7 59-37C61-37.3 62.2-35.4 62.4-33.6ZM35.9-33.4C36-31.1 35.1-28.7 32.7-28.8C30.4-29 29.7-31.8 30.1-34.2C30.3-36.5 31.4-37.3 33.1-37.4C35-37.3 35.9-35.2 35.9-33.4ZM43.5-17.2C43.5-18 42.4-18.5 41.2-19.2C40.5-19.7 39.5-20.3 39.8-21.2C40-22.1 41.8-22.3 45.5-22.3C49.2-22.4 51.7-22.1 51.6-21C51.5-20.1 50.3-19.3 49.6-18.7C49.2-18.5 47.9-17.6 47.9-17C48-16.4 49.6-15.2 50.9-15.2C53-15.2 54.1-16.5 54.6-17C55.1-17.5 55.7-18.1 56.5-17.8C57.3-17.4 56.6-15.3 55-13.8C53.3-12.3 50.6-12 48.7-12.7C46.9-13.5 46.1-14.6 46.1-14.6C46.1-14.6 44.1-11.7 40.8-12.2C38.3-12.6 36.8-14.2 36-15.4C35.2-16.7 35.5-17.4 36.1-17.5C36.9-17.6 37.4-16.7 38.4-16.2C39.3-15.8 40.1-15.3 41.5-15.4C42.7-16 43.5-16.6 43.5-17.2Z"/>
   <path class="monochrome-5 multicolor-5:custom hierarchical-5:primary SFSymbolsPreviewWireframe" d="M28.3-58C28.3-54.8 25.8-52.7 22.9-52.7C20-52.7 17.7-55.1 17.7-58.3C17.7-61.5 20-64 22.9-64C26.7-63.8 28.3-61.1 28.3-58ZM69.9-51.8C66.8-52 64.9-54.7 65.1-57.6C65.3-60.6 68.3-62.6 71.5-62.5C74.6-62.3 76.5-59.6 76.2-56.7C75.9-52.9 73-51.6 69.9-51.8Z"/>
  </g>
  <g id="Ultralight-S" transform="matrix(1 0 0 1 515.611 696)">
   <path class="monochrome-0 multicolor-0:systemOrangeColor hierarchical-0:tertiary SFSymbolsPreviewWireframe" d="M42.9-59.9C53.5-59.9 62.2-54.2 71.5-37.8C79.3-24.2 77.8-9.3 69.5-4.7C61.3-0.2 58.2-0.9 54.5-1.2C51.2-1.4 43.3-16.2 43.3-16.2C43.3-16.2 36.2-1.5 31.2-1.7C29.4-1.7 19.4-1.6 14.2-8.1C9-14.7 9.4-25.7 14.3-35.7C19.3-45.3 29.7-59.9 42.9-59.9ZM79.1-57.6C79.3-50.2 73.7-45.8 67.7-45.8C61.7-45.8 57.7-51.1 57.7-57.1C57.7-63.1 63-67.7 69.1-67.7C75.2-67.8 78.8-63.6 79.1-57.6ZM17.7-47.9C10.7-50.2 8.5-55.5 10.4-61.5C12.4-67.5 18.7-70.3 24.5-68.5C30.2-66.7 32.6-60.4 30.8-54.4C28.8-48.3 23-46.2 17.7-47.9Z"/>
   <path class="monochrome-1 multicolor-1:custom hierarchical-1:secondary SFSymbolsPreviewWireframe" d="M43.8-5.6C43.8-5.6 49.6-1.8 54.6-1.4C59.6-1 65.4-2.9 65.7-10.2C66-18.4 60-22.9 58.3-24.3C57.4-25 52.6-28.3 52.6-28.3C52.6-28.3 51.3-38.5 50.9-41.7C50.4-45 50.1-50.1 43.7-50.3C37.6-50.4 36.8-44.1 36.8-42.2C36.7-39.8 35.7-28.3 35.7-28.3C35.7-28.3 32.3-26 29.9-24.2C27.8-22.5 22.3-18.5 22.5-11.5C22.7-5.7 25.8-1.7 32.5-1.9C40.6-1.9 43.8-5.6 43.8-5.6Z"/>
   <path class="monochrome-2 multicolor-2:systemGrayColor hierarchical-2:primary SFSymbolsPreviewWireframe" d="M19-9C18.8-9 18.4-9.2 18.2-9.4C18-9.8 18-10.3 18.4-10.7C18.6-10.8 21.9-13 23.9-14C25.8-15.1 29.1-16.8 29.1-16.8C29.1-16.8 29.9-17.3 30.4-16.6C31-15.8 30-15.2 30-15.2C30-15.2 26.8-13.4 24.8-12.4C23-11.3 19.5-9.2 19.4-9.2C19.4-9.1 19.2-9 19-9ZM22.8-4.4C22.6-4.4 22.4-4.5 22.2-4.6C21.8-4.8 21.8-5.4 22.1-6C22.2-6.1 23.9-8 25.9-9.8C27.8-11.5 29.6-13.1 29.6-13.1C30-13.3 30.5-13.3 31-13C31.4-12.6 31.2-12.1 30.9-11.6C30.9-11.6 29.1-9.9 27.2-8.3C25.4-6.6 23.7-4.8 23.7-4.6C23.2-4.7 23-4.4 22.8-4.4ZM69.5-8.6C69.3-8.6 69-8.7 68.9-8.8C68.9-8.8 67.8-9.9 64.1-12C60.3-14.3 58.1-15.3 58.1-15.3C57.6-15.5 57.4-16.1 57.7-16.6C57.9-17 58.5-17.2 58.8-17C58.9-17 61.1-15.9 65-13.6C68.8-11.3 70-10.2 70-10.2C70.4-10 70.4-9.3 70.1-8.8C70-8.7 69.7-8.6 69.5-8.6L69.5-8.6ZM65.3-5C65.1-5 64.8-5.1 64.6-5.2C64.6-5.2 62.6-7.3 60.6-9.2C58.6-11 56.4-12.4 56.4-12.4C56-12.6 55.8-13.2 56.2-13.7C56.4-14.1 57-14.3 57.5-13.9C57.6-13.8 59.9-12.5 62-10.5C64.1-8.6 66.1-6.5 66.1-6.4C66.5-6 66.3-5.5 66.1-5C65.8-5 65.5-5 65.3-5Z"/>
   <path class="monochrome-3 multicolor-3:white hierarchical-3:primary SFSymbolsPreviewWireframe" d="M39.8-13.7C39.8-13.7 39.3-7.6 41.5-6.7C43.2-5.9 44.1-8.4 44.1-8.4C44.1-8.4 44.7-7 46.1-6.7C48.7-6.2 48.1-14.3 48.1-14.3L44.2-16.4L39.8-13.7Z"/>
   <path class="monochrome-4 multicolor-4:black hierarchical-4:primary SFSymbolsPreviewWireframe" d="M60.4-33.6C60.6-31.3 60.2-29 57.9-29C55.6-29 54.7-31 54.6-33.2C54.4-35.5 55.3-36.7 57-37C59-37.3 60.2-35.4 60.4-33.6ZM33.9-33.4C34-31.1 33.1-28.7 30.7-28.8C28.4-29 27.7-31.8 28.1-34.2C28.3-36.5 29.4-37.3 31.1-37.4C33-37.3 33.9-35.2 33.9-33.4ZM41.5-17.2C41.5-18 40.4-18.5 39.2-19.2C38.5-19.7 37.5-20.3 37.8-21.2C38-22.1 39.8-22.3 43.5-22.3C47.2-22.4 49.7-22.1 49.6-21C49.5-20.1 48.3-19.3 47.6-18.7C47.2-18.5 45.9-17.6 45.9-17C46-16.4 47.6-15.2 48.9-15.2C51-15.2 52.1-16.5 52.6-17C53.1-17.5 53.7-18.1 54.5-17.8C55.3-17.5 54.6-15.3 53-13.8C51.3-12.3 48.6-12 46.7-12.7C44.9-13.5 44.1-14.6 44.1-14.6C44.1-14.6 42.1-11.7 38.8-12.2C36.3-12.6 34.8-14.2 34-15.4C33.2-16.7 33.5-17.4 34.1-17.5C34.9-17.6 35.4-16.7 36.4-16.2C37.3-15.8 38.1-15.3 39.5-15.4C40.7-16 41.5-16.6 41.5-17.2Z"/>
   <path class="monochrome-5 multicolor-5:custom hierarchical-5:primary SFSymbolsPreviewWireframe" d="M26.3-58C26.3-54.8 23.8-52.7 20.9-52.7C18-52.7 15.7-55.1 15.7-58.3C15.7-61.5 18-64 20.9-64C24.7-63.8 26.3-61.1 26.3-58ZM67.9-51.8C64.8-52 62.9-54.7 63.1-57.6C63.3-60.6 66.3-62.6 69.5-62.5C72.6-62.3 74.5-59.6 74.2-56.7C73.9-52.9 71-51.6 67.9-51.8Z"/>
  </g>
 </g>
</svg>
