<?xml version="1.0" encoding="UTF-8"?>
<!--Generator: Apple Native CoreSVG 341-->
<!DOCTYPE svg
PUBLIC "-//W3C//DTD SVG 1.1//EN"
       "http://www.w3.org/Graphics/SVG/1.1/DTD/svg11.dtd">
<svg version="1.1" xmlns="http://www.w3.org/2000/svg" xmlns:xlink="http://www.w3.org/1999/xlink" viewBox="0 0 3300 2200">
 <!--glyph: "", point size: 100.0, font version: "20.0d10e1", template writer version: "138.0.0"-->
 <style>.monochrome-0 {-sfsymbols-motion-group:5;-sfsymbols-layer-tags:-14c12e7bdad35115}
.monochrome-1 {-sfsymbols-motion-group:4;-sfsymbols-layer-tags:-14c12e7bdad35115}
.monochrome-2 {opacity:0.0;-sfsymbols-clear-behind:true;-sfsymbols-motion-group:3;-sfsymbols-layer-tags:-14c12e7bdad35115}
.monochrome-3 {opacity:0.0;-sfsymbols-clear-behind:true;-sfsymbols-motion-group:2;-sfsymbols-layer-tags:-14c12e7bdad35115}
.monochrome-4 {opacity:0.0;-sfsymbols-clear-behind:true;-sfsymbols-motion-group:1;-sfsymbols-layer-tags:-14c12e7bdad35115}
.monochrome-5 {opacity:0.0;-sfsymbols-clear-behind:true;-sfsymbols-motion-group:0;-sfsymbols-layer-tags:-14c12e7bdad35115}

.multicolor-0:custom {fill:#F2A05A;-sfsymbols-motion-group:5;-sfsymbols-layer-tags:-14c12e7bdad35115}
.multicolor-1:custom {fill:#FED2B1;-sfsymbols-clear-behind:true;-sfsymbols-motion-group:4;-sfsymbols-layer-tags:-14c12e7bdad35115}
.multicolor-2:systemGrayColor {-sfsymbols-motion-group:3;-sfsymbols-layer-tags:-14c12e7bdad35115}
.multicolor-3:white {-sfsymbols-motion-group:2;-sfsymbols-layer-tags:-14c12e7bdad35115}
.multicolor-4:black {-sfsymbols-clear-behind:true;-sfsymbols-motion-group:1;-sfsymbols-layer-tags:-14c12e7bdad35115}
.multicolor-5:custom {fill:#FFA7AA;-sfsymbols-motion-group:0;-sfsymbols-layer-tags:-14c12e7bdad35115}

.hierarchical-0:tertiary {-sfsymbols-motion-group:5;-sfsymbols-layer-tags:-14c12e7bdad35115}
.hierarchical-1:secondary {-sfsymbols-clear-behind:true;-sfsymbols-motion-group:4;-sfsymbols-layer-tags:-14c12e7bdad35115}
.hierarchical-2:primary {-sfsymbols-motion-group:3;-sfsymbols-layer-tags:-14c12e7bdad35115}
.hierarchical-3:primary {-sfsymbols-motion-group:2;-sfsymbols-layer-tags:-14c12e7bdad35115}
.hierarchical-4:primary {-sfsymbols-clear-behind:true;-sfsymbols-motion-group:1;-sfsymbols-layer-tags:-14c12e7bdad35115}
.hierarchical-5:secondary {-sfsymbols-motion-group:0;-sfsymbols-layer-tags:-14c12e7bdad35115}

.SFSymbolsPreviewWireframe {fill:none;opacity:1.0;stroke:black;stroke-width:0.5}
</style>
 <g id="Notes">
  <rect height="2200" id="artboard" style="fill:white;opacity:1" width="3300" x="0" y="0"/>
  <line style="fill:none;stroke:black;opacity:1;stroke-width:0.5;" x1="263" x2="3036" y1="292" y2="292"/>
  <text style="stroke:none;fill:black;font-family:sans-serif;font-size:13;font-weight:bold;" transform="matrix(1 0 0 1 263 322)">Weight/Scale Variations</text>
  <text style="stroke:none;fill:black;font-family:sans-serif;font-size:13;text-anchor:middle;" transform="matrix(1 0 0 1 559.711 322)">Ultralight</text>
  <text style="stroke:none;fill:black;font-family:sans-serif;font-size:13;text-anchor:middle;" transform="matrix(1 0 0 1 856.422 322)">Thin</text>
  <text style="stroke:none;fill:black;font-family:sans-serif;font-size:13;text-anchor:middle;" transform="matrix(1 0 0 1 1153.13 322)">Light</text>
  <text style="stroke:none;fill:black;font-family:sans-serif;font-size:13;text-anchor:middle;" transform="matrix(1 0 0 1 1449.84 322)">Regular</text>
  <text style="stroke:none;fill:black;font-family:sans-serif;font-size:13;text-anchor:middle;" transform="matrix(1 0 0 1 1746.56 322)">Medium</text>
  <text style="stroke:none;fill:black;font-family:sans-serif;font-size:13;text-anchor:middle;" transform="matrix(1 0 0 1 2043.27 322)">Semibold</text>
  <text style="stroke:none;fill:black;font-family:sans-serif;font-size:13;text-anchor:middle;" transform="matrix(1 0 0 1 2339.98 322)">Bold</text>
  <text style="stroke:none;fill:black;font-family:sans-serif;font-size:13;text-anchor:middle;" transform="matrix(1 0 0 1 2636.69 322)">Heavy</text>
  <text style="stroke:none;fill:black;font-family:sans-serif;font-size:13;text-anchor:middle;" transform="matrix(1 0 0 1 2933.4 322)">Black</text>
  <line style="fill:none;stroke:black;opacity:1;stroke-width:0.5;" x1="263" x2="3036" y1="1903" y2="1903"/>
  <g transform="matrix(0.2 0 0 0.2 263 1933)">
   <path d="m46.2402 4.15039c21.7773 0 39.4531-17.627 39.4531-39.4043s-17.6758-39.4043-39.4531-39.4043c-21.7285 0-39.4043 17.627-39.4043 39.4043s17.6758 39.4043 39.4043 39.4043Zm0-7.42188c-17.6758 0-31.9336-14.3066-31.9336-31.9824s14.2578-31.9824 31.9336-31.9824 31.9824 14.3066 31.9824 31.9824-14.3066 31.9824-31.9824 31.9824Zm-17.9688-31.9824c0 2.14844 1.51367 3.61328 3.75977 3.61328h10.498v10.5957c0 2.19727 1.46484 3.71094 3.61328 3.71094 2.24609 0 3.71094-1.51367 3.71094-3.71094v-10.5957h10.5957c2.19727 0 3.71094-1.46484 3.71094-3.61328 0-2.19727-1.51367-3.71094-3.71094-3.71094h-10.5957v-10.5469c0-2.24609-1.46484-3.75977-3.71094-3.75977-2.14844 0-3.61328 1.51367-3.61328 3.75977v10.5469h-10.498c-2.24609 0-3.75977 1.51367-3.75977 3.71094Z"/>
  </g>
  <g transform="matrix(0.2 0 0 0.2 281.506 1933)">
   <path d="m58.5449 14.5508c27.4902 0 49.8047-22.3145 49.8047-49.8047s-22.3145-49.8047-49.8047-49.8047-49.8047 22.3145-49.8047 49.8047 22.3145 49.8047 49.8047 49.8047Zm0-8.30078c-22.9492 0-41.5039-18.5547-41.5039-41.5039s18.5547-41.5039 41.5039-41.5039 41.5039 18.5547 41.5039 41.5039-18.5547 41.5039-41.5039 41.5039Zm-22.6562-41.5039c0 2.39258 1.66016 4.00391 4.15039 4.00391h14.3555v14.4043c0 2.44141 1.66016 4.15039 4.05273 4.15039 2.44141 0 4.15039-1.66016 4.15039-4.15039v-14.4043h14.4043c2.44141 0 4.15039-1.61133 4.15039-4.00391 0-2.44141-1.70898-4.15039-4.15039-4.15039h-14.4043v-14.3555c0-2.49023-1.70898-4.19922-4.15039-4.19922-2.39258 0-4.05273 1.70898-4.05273 4.19922v14.3555h-14.3555c-2.49023 0-4.15039 1.70898-4.15039 4.15039Z"/>
  </g>
  <g transform="matrix(0.2 0 0 0.2 304.924 1933)">
   <path d="m74.8535 28.3203c35.1074 0 63.623-28.4668 63.623-63.5742s-28.5156-63.623-63.623-63.623-63.5742 28.5156-63.5742 63.623 28.4668 63.5742 63.5742 63.5742Zm0-9.08203c-30.127 0-54.4922-24.3652-54.4922-54.4922s24.3652-54.4922 54.4922-54.4922 54.4922 24.3652 54.4922 54.4922-24.3652 54.4922-54.4922 54.4922Zm-28.8574-54.4922c0 2.58789 1.85547 4.39453 4.58984 4.39453h19.7266v19.7754c0 2.68555 1.85547 4.58984 4.44336 4.58984 2.68555 0 4.54102-1.85547 4.54102-4.58984v-19.7754h19.7754c2.68555 0 4.58984-1.80664 4.58984-4.39453 0-2.73438-1.85547-4.58984-4.58984-4.58984h-19.7754v-19.7266c0-2.73438-1.85547-4.63867-4.54102-4.63867-2.58789 0-4.44336 1.9043-4.44336 4.63867v19.7266h-19.7266c-2.73438 0-4.58984 1.85547-4.58984 4.58984Z"/>
  </g>
  <text style="stroke:none;fill:black;font-family:sans-serif;font-size:13;font-weight:bold;" transform="matrix(1 0 0 1 263 1953)">Design Variations</text>
  <text style="stroke:none;fill:black;font-family:sans-serif;font-size:13;" transform="matrix(1 0 0 1 263 1971)">Symbols are supported in up to nine weights and three scales.</text>
  <text style="stroke:none;fill:black;font-family:sans-serif;font-size:13;" transform="matrix(1 0 0 1 263 1989)">For optimal layout with text and other symbols, vertically align</text>
  <text style="stroke:none;fill:black;font-family:sans-serif;font-size:13;" transform="matrix(1 0 0 1 263 2007)">symbols with the adjacent text.</text>
  <line style="fill:none;stroke:#00AEEF;stroke-width:0.5;opacity:1.0;" x1="776" x2="776" y1="1919" y2="1933"/>
  <g transform="matrix(0.2 0 0 0.2 776 1933)">
   <path d="m16.5527 0.78125c2.58789 0 3.85742-0.976562 4.78516-3.71094l6.29883-17.2363h28.8086l6.29883 17.2363c0.927734 2.73438 2.19727 3.71094 4.73633 3.71094 2.58789 0 4.24805-1.5625 4.24805-4.00391 0-0.830078-0.146484-1.61133-0.537109-2.63672l-22.9004-60.9863c-1.12305-2.97852-3.125-4.49219-6.25-4.49219-3.02734 0-5.07812 1.46484-6.15234 4.44336l-22.9004 61.084c-0.390625 1.02539-0.537109 1.80664-0.537109 2.63672 0 2.44141 1.5625 3.95508 4.10156 3.95508Zm13.4766-28.3691 11.8652-32.8613h0.244141l11.8652 32.8613Z"/>
  </g>
  <line style="fill:none;stroke:#00AEEF;stroke-width:0.5;opacity:1.0;" x1="792.836" x2="792.836" y1="1919" y2="1933"/>
  <text style="stroke:none;fill:black;font-family:sans-serif;font-size:13;font-weight:bold;" transform="matrix(1 0 0 1 776 1953)">Margins</text>
  <text style="stroke:none;fill:black;font-family:sans-serif;font-size:13;" transform="matrix(1 0 0 1 776 1971)">Leading and trailing margins on the left and right side of each symbol</text>
  <text style="stroke:none;fill:black;font-family:sans-serif;font-size:13;" transform="matrix(1 0 0 1 776 1989)">can be adjusted by modifying the x-location of the margin guidelines.</text>
  <text style="stroke:none;fill:black;font-family:sans-serif;font-size:13;" transform="matrix(1 0 0 1 776 2007)">Modifications are automatically applied proportionally to all</text>
  <text style="stroke:none;fill:black;font-family:sans-serif;font-size:13;" transform="matrix(1 0 0 1 776 2025)">scales and weights.</text>
  <g transform="matrix(0.2 0 0 0.2 1289 1933)">
   <path d="m14.209 9.32617 8.49609 8.54492c4.29688 4.3457 9.22852 4.05273 13.8672-1.07422l53.4668-58.9355-4.83398-4.88281-53.0762 58.3984c-1.75781 2.00195-3.41797 2.49023-5.76172 0.146484l-5.85938-5.81055c-2.34375-2.29492-1.80664-4.00391 0.195312-5.81055l57.373-54.0039-4.88281-4.83398-57.959 54.4434c-4.93164 4.58984-5.32227 9.47266-1.02539 13.8184Zm32.0801-90.9668c-2.09961 2.05078-2.24609 4.93164-1.07422 6.88477 1.17188 1.80664 3.4668 2.97852 6.68945 2.14844 7.32422-1.70898 14.9414-2.00195 22.0703 2.68555l-2.92969 7.27539c-1.70898 4.15039-0.830078 7.08008 1.85547 9.81445l11.4746 11.5723c2.44141 2.44141 4.49219 2.53906 7.32422 2.05078l5.32227-0.976562 3.32031 3.36914-0.195312 2.7832c-0.195312 2.49023 0.439453 4.39453 2.88086 6.78711l3.80859 3.71094c2.39258 2.39258 5.46875 2.53906 7.8125 0.195312l14.5508-14.5996c2.34375-2.34375 2.24609-5.32227-0.146484-7.71484l-3.85742-3.80859c-2.39258-2.39258-4.24805-3.17383-6.64062-2.97852l-2.88086 0.244141-3.22266-3.17383 1.2207-5.61523c0.634766-2.83203-0.146484-5.0293-3.07617-7.95898l-10.9863-10.9375c-16.6992-16.6016-38.8672-16.2109-53.3203-1.75781Zm7.4707 1.85547c12.1582-8.88672 28.6133-7.37305 39.7461 3.75977l12.1582 12.0605c1.17188 1.17188 1.36719 2.09961 1.02539 3.80859l-1.61133 7.42188 7.51953 7.42188 4.93164-0.292969c1.26953-0.0488281 1.66016 0.0488281 2.63672 1.02539l2.88086 2.88086-12.207 12.207-2.88086-2.88086c-0.976562-0.976562-1.12305-1.36719-1.07422-2.68555l0.341797-4.88281-7.4707-7.42188-7.61719 1.26953c-1.61133 0.341797-2.34375 0.195312-3.56445-0.976562l-10.0098-10.0098c-1.26953-1.17188-1.41602-2.00195-0.634766-3.85742l4.39453-10.4492c-7.8125-7.27539-17.9688-10.4004-28.125-7.42188-0.78125 0.195312-1.07422-0.439453-0.439453-0.976562Z"/>
  </g>
  <text style="stroke:none;fill:black;font-family:sans-serif;font-size:13;font-weight:bold;" transform="matrix(1 0 0 1 1289 1953)">Exporting</text>
  <text style="stroke:none;fill:black;font-family:sans-serif;font-size:13;" transform="matrix(1 0 0 1 1289 1971)">Symbols should be outlined when exporting to ensure the</text>
  <text style="stroke:none;fill:black;font-family:sans-serif;font-size:13;" transform="matrix(1 0 0 1 1289 1989)">design is preserved when submitting to Xcode.</text>
  <text id="template-version" style="stroke:none;fill:black;font-family:sans-serif;font-size:13;text-anchor:end;" transform="matrix(1 0 0 1 3036 1933)">Template v.6.0</text>
  <text style="stroke:none;fill:black;font-family:sans-serif;font-size:13;text-anchor:end;" transform="matrix(1 0 0 1 3036 1951)">Requires Xcode 16 or greater</text>
  <text id="descriptive-name" style="stroke:none;fill:black;font-family:sans-serif;font-size:13;text-anchor:end;" transform="matrix(1 0 0 1 3036 1969)">Generated from hamster</text>
  <text style="stroke:none;fill:black;font-family:sans-serif;font-size:13;text-anchor:end;" transform="matrix(1 0 0 1 3036 1987)">Typeset at 100.0 points</text>
  <text style="stroke:none;fill:black;font-family:sans-serif;font-size:13;" transform="matrix(1 0 0 1 263 726)">Small</text>
  <text style="stroke:none;fill:black;font-family:sans-serif;font-size:13;" transform="matrix(1 0 0 1 263 1156)">Medium</text>
  <text style="stroke:none;fill:black;font-family:sans-serif;font-size:13;" transform="matrix(1 0 0 1 263 1586)">Large</text>
 </g>
 <g id="Guides">
  <g id="H-reference" style="fill:#27AAE1;stroke:none;" transform="matrix(1 0 0 1 339 696)">
   <path d="M0.993654 0L3.63775 0L29.3281-67.1323L30.0303-67.1323L30.0303-70.459L28.1226-70.459ZM11.6885-24.4799L46.9815-24.4799L46.2315-26.7285L12.4385-26.7285ZM55.1196 0L57.7637 0L30.6382-70.459L29.4326-70.459L29.4326-67.1323Z"/>
  </g>
  <line id="Baseline-S" style="fill:none;stroke:#27AAE1;opacity:1;stroke-width:0.5;" x1="263" x2="3036" y1="696" y2="696"/>
  <line id="Capline-S" style="fill:none;stroke:#27AAE1;opacity:1;stroke-width:0.5;" x1="263" x2="3036" y1="625.541" y2="625.541"/>
  <g id="H-reference" style="fill:#27AAE1;stroke:none;" transform="matrix(1 0 0 1 339 1126)">
   <path d="M0.993654 0L3.63775 0L29.3281-67.1323L30.0303-67.1323L30.0303-70.459L28.1226-70.459ZM11.6885-24.4799L46.9815-24.4799L46.2315-26.7285L12.4385-26.7285ZM55.1196 0L57.7637 0L30.6382-70.459L29.4326-70.459L29.4326-67.1323Z"/>
  </g>
  <line id="Baseline-M" style="fill:none;stroke:#27AAE1;opacity:1;stroke-width:0.5;" x1="263" x2="3036" y1="1126" y2="1126"/>
  <line id="Capline-M" style="fill:none;stroke:#27AAE1;opacity:1;stroke-width:0.5;" x1="263" x2="3036" y1="1055.54" y2="1055.54"/>
  <g id="H-reference" style="fill:#27AAE1;stroke:none;" transform="matrix(1 0 0 1 339 1556)">
   <path d="M0.993654 0L3.63775 0L29.3281-67.1323L30.0303-67.1323L30.0303-70.459L28.1226-70.459ZM11.6885-24.4799L46.9815-24.4799L46.2315-26.7285L12.4385-26.7285ZM55.1196 0L57.7637 0L30.6382-70.459L29.4326-70.459L29.4326-67.1323Z"/>
  </g>
  <line id="Baseline-L" style="fill:none;stroke:#27AAE1;opacity:1;stroke-width:0.5;" x1="263" x2="3036" y1="1556" y2="1556"/>
  <line id="Capline-L" style="fill:none;stroke:#27AAE1;opacity:1;stroke-width:0.5;" x1="263" x2="3036" y1="1485.54" y2="1485.54"/>
  <line id="right-margin-Black-S" style="fill:none;stroke:#00AEEF;stroke-width:0.5;opacity:1.0;" x1="2970.7" x2="2970.7" y1="600.785" y2="720.121"/>
  <line id="left-margin-Black-S" style="fill:none;stroke:#00AEEF;stroke-width:0.5;opacity:1.0;" x1="2896.1" x2="2896.1" y1="600.785" y2="720.121"/>
  <line id="right-margin-Regular-S" style="fill:none;stroke:#00AEEF;stroke-width:0.5;opacity:1.0;" x1="1496.09" x2="1496.09" y1="600.785" y2="720.121"/>
  <line id="left-margin-Regular-S" style="fill:none;stroke:#00AEEF;stroke-width:0.5;opacity:1.0;" x1="1403.59" x2="1403.59" y1="600.785" y2="720.121"/>
  <line id="right-margin-Ultralight-S" style="fill:none;stroke:#00AEEF;stroke-width:0.5;opacity:1.0;" x1="603.811" x2="603.811" y1="600.785" y2="720.121"/>
  <line id="left-margin-Ultralight-S" style="fill:none;stroke:#00AEEF;stroke-width:0.5;opacity:1.0;" x1="515.611" x2="515.611" y1="600.785" y2="720.121"/>
 </g>
 <g id="Symbols">
  <g id="Black-S" transform="matrix(1 0 0 1 2896.1 696)">
   <path class="monochrome-0 multicolor-0:custom hierarchical-0:tertiary SFSymbolsPreviewWireframe" d="M35.5-62C47-62 56.2-56 66.2-38.3C74.5-23.7 72.9-7.7 64.1-2.8C55.3 2.1 52 1.1 48 0.9C44.4 0.7 36-15.2 36-15.2C36-15.2 28.3 0.6 23 0.5C21 0.5 10.3 0.6 4.8-6.3C-0.7-13.3-0.5-25.2 4.8-35.8C10.2-46.3 21.3-62 35.5-62L35.5-62ZM74.3-59.5C74.6-51.6 68.6-46.8 62.1-46.8C55.6-46.8 51.4-52.5 51.4-58.9C51.4-65.3 57.1-70.4 63.6-70.4C70.2-70.5 74.1-65.9 74.3-59.5ZM8.6-49.1C1-51.6-1.2-57.2 0.8-63.6C2.8-69.9 9.7-73 15.8-71.2C21.9-69.2 24.5-62.4 22.5-56.1C20.5-49.6 14.2-47.2 8.6-49.1L8.6-49.1Z"/>
   <path class="monochrome-1 multicolor-1:custom hierarchical-1:secondary SFSymbolsPreviewWireframe" d="M36.6-3.7C36.6-3.7 42.9 0.4 48.2 0.9C53.5 1.3 59.8-0.8 60.1-8.5C60.5-17.4 53.9-22.3 52.2-23.5C51.2-24.2 46.1-27.9 46.1-27.9C46.1-27.9 44.8-38.8 44.2-42.3C43.7-45.8 43.4-51.4 36.5-51.5C30-51.6 29.1-44.9 29-42.7C28.9-40.1 27.9-27.8 27.9-27.8C27.9-27.8 24.2-25.3 21.6-23.3C19.3-21.5 13.4-17.2 13.7-9.6C13.9-3.3 17.2 0.9 24.4 0.7C32.9 0.3 36.6-3.7 36.6-3.7L36.6-3.7Z"/>
   <path class="monochrome-2 multicolor-2:systemGrayColor hierarchical-2:primary SFSymbolsPreviewWireframe" d="M9.9-7.4C9.6-7.4 9.3-7.6 9.1-7.8C8.8-8.2 8.9-8.8 9.4-9.1C9.6-9.2 13.2-11.6 15.3-12.7C17.4-13.8 20.9-15.7 20.9-15.7C20.9-15.7 21.6-16.2 22.2-15.4C22.8-14.6 21.8-13.9 21.8-13.9C21.8-13.9 18.3-12 16.2-10.9C14.2-9.8 10.5-7.4 10.5-7.4C10.2-7.5 10-7.4 9.9-7.4L9.9-7.4ZM14-2.5C13.8-2.5 13.6-2.6 13.4-2.7C13-3 13-3.6 13.3-4C13.4-4.1 15.2-6.2 17.2-8C19.2-9.8 21.1-11.5 21.1-11.5C21.5-11.8 22.1-11.8 22.4-11.4C22.8-11 22.7-10.4 22.3-10.1C22.3-10.1 20.4-8.4 18.4-6.6C16.4-4.8 14.6-2.8 14.6-2.8C14.5-2.6 14.2-2.5 14-2.5L14-2.5ZM64.1-6.9C63.9-6.9 63.6-7 63.5-7.1C63.5-7.1 62.3-8.2 58.3-10.6C54.4-13.1 52-14.1 52-14.1C51.5-14.3 51.3-14.9 51.6-15.4C51.8-15.8 52.4-16 52.8-15.8C52.9-15.8 55.3-14.7 59.3-12.2C63.4-9.7 64.7-8.5 64.8-8.5C65.2-8.2 65.2-7.5 64.9-7.2C64.6-7 64.4-6.9 64.1-6.9L64.1-6.9ZM59.6-2.9C59.4-2.9 59.1-3 58.9-3.2C58.9-3.2 56.7-5.5 54.5-7.5C52.3-9.5 49.9-10.9 49.9-10.9C49.5-11.2 49.3-11.8 49.6-12.2C49.9-12.6 50.5-12.8 50.9-12.5C51-12.4 53.4-10.9 55.7-8.9C58-6.9 60.1-4.5 60.2-4.5C60.6-4.1 60.5-3.5 60.2-3.2C60.1-3 59.8-2.9 59.6-2.9L59.6-2.9Z"/>
   <path class="monochrome-3 multicolor-3:white hierarchical-3:primary SFSymbolsPreviewWireframe" d="M32.3-12.4C32.3-12.4 31.8-6 34-4.8C35.9-4 36.8-6.7 36.8-6.7C36.8-6.7 37.4-5.1 38.9-4.8C41.7-4.3 41.1-12.9 41.1-12.9L36.8-15.2L32.3-12.4Z"/>
   <path class="monochrome-4 multicolor-4:black hierarchical-4:primary SFSymbolsPreviewWireframe" d="M54.3-33.7C54.6-31.3 54-28.7 51.6-28.7C49.1-28.7 48.3-30.8 48-33.3C47.8-35.7 48.7-37.1 50.6-37.3C52.8-37.7 54.1-35.7 54.3-33.7L54.3-33.7ZM25.9-33.4C26-30.9 25-28.3 22.5-28.5C20-28.7 19.3-31.6 19.6-34.2C19.9-36.6 20.9-37.5 22.7-37.5C25-37.8 25.8-35.5 25.9-33.4ZM34.1-16.2C34.1-17.1 32.9-17.5 31.6-18.4C30.9-18.9 29.9-19.5 30.1-20.6C30.3-21.6 32.3-21.7 36.2-21.8C40.1-21.9 42.8-21.5 42.7-20.5C42.6-19.5 41.4-18.7 40.5-18C40.1-17.7 38.6-16.9 38.7-16.3C38.8-15.7 40.5-14.3 41.8-14.3C44.1-14.3 45.1-15.6 45.6-16.2C46.1-16.8 46.7-17.4 47.7-17C48.5-16.6 47.8-14.3 46-12.7C44.2-11.1 41.2-10.7 39.3-11.6C37.3-12.4 36.4-13.7 36.4-13.7C36.4-13.7 34.2-10.7 30.8-11.2C28.1-11.6 26.4-13.3 25.6-14.7C24.8-16 25.1-16.9 25.7-17C26.5-17.1 27-16.2 28.1-15.7C29.1-15.3 29.9-14.7 31.4-14.8C33.2-14.9 34.1-15.5 34.1-16.2L34.1-16.2Z"/>
   <path class="monochrome-5 multicolor-5:custom hierarchical-5:secondary SFSymbolsPreviewWireframe" d="M17.8-59.9C17.8-56.6 15.2-54.2 12-54.2C8.8-54.2 6.5-56.8 6.5-60.1C6.5-63.4 8.9-66.1 12-66.1C16-66.2 17.8-63.2 17.8-59.9L17.8-59.9ZM62.3-53.2C59-53.5 56.9-56.3 57.1-59.4C57.4-62.5 60.6-64.9 63.9-64.6C67.2-64.3 69.2-61.5 69-58.4C68.7-54.5 65.6-53 62.3-53.2Z"/>
  </g>
  <g id="Regular-S" transform="matrix(1 0 0 1 1403.59 696)">
   <path class="monochrome-0 multicolor-0:custom hierarchical-0:tertiary SFSymbolsPreviewWireframe" d="M44.1-64.1C56.5-64.1 66.6-57.5 77.5-38.3C86.6-22.4 84.8-5 75.1 0.3C65.5 5.6 61.9 4.7 57.6 4.4C53.7 4.2 44.5-13.1 44.5-13.1C44.5-13.1 36.2 4.1 30.4 3.9C28.3 3.9 16.6 4 10.6-3.6C4.5-11.2 4.9-24.1 10.6-35.7C16.5-47.1 28.6-64.1 44.1-64.1L44.1-64.1ZM86.3-61.4C86.6-52.8 80-47.6 73-47.6C66-47.6 61.3-53.8 61.3-60.8C61.3-67.8 67.6-73.2 74.6-73.2C81.7-73.3 86-68.4 86.3-61.4ZM14.6-50.1C6.4-52.8 3.9-59 6.1-65.9C8.3-72.9 15.7-76.2 22.5-74.1C29.2-72 32-64.6 29.8-57.6C27.6-50.6 20.8-48.1 14.6-50.1L14.6-50.1Z"/>
   <path class="monochrome-1 multicolor-1:custom hierarchical-1:secondary SFSymbolsPreviewWireframe" d="M45.1-0.7C45.1-0.7 51.9 3.8 57.8 4.2C63.6 4.6 70.4 2.4 70.8-6.1C71.2-15.7 64.1-21 62.2-22.5C61.1-23.3 55.5-27.2 55.5-27.2C55.5-27.2 54-39.1 53.5-42.9C52.9-46.8 52.5-52.8 45.1-52.9C38-53 37.1-45.7 37-43.4C36.9-40.6 35.8-27.1 35.8-27.1C35.8-27.1 31.8-24.4 29-22.3C26.5-20.4 20.1-15.6 20.4-7.4C20.6-0.6 24.3 4 32.1 3.8C41.3 3.6 45.1-0.7 45.1-0.7L45.1-0.7Z"/>
   <path class="monochrome-2 multicolor-2:systemGrayColor hierarchical-2:primary SFSymbolsPreviewWireframe" d="M16.1-4.7C15.8-4.7 15.4-4.9 15.2-5.1C14.9-5.5 15-6.2 15.5-6.6C15.7-6.7 19.6-9.3 21.9-10.5C24.1-11.7 28-13.8 28-13.8C28-13.8 28.9-14.4 29.5-13.5C30.2-12.6 29.1-11.9 29.1-11.9C29.1-11.9 25.3-9.8 23-8.6C20.9-7.4 16.8-4.8 16.7-4.8C16.6-4.8 16.3-4.7 16.1-4.7L16.1-4.7ZM20.6 0.7C20.4 0.7 20.2 0.6 19.9 0.5C19.5 0.2 19.5-0.5 19.8-1.1C19.9-1.2 21.9-3.5 24.2-5.5C26.4-7.5 28.5-9.4 28.5-9.4C28.9-9.7 29.6-9.7 30.1-9.3C30.5-8.9 30.4-8.2 30-7.7C30-7.7 27.9-5.8 25.7-3.8C23.6-1.9 21.6 0.3 21.6 0.5C21.1 0.4 20.8 0.7 20.6 0.7L20.6 0.7ZM75.1-4.2C74.9-4.2 74.5-4.3 74.4-4.4C74.4-4.4 73.1-5.6 68.8-8.2C64.4-10.9 61.8-12.1 61.8-12.1C61.2-12.3 61-13 61.4-13.6C61.6-14 62.3-14.3 62.7-14C62.8-14 65.4-12.8 69.9-10C74.4-7.3 75.8-6 75.8-6C76.2-5.7 76.2-4.9 75.9-4.4C75.7-4.3 75.4-4.2 75.1-4.2L75.1-4.2ZM70.2 0.1C69.9 0.1 69.6 0 69.4-0.2C69.4-0.2 67-2.7 64.7-4.9C62.3-7 59.8-8.6 59.8-8.7C59.4-9 59.1-9.7 59.5-10.2C59.8-10.6 60.5-10.9 61-10.5C61.1-10.4 63.8-8.8 66.3-6.5C68.8-4.3 71.1-1.8 71.1-1.7C71.5-1.3 71.4-0.6 71.1-0.1C70.8 0 70.5 0.1 70.2 0.1L70.2 0.1Z"/>
   <path class="monochrome-3 multicolor-3:white hierarchical-3:primary SFSymbolsPreviewWireframe" d="M40.5-10.1C40.5-10.1 39.9-3 42.4-1.9C44.4-1 45.5-3.9 45.5-3.9C45.5-3.9 46.2-2.2 47.9-1.9C51-1.3 50.3-10.8 50.3-10.8L45.7-13.3L40.5-10.1Z"/>
   <path class="monochrome-4 multicolor-4:black hierarchical-4:primary SFSymbolsPreviewWireframe" d="M64.5-33.4C64.8-30.8 64.2-28 61.6-28C58.9-28 57.9-30.4 57.7-32.9C57.5-35.5 58.5-37 60.5-37.4C62.8-37.7 64.2-35.5 64.5-33.4L64.5-33.4ZM33.6-33.1C33.7-30.4 32.6-27.6 29.8-27.7C27.1-27.9 26.3-31.2 26.7-34C27-36.6 28.2-37.6 30.2-37.7C32.5-37.8 33.5-35.3 33.6-33.1ZM42.4-14.2C42.4-15.2 41.1-15.7 39.7-16.6C38.9-17.2 37.8-17.8 38.1-19C38.4-20.1 40.5-20.2 44.7-20.3C49-20.4 51.9-20 51.8-18.8C51.7-17.7 50.3-16.9 49.4-16.1C49-15.8 47.4-14.9 47.4-14.2C47.5-13.5 49.3-12.1 50.9-12.1C53.4-12.1 54.6-13.6 55.2-14.2C55.8-14.8 56.5-15.5 57.4-15.1C58.3-14.7 57.5-12.2 55.6-10.4C53.7-8.6 50.4-8.3 48.2-9.2C46.1-10.1 45.1-11.4 45.1-11.4C45.1-11.4 42.7-8 38.9-8.6C36-9 34.2-11 33.3-12.4C32.4-13.9 32.7-14.8 33.4-14.9C34.3-15 34.9-14 36-13.4C37.1-13 37.9-12.3 39.6-12.4C41.5-12.8 42.4-13.6 42.4-14.2L42.4-14.2Z"/>
   <path class="monochrome-5 multicolor-5:custom hierarchical-5:secondary SFSymbolsPreviewWireframe" d="M24.7-61.9C24.7-58.2 21.8-55.7 18.4-55.7C15-55.7 12.3-58.5 12.3-62.2C12.3-65.9 14.9-68.8 18.4-68.8C22.8-68.7 24.7-65.5 24.7-61.9L24.7-61.9ZM73.3-54.7C69.7-55 67.4-58.1 67.7-61.5C68-65 71.5-67.4 75.2-67.2C78.8-66.9 81-63.8 80.7-60.4C80.2-56 76.9-54.4 73.3-54.7Z"/>
  </g>
  <g id="Ultralight-S" transform="matrix(1 0 0 1 515.611 696)">
   <path class="monochrome-0 multicolor-0:custom hierarchical-0:tertiary SFSymbolsPreviewWireframe" d="M42.5-58.8C52.6-58.8 60.8-53.4 69.5-38C76.8-25.1 75.4-11.1 67.7-6.8C60-2.5 57-3.3 53.5-3.4C50.3-3.6 42.9-17.5 42.9-17.5C42.9-17.5 36.2-3.6 31.5-3.7C29.8-3.7 20.4-3.6 15.5-9.7C10.6-15.9 10.9-26.3 15.5-35.5C20.3-44.9 30.1-58.8 42.5-58.8L42.5-58.8ZM76.7-56.5C77-49.5 71.7-45.4 65.9-45.4C60.2-45.4 56.5-50.4 56.5-56C56.5-61.6 61.5-66.1 67.3-66.1C73-66.1 76.5-62.2 76.7-56.5ZM18.8-47.4C12.2-49.6 10.2-54.6 12-60.1C13.8-65.6 19.8-68.5 25.2-66.7C30.6-65 32.9-59 31.1-53.3C29.4-47.8 23.8-45.8 18.8-47.4L18.8-47.4Z"/>
   <path class="monochrome-1 multicolor-1:custom hierarchical-1:secondary SFSymbolsPreviewWireframe" d="M43.5-7.4C43.5-7.4 49-3.8 53.8-3.4C58.5-3 64-4.9 64.4-11.8C64.8-19.6 58.9-23.9 57.4-25C56.5-25.6 52-28.8 52-28.8C52-28.8 50.8-38.4 50.4-41.5C49.9-44.6 49.7-49.5 43.6-49.6C37.9-49.7 37.1-43.8 37-41.9C36.9-39.6 36-28.8 36-28.8C36-28.8 32.7-26.6 30.5-24.9C28.5-23.4 23.3-19.5 23.5-12.9C23.7-7.4 26.6-3.7 32.9-3.9C40.3-3.9 43.5-7.4 43.5-7.4L43.5-7.4Z"/>
   <path class="monochrome-2 multicolor-2:systemGrayColor hierarchical-2:primary SFSymbolsPreviewWireframe" d="M20-10.7C19.7-10.7 19.5-10.9 19.3-11.1C19-11.5 19.1-12 19.6-12.3C19.8-12.4 23-14.5 24.8-15.5C26.6-16.5 29.7-18.1 29.7-18.1C29.7-18.1 30.4-18.6 30.9-17.8C31.4-17.1 30.5-16.5 30.5-16.5C30.5-16.5 27.4-14.9 25.6-13.9C23.9-12.9 20.6-10.8 20.5-10.8C20.3-10.7 20.2-10.7 20-10.7L20-10.7ZM23.5-6.4C23.3-6.4 23.1-6.5 23-6.6C22.6-6.9 22.6-7.4 22.9-7.8C23-7.9 24.5-9.7 26.4-11.3C28.3-12.9 29.9-14.4 29.9-14.4C30.3-14.7 30.8-14.7 31.1-14.3C31.4-13.9 31.4-13.4 31-13.1C31-13.1 29.4-11.6 27.5-10C25.8-8.5 24.1-6.6 24.1-6.6C24-6.5 23.8-6.4 23.5-6.4L23.5-6.4ZM67.7-10.2C67.5-10.2 67.2-10.3 67.2-10.4C67.2-10.4 66.1-11.4 62.7-13.5C59.2-15.7 57.2-16.6 57.1-16.7C56.6-16.9 56.5-17.4 56.7-17.9C56.9-18.3 57.4-18.4 57.8-18.3C57.9-18.3 60-17.3 63.5-15C67.1-12.8 68.3-11.7 68.3-11.7C68.7-11.4 68.7-10.8 68.4-10.5C68.1-10.3 67.8-10.2 67.7-10.2L67.7-10.2ZM63.7-6.8C63.5-6.8 63.2-6.9 63.1-7.1C63.1-7.1 61.2-9.1 59.3-10.9C57.4-12.6 55.3-13.9 55.3-13.9C54.9-14.2 54.8-14.7 55-15.1C55.2-15.5 55.8-15.6 56.2-15.4C56.3-15.3 58.5-14 60.5-12.2C62.5-10.4 64.3-8.4 64.4-8.3C64.8-7.9 64.7-7.4 64.4-7.1C64.1-6.8 63.9-6.8 63.7-6.8L63.7-6.8Z"/>
   <path class="monochrome-3 multicolor-3:white hierarchical-3:primary SFSymbolsPreviewWireframe" d="M39.7-15.1C39.7-15.1 39.2-9.4 41.2-8.5C42.8-7.8 43.7-10.1 43.7-10.1C43.7-10.1 44.2-8.7 45.5-8.5C48-8 47.4-15.6 47.4-15.6L43.7-17.6L39.7-15.1Z"/>
   <path class="monochrome-4 multicolor-4:black hierarchical-4:primary SFSymbolsPreviewWireframe" d="M59-33.8C59.3-31.7 58.7-29.4 56.6-29.4C54.4-29.4 53.6-31.2 53.4-33.4C53.2-35.6 54-36.8 55.7-37C57.7-37.3 58.8-35.6 59-33.8L59-33.8ZM34-33.7C34.1-31.5 33.2-29.2 30.9-29.4C28.7-29.6 28.1-32.2 28.4-34.5C28.7-36.6 29.6-37.4 31.2-37.5C33.2-37.4 34-35.4 34-33.7ZM41.3-18.5C41.3-19.3 40.2-19.7 39.1-20.4C38.5-20.9 37.6-21.4 37.8-22.3C38.1-23.2 39.7-23.3 43.2-23.4C46.7-23.5 49-23.1 48.9-22.2C48.8-21.3 47.7-20.7 47-20C46.6-19.7 45.4-19 45.4-18.5C45.5-18 46.9-16.8 48.2-16.8C50.2-16.8 51.2-18 51.7-18.4C52.2-18.9 52.8-19.5 53.5-19.1C54.2-18.7 53.6-16.7 52-15.4C50.5-14 47.8-13.7 46.1-14.4C44.4-15.1 43.6-16.2 43.6-16.2C43.6-16.2 41.7-13.5 38.7-13.9C36.3-14.3 34.9-15.7 34.2-17C33.5-18.2 33.7-18.9 34.3-19C35-19.1 35.5-18.3 36.4-17.8C37.3-17.4 37.9-16.9 39.3-17C40.5-17.2 41.3-17.8 41.3-18.5L41.3-18.5Z"/>
   <path class="monochrome-5 multicolor-5:custom hierarchical-5:secondary SFSymbolsPreviewWireframe" d="M26.9-56.9C26.9-54 24.6-51.9 21.8-51.9C19-51.9 17-54.2 17-57.1C17-60 19.1-62.5 21.8-62.5C25.4-62.5 26.9-59.9 26.9-56.9L26.9-56.9ZM66.1-51C63.2-51.3 61.4-53.7 61.6-56.5C61.9-59.3 64.7-61.3 67.7-61C70.6-60.7 72.4-58.3 72.2-55.5C71.7-52.1 69-50.9 66.1-51Z"/>
  </g>
 </g>
</svg>
