<?xml version="1.0" encoding="UTF-8"?>
<!--Generator: Apple Native CoreSVG 341-->
<!DOCTYPE svg
PUBLIC "-//W3C//DTD SVG 1.1//EN"
       "http://www.w3.org/Graphics/SVG/1.1/DTD/svg11.dtd">
<svg version="1.1" xmlns="http://www.w3.org/2000/svg" xmlns:xlink="http://www.w3.org/1999/xlink" viewBox="0 0 3300 2200">
 <!--glyph: "", point size: 100.0, font version: "20.0d10e1", template writer version: "138.0.0"-->
 <style>.monochrome-0 {-sfsymbols-motion-group:0;-sfsymbols-layer-tags:-3697bff888b52275}

.multicolor-0:black {-sfsymbols-motion-group:0;-sfsymbols-layer-tags:-3697bff888b52275}

.hierarchical-0:primary {-sfsymbols-motion-group:0;-sfsymbols-layer-tags:-3697bff888b52275}

.SFSymbolsPreviewWireframe {fill:none;opacity:1.0;stroke:black;stroke-width:0.5}
</style>
 <g id="Notes">
  <rect height="2200" id="artboard" style="fill:white;opacity:1" width="3300" x="0" y="0"/>
  <line style="fill:none;stroke:black;opacity:1;stroke-width:0.5;" x1="263" x2="3036" y1="292" y2="292"/>
  <text style="stroke:none;fill:black;font-family:sans-serif;font-size:13;font-weight:bold;" transform="matrix(1 0 0 1 263 322)">Weight/Scale Variations</text>
  <text style="stroke:none;fill:black;font-family:sans-serif;font-size:13;text-anchor:middle;" transform="matrix(1 0 0 1 559.711 322)">Ultralight</text>
  <text style="stroke:none;fill:black;font-family:sans-serif;font-size:13;text-anchor:middle;" transform="matrix(1 0 0 1 856.422 322)">Thin</text>
  <text style="stroke:none;fill:black;font-family:sans-serif;font-size:13;text-anchor:middle;" transform="matrix(1 0 0 1 1153.13 322)">Light</text>
  <text style="stroke:none;fill:black;font-family:sans-serif;font-size:13;text-anchor:middle;" transform="matrix(1 0 0 1 1449.84 322)">Regular</text>
  <text style="stroke:none;fill:black;font-family:sans-serif;font-size:13;text-anchor:middle;" transform="matrix(1 0 0 1 1746.56 322)">Medium</text>
  <text style="stroke:none;fill:black;font-family:sans-serif;font-size:13;text-anchor:middle;" transform="matrix(1 0 0 1 2043.27 322)">Semibold</text>
  <text style="stroke:none;fill:black;font-family:sans-serif;font-size:13;text-anchor:middle;" transform="matrix(1 0 0 1 2339.98 322)">Bold</text>
  <text style="stroke:none;fill:black;font-family:sans-serif;font-size:13;text-anchor:middle;" transform="matrix(1 0 0 1 2636.69 322)">Heavy</text>
  <text style="stroke:none;fill:black;font-family:sans-serif;font-size:13;text-anchor:middle;" transform="matrix(1 0 0 1 2933.4 322)">Black</text>
  <line style="fill:none;stroke:black;opacity:1;stroke-width:0.5;" x1="263" x2="3036" y1="1903" y2="1903"/>
  <g transform="matrix(0.2 0 0 0.2 263 1933)">
   <path d="m46.2402 4.15039c21.7773 0 39.4531-17.627 39.4531-39.4043s-17.6758-39.4043-39.4531-39.4043c-21.7285 0-39.4043 17.627-39.4043 39.4043s17.6758 39.4043 39.4043 39.4043Zm0-7.42188c-17.6758 0-31.9336-14.3066-31.9336-31.9824s14.2578-31.9824 31.9336-31.9824 31.9824 14.3066 31.9824 31.9824-14.3066 31.9824-31.9824 31.9824Zm-17.9688-31.9824c0 2.14844 1.51367 3.61328 3.75977 3.61328h10.498v10.5957c0 2.19727 1.46484 3.71094 3.61328 3.71094 2.24609 0 3.71094-1.51367 3.71094-3.71094v-10.5957h10.5957c2.19727 0 3.71094-1.46484 3.71094-3.61328 0-2.19727-1.51367-3.71094-3.71094-3.71094h-10.5957v-10.5469c0-2.24609-1.46484-3.75977-3.71094-3.75977-2.14844 0-3.61328 1.51367-3.61328 3.75977v10.5469h-10.498c-2.24609 0-3.75977 1.51367-3.75977 3.71094Z"/>
  </g>
  <g transform="matrix(0.2 0 0 0.2 281.506 1933)">
   <path d="m58.5449 14.5508c27.4902 0 49.8047-22.3145 49.8047-49.8047s-22.3145-49.8047-49.8047-49.8047-49.8047 22.3145-49.8047 49.8047 22.3145 49.8047 49.8047 49.8047Zm0-8.30078c-22.9492 0-41.5039-18.5547-41.5039-41.5039s18.5547-41.5039 41.5039-41.5039 41.5039 18.5547 41.5039 41.5039-18.5547 41.5039-41.5039 41.5039Zm-22.6562-41.5039c0 2.39258 1.66016 4.00391 4.15039 4.00391h14.3555v14.4043c0 2.44141 1.66016 4.15039 4.05273 4.15039 2.44141 0 4.15039-1.66016 4.15039-4.15039v-14.4043h14.4043c2.44141 0 4.15039-1.61133 4.15039-4.00391 0-2.44141-1.70898-4.15039-4.15039-4.15039h-14.4043v-14.3555c0-2.49023-1.70898-4.19922-4.15039-4.19922-2.39258 0-4.05273 1.70898-4.05273 4.19922v14.3555h-14.3555c-2.49023 0-4.15039 1.70898-4.15039 4.15039Z"/>
  </g>
  <g transform="matrix(0.2 0 0 0.2 304.924 1933)">
   <path d="m74.8535 28.3203c35.1074 0 63.623-28.4668 63.623-63.5742s-28.5156-63.623-63.623-63.623-63.5742 28.5156-63.5742 63.623 28.4668 63.5742 63.5742 63.5742Zm0-9.08203c-30.127 0-54.4922-24.3652-54.4922-54.4922s24.3652-54.4922 54.4922-54.4922 54.4922 24.3652 54.4922 54.4922-24.3652 54.4922-54.4922 54.4922Zm-28.8574-54.4922c0 2.58789 1.85547 4.39453 4.58984 4.39453h19.7266v19.7754c0 2.68555 1.85547 4.58984 4.44336 4.58984 2.68555 0 4.54102-1.85547 4.54102-4.58984v-19.7754h19.7754c2.68555 0 4.58984-1.80664 4.58984-4.39453 0-2.73438-1.85547-4.58984-4.58984-4.58984h-19.7754v-19.7266c0-2.73438-1.85547-4.63867-4.54102-4.63867-2.58789 0-4.44336 1.9043-4.44336 4.63867v19.7266h-19.7266c-2.73438 0-4.58984 1.85547-4.58984 4.58984Z"/>
  </g>
  <text style="stroke:none;fill:black;font-family:sans-serif;font-size:13;font-weight:bold;" transform="matrix(1 0 0 1 263 1953)">Design Variations</text>
  <text style="stroke:none;fill:black;font-family:sans-serif;font-size:13;" transform="matrix(1 0 0 1 263 1971)">Symbols are supported in up to nine weights and three scales.</text>
  <text style="stroke:none;fill:black;font-family:sans-serif;font-size:13;" transform="matrix(1 0 0 1 263 1989)">For optimal layout with text and other symbols, vertically align</text>
  <text style="stroke:none;fill:black;font-family:sans-serif;font-size:13;" transform="matrix(1 0 0 1 263 2007)">symbols with the adjacent text.</text>
  <line style="fill:none;stroke:#00AEEF;stroke-width:0.5;opacity:1.0;" x1="776" x2="776" y1="1919" y2="1933"/>
  <g transform="matrix(0.2 0 0 0.2 776 1933)">
   <path d="m16.5527 0.78125c2.58789 0 3.85742-0.976562 4.78516-3.71094l6.29883-17.2363h28.8086l6.29883 17.2363c0.927734 2.73438 2.19727 3.71094 4.73633 3.71094 2.58789 0 4.24805-1.5625 4.24805-4.00391 0-0.830078-0.146484-1.61133-0.537109-2.63672l-22.9004-60.9863c-1.12305-2.97852-3.125-4.49219-6.25-4.49219-3.02734 0-5.07812 1.46484-6.15234 4.44336l-22.9004 61.084c-0.390625 1.02539-0.537109 1.80664-0.537109 2.63672 0 2.44141 1.5625 3.95508 4.10156 3.95508Zm13.4766-28.3691 11.8652-32.8613h0.244141l11.8652 32.8613Z"/>
  </g>
  <line style="fill:none;stroke:#00AEEF;stroke-width:0.5;opacity:1.0;" x1="792.836" x2="792.836" y1="1919" y2="1933"/>
  <text style="stroke:none;fill:black;font-family:sans-serif;font-size:13;font-weight:bold;" transform="matrix(1 0 0 1 776 1953)">Margins</text>
  <text style="stroke:none;fill:black;font-family:sans-serif;font-size:13;" transform="matrix(1 0 0 1 776 1971)">Leading and trailing margins on the left and right side of each symbol</text>
  <text style="stroke:none;fill:black;font-family:sans-serif;font-size:13;" transform="matrix(1 0 0 1 776 1989)">can be adjusted by modifying the x-location of the margin guidelines.</text>
  <text style="stroke:none;fill:black;font-family:sans-serif;font-size:13;" transform="matrix(1 0 0 1 776 2007)">Modifications are automatically applied proportionally to all</text>
  <text style="stroke:none;fill:black;font-family:sans-serif;font-size:13;" transform="matrix(1 0 0 1 776 2025)">scales and weights.</text>
  <g transform="matrix(0.2 0 0 0.2 1289 1933)">
   <path d="m14.209 9.32617 8.49609 8.54492c4.29688 4.3457 9.22852 4.05273 13.8672-1.07422l53.4668-58.9355-4.83398-4.88281-53.0762 58.3984c-1.75781 2.00195-3.41797 2.49023-5.76172 0.146484l-5.85938-5.81055c-2.34375-2.29492-1.80664-4.00391 0.195312-5.81055l57.373-54.0039-4.88281-4.83398-57.959 54.4434c-4.93164 4.58984-5.32227 9.47266-1.02539 13.8184Zm32.0801-90.9668c-2.09961 2.05078-2.24609 4.93164-1.07422 6.88477 1.17188 1.80664 3.4668 2.97852 6.68945 2.14844 7.32422-1.70898 14.9414-2.00195 22.0703 2.68555l-2.92969 7.27539c-1.70898 4.15039-0.830078 7.08008 1.85547 9.81445l11.4746 11.5723c2.44141 2.44141 4.49219 2.53906 7.32422 2.05078l5.32227-0.976562 3.32031 3.36914-0.195312 2.7832c-0.195312 2.49023 0.439453 4.39453 2.88086 6.78711l3.80859 3.71094c2.39258 2.39258 5.46875 2.53906 7.8125 0.195312l14.5508-14.5996c2.34375-2.34375 2.24609-5.32227-0.146484-7.71484l-3.85742-3.80859c-2.39258-2.39258-4.24805-3.17383-6.64062-2.97852l-2.88086 0.244141-3.22266-3.17383 1.2207-5.61523c0.634766-2.83203-0.146484-5.0293-3.07617-7.95898l-10.9863-10.9375c-16.6992-16.6016-38.8672-16.2109-53.3203-1.75781Zm7.4707 1.85547c12.1582-8.88672 28.6133-7.37305 39.7461 3.75977l12.1582 12.0605c1.17188 1.17188 1.36719 2.09961 1.02539 3.80859l-1.61133 7.42188 7.51953 7.42188 4.93164-0.292969c1.26953-0.0488281 1.66016 0.0488281 2.63672 1.02539l2.88086 2.88086-12.207 12.207-2.88086-2.88086c-0.976562-0.976562-1.12305-1.36719-1.07422-2.68555l0.341797-4.88281-7.4707-7.42188-7.61719 1.26953c-1.61133 0.341797-2.34375 0.195312-3.56445-0.976562l-10.0098-10.0098c-1.26953-1.17188-1.41602-2.00195-0.634766-3.85742l4.39453-10.4492c-7.8125-7.27539-17.9688-10.4004-28.125-7.42188-0.78125 0.195312-1.07422-0.439453-0.439453-0.976562Z"/>
  </g>
  <text style="stroke:none;fill:black;font-family:sans-serif;font-size:13;font-weight:bold;" transform="matrix(1 0 0 1 1289 1953)">Exporting</text>
  <text style="stroke:none;fill:black;font-family:sans-serif;font-size:13;" transform="matrix(1 0 0 1 1289 1971)">Symbols should be outlined when exporting to ensure the</text>
  <text style="stroke:none;fill:black;font-family:sans-serif;font-size:13;" transform="matrix(1 0 0 1 1289 1989)">design is preserved when submitting to Xcode.</text>
  <text id="template-version" style="stroke:none;fill:black;font-family:sans-serif;font-size:13;text-anchor:end;" transform="matrix(1 0 0 1 3036 1933)">Template v.6.0</text>
  <text style="stroke:none;fill:black;font-family:sans-serif;font-size:13;text-anchor:end;" transform="matrix(1 0 0 1 3036 1951)">Requires Xcode 16 or greater</text>
  <text id="descriptive-name" style="stroke:none;fill:black;font-family:sans-serif;font-size:13;text-anchor:end;" transform="matrix(1 0 0 1 3036 1969)">Generated from markbattistella.com</text>
  <text style="stroke:none;fill:black;font-family:sans-serif;font-size:13;text-anchor:end;" transform="matrix(1 0 0 1 3036 1987)">Typeset at 100.0 points</text>
  <text style="stroke:none;fill:black;font-family:sans-serif;font-size:13;" transform="matrix(1 0 0 1 263 726)">Small</text>
  <text style="stroke:none;fill:black;font-family:sans-serif;font-size:13;" transform="matrix(1 0 0 1 263 1156)">Medium</text>
  <text style="stroke:none;fill:black;font-family:sans-serif;font-size:13;" transform="matrix(1 0 0 1 263 1586)">Large</text>
 </g>
 <g id="Guides">
  <g id="H-reference" style="fill:#27AAE1;stroke:none;" transform="matrix(1 0 0 1 339 696)">
   <path d="M0.993654 0L3.63775 0L29.3281-67.1323L30.0303-67.1323L30.0303-70.459L28.1226-70.459ZM11.6885-24.4799L46.9815-24.4799L46.2315-26.7285L12.4385-26.7285ZM55.1196 0L57.7637 0L30.6382-70.459L29.4326-70.459L29.4326-67.1323Z"/>
  </g>
  <line id="Baseline-S" style="fill:none;stroke:#27AAE1;opacity:1;stroke-width:0.5;" x1="263" x2="3036" y1="696" y2="696"/>
  <line id="Capline-S" style="fill:none;stroke:#27AAE1;opacity:1;stroke-width:0.5;" x1="263" x2="3036" y1="625.541" y2="625.541"/>
  <g id="H-reference" style="fill:#27AAE1;stroke:none;" transform="matrix(1 0 0 1 339 1126)">
   <path d="M0.993654 0L3.63775 0L29.3281-67.1323L30.0303-67.1323L30.0303-70.459L28.1226-70.459ZM11.6885-24.4799L46.9815-24.4799L46.2315-26.7285L12.4385-26.7285ZM55.1196 0L57.7637 0L30.6382-70.459L29.4326-70.459L29.4326-67.1323Z"/>
  </g>
  <line id="Baseline-M" style="fill:none;stroke:#27AAE1;opacity:1;stroke-width:0.5;" x1="263" x2="3036" y1="1126" y2="1126"/>
  <line id="Capline-M" style="fill:none;stroke:#27AAE1;opacity:1;stroke-width:0.5;" x1="263" x2="3036" y1="1055.54" y2="1055.54"/>
  <g id="H-reference" style="fill:#27AAE1;stroke:none;" transform="matrix(1 0 0 1 339 1556)">
   <path d="M0.993654 0L3.63775 0L29.3281-67.1323L30.0303-67.1323L30.0303-70.459L28.1226-70.459ZM11.6885-24.4799L46.9815-24.4799L46.2315-26.7285L12.4385-26.7285ZM55.1196 0L57.7637 0L30.6382-70.459L29.4326-70.459L29.4326-67.1323Z"/>
  </g>
  <line id="Baseline-L" style="fill:none;stroke:#27AAE1;opacity:1;stroke-width:0.5;" x1="263" x2="3036" y1="1556" y2="1556"/>
  <line id="Capline-L" style="fill:none;stroke:#27AAE1;opacity:1;stroke-width:0.5;" x1="263" x2="3036" y1="1485.54" y2="1485.54"/>
  <line id="right-margin-Black-S" style="fill:none;stroke:#00AEEF;stroke-width:0.5;opacity:1.0;" x1="2982.2" x2="2982.2" y1="600.785" y2="720.121"/>
  <line id="left-margin-Black-S" style="fill:none;stroke:#00AEEF;stroke-width:0.5;opacity:1.0;" x1="2884.6" x2="2884.6" y1="600.785" y2="720.121"/>
  <line id="right-margin-Regular-S" style="fill:none;stroke:#00AEEF;stroke-width:0.5;opacity:1.0;" x1="1496.09" x2="1496.09" y1="600.785" y2="720.121"/>
  <line id="left-margin-Regular-S" style="fill:none;stroke:#00AEEF;stroke-width:0.5;opacity:1.0;" x1="1403.59" x2="1403.59" y1="600.785" y2="720.121"/>
  <line id="right-margin-Ultralight-S" style="fill:none;stroke:#00AEEF;stroke-width:0.5;opacity:1.0;" x1="603.811" x2="603.811" y1="600.785" y2="720.121"/>
  <line id="left-margin-Ultralight-S" style="fill:none;stroke:#00AEEF;stroke-width:0.5;opacity:1.0;" x1="515.611" x2="515.611" y1="600.785" y2="720.121"/>
 </g>
 <g id="Symbols">
  <g id="Black-S" transform="matrix(1 0 0 1 2884.6 696)">
   <path class="monochrome-0 multicolor-0:black hierarchical-0:primary SFSymbolsPreviewWireframe" d="M54.2434-70.5353C53.8962-70.3225 53.3138-69.9641 52.9666-69.7513C52.6195-69.5386 52.2499-69.3594 52.1491-69.3594C52.0483-69.3594 51.3651-69.5386 50.6259-69.7513C49.8084-69.9977 49.058-70.1433 48.6772-70.1433C48.3412-70.1433 46.9413-70.1321 45.5861-70.1209L43.0998-70.0873L42.4614-69.6393C42.103-69.4042 41.4535-69.057 41.0167-68.8778C40.1319-68.5194 39.8295-68.3066 39.8295-68.0042C39.8295-67.8922 39.7735-67.769 39.7063-67.7354C39.6503-67.6906 39.4823-67.3994 39.3367-67.0858L39.0904-66.5147L38.6648-67.209C38.1496-68.0602 37.836-68.3178 37.1864-68.4186C36.5928-68.5082 36.3913-68.3738 36.5704-68.0378C36.7496-67.713 36.3017-67.5674 34.7897-67.4554C34.0841-67.3994 33.3674-67.3098 33.2106-67.2538C33.0538-67.1866 32.4378-67.0746 31.8442-67.0074C30.8251-66.873 30.7243-66.8394 30.2539-66.4251C29.8955-66.1115 29.6043-65.6859 29.2347-64.9243C28.8875-64.2075 28.6635-63.8716 28.5403-63.8716C28.1483-63.8828 27.4204-64.3083 27.1068-64.7227C26.6812-65.2939 26.4124-65.5291 25.942-65.7419C25.5724-65.9099 25.55-65.8987 25.3037-65.6075C25.0573-65.3387 25.0461-65.2155 25.0461-63.8044C25.0461-61.6988 24.8781-61.374 23.6797-61.0269C22.7277-60.7581 22.4702-60.4893 22.403-59.6717C22.291-58.3838 22.3918-58.4734 21.1262-58.5182C20.1182-58.5517 19.995-58.5293 19.7823-58.3166C19.5807-58.115 19.5695-58.0478 19.6703-57.8014C19.8718-57.3646 19.5695-56.8942 18.7967-56.4462C18.4383-56.2334 17.7999-55.7183 17.3631-55.2927C16.9264-54.8671 16.344-54.3183 16.064-54.0719C15.616-53.6687 15.5264-53.5231 15.3136-52.7168C15.1344-52.0448 15.1008-51.7312 15.1792-51.5184C15.2352-51.3728 15.3248-50.8912 15.3696-50.4544L15.4368-49.6593L15.0672-49.4353C14.5856-49.1441 14.2161-49.1441 13.2865-49.4353C12.4465-49.7041 12.0209-49.6705 11.8193-49.3009C11.6065-48.8977 11.7969-48.3713 12.4577-47.6209C12.7937-47.229 13.3089-46.557 13.6001-46.1314L14.1265-45.3698L14.1601-43.8579L14.2049-42.3571L14.496-42.2339C14.664-42.1667 15.224-42.0995 15.7504-42.0883C17.3071-42.0659 17.5647-41.8196 17.6991-40.218C17.7551-39.49 17.7439-39.4564 17.5087-39.4564C17.2063-39.4564 17.0496-39.5684 16.9488-39.826C16.9152-39.9268 16.8032-40.0164 16.7024-40.0164C16.4336-40.0164 15.5488-39.1429 15.112-38.4485C14.888-38.1125 14.496-37.5973 14.2385-37.3173C13.5889-36.6229 13.5553-36.455 13.8913-35.6038C14.3504-34.4614 14.3057-33.7895 13.6673-32.4791C13.0625-31.2135 13.0737-31.0791 13.9137-30.172L14.5072-29.5336L14.2945-29.0744C14.1825-28.828 13.8353-28.3352 13.5329-27.9993C12.8385-27.2377 12.7153-26.7561 12.9953-26.0169C13.1073-25.7369 13.3201-25.0874 13.4657-24.561C13.6113-24.0346 13.9921-22.825 14.2945-21.8731C14.5968-20.9211 14.9216-19.7452 15.0224-19.2748C15.1456-18.6812 15.3024-18.2892 15.5264-18.0092C15.784-17.6844 15.84-17.5276 15.784-17.2476C15.7168-16.8781 15.3472-15.6909 15.0336-14.8397C14.888-14.4701 14.8768-14.2574 14.9664-13.9438C15.112-13.395 15.3808-13.0254 15.6272-13.0254C15.8624-13.0254 16.1536-12.723 16.2208-12.4094C16.2544-12.2302 16.344-12.1854 16.7024-12.1966C16.9488-12.2078 17.2623-12.2526 17.3967-12.2974C17.7999-12.4318 17.8559-11.9166 17.4975-11.3007C17.3407-11.0207 17.2063-10.7743 17.2063-10.7407C17.2063-10.7071 17.3967-10.5727 17.6207-10.4495C18.2143-10.1359 18.4719-9.90072 18.9759-9.18395C19.2111-8.83676 19.6591-8.35518 19.9614-8.11999C20.5886-7.61601 21.9214-6.41765 23.6349-4.81611C24.5197-3.98734 24.9005-3.70735 25.1917-3.65135C25.5276-3.60655 25.6172-3.64015 25.774-3.88654C25.942-4.14413 25.9644-4.34573 25.8972-5.1185C25.7964-6.54085 25.4828-7.41441 24.8893-7.96319C24.6205-8.20958 24.2509-8.48957 24.0605-8.59037C23.6013-8.82556 23.2541-9.29594 23.2541-9.68793C23.2541-9.93432 23.3437-10.0575 23.6461-10.2479C24.1501-10.5391 24.3405-10.8975 24.5085-11.8719C24.6205-12.5774 24.6093-12.7902 24.2733-14.5933C23.8029-17.1917 23.6461-19.0508 23.8029-20.3947C23.8813-20.9883 24.1949-22.3435 24.5533-23.5866C24.9005-24.7626 25.3485-26.4089 25.5612-27.2265C26.0764-29.2648 26.334-29.724 27.4428-30.508C28.6411-31.3703 29.3915-31.8071 30.2203-32.1543C30.9034-32.4455 30.9706-32.4567 32.6618-32.4007C37.3208-32.2551 39.2583-32.4119 39.6503-32.9831C39.8855-33.3079 39.7847-33.9462 39.3703-34.775C38.9224-35.671 38.4632-36.0854 37.2424-36.6902C34.9913-37.8325 34.1961-37.8213 31.1274-36.6342C30.2763-36.3094 29.6939-35.9846 28.8539-35.3686C28.2267-34.9094 27.4428-34.4054 27.1068-34.2486C25.8412-33.6551 25.8076-33.7671 25.7628-38.0565C25.718-42.4355 25.6956-42.6371 25.1805-43.1971C24.8781-43.5219 24.8445-43.5891 25.0461-43.4547C25.6284-43.059 26.0876-43.0403 26.4236-43.3987C27.0284-44.0259 28.5963-46.165 29.1339-47.0722C29.3691-47.4754 29.6827-47.9905 29.8507-48.2369C30.1643-48.7073 32.8858-51.0256 33.9497-51.7312C35.9545-53.0528 38.06-53.6127 41.0615-53.6239C42.6294-53.6239 42.7078-53.6127 43.2118-53.3216C43.8278-52.952 44.4326-52.28 45.3397-50.9584C46.4261-49.3905 47.4452-48.5841 49.506-47.6882C51.3987-46.8706 52.1827-46.6354 53.7394-46.4562C55.9569-46.1986 56.0689-46.2098 56.7073-46.7362C56.9985-46.9826 57.5473-47.4194 57.9057-47.6882C58.5552-48.1921 58.5664-48.1921 58.8576-48.0017C59.0144-47.8897 59.4176-47.6658 59.7424-47.4978C60.56-47.061 61.4559-46.389 61.9375-45.8178C62.3855-45.3026 63.0127-44.0931 63.0127-43.7459C63.0127-43.3203 63.4047-43.0067 64.8718-42.3012C66.227-41.6516 66.4174-41.5284 66.8541-40.9684C67.3805-40.2964 68.0861-39.0309 68.7581-37.5749C69.6316-35.6374 69.8668-33.5655 69.3405-32.4231C68.9709-31.6279 68.9821-31.2584 69.4637-29.2984C69.8892-27.4841 70.3596-25.1322 70.8188-22.4331C71.0764-20.9435 71.1212-20.3611 71.1212-18.4012C71.1212-16.4525 71.0764-15.7693 70.8076-13.9214C70.3484-10.7743 70.4604-9.99032 71.5356-8.82556C71.7708-8.56797 71.9724-8.28798 71.9724-8.22079C71.9724-7.9072 71.5132-7.20163 71.3004-7.20163C71.0316-7.20163 70.5164-6.97763 70.5164-6.85444C70.5164-6.80964 70.6508-6.66405 70.8076-6.54085C71.1548-6.26086 71.8268-6.22727 72.1516-6.47366C72.4315-6.68645 72.8235-6.68645 73.4731-6.46246C74.5931-6.08167 76.2058-6.58565 77.225-7.63842C77.8969-8.32159 78.1321-8.97117 78.1321-10.0799C78.1321-10.7743 78.0985-10.9311 77.8857-11.1439C77.7402-11.2895 77.5498-11.5471 77.4602-11.7375C77.3706-11.9167 76.9674-12.3198 76.5642-12.6222C76.161-12.9246 75.8362-13.1934 75.8362-13.227C75.8362-13.2606 75.9594-13.3726 76.1162-13.4958C76.2954-13.6302 76.7322-13.7422 77.3482-13.8094C78.2889-13.9214 79.3081-14.2014 79.6105-14.4478C79.6889-14.515 79.9689-14.627 80.2377-14.6942C80.8088-14.851 81.604-15.7581 81.604-16.2733C81.604-16.4749 81.6936-16.6429 81.8616-16.7437C81.996-16.8445 82.2088-17.1805 82.3208-17.5053C82.444-17.8413 82.8024-18.4572 83.1272-18.894C83.5079-19.398 83.8887-20.1036 84.1687-20.8091L84.6055-21.9403L84.6391-24.225C84.6727-26.2185 84.6951-26.5657 84.8743-26.8233C85.1543-27.2265 85.1319-27.4953 84.7511-28.1785C84.5719-28.4921 84.3367-29.0408 84.2359-29.3768C84.1463-29.7128 83.9447-30.2168 83.7991-30.4968C83.5975-30.9 83.4855-31.0008 83.2615-31.0008C83.1048-31.0008 82.8808-31.0792 82.7688-31.18C82.6456-31.2808 82.388-31.4712 82.1752-31.5944L81.7944-31.8183L82.6008-32.2215C83.4967-32.6807 83.8439-33.1063 83.8439-33.7447C83.8439-34.2375 83.7319-34.4055 83.4519-34.3831C83.1047-34.3495 82.9256-35.0438 83.0824-35.8054C83.1719-36.2534 83.1719-36.6454 83.0711-37.2725C83.004-37.7429 82.948-38.5717 82.948-39.1205C82.948-39.6693 82.892-40.2516 82.8248-40.4308C82.668-40.8676 82.1976-41.3268 81.604-41.6628C80.1145-42.4804 80.2041-42.3908 80.1705-42.9619C80.1257-43.5667 80.2153-43.6675 81.4136-44.5187C82.22-45.0899 82.3768-45.3139 82.1976-45.605C81.996-45.9298 81.4808-46.0866 80.2265-46.1986C79.4873-46.2546 78.7929-46.3778 78.5241-46.501C77.4826-46.9602 76.8666-47.8338 76.8554-48.8081C76.8554-49.4689 76.9674-49.6593 77.7849-50.3313C78.5913-50.9809 78.8041-51.4176 78.8041-52.336C78.8041-53.4336 78.4457-54.7327 77.5833-56.7374C77.1578-57.7342 76.609-59.1902 76.3514-59.9741C76.105-60.7469 75.8362-61.5309 75.7466-61.7101C75.5898-62.0013 73.7643-63.7596 72.9019-64.454C72.4203-64.8348 70.0348-65.7755 69.5532-65.7755C69.0605-65.7755 68.3213-65.4283 67.7277-64.9131L67.2349-64.4876L67.3133-64.8795C67.3581-65.0923 67.4253-65.6187 67.4589-66.0331C67.5037-66.6715 67.4813-66.8283 67.3133-67.0187C66.9773-67.3883 66.7197-67.4779 65.8238-67.5563L64.9726-67.6235L64.8494-68.0154C64.7486-68.3514 64.5918-68.4746 63.7295-68.9338C61.2879-70.233 60.112-70.3786 58.3985-69.617L57.7489-69.3258L57.3345-69.6506C57.0993-69.8298 56.6401-70.1882 56.3153-70.4457C55.5538-71.0729 55.1394-71.0841 54.2434-70.5353L54.2434-70.5353ZM57.0881-36.4773C56.1809-36.1526 55.8337-35.9734 55.453-35.6038C54.9154-35.0998 54.7138-34.4838 54.9266-34.0246C55.0498-33.7558 56.4161-32.6135 56.7969-32.4679C57.3793-32.2551 58.6336-32.1879 59.1712-32.3447C60.2912-32.6807 61.4335-32.8599 62.9119-32.9607C63.8415-33.0167 64.603-33.1287 64.8606-33.2295L65.2862-33.4087L64.9838-33.6886C64.827-33.8342 64.6926-34.0694 64.6926-34.2038C64.6926-34.6518 63.9198-35.2342 62.6655-35.727C59.4848-36.9925 58.8464-37.0821 57.0881-36.4773ZM37.9816-31.5159C37.4328-31.4599 37.3096-31.4151 37.3208-31.2583C37.3208-31.1463 37.332-30.9111 37.3432-30.7432C37.3544-30.564 37.5224-30.1944 37.7016-29.9144C37.892-29.6344 38.0152-29.332 37.9816-29.2424C37.8472-28.9064 37.0856-28.6936 35.2489-28.4696C32.5946-28.156 31.5866-27.9657 31.0938-27.6745C28.4955-26.1177 28.5179-26.1401 28.5179-25.3673C28.5179-24.9082 28.5403-24.8746 28.9995-24.673C29.2571-24.561 29.8619-24.3818 30.3435-24.281C31.385-24.057 31.5194-24.113 31.3066-24.7178C31.1722-25.0874 31.1834-25.1322 31.4298-25.4009C31.9898-25.9945 32.6394-25.5465 32.5162-24.6506C32.4602-24.2026 32.4826-24.1466 32.9866-23.6426C33.3338-23.2954 33.6249-23.105 33.8041-23.105C33.9721-23.105 34.1625-22.9818 34.3193-22.769L34.5657-22.4443L35.6633-22.5003C37.332-22.5898 37.5-22.6234 37.4552-22.9146C37.4328-23.0826 37.3208-23.1834 37.0856-23.2282C36.9064-23.273 36.8056-23.3066 36.884-23.3178C36.9512-23.3178 37.1976-23.497 37.4104-23.7098C37.8024-24.0682 37.8136-24.113 37.8136-24.8634C37.8136-25.9385 37.9144-26.3417 38.2168-26.5433C38.5976-26.7897 38.844-26.6553 39.3703-25.9273L39.8407-25.2777L40.5911-25.3673C41.4983-25.4905 41.7783-25.6585 41.9126-26.1513C42.0022-26.4649 42.0918-26.5321 42.4614-26.6217C42.7078-26.6665 42.9766-26.7337 43.055-26.7561C43.2566-26.8121 43.223-27.4169 42.9766-28.324C42.4726-30.116 41.8007-31.0455 40.7927-31.3367C40.0871-31.5383 38.8664-31.6167 37.9816-31.5159ZM55.6546-28.716C54.6354-28.4248 54.4226-28.2456 54.3218-27.6409C54.2098-26.8681 54.333-26.3641 54.7474-25.9385C55.1842-25.4905 55.5202-25.4681 56.0465-25.8713C56.4049-26.1401 56.4497-26.1513 56.5729-25.9721C56.6513-25.8713 56.7409-25.5353 56.7857-25.233C56.8977-24.4266 57.1777-24.169 58.2977-23.833C59.8432-23.3738 60.2576-23.4634 61.4447-24.5162C61.9039-24.9306 62.5535-25.457 62.8783-25.7033C63.5615-26.2073 63.6063-26.4313 63.1135-26.8569C62.5759-27.2937 62.0831-27.5177 60.4928-28.0105C57.4241-28.9736 56.8529-29.052 55.6546-28.716ZM48.0724-9.49753C47.1989-9.18394 46.4821-9.13914 46.1685-9.38553C45.8549-9.62072 45.5413-9.59833 44.8581-9.27354C44.0294-8.89275 43.4358-8.82556 42.9206-9.03835C42.6854-9.13915 42.271-9.21755 42.0022-9.21755C41.5655-9.21755 41.4759-9.17275 41.2855-8.85916C41.1623-8.65757 41.0615-8.37758 41.0615-8.24318C41.0615-8.008 41.0055-7.98559 40.4679-7.98559C39.9079-7.98559 39.8519-7.9632 39.3367-7.42562C38.8552-6.92163 38.7992-6.83204 38.8664-6.49605C38.9112-6.26086 38.8776-6.04806 38.788-5.92487C38.6424-5.72328 38.6088-5.72328 38.1048-5.89127L37.5784-6.07047L36.548-5.0401C35.9769-4.46893 34.9241-3.30417 34.1961-2.453C33.0538-1.10904 32.8746-0.840255 32.9082-0.549065C32.9418-0.224278 32.9754-0.201875 33.4458-0.168278C34.0057-0.123479 34.9913-0.313869 35.5177-0.560266C35.7081-0.649864 36.0441-1.00825 36.3017-1.41143L36.7496-2.10581L37.7576-2.07221C38.508-2.04981 38.9784-2.0946 39.6055-2.2626C40.1207-2.40819 40.7927-2.49779 41.3639-2.49779L42.2934-2.49779L42.8198-3.04657C43.2902-3.51696 43.447-3.60655 44.0294-3.70735C45.2837-3.95374 46.8181-4.06573 48.8564-4.06573L50.8835-4.06573L51.3763-3.69614C52.1379-3.12497 52.3731-3.00177 53.157-2.72178C53.7954-2.49779 54.1762-2.45299 56.3601-2.38579C58.6448-2.3186 58.8576-2.2962 59.1712-2.07221C59.3504-1.94901 59.5744-1.75862 59.6528-1.65782C59.7312-1.55702 59.888-1.43383 60-1.36663C60.168-1.27704 60.2352-1.32183 60.3808-1.59063C60.504-1.83702 60.6384-1.93782 60.896-1.96021C61.5455-2.02741 61.9375-2.87858 61.7807-3.88654C61.7135-4.31213 61.5903-4.52492 61.0416-5.1073C60.6832-5.48809 60.3248-5.90247 60.2576-6.02567C60.1456-6.21606 60.0896-6.22726 59.7088-6.11527C59.4736-6.03687 59.2272-6.01447 59.1712-6.04807C59.1152-6.08167 59.0928-6.32806 59.1152-6.58565C59.1712-7.04483 59.1488-7.10083 58.5776-7.69441C58.0177-8.28799 57.6257-8.46718 57.4689-8.20959C57.3121-7.9632 57.1217-8.12 56.9649-8.62398C56.8529-8.98236 56.6961-9.21756 56.4945-9.32955C56.2145-9.48635 56.1249-9.47514 55.4866-9.23995C54.557-8.91517 54.2098-8.92637 53.157-9.34075L52.2723-9.68794L51.9699-9.45275C51.5891-9.15036 51.4099-9.16156 50.2564-9.49755C49.1028-9.83354 49.0356-9.83354 48.0724-9.49755L48.0724-9.49753Z"/>
  </g>
  <g id="Regular-S" transform="matrix(1 0 0 1 1403.59 696)">
   <path class="monochrome-0 multicolor-0:black hierarchical-0:primary SFSymbolsPreviewWireframe" d="M52.2535-70.5353C51.9063-70.3225 51.324-69.9641 50.9768-69.7513C50.6296-69.5386 50.26-69.3594 50.1592-69.3594C50.0584-69.3594 49.3752-69.5386 48.6361-69.7513C47.8185-69.9977 47.0681-70.1433 46.6873-70.1433C46.3513-70.1433 44.9514-70.1321 43.5962-70.1209L41.1099-70.0873L40.4716-69.6393C40.1132-69.4042 39.4636-69.057 39.0268-68.8778C38.142-68.5194 37.8397-68.3066 37.8397-68.0042C37.8397-67.8922 37.7837-67.769 37.7165-67.7354C37.6605-67.6906 37.4925-67.3994 37.3469-67.0858L37.1005-66.5147L36.6749-67.209C36.1597-68.0602 35.8461-68.3178 35.1966-68.4186C34.603-68.5082 34.4014-68.3738 34.5806-68.0378C34.7598-67.713 34.3118-67.5674 32.7998-67.4554C32.0943-67.3994 31.3775-67.3098 31.2207-67.2538C31.0639-67.1866 30.4479-67.0746 29.8543-67.0074C28.8352-66.873 28.7344-66.8394 28.264-66.4251C27.9056-66.1115 27.6144-65.6859 27.2448-64.9243C26.8977-64.2075 26.6737-63.8716 26.5505-63.8716C26.1585-63.8828 25.4305-64.3083 25.1169-64.7227C24.6913-65.2939 24.4225-65.5291 23.9522-65.7419C23.5826-65.9099 23.5602-65.8987 23.3138-65.6075C23.0674-65.3387 23.0562-65.2155 23.0562-63.8044C23.0562-61.6988 22.8882-61.374 21.6898-61.0269C20.7379-60.7581 20.4803-60.4893 20.4131-59.6717C20.3011-58.3838 20.4019-58.4734 19.1363-58.5182C18.1284-58.5517 18.0052-58.5293 17.7924-58.3166C17.5908-58.115 17.5796-58.0478 17.6804-57.8014C17.882-57.3646 17.5796-56.8942 16.8068-56.4462C16.4484-56.2334 15.8101-55.7183 15.3733-55.2927C14.9365-54.8671 14.3541-54.3183 14.0741-54.0719C13.6261-53.6687 13.5365-53.5231 13.3237-52.7168C13.1446-52.0448 13.111-51.7312 13.1894-51.5184C13.2453-51.3728 13.3349-50.8912 13.3797-50.4544L13.4469-49.6593L13.0774-49.4353C12.5958-49.1441 12.2262-49.1441 11.2966-49.4353C10.4567-49.7041 10.0311-49.6705 9.82947-49.3009C9.61668-48.8977 9.80707-48.3713 10.4678-47.6209C10.8038-47.229 11.319-46.557 11.6102-46.1314L12.1366-45.3698L12.1702-43.8579L12.215-42.3571L12.5062-42.2339C12.6742-42.1667 13.2341-42.0995 13.7605-42.0883C15.3173-42.0659 15.5749-41.8196 15.7093-40.218C15.7653-39.49 15.7541-39.4564 15.5189-39.4564C15.2165-39.4564 15.0597-39.5684 14.9589-39.826C14.9253-39.9268 14.8133-40.0164 14.7125-40.0164C14.4437-40.0164 13.5589-39.1429 13.1222-38.4485C12.8982-38.1125 12.5062-37.5973 12.2486-37.3173C11.599-36.6229 11.5654-36.455 11.9014-35.6038C12.3606-34.4614 12.3158-33.7895 11.6774-32.4791C11.0726-31.2135 11.0838-31.0791 11.9238-30.172L12.5174-29.5336L12.3046-29.0744C12.1926-28.828 11.8454-28.3352 11.543-27.9993C10.8486-27.2377 10.7254-26.7561 11.0054-26.0169C11.1174-25.7369 11.3302-25.0874 11.4758-24.561C11.6214-24.0346 12.0022-22.825 12.3046-21.8731C12.607-20.9211 12.9318-19.7452 13.0326-19.2748C13.1558-18.6812 13.3125-18.2892 13.5365-18.0092C13.7941-17.6844 13.8501-17.5276 13.7941-17.2476C13.7269-16.8781 13.3573-15.6909 13.0438-14.8397C12.8982-14.4701 12.887-14.2574 12.9766-13.9438C13.1222-13.395 13.3909-13.0254 13.6373-13.0254C13.8725-13.0254 14.1637-12.723 14.2309-12.4094C14.2645-12.2302 14.3541-12.1854 14.7125-12.1966C14.9589-12.2078 15.2725-12.2526 15.4069-12.2974C15.8101-12.4318 15.8661-11.9166 15.5077-11.3007C15.3509-11.0207 15.2165-10.7743 15.2165-10.7407C15.2165-10.7071 15.4069-10.5727 15.6309-10.4495C16.2244-10.1359 16.482-9.90072 16.986-9.18395C17.2212-8.83676 17.6692-8.35518 17.9716-8.11999C18.5988-7.61601 19.9315-6.41765 21.645-4.81611C22.5298-3.98734 22.9106-3.70735 23.2018-3.65135C23.5378-3.60655 23.6274-3.64015 23.7842-3.88654C23.9522-4.14413 23.9746-4.34573 23.9074-5.1185C23.8066-6.54085 23.493-7.41441 22.8994-7.96319C22.6306-8.20958 22.261-8.48957 22.0706-8.59037C21.6114-8.82556 21.2643-9.29594 21.2643-9.68793C21.2643-9.93432 21.3539-10.0575 21.6562-10.2479C22.1602-10.5391 22.3506-10.8975 22.5186-11.8719C22.6306-12.5774 22.6194-12.7902 22.2834-14.5933C21.813-17.1917 21.6562-19.0508 21.813-20.3947C21.8914-20.9883 22.205-22.3435 22.5634-23.5866C22.9106-24.7626 23.3586-26.4089 23.5714-27.2265C24.0866-29.2648 24.3441-29.724 25.4529-30.508C26.6513-31.3703 27.4016-31.8071 28.2304-32.1543C28.9136-32.4455 28.9808-32.4567 30.6719-32.4007C35.3309-32.2551 37.2685-32.4119 37.6605-32.9831C37.8957-33.3079 37.7949-33.9462 37.3805-34.775C36.9325-35.671 36.4733-36.0854 35.2526-36.6902C33.0014-37.8325 32.2063-37.8213 29.1376-36.6342C28.2864-36.3094 27.704-35.9846 26.8641-35.3686C26.2369-34.9094 25.4529-34.4054 25.1169-34.2486C23.8514-33.6551 23.8178-33.7671 23.773-38.0565C23.7282-42.4355 23.7058-42.6371 23.1906-43.1971C22.8882-43.5219 22.8546-43.5891 23.0562-43.4547C23.6386-43.059 24.0978-43.0403 24.4337-43.3987C25.0385-44.0259 26.6065-46.165 27.144-47.0722C27.3792-47.4754 27.6928-47.9905 27.8608-48.2369C28.1744-48.7073 30.8959-51.0256 31.9599-51.7312C33.9646-53.0528 36.0701-53.6127 39.0716-53.6239C40.6396-53.6239 40.718-53.6127 41.2219-53.3216C41.8379-52.952 42.4427-52.28 43.3499-50.9584C44.4362-49.3905 45.4554-48.5841 47.5161-47.6882C49.4088-46.8706 50.1928-46.6354 51.7496-46.4562C53.9671-46.1986 54.0791-46.2098 54.7174-46.7362C55.0086-46.9826 55.5574-47.4194 55.9158-47.6882C56.5654-48.1921 56.5766-48.1921 56.8678-48.0017C57.0246-47.8897 57.4277-47.6658 57.7525-47.4978C58.5701-47.061 59.4661-46.389 59.9477-45.8178C60.3956-45.3026 61.0228-44.0931 61.0228-43.7459C61.0228-43.3203 61.4148-43.0067 62.882-42.3012C64.2371-41.6516 64.4275-41.5284 64.8643-40.9684C65.3907-40.2964 66.0962-39.0309 66.7682-37.5749C67.6418-35.6374 67.877-33.5655 67.3506-32.4231C66.981-31.6279 66.9922-31.2584 67.4738-29.2984C67.8994-27.4841 68.3697-25.1322 68.8289-22.4331C69.0865-20.9435 69.1313-20.3611 69.1313-18.4012C69.1313-16.4525 69.0865-15.7693 68.8177-13.9214C68.3586-10.7743 68.4705-9.99032 69.5457-8.82556C69.7809-8.56797 69.9825-8.28798 69.9825-8.22079C69.9825-7.9072 69.5233-7.20163 69.3105-7.20163C69.0417-7.20163 68.5265-6.97763 68.5265-6.85444C68.5265-6.80964 68.6609-6.66405 68.8177-6.54085C69.1649-6.26086 69.8369-6.22727 70.1617-6.47366C70.4417-6.68645 70.8337-6.68645 71.4832-6.46246C72.6032-6.08167 74.2159-6.58565 75.2351-7.63842C75.9071-8.32159 76.1423-8.97117 76.1423-10.0799C76.1423-10.7743 76.1087-10.9311 75.8959-11.1439C75.7503-11.2895 75.5599-11.5471 75.4703-11.7375C75.3807-11.9167 74.9775-12.3198 74.5743-12.6222C74.1711-12.9246 73.8464-13.1934 73.8464-13.227C73.8464-13.2606 73.9695-13.3726 74.1263-13.4958C74.3055-13.6302 74.7423-13.7422 75.3583-13.8094C76.2991-13.9214 77.3182-14.2014 77.6206-14.4478C77.699-14.515 77.979-14.627 78.2478-14.6942C78.819-14.851 79.6141-15.7581 79.6141-16.2733C79.6141-16.4749 79.7037-16.6429 79.8717-16.7437C80.0061-16.8445 80.2189-17.1805 80.3309-17.5053C80.4541-17.8413 80.8125-18.4572 81.1373-18.894C81.5181-19.398 81.8989-20.1036 82.1789-20.8091L82.6156-21.9403L82.6492-24.225C82.6828-26.2185 82.7052-26.5657 82.8844-26.8233C83.1644-27.2265 83.142-27.4953 82.7612-28.1785C82.582-28.4921 82.3468-29.0408 82.246-29.3768C82.1564-29.7128 81.9549-30.2168 81.8093-30.4968C81.6077-30.9 81.4957-31.0008 81.2717-31.0008C81.1149-31.0008 80.8909-31.0792 80.7789-31.18C80.6557-31.2808 80.3981-31.4712 80.1853-31.5944L79.8045-31.8183L80.6109-32.2215C81.5069-32.6807 81.8541-33.1063 81.8541-33.7447C81.8541-34.2375 81.7421-34.4055 81.4621-34.3831C81.1149-34.3495 80.9357-35.0438 81.0925-35.8054C81.1821-36.2534 81.1821-36.6454 81.0813-37.2725C81.0141-37.7429 80.9581-38.5717 80.9581-39.1205C80.9581-39.6693 80.9021-40.2516 80.8349-40.4308C80.6781-40.8676 80.2077-41.3268 79.6141-41.6628C78.1246-42.4804 78.2142-42.3908 78.1806-42.9619C78.1358-43.5667 78.2254-43.6675 79.4237-44.5187C80.2301-45.0899 80.3869-45.3139 80.2077-45.605C80.0061-45.9298 79.4909-46.0866 78.2366-46.1986C77.4974-46.2546 76.803-46.3778 76.5342-46.501C75.4927-46.9602 74.8767-47.8338 74.8655-48.8081C74.8655-49.4689 74.9775-49.6593 75.7951-50.3313C76.6014-50.9809 76.8142-51.4176 76.8142-52.336C76.8142-53.4336 76.4559-54.7327 75.5935-56.7374C75.1679-57.7342 74.6191-59.1902 74.3615-59.9741C74.1151-60.7469 73.8463-61.5309 73.7567-61.7101C73.6-62.0013 71.7744-63.7596 70.9121-64.454C70.4305-64.8348 68.045-65.7755 67.5634-65.7755C67.0706-65.7755 66.3314-65.4283 65.7378-64.9131L65.2451-64.4876L65.3235-64.8795C65.3683-65.0923 65.4355-65.6187 65.469-66.0331C65.5138-66.6715 65.4914-66.8283 65.3235-67.0187C64.9875-67.3883 64.7299-67.4779 63.8339-67.5563L62.9827-67.6235L62.8595-68.0154C62.7588-68.3514 62.602-68.4746 61.7396-68.9338C59.2981-70.233 58.1221-70.3786 56.4086-69.617L55.759-69.3258L55.3446-69.6506C55.1094-69.8298 54.6502-70.1882 54.3255-70.4457C53.5639-71.0729 53.1495-71.0841 52.2535-70.5353L52.2535-70.5353ZM55.0982-36.4773C54.1911-36.1526 53.8439-35.9734 53.4631-35.6038C52.9255-35.0998 52.7239-34.4838 52.9367-34.0246C53.0599-33.7558 54.4263-32.6135 54.807-32.4679C55.3894-32.2551 56.6438-32.1879 57.1814-32.3447C58.3013-32.6807 59.4437-32.8599 60.922-32.9607C61.8516-33.0167 62.6132-33.1287 62.8707-33.2295L63.2963-33.4087L62.9939-33.6886C62.8371-33.8342 62.7028-34.0694 62.7028-34.2038C62.7028-34.6518 61.93-35.2342 60.6756-35.727C57.4949-36.9925 56.8566-37.0821 55.0982-36.4773ZM35.9917-31.5159C35.4429-31.4599 35.3197-31.4151 35.3309-31.2583C35.3309-31.1463 35.3421-30.9111 35.3533-30.7432C35.3645-30.564 35.5325-30.1944 35.7117-29.9144C35.9021-29.6344 36.0253-29.332 35.9917-29.2424C35.8573-28.9064 35.0958-28.6936 33.259-28.4696C30.6047-28.156 29.5968-27.9657 29.104-27.6745C26.5057-26.1177 26.5281-26.1401 26.5281-25.3673C26.5281-24.9082 26.5505-24.8746 27.0096-24.673C27.2672-24.561 27.872-24.3818 28.3536-24.281C29.3952-24.057 29.5296-24.113 29.3168-24.7178C29.1824-25.0874 29.1936-25.1322 29.44-25.4009C29.9999-25.9945 30.6495-25.5465 30.5263-24.6506C30.4703-24.2026 30.4927-24.1466 30.9967-23.6426C31.3439-23.2954 31.6351-23.105 31.8143-23.105C31.9823-23.105 32.1727-22.9818 32.3295-22.769L32.5758-22.4443L33.6734-22.5003C35.3421-22.5898 35.5101-22.6234 35.4653-22.9146C35.4429-23.0826 35.3309-23.1834 35.0958-23.2282C34.9166-23.273 34.8158-23.3066 34.8942-23.3178C34.9614-23.3178 35.2078-23.497 35.4205-23.7098C35.8125-24.0682 35.8237-24.113 35.8237-24.8634C35.8237-25.9385 35.9245-26.3417 36.2269-26.5433C36.6077-26.7897 36.8541-26.6553 37.3805-25.9273L37.8509-25.2777L38.6012-25.3673C39.5084-25.4905 39.7884-25.6585 39.9228-26.1513C40.0124-26.4649 40.102-26.5321 40.4716-26.6217C40.718-26.6665 40.9867-26.7337 41.0651-26.7561C41.2667-26.8121 41.2331-27.4169 40.9867-28.324C40.4828-30.116 39.8108-31.0455 38.8028-31.3367C38.0972-31.5383 36.8765-31.6167 35.9917-31.5159ZM53.6647-28.716C52.6455-28.4248 52.4327-28.2456 52.3319-27.6409C52.2199-26.8681 52.3431-26.3641 52.7575-25.9385C53.1943-25.4905 53.5303-25.4681 54.0567-25.8713C54.4151-26.1401 54.4599-26.1513 54.583-25.9721C54.6614-25.8713 54.751-25.5353 54.7958-25.233C54.9078-24.4266 55.1878-24.169 56.3078-23.833C57.8533-23.3738 58.2677-23.4634 59.4549-24.5162C59.9141-24.9306 60.5636-25.457 60.8884-25.7033C61.5716-26.2073 61.6164-26.4313 61.1236-26.8569C60.586-27.2937 60.0933-27.5177 58.5029-28.0105C55.4342-28.9736 54.863-29.052 53.6647-28.716ZM46.0826-9.49753C45.209-9.18394 44.4922-9.13914 44.1786-9.38553C43.865-9.62072 43.5514-9.59833 42.8683-9.27354C42.0395-8.89275 41.4459-8.82556 40.9307-9.03835C40.6955-9.13915 40.2812-9.21755 40.0124-9.21755C39.5756-9.21755 39.486-9.17275 39.2956-8.85916C39.1724-8.65757 39.0716-8.37758 39.0716-8.24318C39.0716-8.008 39.0156-7.98559 38.478-7.98559C37.9181-7.98559 37.8621-7.9632 37.3469-7.42562C36.8653-6.92163 36.8093-6.83204 36.8765-6.49605C36.9213-6.26086 36.8877-6.04806 36.7981-5.92487C36.6525-5.72328 36.6189-5.72328 36.1149-5.89127L35.5885-6.07047L34.5582-5.0401C33.987-4.46893 32.9342-3.30417 32.2063-2.453C31.0639-1.10904 30.8847-0.840255 30.9183-0.549065C30.9519-0.224278 30.9855-0.201875 31.4559-0.168278C32.0159-0.123479 33.0014-0.313869 33.5278-0.560266C33.7182-0.649864 34.0542-1.00825 34.3118-1.41143L34.7598-2.10581L35.7677-2.07221C36.5181-2.04981 36.9885-2.0946 37.6157-2.2626C38.1308-2.40819 38.8028-2.49779 39.374-2.49779L40.3036-2.49779L40.8299-3.04657C41.3003-3.51696 41.4571-3.60655 42.0395-3.70735C43.2939-3.95374 44.8282-4.06573 46.8665-4.06573L48.8937-4.06573L49.3864-3.69614C50.148-3.12497 50.3832-3.00177 51.1672-2.72178C51.8056-2.49779 52.1863-2.45299 54.3703-2.38579C56.655-2.3186 56.8678-2.2962 57.1814-2.07221C57.3605-1.94901 57.5845-1.75862 57.6629-1.65782C57.7413-1.55702 57.8981-1.43383 58.0101-1.36663C58.1781-1.27704 58.2453-1.32183 58.3909-1.59063C58.5141-1.83702 58.6485-1.93782 58.9061-1.96021C59.5557-2.02741 59.9477-2.87858 59.7909-3.88654C59.7237-4.31213 59.6005-4.52492 59.0517-5.1073C58.6933-5.48809 58.3349-5.90247 58.2677-6.02567C58.1557-6.21606 58.0997-6.22726 57.7189-6.11527C57.4837-6.03687 57.2374-6.01447 57.1814-6.04807C57.1254-6.08167 57.103-6.32806 57.1254-6.58565C57.1814-7.04483 57.159-7.10083 56.5878-7.69441C56.0278-8.28799 55.6358-8.46718 55.479-8.20959C55.3222-7.9632 55.1318-8.12 54.975-8.62398C54.863-8.98236 54.7062-9.21756 54.5047-9.32955C54.2247-9.48635 54.1351-9.47514 53.4967-9.23995C52.5671-8.91517 52.2199-8.92637 51.1672-9.34075L50.2824-9.68794L49.98-9.45275C49.5992-9.15036 49.42-9.16156 48.2665-9.49755C47.1129-9.83354 47.0457-9.83354 46.0826-9.49755L46.0826-9.49753Z"/>
  </g>
  <g id="Ultralight-S" transform="matrix(1 0 0 1 515.611 696)">
   <path class="monochrome-0 multicolor-0:black hierarchical-0:primary SFSymbolsPreviewWireframe" d="M49.2325-70.3736C48.8853-70.1608 48.3029-69.8024 47.9557-69.5896C47.6085-69.3768 47.239-69.1976 47.1382-69.1976C47.0374-69.1976 46.3542-69.3768 45.615-69.5896C44.7974-69.836 44.0471-69.9816 43.6663-69.9816C43.3303-69.9816 41.9303-69.9704 40.5752-69.9592L38.0889-69.9256L37.4505-69.4776C37.0921-69.2424 36.4425-68.8953 36.0058-68.7161C35.121-68.3577 34.8186-68.1449 34.8186-67.8425C34.8186-67.7305 34.7626-67.6073 34.6954-67.5737C34.6394-67.5289 34.4714-67.2377 34.3258-66.9241L34.0794-66.3529L33.6538-67.0473C33.1387-67.8985 32.8251-68.1561 32.1755-68.2569C31.5819-68.3465 31.3803-68.2121 31.5595-67.8761C31.7387-67.5513 31.2907-67.4057 29.7788-67.2937C29.0732-67.2377 28.3564-67.1481 28.1996-67.0921C28.0428-67.0249 27.4269-66.9129 26.8333-66.8457C25.8141-66.7113 25.7133-66.6777 25.2429-66.2634C24.8846-65.9498 24.5934-65.5242 24.2238-64.7626C23.8766-64.0458 23.6526-63.7098 23.5294-63.7098C23.1374-63.721 22.4095-64.1466 22.0959-64.561C21.6703-65.1322 21.4015-65.3674 20.9311-65.5802C20.5615-65.7482 20.5391-65.737 20.2927-65.4458C20.0463-65.177 20.0351-65.0538 20.0351-63.6426C20.0351-61.5371 19.8671-61.2123 18.6688-60.8651C17.7168-60.5964 17.4592-60.3276 17.392-59.51C17.28-58.222 17.3808-58.3116 16.1153-58.3564C15.1073-58.39 14.9841-58.3676 14.7713-58.1548C14.5697-57.9533 14.5585-57.8861 14.6593-57.6397C14.8609-57.2029 14.5585-56.7325 13.7858-56.2845C13.4274-56.0717 12.789-55.5565 12.3522-55.131C11.9154-54.7054 11.3331-54.1566 11.0531-53.9102C10.6051-53.507 10.5155-53.3614 10.3027-52.555C10.1235-51.8831 10.0899-51.5695 10.1683-51.3567C10.2243-51.2111 10.3139-50.7295 10.3587-50.2927L10.4259-49.4976L10.0563-49.2736C9.57472-48.9824 9.20513-48.9824 8.27556-49.2736C7.43559-49.5424 7.01001-49.5088 6.80842-49.1392C6.59562-48.736 6.78602-48.2096 7.44679-47.4592C7.78278-47.0672 8.29796-46.3953 8.58915-45.9697L9.11553-45.2081L9.14913-43.6962L9.19393-42.1954L9.48512-42.0722C9.65311-42.005 10.2131-41.9378 10.7395-41.9266C12.2962-41.9042 12.5538-41.6578 12.6882-40.0563C12.7442-39.3283 12.733-39.2947 12.4978-39.2947C12.1954-39.2947 12.0386-39.4067 11.9378-39.6643C11.9042-39.7651 11.7922-39.8547 11.6914-39.8547C11.4226-39.8547 10.5379-38.9811 10.1011-38.2868C9.8771-37.9508 9.48512-37.4356 9.22753-37.1556C8.57795-36.4612 8.54435-36.2932 8.88034-35.4421C9.33952-34.2997 9.29473-33.6277 8.65635-32.3174C8.05157-31.0518 8.06277-30.9174 8.90274-30.0103L9.49632-29.3719L9.28353-28.9127C9.17153-28.6663 8.82434-28.1735 8.52195-27.8375C7.82758-27.076 7.70438-26.5944 7.98437-25.8552C8.09637-25.5752 8.30916-24.9257 8.45476-24.3993C8.60035-23.8729 8.98114-22.6633 9.28353-21.7114C9.58591-20.7594 9.9107-19.5834 10.0115-19.1131C10.1347-18.5195 10.2915-18.1275 10.5155-17.8475C10.7731-17.5227 10.8291-17.3659 10.7731-17.0859C10.7059-16.7163 10.3363-15.5292 10.0227-14.678C9.8771-14.3084 9.8659-14.0956 9.9555-13.7821C10.1011-13.2333 10.3699-12.8637 10.6163-12.8637C10.8515-12.8637 11.1427-12.5613 11.2099-12.2477C11.2435-12.0685 11.3331-12.0237 11.6914-12.0349C11.9378-12.0461 12.2514-12.0909 12.3858-12.1357C12.789-12.2701 12.845-11.7549 12.4866-11.139C12.3298-10.859 12.1954-10.6126 12.1954-10.579C12.1954-10.5454 12.3858-10.411 12.6098-10.2878C13.2034-9.9742 13.461-9.739 13.965-9.02223C14.2001-8.67504 14.6481-8.19346 14.9505-7.95828C15.5777-7.45429 16.9104-6.25594 18.624-4.6544C19.5088-3.82563 19.8895-3.54564 20.1807-3.48964C20.5167-3.44484 20.6063-3.47844 20.7631-3.72483C20.9311-3.98242 20.9535-4.18401 20.8863-4.95678C20.7855-6.37913 20.4719-7.2527 19.8783-7.80148C19.6096-8.04787 19.24-8.32786 19.0496-8.42865C18.5904-8.66384 18.2432-9.13423 18.2432-9.52622C18.2432-9.77261 18.3328-9.8958 18.6352-10.0862C19.1392-10.3774 19.3296-10.7358 19.4976-11.7101C19.6096-12.4157 19.5984-12.6285 19.2624-14.4316C18.792-17.0299 18.6352-18.8891 18.792-20.233C18.8704-20.8266 19.184-22.1818 19.5424-23.4249C19.8895-24.6009 20.3375-26.2472 20.5503-27.0648C21.0655-29.1031 21.3231-29.5623 22.4318-30.3463C23.6302-31.2086 24.3806-31.6454 25.2093-31.9926C25.8925-32.2838 25.9597-32.295 27.6509-32.239C32.3099-32.0934 34.2474-32.2502 34.6394-32.8214C34.8746-33.1462 34.7738-33.7845 34.3594-34.6133C33.9114-35.5093 33.4523-35.9237 32.2315-36.5284C29.9804-37.6708 29.1852-37.6596 26.1165-36.4724C25.2653-36.1477 24.683-35.8229 23.843-35.2069C23.2158-34.7477 22.4318-34.2437 22.0959-34.0869C20.8303-33.4933 20.7967-33.6053 20.7519-37.8948C20.7071-42.2738 20.6847-42.4754 20.1695-43.0354C19.8671-43.3602 19.8335-43.4274 20.0351-43.293C20.6175-42.8973 21.0767-42.8786 21.4127-43.237C22.0175-43.8642 23.5854-46.0033 24.123-46.9105C24.3582-47.3136 24.6718-47.8288 24.8398-48.0752C25.1534-48.5456 27.8749-50.8639 28.9388-51.5695C30.9435-52.891 33.0491-53.451 36.0506-53.4622C37.6185-53.4622 37.6969-53.451 38.2009-53.1598C38.8169-52.7903 39.4216-52.1183 40.3288-50.7967C41.4152-49.2288 42.4343-48.4224 44.495-47.5264C46.3878-46.7089 47.1718-46.4737 48.7285-46.2945C50.946-46.0369 51.058-46.0481 51.6964-46.5745C51.9876-46.8209 52.5364-47.2577 52.8947-47.5264C53.5443-48.0304 53.5555-48.0304 53.8467-47.84C54.0035-47.728 54.4067-47.504 54.7315-47.336C55.5491-46.8993 56.445-46.2273 56.9266-45.6561C57.3746-45.1409 58.0018-43.9314 58.0018-43.5842C58.0018-43.1586 58.3937-42.845 59.8609-42.1394C61.216-41.4899 61.4064-41.3667 61.8432-40.8067C62.3696-40.1347 63.0752-38.8692 63.7472-37.4132C64.6207-35.4757 64.8559-33.4038 64.3295-32.2614C63.9599-31.4662 63.9711-31.0966 64.4527-29.1367C64.8783-27.3224 65.3487-24.9705 65.8079-22.2714C66.0655-20.7818 66.1103-20.1994 66.1103-18.2395C66.1103-16.2908 66.0655-15.6076 65.7967-13.7597C65.3375-10.6126 65.4495-9.82861 66.5247-8.66385C66.7598-8.40626 66.9614-8.12627 66.9614-8.05907C66.9614-7.74549 66.5022-7.03991 66.2895-7.03991C66.0207-7.03991 65.5055-6.81592 65.5055-6.69272C65.5055-6.64793 65.6399-6.50233 65.7967-6.37914C66.1439-6.09915 66.8158-6.06555 67.1406-6.31194C67.4206-6.52474 67.8126-6.52474 68.4622-6.30074C69.5821-5.91995 71.1949-6.42394 72.214-7.4767C72.886-8.15988 73.1212-8.80945 73.1212-9.91821C73.1212-10.6126 73.0876-10.7694 72.8748-10.9822C72.7292-11.1278 72.5388-11.3854 72.4492-11.5758C72.3596-11.7549 71.9565-12.1581 71.5533-12.4605C71.1501-12.7629 70.8253-13.0317 70.8253-13.0653C70.8253-13.0989 70.9485-13.2109 71.1053-13.3341C71.2845-13.4685 71.7213-13.5805 72.3372-13.6477C73.278-13.7597 74.2972-14.0397 74.5996-14.2861C74.6779-14.3533 74.9579-14.4653 75.2267-14.5324C75.7979-14.6892 76.5931-15.5964 76.5931-16.1116C76.5931-16.3132 76.6827-16.4812 76.8507-16.582C76.9851-16.6828 77.1979-17.0188 77.3099-17.3436C77.4331-17.6795 77.7914-18.2955 78.1162-18.7323C78.497-19.2363 78.8778-19.9419 79.1578-20.6474L79.5946-21.7786L79.6282-24.0633C79.6618-26.0568 79.6842-26.404 79.8634-26.6616C80.1434-27.0648 80.121-27.3336 79.7402-28.0168C79.561-28.3304 79.3258-28.8791 79.225-29.2151C79.1354-29.5511 78.9338-30.0551 78.7882-30.3351C78.5866-30.7383 78.4746-30.8391 78.2506-30.8391C78.0938-30.8391 77.8698-30.9175 77.7578-31.0183C77.6346-31.1191 77.3771-31.3094 77.1643-31.4326L76.7835-31.6566L77.5898-32.0598C78.4858-32.519 78.833-32.9446 78.833-33.583C78.833-34.0757 78.721-34.2437 78.441-34.2213C78.0938-34.1877 77.9146-34.8821 78.0714-35.6437C78.161-36.0917 78.161-36.4837 78.0602-37.1108C77.993-37.5812 77.937-38.41 77.937-38.9588C77.937-39.5075 77.881-40.0899 77.8138-40.2691C77.657-40.7059 77.1867-41.1651 76.5931-41.5011C75.1035-42.3186 75.1931-42.2291 75.1595-42.8002C75.1147-43.405 75.2043-43.5058 76.4027-44.357C77.2091-44.9282 77.3659-45.1521 77.1867-45.4433C76.9851-45.7681 76.4699-45.9249 75.2155-46.0369C74.4764-46.0929 73.782-46.2161 73.5132-46.3393C72.4716-46.7985 71.8557-47.6721 71.8444-48.6464C71.8444-49.3072 71.9564-49.4976 72.774-50.1696C73.5804-50.8191 73.7932-51.2559 73.7932-52.1743C73.7932-53.2719 73.4348-54.571 72.5724-56.5757C72.1468-57.5725 71.5981-59.0284 71.3405-59.8124C71.0941-60.5852 70.8253-61.3692 70.7357-61.5484C70.5789-61.8395 68.7534-63.5979 67.891-64.2923C67.4094-64.673 65.0239-65.6138 64.5423-65.6138C64.0495-65.6138 63.3104-65.2666 62.7168-64.7514L62.224-64.3259L62.3024-64.7178C62.3472-64.9306 62.4144-65.457 62.448-65.8714C62.4928-66.5098 62.4704-66.6666 62.3024-66.857C61.9664-67.2265 61.7088-67.3161 60.8129-67.3945L59.9617-67.4617L59.8385-67.8537C59.7377-68.1897 59.5809-68.3129 58.7185-68.7721C56.277-70.0712 55.1011-70.2168 53.3875-69.4553L52.7379-69.1641L52.3236-69.4889C52.0884-69.6681 51.6292-70.0264 51.3044-70.284C50.5428-70.9112 50.1284-70.9224 49.2325-70.3736L49.2325-70.3736ZM52.0772-36.3156C51.17-35.9908 50.8228-35.8117 50.442-35.4421C49.9045-34.9381 49.7029-34.3221 49.9157-33.8629C50.0388-33.5941 51.4052-32.4518 51.786-32.3062C52.3684-32.0934 53.6227-32.0262 54.1603-32.183C55.2803-32.519 56.4226-32.6982 57.901-32.799C58.8305-32.855 59.5921-32.967 59.8497-33.0678L60.2753-33.2469L59.9729-33.5269C59.8161-33.6725 59.6817-33.9077 59.6817-34.0421C59.6817-34.4901 58.9089-35.0725 57.6546-35.5653C54.4739-36.8308 53.8355-36.9204 52.0772-36.3156ZM32.9707-31.3542C32.4219-31.2982 32.2987-31.2534 32.3099-31.0966C32.3099-30.9846 32.3211-30.7494 32.3323-30.5814C32.3435-30.4022 32.5115-30.0327 32.6907-29.7527C32.8811-29.4727 33.0043-29.1703 32.9707-29.0807C32.8363-28.7447 32.0747-28.5319 30.238-28.3079C27.5837-27.9943 26.5757-27.8039 26.0829-27.5127C23.4846-25.956 23.507-25.9784 23.507-25.2056C23.507-24.7464 23.5294-24.7128 23.9886-24.5113C24.2462-24.3993 24.851-24.2201 25.3325-24.1193C26.3741-23.8953 26.5085-23.9513 26.2957-24.5561C26.1613-24.9256 26.1725-24.9704 26.4189-25.2392C26.9789-25.8328 27.6285-25.3848 27.5053-24.4889C27.4493-24.0409 27.4717-23.9849 27.9756-23.4809C28.3228-23.1337 28.614-22.9433 28.7932-22.9433C28.9612-22.9433 29.1516-22.8201 29.3084-22.6073L29.5548-22.2825L30.6524-22.3385C32.3211-22.4281 32.4891-22.4617 32.4443-22.7529C32.4219-22.9209 32.3099-23.0217 32.0747-23.0665C31.8955-23.1113 31.7947-23.1449 31.8731-23.1561C31.9403-23.1561 32.1867-23.3353 32.3995-23.5481C32.7915-23.9065 32.8027-23.9513 32.8027-24.7017C32.8027-25.7768 32.9035-26.18 33.2059-26.3816C33.5866-26.628 33.833-26.4936 34.3594-25.7656L34.8298-25.116L35.5802-25.2056C36.4873-25.3288 36.7673-25.4968 36.9017-25.9896C36.9913-26.3032 37.0809-26.3704 37.4505-26.46C37.6969-26.5048 37.9657-26.572 38.0441-26.5944C38.2457-26.6504 38.2121-27.2552 37.9657-28.1623C37.4617-29.9543 36.7897-30.8838 35.7818-31.175C35.0762-31.3766 33.8554-31.455 32.9707-31.3542ZM50.6436-28.5543C49.6245-28.2631 49.4117-28.0839 49.3109-27.4792C49.1989-26.7064 49.3221-26.2024 49.7365-25.7768C50.1732-25.3288 50.5092-25.3064 51.0356-25.7096C51.394-25.9784 51.4388-25.9896 51.562-25.8104C51.6404-25.7096 51.73-25.3736 51.7748-25.0712C51.8868-24.2649 52.1668-24.0073 53.2867-23.6713C54.8323-23.2121 55.2467-23.3017 56.4338-24.3545C56.893-24.7689 57.5426-25.2952 57.8674-25.5416C58.5505-26.0456 58.5953-26.2696 58.1026-26.6952C57.565-27.132 57.0722-27.356 55.4818-27.8487C52.4132-28.8119 51.842-28.8903 50.6436-28.5543ZM43.0615-9.33581C42.1879-9.02223 41.4712-8.97743 41.1576-9.22382C40.844-9.45901 40.5304-9.43661 39.8472-9.11183C39.0184-8.73104 38.4249-8.66384 37.9097-8.87664C37.6745-8.97744 37.2601-9.05583 36.9913-9.05583C36.5545-9.05583 36.4649-9.01103 36.2745-8.69745C36.1513-8.49586 36.0506-8.21587 36.0506-8.08147C36.0506-7.84628 35.9946-7.82388 35.457-7.82388C34.897-7.82388 34.841-7.80148 34.3258-7.2639C33.8442-6.75992 33.7882-6.67032 33.8554-6.33433C33.9002-6.09914 33.8666-5.88635 33.777-5.76315C33.6314-5.56156 33.5978-5.56156 33.0939-5.72956L32.5675-5.90875L31.5371-4.87839C30.9659-4.30721 29.9132-3.14245 29.1852-2.29128C28.0428-0.947328 27.8637-0.678541 27.8973-0.387351C27.9309-0.062564 27.9644-0.0401615 28.4348-0.00656385C28.9948 0.038235 29.9804-0.152156 30.5068-0.398553C30.6972-0.48815 31.0331-0.846535 31.2907-1.24972L31.7387-1.94409L32.7467-1.91049C33.497-1.8881 33.9674-1.93289 34.5946-2.10089C35.1098-2.24648 35.7818-2.33607 36.3529-2.33607L37.2825-2.33607L37.8089-2.88486C38.2793-3.35524 38.4361-3.44483 39.0184-3.54563C40.2728-3.79202 41.8071-3.90402 43.8455-3.90402L45.8726-3.90402L46.3654-3.53443C47.127-2.96325 47.3621-2.84006 48.1461-2.56007C48.7845-2.33607 49.1653-2.29128 51.3492-2.22408C53.6339-2.15689 53.8467-2.13448 54.1603-1.91049C54.3395-1.7873 54.5635-1.59691 54.6419-1.49611C54.7203-1.39531 54.8771-1.27212 54.9891-1.20492C55.1571-1.11532 55.2243-1.16012 55.3699-1.42891C55.4931-1.67531 55.6274-1.7761 55.885-1.7985C56.5346-1.8657 56.9266-2.71687 56.7698-3.72483C56.7026-4.15041 56.5794-4.36321 56.0306-4.94559C55.6722-5.32637 55.3139-5.74076 55.2467-5.86395C55.1347-6.05434 55.0787-6.06555 54.6979-5.95355C54.4627-5.87516 54.2163-5.85275 54.1603-5.88636C54.1043-5.91995 54.0819-6.16634 54.1043-6.42394C54.1603-6.88312 54.1379-6.93912 53.5667-7.5327C53.0067-8.12628 52.6148-8.30547 52.458-8.04788C52.3012-7.80149 52.1108-7.95828 51.954-8.46226C51.842-8.82065 51.6852-9.05584 51.4836-9.16784C51.2036-9.32463 51.114-9.31343 50.4756-9.07824C49.5461-8.75345 49.1989-8.76466 48.1461-9.17904L47.2614-9.52623L46.959-9.29104C46.5782-8.98865 46.399-8.99985 45.2454-9.33584C44.0919-9.67183 44.0247-9.67183 43.0615-9.33584L43.0615-9.33581Z"/>
  </g>
 </g>
</svg>
