<?xml version="1.0" encoding="UTF-8"?>
<!--Generator: Apple Native CoreSVG 341-->
<!DOCTYPE svg
PUBLIC "-//W3C//DTD SVG 1.1//EN"
       "http://www.w3.org/Graphics/SVG/1.1/DTD/svg11.dtd">
<svg version="1.1" xmlns="http://www.w3.org/2000/svg" xmlns:xlink="http://www.w3.org/1999/xlink" viewBox="0 0 3300 2200">
 <!--glyph: "", point size: 100.0, font version: "20.0d10e1", template writer version: "138.0.0"-->
 <style>.monochrome-0 {-sfsymbols-motion-group:6;-sfsymbols-layer-tags:-1041269673a22141}
.monochrome-1 {-sfsymbols-motion-group:5;-sfsymbols-layer-tags:-1041269673a22141}
.monochrome-2 {opacity:0.0;-sfsymbols-clear-behind:true;-sfsymbols-motion-group:4;-sfsymbols-layer-tags:-1041269673a22141}
.monochrome-3 {opacity:0.0;-sfsymbols-clear-behind:true;-sfsymbols-motion-group:3;-sfsymbols-layer-tags:-1041269673a22141}
.monochrome-4 {opacity:0.0;-sfsymbols-clear-behind:true;-sfsymbols-motion-group:2;-sfsymbols-layer-tags:-1041269673a22141}
.monochrome-5 {opacity:0.0;-sfsymbols-clear-behind:true;-sfsymbols-motion-group:1;-sfsymbols-layer-tags:-1041269673a22141}
.monochrome-6 {-sfsymbols-motion-group:0;-sfsymbols-layer-tags:-1041269673a22141}

.multicolor-0:custom {fill:#EBEBEB;-sfsymbols-motion-group:6;-sfsymbols-layer-tags:-1041269673a22141}
.multicolor-1:systemYellowColor {-sfsymbols-motion-group:5;-sfsymbols-layer-tags:-1041269673a22141}
.multicolor-2:tintColor {opacity:0.0;-sfsymbols-clear-behind:true;-sfsymbols-motion-group:4;-sfsymbols-layer-tags:-1041269673a22141}
.multicolor-3:systemGrayColor {-sfsymbols-motion-group:3;-sfsymbols-layer-tags:-1041269673a22141}
.multicolor-4:systemPinkColor {-sfsymbols-motion-group:2;-sfsymbols-layer-tags:-1041269673a22141}
.multicolor-5:tintColor {opacity:0.0;-sfsymbols-clear-behind:true;-sfsymbols-motion-group:1;-sfsymbols-layer-tags:-1041269673a22141}
.multicolor-6:white {opacity:0.8;-sfsymbols-motion-group:0;-sfsymbols-layer-tags:-1041269673a22141}

.hierarchical-0:tertiary {-sfsymbols-motion-group:6;-sfsymbols-layer-tags:-1041269673a22141}
.hierarchical-1:primary {-sfsymbols-motion-group:5;-sfsymbols-layer-tags:-1041269673a22141}
.hierarchical-2:primary {opacity:0.0;-sfsymbols-clear-behind:true;-sfsymbols-motion-group:4;-sfsymbols-layer-tags:-1041269673a22141}
.hierarchical-3:secondary {-sfsymbols-motion-group:3;-sfsymbols-layer-tags:-1041269673a22141}
.hierarchical-4:primary {-sfsymbols-motion-group:2;-sfsymbols-layer-tags:-1041269673a22141}
.hierarchical-5:primary {opacity:0.0;-sfsymbols-clear-behind:true;-sfsymbols-motion-group:1;-sfsymbols-layer-tags:-1041269673a22141}
.hierarchical-6:primary {-sfsymbols-motion-group:0;-sfsymbols-layer-tags:-1041269673a22141}

.SFSymbolsPreviewWireframe {fill:none;opacity:1.0;stroke:black;stroke-width:0.5}
</style>
 <g id="Notes">
  <rect height="2200" id="artboard" style="fill:white;opacity:1" width="3300" x="0" y="0"/>
  <line style="fill:none;stroke:black;opacity:1;stroke-width:0.5;" x1="263" x2="3036" y1="292" y2="292"/>
  <text style="stroke:none;fill:black;font-family:sans-serif;font-size:13;font-weight:bold;" transform="matrix(1 0 0 1 263 322)">Weight/Scale Variations</text>
  <text style="stroke:none;fill:black;font-family:sans-serif;font-size:13;text-anchor:middle;" transform="matrix(1 0 0 1 559.711 322)">Ultralight</text>
  <text style="stroke:none;fill:black;font-family:sans-serif;font-size:13;text-anchor:middle;" transform="matrix(1 0 0 1 856.422 322)">Thin</text>
  <text style="stroke:none;fill:black;font-family:sans-serif;font-size:13;text-anchor:middle;" transform="matrix(1 0 0 1 1153.13 322)">Light</text>
  <text style="stroke:none;fill:black;font-family:sans-serif;font-size:13;text-anchor:middle;" transform="matrix(1 0 0 1 1449.84 322)">Regular</text>
  <text style="stroke:none;fill:black;font-family:sans-serif;font-size:13;text-anchor:middle;" transform="matrix(1 0 0 1 1746.56 322)">Medium</text>
  <text style="stroke:none;fill:black;font-family:sans-serif;font-size:13;text-anchor:middle;" transform="matrix(1 0 0 1 2043.27 322)">Semibold</text>
  <text style="stroke:none;fill:black;font-family:sans-serif;font-size:13;text-anchor:middle;" transform="matrix(1 0 0 1 2339.98 322)">Bold</text>
  <text style="stroke:none;fill:black;font-family:sans-serif;font-size:13;text-anchor:middle;" transform="matrix(1 0 0 1 2636.69 322)">Heavy</text>
  <text style="stroke:none;fill:black;font-family:sans-serif;font-size:13;text-anchor:middle;" transform="matrix(1 0 0 1 2933.4 322)">Black</text>
  <line style="fill:none;stroke:black;opacity:1;stroke-width:0.5;" x1="263" x2="3036" y1="1903" y2="1903"/>
  <g transform="matrix(0.2 0 0 0.2 263 1933)">
   <path d="m46.2402 4.15039c21.7773 0 39.4531-17.627 39.4531-39.4043s-17.6758-39.4043-39.4531-39.4043c-21.7285 0-39.4043 17.627-39.4043 39.4043s17.6758 39.4043 39.4043 39.4043Zm0-7.42188c-17.6758 0-31.9336-14.3066-31.9336-31.9824s14.2578-31.9824 31.9336-31.9824 31.9824 14.3066 31.9824 31.9824-14.3066 31.9824-31.9824 31.9824Zm-17.9688-31.9824c0 2.14844 1.51367 3.61328 3.75977 3.61328h10.498v10.5957c0 2.19727 1.46484 3.71094 3.61328 3.71094 2.24609 0 3.71094-1.51367 3.71094-3.71094v-10.5957h10.5957c2.19727 0 3.71094-1.46484 3.71094-3.61328 0-2.19727-1.51367-3.71094-3.71094-3.71094h-10.5957v-10.5469c0-2.24609-1.46484-3.75977-3.71094-3.75977-2.14844 0-3.61328 1.51367-3.61328 3.75977v10.5469h-10.498c-2.24609 0-3.75977 1.51367-3.75977 3.71094Z"/>
  </g>
  <g transform="matrix(0.2 0 0 0.2 281.506 1933)">
   <path d="m58.5449 14.5508c27.4902 0 49.8047-22.3145 49.8047-49.8047s-22.3145-49.8047-49.8047-49.8047-49.8047 22.3145-49.8047 49.8047 22.3145 49.8047 49.8047 49.8047Zm0-8.30078c-22.9492 0-41.5039-18.5547-41.5039-41.5039s18.5547-41.5039 41.5039-41.5039 41.5039 18.5547 41.5039 41.5039-18.5547 41.5039-41.5039 41.5039Zm-22.6562-41.5039c0 2.39258 1.66016 4.00391 4.15039 4.00391h14.3555v14.4043c0 2.44141 1.66016 4.15039 4.05273 4.15039 2.44141 0 4.15039-1.66016 4.15039-4.15039v-14.4043h14.4043c2.44141 0 4.15039-1.61133 4.15039-4.00391 0-2.44141-1.70898-4.15039-4.15039-4.15039h-14.4043v-14.3555c0-2.49023-1.70898-4.19922-4.15039-4.19922-2.39258 0-4.05273 1.70898-4.05273 4.19922v14.3555h-14.3555c-2.49023 0-4.15039 1.70898-4.15039 4.15039Z"/>
  </g>
  <g transform="matrix(0.2 0 0 0.2 304.924 1933)">
   <path d="m74.8535 28.3203c35.1074 0 63.623-28.4668 63.623-63.5742s-28.5156-63.623-63.623-63.623-63.5742 28.5156-63.5742 63.623 28.4668 63.5742 63.5742 63.5742Zm0-9.08203c-30.127 0-54.4922-24.3652-54.4922-54.4922s24.3652-54.4922 54.4922-54.4922 54.4922 24.3652 54.4922 54.4922-24.3652 54.4922-54.4922 54.4922Zm-28.8574-54.4922c0 2.58789 1.85547 4.39453 4.58984 4.39453h19.7266v19.7754c0 2.68555 1.85547 4.58984 4.44336 4.58984 2.68555 0 4.54102-1.85547 4.54102-4.58984v-19.7754h19.7754c2.68555 0 4.58984-1.80664 4.58984-4.39453 0-2.73438-1.85547-4.58984-4.58984-4.58984h-19.7754v-19.7266c0-2.73438-1.85547-4.63867-4.54102-4.63867-2.58789 0-4.44336 1.9043-4.44336 4.63867v19.7266h-19.7266c-2.73438 0-4.58984 1.85547-4.58984 4.58984Z"/>
  </g>
  <text style="stroke:none;fill:black;font-family:sans-serif;font-size:13;font-weight:bold;" transform="matrix(1 0 0 1 263 1953)">Design Variations</text>
  <text style="stroke:none;fill:black;font-family:sans-serif;font-size:13;" transform="matrix(1 0 0 1 263 1971)">Symbols are supported in up to nine weights and three scales.</text>
  <text style="stroke:none;fill:black;font-family:sans-serif;font-size:13;" transform="matrix(1 0 0 1 263 1989)">For optimal layout with text and other symbols, vertically align</text>
  <text style="stroke:none;fill:black;font-family:sans-serif;font-size:13;" transform="matrix(1 0 0 1 263 2007)">symbols with the adjacent text.</text>
  <line style="fill:none;stroke:#00AEEF;stroke-width:0.5;opacity:1.0;" x1="776" x2="776" y1="1919" y2="1933"/>
  <g transform="matrix(0.2 0 0 0.2 776 1933)">
   <path d="m16.5527 0.78125c2.58789 0 3.85742-0.976562 4.78516-3.71094l6.29883-17.2363h28.8086l6.29883 17.2363c0.927734 2.73438 2.19727 3.71094 4.73633 3.71094 2.58789 0 4.24805-1.5625 4.24805-4.00391 0-0.830078-0.146484-1.61133-0.537109-2.63672l-22.9004-60.9863c-1.12305-2.97852-3.125-4.49219-6.25-4.49219-3.02734 0-5.07812 1.46484-6.15234 4.44336l-22.9004 61.084c-0.390625 1.02539-0.537109 1.80664-0.537109 2.63672 0 2.44141 1.5625 3.95508 4.10156 3.95508Zm13.4766-28.3691 11.8652-32.8613h0.244141l11.8652 32.8613Z"/>
  </g>
  <line style="fill:none;stroke:#00AEEF;stroke-width:0.5;opacity:1.0;" x1="792.836" x2="792.836" y1="1919" y2="1933"/>
  <text style="stroke:none;fill:black;font-family:sans-serif;font-size:13;font-weight:bold;" transform="matrix(1 0 0 1 776 1953)">Margins</text>
  <text style="stroke:none;fill:black;font-family:sans-serif;font-size:13;" transform="matrix(1 0 0 1 776 1971)">Leading and trailing margins on the left and right side of each symbol</text>
  <text style="stroke:none;fill:black;font-family:sans-serif;font-size:13;" transform="matrix(1 0 0 1 776 1989)">can be adjusted by modifying the x-location of the margin guidelines.</text>
  <text style="stroke:none;fill:black;font-family:sans-serif;font-size:13;" transform="matrix(1 0 0 1 776 2007)">Modifications are automatically applied proportionally to all</text>
  <text style="stroke:none;fill:black;font-family:sans-serif;font-size:13;" transform="matrix(1 0 0 1 776 2025)">scales and weights.</text>
  <g transform="matrix(0.2 0 0 0.2 1289 1933)">
   <path d="m14.209 9.32617 8.49609 8.54492c4.29688 4.3457 9.22852 4.05273 13.8672-1.07422l53.4668-58.9355-4.83398-4.88281-53.0762 58.3984c-1.75781 2.00195-3.41797 2.49023-5.76172 0.146484l-5.85938-5.81055c-2.34375-2.29492-1.80664-4.00391 0.195312-5.81055l57.373-54.0039-4.88281-4.83398-57.959 54.4434c-4.93164 4.58984-5.32227 9.47266-1.02539 13.8184Zm32.0801-90.9668c-2.09961 2.05078-2.24609 4.93164-1.07422 6.88477 1.17188 1.80664 3.4668 2.97852 6.68945 2.14844 7.32422-1.70898 14.9414-2.00195 22.0703 2.68555l-2.92969 7.27539c-1.70898 4.15039-0.830078 7.08008 1.85547 9.81445l11.4746 11.5723c2.44141 2.44141 4.49219 2.53906 7.32422 2.05078l5.32227-0.976562 3.32031 3.36914-0.195312 2.7832c-0.195312 2.49023 0.439453 4.39453 2.88086 6.78711l3.80859 3.71094c2.39258 2.39258 5.46875 2.53906 7.8125 0.195312l14.5508-14.5996c2.34375-2.34375 2.24609-5.32227-0.146484-7.71484l-3.85742-3.80859c-2.39258-2.39258-4.24805-3.17383-6.64062-2.97852l-2.88086 0.244141-3.22266-3.17383 1.2207-5.61523c0.634766-2.83203-0.146484-5.0293-3.07617-7.95898l-10.9863-10.9375c-16.6992-16.6016-38.8672-16.2109-53.3203-1.75781Zm7.4707 1.85547c12.1582-8.88672 28.6133-7.37305 39.7461 3.75977l12.1582 12.0605c1.17188 1.17188 1.36719 2.09961 1.02539 3.80859l-1.61133 7.42188 7.51953 7.42188 4.93164-0.292969c1.26953-0.0488281 1.66016 0.0488281 2.63672 1.02539l2.88086 2.88086-12.207 12.207-2.88086-2.88086c-0.976562-0.976562-1.12305-1.36719-1.07422-2.68555l0.341797-4.88281-7.4707-7.42188-7.61719 1.26953c-1.61133 0.341797-2.34375 0.195312-3.56445-0.976562l-10.0098-10.0098c-1.26953-1.17188-1.41602-2.00195-0.634766-3.85742l4.39453-10.4492c-7.8125-7.27539-17.9688-10.4004-28.125-7.42188-0.78125 0.195312-1.07422-0.439453-0.439453-0.976562Z"/>
  </g>
  <text style="stroke:none;fill:black;font-family:sans-serif;font-size:13;font-weight:bold;" transform="matrix(1 0 0 1 1289 1953)">Exporting</text>
  <text style="stroke:none;fill:black;font-family:sans-serif;font-size:13;" transform="matrix(1 0 0 1 1289 1971)">Symbols should be outlined when exporting to ensure the</text>
  <text style="stroke:none;fill:black;font-family:sans-serif;font-size:13;" transform="matrix(1 0 0 1 1289 1989)">design is preserved when submitting to Xcode.</text>
  <text id="template-version" style="stroke:none;fill:black;font-family:sans-serif;font-size:13;text-anchor:end;" transform="matrix(1 0 0 1 3036 1933)">Template v.6.0</text>
  <text style="stroke:none;fill:black;font-family:sans-serif;font-size:13;text-anchor:end;" transform="matrix(1 0 0 1 3036 1951)">Requires Xcode 16 or greater</text>
  <text id="descriptive-name" style="stroke:none;fill:black;font-family:sans-serif;font-size:13;text-anchor:end;" transform="matrix(1 0 0 1 3036 1969)">Generated from pencil.and.heart.list.clipboard</text>
  <text style="stroke:none;fill:black;font-family:sans-serif;font-size:13;text-anchor:end;" transform="matrix(1 0 0 1 3036 1987)">Typeset at 100.0 points</text>
  <text style="stroke:none;fill:black;font-family:sans-serif;font-size:13;" transform="matrix(1 0 0 1 263 726)">Small</text>
  <text style="stroke:none;fill:black;font-family:sans-serif;font-size:13;" transform="matrix(1 0 0 1 263 1156)">Medium</text>
  <text style="stroke:none;fill:black;font-family:sans-serif;font-size:13;" transform="matrix(1 0 0 1 263 1586)">Large</text>
 </g>
 <g id="Guides">
  <g id="H-reference" style="fill:#27AAE1;stroke:none;" transform="matrix(1 0 0 1 339 696)">
   <path d="M0.993654 0L3.63775 0L29.3281-67.1323L30.0303-67.1323L30.0303-70.459L28.1226-70.459ZM11.6885-24.4799L46.9815-24.4799L46.2315-26.7285L12.4385-26.7285ZM55.1196 0L57.7637 0L30.6382-70.459L29.4326-70.459L29.4326-67.1323Z"/>
  </g>
  <line id="Baseline-S" style="fill:none;stroke:#27AAE1;opacity:1;stroke-width:0.5;" x1="263" x2="3036" y1="696" y2="696"/>
  <line id="Capline-S" style="fill:none;stroke:#27AAE1;opacity:1;stroke-width:0.5;" x1="263" x2="3036" y1="625.541" y2="625.541"/>
  <g id="H-reference" style="fill:#27AAE1;stroke:none;" transform="matrix(1 0 0 1 339 1126)">
   <path d="M0.993654 0L3.63775 0L29.3281-67.1323L30.0303-67.1323L30.0303-70.459L28.1226-70.459ZM11.6885-24.4799L46.9815-24.4799L46.2315-26.7285L12.4385-26.7285ZM55.1196 0L57.7637 0L30.6382-70.459L29.4326-70.459L29.4326-67.1323Z"/>
  </g>
  <line id="Baseline-M" style="fill:none;stroke:#27AAE1;opacity:1;stroke-width:0.5;" x1="263" x2="3036" y1="1126" y2="1126"/>
  <line id="Capline-M" style="fill:none;stroke:#27AAE1;opacity:1;stroke-width:0.5;" x1="263" x2="3036" y1="1055.54" y2="1055.54"/>
  <g id="H-reference" style="fill:#27AAE1;stroke:none;" transform="matrix(1 0 0 1 339 1556)">
   <path d="M0.993654 0L3.63775 0L29.3281-67.1323L30.0303-67.1323L30.0303-70.459L28.1226-70.459ZM11.6885-24.4799L46.9815-24.4799L46.2315-26.7285L12.4385-26.7285ZM55.1196 0L57.7637 0L30.6382-70.459L29.4326-70.459L29.4326-67.1323Z"/>
  </g>
  <line id="Baseline-L" style="fill:none;stroke:#27AAE1;opacity:1;stroke-width:0.5;" x1="263" x2="3036" y1="1556" y2="1556"/>
  <line id="Capline-L" style="fill:none;stroke:#27AAE1;opacity:1;stroke-width:0.5;" x1="263" x2="3036" y1="1485.54" y2="1485.54"/>
  <line id="right-margin-Black-S" style="fill:none;stroke:#00AEEF;stroke-width:0.5;opacity:1.0;" x1="2978.7" x2="2978.7" y1="600.785" y2="720.121"/>
  <line id="left-margin-Black-S" style="fill:none;stroke:#00AEEF;stroke-width:0.5;opacity:1.0;" x1="2888.1" x2="2888.1" y1="600.785" y2="720.121"/>
  <line id="right-margin-Regular-S" style="fill:none;stroke:#00AEEF;stroke-width:0.5;opacity:1.0;" x1="1492.09" x2="1492.09" y1="600.785" y2="720.121"/>
  <line id="left-margin-Regular-S" style="fill:none;stroke:#00AEEF;stroke-width:0.5;opacity:1.0;" x1="1407.59" x2="1407.59" y1="600.785" y2="720.121"/>
  <line id="right-margin-Ultralight-S" style="fill:none;stroke:#00AEEF;stroke-width:0.5;opacity:1.0;" x1="600.111" x2="600.111" y1="600.785" y2="720.121"/>
  <line id="left-margin-Ultralight-S" style="fill:none;stroke:#00AEEF;stroke-width:0.5;opacity:1.0;" x1="519.311" x2="519.311" y1="600.785" y2="720.121"/>
 </g>
 <g id="Symbols">
  <g id="Black-S" transform="matrix(1 0 0 1 2888.1 696)">
   <path class="monochrome-0 multicolor-0:custom hierarchical-0:tertiary SFSymbolsPreviewWireframe" d="M19.5 9.1L60 9.1C68.2 9.1 72.3 5 72.3-3.4L72.3-60.9C72.3-69.2 68.2-73.4 60.5-73.4L60.3-73.4L60.3-68.2C60.3-63 56.8-59.3 51.7-59.3L27.9-59.3C22.8-59.3 19.4-63 19.4-68.2L19.4-73.4L19.2-73.4C11.4-73.4 7.4-69.2 7.4-60.9L7.4-3.4C7.4 4.9 11.5 9.1 19.7 9.1L19.5 9.1Z"/>
   <path class="monochrome-1 multicolor-1:systemYellowColor hierarchical-1:primary SFSymbolsPreviewWireframe" d="M27.8-63.9L51.6-63.9C54-63.9 55.5-65.4 55.5-68L55.5-72.1C55.5-74.7 54-76.2 51.6-76.2L48.4-76.2C48.1-80.7 44.3-84.3 39.7-84.3C35.1-84.3 31.3-80.7 31-76.2L27.8-76.2C25.4-76.2 24-74.7 24-72.1L24-68C24-65.4 25.4-63.9 27.8-63.9L27.8-63.9Z"/>
   <path class="monochrome-2 multicolor-2:tintColor hierarchical-2:primary SFSymbolsPreviewWireframe" d="M39.7-72.6C37.9-72.6 36.4-74.1 36.4-75.9C36.4-77.7 37.9-79.2 39.7-79.2C41.5-79.2 43-77.7 43-75.9C43-74.1 41.5-72.6 39.7-72.6Z"/>
   <path class="monochrome-3 multicolor-3:systemGrayColor hierarchical-3:secondary SFSymbolsPreviewWireframe" d="M22.5-18.8C20.9-18.8 19.7-20 19.7-21.6C19.7-23.2 20.9-24.3 22.5-24.3L57-24.3C58.6-24.3 59.8-23.1 59.8-21.6C59.8-20.1 58.6-18.8 57-18.8L22.5-18.8ZM22.5-4.1C21-4.1 19.7-5.4 19.7-6.9C19.7-8.4 20.9-9.7 22.5-9.7L42.2-9.7C43.8-9.7 45-8.5 45-6.9C45-5.3 43.7-4.1 42.2-4.1L22.5-4.1Z"/>
   <path class="monochrome-4 multicolor-4:systemPinkColor hierarchical-4:primary SFSymbolsPreviewWireframe" d="M30.2-30.7C30-30.7 29.5-30.9 29.1-31.2C25.1-34.1 19.8-38.4 19.8-43.4C19.8-48.4 22.2-49.5 25.5-49.5C28.8-49.5 29.2-48.3 30.2-46.4C31.2-48.3 32.8-49.5 34.8-49.5C38.2-49.5 40.6-47 40.6-43.4C40.6-39.8 35.4-33.8 31.3-31.2C30.9-31 30.6-30.7 30.3-30.7L30.3-30.7Z"/>
   <path class="monochrome-5 multicolor-5:tintColor hierarchical-5:primary SFSymbolsPreviewWireframe" d="M40.6-8.7L79.8-47.9C83.4-51.6 83.4-57.2 79.8-60.7L78.7-61.8C75.1-65.4 69.5-65 66.1-61.6L27-22.5L23.9-14.2C21.8-8.2 26-2.4 33.6-5.7L40.7-8.7L40.7-8.7Z"/>
   <path class="monochrome-6 multicolor-6:white hierarchical-6:primary SFSymbolsPreviewWireframe" d="M72.7-48.9L75.6-51.9C77-53.3 77-55.4 75.6-56.7L74.5-57.8C73.2-59 71.2-58.9 69.9-57.6L66.9-54.7L72.6-48.9L72.6-48.9ZM29.3-10.1L37.4-13.6L69.8-45.9L64-51.6L31.6-19.3L27.9-11.5C27.6-10.8 28.4-9.8 29.2-10.1L29.2-10.1Z"/>
  </g>
  <g id="Regular-S" transform="matrix(1 0 0 1 1407.59 696)">
   <path class="monochrome-0 multicolor-0:custom hierarchical-0:tertiary SFSymbolsPreviewWireframe" d="M18 9.1L58.5 9.1C66.7 9.1 70.8 5 70.8-3.4L70.8-60.9C70.8-69.2 66.7-73.4 59-73.4L58.8-73.4L58.8-68.2C58.8-63 55.3-59.3 50.2-59.3L26.4-59.3C21.3-59.3 17.9-63 17.9-68.2L17.9-73.4L17.7-73.4C9.9-73.4 5.9-69.2 5.9-60.9L5.9-3.4C5.9 4.9 10 9.1 18.2 9.1L18 9.1Z"/>
   <path class="monochrome-1 multicolor-1:systemYellowColor hierarchical-1:primary SFSymbolsPreviewWireframe" d="M26.3-63.9L50.1-63.9C52.5-63.9 54-65.4 54-68L54-72.1C54-74.7 52.5-76.2 50.1-76.2L46.9-76.2C46.6-80.7 42.8-84.3 38.2-84.3C33.6-84.3 29.8-80.7 29.5-76.2L26.3-76.2C23.9-76.2 22.5-74.7 22.5-72.1L22.5-68C22.5-65.4 23.9-63.9 26.3-63.9L26.3-63.9Z"/>
   <path class="monochrome-2 multicolor-2:tintColor hierarchical-2:primary SFSymbolsPreviewWireframe" d="M38.2-72.6C36.4-72.6 34.9-74.1 34.9-75.9C34.9-77.7 36.4-79.2 38.2-79.2C40-79.2 41.5-77.7 41.5-75.9C41.5-74.1 40-72.6 38.2-72.6Z"/>
   <path class="monochrome-3 multicolor-3:systemGrayColor hierarchical-3:secondary SFSymbolsPreviewWireframe" d="M21-18.8C19.4-18.8 18.2-20 18.2-21.6C18.2-23.2 19.4-24.3 21-24.3L55.5-24.3C57.1-24.3 58.3-23.1 58.3-21.6C58.3-20.1 57.1-18.8 55.5-18.8L21-18.8ZM21-4.1C19.5-4.1 18.2-5.4 18.2-6.9C18.2-8.4 19.4-9.7 21-9.7L40.7-9.7C42.3-9.7 43.5-8.5 43.5-6.9C43.5-5.3 42.2-4.1 40.7-4.1L21-4.1Z"/>
   <path class="monochrome-4 multicolor-4:systemPinkColor hierarchical-4:primary SFSymbolsPreviewWireframe" d="M28.7-30.7C28.5-30.7 28-30.9 27.6-31.2C23.6-34.1 18.3-38.4 18.3-43.4C18.3-48.4 20.7-49.5 24-49.5C27.3-49.5 27.7-48.3 28.7-46.4C29.7-48.3 31.3-49.5 33.3-49.5C36.7-49.5 39.1-47 39.1-43.4C39.1-39.8 33.9-33.8 29.8-31.2C29.4-31 29.1-30.7 28.8-30.7L28.8-30.7Z"/>
   <path class="monochrome-5 multicolor-5:tintColor hierarchical-5:primary SFSymbolsPreviewWireframe" d="M39.1-8.7L78.3-47.9C81.9-51.6 81.9-57.2 78.3-60.7L77.2-61.8C73.6-65.4 68-65 64.6-61.6L25.5-22.5L22.4-14.2C20.3-8.2 24.5-2.4 32.1-5.7L39.2-8.7L39.2-8.7Z"/>
   <path class="monochrome-6 multicolor-6:white hierarchical-6:primary SFSymbolsPreviewWireframe" d="M71.2-48.9L74.1-51.9C75.5-53.3 75.5-55.4 74.1-56.7L73-57.8C71.7-59 69.7-58.9 68.4-57.6L65.4-54.7L71.1-48.9L71.1-48.9ZM27.8-10.1L35.9-13.6L68.3-45.9L62.5-51.6L30.1-19.3L26.4-11.5C26.1-10.8 26.9-9.8 27.7-10.1L27.7-10.1Z"/>
  </g>
  <g id="Ultralight-S" transform="matrix(1 0 0 1 519.311 696)">
   <path class="monochrome-0 multicolor-0:custom hierarchical-0:tertiary SFSymbolsPreviewWireframe" d="M15.3 9.1L55.8 9.1C64 9.1 68.1 5 68.1-3.4L68.1-60.9C68.1-69.2 64-73.4 56.3-73.4L56.1-73.4L56.1-68.2C56.1-63 52.6-59.3 47.5-59.3L23.7-59.3C18.6-59.3 15.2-63 15.2-68.2L15.2-73.4L15-73.4C7.2-73.4 3.2-69.2 3.2-60.9L3.2-3.4C3.2 4.9 7.3 9.1 15.5 9.1L15.3 9.1Z"/>
   <path class="monochrome-1 multicolor-1:systemYellowColor hierarchical-1:primary SFSymbolsPreviewWireframe" d="M23.6-63.9L47.4-63.9C49.8-63.9 51.3-65.4 51.3-68L51.3-72.1C51.3-74.7 49.8-76.2 47.4-76.2L44.2-76.2C43.9-80.7 40.1-84.3 35.5-84.3C30.9-84.3 27.1-80.7 26.8-76.2L23.6-76.2C21.2-76.2 19.8-74.7 19.8-72.1L19.8-68C19.8-65.4 21.2-63.9 23.6-63.9L23.6-63.9Z"/>
   <path class="monochrome-2 multicolor-2:tintColor hierarchical-2:primary SFSymbolsPreviewWireframe" d="M35.5-72.6C33.7-72.6 32.2-74.1 32.2-75.9C32.2-77.7 33.7-79.2 35.5-79.2C37.3-79.2 38.8-77.7 38.8-75.9C38.8-74.1 37.3-72.6 35.5-72.6Z"/>
   <path class="monochrome-3 multicolor-3:systemGrayColor hierarchical-3:secondary SFSymbolsPreviewWireframe" d="M18.3-18.8C16.7-18.8 15.5-20 15.5-21.6C15.5-23.2 16.7-24.3 18.3-24.3L52.8-24.3C54.4-24.3 55.6-23.1 55.6-21.6C55.6-20.1 54.4-18.8 52.8-18.8L18.3-18.8ZM18.3-4.1C16.8-4.1 15.5-5.4 15.5-6.9C15.5-8.4 16.7-9.7 18.3-9.7L38-9.7C39.6-9.7 40.8-8.5 40.8-6.9C40.8-5.3 39.5-4.1 38-4.1L18.3-4.1Z"/>
   <path class="monochrome-4 multicolor-4:systemPinkColor hierarchical-4:primary SFSymbolsPreviewWireframe" d="M26-30.7C25.8-30.7 25.3-30.9 24.9-31.2C20.9-34.1 15.6-38.4 15.6-43.4C15.6-48.4 18-49.5 21.3-49.5C24.6-49.5 25-48.3 26-46.4C27-48.3 28.6-49.5 30.6-49.5C34-49.5 36.4-47 36.4-43.4C36.4-39.8 31.2-33.8 27.1-31.2C26.7-31 26.4-30.7 26.1-30.7L26.1-30.7Z"/>
   <path class="monochrome-5 multicolor-5:tintColor hierarchical-5:primary SFSymbolsPreviewWireframe" d="M36.4-8.7L75.6-47.9C79.2-51.6 79.2-57.2 75.6-60.7L74.5-61.8C70.9-65.4 65.3-65 61.9-61.6L22.8-22.5L19.7-14.2C17.6-8.2 21.8-2.4 29.4-5.7L36.5-8.7L36.5-8.7Z"/>
   <path class="monochrome-6 multicolor-6:white hierarchical-6:primary SFSymbolsPreviewWireframe" d="M68.5-48.9L71.4-51.9C72.8-53.3 72.8-55.4 71.4-56.7L70.3-57.8C69-59 67-58.9 65.7-57.6L62.7-54.7L68.4-48.9L68.4-48.9ZM25.1-10.1L33.2-13.6L65.6-45.9L59.8-51.6L27.4-19.3L23.7-11.5C23.4-10.8 24.2-9.8 25-10.1L25-10.1Z"/>
  </g>
 </g>
</svg>
