<?xml version="1.0" encoding="UTF-8"?>
<!--Generator: Apple Native CoreSVG 341-->
<!DOCTYPE svg
PUBLIC "-//W3C//DTD SVG 1.1//EN"
       "http://www.w3.org/Graphics/SVG/1.1/DTD/svg11.dtd">
<svg version="1.1" xmlns="http://www.w3.org/2000/svg" xmlns:xlink="http://www.w3.org/1999/xlink" viewBox="0 0 3300 2200">
 <!--glyph: "", point size: 100.0, font version: "20.0d10e1", template writer version: "138.0.0"-->
 <style>.monochrome-0 {-sfsymbols-motion-group:3;-sfsymbols-layer-tags:7553232838f7baf9}
.monochrome-1 {opacity:0.0;-sfsymbols-clear-behind:true;-sfsymbols-motion-group:2;-sfsymbols-layer-tags:7553232838f7baf9}
.monochrome-2 {opacity:0.0;-sfsymbols-clear-behind:true;-sfsymbols-motion-group:1;-sfsymbols-layer-tags:7553232838f7baf9}
.monochrome-3 {opacity:0.0;-sfsymbols-clear-behind:true;-sfsymbols-motion-group:0;-sfsymbols-layer-tags:7553232838f7baf9}

.multicolor-0:custom {fill:#222222;-sfsymbols-motion-group:3;-sfsymbols-layer-tags:7553232838f7baf9}
.multicolor-1:white {-sfsymbols-motion-group:2;-sfsymbols-layer-tags:7553232838f7baf9}
.multicolor-2:white {-sfsymbols-motion-group:1;-sfsymbols-layer-tags:7553232838f7baf9}
.multicolor-3:systemRedColor {-sfsymbols-motion-group:0;-sfsymbols-layer-tags:7553232838f7baf9}

.hierarchical-0:tertiary {-sfsymbols-motion-group:3;-sfsymbols-layer-tags:7553232838f7baf9}
.hierarchical-1:primary {-sfsymbols-motion-group:2;-sfsymbols-layer-tags:7553232838f7baf9}
.hierarchical-2:primary {-sfsymbols-motion-group:1;-sfsymbols-layer-tags:7553232838f7baf9}
.hierarchical-3:primary {-sfsymbols-motion-group:0;-sfsymbols-layer-tags:7553232838f7baf9}

.SFSymbolsPreviewWireframe {fill:none;opacity:1.0;stroke:black;stroke-width:0.5}
</style>
 <g id="Notes">
  <rect height="2200" id="artboard" style="fill:white;opacity:1" width="3300" x="0" y="0"/>
  <line style="fill:none;stroke:black;opacity:1;stroke-width:0.5;" x1="263" x2="3036" y1="292" y2="292"/>
  <text style="stroke:none;fill:black;font-family:sans-serif;font-size:13;font-weight:bold;" transform="matrix(1 0 0 1 263 322)">Weight/Scale Variations</text>
  <text style="stroke:none;fill:black;font-family:sans-serif;font-size:13;text-anchor:middle;" transform="matrix(1 0 0 1 559.711 322)">Ultralight</text>
  <text style="stroke:none;fill:black;font-family:sans-serif;font-size:13;text-anchor:middle;" transform="matrix(1 0 0 1 856.422 322)">Thin</text>
  <text style="stroke:none;fill:black;font-family:sans-serif;font-size:13;text-anchor:middle;" transform="matrix(1 0 0 1 1153.13 322)">Light</text>
  <text style="stroke:none;fill:black;font-family:sans-serif;font-size:13;text-anchor:middle;" transform="matrix(1 0 0 1 1449.84 322)">Regular</text>
  <text style="stroke:none;fill:black;font-family:sans-serif;font-size:13;text-anchor:middle;" transform="matrix(1 0 0 1 1746.56 322)">Medium</text>
  <text style="stroke:none;fill:black;font-family:sans-serif;font-size:13;text-anchor:middle;" transform="matrix(1 0 0 1 2043.27 322)">Semibold</text>
  <text style="stroke:none;fill:black;font-family:sans-serif;font-size:13;text-anchor:middle;" transform="matrix(1 0 0 1 2339.98 322)">Bold</text>
  <text style="stroke:none;fill:black;font-family:sans-serif;font-size:13;text-anchor:middle;" transform="matrix(1 0 0 1 2636.69 322)">Heavy</text>
  <text style="stroke:none;fill:black;font-family:sans-serif;font-size:13;text-anchor:middle;" transform="matrix(1 0 0 1 2933.4 322)">Black</text>
  <line style="fill:none;stroke:black;opacity:1;stroke-width:0.5;" x1="263" x2="3036" y1="1903" y2="1903"/>
  <g transform="matrix(0.2 0 0 0.2 263 1933)">
   <path d="m46.2402 4.15039c21.7773 0 39.4531-17.627 39.4531-39.4043s-17.6758-39.4043-39.4531-39.4043c-21.7285 0-39.4043 17.627-39.4043 39.4043s17.6758 39.4043 39.4043 39.4043Zm0-7.42188c-17.6758 0-31.9336-14.3066-31.9336-31.9824s14.2578-31.9824 31.9336-31.9824 31.9824 14.3066 31.9824 31.9824-14.3066 31.9824-31.9824 31.9824Zm-17.9688-31.9824c0 2.14844 1.51367 3.61328 3.75977 3.61328h10.498v10.5957c0 2.19727 1.46484 3.71094 3.61328 3.71094 2.24609 0 3.71094-1.51367 3.71094-3.71094v-10.5957h10.5957c2.19727 0 3.71094-1.46484 3.71094-3.61328 0-2.19727-1.51367-3.71094-3.71094-3.71094h-10.5957v-10.5469c0-2.24609-1.46484-3.75977-3.71094-3.75977-2.14844 0-3.61328 1.51367-3.61328 3.75977v10.5469h-10.498c-2.24609 0-3.75977 1.51367-3.75977 3.71094Z"/>
  </g>
  <g transform="matrix(0.2 0 0 0.2 281.506 1933)">
   <path d="m58.5449 14.5508c27.4902 0 49.8047-22.3145 49.8047-49.8047s-22.3145-49.8047-49.8047-49.8047-49.8047 22.3145-49.8047 49.8047 22.3145 49.8047 49.8047 49.8047Zm0-8.30078c-22.9492 0-41.5039-18.5547-41.5039-41.5039s18.5547-41.5039 41.5039-41.5039 41.5039 18.5547 41.5039 41.5039-18.5547 41.5039-41.5039 41.5039Zm-22.6562-41.5039c0 2.39258 1.66016 4.00391 4.15039 4.00391h14.3555v14.4043c0 2.44141 1.66016 4.15039 4.05273 4.15039 2.44141 0 4.15039-1.66016 4.15039-4.15039v-14.4043h14.4043c2.44141 0 4.15039-1.61133 4.15039-4.00391 0-2.44141-1.70898-4.15039-4.15039-4.15039h-14.4043v-14.3555c0-2.49023-1.70898-4.19922-4.15039-4.19922-2.39258 0-4.05273 1.70898-4.05273 4.19922v14.3555h-14.3555c-2.49023 0-4.15039 1.70898-4.15039 4.15039Z"/>
  </g>
  <g transform="matrix(0.2 0 0 0.2 304.924 1933)">
   <path d="m74.8535 28.3203c35.1074 0 63.623-28.4668 63.623-63.5742s-28.5156-63.623-63.623-63.623-63.5742 28.5156-63.5742 63.623 28.4668 63.5742 63.5742 63.5742Zm0-9.08203c-30.127 0-54.4922-24.3652-54.4922-54.4922s24.3652-54.4922 54.4922-54.4922 54.4922 24.3652 54.4922 54.4922-24.3652 54.4922-54.4922 54.4922Zm-28.8574-54.4922c0 2.58789 1.85547 4.39453 4.58984 4.39453h19.7266v19.7754c0 2.68555 1.85547 4.58984 4.44336 4.58984 2.68555 0 4.54102-1.85547 4.54102-4.58984v-19.7754h19.7754c2.68555 0 4.58984-1.80664 4.58984-4.39453 0-2.73438-1.85547-4.58984-4.58984-4.58984h-19.7754v-19.7266c0-2.73438-1.85547-4.63867-4.54102-4.63867-2.58789 0-4.44336 1.9043-4.44336 4.63867v19.7266h-19.7266c-2.73438 0-4.58984 1.85547-4.58984 4.58984Z"/>
  </g>
  <text style="stroke:none;fill:black;font-family:sans-serif;font-size:13;font-weight:bold;" transform="matrix(1 0 0 1 263 1953)">Design Variations</text>
  <text style="stroke:none;fill:black;font-family:sans-serif;font-size:13;" transform="matrix(1 0 0 1 263 1971)">Symbols are supported in up to nine weights and three scales.</text>
  <text style="stroke:none;fill:black;font-family:sans-serif;font-size:13;" transform="matrix(1 0 0 1 263 1989)">For optimal layout with text and other symbols, vertically align</text>
  <text style="stroke:none;fill:black;font-family:sans-serif;font-size:13;" transform="matrix(1 0 0 1 263 2007)">symbols with the adjacent text.</text>
  <line style="fill:none;stroke:#00AEEF;stroke-width:0.5;opacity:1.0;" x1="776" x2="776" y1="1919" y2="1933"/>
  <g transform="matrix(0.2 0 0 0.2 776 1933)">
   <path d="m16.5527 0.78125c2.58789 0 3.85742-0.976562 4.78516-3.71094l6.29883-17.2363h28.8086l6.29883 17.2363c0.927734 2.73438 2.19727 3.71094 4.73633 3.71094 2.58789 0 4.24805-1.5625 4.24805-4.00391 0-0.830078-0.146484-1.61133-0.537109-2.63672l-22.9004-60.9863c-1.12305-2.97852-3.125-4.49219-6.25-4.49219-3.02734 0-5.07812 1.46484-6.15234 4.44336l-22.9004 61.084c-0.390625 1.02539-0.537109 1.80664-0.537109 2.63672 0 2.44141 1.5625 3.95508 4.10156 3.95508Zm13.4766-28.3691 11.8652-32.8613h0.244141l11.8652 32.8613Z"/>
  </g>
  <line style="fill:none;stroke:#00AEEF;stroke-width:0.5;opacity:1.0;" x1="792.836" x2="792.836" y1="1919" y2="1933"/>
  <text style="stroke:none;fill:black;font-family:sans-serif;font-size:13;font-weight:bold;" transform="matrix(1 0 0 1 776 1953)">Margins</text>
  <text style="stroke:none;fill:black;font-family:sans-serif;font-size:13;" transform="matrix(1 0 0 1 776 1971)">Leading and trailing margins on the left and right side of each symbol</text>
  <text style="stroke:none;fill:black;font-family:sans-serif;font-size:13;" transform="matrix(1 0 0 1 776 1989)">can be adjusted by modifying the x-location of the margin guidelines.</text>
  <text style="stroke:none;fill:black;font-family:sans-serif;font-size:13;" transform="matrix(1 0 0 1 776 2007)">Modifications are automatically applied proportionally to all</text>
  <text style="stroke:none;fill:black;font-family:sans-serif;font-size:13;" transform="matrix(1 0 0 1 776 2025)">scales and weights.</text>
  <g transform="matrix(0.2 0 0 0.2 1289 1933)">
   <path d="m14.209 9.32617 8.49609 8.54492c4.29688 4.3457 9.22852 4.05273 13.8672-1.07422l53.4668-58.9355-4.83398-4.88281-53.0762 58.3984c-1.75781 2.00195-3.41797 2.49023-5.76172 0.146484l-5.85938-5.81055c-2.34375-2.29492-1.80664-4.00391 0.195312-5.81055l57.373-54.0039-4.88281-4.83398-57.959 54.4434c-4.93164 4.58984-5.32227 9.47266-1.02539 13.8184Zm32.0801-90.9668c-2.09961 2.05078-2.24609 4.93164-1.07422 6.88477 1.17188 1.80664 3.4668 2.97852 6.68945 2.14844 7.32422-1.70898 14.9414-2.00195 22.0703 2.68555l-2.92969 7.27539c-1.70898 4.15039-0.830078 7.08008 1.85547 9.81445l11.4746 11.5723c2.44141 2.44141 4.49219 2.53906 7.32422 2.05078l5.32227-0.976562 3.32031 3.36914-0.195312 2.7832c-0.195312 2.49023 0.439453 4.39453 2.88086 6.78711l3.80859 3.71094c2.39258 2.39258 5.46875 2.53906 7.8125 0.195312l14.5508-14.5996c2.34375-2.34375 2.24609-5.32227-0.146484-7.71484l-3.85742-3.80859c-2.39258-2.39258-4.24805-3.17383-6.64062-2.97852l-2.88086 0.244141-3.22266-3.17383 1.2207-5.61523c0.634766-2.83203-0.146484-5.0293-3.07617-7.95898l-10.9863-10.9375c-16.6992-16.6016-38.8672-16.2109-53.3203-1.75781Zm7.4707 1.85547c12.1582-8.88672 28.6133-7.37305 39.7461 3.75977l12.1582 12.0605c1.17188 1.17188 1.36719 2.09961 1.02539 3.80859l-1.61133 7.42188 7.51953 7.42188 4.93164-0.292969c1.26953-0.0488281 1.66016 0.0488281 2.63672 1.02539l2.88086 2.88086-12.207 12.207-2.88086-2.88086c-0.976562-0.976562-1.12305-1.36719-1.07422-2.68555l0.341797-4.88281-7.4707-7.42188-7.61719 1.26953c-1.61133 0.341797-2.34375 0.195312-3.56445-0.976562l-10.0098-10.0098c-1.26953-1.17188-1.41602-2.00195-0.634766-3.85742l4.39453-10.4492c-7.8125-7.27539-17.9688-10.4004-28.125-7.42188-0.78125 0.195312-1.07422-0.439453-0.439453-0.976562Z"/>
  </g>
  <text style="stroke:none;fill:black;font-family:sans-serif;font-size:13;font-weight:bold;" transform="matrix(1 0 0 1 1289 1953)">Exporting</text>
  <text style="stroke:none;fill:black;font-family:sans-serif;font-size:13;" transform="matrix(1 0 0 1 1289 1971)">Symbols should be outlined when exporting to ensure the</text>
  <text style="stroke:none;fill:black;font-family:sans-serif;font-size:13;" transform="matrix(1 0 0 1 1289 1989)">design is preserved when submitting to Xcode.</text>
  <text id="template-version" style="stroke:none;fill:black;font-family:sans-serif;font-size:13;text-anchor:end;" transform="matrix(1 0 0 1 3036 1933)">Template v.6.0</text>
  <text style="stroke:none;fill:black;font-family:sans-serif;font-size:13;text-anchor:end;" transform="matrix(1 0 0 1 3036 1951)">Requires Xcode 16 or greater</text>
  <text id="descriptive-name" style="stroke:none;fill:black;font-family:sans-serif;font-size:13;text-anchor:end;" transform="matrix(1 0 0 1 3036 1969)">Generated from ptv.logo</text>
  <text style="stroke:none;fill:black;font-family:sans-serif;font-size:13;text-anchor:end;" transform="matrix(1 0 0 1 3036 1987)">Typeset at 100.0 points</text>
  <text style="stroke:none;fill:black;font-family:sans-serif;font-size:13;" transform="matrix(1 0 0 1 263 726)">Small</text>
  <text style="stroke:none;fill:black;font-family:sans-serif;font-size:13;" transform="matrix(1 0 0 1 263 1156)">Medium</text>
  <text style="stroke:none;fill:black;font-family:sans-serif;font-size:13;" transform="matrix(1 0 0 1 263 1586)">Large</text>
 </g>
 <g id="Guides">
  <g id="H-reference" style="fill:#27AAE1;stroke:none;" transform="matrix(1 0 0 1 339 696)">
   <path d="M0.993654 0L3.63775 0L29.3281-67.1323L30.0303-67.1323L30.0303-70.459L28.1226-70.459ZM11.6885-24.4799L46.9815-24.4799L46.2315-26.7285L12.4385-26.7285ZM55.1196 0L57.7637 0L30.6382-70.459L29.4326-70.459L29.4326-67.1323Z"/>
  </g>
  <line id="Baseline-S" style="fill:none;stroke:#27AAE1;opacity:1;stroke-width:0.5;" x1="263" x2="3036" y1="696" y2="696"/>
  <line id="Capline-S" style="fill:none;stroke:#27AAE1;opacity:1;stroke-width:0.5;" x1="263" x2="3036" y1="625.541" y2="625.541"/>
  <g id="H-reference" style="fill:#27AAE1;stroke:none;" transform="matrix(1 0 0 1 339 1126)">
   <path d="M0.993654 0L3.63775 0L29.3281-67.1323L30.0303-67.1323L30.0303-70.459L28.1226-70.459ZM11.6885-24.4799L46.9815-24.4799L46.2315-26.7285L12.4385-26.7285ZM55.1196 0L57.7637 0L30.6382-70.459L29.4326-70.459L29.4326-67.1323Z"/>
  </g>
  <line id="Baseline-M" style="fill:none;stroke:#27AAE1;opacity:1;stroke-width:0.5;" x1="263" x2="3036" y1="1126" y2="1126"/>
  <line id="Capline-M" style="fill:none;stroke:#27AAE1;opacity:1;stroke-width:0.5;" x1="263" x2="3036" y1="1055.54" y2="1055.54"/>
  <g id="H-reference" style="fill:#27AAE1;stroke:none;" transform="matrix(1 0 0 1 339 1556)">
   <path d="M0.993654 0L3.63775 0L29.3281-67.1323L30.0303-67.1323L30.0303-70.459L28.1226-70.459ZM11.6885-24.4799L46.9815-24.4799L46.2315-26.7285L12.4385-26.7285ZM55.1196 0L57.7637 0L30.6382-70.459L29.4326-70.459L29.4326-67.1323Z"/>
  </g>
  <line id="Baseline-L" style="fill:none;stroke:#27AAE1;opacity:1;stroke-width:0.5;" x1="263" x2="3036" y1="1556" y2="1556"/>
  <line id="Capline-L" style="fill:none;stroke:#27AAE1;opacity:1;stroke-width:0.5;" x1="263" x2="3036" y1="1485.54" y2="1485.54"/>
  <line id="right-margin-Black-S" style="fill:none;stroke:#00AEEF;stroke-width:0.5;opacity:1.0;" x1="2982.2" x2="2982.2" y1="600.785" y2="720.121"/>
  <line id="left-margin-Black-S" style="fill:none;stroke:#00AEEF;stroke-width:0.5;opacity:1.0;" x1="2884.6" x2="2884.6" y1="600.785" y2="720.121"/>
  <line id="right-margin-Regular-S" style="fill:none;stroke:#00AEEF;stroke-width:0.5;opacity:1.0;" x1="1496.09" x2="1496.09" y1="600.785" y2="720.121"/>
  <line id="left-margin-Regular-S" style="fill:none;stroke:#00AEEF;stroke-width:0.5;opacity:1.0;" x1="1403.59" x2="1403.59" y1="600.785" y2="720.121"/>
  <line id="right-margin-Ultralight-S" style="fill:none;stroke:#00AEEF;stroke-width:0.5;opacity:1.0;" x1="603.811" x2="603.811" y1="600.785" y2="720.121"/>
  <line id="left-margin-Ultralight-S" style="fill:none;stroke:#00AEEF;stroke-width:0.5;opacity:1.0;" x1="515.611" x2="515.611" y1="600.785" y2="720.121"/>
 </g>
 <g id="Symbols">
  <g id="Black-S" transform="matrix(1 0 0 1 2884.6 696)">
   <path class="monochrome-0 multicolor-0:custom hierarchical-0:tertiary SFSymbolsPreviewWireframe" d="M83.4-35C83.4-15.7 67.7 0 48.4 0C29.1 0 13.4-15.7 13.4-35C13.4-54.3 29.1-70 48.4-70C67.7-70 83.4-54.3 83.4-35Z"/>
   <path class="monochrome-1 multicolor-1:white hierarchical-1:primary SFSymbolsPreviewWireframe" d="M23.3-19.2C22.2-19.2 21.2-20 21.2-21.3L21.2-39.4C21.2-40.8 22-42.1 23.3-42.1L29.2-42.1C31.6-42.1 33.5-41.3 35.1-39.7C36.5-38.3 37.5-36.2 37.5-34.1C37.5-29.8 34-26.3 29.4-26.3L25.7-26.3L25.7-22C25.3-20.4 24.5-19.2 23.3-19.2ZM28.8-30.1C31.2-30.1 32.6-31.9 32.6-33.9C32.6-36 31.5-38 28.5-38L25.3-38L25.3-30.2L28.8-30.1L28.8-30.1Z"/>
   <path class="monochrome-2 multicolor-2:white hierarchical-2:primary SFSymbolsPreviewWireframe" d="M43.8-21.5C43.8-20.4 44.6-19.5 45.8-19.5C47-19.5 47.9-20.3 47.9-21.6L47.9-37.9L52-37.9C53.1-37.9 54.1-38.7 54.1-40C54.1-41.2 53.3-42.1 52-42.1L39.8-42.1C38.7-42.1 37.7-41.3 37.7-40C37.7-38.9 38.5-37.9 39.8-37.9L43.9-37.9L43.9-21.5Z"/>
   <path class="monochrome-3 multicolor-3:systemRedColor hierarchical-3:primary SFSymbolsPreviewWireframe" d="M74-37.7C74.8-38 75.4-39.1 75.4-40.1C75.4-41.2 74.8-42.2 74-42.5L55.4-50.6C54.3-51.2 53-50.6 52.5-49.5C51.9-48.4 52.5-47.1 53.6-46.6L68.7-40.2L53.6-33.8C52.5-33.2 51.8-32 52.5-30.9C53.2-29.8 54.3-29.1 55.4-29.8L74-37.7Z"/>
  </g>
  <g id="Regular-S" transform="matrix(1 0 0 1 1403.59 696)">
   <path class="monochrome-0 multicolor-0:custom hierarchical-0:tertiary SFSymbolsPreviewWireframe" d="M81.4-35C81.4-15.7 65.7 0 46.4 0C27.1 0 11.4-15.7 11.4-35C11.4-54.3 27.1-70 46.4-70C65.7-70 81.4-54.3 81.4-35Z"/>
   <path class="monochrome-1 multicolor-1:white hierarchical-1:primary SFSymbolsPreviewWireframe" d="M21.3-19.2C20.2-19.2 19.2-20 19.2-21.3L19.2-39.4C19.2-40.8 20-42.1 21.3-42.1L27.2-42.1C29.6-42.1 31.5-41.3 33.1-39.7C34.5-38.3 35.5-36.2 35.5-34.1C35.5-29.8 32-26.3 27.4-26.3L23.7-26.3L23.7-22C23.3-20.4 22.5-19.2 21.3-19.2ZM26.8-30.1C29.2-30.1 30.6-31.9 30.6-33.9C30.6-36 29.5-38 26.5-38L23.3-38L23.3-30.2L26.8-30.1L26.8-30.1Z"/>
   <path class="monochrome-2 multicolor-2:white hierarchical-2:primary SFSymbolsPreviewWireframe" d="M41.8-21.5C41.8-20.4 42.6-19.5 43.8-19.5C44.9-19.5 45.9-20.3 45.9-21.6L45.9-37.9L50-37.9C51.1-37.9 52.1-38.7 52.1-40C52.1-41.2 51.3-42.1 50-42.1L37.8-42.1C36.7-42.1 35.7-41.3 35.7-40C35.7-38.9 36.5-37.9 37.8-37.9L41.9-37.9L41.9-21.5Z"/>
   <path class="monochrome-3 multicolor-3:systemRedColor hierarchical-3:primary SFSymbolsPreviewWireframe" d="M72-37.7C72.8-38 73.4-39.1 73.4-40.1C73.4-41.2 72.8-42.2 72-42.5L53.4-50.6C52.3-51.2 51-50.6 50.5-49.5C49.9-48.4 50.5-47.1 51.6-46.6L66.7-40.2L51.6-33.8C50.5-33.2 49.8-32 50.5-30.9C51.1-29.8 52.3-29.1 53.4-29.8L72-37.7Z"/>
  </g>
  <g id="Ultralight-S" transform="matrix(1 0 0 1 515.611 696)">
   <path class="monochrome-0 multicolor-0:custom hierarchical-0:tertiary SFSymbolsPreviewWireframe" d="M79.4-35C79.4-15.7 63.7 0 44.4 0C25.1 0 9.4-15.7 9.4-35C9.4-54.3 25.1-70 44.4-70C63.7-70 79.4-54.3 79.4-35Z"/>
   <path class="monochrome-1 multicolor-1:white hierarchical-1:primary SFSymbolsPreviewWireframe" d="M19.3-19.2C18.2-19.2 17.2-20 17.2-21.3L17.2-39.4C17.2-40.8 18-42.1 19.3-42.1L25.2-42.1C27.6-42.1 29.5-41.3 31.1-39.7C32.5-38.3 33.5-36.2 33.5-34.1C33.5-29.8 30-26.3 25.4-26.3L21.7-26.3L21.7-22C21.3-20.4 20.5-19.2 19.3-19.2ZM24.8-30.1C27.2-30.1 28.6-31.9 28.6-33.9C28.6-36 27.5-38 24.5-38L21.3-38L21.3-30.2L24.8-30.1L24.8-30.1Z"/>
   <path class="monochrome-2 multicolor-2:white hierarchical-2:primary SFSymbolsPreviewWireframe" d="M39.8-21.5C39.8-20.4 40.6-19.5 41.8-19.5C43-19.5 43.9-20.3 43.9-21.6L43.9-37.9L48-37.9C49.1-37.9 50.1-38.7 50.1-40C50.1-41.2 49.3-42.1 48-42.1L35.8-42.1C34.7-42.1 33.7-41.3 33.7-40C33.7-38.9 34.5-37.9 35.8-37.9L39.9-37.9L39.9-21.5Z"/>
   <path class="monochrome-3 multicolor-3:systemRedColor hierarchical-3:primary SFSymbolsPreviewWireframe" d="M70-37.7C70.8-38 71.4-39.1 71.4-40.1C71.4-41.2 70.8-42.2 70-42.5L51.4-50.6C50.3-51.2 49-50.6 48.5-49.5C47.9-48.4 48.5-47.1 49.6-46.6L64.7-40.2L49.6-33.8C48.5-33.2 47.8-32 48.5-30.9C49.2-29.8 50.3-29.1 51.4-29.8L70-37.7Z"/>
  </g>
 </g>
</svg>
