<?xml version="1.0" encoding="UTF-8"?>
<!--Generator: Apple Native CoreSVG 341-->
<!DOCTYPE svg
PUBLIC "-//W3C//DTD SVG 1.1//EN"
       "http://www.w3.org/Graphics/SVG/1.1/DTD/svg11.dtd">
<svg version="1.1" xmlns="http://www.w3.org/2000/svg" xmlns:xlink="http://www.w3.org/1999/xlink" viewBox="0 0 3300 2200">
 <!--glyph: "", point size: 100.0, font version: "20.0d10e1", template writer version: "138.0.0"-->
 <style>.monochrome-0 {-sfsymbols-motion-group:1;-sfsymbols-indices:0;-sfsymbols-layer-tags:63f484779db3481e circle.fill}
.monochrome-1 {opacity:0.0;-sfsymbols-clear-behind:true;-sfsymbols-motion-group:0;-sfsymbols-always-pulses:true;-sfsymbols-layer-tags:63f484779db3481e}

.multicolor-0:custom {fill:#FF8201;-sfsymbols-motion-group:1;-sfsymbols-indices:0;-sfsymbols-layer-tags:63f484779db3481e circle.fill}
.multicolor-1:white {-sfsymbols-motion-group:0;-sfsymbols-always-pulses:true;-sfsymbols-layer-tags:63f484779db3481e}

.hierarchical-0:tertiary {-sfsymbols-motion-group:1;-sfsymbols-indices:0;-sfsymbols-layer-tags:63f484779db3481e circle.fill}
.hierarchical-1:primary {-sfsymbols-motion-group:0;-sfsymbols-layer-tags:63f484779db3481e}

.shapeGroupLayer-0 {-sfsymbols-fill-action:draw;-sfsymbols-indices:1 2}
.shapeGroupLayer-1 {-sfsymbols-fill-action:draw;-sfsymbols-indices:3}
.shapeGroupLayer-2 {-sfsymbols-fill-action:erase;-sfsymbols-indices:4 6}
.shapeGroupLayer-3 {-sfsymbols-fill-action:draw;-sfsymbols-indices:5 7}
.shapeGroupLayer-4 {-sfsymbols-fill-action:erase;-sfsymbols-indices:9 10}
.shapeGroupLayer-5 {-sfsymbols-fill-action:erase;-sfsymbols-indices:8}

.SFSymbolsPreviewWireframe {fill:none;opacity:1.0;stroke:black;stroke-width:0.5}
</style>
 <g id="Notes">
  <rect height="2200" id="artboard" style="fill:white;opacity:1" width="3300" x="0" y="0"/>
  <line style="fill:none;stroke:black;opacity:1;stroke-width:0.5;" x1="263" x2="3036" y1="292" y2="292"/>
  <text style="stroke:none;fill:black;font-family:sans-serif;font-size:13;font-weight:bold;" transform="matrix(1 0 0 1 263 322)">Weight/Scale Variations</text>
  <text style="stroke:none;fill:black;font-family:sans-serif;font-size:13;text-anchor:middle;" transform="matrix(1 0 0 1 559.711 322)">Ultralight</text>
  <text style="stroke:none;fill:black;font-family:sans-serif;font-size:13;text-anchor:middle;" transform="matrix(1 0 0 1 856.422 322)">Thin</text>
  <text style="stroke:none;fill:black;font-family:sans-serif;font-size:13;text-anchor:middle;" transform="matrix(1 0 0 1 1153.13 322)">Light</text>
  <text style="stroke:none;fill:black;font-family:sans-serif;font-size:13;text-anchor:middle;" transform="matrix(1 0 0 1 1449.84 322)">Regular</text>
  <text style="stroke:none;fill:black;font-family:sans-serif;font-size:13;text-anchor:middle;" transform="matrix(1 0 0 1 1746.56 322)">Medium</text>
  <text style="stroke:none;fill:black;font-family:sans-serif;font-size:13;text-anchor:middle;" transform="matrix(1 0 0 1 2043.27 322)">Semibold</text>
  <text style="stroke:none;fill:black;font-family:sans-serif;font-size:13;text-anchor:middle;" transform="matrix(1 0 0 1 2339.98 322)">Bold</text>
  <text style="stroke:none;fill:black;font-family:sans-serif;font-size:13;text-anchor:middle;" transform="matrix(1 0 0 1 2636.69 322)">Heavy</text>
  <text style="stroke:none;fill:black;font-family:sans-serif;font-size:13;text-anchor:middle;" transform="matrix(1 0 0 1 2933.4 322)">Black</text>
  <line style="fill:none;stroke:black;opacity:1;stroke-width:0.5;" x1="263" x2="3036" y1="1903" y2="1903"/>
  <g transform="matrix(0.2 0 0 0.2 263 1933)">
   <path d="m46.2402 4.15039c21.7773 0 39.4531-17.627 39.4531-39.4043s-17.6758-39.4043-39.4531-39.4043c-21.7285 0-39.4043 17.627-39.4043 39.4043s17.6758 39.4043 39.4043 39.4043Zm0-7.42188c-17.6758 0-31.9336-14.3066-31.9336-31.9824s14.2578-31.9824 31.9336-31.9824 31.9824 14.3066 31.9824 31.9824-14.3066 31.9824-31.9824 31.9824Zm-17.9688-31.9824c0 2.14844 1.51367 3.61328 3.75977 3.61328h10.498v10.5957c0 2.19727 1.46484 3.71094 3.61328 3.71094 2.24609 0 3.71094-1.51367 3.71094-3.71094v-10.5957h10.5957c2.19727 0 3.71094-1.46484 3.71094-3.61328 0-2.19727-1.51367-3.71094-3.71094-3.71094h-10.5957v-10.5469c0-2.24609-1.46484-3.75977-3.71094-3.75977-2.14844 0-3.61328 1.51367-3.61328 3.75977v10.5469h-10.498c-2.24609 0-3.75977 1.51367-3.75977 3.71094Z"/>
  </g>
  <g transform="matrix(0.2 0 0 0.2 281.506 1933)">
   <path d="m58.5449 14.5508c27.4902 0 49.8047-22.3145 49.8047-49.8047s-22.3145-49.8047-49.8047-49.8047-49.8047 22.3145-49.8047 49.8047 22.3145 49.8047 49.8047 49.8047Zm0-8.30078c-22.9492 0-41.5039-18.5547-41.5039-41.5039s18.5547-41.5039 41.5039-41.5039 41.5039 18.5547 41.5039 41.5039-18.5547 41.5039-41.5039 41.5039Zm-22.6562-41.5039c0 2.39258 1.66016 4.00391 4.15039 4.00391h14.3555v14.4043c0 2.44141 1.66016 4.15039 4.05273 4.15039 2.44141 0 4.15039-1.66016 4.15039-4.15039v-14.4043h14.4043c2.44141 0 4.15039-1.61133 4.15039-4.00391 0-2.44141-1.70898-4.15039-4.15039-4.15039h-14.4043v-14.3555c0-2.49023-1.70898-4.19922-4.15039-4.19922-2.39258 0-4.05273 1.70898-4.05273 4.19922v14.3555h-14.3555c-2.49023 0-4.15039 1.70898-4.15039 4.15039Z"/>
  </g>
  <g transform="matrix(0.2 0 0 0.2 304.924 1933)">
   <path d="m74.8535 28.3203c35.1074 0 63.623-28.4668 63.623-63.5742s-28.5156-63.623-63.623-63.623-63.5742 28.5156-63.5742 63.623 28.4668 63.5742 63.5742 63.5742Zm0-9.08203c-30.127 0-54.4922-24.3652-54.4922-54.4922s24.3652-54.4922 54.4922-54.4922 54.4922 24.3652 54.4922 54.4922-24.3652 54.4922-54.4922 54.4922Zm-28.8574-54.4922c0 2.58789 1.85547 4.39453 4.58984 4.39453h19.7266v19.7754c0 2.68555 1.85547 4.58984 4.44336 4.58984 2.68555 0 4.54102-1.85547 4.54102-4.58984v-19.7754h19.7754c2.68555 0 4.58984-1.80664 4.58984-4.39453 0-2.73438-1.85547-4.58984-4.58984-4.58984h-19.7754v-19.7266c0-2.73438-1.85547-4.63867-4.54102-4.63867-2.58789 0-4.44336 1.9043-4.44336 4.63867v19.7266h-19.7266c-2.73438 0-4.58984 1.85547-4.58984 4.58984Z"/>
  </g>
  <text style="stroke:none;fill:black;font-family:sans-serif;font-size:13;font-weight:bold;" transform="matrix(1 0 0 1 263 1953)">Design Variations</text>
  <text style="stroke:none;fill:black;font-family:sans-serif;font-size:13;" transform="matrix(1 0 0 1 263 1971)">Symbols are supported in up to nine weights and three scales.</text>
  <text style="stroke:none;fill:black;font-family:sans-serif;font-size:13;" transform="matrix(1 0 0 1 263 1989)">For optimal layout with text and other symbols, vertically align</text>
  <text style="stroke:none;fill:black;font-family:sans-serif;font-size:13;" transform="matrix(1 0 0 1 263 2007)">symbols with the adjacent text.</text>
  <line style="fill:none;stroke:#00AEEF;stroke-width:0.5;opacity:1.0;" x1="776" x2="776" y1="1919" y2="1933"/>
  <g transform="matrix(0.2 0 0 0.2 776 1933)">
   <path d="m16.5527 0.78125c2.58789 0 3.85742-0.976562 4.78516-3.71094l6.29883-17.2363h28.8086l6.29883 17.2363c0.927734 2.73438 2.19727 3.71094 4.73633 3.71094 2.58789 0 4.24805-1.5625 4.24805-4.00391 0-0.830078-0.146484-1.61133-0.537109-2.63672l-22.9004-60.9863c-1.12305-2.97852-3.125-4.49219-6.25-4.49219-3.02734 0-5.07812 1.46484-6.15234 4.44336l-22.9004 61.084c-0.390625 1.02539-0.537109 1.80664-0.537109 2.63672 0 2.44141 1.5625 3.95508 4.10156 3.95508Zm13.4766-28.3691 11.8652-32.8613h0.244141l11.8652 32.8613Z"/>
  </g>
  <line style="fill:none;stroke:#00AEEF;stroke-width:0.5;opacity:1.0;" x1="792.836" x2="792.836" y1="1919" y2="1933"/>
  <text style="stroke:none;fill:black;font-family:sans-serif;font-size:13;font-weight:bold;" transform="matrix(1 0 0 1 776 1953)">Margins</text>
  <text style="stroke:none;fill:black;font-family:sans-serif;font-size:13;" transform="matrix(1 0 0 1 776 1971)">Leading and trailing margins on the left and right side of each symbol</text>
  <text style="stroke:none;fill:black;font-family:sans-serif;font-size:13;" transform="matrix(1 0 0 1 776 1989)">can be adjusted by modifying the x-location of the margin guidelines.</text>
  <text style="stroke:none;fill:black;font-family:sans-serif;font-size:13;" transform="matrix(1 0 0 1 776 2007)">Modifications are automatically applied proportionally to all</text>
  <text style="stroke:none;fill:black;font-family:sans-serif;font-size:13;" transform="matrix(1 0 0 1 776 2025)">scales and weights.</text>
  <g transform="matrix(0.2 0 0 0.2 1289 1933)">
   <path d="m14.209 9.32617 8.49609 8.54492c4.29688 4.3457 9.22852 4.05273 13.8672-1.07422l53.4668-58.9355-4.83398-4.88281-53.0762 58.3984c-1.75781 2.00195-3.41797 2.49023-5.76172 0.146484l-5.85938-5.81055c-2.34375-2.29492-1.80664-4.00391 0.195312-5.81055l57.373-54.0039-4.88281-4.83398-57.959 54.4434c-4.93164 4.58984-5.32227 9.47266-1.02539 13.8184Zm32.0801-90.9668c-2.09961 2.05078-2.24609 4.93164-1.07422 6.88477 1.17188 1.80664 3.4668 2.97852 6.68945 2.14844 7.32422-1.70898 14.9414-2.00195 22.0703 2.68555l-2.92969 7.27539c-1.70898 4.15039-0.830078 7.08008 1.85547 9.81445l11.4746 11.5723c2.44141 2.44141 4.49219 2.53906 7.32422 2.05078l5.32227-0.976562 3.32031 3.36914-0.195312 2.7832c-0.195312 2.49023 0.439453 4.39453 2.88086 6.78711l3.80859 3.71094c2.39258 2.39258 5.46875 2.53906 7.8125 0.195312l14.5508-14.5996c2.34375-2.34375 2.24609-5.32227-0.146484-7.71484l-3.85742-3.80859c-2.39258-2.39258-4.24805-3.17383-6.64062-2.97852l-2.88086 0.244141-3.22266-3.17383 1.2207-5.61523c0.634766-2.83203-0.146484-5.0293-3.07617-7.95898l-10.9863-10.9375c-16.6992-16.6016-38.8672-16.2109-53.3203-1.75781Zm7.4707 1.85547c12.1582-8.88672 28.6133-7.37305 39.7461 3.75977l12.1582 12.0605c1.17188 1.17188 1.36719 2.09961 1.02539 3.80859l-1.61133 7.42188 7.51953 7.42188 4.93164-0.292969c1.26953-0.0488281 1.66016 0.0488281 2.63672 1.02539l2.88086 2.88086-12.207 12.207-2.88086-2.88086c-0.976562-0.976562-1.12305-1.36719-1.07422-2.68555l0.341797-4.88281-7.4707-7.42188-7.61719 1.26953c-1.61133 0.341797-2.34375 0.195312-3.56445-0.976562l-10.0098-10.0098c-1.26953-1.17188-1.41602-2.00195-0.634766-3.85742l4.39453-10.4492c-7.8125-7.27539-17.9688-10.4004-28.125-7.42188-0.78125 0.195312-1.07422-0.439453-0.439453-0.976562Z"/>
  </g>
  <text style="stroke:none;fill:black;font-family:sans-serif;font-size:13;font-weight:bold;" transform="matrix(1 0 0 1 1289 1953)">Exporting</text>
  <text style="stroke:none;fill:black;font-family:sans-serif;font-size:13;" transform="matrix(1 0 0 1 1289 1971)">Symbols should be outlined when exporting to ensure the</text>
  <text style="stroke:none;fill:black;font-family:sans-serif;font-size:13;" transform="matrix(1 0 0 1 1289 1989)">design is preserved when submitting to Xcode.</text>
  <text id="template-version" style="stroke:none;fill:black;font-family:sans-serif;font-size:13;text-anchor:end;" transform="matrix(1 0 0 1 3036 1933)">Template v.6.0</text>
  <text style="stroke:none;fill:black;font-family:sans-serif;font-size:13;text-anchor:end;" transform="matrix(1 0 0 1 3036 1951)">Requires Xcode 16 or greater</text>
  <text id="descriptive-name" style="stroke:none;fill:black;font-family:sans-serif;font-size:13;text-anchor:end;" transform="matrix(1 0 0 1 3036 1969)">Generated from circle.fill</text>
  <text style="stroke:none;fill:black;font-family:sans-serif;font-size:13;text-anchor:end;" transform="matrix(1 0 0 1 3036 1987)">Typeset at 100.0 points</text>
  <text style="stroke:none;fill:black;font-family:sans-serif;font-size:13;" transform="matrix(1 0 0 1 263 726)">Small</text>
  <text style="stroke:none;fill:black;font-family:sans-serif;font-size:13;" transform="matrix(1 0 0 1 263 1156)">Medium</text>
  <text style="stroke:none;fill:black;font-family:sans-serif;font-size:13;" transform="matrix(1 0 0 1 263 1586)">Large</text>
 </g>
 <g id="Guides">
  <g id="H-reference" style="fill:#27AAE1;stroke:none;" transform="matrix(1 0 0 1 339 696)">
   <path d="M0.993654 0L3.63775 0L29.3281-67.1323L30.0303-67.1323L30.0303-70.459L28.1226-70.459ZM11.6885-24.4799L46.9815-24.4799L46.2315-26.7285L12.4385-26.7285ZM55.1196 0L57.7637 0L30.6382-70.459L29.4326-70.459L29.4326-67.1323Z"/>
  </g>
  <line id="Baseline-S" style="fill:none;stroke:#27AAE1;opacity:1;stroke-width:0.5;" x1="263" x2="3036" y1="696" y2="696"/>
  <line id="Capline-S" style="fill:none;stroke:#27AAE1;opacity:1;stroke-width:0.5;" x1="263" x2="3036" y1="625.541" y2="625.541"/>
  <g id="H-reference" style="fill:#27AAE1;stroke:none;" transform="matrix(1 0 0 1 339 1126)">
   <path d="M0.993654 0L3.63775 0L29.3281-67.1323L30.0303-67.1323L30.0303-70.459L28.1226-70.459ZM11.6885-24.4799L46.9815-24.4799L46.2315-26.7285L12.4385-26.7285ZM55.1196 0L57.7637 0L30.6382-70.459L29.4326-70.459L29.4326-67.1323Z"/>
  </g>
  <line id="Baseline-M" style="fill:none;stroke:#27AAE1;opacity:1;stroke-width:0.5;" x1="263" x2="3036" y1="1126" y2="1126"/>
  <line id="Capline-M" style="fill:none;stroke:#27AAE1;opacity:1;stroke-width:0.5;" x1="263" x2="3036" y1="1055.54" y2="1055.54"/>
  <g id="H-reference" style="fill:#27AAE1;stroke:none;" transform="matrix(1 0 0 1 339 1556)">
   <path d="M0.993654 0L3.63775 0L29.3281-67.1323L30.0303-67.1323L30.0303-70.459L28.1226-70.459ZM11.6885-24.4799L46.9815-24.4799L46.2315-26.7285L12.4385-26.7285ZM55.1196 0L57.7637 0L30.6382-70.459L29.4326-70.459L29.4326-67.1323Z"/>
  </g>
  <line id="Baseline-L" style="fill:none;stroke:#27AAE1;opacity:1;stroke-width:0.5;" x1="263" x2="3036" y1="1556" y2="1556"/>
  <line id="Capline-L" style="fill:none;stroke:#27AAE1;opacity:1;stroke-width:0.5;" x1="263" x2="3036" y1="1485.54" y2="1485.54"/>
  <line id="right-margin-Black-S" style="fill:none;stroke:#00AEEF;stroke-width:0.5;opacity:1.0;" x1="2982.23" x2="2982.23" y1="600.785" y2="720.121"/>
  <line id="left-margin-Black-S" style="fill:none;stroke:#00AEEF;stroke-width:0.5;opacity:1.0;" x1="2884.57" x2="2884.57" y1="600.785" y2="720.121"/>
  <line id="right-margin-Regular-S" style="fill:none;stroke:#00AEEF;stroke-width:0.5;opacity:1.0;" x1="1496.11" x2="1496.11" y1="600.785" y2="720.121"/>
  <line id="left-margin-Regular-S" style="fill:none;stroke:#00AEEF;stroke-width:0.5;opacity:1.0;" x1="1403.58" x2="1403.58" y1="600.785" y2="720.121"/>
  <line id="right-margin-Ultralight-S" style="fill:none;stroke:#00AEEF;stroke-width:0.5;opacity:1.0;" x1="603.773" x2="603.773" y1="600.785" y2="720.121"/>
  <line id="left-margin-Ultralight-S" style="fill:none;stroke:#00AEEF;stroke-width:0.5;opacity:1.0;" x1="515.649" x2="515.649" y1="600.785" y2="720.121"/>
 </g>
 <g id="Symbols">
  <g id="Black-S" transform="matrix(1 0 0 1 2884.57 696)">
   <path class="SFSymbolsPreviewWireframe" d="M48.8281 6.73828C72.0215 6.73828 90.8203-12.0605 90.8203-35.2539C90.8203-58.4473 72.0215-77.2461 48.8281-77.2461C25.6348-77.2461 6.83594-58.4473 6.83594-35.2539C6.83594-12.0605 25.6348 6.73828 48.8281 6.73828ZM60.9663-8.59111C59.2063-8.59111 57.7663-10.0311 57.7663-11.7911L57.7663-14.8311C57.7663-16.5911 59.2063-18.0311 60.9663-18.0311C62.7263-18.0311 64.1663-16.5911 64.1663-14.8311L64.1663-11.7911C64.1663-10.0311 62.7263-8.59111 60.9663-8.59111ZM35.7663-8.59111C34.0063-8.59111 32.5663-10.0311 32.5663-11.7911L32.5663-14.8311C32.5663-16.5911 34.0063-18.0311 35.7663-18.0311C37.5263-18.0311 38.9663-16.5911 38.9663-14.8311L38.9663-11.7911C38.9663-10.0311 37.5263-8.59111 35.7663-8.59111ZM65.2063-14.5111L31.8463-14.5111C28.7263-14.5111 26.0863-17.0711 26.0863-20.2711L27.0463-56.0311C27.0463-59.1511 29.6063-61.7911 32.8063-61.7911L64.1663-61.7911C67.2863-61.7911 69.9263-59.2311 69.9263-56.0311L70.8863-20.2711C70.9663-17.1511 68.4063-14.5111 65.2063-14.5111ZM60.9663-19.8711C59.2063-19.8711 57.6863-21.3111 57.6863-23.1511C57.6863-24.9911 59.1263-26.4311 60.9663-26.4311C62.7221-26.4311 64.2463-24.9911 64.2463-23.1511C64.2463-21.3111 62.7263-19.8711 60.9663-19.8711ZM60.9663-21.4711C60.0863-21.4711 59.3663-22.1911 59.3663-23.0711C59.3663-23.9511 60.0863-24.6711 60.9663-24.6711C61.8463-24.6711 62.5663-23.9511 62.5663-23.0711C62.5663-22.1911 61.8463-21.4711 60.9663-21.4711ZM35.7663-19.8711C34.0063-19.8711 32.4863-21.3111 32.4863-23.1511C32.4863-24.9911 33.9263-26.4311 35.7663-26.4311C37.5221-26.4311 39.0463-24.9911 39.0463-23.1511C39.0463-21.3111 37.6063-19.8711 35.7663-19.8711ZM35.7663-21.4711C34.8863-21.4711 34.1663-22.1911 34.1663-23.0711C34.1663-23.9511 34.8863-24.6711 35.7663-24.6711C36.6463-24.6711 37.3663-23.9511 37.3663-23.0711C37.4463-22.1911 36.7263-21.4711 35.7663-21.4711ZM66.7263-53.4711L30.1663-53.4711L30.1663-55.9511C30.1663-57.3911 31.2863-58.4311 32.6463-58.4311L64.1663-58.4311C65.6063-58.4311 66.6463-57.3111 66.6463-55.9511L66.7263-53.4711ZM46.2463-31.5511L31.4463-31.5511C30.7263-31.5511 30.1663-32.1111 30.1663-32.8311L30.4863-48.9911C30.4863-49.7111 31.0463-50.2711 31.7663-50.2711L46.2463-50.2711C46.9663-50.2711 47.5263-49.7111 47.5263-48.9911L47.5263-32.8311C47.5263-32.1911 46.9663-31.5511 46.2463-31.5511ZM50.7263-31.5511L65.5263-31.5511C66.2463-31.5511 66.8063-32.1111 66.8063-32.8311L66.4863-48.9911C66.4863-49.7111 65.9263-50.2711 65.2063-50.2711L50.7263-50.2711C50.0063-50.2711 49.4463-49.7111 49.4463-48.9911L49.4463-32.8311C49.4463-32.1911 50.0063-31.5511 50.7263-31.5511Z"/>
  </g>
  <g id="Regular-S" transform="matrix(1 0 0 1 1403.58 696)">
   <path class="SFSymbolsPreviewWireframe" d="M46.2402 4.15039C68.0176 4.15039 85.6934-13.5254 85.6934-35.2539C85.6934-56.9824 68.0176-74.6582 46.2402-74.6582C24.5117-74.6582 6.83594-56.9824 6.83594-35.2539C6.83594-13.5254 24.5117 4.15039 46.2402 4.15039ZM58.7983-8.59111C57.0383-8.59111 55.5983-10.0311 55.5983-11.7911L55.5983-14.8311C55.5983-16.5911 57.0383-18.0311 58.7983-18.0311C60.5583-18.0311 61.9983-16.5911 61.9983-14.8311L61.9983-11.7911C61.9983-10.0311 60.5583-8.59111 58.7983-8.59111ZM33.5983-8.59111C31.8383-8.59111 30.3983-10.0311 30.3983-11.7911L30.3983-14.8311C30.3983-16.5911 31.8383-18.0311 33.5983-18.0311C35.3583-18.0311 36.7983-16.5911 36.7983-14.8311L36.7983-11.7911C36.7983-10.0311 35.3583-8.59111 33.5983-8.59111ZM63.0383-14.5111L29.6783-14.5111C26.5583-14.5111 23.9183-17.0711 23.9183-20.2711L24.8783-56.0311C24.8783-59.1511 27.4383-61.7911 30.6383-61.7911L61.9983-61.7911C65.1183-61.7911 67.7583-59.2311 67.7583-56.0311L68.7183-20.2711C68.7983-17.1511 66.2383-14.5111 63.0383-14.5111ZM58.7983-19.8711C57.0383-19.8711 55.5183-21.3111 55.5183-23.1511C55.5183-24.9911 56.9583-26.4311 58.7983-26.4311C60.556-26.4311 62.0783-24.9911 62.0783-23.1511C62.0783-21.3111 60.5583-19.8711 58.7983-19.8711ZM58.7983-21.4711C57.9183-21.4711 57.1983-22.1911 57.1983-23.0711C57.1983-23.9511 57.9183-24.6711 58.7983-24.6711C59.6783-24.6711 60.3983-23.9511 60.3983-23.0711C60.3983-22.1911 59.6783-21.4711 58.7983-21.4711ZM33.5983-19.8711C31.8383-19.8711 30.3183-21.3111 30.3183-23.1511C30.3183-24.9911 31.7583-26.4311 33.5983-26.4311C35.356-26.4311 36.8783-24.9911 36.8783-23.1511C36.8783-21.3111 35.4383-19.8711 33.5983-19.8711ZM33.5983-21.4711C32.7183-21.4711 31.9983-22.1911 31.9983-23.0711C31.9983-23.9511 32.7183-24.6711 33.5983-24.6711C34.4783-24.6711 35.1983-23.9511 35.1983-23.0711C35.2783-22.1911 34.5583-21.4711 33.5983-21.4711ZM64.5583-53.4711L27.9983-53.4711L27.9983-55.9511C27.9983-57.3911 29.1183-58.4311 30.4783-58.4311L61.9983-58.4311C63.4383-58.4311 64.4783-57.3111 64.4783-55.9511L64.5583-53.4711ZM44.0783-31.5511L29.2783-31.5511C28.5583-31.5511 27.9983-32.1111 27.9983-32.8311L28.3183-48.9911C28.3183-49.7111 28.8783-50.2711 29.5983-50.2711L44.0783-50.2711C44.7983-50.2711 45.3583-49.7111 45.3583-48.9911L45.3583-32.8311C45.3583-32.1911 44.7983-31.5511 44.0783-31.5511ZM48.5583-31.5511L63.3583-31.5511C64.0783-31.5511 64.6383-32.1111 64.6383-32.8311L64.3183-48.9911C64.3183-49.7111 63.7583-50.2711 63.0383-50.2711L48.5583-50.2711C47.8383-50.2711 47.2783-49.7111 47.2783-48.9911L47.2783-32.8311C47.2783-32.1911 47.8383-31.5511 48.5583-31.5511Z"/>
  </g>
  <g id="Ultralight-S" transform="matrix(1 0 0 1 515.649 696)">
   <path class="SFSymbolsPreviewWireframe" d="M44.0606 1.97072C64.521 1.97072 81.2886-14.7969 81.2886-35.2539C81.2886-55.7109 64.521-72.4785 44.0606-72.4785C23.6035-72.4785 6.83594-55.7109 6.83594-35.2539C6.83594-14.7969 23.6035 1.97072 44.0606 1.97072ZM56.7957-8.59111C55.0357-8.59111 53.5957-10.0311 53.5957-11.7911L53.5957-14.8311C53.5957-16.5911 55.0357-18.0311 56.7957-18.0311C58.5557-18.0311 59.9957-16.5911 59.9957-14.8311L59.9957-11.7911C59.9957-10.0311 58.5557-8.59111 56.7957-8.59111ZM31.5957-8.59111C29.8357-8.59111 28.3957-10.0311 28.3957-11.7911L28.3957-14.8311C28.3957-16.5911 29.8357-18.0311 31.5957-18.0311C33.3557-18.0311 34.7957-16.5911 34.7957-14.8311L34.7957-11.7911C34.7957-10.0311 33.3557-8.59111 31.5957-8.59111ZM61.0357-14.5111L27.6757-14.5111C24.5557-14.5111 21.9157-17.0711 21.9157-20.2711L22.8757-56.0311C22.8757-59.1511 25.4357-61.7911 28.6357-61.7911L59.9957-61.7911C63.1157-61.7911 65.7557-59.2311 65.7557-56.0311L66.7157-20.2711C66.7957-17.1511 64.2357-14.5111 61.0357-14.5111ZM56.7957-19.8711C55.0357-19.8711 53.5157-21.3111 53.5157-23.1511C53.5157-24.9911 54.9557-26.4311 56.7957-26.4311C58.624-26.4311 60.0757-24.9911 60.0757-23.1511C60.0757-21.3111 58.5557-19.8711 56.7957-19.8711ZM56.7957-21.4711C55.9157-21.4711 55.1957-22.1911 55.1957-23.0711C55.1957-23.9511 55.9157-24.6711 56.7957-24.6711C57.6757-24.6711 58.3957-23.9511 58.3957-23.0711C58.3957-22.1911 57.6757-21.4711 56.7957-21.4711ZM31.5957-19.8711C29.8357-19.8711 28.3157-21.3111 28.3157-23.1511C28.3157-24.9911 29.7557-26.4311 31.5957-26.4311C33.424-26.4311 34.8757-24.9911 34.8757-23.1511C34.8757-21.3111 33.4357-19.8711 31.5957-19.8711ZM31.5957-21.4711C30.7157-21.4711 29.9957-22.1911 29.9957-23.0711C29.9957-23.9511 30.7157-24.6711 31.5957-24.6711C32.4757-24.6711 33.1957-23.9511 33.1957-23.0711C33.2757-22.1911 32.5557-21.4711 31.5957-21.4711ZM62.5557-53.4711L25.9957-53.4711L25.9957-55.9511C25.9957-57.3911 27.1157-58.4311 28.4757-58.4311L59.9957-58.4311C61.4357-58.4311 62.4757-57.3111 62.4757-55.9511L62.5557-53.4711ZM42.0757-31.5511L27.2757-31.5511C26.5557-31.5511 25.9957-32.1111 25.9957-32.8311L26.3157-48.9911C26.3157-49.7111 26.8757-50.2711 27.5957-50.2711L42.0757-50.2711C42.7957-50.2711 43.3557-49.7111 43.3557-48.9911L43.3557-32.8311C43.3557-32.1911 42.7957-31.5511 42.0757-31.5511ZM46.5557-31.5511L61.3557-31.5511C62.0757-31.5511 62.6357-32.1111 62.6357-32.8311L62.3157-48.9911C62.3157-49.7111 61.7557-50.2711 61.0357-50.2711L46.5557-50.2711C45.8357-50.2711 45.2757-49.7111 45.2757-48.9911L45.2757-32.8311C45.2757-32.1911 45.8357-31.5511 46.5557-31.5511Z"/>
  </g>
 </g>
 <g id="LayerTree">
  <g class="monochrome-0 multicolor-0:custom hierarchical-0:tertiary"/>
  <g class="monochrome-1 multicolor-1:white hierarchical-1:primary">
   <g class="shapeGroupLayer-0"/>
   <g class="shapeGroupLayer-1"/>
   <g class="shapeGroupLayer-2"/>
   <g class="shapeGroupLayer-3"/>
   <g class="shapeGroupLayer-4"/>
   <g class="shapeGroupLayer-5"/>
  </g>
 </g>
</svg>
