<?xml version="1.0" encoding="UTF-8"?>
<!--Generator: Apple Native CoreSVG 341-->
<!DOCTYPE svg
PUBLIC "-//W3C//DTD SVG 1.1//EN"
       "http://www.w3.org/Graphics/SVG/1.1/DTD/svg11.dtd">
<svg version="1.1" xmlns="http://www.w3.org/2000/svg" xmlns:xlink="http://www.w3.org/1999/xlink" viewBox="0 0 3300 2200">
 <!--glyph: "", point size: 100.0, font version: "20.0d10e1", template writer version: "138.0.0"-->
 <style>.monochrome-0 {-sfsymbols-motion-group:8;-sfsymbols-layer-tags:5daf1410120f4ef8}
.monochrome-1 {-sfsymbols-motion-group:7;-sfsymbols-layer-tags:5daf1410120f4ef8}
.monochrome-2 {opacity:0.0;-sfsymbols-clear-behind:true;-sfsymbols-motion-group:6;-sfsymbols-layer-tags:5daf1410120f4ef8}
.monochrome-3 {-sfsymbols-motion-group:5;-sfsymbols-layer-tags:5daf1410120f4ef8}
.monochrome-4 {-sfsymbols-motion-group:4;-sfsymbols-layer-tags:5daf1410120f4ef8}
.monochrome-5 {opacity:0.0;-sfsymbols-clear-behind:true;-sfsymbols-motion-group:3;-sfsymbols-layer-tags:5daf1410120f4ef8}
.monochrome-6 {opacity:0.0;-sfsymbols-clear-behind:true;-sfsymbols-motion-group:2;-sfsymbols-layer-tags:5daf1410120f4ef8}
.monochrome-7 {-sfsymbols-motion-group:1;-sfsymbols-layer-tags:5daf1410120f4ef8}
.monochrome-8 {opacity:0.0;-sfsymbols-clear-behind:true;-sfsymbols-motion-group:0;-sfsymbols-layer-tags:5daf1410120f4ef8}

.multicolor-0:quaternaryLabelColor {-sfsymbols-motion-group:8;-sfsymbols-layer-tags:5daf1410120f4ef8}
.multicolor-1:systemGrayColor {-sfsymbols-motion-group:7;-sfsymbols-layer-tags:5daf1410120f4ef8}
.multicolor-2:tintColor {opacity:0.0;-sfsymbols-clear-behind:true;-sfsymbols-motion-group:6;-sfsymbols-layer-tags:5daf1410120f4ef8}
.multicolor-3:secondaryLabelColor {-sfsymbols-clear-behind:true;-sfsymbols-motion-group:5;-sfsymbols-layer-tags:5daf1410120f4ef8}
.multicolor-4:custom {fill:#78BE20;-sfsymbols-clear-behind:true;-sfsymbols-motion-group:4;-sfsymbols-layer-tags:5daf1410120f4ef8}
.multicolor-5:systemYellowColor {-sfsymbols-motion-group:3;-sfsymbols-layer-tags:5daf1410120f4ef8}
.multicolor-6:tintColor {opacity:0.0;-sfsymbols-clear-behind:true;-sfsymbols-motion-group:2;-sfsymbols-layer-tags:5daf1410120f4ef8}
.multicolor-7:systemMintColor {-sfsymbols-motion-group:1;-sfsymbols-layer-tags:5daf1410120f4ef8}
.multicolor-8:systemGrayColor {-sfsymbols-clear-behind:true;-sfsymbols-motion-group:0;-sfsymbols-layer-tags:5daf1410120f4ef8}

.hierarchical-0:secondary {-sfsymbols-motion-group:8;-sfsymbols-layer-tags:5daf1410120f4ef8}
.hierarchical-1:secondary {-sfsymbols-motion-group:7;-sfsymbols-layer-tags:5daf1410120f4ef8}
.hierarchical-2:primary {opacity:0.0;-sfsymbols-clear-behind:true;-sfsymbols-motion-group:6;-sfsymbols-layer-tags:5daf1410120f4ef8}
.hierarchical-3:secondary {-sfsymbols-clear-behind:true;-sfsymbols-motion-group:5;-sfsymbols-layer-tags:5daf1410120f4ef8}
.hierarchical-4:secondary {-sfsymbols-clear-behind:true;-sfsymbols-motion-group:4;-sfsymbols-layer-tags:5daf1410120f4ef8}
.hierarchical-5:primary {-sfsymbols-motion-group:3;-sfsymbols-layer-tags:5daf1410120f4ef8}
.hierarchical-6:tertiary {-sfsymbols-clear-behind:true;-sfsymbols-motion-group:2;-sfsymbols-layer-tags:5daf1410120f4ef8}
.hierarchical-7:primary {-sfsymbols-motion-group:1;-sfsymbols-layer-tags:5daf1410120f4ef8}
.hierarchical-8:tertiary {-sfsymbols-clear-behind:true;-sfsymbols-motion-group:0;-sfsymbols-layer-tags:5daf1410120f4ef8}

.SFSymbolsPreviewWireframe {fill:none;opacity:1.0;stroke:black;stroke-width:0.5}
</style>
 <g id="Notes">
  <rect height="2200" id="artboard" style="fill:white;opacity:1" width="3300" x="0" y="0"/>
  <line style="fill:none;stroke:black;opacity:1;stroke-width:0.5;" x1="263" x2="3036" y1="292" y2="292"/>
  <text style="stroke:none;fill:black;font-family:sans-serif;font-size:13;font-weight:bold;" transform="matrix(1 0 0 1 263 322)">Weight/Scale Variations</text>
  <text style="stroke:none;fill:black;font-family:sans-serif;font-size:13;text-anchor:middle;" transform="matrix(1 0 0 1 559.711 322)">Ultralight</text>
  <text style="stroke:none;fill:black;font-family:sans-serif;font-size:13;text-anchor:middle;" transform="matrix(1 0 0 1 856.422 322)">Thin</text>
  <text style="stroke:none;fill:black;font-family:sans-serif;font-size:13;text-anchor:middle;" transform="matrix(1 0 0 1 1153.13 322)">Light</text>
  <text style="stroke:none;fill:black;font-family:sans-serif;font-size:13;text-anchor:middle;" transform="matrix(1 0 0 1 1449.84 322)">Regular</text>
  <text style="stroke:none;fill:black;font-family:sans-serif;font-size:13;text-anchor:middle;" transform="matrix(1 0 0 1 1746.56 322)">Medium</text>
  <text style="stroke:none;fill:black;font-family:sans-serif;font-size:13;text-anchor:middle;" transform="matrix(1 0 0 1 2043.27 322)">Semibold</text>
  <text style="stroke:none;fill:black;font-family:sans-serif;font-size:13;text-anchor:middle;" transform="matrix(1 0 0 1 2339.98 322)">Bold</text>
  <text style="stroke:none;fill:black;font-family:sans-serif;font-size:13;text-anchor:middle;" transform="matrix(1 0 0 1 2636.69 322)">Heavy</text>
  <text style="stroke:none;fill:black;font-family:sans-serif;font-size:13;text-anchor:middle;" transform="matrix(1 0 0 1 2933.4 322)">Black</text>
  <line style="fill:none;stroke:black;opacity:1;stroke-width:0.5;" x1="263" x2="3036" y1="1903" y2="1903"/>
  <g transform="matrix(0.2 0 0 0.2 263 1933)">
   <path d="m46.2402 4.15039c21.7773 0 39.4531-17.627 39.4531-39.4043s-17.6758-39.4043-39.4531-39.4043c-21.7285 0-39.4043 17.627-39.4043 39.4043s17.6758 39.4043 39.4043 39.4043Zm0-7.42188c-17.6758 0-31.9336-14.3066-31.9336-31.9824s14.2578-31.9824 31.9336-31.9824 31.9824 14.3066 31.9824 31.9824-14.3066 31.9824-31.9824 31.9824Zm-17.9688-31.9824c0 2.14844 1.51367 3.61328 3.75977 3.61328h10.498v10.5957c0 2.19727 1.46484 3.71094 3.61328 3.71094 2.24609 0 3.71094-1.51367 3.71094-3.71094v-10.5957h10.5957c2.19727 0 3.71094-1.46484 3.71094-3.61328 0-2.19727-1.51367-3.71094-3.71094-3.71094h-10.5957v-10.5469c0-2.24609-1.46484-3.75977-3.71094-3.75977-2.14844 0-3.61328 1.51367-3.61328 3.75977v10.5469h-10.498c-2.24609 0-3.75977 1.51367-3.75977 3.71094Z"/>
  </g>
  <g transform="matrix(0.2 0 0 0.2 281.506 1933)">
   <path d="m58.5449 14.5508c27.4902 0 49.8047-22.3145 49.8047-49.8047s-22.3145-49.8047-49.8047-49.8047-49.8047 22.3145-49.8047 49.8047 22.3145 49.8047 49.8047 49.8047Zm0-8.30078c-22.9492 0-41.5039-18.5547-41.5039-41.5039s18.5547-41.5039 41.5039-41.5039 41.5039 18.5547 41.5039 41.5039-18.5547 41.5039-41.5039 41.5039Zm-22.6562-41.5039c0 2.39258 1.66016 4.00391 4.15039 4.00391h14.3555v14.4043c0 2.44141 1.66016 4.15039 4.05273 4.15039 2.44141 0 4.15039-1.66016 4.15039-4.15039v-14.4043h14.4043c2.44141 0 4.15039-1.61133 4.15039-4.00391 0-2.44141-1.70898-4.15039-4.15039-4.15039h-14.4043v-14.3555c0-2.49023-1.70898-4.19922-4.15039-4.19922-2.39258 0-4.05273 1.70898-4.05273 4.19922v14.3555h-14.3555c-2.49023 0-4.15039 1.70898-4.15039 4.15039Z"/>
  </g>
  <g transform="matrix(0.2 0 0 0.2 304.924 1933)">
   <path d="m74.8535 28.3203c35.1074 0 63.623-28.4668 63.623-63.5742s-28.5156-63.623-63.623-63.623-63.5742 28.5156-63.5742 63.623 28.4668 63.5742 63.5742 63.5742Zm0-9.08203c-30.127 0-54.4922-24.3652-54.4922-54.4922s24.3652-54.4922 54.4922-54.4922 54.4922 24.3652 54.4922 54.4922-24.3652 54.4922-54.4922 54.4922Zm-28.8574-54.4922c0 2.58789 1.85547 4.39453 4.58984 4.39453h19.7266v19.7754c0 2.68555 1.85547 4.58984 4.44336 4.58984 2.68555 0 4.54102-1.85547 4.54102-4.58984v-19.7754h19.7754c2.68555 0 4.58984-1.80664 4.58984-4.39453 0-2.73438-1.85547-4.58984-4.58984-4.58984h-19.7754v-19.7266c0-2.73438-1.85547-4.63867-4.54102-4.63867-2.58789 0-4.44336 1.9043-4.44336 4.63867v19.7266h-19.7266c-2.73438 0-4.58984 1.85547-4.58984 4.58984Z"/>
  </g>
  <text style="stroke:none;fill:black;font-family:sans-serif;font-size:13;font-weight:bold;" transform="matrix(1 0 0 1 263 1953)">Design Variations</text>
  <text style="stroke:none;fill:black;font-family:sans-serif;font-size:13;" transform="matrix(1 0 0 1 263 1971)">Symbols are supported in up to nine weights and three scales.</text>
  <text style="stroke:none;fill:black;font-family:sans-serif;font-size:13;" transform="matrix(1 0 0 1 263 1989)">For optimal layout with text and other symbols, vertically align</text>
  <text style="stroke:none;fill:black;font-family:sans-serif;font-size:13;" transform="matrix(1 0 0 1 263 2007)">symbols with the adjacent text.</text>
  <line style="fill:none;stroke:#00AEEF;stroke-width:0.5;opacity:1.0;" x1="776" x2="776" y1="1919" y2="1933"/>
  <g transform="matrix(0.2 0 0 0.2 776 1933)">
   <path d="m16.5527 0.78125c2.58789 0 3.85742-0.976562 4.78516-3.71094l6.29883-17.2363h28.8086l6.29883 17.2363c0.927734 2.73438 2.19727 3.71094 4.73633 3.71094 2.58789 0 4.24805-1.5625 4.24805-4.00391 0-0.830078-0.146484-1.61133-0.537109-2.63672l-22.9004-60.9863c-1.12305-2.97852-3.125-4.49219-6.25-4.49219-3.02734 0-5.07812 1.46484-6.15234 4.44336l-22.9004 61.084c-0.390625 1.02539-0.537109 1.80664-0.537109 2.63672 0 2.44141 1.5625 3.95508 4.10156 3.95508Zm13.4766-28.3691 11.8652-32.8613h0.244141l11.8652 32.8613Z"/>
  </g>
  <line style="fill:none;stroke:#00AEEF;stroke-width:0.5;opacity:1.0;" x1="792.836" x2="792.836" y1="1919" y2="1933"/>
  <text style="stroke:none;fill:black;font-family:sans-serif;font-size:13;font-weight:bold;" transform="matrix(1 0 0 1 776 1953)">Margins</text>
  <text style="stroke:none;fill:black;font-family:sans-serif;font-size:13;" transform="matrix(1 0 0 1 776 1971)">Leading and trailing margins on the left and right side of each symbol</text>
  <text style="stroke:none;fill:black;font-family:sans-serif;font-size:13;" transform="matrix(1 0 0 1 776 1989)">can be adjusted by modifying the x-location of the margin guidelines.</text>
  <text style="stroke:none;fill:black;font-family:sans-serif;font-size:13;" transform="matrix(1 0 0 1 776 2007)">Modifications are automatically applied proportionally to all</text>
  <text style="stroke:none;fill:black;font-family:sans-serif;font-size:13;" transform="matrix(1 0 0 1 776 2025)">scales and weights.</text>
  <g transform="matrix(0.2 0 0 0.2 1289 1933)">
   <path d="m14.209 9.32617 8.49609 8.54492c4.29688 4.3457 9.22852 4.05273 13.8672-1.07422l53.4668-58.9355-4.83398-4.88281-53.0762 58.3984c-1.75781 2.00195-3.41797 2.49023-5.76172 0.146484l-5.85938-5.81055c-2.34375-2.29492-1.80664-4.00391 0.195312-5.81055l57.373-54.0039-4.88281-4.83398-57.959 54.4434c-4.93164 4.58984-5.32227 9.47266-1.02539 13.8184Zm32.0801-90.9668c-2.09961 2.05078-2.24609 4.93164-1.07422 6.88477 1.17188 1.80664 3.4668 2.97852 6.68945 2.14844 7.32422-1.70898 14.9414-2.00195 22.0703 2.68555l-2.92969 7.27539c-1.70898 4.15039-0.830078 7.08008 1.85547 9.81445l11.4746 11.5723c2.44141 2.44141 4.49219 2.53906 7.32422 2.05078l5.32227-0.976562 3.32031 3.36914-0.195312 2.7832c-0.195312 2.49023 0.439453 4.39453 2.88086 6.78711l3.80859 3.71094c2.39258 2.39258 5.46875 2.53906 7.8125 0.195312l14.5508-14.5996c2.34375-2.34375 2.24609-5.32227-0.146484-7.71484l-3.85742-3.80859c-2.39258-2.39258-4.24805-3.17383-6.64062-2.97852l-2.88086 0.244141-3.22266-3.17383 1.2207-5.61523c0.634766-2.83203-0.146484-5.0293-3.07617-7.95898l-10.9863-10.9375c-16.6992-16.6016-38.8672-16.2109-53.3203-1.75781Zm7.4707 1.85547c12.1582-8.88672 28.6133-7.37305 39.7461 3.75977l12.1582 12.0605c1.17188 1.17188 1.36719 2.09961 1.02539 3.80859l-1.61133 7.42188 7.51953 7.42188 4.93164-0.292969c1.26953-0.0488281 1.66016 0.0488281 2.63672 1.02539l2.88086 2.88086-12.207 12.207-2.88086-2.88086c-0.976562-0.976562-1.12305-1.36719-1.07422-2.68555l0.341797-4.88281-7.4707-7.42188-7.61719 1.26953c-1.61133 0.341797-2.34375 0.195312-3.56445-0.976562l-10.0098-10.0098c-1.26953-1.17188-1.41602-2.00195-0.634766-3.85742l4.39453-10.4492c-7.8125-7.27539-17.9688-10.4004-28.125-7.42188-0.78125 0.195312-1.07422-0.439453-0.439453-0.976562Z"/>
  </g>
  <text style="stroke:none;fill:black;font-family:sans-serif;font-size:13;font-weight:bold;" transform="matrix(1 0 0 1 1289 1953)">Exporting</text>
  <text style="stroke:none;fill:black;font-family:sans-serif;font-size:13;" transform="matrix(1 0 0 1 1289 1971)">Symbols should be outlined when exporting to ensure the</text>
  <text style="stroke:none;fill:black;font-family:sans-serif;font-size:13;" transform="matrix(1 0 0 1 1289 1989)">design is preserved when submitting to Xcode.</text>
  <text id="template-version" style="stroke:none;fill:black;font-family:sans-serif;font-size:13;text-anchor:end;" transform="matrix(1 0 0 1 3036 1933)">Template v.6.0</text>
  <text style="stroke:none;fill:black;font-family:sans-serif;font-size:13;text-anchor:end;" transform="matrix(1 0 0 1 3036 1951)">Requires Xcode 16 or greater</text>
  <text id="descriptive-name" style="stroke:none;fill:black;font-family:sans-serif;font-size:13;text-anchor:end;" transform="matrix(1 0 0 1 3036 1969)">Generated from ptv.tram</text>
  <text style="stroke:none;fill:black;font-family:sans-serif;font-size:13;text-anchor:end;" transform="matrix(1 0 0 1 3036 1987)">Typeset at 100.0 points</text>
  <text style="stroke:none;fill:black;font-family:sans-serif;font-size:13;" transform="matrix(1 0 0 1 263 726)">Small</text>
  <text style="stroke:none;fill:black;font-family:sans-serif;font-size:13;" transform="matrix(1 0 0 1 263 1156)">Medium</text>
  <text style="stroke:none;fill:black;font-family:sans-serif;font-size:13;" transform="matrix(1 0 0 1 263 1586)">Large</text>
 </g>
 <g id="Guides">
  <g id="H-reference" style="fill:#27AAE1;stroke:none;" transform="matrix(1 0 0 1 339 696)">
   <path d="M0.993654 0L3.63775 0L29.3281-67.1323L30.0303-67.1323L30.0303-70.459L28.1226-70.459ZM11.6885-24.4799L46.9815-24.4799L46.2315-26.7285L12.4385-26.7285ZM55.1196 0L57.7637 0L30.6382-70.459L29.4326-70.459L29.4326-67.1323Z"/>
  </g>
  <line id="Baseline-S" style="fill:none;stroke:#27AAE1;opacity:1;stroke-width:0.5;" x1="263" x2="3036" y1="696" y2="696"/>
  <line id="Capline-S" style="fill:none;stroke:#27AAE1;opacity:1;stroke-width:0.5;" x1="263" x2="3036" y1="625.541" y2="625.541"/>
  <g id="H-reference" style="fill:#27AAE1;stroke:none;" transform="matrix(1 0 0 1 339 1126)">
   <path d="M0.993654 0L3.63775 0L29.3281-67.1323L30.0303-67.1323L30.0303-70.459L28.1226-70.459ZM11.6885-24.4799L46.9815-24.4799L46.2315-26.7285L12.4385-26.7285ZM55.1196 0L57.7637 0L30.6382-70.459L29.4326-70.459L29.4326-67.1323Z"/>
  </g>
  <line id="Baseline-M" style="fill:none;stroke:#27AAE1;opacity:1;stroke-width:0.5;" x1="263" x2="3036" y1="1126" y2="1126"/>
  <line id="Capline-M" style="fill:none;stroke:#27AAE1;opacity:1;stroke-width:0.5;" x1="263" x2="3036" y1="1055.54" y2="1055.54"/>
  <g id="H-reference" style="fill:#27AAE1;stroke:none;" transform="matrix(1 0 0 1 339 1556)">
   <path d="M0.993654 0L3.63775 0L29.3281-67.1323L30.0303-67.1323L30.0303-70.459L28.1226-70.459ZM11.6885-24.4799L46.9815-24.4799L46.2315-26.7285L12.4385-26.7285ZM55.1196 0L57.7637 0L30.6382-70.459L29.4326-70.459L29.4326-67.1323Z"/>
  </g>
  <line id="Baseline-L" style="fill:none;stroke:#27AAE1;opacity:1;stroke-width:0.5;" x1="263" x2="3036" y1="1556" y2="1556"/>
  <line id="Capline-L" style="fill:none;stroke:#27AAE1;opacity:1;stroke-width:0.5;" x1="263" x2="3036" y1="1485.54" y2="1485.54"/>
  <line id="right-margin-Black-S" style="fill:none;stroke:#00AEEF;stroke-width:0.5;opacity:1.0;" x1="2982.2" x2="2982.2" y1="600.785" y2="720.121"/>
  <line id="left-margin-Black-S" style="fill:none;stroke:#00AEEF;stroke-width:0.5;opacity:1.0;" x1="2884.6" x2="2884.6" y1="600.785" y2="720.121"/>
  <line id="right-margin-Regular-S" style="fill:none;stroke:#00AEEF;stroke-width:0.5;opacity:1.0;" x1="1496.09" x2="1496.09" y1="600.785" y2="720.121"/>
  <line id="left-margin-Regular-S" style="fill:none;stroke:#00AEEF;stroke-width:0.5;opacity:1.0;" x1="1403.59" x2="1403.59" y1="600.785" y2="720.121"/>
  <line id="right-margin-Ultralight-S" style="fill:none;stroke:#00AEEF;stroke-width:0.5;opacity:1.0;" x1="603.811" x2="603.811" y1="600.785" y2="720.121"/>
  <line id="left-margin-Ultralight-S" style="fill:none;stroke:#00AEEF;stroke-width:0.5;opacity:1.0;" x1="515.611" x2="515.611" y1="600.785" y2="720.121"/>
 </g>
 <g id="Symbols">
  <g id="Black-S" transform="matrix(1 0 0 1 2884.6 696)">
   <path class="monochrome-0 multicolor-0:quaternaryLabelColor hierarchical-0:secondary SFSymbolsPreviewWireframe" d="M34.8-6C35.3-6 35.8-5.5 35.8-5L35.8-1.2C35.8-0.7 35.3-0.2 34.8-0.2C34.3-0.2 33.8-0.7 33.8-1.2L33.8-5C33.8-5.5 34.2-6 34.8-6ZM61.1-6C61.6-6 62.1-5.5 62.1-5L62.1-1.2C62.1-0.7 61.6-0.2 61.1-0.2C60.6-0.2 60.1-0.7 60.1-1.2L60.1-5C60-5.5 60.6-6 61.1-6Z"/>
   <path class="monochrome-1 multicolor-1:systemGrayColor hierarchical-1:secondary SFSymbolsPreviewWireframe" d="M31.7-70.2L62.5-70.2C64.7-70.2 66.5-68.4 66.5-66.2C66.5-65.4 66-64.8 65.1-64.8L28.9-64.8C28.1-64.8 27.5-65.3 27.5-66.2C27.7-68.3 29.4-70.2 31.7-70.2Z"/>
   <path class="monochrome-2 multicolor-2:tintColor hierarchical-2:primary SFSymbolsPreviewWireframe" d="M32.2-68.2L61.8-68.2C63.2-68.2 64.5-67 64.5-65.5L64.5-62.8L29.6-62.8L29.6-65.4C29.6-66.9 30.8-68.2 32.2-68.2Z"/>
   <path class="monochrome-3 multicolor-3:secondaryLabelColor hierarchical-3:secondary SFSymbolsPreviewWireframe" d="M47.2-69.9C47.7-69.9 48-69.6 48-69.1L48-62.9C48-62.4 47.7-62.1 47.2-62.1C46.7-62.1 46.4-62.4 46.4-62.9L46.4-69.1C46.4-69.5 46.8-69.9 47.2-69.9Z"/>
   <path class="monochrome-4 multicolor-4:custom hierarchical-4:secondary SFSymbolsPreviewWireframe" d="M68.8-3.8L27.6-3.8C24.2-3.8 21.4-6.6 21.4-10L23-49.3C23-63.2 23.7-63.2 35.4-63.2L61.2-63.2C73.4-63.2 73.6-63.2 73.6-49.3L75.2-10C75-6.6 72.2-3.8 68.8-3.8Z"/>
   <path class="monochrome-5 multicolor-5:systemYellowColor hierarchical-5:primary SFSymbolsPreviewWireframe" d="M27.9-13.1C27.9-14.3 28.9-15.3 30.1-15.3L37.7-15.3C38.9-15.3 39.9-14.3 39.9-13.1C39.9-11.9 38.9-10.9 37.7-10.9L30.1-10.9C28.9-10.9 27.9-11.9 27.9-13.1ZM55.7-13.1C55.7-14.3 56.7-15.3 57.9-15.3L65.5-15.3C66.7-15.3 67.7-14.3 67.7-13.1C67.7-11.9 66.7-10.9 65.5-10.9L57.9-10.9C56.7-10.9 55.7-11.9 55.7-13.1Z"/>
   <path class="monochrome-6 multicolor-6:tintColor hierarchical-6:tertiary SFSymbolsPreviewWireframe" d="M63.6-18.8L32.8-18.8C30.2-18.8 28.2-20.5 28.2-22.6L29.3-47C29.3-55.7 29.8-55.7 38.6-55.7L57.8-55.7C66.9-55.7 67.1-55.7 67.1-47L68.2-22.5C68.1-20.4 66.2-18.8 63.6-18.8Z"/>
   <path class="monochrome-7 multicolor-7:systemMintColor hierarchical-7:primary SFSymbolsPreviewWireframe" d="M60.5-22.4L35.9-22.4C33.9-22.4 32.2-23.8 32.2-25.5L33.1-45.1C33.1-52 33.4-52 40.5-52L55.8-52C63-52 63.2-52 63.2-45.1L64.1-25.5C64.2-23.9 62.5-22.4 60.5-22.4Z"/>
   <path class="monochrome-8 multicolor-8:systemGrayColor hierarchical-8:tertiary SFSymbolsPreviewWireframe" d="M40.3-39.4C40.8-39.3 41.3-38.9 41.2-38.3L39.8-25.8C39.7-25.3 39.3-24.8 38.7-24.9C38.2-25 37.7-25.4 37.8-26L39.2-38.5C39.2-39.1 39.7-39.4 40.3-39.4ZM46.8-21C46.3-20.7 45.7-20.8 45.4-21.2L38.8-30.6C38.5-31.1 38.6-31.7 39-32C39.5-32.3 40.1-32.2 40.4-31.8L47-22.4C47.3-22.1 47.2-21.4 46.8-21Z"/>
  </g>
  <g id="Regular-S" transform="matrix(1 0 0 1 1403.59 696)">
   <path class="monochrome-0 multicolor-0:quaternaryLabelColor hierarchical-0:secondary SFSymbolsPreviewWireframe" d="M32.8-6C33.3-6 33.8-5.5 33.8-5L33.8-1.2C33.8-0.7 33.3-0.2 32.8-0.2C32.3-0.2 31.8-0.7 31.8-1.2L31.8-5C31.8-5.5 32.2-6 32.8-6ZM59.1-6C59.6-6 60.1-5.5 60.1-5L60.1-1.2C60.1-0.7 59.6-0.2 59.1-0.2C58.6-0.2 58.1-0.7 58.1-1.2L58.1-5C58-5.5 58.6-6 59.1-6Z"/>
   <path class="monochrome-1 multicolor-1:systemGrayColor hierarchical-1:secondary SFSymbolsPreviewWireframe" d="M29.7-70.2L60.5-70.2C62.7-70.2 64.5-68.4 64.5-66.2C64.5-65.4 64-64.8 63.1-64.8L26.9-64.8C26.1-64.8 25.5-65.3 25.5-66.2C25.7-68.3 27.4-70.2 29.7-70.2Z"/>
   <path class="monochrome-2 multicolor-2:tintColor hierarchical-2:primary SFSymbolsPreviewWireframe" d="M30.2-68.2L59.8-68.2C61.2-68.2 62.5-67 62.5-65.5L62.5-62.8L27.6-62.8L27.6-65.4C27.6-66.9 28.8-68.2 30.2-68.2Z"/>
   <path class="monochrome-3 multicolor-3:secondaryLabelColor hierarchical-3:secondary SFSymbolsPreviewWireframe" d="M45.2-69.9C45.7-69.9 46-69.6 46-69.1L46-62.9C46-62.4 45.7-62.1 45.2-62.1C44.7-62.1 44.4-62.4 44.4-62.9L44.4-69.1C44.4-69.5 44.8-69.9 45.2-69.9Z"/>
   <path class="monochrome-4 multicolor-4:custom hierarchical-4:secondary SFSymbolsPreviewWireframe" d="M66.8-3.8L25.6-3.8C22.2-3.8 19.4-6.6 19.4-10L21-49.3C21-63.2 21.7-63.2 33.4-63.2L59.2-63.2C71.4-63.2 71.6-63.2 71.6-49.3L73.2-10C73-6.6 70.2-3.8 66.8-3.8Z"/>
   <path class="monochrome-5 multicolor-5:systemYellowColor hierarchical-5:primary SFSymbolsPreviewWireframe" d="M25.9-13.1C25.9-14.3 26.9-15.3 28.1-15.3L35.7-15.3C36.9-15.3 37.9-14.3 37.9-13.1C37.9-11.9 36.9-10.9 35.7-10.9L28.1-10.9C26.9-10.9 25.9-11.9 25.9-13.1ZM53.7-13.1C53.7-14.3 54.7-15.3 55.9-15.3L63.5-15.3C64.7-15.3 65.7-14.3 65.7-13.1C65.7-11.9 64.7-10.9 63.5-10.9L55.9-10.9C54.7-10.9 53.7-11.9 53.7-13.1Z"/>
   <path class="monochrome-6 multicolor-6:tintColor hierarchical-6:tertiary SFSymbolsPreviewWireframe" d="M61.6-18.8L30.8-18.8C28.2-18.8 26.2-20.5 26.2-22.6L27.3-47C27.3-55.7 27.8-55.7 36.6-55.7L55.8-55.7C64.9-55.7 65.1-55.7 65.1-47L66.2-22.5C66.1-20.4 64.2-18.8 61.6-18.8Z"/>
   <path class="monochrome-7 multicolor-7:systemMintColor hierarchical-7:primary SFSymbolsPreviewWireframe" d="M58.5-22.4L33.9-22.4C31.9-22.4 30.2-23.8 30.2-25.5L31.1-45.1C31.1-52 31.4-52 38.5-52L53.8-52C61-52 61.2-52 61.2-45.1L62.1-25.5C62.2-23.9 60.5-22.4 58.5-22.4Z"/>
   <path class="monochrome-8 multicolor-8:systemGrayColor hierarchical-8:tertiary SFSymbolsPreviewWireframe" d="M38.3-39.4C38.8-39.3 39.3-38.9 39.2-38.3L37.8-25.8C37.7-25.3 37.3-24.8 36.7-24.9C36.2-25 35.7-25.4 35.8-26L37.2-38.5C37.2-39.1 37.7-39.4 38.3-39.4ZM44.8-21C44.3-20.7 43.7-20.8 43.4-21.2L36.8-30.6C36.5-31.1 36.6-31.7 37-32C37.5-32.3 38.1-32.2 38.4-31.8L45-22.4C45.3-22.1 45.2-21.4 44.8-21Z"/>
  </g>
  <g id="Ultralight-S" transform="matrix(1 0 0 1 515.611 696)">
   <path class="monochrome-0 multicolor-0:quaternaryLabelColor hierarchical-0:secondary SFSymbolsPreviewWireframe" d="M30.8-6C31.3-6 31.8-5.5 31.8-5L31.8-1.2C31.8-0.7 31.3-0.2 30.8-0.2C30.3-0.2 29.8-0.7 29.8-1.2L29.8-5C29.8-5.5 30.2-6 30.8-6ZM57.1-6C57.6-6 58.1-5.5 58.1-5L58.1-1.2C58.1-0.7 57.6-0.2 57.1-0.2C56.6-0.2 56.1-0.7 56.1-1.2L56.1-5C56-5.5 56.6-6 57.1-6Z"/>
   <path class="monochrome-1 multicolor-1:systemGrayColor hierarchical-1:secondary SFSymbolsPreviewWireframe" d="M27.7-70.2L58.5-70.2C60.7-70.2 62.5-68.4 62.5-66.2C62.5-65.4 62-64.8 61.1-64.8L24.9-64.8C24.1-64.8 23.5-65.3 23.5-66.2C23.7-68.3 25.4-70.2 27.7-70.2Z"/>
   <path class="monochrome-2 multicolor-2:tintColor hierarchical-2:primary SFSymbolsPreviewWireframe" d="M28.2-68.2L57.8-68.2C59.2-68.2 60.5-67 60.5-65.5L60.5-62.8L25.6-62.8L25.6-65.4C25.6-66.9 26.8-68.2 28.2-68.2Z"/>
   <path class="monochrome-3 multicolor-3:secondaryLabelColor hierarchical-3:secondary SFSymbolsPreviewWireframe" d="M43.2-69.9C43.7-69.9 44-69.6 44-69.1L44-62.9C44-62.4 43.7-62.1 43.2-62.1C42.7-62.1 42.4-62.4 42.4-62.9L42.4-69.1C42.4-69.5 42.8-69.9 43.2-69.9Z"/>
   <path class="monochrome-4 multicolor-4:custom hierarchical-4:secondary SFSymbolsPreviewWireframe" d="M64.8-3.8L23.6-3.8C20.2-3.8 17.4-6.6 17.4-10L19-49.3C19-63.2 19.7-63.2 31.4-63.2L57.2-63.2C69.4-63.2 69.6-63.2 69.6-49.3L71.2-10C71-6.6 68.2-3.8 64.8-3.8Z"/>
   <path class="monochrome-5 multicolor-5:systemYellowColor hierarchical-5:primary SFSymbolsPreviewWireframe" d="M23.9-13.1C23.9-14.3 24.9-15.3 26.1-15.3L33.7-15.3C34.9-15.3 35.9-14.3 35.9-13.1C35.9-11.9 34.9-10.9 33.7-10.9L26.1-10.9C24.9-10.9 23.9-11.9 23.9-13.1ZM51.7-13.1C51.7-14.3 52.7-15.3 53.9-15.3L61.5-15.3C62.7-15.3 63.7-14.3 63.7-13.1C63.7-11.9 62.7-10.9 61.5-10.9L53.9-10.9C52.7-10.9 51.7-11.9 51.7-13.1Z"/>
   <path class="monochrome-6 multicolor-6:tintColor hierarchical-6:tertiary SFSymbolsPreviewWireframe" d="M59.6-18.8L28.8-18.8C26.2-18.8 24.2-20.5 24.2-22.6L25.3-47C25.3-55.7 25.8-55.7 34.6-55.7L53.8-55.7C62.9-55.7 63.1-55.7 63.1-47L64.2-22.5C64.1-20.4 62.2-18.8 59.6-18.8Z"/>
   <path class="monochrome-7 multicolor-7:systemMintColor hierarchical-7:primary SFSymbolsPreviewWireframe" d="M56.5-22.4L31.9-22.4C29.9-22.4 28.2-23.8 28.2-25.5L29.1-45.1C29.1-52 29.4-52 36.5-52L51.8-52C59-52 59.2-52 59.2-45.1L60.1-25.5C60.2-23.9 58.5-22.4 56.5-22.4Z"/>
   <path class="monochrome-8 multicolor-8:systemGrayColor hierarchical-8:tertiary SFSymbolsPreviewWireframe" d="M36.3-39.4C36.8-39.3 37.3-38.9 37.2-38.3L35.8-25.8C35.7-25.3 35.3-24.8 34.7-24.9C34.2-25 33.7-25.4 33.8-26L35.2-38.5C35.2-39.1 35.7-39.4 36.3-39.4ZM42.8-21C42.3-20.7 41.7-20.8 41.4-21.2L34.8-30.6C34.5-31.1 34.6-31.7 35-32C35.5-32.3 36.1-32.2 36.4-31.8L43-22.4C43.3-22.1 43.2-21.4 42.8-21Z"/>
  </g>
 </g>
</svg>
