<?xml version="1.0" encoding="UTF-8"?>
<!--Generator: Apple Native CoreSVG 341-->
<!DOCTYPE svg
PUBLIC "-//W3C//DTD SVG 1.1//EN"
       "http://www.w3.org/Graphics/SVG/1.1/DTD/svg11.dtd">
<svg version="1.1" xmlns="http://www.w3.org/2000/svg" xmlns:xlink="http://www.w3.org/1999/xlink" viewBox="0 0 3300 2200">
 <!--glyph: "", point size: 100.0, font version: "20.0d10e1", template writer version: "138.0.0"-->
 <style>.monochrome-0 {-sfsymbols-motion-group:1;-sfsymbols-indices:0;-sfsymbols-layer-tags:114e509ee108e41d circle.fill}
.monochrome-1 {opacity:0.0;-sfsymbols-clear-behind:true;-sfsymbols-motion-group:0;-sfsymbols-always-pulses:true;-sfsymbols-layer-tags:114e509ee108e41d}

.multicolor-0:custom {fill:#8F1A95;-sfsymbols-motion-group:1;-sfsymbols-indices:0;-sfsymbols-layer-tags:114e509ee108e41d circle.fill}
.multicolor-1:white {-sfsymbols-motion-group:0;-sfsymbols-always-pulses:true;-sfsymbols-layer-tags:114e509ee108e41d}

.hierarchical-0:tertiary {-sfsymbols-motion-group:1;-sfsymbols-indices:0;-sfsymbols-layer-tags:114e509ee108e41d circle.fill}
.hierarchical-1:primary {-sfsymbols-motion-group:0;-sfsymbols-layer-tags:114e509ee108e41d}

.shapeGroupLayer-0 {-sfsymbols-fill-action:draw;-sfsymbols-indices:5 6}
.shapeGroupLayer-1 {-sfsymbols-fill-action:draw;-sfsymbols-indices:7 8}
.shapeGroupLayer-2 {-sfsymbols-fill-action:draw;-sfsymbols-indices:1}
.shapeGroupLayer-3 {-sfsymbols-fill-action:erase;-sfsymbols-indices:9 10 11 12}
.shapeGroupLayer-4 {-sfsymbols-fill-action:erase;-sfsymbols-indices:2}
.shapeGroupLayer-5 {-sfsymbols-fill-action:draw;-sfsymbols-indices:3 4}

.SFSymbolsPreviewWireframe {fill:none;opacity:1.0;stroke:black;stroke-width:0.5}
</style>
 <g id="Notes">
  <rect height="2200" id="artboard" style="fill:white;opacity:1" width="3300" x="0" y="0"/>
  <line style="fill:none;stroke:black;opacity:1;stroke-width:0.5;" x1="263" x2="3036" y1="292" y2="292"/>
  <text style="stroke:none;fill:black;font-family:sans-serif;font-size:13;font-weight:bold;" transform="matrix(1 0 0 1 263 322)">Weight/Scale Variations</text>
  <text style="stroke:none;fill:black;font-family:sans-serif;font-size:13;text-anchor:middle;" transform="matrix(1 0 0 1 559.711 322)">Ultralight</text>
  <text style="stroke:none;fill:black;font-family:sans-serif;font-size:13;text-anchor:middle;" transform="matrix(1 0 0 1 856.422 322)">Thin</text>
  <text style="stroke:none;fill:black;font-family:sans-serif;font-size:13;text-anchor:middle;" transform="matrix(1 0 0 1 1153.13 322)">Light</text>
  <text style="stroke:none;fill:black;font-family:sans-serif;font-size:13;text-anchor:middle;" transform="matrix(1 0 0 1 1449.84 322)">Regular</text>
  <text style="stroke:none;fill:black;font-family:sans-serif;font-size:13;text-anchor:middle;" transform="matrix(1 0 0 1 1746.56 322)">Medium</text>
  <text style="stroke:none;fill:black;font-family:sans-serif;font-size:13;text-anchor:middle;" transform="matrix(1 0 0 1 2043.27 322)">Semibold</text>
  <text style="stroke:none;fill:black;font-family:sans-serif;font-size:13;text-anchor:middle;" transform="matrix(1 0 0 1 2339.98 322)">Bold</text>
  <text style="stroke:none;fill:black;font-family:sans-serif;font-size:13;text-anchor:middle;" transform="matrix(1 0 0 1 2636.69 322)">Heavy</text>
  <text style="stroke:none;fill:black;font-family:sans-serif;font-size:13;text-anchor:middle;" transform="matrix(1 0 0 1 2933.4 322)">Black</text>
  <line style="fill:none;stroke:black;opacity:1;stroke-width:0.5;" x1="263" x2="3036" y1="1903" y2="1903"/>
  <g transform="matrix(0.2 0 0 0.2 263 1933)">
   <path d="m46.2402 4.15039c21.7773 0 39.4531-17.627 39.4531-39.4043s-17.6758-39.4043-39.4531-39.4043c-21.7285 0-39.4043 17.627-39.4043 39.4043s17.6758 39.4043 39.4043 39.4043Zm0-7.42188c-17.6758 0-31.9336-14.3066-31.9336-31.9824s14.2578-31.9824 31.9336-31.9824 31.9824 14.3066 31.9824 31.9824-14.3066 31.9824-31.9824 31.9824Zm-17.9688-31.9824c0 2.14844 1.51367 3.61328 3.75977 3.61328h10.498v10.5957c0 2.19727 1.46484 3.71094 3.61328 3.71094 2.24609 0 3.71094-1.51367 3.71094-3.71094v-10.5957h10.5957c2.19727 0 3.71094-1.46484 3.71094-3.61328 0-2.19727-1.51367-3.71094-3.71094-3.71094h-10.5957v-10.5469c0-2.24609-1.46484-3.75977-3.71094-3.75977-2.14844 0-3.61328 1.51367-3.61328 3.75977v10.5469h-10.498c-2.24609 0-3.75977 1.51367-3.75977 3.71094Z"/>
  </g>
  <g transform="matrix(0.2 0 0 0.2 281.506 1933)">
   <path d="m58.5449 14.5508c27.4902 0 49.8047-22.3145 49.8047-49.8047s-22.3145-49.8047-49.8047-49.8047-49.8047 22.3145-49.8047 49.8047 22.3145 49.8047 49.8047 49.8047Zm0-8.30078c-22.9492 0-41.5039-18.5547-41.5039-41.5039s18.5547-41.5039 41.5039-41.5039 41.5039 18.5547 41.5039 41.5039-18.5547 41.5039-41.5039 41.5039Zm-22.6562-41.5039c0 2.39258 1.66016 4.00391 4.15039 4.00391h14.3555v14.4043c0 2.44141 1.66016 4.15039 4.05273 4.15039 2.44141 0 4.15039-1.66016 4.15039-4.15039v-14.4043h14.4043c2.44141 0 4.15039-1.61133 4.15039-4.00391 0-2.44141-1.70898-4.15039-4.15039-4.15039h-14.4043v-14.3555c0-2.49023-1.70898-4.19922-4.15039-4.19922-2.39258 0-4.05273 1.70898-4.05273 4.19922v14.3555h-14.3555c-2.49023 0-4.15039 1.70898-4.15039 4.15039Z"/>
  </g>
  <g transform="matrix(0.2 0 0 0.2 304.924 1933)">
   <path d="m74.8535 28.3203c35.1074 0 63.623-28.4668 63.623-63.5742s-28.5156-63.623-63.623-63.623-63.5742 28.5156-63.5742 63.623 28.4668 63.5742 63.5742 63.5742Zm0-9.08203c-30.127 0-54.4922-24.3652-54.4922-54.4922s24.3652-54.4922 54.4922-54.4922 54.4922 24.3652 54.4922 54.4922-24.3652 54.4922-54.4922 54.4922Zm-28.8574-54.4922c0 2.58789 1.85547 4.39453 4.58984 4.39453h19.7266v19.7754c0 2.68555 1.85547 4.58984 4.44336 4.58984 2.68555 0 4.54102-1.85547 4.54102-4.58984v-19.7754h19.7754c2.68555 0 4.58984-1.80664 4.58984-4.39453 0-2.73438-1.85547-4.58984-4.58984-4.58984h-19.7754v-19.7266c0-2.73438-1.85547-4.63867-4.54102-4.63867-2.58789 0-4.44336 1.9043-4.44336 4.63867v19.7266h-19.7266c-2.73438 0-4.58984 1.85547-4.58984 4.58984Z"/>
  </g>
  <text style="stroke:none;fill:black;font-family:sans-serif;font-size:13;font-weight:bold;" transform="matrix(1 0 0 1 263 1953)">Design Variations</text>
  <text style="stroke:none;fill:black;font-family:sans-serif;font-size:13;" transform="matrix(1 0 0 1 263 1971)">Symbols are supported in up to nine weights and three scales.</text>
  <text style="stroke:none;fill:black;font-family:sans-serif;font-size:13;" transform="matrix(1 0 0 1 263 1989)">For optimal layout with text and other symbols, vertically align</text>
  <text style="stroke:none;fill:black;font-family:sans-serif;font-size:13;" transform="matrix(1 0 0 1 263 2007)">symbols with the adjacent text.</text>
  <line style="fill:none;stroke:#00AEEF;stroke-width:0.5;opacity:1.0;" x1="776" x2="776" y1="1919" y2="1933"/>
  <g transform="matrix(0.2 0 0 0.2 776 1933)">
   <path d="m16.5527 0.78125c2.58789 0 3.85742-0.976562 4.78516-3.71094l6.29883-17.2363h28.8086l6.29883 17.2363c0.927734 2.73438 2.19727 3.71094 4.73633 3.71094 2.58789 0 4.24805-1.5625 4.24805-4.00391 0-0.830078-0.146484-1.61133-0.537109-2.63672l-22.9004-60.9863c-1.12305-2.97852-3.125-4.49219-6.25-4.49219-3.02734 0-5.07812 1.46484-6.15234 4.44336l-22.9004 61.084c-0.390625 1.02539-0.537109 1.80664-0.537109 2.63672 0 2.44141 1.5625 3.95508 4.10156 3.95508Zm13.4766-28.3691 11.8652-32.8613h0.244141l11.8652 32.8613Z"/>
  </g>
  <line style="fill:none;stroke:#00AEEF;stroke-width:0.5;opacity:1.0;" x1="792.836" x2="792.836" y1="1919" y2="1933"/>
  <text style="stroke:none;fill:black;font-family:sans-serif;font-size:13;font-weight:bold;" transform="matrix(1 0 0 1 776 1953)">Margins</text>
  <text style="stroke:none;fill:black;font-family:sans-serif;font-size:13;" transform="matrix(1 0 0 1 776 1971)">Leading and trailing margins on the left and right side of each symbol</text>
  <text style="stroke:none;fill:black;font-family:sans-serif;font-size:13;" transform="matrix(1 0 0 1 776 1989)">can be adjusted by modifying the x-location of the margin guidelines.</text>
  <text style="stroke:none;fill:black;font-family:sans-serif;font-size:13;" transform="matrix(1 0 0 1 776 2007)">Modifications are automatically applied proportionally to all</text>
  <text style="stroke:none;fill:black;font-family:sans-serif;font-size:13;" transform="matrix(1 0 0 1 776 2025)">scales and weights.</text>
  <g transform="matrix(0.2 0 0 0.2 1289 1933)">
   <path d="m14.209 9.32617 8.49609 8.54492c4.29688 4.3457 9.22852 4.05273 13.8672-1.07422l53.4668-58.9355-4.83398-4.88281-53.0762 58.3984c-1.75781 2.00195-3.41797 2.49023-5.76172 0.146484l-5.85938-5.81055c-2.34375-2.29492-1.80664-4.00391 0.195312-5.81055l57.373-54.0039-4.88281-4.83398-57.959 54.4434c-4.93164 4.58984-5.32227 9.47266-1.02539 13.8184Zm32.0801-90.9668c-2.09961 2.05078-2.24609 4.93164-1.07422 6.88477 1.17188 1.80664 3.4668 2.97852 6.68945 2.14844 7.32422-1.70898 14.9414-2.00195 22.0703 2.68555l-2.92969 7.27539c-1.70898 4.15039-0.830078 7.08008 1.85547 9.81445l11.4746 11.5723c2.44141 2.44141 4.49219 2.53906 7.32422 2.05078l5.32227-0.976562 3.32031 3.36914-0.195312 2.7832c-0.195312 2.49023 0.439453 4.39453 2.88086 6.78711l3.80859 3.71094c2.39258 2.39258 5.46875 2.53906 7.8125 0.195312l14.5508-14.5996c2.34375-2.34375 2.24609-5.32227-0.146484-7.71484l-3.85742-3.80859c-2.39258-2.39258-4.24805-3.17383-6.64062-2.97852l-2.88086 0.244141-3.22266-3.17383 1.2207-5.61523c0.634766-2.83203-0.146484-5.0293-3.07617-7.95898l-10.9863-10.9375c-16.6992-16.6016-38.8672-16.2109-53.3203-1.75781Zm7.4707 1.85547c12.1582-8.88672 28.6133-7.37305 39.7461 3.75977l12.1582 12.0605c1.17188 1.17188 1.36719 2.09961 1.02539 3.80859l-1.61133 7.42188 7.51953 7.42188 4.93164-0.292969c1.26953-0.0488281 1.66016 0.0488281 2.63672 1.02539l2.88086 2.88086-12.207 12.207-2.88086-2.88086c-0.976562-0.976562-1.12305-1.36719-1.07422-2.68555l0.341797-4.88281-7.4707-7.42188-7.61719 1.26953c-1.61133 0.341797-2.34375 0.195312-3.56445-0.976562l-10.0098-10.0098c-1.26953-1.17188-1.41602-2.00195-0.634766-3.85742l4.39453-10.4492c-7.8125-7.27539-17.9688-10.4004-28.125-7.42188-0.78125 0.195312-1.07422-0.439453-0.439453-0.976562Z"/>
  </g>
  <text style="stroke:none;fill:black;font-family:sans-serif;font-size:13;font-weight:bold;" transform="matrix(1 0 0 1 1289 1953)">Exporting</text>
  <text style="stroke:none;fill:black;font-family:sans-serif;font-size:13;" transform="matrix(1 0 0 1 1289 1971)">Symbols should be outlined when exporting to ensure the</text>
  <text style="stroke:none;fill:black;font-family:sans-serif;font-size:13;" transform="matrix(1 0 0 1 1289 1989)">design is preserved when submitting to Xcode.</text>
  <text id="template-version" style="stroke:none;fill:black;font-family:sans-serif;font-size:13;text-anchor:end;" transform="matrix(1 0 0 1 3036 1933)">Template v.6.0</text>
  <text style="stroke:none;fill:black;font-family:sans-serif;font-size:13;text-anchor:end;" transform="matrix(1 0 0 1 3036 1951)">Requires Xcode 16 or greater</text>
  <text id="descriptive-name" style="stroke:none;fill:black;font-family:sans-serif;font-size:13;text-anchor:end;" transform="matrix(1 0 0 1 3036 1969)">Generated from circle.fill</text>
  <text style="stroke:none;fill:black;font-family:sans-serif;font-size:13;text-anchor:end;" transform="matrix(1 0 0 1 3036 1987)">Typeset at 100.0 points</text>
  <text style="stroke:none;fill:black;font-family:sans-serif;font-size:13;" transform="matrix(1 0 0 1 263 726)">Small</text>
  <text style="stroke:none;fill:black;font-family:sans-serif;font-size:13;" transform="matrix(1 0 0 1 263 1156)">Medium</text>
  <text style="stroke:none;fill:black;font-family:sans-serif;font-size:13;" transform="matrix(1 0 0 1 263 1586)">Large</text>
 </g>
 <g id="Guides">
  <g id="H-reference" style="fill:#27AAE1;stroke:none;" transform="matrix(1 0 0 1 339 696)">
   <path d="M0.993654 0L3.63775 0L29.3281-67.1323L30.0303-67.1323L30.0303-70.459L28.1226-70.459ZM11.6885-24.4799L46.9815-24.4799L46.2315-26.7285L12.4385-26.7285ZM55.1196 0L57.7637 0L30.6382-70.459L29.4326-70.459L29.4326-67.1323Z"/>
  </g>
  <line id="Baseline-S" style="fill:none;stroke:#27AAE1;opacity:1;stroke-width:0.5;" x1="263" x2="3036" y1="696" y2="696"/>
  <line id="Capline-S" style="fill:none;stroke:#27AAE1;opacity:1;stroke-width:0.5;" x1="263" x2="3036" y1="625.541" y2="625.541"/>
  <g id="H-reference" style="fill:#27AAE1;stroke:none;" transform="matrix(1 0 0 1 339 1126)">
   <path d="M0.993654 0L3.63775 0L29.3281-67.1323L30.0303-67.1323L30.0303-70.459L28.1226-70.459ZM11.6885-24.4799L46.9815-24.4799L46.2315-26.7285L12.4385-26.7285ZM55.1196 0L57.7637 0L30.6382-70.459L29.4326-70.459L29.4326-67.1323Z"/>
  </g>
  <line id="Baseline-M" style="fill:none;stroke:#27AAE1;opacity:1;stroke-width:0.5;" x1="263" x2="3036" y1="1126" y2="1126"/>
  <line id="Capline-M" style="fill:none;stroke:#27AAE1;opacity:1;stroke-width:0.5;" x1="263" x2="3036" y1="1055.54" y2="1055.54"/>
  <g id="H-reference" style="fill:#27AAE1;stroke:none;" transform="matrix(1 0 0 1 339 1556)">
   <path d="M0.993654 0L3.63775 0L29.3281-67.1323L30.0303-67.1323L30.0303-70.459L28.1226-70.459ZM11.6885-24.4799L46.9815-24.4799L46.2315-26.7285L12.4385-26.7285ZM55.1196 0L57.7637 0L30.6382-70.459L29.4326-70.459L29.4326-67.1323Z"/>
  </g>
  <line id="Baseline-L" style="fill:none;stroke:#27AAE1;opacity:1;stroke-width:0.5;" x1="263" x2="3036" y1="1556" y2="1556"/>
  <line id="Capline-L" style="fill:none;stroke:#27AAE1;opacity:1;stroke-width:0.5;" x1="263" x2="3036" y1="1485.54" y2="1485.54"/>
  <line id="right-margin-Black-S" style="fill:none;stroke:#00AEEF;stroke-width:0.5;opacity:1.0;" x1="2982.23" x2="2982.23" y1="600.785" y2="720.121"/>
  <line id="left-margin-Black-S" style="fill:none;stroke:#00AEEF;stroke-width:0.5;opacity:1.0;" x1="2884.57" x2="2884.57" y1="600.785" y2="720.121"/>
  <line id="right-margin-Regular-S" style="fill:none;stroke:#00AEEF;stroke-width:0.5;opacity:1.0;" x1="1496.11" x2="1496.11" y1="600.785" y2="720.121"/>
  <line id="left-margin-Regular-S" style="fill:none;stroke:#00AEEF;stroke-width:0.5;opacity:1.0;" x1="1403.58" x2="1403.58" y1="600.785" y2="720.121"/>
  <line id="right-margin-Ultralight-S" style="fill:none;stroke:#00AEEF;stroke-width:0.5;opacity:1.0;" x1="603.773" x2="603.773" y1="600.785" y2="720.121"/>
  <line id="left-margin-Ultralight-S" style="fill:none;stroke:#00AEEF;stroke-width:0.5;opacity:1.0;" x1="515.649" x2="515.649" y1="600.785" y2="720.121"/>
 </g>
 <g id="Symbols">
  <g id="Black-S" transform="matrix(1 0 0 1 2884.57 696)">
   <path class="SFSymbolsPreviewWireframe" d="M48.8281 6.73828C72.0215 6.73828 90.8203-12.0605 90.8203-35.2539C90.8203-58.4473 72.0215-77.2461 48.8281-77.2461C25.6348-77.2461 6.83594-58.4473 6.83594-35.2539C6.83594-12.0605 25.6348 6.73828 48.8281 6.73828ZM63.5471-25.2688L33.5171-25.2688C31.2071-25.2688 28.4771-27.1588 28.4771-29.4688L30.4371-54.7388C30.4371-57.0488 32.3271-58.9388 34.6371-58.9388L62.4971-58.9388C64.8071-58.9388 66.6971-57.0488 66.6971-54.7388L68.6571-29.4688C68.5871-27.1588 65.8571-25.2688 63.5471-25.2688ZM58.5071-39.1988L38.5571-39.1988C37.0871-39.1988 35.8971-40.3888 35.8971-41.8588L36.7371-49.9088C36.7371-51.3788 37.9271-52.5688 39.3971-52.5688L57.7371-52.5688C59.2071-52.5688 60.3971-51.3788 60.3971-49.9088L61.2371-41.8588C61.1671-40.3888 59.9771-39.1988 58.5071-39.1988ZM45.2071-41.9288L40.3071-41.9288C37.9971-41.9288 38.0671-41.9288 38.2071-43.5388L38.9071-48.3688C39.1171-49.9788 39.1171-49.9788 41.0071-49.9788L45.4871-49.9788C47.7971-49.9788 47.5871-49.9788 47.5871-48.3688L47.5871-43.5388C47.5171-41.9288 47.2371-41.9288 45.2071-41.9288ZM51.8571-41.9288L56.7571-41.9288C59.0671-41.9288 58.9971-41.9288 58.8571-43.5388L58.1571-48.3688C57.9471-49.9788 57.9471-49.9788 56.0571-49.9788L51.5771-49.9788C49.2671-49.9788 49.4771-49.9788 49.4771-48.3688L49.4771-43.5388C49.5471-41.9288 49.8271-41.9288 51.8571-41.9288ZM64.7371-20.3688L32.3971-20.3688C31.9071-20.3688 31.4871-20.8588 31.4871-21.2788C31.4871-21.7688 31.9771-22.1888 32.3971-22.1888L64.6671-22.1888C65.1571-22.1888 65.5771-21.6988 65.5771-21.2788C65.6471-20.8588 65.2271-20.3688 64.7371-20.3688ZM69.9171-15.1188L27.1471-15.1188C26.3071-15.1188 25.6771-15.8188 25.6771-16.5888C25.6771-17.3588 26.3771-18.0588 27.1471-18.0588L69.8471-18.0588C70.6871-18.0588 71.3171-17.3588 71.3171-16.5888C71.4571-15.8188 70.6871-15.1188 69.9171-15.1188L69.9171-15.1188ZM33.5871-13.3688C34.2171-14.3488 41.4271-25.1988 41.4271-25.1988C41.7771-25.8988 41.1471-26.5288 42.3371-26.4588C43.1771-26.4588 42.5471-25.1988 42.5471-25.1988L38.4171-12.8088C37.8571-11.1988 37.5071-11.1988 35.1271-11.1988C32.6771-11.3388 32.1871-11.3388 33.5871-13.3688ZM63.5471-13.3688C62.9871-14.3488 55.7071-25.1988 55.7071-25.1988C55.3571-25.8988 55.9871-26.5288 54.7971-26.4588C53.9571-26.4588 54.5871-25.1988 54.5871-25.1988L58.7171-12.8088C59.4171-11.1988 59.6271-11.1988 62.0071-11.1988C64.3927-11.1933 64.9471-11.3388 63.5471-13.3688ZM36.9471-32.6888C36.9471-31.9188 36.2471-31.2188 35.4771-31.2188C34.7071-31.2188 34.0071-31.9188 34.0071-32.6888C34.0071-33.4588 34.7071-34.1588 35.4771-34.1588C36.2471-34.1588 36.9471-33.4588 36.9471-32.6888ZM41.0771-32.6888C41.0771-31.9188 40.3771-31.2188 39.6071-31.2188C38.8371-31.2188 38.1371-31.9188 38.1371-32.6888C38.1371-33.4588 38.8371-34.1588 39.6071-34.1588C40.3771-34.1588 41.0771-33.4588 41.0771-32.6888ZM63.0571-32.6888C63.0571-31.9188 62.3571-31.2188 61.5871-31.2188C60.8171-31.2188 60.1171-31.9188 60.1171-32.6888C60.1171-33.4588 60.8171-34.1588 61.5871-34.1588C62.3571-34.1588 63.0571-33.4588 63.0571-32.6888ZM58.9271-32.6888C58.9271-31.9188 58.2271-31.2188 57.4571-31.2188C56.6871-31.2188 55.9871-31.9188 55.9871-32.6888C55.9871-33.4588 56.6871-34.1588 57.4571-34.1588C58.2271-34.1588 58.9271-33.4588 58.9271-32.6888Z"/>
  </g>
  <g id="Regular-S" transform="matrix(1 0 0 1 1403.58 696)">
   <path class="SFSymbolsPreviewWireframe" d="M46.2402 4.15039C68.0176 4.15039 85.6934-13.5254 85.6934-35.2539C85.6934-56.9824 68.0176-74.6582 46.2402-74.6582C24.5117-74.6582 6.83594-56.9824 6.83594-35.2539C6.83594-13.5254 24.5117 4.15039 46.2402 4.15039ZM61.3004-25.2688L31.2704-25.2688C28.9604-25.2688 26.2304-27.1588 26.2304-29.4688L28.1904-54.7388C28.1904-57.0488 30.0804-58.9388 32.3904-58.9388L60.2504-58.9388C62.5604-58.9388 64.4504-57.0488 64.4504-54.7388L66.4104-29.4688C66.3404-27.1588 63.6104-25.2688 61.3004-25.2688ZM56.2604-39.1988L36.3104-39.1988C34.8404-39.1988 33.6504-40.3888 33.6504-41.8588L34.4904-49.9088C34.4904-51.3788 35.6804-52.5688 37.1504-52.5688L55.4904-52.5688C56.9604-52.5688 58.1504-51.3788 58.1504-49.9088L58.9904-41.8588C58.9204-40.3888 57.7304-39.1988 56.2604-39.1988ZM42.9604-41.9288L38.0604-41.9288C35.7504-41.9288 35.8204-41.9288 35.9604-43.5388L36.6604-48.3688C36.8704-49.9788 36.8704-49.9788 38.7604-49.9788L43.2404-49.9788C45.5504-49.9788 45.3404-49.9788 45.3404-48.3688L45.3404-43.5388C45.2704-41.9288 44.9904-41.9288 42.9604-41.9288ZM49.6104-41.9288L54.5104-41.9288C56.8204-41.9288 56.7504-41.9288 56.6104-43.5388L55.9104-48.3688C55.7004-49.9788 55.7004-49.9788 53.8104-49.9788L49.3304-49.9788C47.0204-49.9788 47.2304-49.9788 47.2304-48.3688L47.2304-43.5388C47.3004-41.9288 47.5804-41.9288 49.6104-41.9288ZM62.4904-20.3688L30.1504-20.3688C29.6604-20.3688 29.2404-20.8588 29.2404-21.2788C29.2404-21.7688 29.7304-22.1888 30.1504-22.1888L62.4204-22.1888C62.9104-22.1888 63.3304-21.6988 63.3304-21.2788C63.4004-20.8588 62.9804-20.3688 62.4904-20.3688ZM67.6704-15.1188L24.9004-15.1188C24.0604-15.1188 23.4304-15.8188 23.4304-16.5888C23.4304-17.3588 24.1304-18.0588 24.9004-18.0588L67.6004-18.0588C68.4404-18.0588 69.0704-17.3588 69.0704-16.5888C69.2104-15.8188 68.4404-15.1188 67.6704-15.1188L67.6704-15.1188ZM31.3404-13.3688C31.9704-14.3488 39.1804-25.1988 39.1804-25.1988C39.5304-25.8988 38.9004-26.5288 40.0904-26.4588C40.9304-26.4588 40.3004-25.1988 40.3004-25.1988L36.1704-12.8088C35.6104-11.1988 35.2604-11.1988 32.8804-11.1988C30.4304-11.3388 29.9404-11.3388 31.3404-13.3688ZM61.3004-13.3688C60.7404-14.3488 53.4604-25.1988 53.4604-25.1988C53.1104-25.8988 53.7404-26.5288 52.5504-26.4588C51.7104-26.4588 52.3404-25.1988 52.3404-25.1988L56.4704-12.8088C57.1704-11.1988 57.3804-11.1988 59.7604-11.1988C62.1434-11.1958 62.7004-11.3388 61.3004-13.3688ZM34.7004-32.6888C34.7004-31.9188 34.0004-31.2188 33.2304-31.2188C32.4604-31.2188 31.7604-31.9188 31.7604-32.6888C31.7604-33.4588 32.4604-34.1588 33.2304-34.1588C34.0004-34.1588 34.7004-33.4588 34.7004-32.6888ZM38.8304-32.6888C38.8304-31.9188 38.1304-31.2188 37.3604-31.2188C36.5904-31.2188 35.8904-31.9188 35.8904-32.6888C35.8904-33.4588 36.5904-34.1588 37.3604-34.1588C38.1304-34.1588 38.8304-33.4588 38.8304-32.6888ZM60.8104-32.6888C60.8104-31.9188 60.1104-31.2188 59.3404-31.2188C58.5704-31.2188 57.8704-31.9188 57.8704-32.6888C57.8704-33.4588 58.5704-34.1588 59.3404-34.1588C60.1104-34.1588 60.8104-33.4588 60.8104-32.6888ZM56.6804-32.6888C56.6804-31.9188 55.9804-31.2188 55.2104-31.2188C54.4404-31.2188 53.7404-31.9188 53.7404-32.6888C53.7404-33.4588 54.4404-34.1588 55.2104-34.1588C55.9804-34.1588 56.6804-33.4588 56.6804-32.6888Z"/>
  </g>
  <g id="Ultralight-S" transform="matrix(1 0 0 1 515.649 696)">
   <path class="SFSymbolsPreviewWireframe" d="M44.0606 1.97072C64.521 1.97072 81.2886-14.7969 81.2886-35.2539C81.2886-55.7109 64.521-72.4785 44.0606-72.4785C23.6035-72.4785 6.83594-55.7109 6.83594-35.2539C6.83594-14.7969 23.6035 1.97072 44.0606 1.97072ZM59.2992-25.2688L29.2692-25.2688C26.9592-25.2688 24.2292-27.1588 24.2292-29.4688L26.1892-54.7388C26.1892-57.0488 28.0792-58.9388 30.3892-58.9388L58.2492-58.9388C60.5592-58.9388 62.4492-57.0488 62.4492-54.7388L64.4092-29.4688C64.3392-27.1588 61.6092-25.2688 59.2992-25.2688ZM54.2592-39.1988L34.3092-39.1988C32.8392-39.1988 31.6492-40.3888 31.6492-41.8588L32.4892-49.9088C32.4892-51.3788 33.6792-52.5688 35.1492-52.5688L53.4892-52.5688C54.9592-52.5688 56.1492-51.3788 56.1492-49.9088L56.9892-41.8588C56.9192-40.3888 55.7292-39.1988 54.2592-39.1988ZM40.9592-41.9288L36.0592-41.9288C33.7492-41.9288 33.8192-41.9288 33.9592-43.5388L34.6592-48.3688C34.8692-49.9788 34.8692-49.9788 36.7592-49.9788L41.2392-49.9788C43.5492-49.9788 43.3392-49.9788 43.3392-48.3688L43.3392-43.5388C43.2692-41.9288 42.9892-41.9288 40.9592-41.9288ZM47.6092-41.9288L52.5092-41.9288C54.8192-41.9288 54.7492-41.9288 54.6092-43.5388L53.9092-48.3688C53.6992-49.9788 53.6992-49.9788 51.8092-49.9788L47.3292-49.9788C45.0192-49.9788 45.2292-49.9788 45.2292-48.3688L45.2292-43.5388C45.2992-41.9288 45.5792-41.9288 47.6092-41.9288ZM60.4892-20.3688L28.1492-20.3688C27.6592-20.3688 27.2392-20.8588 27.2392-21.2788C27.2392-21.7688 27.7292-22.1888 28.1492-22.1888L60.4192-22.1888C60.9092-22.1888 61.3292-21.6988 61.3292-21.2788C61.3992-20.8588 60.9792-20.3688 60.4892-20.3688ZM65.6692-15.1188L22.8992-15.1188C22.0592-15.1188 21.4292-15.8188 21.4292-16.5888C21.4292-17.3588 22.1292-18.0588 22.8992-18.0588L65.5992-18.0588C66.4392-18.0588 67.0692-17.3588 67.0692-16.5888C67.2092-15.8188 66.4392-15.1188 65.6692-15.1188L65.6692-15.1188ZM29.3392-13.3688C29.9692-14.3488 37.1792-25.1988 37.1792-25.1988C37.5292-25.8988 36.8992-26.5288 38.0892-26.4588C38.9292-26.4588 38.2992-25.1988 38.2992-25.1988L34.1692-12.8088C33.6092-11.1988 33.2592-11.1988 30.8792-11.1988C28.4292-11.3388 27.9392-11.3388 29.3392-13.3688ZM59.2992-13.3688C58.7392-14.3488 51.4592-25.1988 51.4592-25.1988C51.1092-25.8988 51.7392-26.5288 50.5492-26.4588C49.7092-26.4588 50.3392-25.1988 50.3392-25.1988L54.4692-12.8088C55.1692-11.1988 55.3792-11.1988 57.7592-11.1988C60.0846-11.2535 60.6992-11.3388 59.2992-13.3688ZM32.6992-32.6888C32.6992-31.9188 31.9992-31.2188 31.2292-31.2188C30.4592-31.2188 29.7592-31.9188 29.7592-32.6888C29.7592-33.4588 30.4592-34.1588 31.2292-34.1588C31.9992-34.1588 32.6992-33.4588 32.6992-32.6888ZM36.8292-32.6888C36.8292-31.9188 36.1292-31.2188 35.3592-31.2188C34.5892-31.2188 33.8892-31.9188 33.8892-32.6888C33.8892-33.4588 34.5892-34.1588 35.3592-34.1588C36.1292-34.1588 36.8292-33.4588 36.8292-32.6888ZM58.8092-32.6888C58.8092-31.9188 58.1092-31.2188 57.3392-31.2188C56.5692-31.2188 55.8692-31.9188 55.8692-32.6888C55.8692-33.4588 56.5692-34.1588 57.3392-34.1588C58.1092-34.1588 58.8092-33.4588 58.8092-32.6888ZM54.6792-32.6888C54.6792-31.9188 53.9792-31.2188 53.2092-31.2188C52.4392-31.2188 51.7392-31.9188 51.7392-32.6888C51.7392-33.4588 52.4392-34.1588 53.2092-34.1588C53.9792-34.1588 54.6792-33.4588 54.6792-32.6888Z"/>
  </g>
 </g>
 <g id="LayerTree">
  <g class="monochrome-0 multicolor-0:custom hierarchical-0:tertiary"/>
  <g class="monochrome-1 multicolor-1:white hierarchical-1:primary">
   <g class="shapeGroupLayer-0"/>
   <g class="shapeGroupLayer-1"/>
   <g class="shapeGroupLayer-2"/>
   <g class="shapeGroupLayer-3"/>
   <g class="shapeGroupLayer-4"/>
   <g class="shapeGroupLayer-5"/>
  </g>
 </g>
</svg>
