<?xml version="1.0" encoding="UTF-8"?>
<!--Generator: Apple Native CoreSVG 341-->
<!DOCTYPE svg
PUBLIC "-//W3C//DTD SVG 1.1//EN"
       "http://www.w3.org/Graphics/SVG/1.1/DTD/svg11.dtd">
<svg version="1.1" xmlns="http://www.w3.org/2000/svg" xmlns:xlink="http://www.w3.org/1999/xlink" viewBox="0 0 3300 2200">
 <!--glyph: "", point size: 100.0, font version: "20.0d10e1", template writer version: "138.0.0"-->
 <style>.monochrome-0 {-sfsymbols-motion-group:1;-sfsymbols-indices:0;-sfsymbols-layer-tags:2e84d36c98477331 circle.fill}
.monochrome-1 {opacity:0.0;-sfsymbols-clear-behind:true;-sfsymbols-motion-group:0;-sfsymbols-always-pulses:true;-sfsymbols-layer-tags:2e84d36c98477331}

.multicolor-0:custom {fill:#FF8201;-sfsymbols-motion-group:1;-sfsymbols-indices:0;-sfsymbols-layer-tags:2e84d36c98477331 circle.fill}
.multicolor-1:white {-sfsymbols-motion-group:0;-sfsymbols-always-pulses:true;-sfsymbols-layer-tags:2e84d36c98477331}

.hierarchical-0:tertiary {-sfsymbols-motion-group:1;-sfsymbols-indices:0;-sfsymbols-layer-tags:2e84d36c98477331 circle.fill}
.hierarchical-1:primary {-sfsymbols-motion-group:0;-sfsymbols-layer-tags:2e84d36c98477331}

.shapeGroupLayer-0 {-sfsymbols-fill-action:draw;-sfsymbols-indices:1 2}
.shapeGroupLayer-1 {-sfsymbols-fill-action:draw;-sfsymbols-indices:3}
.shapeGroupLayer-2 {-sfsymbols-fill-action:erase;-sfsymbols-indices:11}
.shapeGroupLayer-3 {-sfsymbols-fill-action:draw;-sfsymbols-indices:12}
.shapeGroupLayer-4 {-sfsymbols-fill-action:erase;-sfsymbols-indices:4 6}
.shapeGroupLayer-5 {-sfsymbols-fill-action:draw;-sfsymbols-indices:5 7}
.shapeGroupLayer-6 {-sfsymbols-fill-action:erase;-sfsymbols-indices:9 10}
.shapeGroupLayer-7 {-sfsymbols-fill-action:erase;-sfsymbols-indices:8}

.SFSymbolsPreviewWireframe {fill:none;opacity:1.0;stroke:black;stroke-width:0.5}
</style>
 <g id="Notes">
  <rect height="2200" id="artboard" style="fill:white;opacity:1" width="3300" x="0" y="0"/>
  <line style="fill:none;stroke:black;opacity:1;stroke-width:0.5;" x1="263" x2="3036" y1="292" y2="292"/>
  <text style="stroke:none;fill:black;font-family:sans-serif;font-size:13;font-weight:bold;" transform="matrix(1 0 0 1 263 322)">Weight/Scale Variations</text>
  <text style="stroke:none;fill:black;font-family:sans-serif;font-size:13;text-anchor:middle;" transform="matrix(1 0 0 1 559.711 322)">Ultralight</text>
  <text style="stroke:none;fill:black;font-family:sans-serif;font-size:13;text-anchor:middle;" transform="matrix(1 0 0 1 856.422 322)">Thin</text>
  <text style="stroke:none;fill:black;font-family:sans-serif;font-size:13;text-anchor:middle;" transform="matrix(1 0 0 1 1153.13 322)">Light</text>
  <text style="stroke:none;fill:black;font-family:sans-serif;font-size:13;text-anchor:middle;" transform="matrix(1 0 0 1 1449.84 322)">Regular</text>
  <text style="stroke:none;fill:black;font-family:sans-serif;font-size:13;text-anchor:middle;" transform="matrix(1 0 0 1 1746.56 322)">Medium</text>
  <text style="stroke:none;fill:black;font-family:sans-serif;font-size:13;text-anchor:middle;" transform="matrix(1 0 0 1 2043.27 322)">Semibold</text>
  <text style="stroke:none;fill:black;font-family:sans-serif;font-size:13;text-anchor:middle;" transform="matrix(1 0 0 1 2339.98 322)">Bold</text>
  <text style="stroke:none;fill:black;font-family:sans-serif;font-size:13;text-anchor:middle;" transform="matrix(1 0 0 1 2636.69 322)">Heavy</text>
  <text style="stroke:none;fill:black;font-family:sans-serif;font-size:13;text-anchor:middle;" transform="matrix(1 0 0 1 2933.4 322)">Black</text>
  <line style="fill:none;stroke:black;opacity:1;stroke-width:0.5;" x1="263" x2="3036" y1="1903" y2="1903"/>
  <g transform="matrix(0.2 0 0 0.2 263 1933)">
   <path d="m46.2402 4.15039c21.7773 0 39.4531-17.627 39.4531-39.4043s-17.6758-39.4043-39.4531-39.4043c-21.7285 0-39.4043 17.627-39.4043 39.4043s17.6758 39.4043 39.4043 39.4043Zm0-7.42188c-17.6758 0-31.9336-14.3066-31.9336-31.9824s14.2578-31.9824 31.9336-31.9824 31.9824 14.3066 31.9824 31.9824-14.3066 31.9824-31.9824 31.9824Zm-17.9688-31.9824c0 2.14844 1.51367 3.61328 3.75977 3.61328h10.498v10.5957c0 2.19727 1.46484 3.71094 3.61328 3.71094 2.24609 0 3.71094-1.51367 3.71094-3.71094v-10.5957h10.5957c2.19727 0 3.71094-1.46484 3.71094-3.61328 0-2.19727-1.51367-3.71094-3.71094-3.71094h-10.5957v-10.5469c0-2.24609-1.46484-3.75977-3.71094-3.75977-2.14844 0-3.61328 1.51367-3.61328 3.75977v10.5469h-10.498c-2.24609 0-3.75977 1.51367-3.75977 3.71094Z"/>
  </g>
  <g transform="matrix(0.2 0 0 0.2 281.506 1933)">
   <path d="m58.5449 14.5508c27.4902 0 49.8047-22.3145 49.8047-49.8047s-22.3145-49.8047-49.8047-49.8047-49.8047 22.3145-49.8047 49.8047 22.3145 49.8047 49.8047 49.8047Zm0-8.30078c-22.9492 0-41.5039-18.5547-41.5039-41.5039s18.5547-41.5039 41.5039-41.5039 41.5039 18.5547 41.5039 41.5039-18.5547 41.5039-41.5039 41.5039Zm-22.6562-41.5039c0 2.39258 1.66016 4.00391 4.15039 4.00391h14.3555v14.4043c0 2.44141 1.66016 4.15039 4.05273 4.15039 2.44141 0 4.15039-1.66016 4.15039-4.15039v-14.4043h14.4043c2.44141 0 4.15039-1.61133 4.15039-4.00391 0-2.44141-1.70898-4.15039-4.15039-4.15039h-14.4043v-14.3555c0-2.49023-1.70898-4.19922-4.15039-4.19922-2.39258 0-4.05273 1.70898-4.05273 4.19922v14.3555h-14.3555c-2.49023 0-4.15039 1.70898-4.15039 4.15039Z"/>
  </g>
  <g transform="matrix(0.2 0 0 0.2 304.924 1933)">
   <path d="m74.8535 28.3203c35.1074 0 63.623-28.4668 63.623-63.5742s-28.5156-63.623-63.623-63.623-63.5742 28.5156-63.5742 63.623 28.4668 63.5742 63.5742 63.5742Zm0-9.08203c-30.127 0-54.4922-24.3652-54.4922-54.4922s24.3652-54.4922 54.4922-54.4922 54.4922 24.3652 54.4922 54.4922-24.3652 54.4922-54.4922 54.4922Zm-28.8574-54.4922c0 2.58789 1.85547 4.39453 4.58984 4.39453h19.7266v19.7754c0 2.68555 1.85547 4.58984 4.44336 4.58984 2.68555 0 4.54102-1.85547 4.54102-4.58984v-19.7754h19.7754c2.68555 0 4.58984-1.80664 4.58984-4.39453 0-2.73438-1.85547-4.58984-4.58984-4.58984h-19.7754v-19.7266c0-2.73438-1.85547-4.63867-4.54102-4.63867-2.58789 0-4.44336 1.9043-4.44336 4.63867v19.7266h-19.7266c-2.73438 0-4.58984 1.85547-4.58984 4.58984Z"/>
  </g>
  <text style="stroke:none;fill:black;font-family:sans-serif;font-size:13;font-weight:bold;" transform="matrix(1 0 0 1 263 1953)">Design Variations</text>
  <text style="stroke:none;fill:black;font-family:sans-serif;font-size:13;" transform="matrix(1 0 0 1 263 1971)">Symbols are supported in up to nine weights and three scales.</text>
  <text style="stroke:none;fill:black;font-family:sans-serif;font-size:13;" transform="matrix(1 0 0 1 263 1989)">For optimal layout with text and other symbols, vertically align</text>
  <text style="stroke:none;fill:black;font-family:sans-serif;font-size:13;" transform="matrix(1 0 0 1 263 2007)">symbols with the adjacent text.</text>
  <line style="fill:none;stroke:#00AEEF;stroke-width:0.5;opacity:1.0;" x1="776" x2="776" y1="1919" y2="1933"/>
  <g transform="matrix(0.2 0 0 0.2 776 1933)">
   <path d="m16.5527 0.78125c2.58789 0 3.85742-0.976562 4.78516-3.71094l6.29883-17.2363h28.8086l6.29883 17.2363c0.927734 2.73438 2.19727 3.71094 4.73633 3.71094 2.58789 0 4.24805-1.5625 4.24805-4.00391 0-0.830078-0.146484-1.61133-0.537109-2.63672l-22.9004-60.9863c-1.12305-2.97852-3.125-4.49219-6.25-4.49219-3.02734 0-5.07812 1.46484-6.15234 4.44336l-22.9004 61.084c-0.390625 1.02539-0.537109 1.80664-0.537109 2.63672 0 2.44141 1.5625 3.95508 4.10156 3.95508Zm13.4766-28.3691 11.8652-32.8613h0.244141l11.8652 32.8613Z"/>
  </g>
  <line style="fill:none;stroke:#00AEEF;stroke-width:0.5;opacity:1.0;" x1="792.836" x2="792.836" y1="1919" y2="1933"/>
  <text style="stroke:none;fill:black;font-family:sans-serif;font-size:13;font-weight:bold;" transform="matrix(1 0 0 1 776 1953)">Margins</text>
  <text style="stroke:none;fill:black;font-family:sans-serif;font-size:13;" transform="matrix(1 0 0 1 776 1971)">Leading and trailing margins on the left and right side of each symbol</text>
  <text style="stroke:none;fill:black;font-family:sans-serif;font-size:13;" transform="matrix(1 0 0 1 776 1989)">can be adjusted by modifying the x-location of the margin guidelines.</text>
  <text style="stroke:none;fill:black;font-family:sans-serif;font-size:13;" transform="matrix(1 0 0 1 776 2007)">Modifications are automatically applied proportionally to all</text>
  <text style="stroke:none;fill:black;font-family:sans-serif;font-size:13;" transform="matrix(1 0 0 1 776 2025)">scales and weights.</text>
  <g transform="matrix(0.2 0 0 0.2 1289 1933)">
   <path d="m14.209 9.32617 8.49609 8.54492c4.29688 4.3457 9.22852 4.05273 13.8672-1.07422l53.4668-58.9355-4.83398-4.88281-53.0762 58.3984c-1.75781 2.00195-3.41797 2.49023-5.76172 0.146484l-5.85938-5.81055c-2.34375-2.29492-1.80664-4.00391 0.195312-5.81055l57.373-54.0039-4.88281-4.83398-57.959 54.4434c-4.93164 4.58984-5.32227 9.47266-1.02539 13.8184Zm32.0801-90.9668c-2.09961 2.05078-2.24609 4.93164-1.07422 6.88477 1.17188 1.80664 3.4668 2.97852 6.68945 2.14844 7.32422-1.70898 14.9414-2.00195 22.0703 2.68555l-2.92969 7.27539c-1.70898 4.15039-0.830078 7.08008 1.85547 9.81445l11.4746 11.5723c2.44141 2.44141 4.49219 2.53906 7.32422 2.05078l5.32227-0.976562 3.32031 3.36914-0.195312 2.7832c-0.195312 2.49023 0.439453 4.39453 2.88086 6.78711l3.80859 3.71094c2.39258 2.39258 5.46875 2.53906 7.8125 0.195312l14.5508-14.5996c2.34375-2.34375 2.24609-5.32227-0.146484-7.71484l-3.85742-3.80859c-2.39258-2.39258-4.24805-3.17383-6.64062-2.97852l-2.88086 0.244141-3.22266-3.17383 1.2207-5.61523c0.634766-2.83203-0.146484-5.0293-3.07617-7.95898l-10.9863-10.9375c-16.6992-16.6016-38.8672-16.2109-53.3203-1.75781Zm7.4707 1.85547c12.1582-8.88672 28.6133-7.37305 39.7461 3.75977l12.1582 12.0605c1.17188 1.17188 1.36719 2.09961 1.02539 3.80859l-1.61133 7.42188 7.51953 7.42188 4.93164-0.292969c1.26953-0.0488281 1.66016 0.0488281 2.63672 1.02539l2.88086 2.88086-12.207 12.207-2.88086-2.88086c-0.976562-0.976562-1.12305-1.36719-1.07422-2.68555l0.341797-4.88281-7.4707-7.42188-7.61719 1.26953c-1.61133 0.341797-2.34375 0.195312-3.56445-0.976562l-10.0098-10.0098c-1.26953-1.17188-1.41602-2.00195-0.634766-3.85742l4.39453-10.4492c-7.8125-7.27539-17.9688-10.4004-28.125-7.42188-0.78125 0.195312-1.07422-0.439453-0.439453-0.976562Z"/>
  </g>
  <text style="stroke:none;fill:black;font-family:sans-serif;font-size:13;font-weight:bold;" transform="matrix(1 0 0 1 1289 1953)">Exporting</text>
  <text style="stroke:none;fill:black;font-family:sans-serif;font-size:13;" transform="matrix(1 0 0 1 1289 1971)">Symbols should be outlined when exporting to ensure the</text>
  <text style="stroke:none;fill:black;font-family:sans-serif;font-size:13;" transform="matrix(1 0 0 1 1289 1989)">design is preserved when submitting to Xcode.</text>
  <text id="template-version" style="stroke:none;fill:black;font-family:sans-serif;font-size:13;text-anchor:end;" transform="matrix(1 0 0 1 3036 1933)">Template v.6.0</text>
  <text style="stroke:none;fill:black;font-family:sans-serif;font-size:13;text-anchor:end;" transform="matrix(1 0 0 1 3036 1951)">Requires Xcode 16 or greater</text>
  <text id="descriptive-name" style="stroke:none;fill:black;font-family:sans-serif;font-size:13;text-anchor:end;" transform="matrix(1 0 0 1 3036 1969)">Generated from circle.fill</text>
  <text style="stroke:none;fill:black;font-family:sans-serif;font-size:13;text-anchor:end;" transform="matrix(1 0 0 1 3036 1987)">Typeset at 100.0 points</text>
  <text style="stroke:none;fill:black;font-family:sans-serif;font-size:13;" transform="matrix(1 0 0 1 263 726)">Small</text>
  <text style="stroke:none;fill:black;font-family:sans-serif;font-size:13;" transform="matrix(1 0 0 1 263 1156)">Medium</text>
  <text style="stroke:none;fill:black;font-family:sans-serif;font-size:13;" transform="matrix(1 0 0 1 263 1586)">Large</text>
 </g>
 <g id="Guides">
  <g id="H-reference" style="fill:#27AAE1;stroke:none;" transform="matrix(1 0 0 1 339 696)">
   <path d="M0.993654 0L3.63775 0L29.3281-67.1323L30.0303-67.1323L30.0303-70.459L28.1226-70.459ZM11.6885-24.4799L46.9815-24.4799L46.2315-26.7285L12.4385-26.7285ZM55.1196 0L57.7637 0L30.6382-70.459L29.4326-70.459L29.4326-67.1323Z"/>
  </g>
  <line id="Baseline-S" style="fill:none;stroke:#27AAE1;opacity:1;stroke-width:0.5;" x1="263" x2="3036" y1="696" y2="696"/>
  <line id="Capline-S" style="fill:none;stroke:#27AAE1;opacity:1;stroke-width:0.5;" x1="263" x2="3036" y1="625.541" y2="625.541"/>
  <g id="H-reference" style="fill:#27AAE1;stroke:none;" transform="matrix(1 0 0 1 339 1126)">
   <path d="M0.993654 0L3.63775 0L29.3281-67.1323L30.0303-67.1323L30.0303-70.459L28.1226-70.459ZM11.6885-24.4799L46.9815-24.4799L46.2315-26.7285L12.4385-26.7285ZM55.1196 0L57.7637 0L30.6382-70.459L29.4326-70.459L29.4326-67.1323Z"/>
  </g>
  <line id="Baseline-M" style="fill:none;stroke:#27AAE1;opacity:1;stroke-width:0.5;" x1="263" x2="3036" y1="1126" y2="1126"/>
  <line id="Capline-M" style="fill:none;stroke:#27AAE1;opacity:1;stroke-width:0.5;" x1="263" x2="3036" y1="1055.54" y2="1055.54"/>
  <g id="H-reference" style="fill:#27AAE1;stroke:none;" transform="matrix(1 0 0 1 339 1556)">
   <path d="M0.993654 0L3.63775 0L29.3281-67.1323L30.0303-67.1323L30.0303-70.459L28.1226-70.459ZM11.6885-24.4799L46.9815-24.4799L46.2315-26.7285L12.4385-26.7285ZM55.1196 0L57.7637 0L30.6382-70.459L29.4326-70.459L29.4326-67.1323Z"/>
  </g>
  <line id="Baseline-L" style="fill:none;stroke:#27AAE1;opacity:1;stroke-width:0.5;" x1="263" x2="3036" y1="1556" y2="1556"/>
  <line id="Capline-L" style="fill:none;stroke:#27AAE1;opacity:1;stroke-width:0.5;" x1="263" x2="3036" y1="1485.54" y2="1485.54"/>
  <line id="right-margin-Black-S" style="fill:none;stroke:#00AEEF;stroke-width:0.5;opacity:1.0;" x1="2982.23" x2="2982.23" y1="600.785" y2="720.121"/>
  <line id="left-margin-Black-S" style="fill:none;stroke:#00AEEF;stroke-width:0.5;opacity:1.0;" x1="2884.57" x2="2884.57" y1="600.785" y2="720.121"/>
  <line id="right-margin-Regular-S" style="fill:none;stroke:#00AEEF;stroke-width:0.5;opacity:1.0;" x1="1496.11" x2="1496.11" y1="600.785" y2="720.121"/>
  <line id="left-margin-Regular-S" style="fill:none;stroke:#00AEEF;stroke-width:0.5;opacity:1.0;" x1="1403.58" x2="1403.58" y1="600.785" y2="720.121"/>
  <line id="right-margin-Ultralight-S" style="fill:none;stroke:#00AEEF;stroke-width:0.5;opacity:1.0;" x1="603.773" x2="603.773" y1="600.785" y2="720.121"/>
  <line id="left-margin-Ultralight-S" style="fill:none;stroke:#00AEEF;stroke-width:0.5;opacity:1.0;" x1="515.649" x2="515.649" y1="600.785" y2="720.121"/>
 </g>
 <g id="Symbols">
  <g id="Black-S" transform="matrix(1 0 0 1 2884.57 696)">
   <path class="SFSymbolsPreviewWireframe" d="M48.8281 6.73828C72.0215 6.73828 90.8203-12.0605 90.8203-35.2539C90.8203-58.4473 72.0215-77.2461 48.8281-77.2461C25.6348-77.2461 6.83594-58.4473 6.83594-35.2539C6.83594-12.0605 25.6348 6.73828 48.8281 6.73828ZM61.1093-8.7259C59.3493-8.7259 57.9093-10.1659 57.9093-11.9259L57.9093-14.9659C57.9093-16.7259 59.3493-18.1659 61.1093-18.1659C62.8693-18.1659 64.3093-16.7259 64.3093-14.9659L64.3093-11.9259C64.3093-10.1659 62.8693-8.7259 61.1093-8.7259ZM35.9093-8.7259C34.1493-8.7259 32.7093-10.1659 32.7093-11.9259L32.7093-14.9659C32.7093-16.7259 34.1493-18.1659 35.9093-18.1659C37.6693-18.1659 39.1093-16.7259 39.1093-14.9659L39.1093-11.9259C39.1093-10.1659 37.6693-8.7259 35.9093-8.7259ZM65.3493-14.6459L31.9893-14.6459C28.8693-14.6459 26.2293-17.2059 26.2293-20.4059L27.1893-56.1659C27.1893-59.2859 29.7493-61.9259 32.9493-61.9259L64.3093-61.9259C67.4293-61.9259 70.0693-59.3659 70.0693-56.1659L71.0293-20.4059C71.1093-17.2859 68.5493-14.6459 65.3493-14.6459ZM61.1093-20.0059C59.3493-20.0059 57.8293-21.4459 57.8293-23.2859C57.8293-25.1259 59.2693-26.5659 61.1093-26.5659C62.865-26.5659 64.3893-25.1259 64.3893-23.2859C64.3893-21.4459 62.8693-20.0059 61.1093-20.0059ZM61.1093-21.6059C60.2293-21.6059 59.5093-22.3259 59.5093-23.2059C59.5093-24.0859 60.2293-24.8059 61.1093-24.8059C61.9893-24.8059 62.7093-24.0859 62.7093-23.2059C62.7093-22.3259 61.9893-21.6059 61.1093-21.6059ZM35.9093-20.0059C34.1493-20.0059 32.6293-21.4459 32.6293-23.2859C32.6293-25.1259 34.0693-26.5659 35.9093-26.5659C37.665-26.5659 39.1893-25.1259 39.1893-23.2859C39.1893-21.4459 37.7493-20.0059 35.9093-20.0059ZM35.9093-21.6059C35.0293-21.6059 34.3093-22.3259 34.3093-23.2059C34.3093-24.0859 35.0293-24.8059 35.9093-24.8059C36.7893-24.8059 37.5093-24.0859 37.5093-23.2059C37.5893-22.3259 36.8693-21.6059 35.9093-21.6059ZM66.8693-53.6059L30.3093-53.6059L30.3093-56.0859C30.3093-57.5259 31.4293-58.5659 32.7893-58.5659L64.3093-58.5659C65.7493-58.5659 66.7893-57.4459 66.7893-56.0859L66.8693-53.6059ZM46.3893-31.6859L31.5893-31.6859C30.8693-31.6859 30.3093-32.2459 30.3093-32.9659L30.6293-49.1259C30.6293-49.8459 31.1893-50.4059 31.9093-50.4059L46.3893-50.4059C47.1093-50.4059 47.6693-49.8459 47.6693-49.1259L47.6693-32.9659C47.6693-32.3259 47.1093-31.6859 46.3893-31.6859ZM50.8693-31.6859L65.6693-31.6859C66.3893-31.6859 66.9493-32.2459 66.9493-32.9659L66.6293-49.1259C66.6293-49.8459 66.0693-50.4059 65.3493-50.4059L50.8693-50.4059C50.1493-50.4059 49.5893-49.8459 49.5893-49.1259L49.5893-32.9659C49.5893-32.3259 50.1493-31.6859 50.8693-31.6859ZM48.4387-18.1659C45.7187-18.1659 43.3187-20.4059 43.3187-23.2859C43.3187-26.1659 45.5587-28.4059 48.4387-28.4059C51.3187-28.4059 53.5587-26.1659 53.5587-23.2859C53.5587-20.4059 51.1587-18.1659 48.4387-18.1659ZM47.7187-26.1659C47.4787-26.1659 47.2387-26.1659 46.9987-26.0859C48.5987-25.0459 49.0787-22.8859 47.9587-21.2859C47.7187-20.9659 47.3987-20.6459 46.9987-20.3259C48.5987-19.9259 50.2787-20.8859 50.6787-22.4859C51.0787-24.0859 50.0387-25.6859 48.4387-26.0859C48.1987-26.1659 47.9587-26.1659 47.7187-26.1659Z"/>
  </g>
  <g id="Regular-S" transform="matrix(1 0 0 1 1403.58 696)">
   <path class="SFSymbolsPreviewWireframe" d="M46.2402 4.15039C68.0176 4.15039 85.6934-13.5254 85.6934-35.2539C85.6934-56.9824 68.0176-74.6582 46.2402-74.6582C24.5117-74.6582 6.83594-56.9824 6.83594-35.2539C6.83594-13.5254 24.5117 4.15039 46.2402 4.15039ZM58.9338-8.7259C57.1738-8.7259 55.7338-10.1659 55.7338-11.9259L55.7338-14.9659C55.7338-16.7259 57.1738-18.1659 58.9338-18.1659C60.6938-18.1659 62.1338-16.7259 62.1338-14.9659L62.1338-11.9259C62.1338-10.1659 60.6938-8.7259 58.9338-8.7259ZM33.7338-8.7259C31.9738-8.7259 30.5338-10.1659 30.5338-11.9259L30.5338-14.9659C30.5338-16.7259 31.9738-18.1659 33.7338-18.1659C35.4938-18.1659 36.9338-16.7259 36.9338-14.9659L36.9338-11.9259C36.9338-10.1659 35.4938-8.7259 33.7338-8.7259ZM63.1738-14.6459L29.8138-14.6459C26.6938-14.6459 24.0538-17.2059 24.0538-20.4059L25.0138-56.1659C25.0138-59.2859 27.5738-61.9259 30.7738-61.9259L62.1338-61.9259C65.2538-61.9259 67.8938-59.3659 67.8938-56.1659L68.8538-20.4059C68.9338-17.2859 66.3738-14.6459 63.1738-14.6459ZM58.9338-20.0059C57.1738-20.0059 55.6538-21.4459 55.6538-23.2859C55.6538-25.1259 57.0938-26.5659 58.9338-26.5659C60.6915-26.5659 62.2138-25.1259 62.2138-23.2859C62.2138-21.4459 60.6938-20.0059 58.9338-20.0059ZM58.9338-21.6059C58.0538-21.6059 57.3338-22.3259 57.3338-23.2059C57.3338-24.0859 58.0538-24.8059 58.9338-24.8059C59.8138-24.8059 60.5338-24.0859 60.5338-23.2059C60.5338-22.3259 59.8138-21.6059 58.9338-21.6059ZM33.7338-20.0059C31.9738-20.0059 30.4538-21.4459 30.4538-23.2859C30.4538-25.1259 31.8938-26.5659 33.7338-26.5659C35.4915-26.5659 37.0138-25.1259 37.0138-23.2859C37.0138-21.4459 35.5738-20.0059 33.7338-20.0059ZM33.7338-21.6059C32.8538-21.6059 32.1338-22.3259 32.1338-23.2059C32.1338-24.0859 32.8538-24.8059 33.7338-24.8059C34.6138-24.8059 35.3338-24.0859 35.3338-23.2059C35.4138-22.3259 34.6938-21.6059 33.7338-21.6059ZM64.6938-53.6059L28.1338-53.6059L28.1338-56.0859C28.1338-57.5259 29.2538-58.5659 30.6138-58.5659L62.1338-58.5659C63.5738-58.5659 64.6138-57.4459 64.6138-56.0859L64.6938-53.6059ZM44.2138-31.6859L29.4138-31.6859C28.6938-31.6859 28.1338-32.2459 28.1338-32.9659L28.4538-49.1259C28.4538-49.8459 29.0138-50.4059 29.7338-50.4059L44.2138-50.4059C44.9338-50.4059 45.4938-49.8459 45.4938-49.1259L45.4938-32.9659C45.4938-32.3259 44.9338-31.6859 44.2138-31.6859ZM48.6938-31.6859L63.4938-31.6859C64.2138-31.6859 64.7738-32.2459 64.7738-32.9659L64.4538-49.1259C64.4538-49.8459 63.8938-50.4059 63.1738-50.4059L48.6938-50.4059C47.9738-50.4059 47.4138-49.8459 47.4138-49.1259L47.4138-32.9659C47.4138-32.3259 47.9738-31.6859 48.6938-31.6859ZM46.1427-18.1659C43.4227-18.1659 41.0227-20.4059 41.0227-23.2859C41.0227-26.1659 43.2627-28.4059 46.1427-28.4059C49.0227-28.4059 51.2627-26.1659 51.2627-23.2859C51.2627-20.4059 48.8627-18.1659 46.1427-18.1659ZM45.4227-26.1659C45.1827-26.1659 44.9427-26.1659 44.7027-26.0859C46.3027-25.0459 46.7827-22.8859 45.6627-21.2859C45.4227-20.9659 45.1027-20.6459 44.7027-20.3259C46.3027-19.9259 47.9827-20.8859 48.3827-22.4859C48.7827-24.0859 47.7427-25.6859 46.1427-26.0859C45.9027-26.1659 45.6627-26.1659 45.4227-26.1659Z"/>
  </g>
  <g id="Ultralight-S" transform="matrix(1 0 0 1 515.649 696)">
   <path class="SFSymbolsPreviewWireframe" d="M44.0606 1.97072C64.521 1.97072 81.2886-14.7969 81.2886-35.2539C81.2886-55.7109 64.521-72.4785 44.0606-72.4785C23.6035-72.4785 6.83594-55.7109 6.83594-35.2539C6.83594-14.7969 23.6035 1.97072 44.0606 1.97072ZM56.9247-8.7259C55.1647-8.7259 53.7247-10.1659 53.7247-11.9259L53.7247-14.9659C53.7247-16.7259 55.1647-18.1659 56.9247-18.1659C58.6847-18.1659 60.1247-16.7259 60.1247-14.9659L60.1247-11.9259C60.1247-10.1659 58.6847-8.7259 56.9247-8.7259ZM31.7247-8.7259C29.9647-8.7259 28.5247-10.1659 28.5247-11.9259L28.5247-14.9659C28.5247-16.7259 29.9647-18.1659 31.7247-18.1659C33.4847-18.1659 34.9247-16.7259 34.9247-14.9659L34.9247-11.9259C34.9247-10.1659 33.4847-8.7259 31.7247-8.7259ZM61.1647-14.6459L27.8047-14.6459C24.6847-14.6459 22.0447-17.2059 22.0447-20.4059L23.0047-56.1659C23.0047-59.2859 25.5647-61.9259 28.7647-61.9259L60.1247-61.9259C63.2447-61.9259 65.8847-59.3659 65.8847-56.1659L66.8447-20.4059C66.9247-17.2859 64.3647-14.6459 61.1647-14.6459ZM56.9247-20.0059C55.1647-20.0059 53.6447-21.4459 53.6447-23.2859C53.6447-25.1259 55.0847-26.5659 56.9247-26.5659C58.753-26.5659 60.2047-25.1259 60.2047-23.2859C60.2047-21.4459 58.6847-20.0059 56.9247-20.0059ZM56.9247-21.6059C56.0447-21.6059 55.3247-22.3259 55.3247-23.2059C55.3247-24.0859 56.0447-24.8059 56.9247-24.8059C57.8047-24.8059 58.5247-24.0859 58.5247-23.2059C58.5247-22.3259 57.8047-21.6059 56.9247-21.6059ZM31.7247-20.0059C29.9647-20.0059 28.4447-21.4459 28.4447-23.2859C28.4447-25.1259 29.8847-26.5659 31.7247-26.5659C33.553-26.5659 35.0047-25.1259 35.0047-23.2859C35.0047-21.4459 33.5647-20.0059 31.7247-20.0059ZM31.7247-21.6059C30.8447-21.6059 30.1247-22.3259 30.1247-23.2059C30.1247-24.0859 30.8447-24.8059 31.7247-24.8059C32.6047-24.8059 33.3247-24.0859 33.3247-23.2059C33.4047-22.3259 32.6847-21.6059 31.7247-21.6059ZM62.6847-53.6059L26.1247-53.6059L26.1247-56.0859C26.1247-57.5259 27.2447-58.5659 28.6047-58.5659L60.1247-58.5659C61.5647-58.5659 62.6047-57.4459 62.6047-56.0859L62.6847-53.6059ZM42.2047-31.6859L27.4047-31.6859C26.6847-31.6859 26.1247-32.2459 26.1247-32.9659L26.4447-49.1259C26.4447-49.8459 27.0047-50.4059 27.7247-50.4059L42.2047-50.4059C42.9247-50.4059 43.4847-49.8459 43.4847-49.1259L43.4847-32.9659C43.4847-32.3259 42.9247-31.6859 42.2047-31.6859ZM46.6847-31.6859L61.4847-31.6859C62.2047-31.6859 62.7647-32.2459 62.7647-32.9659L62.4447-49.1259C62.4447-49.8459 61.8847-50.4059 61.1647-50.4059L46.6847-50.4059C45.9647-50.4059 45.4047-49.8459 45.4047-49.1259L45.4047-32.9659C45.4047-32.3259 45.9647-31.6859 46.6847-31.6859ZM44.8075-18.1659C42.0875-18.1659 39.6875-20.4059 39.6875-23.2859C39.6875-26.1659 41.9275-28.4059 44.8075-28.4059C47.6875-28.4059 49.9275-26.1659 49.9275-23.2859C49.9275-20.4059 47.5275-18.1659 44.8075-18.1659ZM44.0875-26.1659C43.8475-26.1659 43.6075-26.1659 43.3675-26.0859C44.9675-25.0459 45.4475-22.8859 44.3275-21.2859C44.0875-20.9659 43.7675-20.6459 43.3675-20.3259C44.9675-19.9259 46.6475-20.8859 47.0475-22.4859C47.4475-24.0859 46.4075-25.6859 44.8075-26.0859C44.5675-26.1659 44.3275-26.1659 44.0875-26.1659Z"/>
  </g>
 </g>
 <g id="LayerTree">
  <g class="monochrome-0 multicolor-0:custom hierarchical-0:tertiary"/>
  <g class="monochrome-1 multicolor-1:white hierarchical-1:primary">
   <g class="shapeGroupLayer-0"/>
   <g class="shapeGroupLayer-1"/>
   <g class="shapeGroupLayer-2"/>
   <g class="shapeGroupLayer-3"/>
   <g class="shapeGroupLayer-4"/>
   <g class="shapeGroupLayer-5"/>
   <g class="shapeGroupLayer-6"/>
   <g class="shapeGroupLayer-7"/>
  </g>
 </g>
</svg>
