<?xml version="1.0" encoding="UTF-8"?>
<!--Generator: Apple Native CoreSVG 341-->
<!DOCTYPE svg
PUBLIC "-//W3C//DTD SVG 1.1//EN"
       "http://www.w3.org/Graphics/SVG/1.1/DTD/svg11.dtd">
<svg version="1.1" xmlns="http://www.w3.org/2000/svg" xmlns:xlink="http://www.w3.org/1999/xlink" viewBox="0 0 3300 2200">
 <!--glyph: "", point size: 100.0, font version: "20.0d10e1", template writer version: "138.0.0"-->
 <style>.monochrome-0 {-sfsymbols-motion-group:1;-sfsymbols-indices:0;-sfsymbols-layer-tags:-4b22c77198fde5e0 circle.fill}
.monochrome-1 {opacity:0.0;-sfsymbols-clear-behind:true;-sfsymbols-motion-group:0;-sfsymbols-always-pulses:true;-sfsymbols-layer-tags:-4b22c77198fde5e0}

.multicolor-0:custom {fill:#78BE20;-sfsymbols-motion-group:1;-sfsymbols-indices:0;-sfsymbols-layer-tags:-4b22c77198fde5e0 circle.fill}
.multicolor-1:white {-sfsymbols-motion-group:0;-sfsymbols-always-pulses:true;-sfsymbols-layer-tags:-4b22c77198fde5e0}

.hierarchical-0:tertiary {-sfsymbols-motion-group:1;-sfsymbols-indices:0;-sfsymbols-layer-tags:-4b22c77198fde5e0 circle.fill}
.hierarchical-1:primary {-sfsymbols-motion-group:0;-sfsymbols-layer-tags:-4b22c77198fde5e0}

.shapeGroupLayer-0 {-sfsymbols-fill-action:draw;-sfsymbols-indices:1 2}
.shapeGroupLayer-1 {-sfsymbols-fill-action:draw;-sfsymbols-indices:3}
.shapeGroupLayer-2 {-sfsymbols-fill-action:erase;-sfsymbols-indices:4}
.shapeGroupLayer-3 {-sfsymbols-fill-action:draw;-sfsymbols-indices:5}
.shapeGroupLayer-4 {-sfsymbols-fill-action:draw;-sfsymbols-indices:6}
.shapeGroupLayer-5 {-sfsymbols-fill-action:erase;-sfsymbols-indices:7 8}
.shapeGroupLayer-6 {-sfsymbols-fill-action:erase;-sfsymbols-indices:9}
.shapeGroupLayer-7 {-sfsymbols-fill-action:draw;-sfsymbols-indices:10}
.shapeGroupLayer-8 {-sfsymbols-fill-action:erase;-sfsymbols-indices:11 12}

.SFSymbolsPreviewWireframe {fill:none;opacity:1.0;stroke:black;stroke-width:0.5}
</style>
 <g id="Notes">
  <rect height="2200" id="artboard" style="fill:white;opacity:1" width="3300" x="0" y="0"/>
  <line style="fill:none;stroke:black;opacity:1;stroke-width:0.5;" x1="263" x2="3036" y1="292" y2="292"/>
  <text style="stroke:none;fill:black;font-family:sans-serif;font-size:13;font-weight:bold;" transform="matrix(1 0 0 1 263 322)">Weight/Scale Variations</text>
  <text style="stroke:none;fill:black;font-family:sans-serif;font-size:13;text-anchor:middle;" transform="matrix(1 0 0 1 559.711 322)">Ultralight</text>
  <text style="stroke:none;fill:black;font-family:sans-serif;font-size:13;text-anchor:middle;" transform="matrix(1 0 0 1 856.422 322)">Thin</text>
  <text style="stroke:none;fill:black;font-family:sans-serif;font-size:13;text-anchor:middle;" transform="matrix(1 0 0 1 1153.13 322)">Light</text>
  <text style="stroke:none;fill:black;font-family:sans-serif;font-size:13;text-anchor:middle;" transform="matrix(1 0 0 1 1449.84 322)">Regular</text>
  <text style="stroke:none;fill:black;font-family:sans-serif;font-size:13;text-anchor:middle;" transform="matrix(1 0 0 1 1746.56 322)">Medium</text>
  <text style="stroke:none;fill:black;font-family:sans-serif;font-size:13;text-anchor:middle;" transform="matrix(1 0 0 1 2043.27 322)">Semibold</text>
  <text style="stroke:none;fill:black;font-family:sans-serif;font-size:13;text-anchor:middle;" transform="matrix(1 0 0 1 2339.98 322)">Bold</text>
  <text style="stroke:none;fill:black;font-family:sans-serif;font-size:13;text-anchor:middle;" transform="matrix(1 0 0 1 2636.69 322)">Heavy</text>
  <text style="stroke:none;fill:black;font-family:sans-serif;font-size:13;text-anchor:middle;" transform="matrix(1 0 0 1 2933.4 322)">Black</text>
  <line style="fill:none;stroke:black;opacity:1;stroke-width:0.5;" x1="263" x2="3036" y1="1903" y2="1903"/>
  <g transform="matrix(0.2 0 0 0.2 263 1933)">
   <path d="m46.2402 4.15039c21.7773 0 39.4531-17.627 39.4531-39.4043s-17.6758-39.4043-39.4531-39.4043c-21.7285 0-39.4043 17.627-39.4043 39.4043s17.6758 39.4043 39.4043 39.4043Zm0-7.42188c-17.6758 0-31.9336-14.3066-31.9336-31.9824s14.2578-31.9824 31.9336-31.9824 31.9824 14.3066 31.9824 31.9824-14.3066 31.9824-31.9824 31.9824Zm-17.9688-31.9824c0 2.14844 1.51367 3.61328 3.75977 3.61328h10.498v10.5957c0 2.19727 1.46484 3.71094 3.61328 3.71094 2.24609 0 3.71094-1.51367 3.71094-3.71094v-10.5957h10.5957c2.19727 0 3.71094-1.46484 3.71094-3.61328 0-2.19727-1.51367-3.71094-3.71094-3.71094h-10.5957v-10.5469c0-2.24609-1.46484-3.75977-3.71094-3.75977-2.14844 0-3.61328 1.51367-3.61328 3.75977v10.5469h-10.498c-2.24609 0-3.75977 1.51367-3.75977 3.71094Z"/>
  </g>
  <g transform="matrix(0.2 0 0 0.2 281.506 1933)">
   <path d="m58.5449 14.5508c27.4902 0 49.8047-22.3145 49.8047-49.8047s-22.3145-49.8047-49.8047-49.8047-49.8047 22.3145-49.8047 49.8047 22.3145 49.8047 49.8047 49.8047Zm0-8.30078c-22.9492 0-41.5039-18.5547-41.5039-41.5039s18.5547-41.5039 41.5039-41.5039 41.5039 18.5547 41.5039 41.5039-18.5547 41.5039-41.5039 41.5039Zm-22.6562-41.5039c0 2.39258 1.66016 4.00391 4.15039 4.00391h14.3555v14.4043c0 2.44141 1.66016 4.15039 4.05273 4.15039 2.44141 0 4.15039-1.66016 4.15039-4.15039v-14.4043h14.4043c2.44141 0 4.15039-1.61133 4.15039-4.00391 0-2.44141-1.70898-4.15039-4.15039-4.15039h-14.4043v-14.3555c0-2.49023-1.70898-4.19922-4.15039-4.19922-2.39258 0-4.05273 1.70898-4.05273 4.19922v14.3555h-14.3555c-2.49023 0-4.15039 1.70898-4.15039 4.15039Z"/>
  </g>
  <g transform="matrix(0.2 0 0 0.2 304.924 1933)">
   <path d="m74.8535 28.3203c35.1074 0 63.623-28.4668 63.623-63.5742s-28.5156-63.623-63.623-63.623-63.5742 28.5156-63.5742 63.623 28.4668 63.5742 63.5742 63.5742Zm0-9.08203c-30.127 0-54.4922-24.3652-54.4922-54.4922s24.3652-54.4922 54.4922-54.4922 54.4922 24.3652 54.4922 54.4922-24.3652 54.4922-54.4922 54.4922Zm-28.8574-54.4922c0 2.58789 1.85547 4.39453 4.58984 4.39453h19.7266v19.7754c0 2.68555 1.85547 4.58984 4.44336 4.58984 2.68555 0 4.54102-1.85547 4.54102-4.58984v-19.7754h19.7754c2.68555 0 4.58984-1.80664 4.58984-4.39453 0-2.73438-1.85547-4.58984-4.58984-4.58984h-19.7754v-19.7266c0-2.73438-1.85547-4.63867-4.54102-4.63867-2.58789 0-4.44336 1.9043-4.44336 4.63867v19.7266h-19.7266c-2.73438 0-4.58984 1.85547-4.58984 4.58984Z"/>
  </g>
  <text style="stroke:none;fill:black;font-family:sans-serif;font-size:13;font-weight:bold;" transform="matrix(1 0 0 1 263 1953)">Design Variations</text>
  <text style="stroke:none;fill:black;font-family:sans-serif;font-size:13;" transform="matrix(1 0 0 1 263 1971)">Symbols are supported in up to nine weights and three scales.</text>
  <text style="stroke:none;fill:black;font-family:sans-serif;font-size:13;" transform="matrix(1 0 0 1 263 1989)">For optimal layout with text and other symbols, vertically align</text>
  <text style="stroke:none;fill:black;font-family:sans-serif;font-size:13;" transform="matrix(1 0 0 1 263 2007)">symbols with the adjacent text.</text>
  <line style="fill:none;stroke:#00AEEF;stroke-width:0.5;opacity:1.0;" x1="776" x2="776" y1="1919" y2="1933"/>
  <g transform="matrix(0.2 0 0 0.2 776 1933)">
   <path d="m16.5527 0.78125c2.58789 0 3.85742-0.976562 4.78516-3.71094l6.29883-17.2363h28.8086l6.29883 17.2363c0.927734 2.73438 2.19727 3.71094 4.73633 3.71094 2.58789 0 4.24805-1.5625 4.24805-4.00391 0-0.830078-0.146484-1.61133-0.537109-2.63672l-22.9004-60.9863c-1.12305-2.97852-3.125-4.49219-6.25-4.49219-3.02734 0-5.07812 1.46484-6.15234 4.44336l-22.9004 61.084c-0.390625 1.02539-0.537109 1.80664-0.537109 2.63672 0 2.44141 1.5625 3.95508 4.10156 3.95508Zm13.4766-28.3691 11.8652-32.8613h0.244141l11.8652 32.8613Z"/>
  </g>
  <line style="fill:none;stroke:#00AEEF;stroke-width:0.5;opacity:1.0;" x1="792.836" x2="792.836" y1="1919" y2="1933"/>
  <text style="stroke:none;fill:black;font-family:sans-serif;font-size:13;font-weight:bold;" transform="matrix(1 0 0 1 776 1953)">Margins</text>
  <text style="stroke:none;fill:black;font-family:sans-serif;font-size:13;" transform="matrix(1 0 0 1 776 1971)">Leading and trailing margins on the left and right side of each symbol</text>
  <text style="stroke:none;fill:black;font-family:sans-serif;font-size:13;" transform="matrix(1 0 0 1 776 1989)">can be adjusted by modifying the x-location of the margin guidelines.</text>
  <text style="stroke:none;fill:black;font-family:sans-serif;font-size:13;" transform="matrix(1 0 0 1 776 2007)">Modifications are automatically applied proportionally to all</text>
  <text style="stroke:none;fill:black;font-family:sans-serif;font-size:13;" transform="matrix(1 0 0 1 776 2025)">scales and weights.</text>
  <g transform="matrix(0.2 0 0 0.2 1289 1933)">
   <path d="m14.209 9.32617 8.49609 8.54492c4.29688 4.3457 9.22852 4.05273 13.8672-1.07422l53.4668-58.9355-4.83398-4.88281-53.0762 58.3984c-1.75781 2.00195-3.41797 2.49023-5.76172 0.146484l-5.85938-5.81055c-2.34375-2.29492-1.80664-4.00391 0.195312-5.81055l57.373-54.0039-4.88281-4.83398-57.959 54.4434c-4.93164 4.58984-5.32227 9.47266-1.02539 13.8184Zm32.0801-90.9668c-2.09961 2.05078-2.24609 4.93164-1.07422 6.88477 1.17188 1.80664 3.4668 2.97852 6.68945 2.14844 7.32422-1.70898 14.9414-2.00195 22.0703 2.68555l-2.92969 7.27539c-1.70898 4.15039-0.830078 7.08008 1.85547 9.81445l11.4746 11.5723c2.44141 2.44141 4.49219 2.53906 7.32422 2.05078l5.32227-0.976562 3.32031 3.36914-0.195312 2.7832c-0.195312 2.49023 0.439453 4.39453 2.88086 6.78711l3.80859 3.71094c2.39258 2.39258 5.46875 2.53906 7.8125 0.195312l14.5508-14.5996c2.34375-2.34375 2.24609-5.32227-0.146484-7.71484l-3.85742-3.80859c-2.39258-2.39258-4.24805-3.17383-6.64062-2.97852l-2.88086 0.244141-3.22266-3.17383 1.2207-5.61523c0.634766-2.83203-0.146484-5.0293-3.07617-7.95898l-10.9863-10.9375c-16.6992-16.6016-38.8672-16.2109-53.3203-1.75781Zm7.4707 1.85547c12.1582-8.88672 28.6133-7.37305 39.7461 3.75977l12.1582 12.0605c1.17188 1.17188 1.36719 2.09961 1.02539 3.80859l-1.61133 7.42188 7.51953 7.42188 4.93164-0.292969c1.26953-0.0488281 1.66016 0.0488281 2.63672 1.02539l2.88086 2.88086-12.207 12.207-2.88086-2.88086c-0.976562-0.976562-1.12305-1.36719-1.07422-2.68555l0.341797-4.88281-7.4707-7.42188-7.61719 1.26953c-1.61133 0.341797-2.34375 0.195312-3.56445-0.976562l-10.0098-10.0098c-1.26953-1.17188-1.41602-2.00195-0.634766-3.85742l4.39453-10.4492c-7.8125-7.27539-17.9688-10.4004-28.125-7.42188-0.78125 0.195312-1.07422-0.439453-0.439453-0.976562Z"/>
  </g>
  <text style="stroke:none;fill:black;font-family:sans-serif;font-size:13;font-weight:bold;" transform="matrix(1 0 0 1 1289 1953)">Exporting</text>
  <text style="stroke:none;fill:black;font-family:sans-serif;font-size:13;" transform="matrix(1 0 0 1 1289 1971)">Symbols should be outlined when exporting to ensure the</text>
  <text style="stroke:none;fill:black;font-family:sans-serif;font-size:13;" transform="matrix(1 0 0 1 1289 1989)">design is preserved when submitting to Xcode.</text>
  <text id="template-version" style="stroke:none;fill:black;font-family:sans-serif;font-size:13;text-anchor:end;" transform="matrix(1 0 0 1 3036 1933)">Template v.6.0</text>
  <text style="stroke:none;fill:black;font-family:sans-serif;font-size:13;text-anchor:end;" transform="matrix(1 0 0 1 3036 1951)">Requires Xcode 16 or greater</text>
  <text id="descriptive-name" style="stroke:none;fill:black;font-family:sans-serif;font-size:13;text-anchor:end;" transform="matrix(1 0 0 1 3036 1969)">Generated from circle.fill</text>
  <text style="stroke:none;fill:black;font-family:sans-serif;font-size:13;text-anchor:end;" transform="matrix(1 0 0 1 3036 1987)">Typeset at 100.0 points</text>
  <text style="stroke:none;fill:black;font-family:sans-serif;font-size:13;" transform="matrix(1 0 0 1 263 726)">Small</text>
  <text style="stroke:none;fill:black;font-family:sans-serif;font-size:13;" transform="matrix(1 0 0 1 263 1156)">Medium</text>
  <text style="stroke:none;fill:black;font-family:sans-serif;font-size:13;" transform="matrix(1 0 0 1 263 1586)">Large</text>
 </g>
 <g id="Guides">
  <g id="H-reference" style="fill:#27AAE1;stroke:none;" transform="matrix(1 0 0 1 339 696)">
   <path d="M0.993654 0L3.63775 0L29.3281-67.1323L30.0303-67.1323L30.0303-70.459L28.1226-70.459ZM11.6885-24.4799L46.9815-24.4799L46.2315-26.7285L12.4385-26.7285ZM55.1196 0L57.7637 0L30.6382-70.459L29.4326-70.459L29.4326-67.1323Z"/>
  </g>
  <line id="Baseline-S" style="fill:none;stroke:#27AAE1;opacity:1;stroke-width:0.5;" x1="263" x2="3036" y1="696" y2="696"/>
  <line id="Capline-S" style="fill:none;stroke:#27AAE1;opacity:1;stroke-width:0.5;" x1="263" x2="3036" y1="625.541" y2="625.541"/>
  <g id="H-reference" style="fill:#27AAE1;stroke:none;" transform="matrix(1 0 0 1 339 1126)">
   <path d="M0.993654 0L3.63775 0L29.3281-67.1323L30.0303-67.1323L30.0303-70.459L28.1226-70.459ZM11.6885-24.4799L46.9815-24.4799L46.2315-26.7285L12.4385-26.7285ZM55.1196 0L57.7637 0L30.6382-70.459L29.4326-70.459L29.4326-67.1323Z"/>
  </g>
  <line id="Baseline-M" style="fill:none;stroke:#27AAE1;opacity:1;stroke-width:0.5;" x1="263" x2="3036" y1="1126" y2="1126"/>
  <line id="Capline-M" style="fill:none;stroke:#27AAE1;opacity:1;stroke-width:0.5;" x1="263" x2="3036" y1="1055.54" y2="1055.54"/>
  <g id="H-reference" style="fill:#27AAE1;stroke:none;" transform="matrix(1 0 0 1 339 1556)">
   <path d="M0.993654 0L3.63775 0L29.3281-67.1323L30.0303-67.1323L30.0303-70.459L28.1226-70.459ZM11.6885-24.4799L46.9815-24.4799L46.2315-26.7285L12.4385-26.7285ZM55.1196 0L57.7637 0L30.6382-70.459L29.4326-70.459L29.4326-67.1323Z"/>
  </g>
  <line id="Baseline-L" style="fill:none;stroke:#27AAE1;opacity:1;stroke-width:0.5;" x1="263" x2="3036" y1="1556" y2="1556"/>
  <line id="Capline-L" style="fill:none;stroke:#27AAE1;opacity:1;stroke-width:0.5;" x1="263" x2="3036" y1="1485.54" y2="1485.54"/>
  <line id="right-margin-Black-S" style="fill:none;stroke:#00AEEF;stroke-width:0.5;opacity:1.0;" x1="2982.23" x2="2982.23" y1="600.785" y2="720.121"/>
  <line id="left-margin-Black-S" style="fill:none;stroke:#00AEEF;stroke-width:0.5;opacity:1.0;" x1="2884.57" x2="2884.57" y1="600.785" y2="720.121"/>
  <line id="right-margin-Regular-S" style="fill:none;stroke:#00AEEF;stroke-width:0.5;opacity:1.0;" x1="1496.11" x2="1496.11" y1="600.785" y2="720.121"/>
  <line id="left-margin-Regular-S" style="fill:none;stroke:#00AEEF;stroke-width:0.5;opacity:1.0;" x1="1403.58" x2="1403.58" y1="600.785" y2="720.121"/>
  <line id="right-margin-Ultralight-S" style="fill:none;stroke:#00AEEF;stroke-width:0.5;opacity:1.0;" x1="603.773" x2="603.773" y1="600.785" y2="720.121"/>
  <line id="left-margin-Ultralight-S" style="fill:none;stroke:#00AEEF;stroke-width:0.5;opacity:1.0;" x1="515.649" x2="515.649" y1="600.785" y2="720.121"/>
 </g>
 <g id="Symbols">
  <g id="Black-S" transform="matrix(1 0 0 1 2884.57 696)">
   <path class="SFSymbolsPreviewWireframe" d="M48.8281 6.73828C72.0215 6.73828 90.8203-12.0605 90.8203-35.2539C90.8203-58.4473 72.0215-77.2461 48.8281-77.2461C25.6348-77.2461 6.83594-58.4473 6.83594-35.2539C6.83594-12.0605 25.6348 6.73828 48.8281 6.73828ZM38.9771-14.7688C39.3271-14.7688 39.6771-14.4188 39.6771-14.0688L39.6771-11.4088C39.6771-11.0588 39.3271-10.7088 38.9771-10.7088C38.6271-10.7088 38.2771-11.0588 38.2771-11.4088L38.2771-14.0688C38.2771-14.4188 38.5571-14.7688 38.9771-14.7688ZM57.3871-14.7688C57.7371-14.7688 58.0871-14.4188 58.0871-14.0688L58.0871-11.4088C58.0871-11.0588 57.7371-10.7088 57.3871-10.7088C57.0371-10.7088 56.6871-11.0588 56.6871-11.4088L56.6871-14.0688C56.6171-14.4188 57.0371-14.7688 57.3871-14.7688ZM36.8071-59.7088L58.3671-59.7088C59.9071-59.7088 61.1671-58.4488 61.1671-56.9088C61.1671-56.3488 60.8171-55.9288 60.1871-55.9288L34.8471-55.9288C34.2871-55.9288 33.8671-56.2788 33.8671-56.9088C34.0071-58.3788 35.1971-59.7088 36.8071-59.7088ZM37.1571-58.3088L57.8771-58.3088C58.8571-58.3088 59.7671-57.4688 59.7671-56.4188L59.7671-54.5288L35.3371-54.5288L35.3371-56.3488C35.3371-57.3988 36.1771-58.3088 37.1571-58.3088ZM47.6571-59.4988C48.0071-59.4988 48.2171-59.2888 48.2171-58.9388L48.2171-54.5988C48.2171-54.2488 48.0071-54.0388 47.6571-54.0388C47.3071-54.0388 47.0971-54.2488 47.0971-54.5988L47.0971-58.9388C47.0971-59.2188 47.3771-59.4988 47.6571-59.4988ZM62.7771-13.2288L33.9371-13.2288C31.5571-13.2288 29.5971-15.1888 29.5971-17.5688L30.7171-45.0788C30.7171-54.8088 31.2071-54.8088 39.3971-54.8088L57.4571-54.8088C65.9971-54.8088 66.1371-54.8088 66.1371-45.0788L67.2571-17.5688C67.1171-15.1888 65.1571-13.2288 62.7771-13.2288ZM34.1471-19.7388C34.1471-20.5788 34.8471-21.2788 35.6871-21.2788L41.0071-21.2788C41.8471-21.2788 42.5471-20.5788 42.5471-19.7388C42.5471-18.8988 41.8471-18.1988 41.0071-18.1988L35.6871-18.1988C34.8471-18.1988 34.1471-18.8988 34.1471-19.7388ZM53.6071-19.7388C53.6071-20.5788 54.3071-21.2788 55.1471-21.2788L60.4671-21.2788C61.3071-21.2788 62.0071-20.5788 62.0071-19.7388C62.0071-18.8988 61.3071-18.1988 60.4671-18.1988L55.1471-18.1988C54.3071-18.1988 53.6071-18.8988 53.6071-19.7388ZM59.1371-23.7288L37.5771-23.7288C35.7571-23.7288 34.3571-24.9188 34.3571-26.3888L35.1271-43.4688C35.1271-49.5588 35.4771-49.5588 41.6371-49.5588L55.0771-49.5588C61.4471-49.5588 61.5871-49.5588 61.5871-43.4688L62.3571-26.3188C62.2871-24.8488 60.9571-23.7288 59.1371-23.7288ZM56.9671-26.2488L39.7471-26.2488C38.3471-26.2488 37.1571-27.2288 37.1571-28.4188L37.7871-42.1388C37.7871-46.9688 37.9971-46.9688 42.9671-46.9688L53.6771-46.9688C58.7171-46.9688 58.8571-46.9688 58.8571-42.1388L59.4871-28.4188C59.5571-27.2988 58.3671-26.2488 56.9671-26.2488ZM42.8271-38.1488C43.1771-38.0788 43.5271-37.7988 43.4571-37.3788L42.4771-28.6288C42.4071-28.2788 42.1271-27.9288 41.7071-27.9988C41.3571-28.0688 41.0071-28.3488 41.0771-28.7688L42.0571-37.5188C42.0571-37.9388 42.4071-38.1488 42.8271-38.1488ZM47.3771-25.2688C47.0271-25.0588 46.6071-25.1288 46.3971-25.4088L41.7771-31.9888C41.5671-32.3388 41.6371-32.7588 41.9171-32.9688C42.2671-33.1788 42.6871-33.1088 42.8971-32.8288L47.5171-26.2488C47.7271-26.0388 47.6571-25.5488 47.3771-25.2688Z"/>
  </g>
  <g id="Regular-S" transform="matrix(1 0 0 1 1403.58 696)">
   <path class="SFSymbolsPreviewWireframe" d="M46.2402 4.15039C68.0176 4.15039 85.6934-13.5254 85.6934-35.2539C85.6934-56.9824 68.0176-74.6582 46.2402-74.6582C24.5117-74.6582 6.83594-56.9824 6.83594-35.2539C6.83594-13.5254 24.5117 4.15039 46.2402 4.15039ZM36.7304-14.7688C37.0804-14.7688 37.4304-14.4188 37.4304-14.0688L37.4304-11.4088C37.4304-11.0588 37.0804-10.7088 36.7304-10.7088C36.3804-10.7088 36.0304-11.0588 36.0304-11.4088L36.0304-14.0688C36.0304-14.4188 36.3104-14.7688 36.7304-14.7688ZM55.1404-14.7688C55.4904-14.7688 55.8404-14.4188 55.8404-14.0688L55.8404-11.4088C55.8404-11.0588 55.4904-10.7088 55.1404-10.7088C54.7904-10.7088 54.4404-11.0588 54.4404-11.4088L54.4404-14.0688C54.3704-14.4188 54.7904-14.7688 55.1404-14.7688ZM34.5604-59.7088L56.1204-59.7088C57.6604-59.7088 58.9204-58.4488 58.9204-56.9088C58.9204-56.3488 58.5704-55.9288 57.9404-55.9288L32.6004-55.9288C32.0404-55.9288 31.6204-56.2788 31.6204-56.9088C31.7604-58.3788 32.9504-59.7088 34.5604-59.7088ZM34.9104-58.3088L55.6304-58.3088C56.6104-58.3088 57.5204-57.4688 57.5204-56.4188L57.5204-54.5288L33.0904-54.5288L33.0904-56.3488C33.0904-57.3988 33.9304-58.3088 34.9104-58.3088ZM45.4104-59.4988C45.7604-59.4988 45.9704-59.2888 45.9704-58.9388L45.9704-54.5988C45.9704-54.2488 45.7604-54.0388 45.4104-54.0388C45.0604-54.0388 44.8504-54.2488 44.8504-54.5988L44.8504-58.9388C44.8504-59.2188 45.1304-59.4988 45.4104-59.4988ZM60.5304-13.2288L31.6904-13.2288C29.3104-13.2288 27.3504-15.1888 27.3504-17.5688L28.4704-45.0788C28.4704-54.8088 28.9604-54.8088 37.1504-54.8088L55.2104-54.8088C63.7504-54.8088 63.8904-54.8088 63.8904-45.0788L65.0104-17.5688C64.8704-15.1888 62.9104-13.2288 60.5304-13.2288ZM31.9004-19.7388C31.9004-20.5788 32.6004-21.2788 33.4404-21.2788L38.7604-21.2788C39.6004-21.2788 40.3004-20.5788 40.3004-19.7388C40.3004-18.8988 39.6004-18.1988 38.7604-18.1988L33.4404-18.1988C32.6004-18.1988 31.9004-18.8988 31.9004-19.7388ZM51.3604-19.7388C51.3604-20.5788 52.0604-21.2788 52.9004-21.2788L58.2204-21.2788C59.0604-21.2788 59.7604-20.5788 59.7604-19.7388C59.7604-18.8988 59.0604-18.1988 58.2204-18.1988L52.9004-18.1988C52.0604-18.1988 51.3604-18.8988 51.3604-19.7388ZM56.8904-23.7288L35.3304-23.7288C33.5104-23.7288 32.1104-24.9188 32.1104-26.3888L32.8804-43.4688C32.8804-49.5588 33.2304-49.5588 39.3904-49.5588L52.8304-49.5588C59.2004-49.5588 59.3404-49.5588 59.3404-43.4688L60.1104-26.3188C60.0404-24.8488 58.7104-23.7288 56.8904-23.7288ZM54.7204-26.2488L37.5004-26.2488C36.1004-26.2488 34.9104-27.2288 34.9104-28.4188L35.5404-42.1388C35.5404-46.9688 35.7504-46.9688 40.7204-46.9688L51.4304-46.9688C56.4704-46.9688 56.6104-46.9688 56.6104-42.1388L57.2404-28.4188C57.3104-27.2988 56.1204-26.2488 54.7204-26.2488ZM40.5804-38.1488C40.9304-38.0788 41.2804-37.7988 41.2104-37.3788L40.2304-28.6288C40.1604-28.2788 39.8804-27.9288 39.4604-27.9988C39.1104-28.0688 38.7604-28.3488 38.8304-28.7688L39.8104-37.5188C39.8104-37.9388 40.1604-38.1488 40.5804-38.1488ZM45.1304-25.2688C44.7804-25.0588 44.3604-25.1288 44.1504-25.4088L39.5304-31.9888C39.3204-32.3388 39.3904-32.7588 39.6704-32.9688C40.0204-33.1788 40.4404-33.1088 40.6504-32.8288L45.2704-26.2488C45.4804-26.0388 45.4104-25.5488 45.1304-25.2688Z"/>
  </g>
  <g id="Ultralight-S" transform="matrix(1 0 0 1 515.649 696)">
   <path class="SFSymbolsPreviewWireframe" d="M44.0606 1.97072C64.521 1.97072 81.2886-14.7969 81.2886-35.2539C81.2886-55.7109 64.521-72.4785 44.0606-72.4785C23.6035-72.4785 6.83594-55.7109 6.83594-35.2539C6.83594-14.7969 23.6035 1.97072 44.0606 1.97072ZM34.7292-14.7688C35.0792-14.7688 35.4292-14.4188 35.4292-14.0688L35.4292-11.4088C35.4292-11.0588 35.0792-10.7088 34.7292-10.7088C34.3792-10.7088 34.0292-11.0588 34.0292-11.4088L34.0292-14.0688C34.0292-14.4188 34.3092-14.7688 34.7292-14.7688ZM53.1392-14.7688C53.4892-14.7688 53.8392-14.4188 53.8392-14.0688L53.8392-11.4088C53.8392-11.0588 53.4892-10.7088 53.1392-10.7088C52.7892-10.7088 52.4392-11.0588 52.4392-11.4088L52.4392-14.0688C52.3692-14.4188 52.7892-14.7688 53.1392-14.7688ZM32.5592-59.7088L54.1192-59.7088C55.6592-59.7088 56.9192-58.4488 56.9192-56.9088C56.9192-56.3488 56.5692-55.9288 55.9392-55.9288L30.5992-55.9288C30.0392-55.9288 29.6192-56.2788 29.6192-56.9088C29.7592-58.3788 30.9492-59.7088 32.5592-59.7088ZM32.9092-58.3088L53.6292-58.3088C54.6092-58.3088 55.5192-57.4688 55.5192-56.4188L55.5192-54.5288L31.0892-54.5288L31.0892-56.3488C31.0892-57.3988 31.9292-58.3088 32.9092-58.3088ZM43.4092-59.4988C43.7592-59.4988 43.9692-59.2888 43.9692-58.9388L43.9692-54.5988C43.9692-54.2488 43.7592-54.0388 43.4092-54.0388C43.0592-54.0388 42.8492-54.2488 42.8492-54.5988L42.8492-58.9388C42.8492-59.2188 43.1292-59.4988 43.4092-59.4988ZM58.5292-13.2288L29.6892-13.2288C27.3092-13.2288 25.3492-15.1888 25.3492-17.5688L26.4692-45.0788C26.4692-54.8088 26.9592-54.8088 35.1492-54.8088L53.2092-54.8088C61.7492-54.8088 61.8892-54.8088 61.8892-45.0788L63.0092-17.5688C62.8692-15.1888 60.9092-13.2288 58.5292-13.2288ZM29.8992-19.7388C29.8992-20.5788 30.5992-21.2788 31.4392-21.2788L36.7592-21.2788C37.5992-21.2788 38.2992-20.5788 38.2992-19.7388C38.2992-18.8988 37.5992-18.1988 36.7592-18.1988L31.4392-18.1988C30.5992-18.1988 29.8992-18.8988 29.8992-19.7388ZM49.3592-19.7388C49.3592-20.5788 50.0592-21.2788 50.8992-21.2788L56.2192-21.2788C57.0592-21.2788 57.7592-20.5788 57.7592-19.7388C57.7592-18.8988 57.0592-18.1988 56.2192-18.1988L50.8992-18.1988C50.0592-18.1988 49.3592-18.8988 49.3592-19.7388ZM54.8892-23.7288L33.3292-23.7288C31.5092-23.7288 30.1092-24.9188 30.1092-26.3888L30.8792-43.4688C30.8792-49.5588 31.2292-49.5588 37.3892-49.5588L50.8292-49.5588C57.1992-49.5588 57.3392-49.5588 57.3392-43.4688L58.1092-26.3188C58.0392-24.8488 56.7092-23.7288 54.8892-23.7288ZM52.7192-26.2488L35.4992-26.2488C34.0992-26.2488 32.9092-27.2288 32.9092-28.4188L33.5392-42.1388C33.5392-46.9688 33.7492-46.9688 38.7192-46.9688L49.4292-46.9688C54.4692-46.9688 54.6092-46.9688 54.6092-42.1388L55.2392-28.4188C55.3092-27.2988 54.1192-26.2488 52.7192-26.2488ZM38.5792-38.1488C38.9292-38.0788 39.2792-37.7988 39.2092-37.3788L38.2292-28.6288C38.1592-28.2788 37.8792-27.9288 37.4592-27.9988C37.1092-28.0688 36.7592-28.3488 36.8292-28.7688L37.8092-37.5188C37.8092-37.9388 38.1592-38.1488 38.5792-38.1488ZM43.1292-25.2688C42.7792-25.0588 42.3592-25.1288 42.1492-25.4088L37.5292-31.9888C37.3192-32.3388 37.3892-32.7588 37.6692-32.9688C38.0192-33.1788 38.4392-33.1088 38.6492-32.8288L43.2692-26.2488C43.4792-26.0388 43.4092-25.5488 43.1292-25.2688Z"/>
  </g>
 </g>
 <g id="LayerTree">
  <g class="monochrome-0 multicolor-0:custom hierarchical-0:tertiary"/>
  <g class="monochrome-1 multicolor-1:white hierarchical-1:primary">
   <g class="shapeGroupLayer-0"/>
   <g class="shapeGroupLayer-1"/>
   <g class="shapeGroupLayer-2"/>
   <g class="shapeGroupLayer-3"/>
   <g class="shapeGroupLayer-4"/>
   <g class="shapeGroupLayer-5"/>
   <g class="shapeGroupLayer-6"/>
   <g class="shapeGroupLayer-7"/>
   <g class="shapeGroupLayer-8"/>
  </g>
 </g>
</svg>
