<?xml version="1.0" encoding="UTF-8"?>
<!--Generator: Apple Native CoreSVG 341-->
<!DOCTYPE svg
PUBLIC "-//W3C//DTD SVG 1.1//EN"
       "http://www.w3.org/Graphics/SVG/1.1/DTD/svg11.dtd">
<svg version="1.1" xmlns="http://www.w3.org/2000/svg" xmlns:xlink="http://www.w3.org/1999/xlink" viewBox="0 0 3300 2200">
 <!--glyph: "", point size: 100.0, font version: "20.0d10e1", template writer version: "138.0.0"-->
 <style>.monochrome-0 {-sfsymbols-motion-group:5;-sfsymbols-layer-tags:2ba30f57ba772abe}
.monochrome-1 {-sfsymbols-motion-group:4;-sfsymbols-layer-tags:2ba30f57ba772abe}
.monochrome-2 {opacity:0.0;-sfsymbols-clear-behind:true;-sfsymbols-motion-group:3;-sfsymbols-layer-tags:2ba30f57ba772abe}
.monochrome-3 {-sfsymbols-motion-group:2;-sfsymbols-layer-tags:2ba30f57ba772abe}
.monochrome-4 {opacity:0.0;-sfsymbols-clear-behind:true;-sfsymbols-motion-group:1;-sfsymbols-layer-tags:2ba30f57ba772abe}
.monochrome-5 {opacity:0.0;-sfsymbols-clear-behind:true;-sfsymbols-motion-group:0;-sfsymbols-layer-tags:2ba30f57ba772abe}

.multicolor-0:black {-sfsymbols-motion-group:5;-sfsymbols-layer-tags:2ba30f57ba772abe}
.multicolor-1:custom {fill:#FF8201;-sfsymbols-clear-behind:true;-sfsymbols-motion-group:4;-sfsymbols-layer-tags:2ba30f57ba772abe}
.multicolor-2:tintColor {opacity:0.0;-sfsymbols-clear-behind:true;-sfsymbols-motion-group:3;-sfsymbols-layer-tags:2ba30f57ba772abe}
.multicolor-3:systemYellowColor {-sfsymbols-motion-group:2;-sfsymbols-layer-tags:2ba30f57ba772abe}
.multicolor-4:systemMintColor {-sfsymbols-motion-group:1;-sfsymbols-layer-tags:2ba30f57ba772abe}
.multicolor-5:white {opacity:0.4;-sfsymbols-motion-group:0;-sfsymbols-layer-tags:2ba30f57ba772abe}

.hierarchical-0:tertiary {-sfsymbols-motion-group:5;-sfsymbols-layer-tags:2ba30f57ba772abe}
.hierarchical-1:tertiary {-sfsymbols-clear-behind:true;-sfsymbols-motion-group:4;-sfsymbols-layer-tags:2ba30f57ba772abe}
.hierarchical-2:primary {opacity:0.0;-sfsymbols-clear-behind:true;-sfsymbols-motion-group:3;-sfsymbols-layer-tags:2ba30f57ba772abe}
.hierarchical-3:primary {-sfsymbols-motion-group:2;-sfsymbols-layer-tags:2ba30f57ba772abe}
.hierarchical-4:secondary {-sfsymbols-motion-group:1;-sfsymbols-layer-tags:2ba30f57ba772abe}
.hierarchical-5:primary {-sfsymbols-motion-group:0;-sfsymbols-layer-tags:2ba30f57ba772abe}

.SFSymbolsPreviewWireframe {fill:none;opacity:1.0;stroke:black;stroke-width:0.5}
</style>
 <g id="Notes">
  <rect height="2200" id="artboard" style="fill:white;opacity:1" width="3300" x="0" y="0"/>
  <line style="fill:none;stroke:black;opacity:1;stroke-width:0.5;" x1="263" x2="3036" y1="292" y2="292"/>
  <text style="stroke:none;fill:black;font-family:sans-serif;font-size:13;font-weight:bold;" transform="matrix(1 0 0 1 263 322)">Weight/Scale Variations</text>
  <text style="stroke:none;fill:black;font-family:sans-serif;font-size:13;text-anchor:middle;" transform="matrix(1 0 0 1 559.711 322)">Ultralight</text>
  <text style="stroke:none;fill:black;font-family:sans-serif;font-size:13;text-anchor:middle;" transform="matrix(1 0 0 1 856.422 322)">Thin</text>
  <text style="stroke:none;fill:black;font-family:sans-serif;font-size:13;text-anchor:middle;" transform="matrix(1 0 0 1 1153.13 322)">Light</text>
  <text style="stroke:none;fill:black;font-family:sans-serif;font-size:13;text-anchor:middle;" transform="matrix(1 0 0 1 1449.84 322)">Regular</text>
  <text style="stroke:none;fill:black;font-family:sans-serif;font-size:13;text-anchor:middle;" transform="matrix(1 0 0 1 1746.56 322)">Medium</text>
  <text style="stroke:none;fill:black;font-family:sans-serif;font-size:13;text-anchor:middle;" transform="matrix(1 0 0 1 2043.27 322)">Semibold</text>
  <text style="stroke:none;fill:black;font-family:sans-serif;font-size:13;text-anchor:middle;" transform="matrix(1 0 0 1 2339.98 322)">Bold</text>
  <text style="stroke:none;fill:black;font-family:sans-serif;font-size:13;text-anchor:middle;" transform="matrix(1 0 0 1 2636.69 322)">Heavy</text>
  <text style="stroke:none;fill:black;font-family:sans-serif;font-size:13;text-anchor:middle;" transform="matrix(1 0 0 1 2933.4 322)">Black</text>
  <line style="fill:none;stroke:black;opacity:1;stroke-width:0.5;" x1="263" x2="3036" y1="1903" y2="1903"/>
  <g transform="matrix(0.2 0 0 0.2 263 1933)">
   <path d="m46.2402 4.15039c21.7773 0 39.4531-17.627 39.4531-39.4043s-17.6758-39.4043-39.4531-39.4043c-21.7285 0-39.4043 17.627-39.4043 39.4043s17.6758 39.4043 39.4043 39.4043Zm0-7.42188c-17.6758 0-31.9336-14.3066-31.9336-31.9824s14.2578-31.9824 31.9336-31.9824 31.9824 14.3066 31.9824 31.9824-14.3066 31.9824-31.9824 31.9824Zm-17.9688-31.9824c0 2.14844 1.51367 3.61328 3.75977 3.61328h10.498v10.5957c0 2.19727 1.46484 3.71094 3.61328 3.71094 2.24609 0 3.71094-1.51367 3.71094-3.71094v-10.5957h10.5957c2.19727 0 3.71094-1.46484 3.71094-3.61328 0-2.19727-1.51367-3.71094-3.71094-3.71094h-10.5957v-10.5469c0-2.24609-1.46484-3.75977-3.71094-3.75977-2.14844 0-3.61328 1.51367-3.61328 3.75977v10.5469h-10.498c-2.24609 0-3.75977 1.51367-3.75977 3.71094Z"/>
  </g>
  <g transform="matrix(0.2 0 0 0.2 281.506 1933)">
   <path d="m58.5449 14.5508c27.4902 0 49.8047-22.3145 49.8047-49.8047s-22.3145-49.8047-49.8047-49.8047-49.8047 22.3145-49.8047 49.8047 22.3145 49.8047 49.8047 49.8047Zm0-8.30078c-22.9492 0-41.5039-18.5547-41.5039-41.5039s18.5547-41.5039 41.5039-41.5039 41.5039 18.5547 41.5039 41.5039-18.5547 41.5039-41.5039 41.5039Zm-22.6562-41.5039c0 2.39258 1.66016 4.00391 4.15039 4.00391h14.3555v14.4043c0 2.44141 1.66016 4.15039 4.05273 4.15039 2.44141 0 4.15039-1.66016 4.15039-4.15039v-14.4043h14.4043c2.44141 0 4.15039-1.61133 4.15039-4.00391 0-2.44141-1.70898-4.15039-4.15039-4.15039h-14.4043v-14.3555c0-2.49023-1.70898-4.19922-4.15039-4.19922-2.39258 0-4.05273 1.70898-4.05273 4.19922v14.3555h-14.3555c-2.49023 0-4.15039 1.70898-4.15039 4.15039Z"/>
  </g>
  <g transform="matrix(0.2 0 0 0.2 304.924 1933)">
   <path d="m74.8535 28.3203c35.1074 0 63.623-28.4668 63.623-63.5742s-28.5156-63.623-63.623-63.623-63.5742 28.5156-63.5742 63.623 28.4668 63.5742 63.5742 63.5742Zm0-9.08203c-30.127 0-54.4922-24.3652-54.4922-54.4922s24.3652-54.4922 54.4922-54.4922 54.4922 24.3652 54.4922 54.4922-24.3652 54.4922-54.4922 54.4922Zm-28.8574-54.4922c0 2.58789 1.85547 4.39453 4.58984 4.39453h19.7266v19.7754c0 2.68555 1.85547 4.58984 4.44336 4.58984 2.68555 0 4.54102-1.85547 4.54102-4.58984v-19.7754h19.7754c2.68555 0 4.58984-1.80664 4.58984-4.39453 0-2.73438-1.85547-4.58984-4.58984-4.58984h-19.7754v-19.7266c0-2.73438-1.85547-4.63867-4.54102-4.63867-2.58789 0-4.44336 1.9043-4.44336 4.63867v19.7266h-19.7266c-2.73438 0-4.58984 1.85547-4.58984 4.58984Z"/>
  </g>
  <text style="stroke:none;fill:black;font-family:sans-serif;font-size:13;font-weight:bold;" transform="matrix(1 0 0 1 263 1953)">Design Variations</text>
  <text style="stroke:none;fill:black;font-family:sans-serif;font-size:13;" transform="matrix(1 0 0 1 263 1971)">Symbols are supported in up to nine weights and three scales.</text>
  <text style="stroke:none;fill:black;font-family:sans-serif;font-size:13;" transform="matrix(1 0 0 1 263 1989)">For optimal layout with text and other symbols, vertically align</text>
  <text style="stroke:none;fill:black;font-family:sans-serif;font-size:13;" transform="matrix(1 0 0 1 263 2007)">symbols with the adjacent text.</text>
  <line style="fill:none;stroke:#00AEEF;stroke-width:0.5;opacity:1.0;" x1="776" x2="776" y1="1919" y2="1933"/>
  <g transform="matrix(0.2 0 0 0.2 776 1933)">
   <path d="m16.5527 0.78125c2.58789 0 3.85742-0.976562 4.78516-3.71094l6.29883-17.2363h28.8086l6.29883 17.2363c0.927734 2.73438 2.19727 3.71094 4.73633 3.71094 2.58789 0 4.24805-1.5625 4.24805-4.00391 0-0.830078-0.146484-1.61133-0.537109-2.63672l-22.9004-60.9863c-1.12305-2.97852-3.125-4.49219-6.25-4.49219-3.02734 0-5.07812 1.46484-6.15234 4.44336l-22.9004 61.084c-0.390625 1.02539-0.537109 1.80664-0.537109 2.63672 0 2.44141 1.5625 3.95508 4.10156 3.95508Zm13.4766-28.3691 11.8652-32.8613h0.244141l11.8652 32.8613Z"/>
  </g>
  <line style="fill:none;stroke:#00AEEF;stroke-width:0.5;opacity:1.0;" x1="792.836" x2="792.836" y1="1919" y2="1933"/>
  <text style="stroke:none;fill:black;font-family:sans-serif;font-size:13;font-weight:bold;" transform="matrix(1 0 0 1 776 1953)">Margins</text>
  <text style="stroke:none;fill:black;font-family:sans-serif;font-size:13;" transform="matrix(1 0 0 1 776 1971)">Leading and trailing margins on the left and right side of each symbol</text>
  <text style="stroke:none;fill:black;font-family:sans-serif;font-size:13;" transform="matrix(1 0 0 1 776 1989)">can be adjusted by modifying the x-location of the margin guidelines.</text>
  <text style="stroke:none;fill:black;font-family:sans-serif;font-size:13;" transform="matrix(1 0 0 1 776 2007)">Modifications are automatically applied proportionally to all</text>
  <text style="stroke:none;fill:black;font-family:sans-serif;font-size:13;" transform="matrix(1 0 0 1 776 2025)">scales and weights.</text>
  <g transform="matrix(0.2 0 0 0.2 1289 1933)">
   <path d="m14.209 9.32617 8.49609 8.54492c4.29688 4.3457 9.22852 4.05273 13.8672-1.07422l53.4668-58.9355-4.83398-4.88281-53.0762 58.3984c-1.75781 2.00195-3.41797 2.49023-5.76172 0.146484l-5.85938-5.81055c-2.34375-2.29492-1.80664-4.00391 0.195312-5.81055l57.373-54.0039-4.88281-4.83398-57.959 54.4434c-4.93164 4.58984-5.32227 9.47266-1.02539 13.8184Zm32.0801-90.9668c-2.09961 2.05078-2.24609 4.93164-1.07422 6.88477 1.17188 1.80664 3.4668 2.97852 6.68945 2.14844 7.32422-1.70898 14.9414-2.00195 22.0703 2.68555l-2.92969 7.27539c-1.70898 4.15039-0.830078 7.08008 1.85547 9.81445l11.4746 11.5723c2.44141 2.44141 4.49219 2.53906 7.32422 2.05078l5.32227-0.976562 3.32031 3.36914-0.195312 2.7832c-0.195312 2.49023 0.439453 4.39453 2.88086 6.78711l3.80859 3.71094c2.39258 2.39258 5.46875 2.53906 7.8125 0.195312l14.5508-14.5996c2.34375-2.34375 2.24609-5.32227-0.146484-7.71484l-3.85742-3.80859c-2.39258-2.39258-4.24805-3.17383-6.64062-2.97852l-2.88086 0.244141-3.22266-3.17383 1.2207-5.61523c0.634766-2.83203-0.146484-5.0293-3.07617-7.95898l-10.9863-10.9375c-16.6992-16.6016-38.8672-16.2109-53.3203-1.75781Zm7.4707 1.85547c12.1582-8.88672 28.6133-7.37305 39.7461 3.75977l12.1582 12.0605c1.17188 1.17188 1.36719 2.09961 1.02539 3.80859l-1.61133 7.42188 7.51953 7.42188 4.93164-0.292969c1.26953-0.0488281 1.66016 0.0488281 2.63672 1.02539l2.88086 2.88086-12.207 12.207-2.88086-2.88086c-0.976562-0.976562-1.12305-1.36719-1.07422-2.68555l0.341797-4.88281-7.4707-7.42188-7.61719 1.26953c-1.61133 0.341797-2.34375 0.195312-3.56445-0.976562l-10.0098-10.0098c-1.26953-1.17188-1.41602-2.00195-0.634766-3.85742l4.39453-10.4492c-7.8125-7.27539-17.9688-10.4004-28.125-7.42188-0.78125 0.195312-1.07422-0.439453-0.439453-0.976562Z"/>
  </g>
  <text style="stroke:none;fill:black;font-family:sans-serif;font-size:13;font-weight:bold;" transform="matrix(1 0 0 1 1289 1953)">Exporting</text>
  <text style="stroke:none;fill:black;font-family:sans-serif;font-size:13;" transform="matrix(1 0 0 1 1289 1971)">Symbols should be outlined when exporting to ensure the</text>
  <text style="stroke:none;fill:black;font-family:sans-serif;font-size:13;" transform="matrix(1 0 0 1 1289 1989)">design is preserved when submitting to Xcode.</text>
  <text id="template-version" style="stroke:none;fill:black;font-family:sans-serif;font-size:13;text-anchor:end;" transform="matrix(1 0 0 1 3036 1933)">Template v.6.0</text>
  <text style="stroke:none;fill:black;font-family:sans-serif;font-size:13;text-anchor:end;" transform="matrix(1 0 0 1 3036 1951)">Requires Xcode 16 or greater</text>
  <text id="descriptive-name" style="stroke:none;fill:black;font-family:sans-serif;font-size:13;text-anchor:end;" transform="matrix(1 0 0 1 3036 1969)">Generated from ptv.bus</text>
  <text style="stroke:none;fill:black;font-family:sans-serif;font-size:13;text-anchor:end;" transform="matrix(1 0 0 1 3036 1987)">Typeset at 100.0 points</text>
  <text style="stroke:none;fill:black;font-family:sans-serif;font-size:13;" transform="matrix(1 0 0 1 263 726)">Small</text>
  <text style="stroke:none;fill:black;font-family:sans-serif;font-size:13;" transform="matrix(1 0 0 1 263 1156)">Medium</text>
  <text style="stroke:none;fill:black;font-family:sans-serif;font-size:13;" transform="matrix(1 0 0 1 263 1586)">Large</text>
 </g>
 <g id="Guides">
  <g id="H-reference" style="fill:#27AAE1;stroke:none;" transform="matrix(1 0 0 1 339 696)">
   <path d="M0.993654 0L3.63775 0L29.3281-67.1323L30.0303-67.1323L30.0303-70.459L28.1226-70.459ZM11.6885-24.4799L46.9815-24.4799L46.2315-26.7285L12.4385-26.7285ZM55.1196 0L57.7637 0L30.6382-70.459L29.4326-70.459L29.4326-67.1323Z"/>
  </g>
  <line id="Baseline-S" style="fill:none;stroke:#27AAE1;opacity:1;stroke-width:0.5;" x1="263" x2="3036" y1="696" y2="696"/>
  <line id="Capline-S" style="fill:none;stroke:#27AAE1;opacity:1;stroke-width:0.5;" x1="263" x2="3036" y1="625.541" y2="625.541"/>
  <g id="H-reference" style="fill:#27AAE1;stroke:none;" transform="matrix(1 0 0 1 339 1126)">
   <path d="M0.993654 0L3.63775 0L29.3281-67.1323L30.0303-67.1323L30.0303-70.459L28.1226-70.459ZM11.6885-24.4799L46.9815-24.4799L46.2315-26.7285L12.4385-26.7285ZM55.1196 0L57.7637 0L30.6382-70.459L29.4326-70.459L29.4326-67.1323Z"/>
  </g>
  <line id="Baseline-M" style="fill:none;stroke:#27AAE1;opacity:1;stroke-width:0.5;" x1="263" x2="3036" y1="1126" y2="1126"/>
  <line id="Capline-M" style="fill:none;stroke:#27AAE1;opacity:1;stroke-width:0.5;" x1="263" x2="3036" y1="1055.54" y2="1055.54"/>
  <g id="H-reference" style="fill:#27AAE1;stroke:none;" transform="matrix(1 0 0 1 339 1556)">
   <path d="M0.993654 0L3.63775 0L29.3281-67.1323L30.0303-67.1323L30.0303-70.459L28.1226-70.459ZM11.6885-24.4799L46.9815-24.4799L46.2315-26.7285L12.4385-26.7285ZM55.1196 0L57.7637 0L30.6382-70.459L29.4326-70.459L29.4326-67.1323Z"/>
  </g>
  <line id="Baseline-L" style="fill:none;stroke:#27AAE1;opacity:1;stroke-width:0.5;" x1="263" x2="3036" y1="1556" y2="1556"/>
  <line id="Capline-L" style="fill:none;stroke:#27AAE1;opacity:1;stroke-width:0.5;" x1="263" x2="3036" y1="1485.54" y2="1485.54"/>
  <line id="right-margin-Black-S" style="fill:none;stroke:#00AEEF;stroke-width:0.5;opacity:1.0;" x1="2982.2" x2="2982.2" y1="600.785" y2="720.121"/>
  <line id="left-margin-Black-S" style="fill:none;stroke:#00AEEF;stroke-width:0.5;opacity:1.0;" x1="2884.6" x2="2884.6" y1="600.785" y2="720.121"/>
  <line id="right-margin-Regular-S" style="fill:none;stroke:#00AEEF;stroke-width:0.5;opacity:1.0;" x1="1496.09" x2="1496.09" y1="600.785" y2="720.121"/>
  <line id="left-margin-Regular-S" style="fill:none;stroke:#00AEEF;stroke-width:0.5;opacity:1.0;" x1="1403.59" x2="1403.59" y1="600.785" y2="720.121"/>
  <line id="right-margin-Ultralight-S" style="fill:none;stroke:#00AEEF;stroke-width:0.5;opacity:1.0;" x1="603.811" x2="603.811" y1="600.785" y2="720.121"/>
  <line id="left-margin-Ultralight-S" style="fill:none;stroke:#00AEEF;stroke-width:0.5;opacity:1.0;" x1="515.611" x2="515.611" y1="600.785" y2="720.121"/>
 </g>
 <g id="Symbols">
  <g id="Black-S" transform="matrix(1 0 0 1 2884.6 696)">
   <path class="monochrome-0 multicolor-0:black hierarchical-0:tertiary SFSymbolsPreviewWireframe" d="M65.4-2C63.2-2 61.3-3.8 61.3-6.1L61.3-10C61.3-12.2 63.1-14.1 65.4-14.1C67.7-14.1 69.5-12.3 69.5-10L69.5-6.1C69.4-3.8 67.6-2 65.4-2ZM33.1-2C30.9-2 29-3.8 29-6.1L29-10C29-12.2 30.8-14.1 33.1-14.1C35.4-14.1 37.2-12.3 37.2-10L37.2-6.1C37.2-3.8 35.4-2 33.1-2Z"/>
   <path class="monochrome-1 multicolor-1:custom hierarchical-1:tertiary SFSymbolsPreviewWireframe" d="M70.8-9.5L28.2-9.5C24.2-9.5 20.8-12.8 20.8-16.9L22.1-62.6C22.1-66.6 25.4-70 29.5-70L69.6-70C73.6-70 77-66.7 77-62.6L78.3-16.9C78.2-12.9 74.8-9.5 70.8-9.5Z"/>
   <path class="monochrome-2 multicolor-2:tintColor hierarchical-2:primary SFSymbolsPreviewWireframe" d="M69.6-20.6C69.6-18.3 67.7-16.4 65.4-16.4C63.1-16.4 61.2-18.3 61.2-20.6C61.2-22.9 63.1-24.8 65.4-24.8C67.7-24.8 69.6-22.9 69.6-20.6ZM37.4-20.6C37.4-18.3 35.5-16.4 33.2-16.4C30.9-16.4 29-18.3 29-20.6C29-22.9 30.9-24.8 33.2-24.8C35.5-24.8 37.4-22.9 37.4-20.6Z"/>
   <path class="monochrome-3 multicolor-3:systemYellowColor hierarchical-3:primary SFSymbolsPreviewWireframe" d="M67.4-20.5C67.4-19.4 66.4-18.4 65.3-18.4C64.2-18.4 63.2-19.4 63.2-20.5C63.2-21.6 64.2-22.6 65.3-22.6C66.4-22.6 67.4-21.6 67.4-20.5ZM33.1-18.5C32-18.5 31-19.4 31-20.6C31-21.8 31.9-22.7 33.1-22.7C34.2-22.7 35.2-21.8 35.2-20.6C35.3-19.4 34.4-18.5 33.1-18.5Z"/>
   <path class="monochrome-4 multicolor-4:systemMintColor hierarchical-4:secondary SFSymbolsPreviewWireframe" d="M46.5-31.3L27.6-31.3C26.7-31.3 26-32 26-32.9L26.4-53.5C26.4-54.4 27.1-55.1 28-55.1L46.5-55.1C47.4-55.1 48.1-54.4 48.1-53.5L48.1-33C48.1-32.2 47.5-31.3 46.5-31.3ZM52.3-31.3L71.2-31.3C72.1-31.3 72.8-32 72.8-32.9L72.4-53.5C72.4-54.4 71.7-55.1 70.8-55.1L52.3-55.1C51.4-55.1 50.7-54.4 50.7-53.5L50.7-33C50.7-32.2 51.3-31.3 52.3-31.3Z"/>
   <path class="monochrome-5 multicolor-5:white hierarchical-5:primary SFSymbolsPreviewWireframe" d="M72.7-59.4L26-59.4L26-62.6C26-64.4 27.4-65.8 29.2-65.8L69.5-65.8C71.3-65.8 72.7-64.4 72.7-62.6L72.7-59.4Z"/>
  </g>
  <g id="Regular-S" transform="matrix(1 0 0 1 1403.59 696)">
   <path class="monochrome-0 multicolor-0:black hierarchical-0:tertiary SFSymbolsPreviewWireframe" d="M62.4-1C60.2-1 58.3-2.8 58.3-5.1L58.3-9C58.3-11.2 60.1-13.1 62.4-13.1C64.7-13.1 66.5-11.3 66.5-9L66.5-5.1C66.4-2.8 64.6-1 62.4-1ZM30.1-1C27.9-1 26-2.8 26-5.1L26-9C26-11.2 27.8-13.1 30.1-13.1C32.4-13.1 34.2-11.3 34.2-9L34.2-5.1C34.2-2.8 32.4-1 30.1-1Z"/>
   <path class="monochrome-1 multicolor-1:custom hierarchical-1:tertiary SFSymbolsPreviewWireframe" d="M67.8-8.5L25.2-8.5C21.2-8.5 17.8-11.8 17.8-15.9L19.1-61.6C19.1-65.6 22.4-69 26.5-69L66.6-69C70.6-69 74-65.7 74-61.6L75.3-15.9C75.2-11.9 71.8-8.5 67.8-8.5Z"/>
   <path class="monochrome-2 multicolor-2:tintColor hierarchical-2:primary SFSymbolsPreviewWireframe" d="M66.6-19.6C66.6-17.3 64.7-15.4 62.4-15.4C60.1-15.4 58.2-17.3 58.2-19.6C58.2-21.9 60.1-23.8 62.4-23.8C64.7-23.8 66.6-21.9 66.6-19.6ZM34.4-19.6C34.4-17.3 32.5-15.4 30.2-15.4C27.9-15.4 26-17.3 26-19.6C26-21.9 27.9-23.8 30.2-23.8C32.5-23.8 34.4-21.9 34.4-19.6Z"/>
   <path class="monochrome-3 multicolor-3:systemYellowColor hierarchical-3:primary SFSymbolsPreviewWireframe" d="M64.4-19.5C64.4-18.4 63.4-17.4 62.3-17.4C61.2-17.4 60.2-18.4 60.2-19.5C60.2-20.6 61.2-21.6 62.3-21.6C63.4-21.6 64.4-20.6 64.4-19.5ZM30.1-17.5C29-17.5 28-18.4 28-19.6C28-20.8 28.9-21.7 30.1-21.7C31.2-21.7 32.2-20.8 32.2-19.6C32.3-18.4 31.4-17.5 30.1-17.5Z"/>
   <path class="monochrome-4 multicolor-4:systemMintColor hierarchical-4:secondary SFSymbolsPreviewWireframe" d="M43.5-30.3L24.6-30.3C23.7-30.3 23-31 23-31.9L23.4-52.5C23.4-53.4 24.1-54.1 25-54.1L43.5-54.1C44.4-54.1 45.1-53.4 45.1-52.5L45.1-32C45.1-31.2 44.5-30.3 43.5-30.3ZM49.3-30.3L68.2-30.3C69.1-30.3 69.8-31 69.8-31.9L69.4-52.5C69.4-53.4 68.7-54.1 67.8-54.1L49.3-54.1C48.4-54.1 47.7-53.4 47.7-52.5L47.7-32C47.7-31.2 48.3-30.3 49.3-30.3Z"/>
   <path class="monochrome-5 multicolor-5:white hierarchical-5:primary SFSymbolsPreviewWireframe" d="M69.7-58.4L23-58.4L23-61.6C23-63.4 24.4-64.8 26.2-64.8L66.5-64.8C68.3-64.8 69.7-63.4 69.7-61.6L69.7-58.4Z"/>
  </g>
  <g id="Ultralight-S" transform="matrix(1 0 0 1 515.611 696)">
   <path class="monochrome-0 multicolor-0:black hierarchical-0:tertiary SFSymbolsPreviewWireframe" d="M60.4-1C58.2-1 56.3-2.8 56.3-5.1L56.3-9C56.3-11.2 58.1-13.1 60.4-13.1C62.7-13.1 64.5-11.3 64.5-9L64.5-5.1C64.4-2.8 62.6-1 60.4-1ZM28.1-1C25.9-1 24-2.8 24-5.1L24-9C24-11.2 25.8-13.1 28.1-13.1C30.4-13.1 32.2-11.3 32.2-9L32.2-5.1C32.2-2.8 30.4-1 28.1-1Z"/>
   <path class="monochrome-1 multicolor-1:custom hierarchical-1:tertiary SFSymbolsPreviewWireframe" d="M65.8-8.5L23.2-8.5C19.2-8.5 15.8-11.8 15.8-15.9L17.1-61.6C17.1-65.6 20.4-69 24.5-69L64.4-69C68.4-69 71.8-65.7 71.8-61.6L73.1-15.9C73.2-11.9 69.8-8.5 65.8-8.5Z"/>
   <path class="monochrome-2 multicolor-2:tintColor hierarchical-2:primary SFSymbolsPreviewWireframe" d="M64.6-19.6C64.6-17.3 62.7-15.4 60.4-15.4C58.1-15.4 56.2-17.3 56.2-19.6C56.2-21.9 58.1-23.8 60.4-23.8C62.7-23.8 64.6-21.9 64.6-19.6ZM32.4-19.6C32.4-17.3 30.5-15.4 28.2-15.4C25.9-15.4 24-17.3 24-19.6C24-21.9 25.9-23.8 28.2-23.8C30.5-23.8 32.4-21.9 32.4-19.6Z"/>
   <path class="monochrome-3 multicolor-3:systemYellowColor hierarchical-3:primary SFSymbolsPreviewWireframe" d="M62.4-19.5C62.4-18.4 61.4-17.4 60.3-17.4C59.2-17.4 58.2-18.4 58.2-19.5C58.2-20.6 59.2-21.6 60.3-21.6C61.4-21.6 62.4-20.6 62.4-19.5ZM28.1-17.5C27-17.5 26-18.4 26-19.6C26-20.8 26.9-21.7 28.1-21.7C29.2-21.7 30.2-20.8 30.2-19.6C30.3-18.4 29.4-17.5 28.1-17.5Z"/>
   <path class="monochrome-4 multicolor-4:systemMintColor hierarchical-4:secondary SFSymbolsPreviewWireframe" d="M41.5-30.3L22.6-30.3C21.7-30.3 21-31 21-31.9L21.4-52.5C21.4-53.4 22.1-54.1 23-54.1L41.5-54.1C42.4-54.1 43.1-53.4 43.1-52.5L43.1-32C43.1-31.2 42.5-30.3 41.5-30.3ZM47.3-30.3L66.2-30.3C67.1-30.3 67.8-31 67.8-31.9L67.4-52.5C67.4-53.4 66.7-54.1 65.8-54.1L47.3-54.1C46.4-54.1 45.7-53.4 45.7-52.5L45.7-32C45.7-31.2 46.3-30.3 47.3-30.3Z"/>
   <path class="monochrome-5 multicolor-5:white hierarchical-5:primary SFSymbolsPreviewWireframe" d="M67.7-58.4L21-58.4L21-61.6C21-63.4 22.4-64.8 24.2-64.8L64.4-64.8C66.2-64.8 67.6-63.4 67.6-61.6L67.7-58.4Z"/>
  </g>
 </g>
</svg>
