<?xml version="1.0" encoding="UTF-8"?>
<!--Generator: Apple Native CoreSVG 341-->
<!DOCTYPE svg
PUBLIC "-//W3C//DTD SVG 1.1//EN"
       "http://www.w3.org/Graphics/SVG/1.1/DTD/svg11.dtd">
<svg version="1.1" xmlns="http://www.w3.org/2000/svg" xmlns:xlink="http://www.w3.org/1999/xlink" viewBox="0 0 3300 2200">
 <!--glyph: "", point size: 100.0, font version: "20.0d10e1", template writer version: "138.0.0"-->
 <style>.monochrome-0 {-sfsymbols-motion-group:5;-sfsymbols-layer-tags:-2e07704c69b3abbe}
.monochrome-1 {-sfsymbols-motion-group:4;-sfsymbols-layer-tags:-2e07704c69b3abbe}
.monochrome-2 {opacity:0.0;-sfsymbols-clear-behind:true;-sfsymbols-motion-group:3;-sfsymbols-layer-tags:-2e07704c69b3abbe}
.monochrome-3 {-sfsymbols-motion-group:2;-sfsymbols-layer-tags:-2e07704c69b3abbe}
.monochrome-4 {opacity:0.0;-sfsymbols-clear-behind:true;-sfsymbols-motion-group:1;-sfsymbols-layer-tags:-2e07704c69b3abbe}
.monochrome-5 {opacity:0.0;-sfsymbols-clear-behind:true;-sfsymbols-motion-group:0;-sfsymbols-layer-tags:-2e07704c69b3abbe}

.multicolor-0:black {-sfsymbols-motion-group:5;-sfsymbols-layer-tags:-2e07704c69b3abbe}
.multicolor-1:custom {fill:#FF8201;-sfsymbols-clear-behind:true;-sfsymbols-motion-group:4;-sfsymbols-layer-tags:-2e07704c69b3abbe}
.multicolor-2:tintColor {opacity:0.0;-sfsymbols-clear-behind:true;-sfsymbols-motion-group:3;-sfsymbols-layer-tags:-2e07704c69b3abbe}
.multicolor-3:systemYellowColor {-sfsymbols-motion-group:2;-sfsymbols-layer-tags:-2e07704c69b3abbe}
.multicolor-4:custom {fill:#C9FFF8;-sfsymbols-motion-group:1;-sfsymbols-layer-tags:-2e07704c69b3abbe}
.multicolor-5:custom {fill:#FFF5CE;-sfsymbols-motion-group:0;-sfsymbols-layer-tags:-2e07704c69b3abbe}

.hierarchical-0:secondary {-sfsymbols-motion-group:5;-sfsymbols-layer-tags:-2e07704c69b3abbe}
.hierarchical-1:secondary {-sfsymbols-clear-behind:true;-sfsymbols-motion-group:4;-sfsymbols-layer-tags:-2e07704c69b3abbe}
.hierarchical-2:primary {opacity:0.0;-sfsymbols-clear-behind:true;-sfsymbols-motion-group:3;-sfsymbols-layer-tags:-2e07704c69b3abbe}
.hierarchical-3:primary {-sfsymbols-motion-group:2;-sfsymbols-layer-tags:-2e07704c69b3abbe}
.hierarchical-4:primary {-sfsymbols-motion-group:1;-sfsymbols-layer-tags:-2e07704c69b3abbe}
.hierarchical-5:primary {-sfsymbols-motion-group:0;-sfsymbols-layer-tags:-2e07704c69b3abbe}

.SFSymbolsPreviewWireframe {fill:none;opacity:1.0;stroke:black;stroke-width:0.5}
</style>
 <g id="Notes">
  <rect height="2200" id="artboard" style="fill:white;opacity:1" width="3300" x="0" y="0"/>
  <line style="fill:none;stroke:black;opacity:1;stroke-width:0.5;" x1="263" x2="3036" y1="292" y2="292"/>
  <text style="stroke:none;fill:black;font-family:sans-serif;font-size:13;font-weight:bold;" transform="matrix(1 0 0 1 263 322)">Weight/Scale Variations</text>
  <text style="stroke:none;fill:black;font-family:sans-serif;font-size:13;text-anchor:middle;" transform="matrix(1 0 0 1 559.711 322)">Ultralight</text>
  <text style="stroke:none;fill:black;font-family:sans-serif;font-size:13;text-anchor:middle;" transform="matrix(1 0 0 1 856.422 322)">Thin</text>
  <text style="stroke:none;fill:black;font-family:sans-serif;font-size:13;text-anchor:middle;" transform="matrix(1 0 0 1 1153.13 322)">Light</text>
  <text style="stroke:none;fill:black;font-family:sans-serif;font-size:13;text-anchor:middle;" transform="matrix(1 0 0 1 1449.84 322)">Regular</text>
  <text style="stroke:none;fill:black;font-family:sans-serif;font-size:13;text-anchor:middle;" transform="matrix(1 0 0 1 1746.56 322)">Medium</text>
  <text style="stroke:none;fill:black;font-family:sans-serif;font-size:13;text-anchor:middle;" transform="matrix(1 0 0 1 2043.27 322)">Semibold</text>
  <text style="stroke:none;fill:black;font-family:sans-serif;font-size:13;text-anchor:middle;" transform="matrix(1 0 0 1 2339.98 322)">Bold</text>
  <text style="stroke:none;fill:black;font-family:sans-serif;font-size:13;text-anchor:middle;" transform="matrix(1 0 0 1 2636.69 322)">Heavy</text>
  <text style="stroke:none;fill:black;font-family:sans-serif;font-size:13;text-anchor:middle;" transform="matrix(1 0 0 1 2933.4 322)">Black</text>
  <line style="fill:none;stroke:black;opacity:1;stroke-width:0.5;" x1="263" x2="3036" y1="1903" y2="1903"/>
  <g transform="matrix(0.2 0 0 0.2 263 1933)">
   <path d="m46.2402 4.15039c21.7773 0 39.4531-17.627 39.4531-39.4043s-17.6758-39.4043-39.4531-39.4043c-21.7285 0-39.4043 17.627-39.4043 39.4043s17.6758 39.4043 39.4043 39.4043Zm0-7.42188c-17.6758 0-31.9336-14.3066-31.9336-31.9824s14.2578-31.9824 31.9336-31.9824 31.9824 14.3066 31.9824 31.9824-14.3066 31.9824-31.9824 31.9824Zm-17.9688-31.9824c0 2.14844 1.51367 3.61328 3.75977 3.61328h10.498v10.5957c0 2.19727 1.46484 3.71094 3.61328 3.71094 2.24609 0 3.71094-1.51367 3.71094-3.71094v-10.5957h10.5957c2.19727 0 3.71094-1.46484 3.71094-3.61328 0-2.19727-1.51367-3.71094-3.71094-3.71094h-10.5957v-10.5469c0-2.24609-1.46484-3.75977-3.71094-3.75977-2.14844 0-3.61328 1.51367-3.61328 3.75977v10.5469h-10.498c-2.24609 0-3.75977 1.51367-3.75977 3.71094Z"/>
  </g>
  <g transform="matrix(0.2 0 0 0.2 281.506 1933)">
   <path d="m58.5449 14.5508c27.4902 0 49.8047-22.3145 49.8047-49.8047s-22.3145-49.8047-49.8047-49.8047-49.8047 22.3145-49.8047 49.8047 22.3145 49.8047 49.8047 49.8047Zm0-8.30078c-22.9492 0-41.5039-18.5547-41.5039-41.5039s18.5547-41.5039 41.5039-41.5039 41.5039 18.5547 41.5039 41.5039-18.5547 41.5039-41.5039 41.5039Zm-22.6562-41.5039c0 2.39258 1.66016 4.00391 4.15039 4.00391h14.3555v14.4043c0 2.44141 1.66016 4.15039 4.05273 4.15039 2.44141 0 4.15039-1.66016 4.15039-4.15039v-14.4043h14.4043c2.44141 0 4.15039-1.61133 4.15039-4.00391 0-2.44141-1.70898-4.15039-4.15039-4.15039h-14.4043v-14.3555c0-2.49023-1.70898-4.19922-4.15039-4.19922-2.39258 0-4.05273 1.70898-4.05273 4.19922v14.3555h-14.3555c-2.49023 0-4.15039 1.70898-4.15039 4.15039Z"/>
  </g>
  <g transform="matrix(0.2 0 0 0.2 304.924 1933)">
   <path d="m74.8535 28.3203c35.1074 0 63.623-28.4668 63.623-63.5742s-28.5156-63.623-63.623-63.623-63.5742 28.5156-63.5742 63.623 28.4668 63.5742 63.5742 63.5742Zm0-9.08203c-30.127 0-54.4922-24.3652-54.4922-54.4922s24.3652-54.4922 54.4922-54.4922 54.4922 24.3652 54.4922 54.4922-24.3652 54.4922-54.4922 54.4922Zm-28.8574-54.4922c0 2.58789 1.85547 4.39453 4.58984 4.39453h19.7266v19.7754c0 2.68555 1.85547 4.58984 4.44336 4.58984 2.68555 0 4.54102-1.85547 4.54102-4.58984v-19.7754h19.7754c2.68555 0 4.58984-1.80664 4.58984-4.39453 0-2.73438-1.85547-4.58984-4.58984-4.58984h-19.7754v-19.7266c0-2.73438-1.85547-4.63867-4.54102-4.63867-2.58789 0-4.44336 1.9043-4.44336 4.63867v19.7266h-19.7266c-2.73438 0-4.58984 1.85547-4.58984 4.58984Z"/>
  </g>
  <text style="stroke:none;fill:black;font-family:sans-serif;font-size:13;font-weight:bold;" transform="matrix(1 0 0 1 263 1953)">Design Variations</text>
  <text style="stroke:none;fill:black;font-family:sans-serif;font-size:13;" transform="matrix(1 0 0 1 263 1971)">Symbols are supported in up to nine weights and three scales.</text>
  <text style="stroke:none;fill:black;font-family:sans-serif;font-size:13;" transform="matrix(1 0 0 1 263 1989)">For optimal layout with text and other symbols, vertically align</text>
  <text style="stroke:none;fill:black;font-family:sans-serif;font-size:13;" transform="matrix(1 0 0 1 263 2007)">symbols with the adjacent text.</text>
  <line style="fill:none;stroke:#00AEEF;stroke-width:0.5;opacity:1.0;" x1="776" x2="776" y1="1919" y2="1933"/>
  <g transform="matrix(0.2 0 0 0.2 776 1933)">
   <path d="m16.5527 0.78125c2.58789 0 3.85742-0.976562 4.78516-3.71094l6.29883-17.2363h28.8086l6.29883 17.2363c0.927734 2.73438 2.19727 3.71094 4.73633 3.71094 2.58789 0 4.24805-1.5625 4.24805-4.00391 0-0.830078-0.146484-1.61133-0.537109-2.63672l-22.9004-60.9863c-1.12305-2.97852-3.125-4.49219-6.25-4.49219-3.02734 0-5.07812 1.46484-6.15234 4.44336l-22.9004 61.084c-0.390625 1.02539-0.537109 1.80664-0.537109 2.63672 0 2.44141 1.5625 3.95508 4.10156 3.95508Zm13.4766-28.3691 11.8652-32.8613h0.244141l11.8652 32.8613Z"/>
  </g>
  <line style="fill:none;stroke:#00AEEF;stroke-width:0.5;opacity:1.0;" x1="792.836" x2="792.836" y1="1919" y2="1933"/>
  <text style="stroke:none;fill:black;font-family:sans-serif;font-size:13;font-weight:bold;" transform="matrix(1 0 0 1 776 1953)">Margins</text>
  <text style="stroke:none;fill:black;font-family:sans-serif;font-size:13;" transform="matrix(1 0 0 1 776 1971)">Leading and trailing margins on the left and right side of each symbol</text>
  <text style="stroke:none;fill:black;font-family:sans-serif;font-size:13;" transform="matrix(1 0 0 1 776 1989)">can be adjusted by modifying the x-location of the margin guidelines.</text>
  <text style="stroke:none;fill:black;font-family:sans-serif;font-size:13;" transform="matrix(1 0 0 1 776 2007)">Modifications are automatically applied proportionally to all</text>
  <text style="stroke:none;fill:black;font-family:sans-serif;font-size:13;" transform="matrix(1 0 0 1 776 2025)">scales and weights.</text>
  <g transform="matrix(0.2 0 0 0.2 1289 1933)">
   <path d="m14.209 9.32617 8.49609 8.54492c4.29688 4.3457 9.22852 4.05273 13.8672-1.07422l53.4668-58.9355-4.83398-4.88281-53.0762 58.3984c-1.75781 2.00195-3.41797 2.49023-5.76172 0.146484l-5.85938-5.81055c-2.34375-2.29492-1.80664-4.00391 0.195312-5.81055l57.373-54.0039-4.88281-4.83398-57.959 54.4434c-4.93164 4.58984-5.32227 9.47266-1.02539 13.8184Zm32.0801-90.9668c-2.09961 2.05078-2.24609 4.93164-1.07422 6.88477 1.17188 1.80664 3.4668 2.97852 6.68945 2.14844 7.32422-1.70898 14.9414-2.00195 22.0703 2.68555l-2.92969 7.27539c-1.70898 4.15039-0.830078 7.08008 1.85547 9.81445l11.4746 11.5723c2.44141 2.44141 4.49219 2.53906 7.32422 2.05078l5.32227-0.976562 3.32031 3.36914-0.195312 2.7832c-0.195312 2.49023 0.439453 4.39453 2.88086 6.78711l3.80859 3.71094c2.39258 2.39258 5.46875 2.53906 7.8125 0.195312l14.5508-14.5996c2.34375-2.34375 2.24609-5.32227-0.146484-7.71484l-3.85742-3.80859c-2.39258-2.39258-4.24805-3.17383-6.64062-2.97852l-2.88086 0.244141-3.22266-3.17383 1.2207-5.61523c0.634766-2.83203-0.146484-5.0293-3.07617-7.95898l-10.9863-10.9375c-16.6992-16.6016-38.8672-16.2109-53.3203-1.75781Zm7.4707 1.85547c12.1582-8.88672 28.6133-7.37305 39.7461 3.75977l12.1582 12.0605c1.17188 1.17188 1.36719 2.09961 1.02539 3.80859l-1.61133 7.42188 7.51953 7.42188 4.93164-0.292969c1.26953-0.0488281 1.66016 0.0488281 2.63672 1.02539l2.88086 2.88086-12.207 12.207-2.88086-2.88086c-0.976562-0.976562-1.12305-1.36719-1.07422-2.68555l0.341797-4.88281-7.4707-7.42188-7.61719 1.26953c-1.61133 0.341797-2.34375 0.195312-3.56445-0.976562l-10.0098-10.0098c-1.26953-1.17188-1.41602-2.00195-0.634766-3.85742l4.39453-10.4492c-7.8125-7.27539-17.9688-10.4004-28.125-7.42188-0.78125 0.195312-1.07422-0.439453-0.439453-0.976562Z"/>
  </g>
  <text style="stroke:none;fill:black;font-family:sans-serif;font-size:13;font-weight:bold;" transform="matrix(1 0 0 1 1289 1953)">Exporting</text>
  <text style="stroke:none;fill:black;font-family:sans-serif;font-size:13;" transform="matrix(1 0 0 1 1289 1971)">Symbols should be outlined when exporting to ensure the</text>
  <text style="stroke:none;fill:black;font-family:sans-serif;font-size:13;" transform="matrix(1 0 0 1 1289 1989)">design is preserved when submitting to Xcode.</text>
  <text id="template-version" style="stroke:none;fill:black;font-family:sans-serif;font-size:13;text-anchor:end;" transform="matrix(1 0 0 1 3036 1933)">Template v.6.0</text>
  <text style="stroke:none;fill:black;font-family:sans-serif;font-size:13;text-anchor:end;" transform="matrix(1 0 0 1 3036 1951)">Requires Xcode 16 or greater</text>
  <text id="descriptive-name" style="stroke:none;fill:black;font-family:sans-serif;font-size:13;text-anchor:end;" transform="matrix(1 0 0 1 3036 1969)">Generated from ptv.bus</text>
  <text style="stroke:none;fill:black;font-family:sans-serif;font-size:13;text-anchor:end;" transform="matrix(1 0 0 1 3036 1987)">Typeset at 100.0 points</text>
  <text style="stroke:none;fill:black;font-family:sans-serif;font-size:13;" transform="matrix(1 0 0 1 263 726)">Small</text>
  <text style="stroke:none;fill:black;font-family:sans-serif;font-size:13;" transform="matrix(1 0 0 1 263 1156)">Medium</text>
  <text style="stroke:none;fill:black;font-family:sans-serif;font-size:13;" transform="matrix(1 0 0 1 263 1586)">Large</text>
 </g>
 <g id="Guides">
  <g id="H-reference" style="fill:#27AAE1;stroke:none;" transform="matrix(1 0 0 1 339 696)">
   <path d="M0.993654 0L3.63775 0L29.3281-67.1323L30.0303-67.1323L30.0303-70.459L28.1226-70.459ZM11.6885-24.4799L46.9815-24.4799L46.2315-26.7285L12.4385-26.7285ZM55.1196 0L57.7637 0L30.6382-70.459L29.4326-70.459L29.4326-67.1323Z"/>
  </g>
  <line id="Baseline-S" style="fill:none;stroke:#27AAE1;opacity:1;stroke-width:0.5;" x1="263" x2="3036" y1="696" y2="696"/>
  <line id="Capline-S" style="fill:none;stroke:#27AAE1;opacity:1;stroke-width:0.5;" x1="263" x2="3036" y1="625.541" y2="625.541"/>
  <g id="H-reference" style="fill:#27AAE1;stroke:none;" transform="matrix(1 0 0 1 339 1126)">
   <path d="M0.993654 0L3.63775 0L29.3281-67.1323L30.0303-67.1323L30.0303-70.459L28.1226-70.459ZM11.6885-24.4799L46.9815-24.4799L46.2315-26.7285L12.4385-26.7285ZM55.1196 0L57.7637 0L30.6382-70.459L29.4326-70.459L29.4326-67.1323Z"/>
  </g>
  <line id="Baseline-M" style="fill:none;stroke:#27AAE1;opacity:1;stroke-width:0.5;" x1="263" x2="3036" y1="1126" y2="1126"/>
  <line id="Capline-M" style="fill:none;stroke:#27AAE1;opacity:1;stroke-width:0.5;" x1="263" x2="3036" y1="1055.54" y2="1055.54"/>
  <g id="H-reference" style="fill:#27AAE1;stroke:none;" transform="matrix(1 0 0 1 339 1556)">
   <path d="M0.993654 0L3.63775 0L29.3281-67.1323L30.0303-67.1323L30.0303-70.459L28.1226-70.459ZM11.6885-24.4799L46.9815-24.4799L46.2315-26.7285L12.4385-26.7285ZM55.1196 0L57.7637 0L30.6382-70.459L29.4326-70.459L29.4326-67.1323Z"/>
  </g>
  <line id="Baseline-L" style="fill:none;stroke:#27AAE1;opacity:1;stroke-width:0.5;" x1="263" x2="3036" y1="1556" y2="1556"/>
  <line id="Capline-L" style="fill:none;stroke:#27AAE1;opacity:1;stroke-width:0.5;" x1="263" x2="3036" y1="1485.54" y2="1485.54"/>
  <line id="right-margin-Black-S" style="fill:none;stroke:#00AEEF;stroke-width:0.5;opacity:1.0;" x1="2982.2" x2="2982.2" y1="600.785" y2="720.121"/>
  <line id="left-margin-Black-S" style="fill:none;stroke:#00AEEF;stroke-width:0.5;opacity:1.0;" x1="2884.6" x2="2884.6" y1="600.785" y2="720.121"/>
  <line id="right-margin-Regular-S" style="fill:none;stroke:#00AEEF;stroke-width:0.5;opacity:1.0;" x1="1496.09" x2="1496.09" y1="600.785" y2="720.121"/>
  <line id="left-margin-Regular-S" style="fill:none;stroke:#00AEEF;stroke-width:0.5;opacity:1.0;" x1="1403.59" x2="1403.59" y1="600.785" y2="720.121"/>
  <line id="right-margin-Ultralight-S" style="fill:none;stroke:#00AEEF;stroke-width:0.5;opacity:1.0;" x1="603.811" x2="603.811" y1="600.785" y2="720.121"/>
  <line id="left-margin-Ultralight-S" style="fill:none;stroke:#00AEEF;stroke-width:0.5;opacity:1.0;" x1="515.611" x2="515.611" y1="600.785" y2="720.121"/>
 </g>
 <g id="Symbols">
  <g id="Black-S" transform="matrix(1 0 0 1 2884.6 696)">
   <path class="monochrome-0 multicolor-0:black hierarchical-0:secondary SFSymbolsPreviewWireframe" d="M64.2-2.1C62-2.1 60.2-3.9 60.2-6.1L60.2-9.9C60.2-12.1 62-13.9 64.2-13.9C66.4-13.9 68.2-12.1 68.2-9.9L68.2-6.1C68.2-3.9 66.4-2.1 64.2-2.1ZM32.7-2.1C30.5-2.1 28.7-3.9 28.7-6.1L28.7-9.9C28.7-12.1 30.5-13.9 32.7-13.9C34.9-13.9 36.7-12.1 36.7-9.9L36.7-6.1C36.7-3.9 34.9-2.1 32.7-2.1Z"/>
   <path class="monochrome-1 multicolor-1:custom hierarchical-1:secondary SFSymbolsPreviewWireframe" d="M69.5-9.5L27.8-9.5C23.9-9.5 20.6-12.7 20.6-16.7L21.8-61.4C21.8-65.3 25-68.6 29-68.6L68.2-68.6C72.1-68.6 75.4-65.4 75.4-61.4L76.6-16.7C76.7-12.8 73.5-9.5 69.5-9.5Z"/>
   <path class="monochrome-2 multicolor-2:tintColor hierarchical-2:primary SFSymbolsPreviewWireframe" d="M64.2-16.2C62-16.2 60.1-18 60.1-20.3C60.1-22.6 61.9-24.4 64.2-24.4C66.4-24.4 68.3-22.6 68.3-20.3C68.3-18 66.4-16.2 64.2-16.2ZM32.7-16.2C30.5-16.2 28.6-18 28.6-20.3C28.6-22.6 30.4-24.4 32.7-24.4C34.9-24.4 36.8-22.6 36.8-20.3C36.8-18 35-16.2 32.7-16.2Z"/>
   <path class="monochrome-3 multicolor-3:systemYellowColor hierarchical-3:primary SFSymbolsPreviewWireframe" d="M64.2-18.2C63.1-18.2 62.2-19.1 62.2-20.2C62.2-21.3 63.1-22.2 64.2-22.2C65.3-22.2 66.2-21.3 66.2-20.2C66.2-19.1 65.3-18.2 64.2-18.2ZM32.7-18.2C31.6-18.2 30.7-19.1 30.7-20.2C30.7-21.3 31.6-22.2 32.7-22.2C33.8-22.2 34.7-21.3 34.7-20.2C34.8-19.1 33.9-18.2 32.7-18.2Z"/>
   <path class="monochrome-4 multicolor-4:custom hierarchical-4:primary SFSymbolsPreviewWireframe" d="M45.8-30.8L27.3-30.8C26.4-30.8 25.7-31.5 25.7-32.4L26.1-52.6C26.1-53.5 26.8-54.2 27.7-54.2L45.8-54.2C46.7-54.2 47.4-53.5 47.4-52.6L47.4-32.4C47.4-31.6 46.7-30.8 45.8-30.8ZM51.4-30.8L69.9-30.8C70.8-30.8 71.5-31.5 71.5-32.4L71.1-52.6C71.1-53.5 70.4-54.2 69.5-54.2L51.4-54.2C50.5-54.2 49.8-53.5 49.8-52.6L49.8-32.4C49.8-31.6 50.5-30.8 51.4-30.8Z"/>
   <path class="monochrome-5 multicolor-5:custom hierarchical-5:primary SFSymbolsPreviewWireframe" d="M71.4-58.2L25.7-58.2L25.7-61.3C25.7-63.1 27.1-64.4 28.8-64.4L68.2-64.4C70-64.4 71.3-63 71.3-61.3L71.4-58.2Z"/>
  </g>
  <g id="Regular-S" transform="matrix(1 0 0 1 1403.59 696)">
   <path class="monochrome-0 multicolor-0:black hierarchical-0:secondary SFSymbolsPreviewWireframe" d="M62.2-2.1C60-2.1 58.2-3.9 58.2-6.1L58.2-9.9C58.2-12.1 60-13.9 62.2-13.9C64.4-13.9 66.2-12.1 66.2-9.9L66.2-6.1C66.2-3.9 64.4-2.1 62.2-2.1ZM30.7-2.1C28.5-2.1 26.7-3.9 26.7-6.1L26.7-9.9C26.7-12.1 28.5-13.9 30.7-13.9C32.9-13.9 34.7-12.1 34.7-9.9L34.7-6.1C34.7-3.9 32.9-2.1 30.7-2.1Z"/>
   <path class="monochrome-1 multicolor-1:custom hierarchical-1:secondary SFSymbolsPreviewWireframe" d="M67.5-9.5L25.8-9.5C21.9-9.5 18.6-12.7 18.6-16.7L19.8-61.4C19.8-65.3 23-68.6 27-68.6L66.2-68.6C70.1-68.6 73.4-65.4 73.4-61.4L74.6-16.7C74.7-12.8 71.5-9.5 67.5-9.5Z"/>
   <path class="monochrome-2 multicolor-2:tintColor hierarchical-2:primary SFSymbolsPreviewWireframe" d="M62.2-16.2C60-16.2 58.1-18 58.1-20.3C58.1-22.6 59.9-24.4 62.2-24.4C64.4-24.4 66.3-22.6 66.3-20.3C66.3-18 64.4-16.2 62.2-16.2ZM30.7-16.2C28.5-16.2 26.6-18 26.6-20.3C26.6-22.6 28.4-24.4 30.7-24.4C32.9-24.4 34.8-22.6 34.8-20.3C34.8-18 33-16.2 30.7-16.2Z"/>
   <path class="monochrome-3 multicolor-3:systemYellowColor hierarchical-3:primary SFSymbolsPreviewWireframe" d="M62.2-18.2C61.1-18.2 60.2-19.1 60.2-20.2C60.2-21.3 61.1-22.2 62.2-22.2C63.3-22.2 64.2-21.3 64.2-20.2C64.2-19.1 63.3-18.2 62.2-18.2ZM30.7-18.2C29.6-18.2 28.7-19.1 28.7-20.2C28.7-21.3 29.6-22.2 30.7-22.2C31.8-22.2 32.7-21.3 32.7-20.2C32.8-19.1 31.9-18.2 30.7-18.2Z"/>
   <path class="monochrome-4 multicolor-4:custom hierarchical-4:primary SFSymbolsPreviewWireframe" d="M43.8-30.8L25.3-30.8C24.4-30.8 23.7-31.5 23.7-32.4L24.1-52.6C24.1-53.5 24.8-54.2 25.7-54.2L43.8-54.2C44.7-54.2 45.4-53.5 45.4-52.6L45.4-32.4C45.4-31.6 44.7-30.8 43.8-30.8ZM49.4-30.8L67.9-30.8C68.8-30.8 69.5-31.5 69.5-32.4L69.1-52.6C69.1-53.5 68.4-54.2 67.5-54.2L49.4-54.2C48.5-54.2 47.8-53.5 47.8-52.6L47.8-32.4C47.8-31.6 48.5-30.8 49.4-30.8Z"/>
   <path class="monochrome-5 multicolor-5:custom hierarchical-5:primary SFSymbolsPreviewWireframe" d="M69.4-58.2L23.7-58.2L23.7-61.3C23.7-63.1 25.1-64.4 26.8-64.4L66.2-64.4C68-64.4 69.3-63 69.3-61.3L69.4-58.2Z"/>
  </g>
  <g id="Ultralight-S" transform="matrix(1 0 0 1 515.611 696)">
   <path class="monochrome-0 multicolor-0:black hierarchical-0:secondary SFSymbolsPreviewWireframe" d="M60.2-2.1C58-2.1 56.2-3.9 56.2-6.1L56.2-9.9C56.2-12.1 58-13.9 60.2-13.9C62.4-13.9 64.2-12.1 64.2-9.9L64.2-6.1C64.2-3.9 62.4-2.1 60.2-2.1ZM28.7-2.1C26.5-2.1 24.7-3.9 24.7-6.1L24.7-9.9C24.7-12.1 26.5-13.9 28.7-13.9C30.9-13.9 32.7-12.1 32.7-9.9L32.7-6.1C32.7-3.9 30.9-2.1 28.7-2.1Z"/>
   <path class="monochrome-1 multicolor-1:custom hierarchical-1:secondary SFSymbolsPreviewWireframe" d="M65.5-9.5L23.8-9.5C19.9-9.5 16.6-12.7 16.6-16.7L17.8-61.4C17.8-65.3 21-68.6 25-68.6L64.2-68.6C68.1-68.6 71.4-65.4 71.4-61.4L72.6-16.7C72.7-12.8 69.5-9.5 65.5-9.5Z"/>
   <path class="monochrome-2 multicolor-2:tintColor hierarchical-2:primary SFSymbolsPreviewWireframe" d="M60.2-16.2C58-16.2 56.1-18 56.1-20.3C56.1-22.6 57.9-24.4 60.2-24.4C62.5-24.4 64.3-22.6 64.3-20.3C64.3-18 62.4-16.2 60.2-16.2ZM28.7-16.2C26.5-16.2 24.6-18 24.6-20.3C24.6-22.6 26.4-24.4 28.7-24.4C31-24.4 32.8-22.6 32.8-20.3C32.8-18 31-16.2 28.7-16.2Z"/>
   <path class="monochrome-3 multicolor-3:systemYellowColor hierarchical-3:primary SFSymbolsPreviewWireframe" d="M60.2-18.2C59.1-18.2 58.2-19.1 58.2-20.2C58.2-21.3 59.1-22.2 60.2-22.2C61.3-22.2 62.2-21.3 62.2-20.2C62.2-19.1 61.3-18.2 60.2-18.2ZM28.7-18.2C27.6-18.2 26.7-19.1 26.7-20.2C26.7-21.3 27.6-22.2 28.7-22.2C29.8-22.2 30.7-21.3 30.7-20.2C30.8-19.1 29.9-18.2 28.7-18.2Z"/>
   <path class="monochrome-4 multicolor-4:custom hierarchical-4:primary SFSymbolsPreviewWireframe" d="M41.8-30.8L23.3-30.8C22.4-30.8 21.7-31.5 21.7-32.4L22.1-52.6C22.1-53.5 22.8-54.2 23.7-54.2L41.8-54.2C42.7-54.2 43.4-53.5 43.4-52.6L43.4-32.4C43.4-31.6 42.7-30.8 41.8-30.8ZM47.4-30.8L65.9-30.8C66.8-30.8 67.5-31.5 67.5-32.4L67.1-52.6C67.1-53.5 66.4-54.2 65.5-54.2L47.4-54.2C46.5-54.2 45.8-53.5 45.8-52.6L45.8-32.4C45.8-31.6 46.5-30.8 47.4-30.8Z"/>
   <path class="monochrome-5 multicolor-5:custom hierarchical-5:primary SFSymbolsPreviewWireframe" d="M67.4-58.2L21.7-58.2L21.7-61.3C21.7-63.1 23.1-64.4 24.8-64.4L64.2-64.4C66-64.4 67.3-63 67.3-61.3L67.4-58.2Z"/>
  </g>
 </g>
</svg>
