<?xml version="1.0" encoding="UTF-8"?>
<!--Generator: Apple Native CoreSVG 341-->
<!DOCTYPE svg
PUBLIC "-//W3C//DTD SVG 1.1//EN"
       "http://www.w3.org/Graphics/SVG/1.1/DTD/svg11.dtd">
<svg version="1.1" xmlns="http://www.w3.org/2000/svg" xmlns:xlink="http://www.w3.org/1999/xlink" viewBox="0 0 3300 2200">
 <!--glyph: "", point size: 100.0, font version: "20.0d10e1", template writer version: "138.0.0"-->
 <style>.monochrome-0 {-sfsymbols-motion-group:1;-sfsymbols-indices:0;-sfsymbols-layer-tags:663b4447f6d54ce1 circle.fill}
.monochrome-1 {opacity:0.0;-sfsymbols-clear-behind:true;-sfsymbols-motion-group:0;-sfsymbols-always-pulses:true;-sfsymbols-layer-tags:663b4447f6d54ce1}

.multicolor-0:custom {fill:#8F1A95;-sfsymbols-motion-group:1;-sfsymbols-indices:0;-sfsymbols-layer-tags:663b4447f6d54ce1 circle.fill}
.multicolor-1:white {-sfsymbols-motion-group:0;-sfsymbols-always-pulses:true;-sfsymbols-layer-tags:663b4447f6d54ce1}

.hierarchical-0:tertiary {-sfsymbols-motion-group:1;-sfsymbols-indices:0;-sfsymbols-layer-tags:663b4447f6d54ce1 circle.fill}
.hierarchical-1:primary {-sfsymbols-motion-group:0;-sfsymbols-layer-tags:663b4447f6d54ce1}

.shapeGroupLayer-0 {-sfsymbols-fill-action:draw;-sfsymbols-indices:9 10}
.shapeGroupLayer-1 {-sfsymbols-fill-action:draw;-sfsymbols-indices:11 12}
.shapeGroupLayer-2 {-sfsymbols-fill-action:draw;-sfsymbols-indices:1}
.shapeGroupLayer-3 {-sfsymbols-fill-action:erase;-sfsymbols-indices:2 3 4 5}
.shapeGroupLayer-4 {-sfsymbols-fill-action:erase;-sfsymbols-indices:6}
.shapeGroupLayer-5 {-sfsymbols-fill-action:draw;-sfsymbols-indices:7 8}

.SFSymbolsPreviewWireframe {fill:none;opacity:1.0;stroke:black;stroke-width:0.5}
</style>
 <g id="Notes">
  <rect height="2200" id="artboard" style="fill:white;opacity:1" width="3300" x="0" y="0"/>
  <line style="fill:none;stroke:black;opacity:1;stroke-width:0.5;" x1="263" x2="3036" y1="292" y2="292"/>
  <text style="stroke:none;fill:black;font-family:sans-serif;font-size:13;font-weight:bold;" transform="matrix(1 0 0 1 263 322)">Weight/Scale Variations</text>
  <text style="stroke:none;fill:black;font-family:sans-serif;font-size:13;text-anchor:middle;" transform="matrix(1 0 0 1 559.711 322)">Ultralight</text>
  <text style="stroke:none;fill:black;font-family:sans-serif;font-size:13;text-anchor:middle;" transform="matrix(1 0 0 1 856.422 322)">Thin</text>
  <text style="stroke:none;fill:black;font-family:sans-serif;font-size:13;text-anchor:middle;" transform="matrix(1 0 0 1 1153.13 322)">Light</text>
  <text style="stroke:none;fill:black;font-family:sans-serif;font-size:13;text-anchor:middle;" transform="matrix(1 0 0 1 1449.84 322)">Regular</text>
  <text style="stroke:none;fill:black;font-family:sans-serif;font-size:13;text-anchor:middle;" transform="matrix(1 0 0 1 1746.56 322)">Medium</text>
  <text style="stroke:none;fill:black;font-family:sans-serif;font-size:13;text-anchor:middle;" transform="matrix(1 0 0 1 2043.27 322)">Semibold</text>
  <text style="stroke:none;fill:black;font-family:sans-serif;font-size:13;text-anchor:middle;" transform="matrix(1 0 0 1 2339.98 322)">Bold</text>
  <text style="stroke:none;fill:black;font-family:sans-serif;font-size:13;text-anchor:middle;" transform="matrix(1 0 0 1 2636.69 322)">Heavy</text>
  <text style="stroke:none;fill:black;font-family:sans-serif;font-size:13;text-anchor:middle;" transform="matrix(1 0 0 1 2933.4 322)">Black</text>
  <line style="fill:none;stroke:black;opacity:1;stroke-width:0.5;" x1="263" x2="3036" y1="1903" y2="1903"/>
  <g transform="matrix(0.2 0 0 0.2 263 1933)">
   <path d="m46.2402 4.15039c21.7773 0 39.4531-17.627 39.4531-39.4043s-17.6758-39.4043-39.4531-39.4043c-21.7285 0-39.4043 17.627-39.4043 39.4043s17.6758 39.4043 39.4043 39.4043Zm0-7.42188c-17.6758 0-31.9336-14.3066-31.9336-31.9824s14.2578-31.9824 31.9336-31.9824 31.9824 14.3066 31.9824 31.9824-14.3066 31.9824-31.9824 31.9824Zm-17.9688-31.9824c0 2.14844 1.51367 3.61328 3.75977 3.61328h10.498v10.5957c0 2.19727 1.46484 3.71094 3.61328 3.71094 2.24609 0 3.71094-1.51367 3.71094-3.71094v-10.5957h10.5957c2.19727 0 3.71094-1.46484 3.71094-3.61328 0-2.19727-1.51367-3.71094-3.71094-3.71094h-10.5957v-10.5469c0-2.24609-1.46484-3.75977-3.71094-3.75977-2.14844 0-3.61328 1.51367-3.61328 3.75977v10.5469h-10.498c-2.24609 0-3.75977 1.51367-3.75977 3.71094Z"/>
  </g>
  <g transform="matrix(0.2 0 0 0.2 281.506 1933)">
   <path d="m58.5449 14.5508c27.4902 0 49.8047-22.3145 49.8047-49.8047s-22.3145-49.8047-49.8047-49.8047-49.8047 22.3145-49.8047 49.8047 22.3145 49.8047 49.8047 49.8047Zm0-8.30078c-22.9492 0-41.5039-18.5547-41.5039-41.5039s18.5547-41.5039 41.5039-41.5039 41.5039 18.5547 41.5039 41.5039-18.5547 41.5039-41.5039 41.5039Zm-22.6562-41.5039c0 2.39258 1.66016 4.00391 4.15039 4.00391h14.3555v14.4043c0 2.44141 1.66016 4.15039 4.05273 4.15039 2.44141 0 4.15039-1.66016 4.15039-4.15039v-14.4043h14.4043c2.44141 0 4.15039-1.61133 4.15039-4.00391 0-2.44141-1.70898-4.15039-4.15039-4.15039h-14.4043v-14.3555c0-2.49023-1.70898-4.19922-4.15039-4.19922-2.39258 0-4.05273 1.70898-4.05273 4.19922v14.3555h-14.3555c-2.49023 0-4.15039 1.70898-4.15039 4.15039Z"/>
  </g>
  <g transform="matrix(0.2 0 0 0.2 304.924 1933)">
   <path d="m74.8535 28.3203c35.1074 0 63.623-28.4668 63.623-63.5742s-28.5156-63.623-63.623-63.623-63.5742 28.5156-63.5742 63.623 28.4668 63.5742 63.5742 63.5742Zm0-9.08203c-30.127 0-54.4922-24.3652-54.4922-54.4922s24.3652-54.4922 54.4922-54.4922 54.4922 24.3652 54.4922 54.4922-24.3652 54.4922-54.4922 54.4922Zm-28.8574-54.4922c0 2.58789 1.85547 4.39453 4.58984 4.39453h19.7266v19.7754c0 2.68555 1.85547 4.58984 4.44336 4.58984 2.68555 0 4.54102-1.85547 4.54102-4.58984v-19.7754h19.7754c2.68555 0 4.58984-1.80664 4.58984-4.39453 0-2.73438-1.85547-4.58984-4.58984-4.58984h-19.7754v-19.7266c0-2.73438-1.85547-4.63867-4.54102-4.63867-2.58789 0-4.44336 1.9043-4.44336 4.63867v19.7266h-19.7266c-2.73438 0-4.58984 1.85547-4.58984 4.58984Z"/>
  </g>
  <text style="stroke:none;fill:black;font-family:sans-serif;font-size:13;font-weight:bold;" transform="matrix(1 0 0 1 263 1953)">Design Variations</text>
  <text style="stroke:none;fill:black;font-family:sans-serif;font-size:13;" transform="matrix(1 0 0 1 263 1971)">Symbols are supported in up to nine weights and three scales.</text>
  <text style="stroke:none;fill:black;font-family:sans-serif;font-size:13;" transform="matrix(1 0 0 1 263 1989)">For optimal layout with text and other symbols, vertically align</text>
  <text style="stroke:none;fill:black;font-family:sans-serif;font-size:13;" transform="matrix(1 0 0 1 263 2007)">symbols with the adjacent text.</text>
  <line style="fill:none;stroke:#00AEEF;stroke-width:0.5;opacity:1.0;" x1="776" x2="776" y1="1919" y2="1933"/>
  <g transform="matrix(0.2 0 0 0.2 776 1933)">
   <path d="m16.5527 0.78125c2.58789 0 3.85742-0.976562 4.78516-3.71094l6.29883-17.2363h28.8086l6.29883 17.2363c0.927734 2.73438 2.19727 3.71094 4.73633 3.71094 2.58789 0 4.24805-1.5625 4.24805-4.00391 0-0.830078-0.146484-1.61133-0.537109-2.63672l-22.9004-60.9863c-1.12305-2.97852-3.125-4.49219-6.25-4.49219-3.02734 0-5.07812 1.46484-6.15234 4.44336l-22.9004 61.084c-0.390625 1.02539-0.537109 1.80664-0.537109 2.63672 0 2.44141 1.5625 3.95508 4.10156 3.95508Zm13.4766-28.3691 11.8652-32.8613h0.244141l11.8652 32.8613Z"/>
  </g>
  <line style="fill:none;stroke:#00AEEF;stroke-width:0.5;opacity:1.0;" x1="792.836" x2="792.836" y1="1919" y2="1933"/>
  <text style="stroke:none;fill:black;font-family:sans-serif;font-size:13;font-weight:bold;" transform="matrix(1 0 0 1 776 1953)">Margins</text>
  <text style="stroke:none;fill:black;font-family:sans-serif;font-size:13;" transform="matrix(1 0 0 1 776 1971)">Leading and trailing margins on the left and right side of each symbol</text>
  <text style="stroke:none;fill:black;font-family:sans-serif;font-size:13;" transform="matrix(1 0 0 1 776 1989)">can be adjusted by modifying the x-location of the margin guidelines.</text>
  <text style="stroke:none;fill:black;font-family:sans-serif;font-size:13;" transform="matrix(1 0 0 1 776 2007)">Modifications are automatically applied proportionally to all</text>
  <text style="stroke:none;fill:black;font-family:sans-serif;font-size:13;" transform="matrix(1 0 0 1 776 2025)">scales and weights.</text>
  <g transform="matrix(0.2 0 0 0.2 1289 1933)">
   <path d="m14.209 9.32617 8.49609 8.54492c4.29688 4.3457 9.22852 4.05273 13.8672-1.07422l53.4668-58.9355-4.83398-4.88281-53.0762 58.3984c-1.75781 2.00195-3.41797 2.49023-5.76172 0.146484l-5.85938-5.81055c-2.34375-2.29492-1.80664-4.00391 0.195312-5.81055l57.373-54.0039-4.88281-4.83398-57.959 54.4434c-4.93164 4.58984-5.32227 9.47266-1.02539 13.8184Zm32.0801-90.9668c-2.09961 2.05078-2.24609 4.93164-1.07422 6.88477 1.17188 1.80664 3.4668 2.97852 6.68945 2.14844 7.32422-1.70898 14.9414-2.00195 22.0703 2.68555l-2.92969 7.27539c-1.70898 4.15039-0.830078 7.08008 1.85547 9.81445l11.4746 11.5723c2.44141 2.44141 4.49219 2.53906 7.32422 2.05078l5.32227-0.976562 3.32031 3.36914-0.195312 2.7832c-0.195312 2.49023 0.439453 4.39453 2.88086 6.78711l3.80859 3.71094c2.39258 2.39258 5.46875 2.53906 7.8125 0.195312l14.5508-14.5996c2.34375-2.34375 2.24609-5.32227-0.146484-7.71484l-3.85742-3.80859c-2.39258-2.39258-4.24805-3.17383-6.64062-2.97852l-2.88086 0.244141-3.22266-3.17383 1.2207-5.61523c0.634766-2.83203-0.146484-5.0293-3.07617-7.95898l-10.9863-10.9375c-16.6992-16.6016-38.8672-16.2109-53.3203-1.75781Zm7.4707 1.85547c12.1582-8.88672 28.6133-7.37305 39.7461 3.75977l12.1582 12.0605c1.17188 1.17188 1.36719 2.09961 1.02539 3.80859l-1.61133 7.42188 7.51953 7.42188 4.93164-0.292969c1.26953-0.0488281 1.66016 0.0488281 2.63672 1.02539l2.88086 2.88086-12.207 12.207-2.88086-2.88086c-0.976562-0.976562-1.12305-1.36719-1.07422-2.68555l0.341797-4.88281-7.4707-7.42188-7.61719 1.26953c-1.61133 0.341797-2.34375 0.195312-3.56445-0.976562l-10.0098-10.0098c-1.26953-1.17188-1.41602-2.00195-0.634766-3.85742l4.39453-10.4492c-7.8125-7.27539-17.9688-10.4004-28.125-7.42188-0.78125 0.195312-1.07422-0.439453-0.439453-0.976562Z"/>
  </g>
  <text style="stroke:none;fill:black;font-family:sans-serif;font-size:13;font-weight:bold;" transform="matrix(1 0 0 1 1289 1953)">Exporting</text>
  <text style="stroke:none;fill:black;font-family:sans-serif;font-size:13;" transform="matrix(1 0 0 1 1289 1971)">Symbols should be outlined when exporting to ensure the</text>
  <text style="stroke:none;fill:black;font-family:sans-serif;font-size:13;" transform="matrix(1 0 0 1 1289 1989)">design is preserved when submitting to Xcode.</text>
  <text id="template-version" style="stroke:none;fill:black;font-family:sans-serif;font-size:13;text-anchor:end;" transform="matrix(1 0 0 1 3036 1933)">Template v.6.0</text>
  <text style="stroke:none;fill:black;font-family:sans-serif;font-size:13;text-anchor:end;" transform="matrix(1 0 0 1 3036 1951)">Requires Xcode 16 or greater</text>
  <text id="descriptive-name" style="stroke:none;fill:black;font-family:sans-serif;font-size:13;text-anchor:end;" transform="matrix(1 0 0 1 3036 1969)">Generated from circle.fill</text>
  <text style="stroke:none;fill:black;font-family:sans-serif;font-size:13;text-anchor:end;" transform="matrix(1 0 0 1 3036 1987)">Typeset at 100.0 points</text>
  <text style="stroke:none;fill:black;font-family:sans-serif;font-size:13;" transform="matrix(1 0 0 1 263 726)">Small</text>
  <text style="stroke:none;fill:black;font-family:sans-serif;font-size:13;" transform="matrix(1 0 0 1 263 1156)">Medium</text>
  <text style="stroke:none;fill:black;font-family:sans-serif;font-size:13;" transform="matrix(1 0 0 1 263 1586)">Large</text>
 </g>
 <g id="Guides">
  <g id="H-reference" style="fill:#27AAE1;stroke:none;" transform="matrix(1 0 0 1 339 696)">
   <path d="M0.993654 0L3.63775 0L29.3281-67.1323L30.0303-67.1323L30.0303-70.459L28.1226-70.459ZM11.6885-24.4799L46.9815-24.4799L46.2315-26.7285L12.4385-26.7285ZM55.1196 0L57.7637 0L30.6382-70.459L29.4326-70.459L29.4326-67.1323Z"/>
  </g>
  <line id="Baseline-S" style="fill:none;stroke:#27AAE1;opacity:1;stroke-width:0.5;" x1="263" x2="3036" y1="696" y2="696"/>
  <line id="Capline-S" style="fill:none;stroke:#27AAE1;opacity:1;stroke-width:0.5;" x1="263" x2="3036" y1="625.541" y2="625.541"/>
  <g id="H-reference" style="fill:#27AAE1;stroke:none;" transform="matrix(1 0 0 1 339 1126)">
   <path d="M0.993654 0L3.63775 0L29.3281-67.1323L30.0303-67.1323L30.0303-70.459L28.1226-70.459ZM11.6885-24.4799L46.9815-24.4799L46.2315-26.7285L12.4385-26.7285ZM55.1196 0L57.7637 0L30.6382-70.459L29.4326-70.459L29.4326-67.1323Z"/>
  </g>
  <line id="Baseline-M" style="fill:none;stroke:#27AAE1;opacity:1;stroke-width:0.5;" x1="263" x2="3036" y1="1126" y2="1126"/>
  <line id="Capline-M" style="fill:none;stroke:#27AAE1;opacity:1;stroke-width:0.5;" x1="263" x2="3036" y1="1055.54" y2="1055.54"/>
  <g id="H-reference" style="fill:#27AAE1;stroke:none;" transform="matrix(1 0 0 1 339 1556)">
   <path d="M0.993654 0L3.63775 0L29.3281-67.1323L30.0303-67.1323L30.0303-70.459L28.1226-70.459ZM11.6885-24.4799L46.9815-24.4799L46.2315-26.7285L12.4385-26.7285ZM55.1196 0L57.7637 0L30.6382-70.459L29.4326-70.459L29.4326-67.1323Z"/>
  </g>
  <line id="Baseline-L" style="fill:none;stroke:#27AAE1;opacity:1;stroke-width:0.5;" x1="263" x2="3036" y1="1556" y2="1556"/>
  <line id="Capline-L" style="fill:none;stroke:#27AAE1;opacity:1;stroke-width:0.5;" x1="263" x2="3036" y1="1485.54" y2="1485.54"/>
  <line id="right-margin-Black-S" style="fill:none;stroke:#00AEEF;stroke-width:0.5;opacity:1.0;" x1="2982.23" x2="2982.23" y1="600.785" y2="720.121"/>
  <line id="left-margin-Black-S" style="fill:none;stroke:#00AEEF;stroke-width:0.5;opacity:1.0;" x1="2884.57" x2="2884.57" y1="600.785" y2="720.121"/>
  <line id="right-margin-Regular-S" style="fill:none;stroke:#00AEEF;stroke-width:0.5;opacity:1.0;" x1="1496.11" x2="1496.11" y1="600.785" y2="720.121"/>
  <line id="left-margin-Regular-S" style="fill:none;stroke:#00AEEF;stroke-width:0.5;opacity:1.0;" x1="1403.58" x2="1403.58" y1="600.785" y2="720.121"/>
  <line id="right-margin-Ultralight-S" style="fill:none;stroke:#00AEEF;stroke-width:0.5;opacity:1.0;" x1="603.773" x2="603.773" y1="600.785" y2="720.121"/>
  <line id="left-margin-Ultralight-S" style="fill:none;stroke:#00AEEF;stroke-width:0.5;opacity:1.0;" x1="515.649" x2="515.649" y1="600.785" y2="720.121"/>
 </g>
 <g id="Symbols">
  <g id="Black-S" transform="matrix(1 0 0 1 2884.57 696)">
   <path class="SFSymbolsPreviewWireframe" d="M48.8281 6.73828C72.0215 6.73828 90.8203-12.0605 90.8203-35.2539C90.8203-58.4473 72.0215-77.2461 48.8281-77.2461C25.6348-77.2461 6.83594-58.4473 6.83594-35.2539C6.83594-12.0605 25.6348 6.73828 48.8281 6.73828ZM65.2317-24.3259L32.5917-24.3259C30.1117-24.3259 27.0717-26.3259 27.0717-28.8859L29.2317-56.3259C29.2317-58.8059 31.2317-60.8859 33.7917-60.8859L64.0317-60.8859C66.5117-60.8859 68.5917-58.8859 68.5917-56.3259L70.7517-28.8859C70.6717-26.4059 67.7117-24.3259 65.2317-24.3259ZM37.7117-31.9259L37.7117-31.9259C37.7117-30.9539 36.9237-30.1659 35.9517-30.1659L35.9517-30.1659C34.9797-30.1659 34.1917-30.9539 34.1917-31.9259L34.1917-31.9259C34.1917-32.8979 34.9797-33.6859 35.9517-33.6859L35.9517-33.6859C36.9237-33.6859 37.7117-32.8979 37.7117-31.9259M43.0717-32.2459L43.0717-32.2459C43.0717-31.2739 42.2837-30.4859 41.3117-30.4859L41.3117-30.4859C40.3397-30.4859 39.5517-31.2739 39.5517-32.2459L39.5517-32.2459C39.5517-33.2179 40.3397-34.0059 41.3117-34.0059L41.3117-34.0059C42.2837-34.0059 43.0717-33.2179 43.0717-32.2459M63.5517-31.9259L63.5517-31.9259C63.5517-30.9539 62.7637-30.1659 61.7917-30.1659L61.7917-30.1659C60.8197-30.1659 60.0317-30.9539 60.0317-31.9259L60.0317-31.9259C60.0317-32.8979 60.8197-33.6859 61.7917-33.6859L61.7917-33.6859C62.7637-33.6859 63.5517-32.8979 63.5517-31.9259M58.0317-32.2459L58.0317-32.2459C58.0317-31.2739 57.2437-30.4859 56.2717-30.4859L56.2717-30.4859C55.2997-30.4859 54.5117-31.2739 54.5117-32.2459L54.5117-32.2459C54.5117-33.2179 55.2997-34.0059 56.2717-34.0059L56.2717-34.0059C57.2437-34.0059 58.0317-33.2179 58.0317-32.2459M59.7117-39.5259L38.0317-39.5259C36.4317-39.5259 35.1517-40.8059 35.1517-42.4059L36.0317-51.2059C36.0317-52.8059 37.3117-54.0859 38.9117-54.0859L58.8317-54.0859C60.4317-54.0859 61.7117-52.8059 61.7117-51.2059L62.5917-42.4059C62.5917-40.8059 61.3117-39.5259 59.7117-39.5259L59.7117-39.5259ZM45.2317-42.4059L39.8717-42.4059C37.3917-42.4059 37.4717-42.4059 37.6317-44.1659L38.3517-49.4459C38.5917-51.2059 38.5917-51.2059 40.5917-51.2059L45.4717-51.2059C47.9517-51.2059 47.7917-51.2059 47.7917-49.4459L47.7917-44.1659C47.7917-42.4059 47.4717-42.4059 45.2317-42.4059ZM52.5117-42.4059L57.8717-42.4059C60.3517-42.4059 60.2717-42.4059 60.1117-44.1659L59.3917-49.4459C59.1517-51.2059 59.1517-51.2059 57.1517-51.2059L52.2717-51.2059C49.7917-51.2059 49.9517-51.2059 49.9517-49.4459L49.9517-44.1659C49.9517-42.4059 50.2717-42.4059 52.5117-42.4059ZM66.4317-19.0459L31.3117-19.0459C30.7517-19.0459 30.2717-19.5259 30.2717-20.0859C30.2717-20.6459 30.7517-21.1259 31.3117-21.1259L66.4317-21.1259C66.9917-21.1259 67.4717-20.6459 67.4717-20.0859C67.4717-19.5259 66.9917-19.0459 66.4317-19.0459L66.4317-19.0459ZM72.1117-13.2859L25.6317-13.2859C24.7517-13.2859 24.0317-14.0059 24.0317-14.8859C24.0317-15.7659 24.7517-16.4859 25.6317-16.4859L72.0317-16.4859C72.9117-16.4859 73.6317-15.7659 73.6317-14.8859C73.7917-14.0859 72.9917-13.2859 72.1117-13.2859ZM32.5917-11.4459C33.2317-12.4859 41.1517-24.3259 41.1517-24.3259C41.5517-25.1259 40.8317-25.7659 42.1917-25.6859C43.0717-25.6859 42.4317-24.3259 42.4317-24.3259L37.9517-10.8859C37.2317-9.1259 36.9117-9.1259 34.3517-9.1259C31.8035-9.11999 31.0717-9.2059 32.5917-11.4459ZM65.1517-11.4459C64.5117-12.4859 56.5917-24.3259 56.5917-24.3259C56.1917-25.1259 56.9117-25.7659 55.5517-25.6859C54.6717-25.6859 55.3117-24.3259 55.3117-24.3259L59.7917-10.8859C60.5117-9.1259 60.8317-9.1259 63.3917-9.1259C66.0333-9.20757 66.6717-9.2059 65.1517-11.4459L65.1517-11.4459Z"/>
  </g>
  <g id="Regular-S" transform="matrix(1 0 0 1 1403.58 696)">
   <path class="SFSymbolsPreviewWireframe" d="M46.2402 4.15039C68.0176 4.15039 85.6934-13.5254 85.6934-35.2539C85.6934-56.9824 68.0176-74.6582 46.2402-74.6582C24.5117-74.6582 6.83594-56.9824 6.83594-35.2539C6.83594-13.5254 24.5117 4.15039 46.2402 4.15039ZM63.0366-24.3259L30.3966-24.3259C27.9166-24.3259 24.8766-26.3259 24.8766-28.8859L27.0366-56.3259C27.0366-58.8059 29.0366-60.8859 31.5966-60.8859L61.8366-60.8859C64.3166-60.8859 66.3966-58.8859 66.3966-56.3259L68.5566-28.8859C68.4766-26.4059 65.5166-24.3259 63.0366-24.3259ZM35.5166-31.9259L35.5166-31.9259C35.5166-30.9539 34.7286-30.1659 33.7566-30.1659L33.7566-30.1659C32.7846-30.1659 31.9966-30.9539 31.9966-31.9259L31.9966-31.9259C31.9966-32.8979 32.7846-33.6859 33.7566-33.6859L33.7566-33.6859C34.7286-33.6859 35.5166-32.8979 35.5166-31.9259M40.8766-32.2459L40.8766-32.2459C40.8766-31.2739 40.0886-30.4859 39.1166-30.4859L39.1166-30.4859C38.1446-30.4859 37.3566-31.2739 37.3566-32.2459L37.3566-32.2459C37.3566-33.2179 38.1446-34.0059 39.1166-34.0059L39.1166-34.0059C40.0886-34.0059 40.8766-33.2179 40.8766-32.2459M61.3566-31.9259L61.3566-31.9259C61.3566-30.9539 60.5686-30.1659 59.5966-30.1659L59.5966-30.1659C58.6246-30.1659 57.8366-30.9539 57.8366-31.9259L57.8366-31.9259C57.8366-32.8979 58.6246-33.6859 59.5966-33.6859L59.5966-33.6859C60.5686-33.6859 61.3566-32.8979 61.3566-31.9259M55.8366-32.2459L55.8366-32.2459C55.8366-31.2739 55.0486-30.4859 54.0766-30.4859L54.0766-30.4859C53.1046-30.4859 52.3166-31.2739 52.3166-32.2459L52.3166-32.2459C52.3166-33.2179 53.1046-34.0059 54.0766-34.0059L54.0766-34.0059C55.0486-34.0059 55.8366-33.2179 55.8366-32.2459M57.5166-39.5259L35.8366-39.5259C34.2366-39.5259 32.9566-40.8059 32.9566-42.4059L33.8366-51.2059C33.8366-52.8059 35.1166-54.0859 36.7166-54.0859L56.6366-54.0859C58.2366-54.0859 59.5166-52.8059 59.5166-51.2059L60.3966-42.4059C60.3966-40.8059 59.1166-39.5259 57.5166-39.5259L57.5166-39.5259ZM43.0366-42.4059L37.6766-42.4059C35.1966-42.4059 35.2766-42.4059 35.4366-44.1659L36.1566-49.4459C36.3966-51.2059 36.3966-51.2059 38.3966-51.2059L43.2766-51.2059C45.7566-51.2059 45.5966-51.2059 45.5966-49.4459L45.5966-44.1659C45.5966-42.4059 45.2766-42.4059 43.0366-42.4059ZM50.3166-42.4059L55.6766-42.4059C58.1566-42.4059 58.0766-42.4059 57.9166-44.1659L57.1966-49.4459C56.9566-51.2059 56.9566-51.2059 54.9566-51.2059L50.0766-51.2059C47.5966-51.2059 47.7566-51.2059 47.7566-49.4459L47.7566-44.1659C47.7566-42.4059 48.0766-42.4059 50.3166-42.4059ZM64.2366-19.0459L29.1166-19.0459C28.5566-19.0459 28.0766-19.5259 28.0766-20.0859C28.0766-20.6459 28.5566-21.1259 29.1166-21.1259L64.2366-21.1259C64.7966-21.1259 65.2766-20.6459 65.2766-20.0859C65.2766-19.5259 64.7966-19.0459 64.2366-19.0459L64.2366-19.0459ZM69.9166-13.2859L23.4366-13.2859C22.5566-13.2859 21.8366-14.0059 21.8366-14.8859C21.8366-15.7659 22.5566-16.4859 23.4366-16.4859L69.8366-16.4859C70.7166-16.4859 71.4366-15.7659 71.4366-14.8859C71.5966-14.0859 70.7966-13.2859 69.9166-13.2859ZM30.3966-11.4459C31.0366-12.4859 38.9566-24.3259 38.9566-24.3259C39.3566-25.1259 38.6366-25.7659 39.9966-25.6859C40.8766-25.6859 40.2366-24.3259 40.2366-24.3259L35.7566-10.8859C35.0366-9.1259 34.7166-9.1259 32.1566-9.1259C29.4684-9.19 28.8766-9.2059 30.3966-11.4459ZM62.9566-11.4459C62.3166-12.4859 54.3966-24.3259 54.3966-24.3259C53.9966-25.1259 54.7166-25.7659 53.3566-25.6859C52.4766-25.6859 53.1166-24.3259 53.1166-24.3259L57.5966-10.8859C58.3166-9.1259 58.6366-9.1259 61.1966-9.1259C63.7703-9.13951 64.4766-9.2059 62.9566-11.4459L62.9566-11.4459Z"/>
  </g>
  <g id="Ultralight-S" transform="matrix(1 0 0 1 515.649 696)">
   <path class="SFSymbolsPreviewWireframe" d="M44.0606 1.97072C64.521 1.97072 81.2886-14.7969 81.2886-35.2539C81.2886-55.7109 64.521-72.4785 44.0606-72.4785C23.6035-72.4785 6.83594-55.7109 6.83594-35.2539C6.83594-14.7969 23.6035 1.97072 44.0606 1.97072ZM60.3219-24.3259L27.6819-24.3259C25.2019-24.3259 22.1619-26.3259 22.1619-28.8859L24.3219-56.3259C24.3219-58.8059 26.3219-60.8859 28.8819-60.8859L59.1219-60.8859C61.6019-60.8859 63.6819-58.8859 63.6819-56.3259L65.8419-28.8859C65.7619-26.4059 62.8019-24.3259 60.3219-24.3259ZM32.8019-31.9259L32.8019-31.9259C32.8019-30.9539 32.0139-30.1659 31.0419-30.1659L31.0419-30.1659C30.0699-30.1659 29.2819-30.9539 29.2819-31.9259L29.2819-31.9259C29.2819-32.8979 30.0699-33.6859 31.0419-33.6859L31.0419-33.6859C32.0139-33.6859 32.8019-32.8979 32.8019-31.9259M38.1619-32.2459L38.1619-32.2459C38.1619-31.2739 37.3739-30.4859 36.4019-30.4859L36.4019-30.4859C35.4299-30.4859 34.6419-31.2739 34.6419-32.2459L34.6419-32.2459C34.6419-33.2179 35.4299-34.0059 36.4019-34.0059L36.4019-34.0059C37.3739-34.0059 38.1619-33.2179 38.1619-32.2459M58.6419-31.9259L58.6419-31.9259C58.6419-30.9539 57.8539-30.1659 56.8819-30.1659L56.8819-30.1659C55.9099-30.1659 55.1219-30.9539 55.1219-31.9259L55.1219-31.9259C55.1219-32.8979 55.9099-33.6859 56.8819-33.6859L56.8819-33.6859C57.8539-33.6859 58.6419-32.8979 58.6419-31.9259M53.1219-32.2459L53.1219-32.2459C53.1219-31.2739 52.3339-30.4859 51.3619-30.4859L51.3619-30.4859C50.3899-30.4859 49.6019-31.2739 49.6019-32.2459L49.6019-32.2459C49.6019-33.2179 50.3899-34.0059 51.3619-34.0059L51.3619-34.0059C52.3339-34.0059 53.1219-33.2179 53.1219-32.2459M54.8019-39.5259L33.1219-39.5259C31.5219-39.5259 30.2419-40.8059 30.2419-42.4059L31.1219-51.2059C31.1219-52.8059 32.4019-54.0859 34.0019-54.0859L53.9219-54.0859C55.5219-54.0859 56.8019-52.8059 56.8019-51.2059L57.6819-42.4059C57.6819-40.8059 56.4019-39.5259 54.8019-39.5259L54.8019-39.5259ZM40.3219-42.4059L34.9619-42.4059C32.4819-42.4059 32.5619-42.4059 32.7219-44.1659L33.4419-49.4459C33.6819-51.2059 33.6819-51.2059 35.6819-51.2059L40.5619-51.2059C43.0419-51.2059 42.8819-51.2059 42.8819-49.4459L42.8819-44.1659C42.8819-42.4059 42.5619-42.4059 40.3219-42.4059ZM47.6019-42.4059L52.9619-42.4059C55.4419-42.4059 55.3619-42.4059 55.2019-44.1659L54.4819-49.4459C54.2419-51.2059 54.2419-51.2059 52.2419-51.2059L47.3619-51.2059C44.8819-51.2059 45.0419-51.2059 45.0419-49.4459L45.0419-44.1659C45.0419-42.4059 45.3619-42.4059 47.6019-42.4059ZM61.5219-19.0459L26.4019-19.0459C25.8419-19.0459 25.3619-19.5259 25.3619-20.0859C25.3619-20.6459 25.8419-21.1259 26.4019-21.1259L61.5219-21.1259C62.0819-21.1259 62.5619-20.6459 62.5619-20.0859C62.5619-19.5259 62.0819-19.0459 61.5219-19.0459L61.5219-19.0459ZM67.2019-13.2859L20.7219-13.2859C19.8419-13.2859 19.1219-14.0059 19.1219-14.8859C19.1219-15.7659 19.8419-16.4859 20.7219-16.4859L67.1219-16.4859C68.0019-16.4859 68.7219-15.7659 68.7219-14.8859C68.8819-14.0859 68.0819-13.2859 67.2019-13.2859ZM27.6819-11.4459C28.3219-12.4859 36.2419-24.3259 36.2419-24.3259C36.6419-25.1259 35.9219-25.7659 37.2819-25.6859C38.1619-25.6859 37.5219-24.3259 37.5219-24.3259L33.0419-10.8859C32.3219-9.1259 32.0019-9.1259 29.4419-9.1259C26.7219-9.2059 26.1619-9.2059 27.6819-11.4459ZM60.2419-11.4459C59.6019-12.4859 51.6819-24.3259 51.6819-24.3259C51.2819-25.1259 52.0019-25.7659 50.6419-25.6859C49.7619-25.6859 50.4019-24.3259 50.4019-24.3259L54.8819-10.8859C55.6019-9.1259 55.9219-9.1259 58.4819-9.1259C61.1102-9.19418 61.7619-9.2059 60.2419-11.4459L60.2419-11.4459Z"/>
  </g>
 </g>
 <g id="LayerTree">
  <g class="monochrome-0 multicolor-0:custom hierarchical-0:tertiary"/>
  <g class="monochrome-1 multicolor-1:white hierarchical-1:primary">
   <g class="shapeGroupLayer-0"/>
   <g class="shapeGroupLayer-1"/>
   <g class="shapeGroupLayer-2"/>
   <g class="shapeGroupLayer-3"/>
   <g class="shapeGroupLayer-4"/>
   <g class="shapeGroupLayer-5"/>
  </g>
 </g>
</svg>
