<?xml version="1.0" encoding="UTF-8"?>
<!--Generator: Apple Native CoreSVG 341-->
<!DOCTYPE svg
PUBLIC "-//W3C//DTD SVG 1.1//EN"
       "http://www.w3.org/Graphics/SVG/1.1/DTD/svg11.dtd">
<svg version="1.1" xmlns="http://www.w3.org/2000/svg" xmlns:xlink="http://www.w3.org/1999/xlink" viewBox="0 0 3300 2200">
 <!--glyph: "", point size: 100.0, font version: "20.0d10e1", template writer version: "138.0.0"-->
 <style>.monochrome-0 {-sfsymbols-motion-group:5;-sfsymbols-layer-tags:64f743e109249b98}
.monochrome-1 {-sfsymbols-motion-group:4;-sfsymbols-layer-tags:64f743e109249b98}
.monochrome-2 {-sfsymbols-motion-group:3;-sfsymbols-layer-tags:64f743e109249b98}
.monochrome-3 {opacity:0.0;-sfsymbols-clear-behind:true;-sfsymbols-motion-group:2;-sfsymbols-layer-tags:64f743e109249b98}
.monochrome-4 {opacity:0.0;-sfsymbols-clear-behind:true;-sfsymbols-motion-group:1;-sfsymbols-layer-tags:64f743e109249b98}
.monochrome-5 {-sfsymbols-motion-group:0;-sfsymbols-layer-tags:64f743e109249b98}

.multicolor-0:systemBrownColor {-sfsymbols-clear-behind:true;-sfsymbols-motion-group:5;-sfsymbols-layer-tags:64f743e109249b98}
.multicolor-1:systemGrayColor {-sfsymbols-clear-behind:true;-sfsymbols-motion-group:4;-sfsymbols-layer-tags:64f743e109249b98}
.multicolor-2:custom {fill:#8F1A95;-sfsymbols-clear-behind:true;-sfsymbols-motion-group:3;-sfsymbols-layer-tags:64f743e109249b98}
.multicolor-3:systemYellowColor {-sfsymbols-motion-group:2;-sfsymbols-layer-tags:64f743e109249b98}
.multicolor-4:tintColor {opacity:0.0;-sfsymbols-clear-behind:true;-sfsymbols-motion-group:1;-sfsymbols-layer-tags:64f743e109249b98}
.multicolor-5:systemMintColor {-sfsymbols-motion-group:0;-sfsymbols-layer-tags:64f743e109249b98}

.hierarchical-0:tertiary {-sfsymbols-clear-behind:true;-sfsymbols-motion-group:5;-sfsymbols-layer-tags:64f743e109249b98}
.hierarchical-1:secondary {-sfsymbols-clear-behind:true;-sfsymbols-motion-group:4;-sfsymbols-layer-tags:64f743e109249b98}
.hierarchical-2:tertiary {-sfsymbols-clear-behind:true;-sfsymbols-motion-group:3;-sfsymbols-layer-tags:64f743e109249b98}
.hierarchical-3:primary {-sfsymbols-motion-group:2;-sfsymbols-layer-tags:64f743e109249b98}
.hierarchical-4:tertiary {-sfsymbols-motion-group:1;-sfsymbols-layer-tags:64f743e109249b98}
.hierarchical-5:primary {-sfsymbols-motion-group:0;-sfsymbols-layer-tags:64f743e109249b98}

.SFSymbolsPreviewWireframe {fill:none;opacity:1.0;stroke:black;stroke-width:0.5}
</style>
 <g id="Notes">
  <rect height="2200" id="artboard" style="fill:white;opacity:1" width="3300" x="0" y="0"/>
  <line style="fill:none;stroke:black;opacity:1;stroke-width:0.5;" x1="263" x2="3036" y1="292" y2="292"/>
  <text style="stroke:none;fill:black;font-family:sans-serif;font-size:13;font-weight:bold;" transform="matrix(1 0 0 1 263 322)">Weight/Scale Variations</text>
  <text style="stroke:none;fill:black;font-family:sans-serif;font-size:13;text-anchor:middle;" transform="matrix(1 0 0 1 559.711 322)">Ultralight</text>
  <text style="stroke:none;fill:black;font-family:sans-serif;font-size:13;text-anchor:middle;" transform="matrix(1 0 0 1 856.422 322)">Thin</text>
  <text style="stroke:none;fill:black;font-family:sans-serif;font-size:13;text-anchor:middle;" transform="matrix(1 0 0 1 1153.13 322)">Light</text>
  <text style="stroke:none;fill:black;font-family:sans-serif;font-size:13;text-anchor:middle;" transform="matrix(1 0 0 1 1449.84 322)">Regular</text>
  <text style="stroke:none;fill:black;font-family:sans-serif;font-size:13;text-anchor:middle;" transform="matrix(1 0 0 1 1746.56 322)">Medium</text>
  <text style="stroke:none;fill:black;font-family:sans-serif;font-size:13;text-anchor:middle;" transform="matrix(1 0 0 1 2043.27 322)">Semibold</text>
  <text style="stroke:none;fill:black;font-family:sans-serif;font-size:13;text-anchor:middle;" transform="matrix(1 0 0 1 2339.98 322)">Bold</text>
  <text style="stroke:none;fill:black;font-family:sans-serif;font-size:13;text-anchor:middle;" transform="matrix(1 0 0 1 2636.69 322)">Heavy</text>
  <text style="stroke:none;fill:black;font-family:sans-serif;font-size:13;text-anchor:middle;" transform="matrix(1 0 0 1 2933.4 322)">Black</text>
  <line style="fill:none;stroke:black;opacity:1;stroke-width:0.5;" x1="263" x2="3036" y1="1903" y2="1903"/>
  <g transform="matrix(0.2 0 0 0.2 263 1933)">
   <path d="m46.2402 4.15039c21.7773 0 39.4531-17.627 39.4531-39.4043s-17.6758-39.4043-39.4531-39.4043c-21.7285 0-39.4043 17.627-39.4043 39.4043s17.6758 39.4043 39.4043 39.4043Zm0-7.42188c-17.6758 0-31.9336-14.3066-31.9336-31.9824s14.2578-31.9824 31.9336-31.9824 31.9824 14.3066 31.9824 31.9824-14.3066 31.9824-31.9824 31.9824Zm-17.9688-31.9824c0 2.14844 1.51367 3.61328 3.75977 3.61328h10.498v10.5957c0 2.19727 1.46484 3.71094 3.61328 3.71094 2.24609 0 3.71094-1.51367 3.71094-3.71094v-10.5957h10.5957c2.19727 0 3.71094-1.46484 3.71094-3.61328 0-2.19727-1.51367-3.71094-3.71094-3.71094h-10.5957v-10.5469c0-2.24609-1.46484-3.75977-3.71094-3.75977-2.14844 0-3.61328 1.51367-3.61328 3.75977v10.5469h-10.498c-2.24609 0-3.75977 1.51367-3.75977 3.71094Z"/>
  </g>
  <g transform="matrix(0.2 0 0 0.2 281.506 1933)">
   <path d="m58.5449 14.5508c27.4902 0 49.8047-22.3145 49.8047-49.8047s-22.3145-49.8047-49.8047-49.8047-49.8047 22.3145-49.8047 49.8047 22.3145 49.8047 49.8047 49.8047Zm0-8.30078c-22.9492 0-41.5039-18.5547-41.5039-41.5039s18.5547-41.5039 41.5039-41.5039 41.5039 18.5547 41.5039 41.5039-18.5547 41.5039-41.5039 41.5039Zm-22.6562-41.5039c0 2.39258 1.66016 4.00391 4.15039 4.00391h14.3555v14.4043c0 2.44141 1.66016 4.15039 4.05273 4.15039 2.44141 0 4.15039-1.66016 4.15039-4.15039v-14.4043h14.4043c2.44141 0 4.15039-1.61133 4.15039-4.00391 0-2.44141-1.70898-4.15039-4.15039-4.15039h-14.4043v-14.3555c0-2.49023-1.70898-4.19922-4.15039-4.19922-2.39258 0-4.05273 1.70898-4.05273 4.19922v14.3555h-14.3555c-2.49023 0-4.15039 1.70898-4.15039 4.15039Z"/>
  </g>
  <g transform="matrix(0.2 0 0 0.2 304.924 1933)">
   <path d="m74.8535 28.3203c35.1074 0 63.623-28.4668 63.623-63.5742s-28.5156-63.623-63.623-63.623-63.5742 28.5156-63.5742 63.623 28.4668 63.5742 63.5742 63.5742Zm0-9.08203c-30.127 0-54.4922-24.3652-54.4922-54.4922s24.3652-54.4922 54.4922-54.4922 54.4922 24.3652 54.4922 54.4922-24.3652 54.4922-54.4922 54.4922Zm-28.8574-54.4922c0 2.58789 1.85547 4.39453 4.58984 4.39453h19.7266v19.7754c0 2.68555 1.85547 4.58984 4.44336 4.58984 2.68555 0 4.54102-1.85547 4.54102-4.58984v-19.7754h19.7754c2.68555 0 4.58984-1.80664 4.58984-4.39453 0-2.73438-1.85547-4.58984-4.58984-4.58984h-19.7754v-19.7266c0-2.73438-1.85547-4.63867-4.54102-4.63867-2.58789 0-4.44336 1.9043-4.44336 4.63867v19.7266h-19.7266c-2.73438 0-4.58984 1.85547-4.58984 4.58984Z"/>
  </g>
  <text style="stroke:none;fill:black;font-family:sans-serif;font-size:13;font-weight:bold;" transform="matrix(1 0 0 1 263 1953)">Design Variations</text>
  <text style="stroke:none;fill:black;font-family:sans-serif;font-size:13;" transform="matrix(1 0 0 1 263 1971)">Symbols are supported in up to nine weights and three scales.</text>
  <text style="stroke:none;fill:black;font-family:sans-serif;font-size:13;" transform="matrix(1 0 0 1 263 1989)">For optimal layout with text and other symbols, vertically align</text>
  <text style="stroke:none;fill:black;font-family:sans-serif;font-size:13;" transform="matrix(1 0 0 1 263 2007)">symbols with the adjacent text.</text>
  <line style="fill:none;stroke:#00AEEF;stroke-width:0.5;opacity:1.0;" x1="776" x2="776" y1="1919" y2="1933"/>
  <g transform="matrix(0.2 0 0 0.2 776 1933)">
   <path d="m16.5527 0.78125c2.58789 0 3.85742-0.976562 4.78516-3.71094l6.29883-17.2363h28.8086l6.29883 17.2363c0.927734 2.73438 2.19727 3.71094 4.73633 3.71094 2.58789 0 4.24805-1.5625 4.24805-4.00391 0-0.830078-0.146484-1.61133-0.537109-2.63672l-22.9004-60.9863c-1.12305-2.97852-3.125-4.49219-6.25-4.49219-3.02734 0-5.07812 1.46484-6.15234 4.44336l-22.9004 61.084c-0.390625 1.02539-0.537109 1.80664-0.537109 2.63672 0 2.44141 1.5625 3.95508 4.10156 3.95508Zm13.4766-28.3691 11.8652-32.8613h0.244141l11.8652 32.8613Z"/>
  </g>
  <line style="fill:none;stroke:#00AEEF;stroke-width:0.5;opacity:1.0;" x1="792.836" x2="792.836" y1="1919" y2="1933"/>
  <text style="stroke:none;fill:black;font-family:sans-serif;font-size:13;font-weight:bold;" transform="matrix(1 0 0 1 776 1953)">Margins</text>
  <text style="stroke:none;fill:black;font-family:sans-serif;font-size:13;" transform="matrix(1 0 0 1 776 1971)">Leading and trailing margins on the left and right side of each symbol</text>
  <text style="stroke:none;fill:black;font-family:sans-serif;font-size:13;" transform="matrix(1 0 0 1 776 1989)">can be adjusted by modifying the x-location of the margin guidelines.</text>
  <text style="stroke:none;fill:black;font-family:sans-serif;font-size:13;" transform="matrix(1 0 0 1 776 2007)">Modifications are automatically applied proportionally to all</text>
  <text style="stroke:none;fill:black;font-family:sans-serif;font-size:13;" transform="matrix(1 0 0 1 776 2025)">scales and weights.</text>
  <g transform="matrix(0.2 0 0 0.2 1289 1933)">
   <path d="m14.209 9.32617 8.49609 8.54492c4.29688 4.3457 9.22852 4.05273 13.8672-1.07422l53.4668-58.9355-4.83398-4.88281-53.0762 58.3984c-1.75781 2.00195-3.41797 2.49023-5.76172 0.146484l-5.85938-5.81055c-2.34375-2.29492-1.80664-4.00391 0.195312-5.81055l57.373-54.0039-4.88281-4.83398-57.959 54.4434c-4.93164 4.58984-5.32227 9.47266-1.02539 13.8184Zm32.0801-90.9668c-2.09961 2.05078-2.24609 4.93164-1.07422 6.88477 1.17188 1.80664 3.4668 2.97852 6.68945 2.14844 7.32422-1.70898 14.9414-2.00195 22.0703 2.68555l-2.92969 7.27539c-1.70898 4.15039-0.830078 7.08008 1.85547 9.81445l11.4746 11.5723c2.44141 2.44141 4.49219 2.53906 7.32422 2.05078l5.32227-0.976562 3.32031 3.36914-0.195312 2.7832c-0.195312 2.49023 0.439453 4.39453 2.88086 6.78711l3.80859 3.71094c2.39258 2.39258 5.46875 2.53906 7.8125 0.195312l14.5508-14.5996c2.34375-2.34375 2.24609-5.32227-0.146484-7.71484l-3.85742-3.80859c-2.39258-2.39258-4.24805-3.17383-6.64062-2.97852l-2.88086 0.244141-3.22266-3.17383 1.2207-5.61523c0.634766-2.83203-0.146484-5.0293-3.07617-7.95898l-10.9863-10.9375c-16.6992-16.6016-38.8672-16.2109-53.3203-1.75781Zm7.4707 1.85547c12.1582-8.88672 28.6133-7.37305 39.7461 3.75977l12.1582 12.0605c1.17188 1.17188 1.36719 2.09961 1.02539 3.80859l-1.61133 7.42188 7.51953 7.42188 4.93164-0.292969c1.26953-0.0488281 1.66016 0.0488281 2.63672 1.02539l2.88086 2.88086-12.207 12.207-2.88086-2.88086c-0.976562-0.976562-1.12305-1.36719-1.07422-2.68555l0.341797-4.88281-7.4707-7.42188-7.61719 1.26953c-1.61133 0.341797-2.34375 0.195312-3.56445-0.976562l-10.0098-10.0098c-1.26953-1.17188-1.41602-2.00195-0.634766-3.85742l4.39453-10.4492c-7.8125-7.27539-17.9688-10.4004-28.125-7.42188-0.78125 0.195312-1.07422-0.439453-0.439453-0.976562Z"/>
  </g>
  <text style="stroke:none;fill:black;font-family:sans-serif;font-size:13;font-weight:bold;" transform="matrix(1 0 0 1 1289 1953)">Exporting</text>
  <text style="stroke:none;fill:black;font-family:sans-serif;font-size:13;" transform="matrix(1 0 0 1 1289 1971)">Symbols should be outlined when exporting to ensure the</text>
  <text style="stroke:none;fill:black;font-family:sans-serif;font-size:13;" transform="matrix(1 0 0 1 1289 1989)">design is preserved when submitting to Xcode.</text>
  <text id="template-version" style="stroke:none;fill:black;font-family:sans-serif;font-size:13;text-anchor:end;" transform="matrix(1 0 0 1 3036 1933)">Template v.6.0</text>
  <text style="stroke:none;fill:black;font-family:sans-serif;font-size:13;text-anchor:end;" transform="matrix(1 0 0 1 3036 1951)">Requires Xcode 16 or greater</text>
  <text id="descriptive-name" style="stroke:none;fill:black;font-family:sans-serif;font-size:13;text-anchor:end;" transform="matrix(1 0 0 1 3036 1969)">Generated from ptv.vline</text>
  <text style="stroke:none;fill:black;font-family:sans-serif;font-size:13;text-anchor:end;" transform="matrix(1 0 0 1 3036 1987)">Typeset at 100.0 points</text>
  <text style="stroke:none;fill:black;font-family:sans-serif;font-size:13;" transform="matrix(1 0 0 1 263 726)">Small</text>
  <text style="stroke:none;fill:black;font-family:sans-serif;font-size:13;" transform="matrix(1 0 0 1 263 1156)">Medium</text>
  <text style="stroke:none;fill:black;font-family:sans-serif;font-size:13;" transform="matrix(1 0 0 1 263 1586)">Large</text>
 </g>
 <g id="Guides">
  <g id="H-reference" style="fill:#27AAE1;stroke:none;" transform="matrix(1 0 0 1 339 696)">
   <path d="M0.993654 0L3.63775 0L29.3281-67.1323L30.0303-67.1323L30.0303-70.459L28.1226-70.459ZM11.6885-24.4799L46.9815-24.4799L46.2315-26.7285L12.4385-26.7285ZM55.1196 0L57.7637 0L30.6382-70.459L29.4326-70.459L29.4326-67.1323Z"/>
  </g>
  <line id="Baseline-S" style="fill:none;stroke:#27AAE1;opacity:1;stroke-width:0.5;" x1="263" x2="3036" y1="696" y2="696"/>
  <line id="Capline-S" style="fill:none;stroke:#27AAE1;opacity:1;stroke-width:0.5;" x1="263" x2="3036" y1="625.541" y2="625.541"/>
  <g id="H-reference" style="fill:#27AAE1;stroke:none;" transform="matrix(1 0 0 1 339 1126)">
   <path d="M0.993654 0L3.63775 0L29.3281-67.1323L30.0303-67.1323L30.0303-70.459L28.1226-70.459ZM11.6885-24.4799L46.9815-24.4799L46.2315-26.7285L12.4385-26.7285ZM55.1196 0L57.7637 0L30.6382-70.459L29.4326-70.459L29.4326-67.1323Z"/>
  </g>
  <line id="Baseline-M" style="fill:none;stroke:#27AAE1;opacity:1;stroke-width:0.5;" x1="263" x2="3036" y1="1126" y2="1126"/>
  <line id="Capline-M" style="fill:none;stroke:#27AAE1;opacity:1;stroke-width:0.5;" x1="263" x2="3036" y1="1055.54" y2="1055.54"/>
  <g id="H-reference" style="fill:#27AAE1;stroke:none;" transform="matrix(1 0 0 1 339 1556)">
   <path d="M0.993654 0L3.63775 0L29.3281-67.1323L30.0303-67.1323L30.0303-70.459L28.1226-70.459ZM11.6885-24.4799L46.9815-24.4799L46.2315-26.7285L12.4385-26.7285ZM55.1196 0L57.7637 0L30.6382-70.459L29.4326-70.459L29.4326-67.1323Z"/>
  </g>
  <line id="Baseline-L" style="fill:none;stroke:#27AAE1;opacity:1;stroke-width:0.5;" x1="263" x2="3036" y1="1556" y2="1556"/>
  <line id="Capline-L" style="fill:none;stroke:#27AAE1;opacity:1;stroke-width:0.5;" x1="263" x2="3036" y1="1485.54" y2="1485.54"/>
  <line id="right-margin-Black-S" style="fill:none;stroke:#00AEEF;stroke-width:0.5;opacity:1.0;" x1="2982.2" x2="2982.2" y1="600.785" y2="720.121"/>
  <line id="left-margin-Black-S" style="fill:none;stroke:#00AEEF;stroke-width:0.5;opacity:1.0;" x1="2884.6" x2="2884.6" y1="600.785" y2="720.121"/>
  <line id="right-margin-Regular-S" style="fill:none;stroke:#00AEEF;stroke-width:0.5;opacity:1.0;" x1="1496.09" x2="1496.09" y1="600.785" y2="720.121"/>
  <line id="left-margin-Regular-S" style="fill:none;stroke:#00AEEF;stroke-width:0.5;opacity:1.0;" x1="1403.59" x2="1403.59" y1="600.785" y2="720.121"/>
  <line id="right-margin-Ultralight-S" style="fill:none;stroke:#00AEEF;stroke-width:0.5;opacity:1.0;" x1="603.811" x2="603.811" y1="600.785" y2="720.121"/>
  <line id="left-margin-Ultralight-S" style="fill:none;stroke:#00AEEF;stroke-width:0.5;opacity:1.0;" x1="515.611" x2="515.611" y1="600.785" y2="720.121"/>
 </g>
 <g id="Symbols">
  <g id="Black-S" transform="matrix(1 0 0 1 2884.6 696)">
   <path class="monochrome-0 multicolor-0:systemBrownColor hierarchical-0:tertiary SFSymbolsPreviewWireframe" d="M71.6-14L25.4-14C24.7-14 24.1-14.7 24.1-15.3C24.1-16 24.8-16.6 25.4-16.6L71.5-16.6C72.2-16.6 72.8-15.9 72.8-15.3C72.9-14.7 72.3-14 71.6-14ZM79-6.5L17.9-6.5C16.7-6.5 15.8-7.5 15.8-8.6C15.8-9.7 16.8-10.7 17.9-10.7L78.9-10.7C80.1-10.7 81-9.7 81-8.6C81.2-7.5 80.1-6.5 79-6.5L79-6.5Z"/>
   <path class="monochrome-1 multicolor-1:systemGrayColor hierarchical-1:secondary SFSymbolsPreviewWireframe" d="M27.1-4C28-5.4 38.3-20.9 38.3-20.9C38.8-21.9 37.9-22.8 39.6-22.7C40.8-22.7 39.9-20.9 39.9-20.9L34-3.2C33.2-0.9 32.7-0.9 29.3-0.9C25.8-1.1 25.1-1.1 27.1-4ZM69.9-4C69.1-5.4 58.7-20.9 58.7-20.9C58.2-21.9 59.1-22.8 57.4-22.7C56.2-22.7 57.1-20.9 57.1-20.9L63-3.2C64-0.9 64.3-0.9 67.7-0.9C71.1-0.9 71.9-1.1 69.9-4Z"/>
   <path class="monochrome-2 multicolor-2:custom hierarchical-2:tertiary SFSymbolsPreviewWireframe" d="M69.9-21L27-21C23.7-21 19.8-23.7 19.8-27L22.6-63.1C22.6-66.4 25.3-69.1 28.6-69.1L68.4-69.1C71.7-69.1 74.4-66.4 74.4-63.1L77.2-27C77.1-23.7 73.2-21 69.9-21Z"/>
   <path class="monochrome-3 multicolor-3:systemYellowColor hierarchical-3:primary SFSymbolsPreviewWireframe" d="M31.9-31.6C31.9-30.5 30.9-29.5 29.8-29.5C28.7-29.5 27.7-30.5 27.7-31.6C27.7-32.7 28.7-33.7 29.8-33.7C30.9-33.7 31.9-32.7 31.9-31.6ZM37.8-31.6C37.8-30.5 36.8-29.5 35.7-29.5C34.6-29.5 33.6-30.5 33.6-31.6C33.6-32.7 34.6-33.7 35.7-33.7C36.8-33.7 37.8-32.7 37.8-31.6ZM69.2-31.6C69.2-30.5 68.2-29.5 67.1-29.5C66-29.5 65-30.5 65-31.6C65-32.7 66-33.7 67.1-33.7C68.2-33.7 69.2-32.7 69.2-31.6ZM63.3-31.6C63.3-30.5 62.3-29.5 61.2-29.5C60.1-29.5 59.1-30.5 59.1-31.6C59.1-32.7 60.1-33.7 61.2-33.7C62.3-33.7 63.3-32.7 63.3-31.6Z"/>
   <path class="monochrome-4 multicolor-4:tintColor hierarchical-4:tertiary SFSymbolsPreviewWireframe" d="M62.7-40.9L34.2-40.9C32.1-40.9 30.4-42.6 30.4-44.7L31.6-56.2C31.6-58.3 33.3-60 35.4-60L61.6-60C63.7-60 65.4-58.3 65.4-56.2L66.6-44.7C66.5-42.6 64.8-40.9 62.7-40.9Z"/>
   <path class="monochrome-5 multicolor-5:systemMintColor hierarchical-5:primary SFSymbolsPreviewWireframe" d="M43.7-44.8L36.7-44.8C33.4-44.8 33.5-44.8 33.7-47.1L34.7-54C35-56.3 35-56.3 37.7-56.3L44.1-56.3C47.4-56.3 47.1-56.3 47.1-54L47.1-47.1C47-44.8 46.6-44.8 43.7-44.8ZM53.2-44.8L60.2-44.8C63.5-44.8 63.4-44.8 63.2-47.1L62.2-54C61.9-56.3 61.9-56.3 59.2-56.3L52.8-56.3C49.5-56.3 49.8-56.3 49.8-54L49.8-47.1C49.9-44.8 50.3-44.8 53.2-44.8Z"/>
  </g>
  <g id="Regular-S" transform="matrix(1 0 0 1 1403.59 696)">
   <path class="monochrome-0 multicolor-0:systemBrownColor hierarchical-0:tertiary SFSymbolsPreviewWireframe" d="M69.6-14L23.4-14C22.7-14 22.1-14.7 22.1-15.3C22.1-16 22.8-16.6 23.4-16.6L69.5-16.6C70.2-16.6 70.8-15.9 70.8-15.3C70.9-14.7 70.3-14 69.6-14ZM77-6.5L15.9-6.5C14.7-6.5 13.8-7.5 13.8-8.6C13.8-9.7 14.8-10.7 15.9-10.7L76.9-10.7C78.1-10.7 79-9.7 79-8.6C79.2-7.5 78.1-6.5 77-6.5L77-6.5Z"/>
   <path class="monochrome-1 multicolor-1:systemGrayColor hierarchical-1:secondary SFSymbolsPreviewWireframe" d="M25.1-4C26-5.4 36.3-20.9 36.3-20.9C36.8-21.9 35.9-22.8 37.6-22.7C38.8-22.7 37.9-20.9 37.9-20.9L32-3.2C31.2-0.9 30.7-0.9 27.3-0.9C23.8-1.1 23.1-1.1 25.1-4ZM67.9-4C67.1-5.4 56.7-20.9 56.7-20.9C56.2-21.9 57.1-22.8 55.4-22.7C54.2-22.7 55.1-20.9 55.1-20.9L61-3.2C62-0.9 62.3-0.9 65.7-0.9C69.1-0.9 69.9-1.1 67.9-4Z"/>
   <path class="monochrome-2 multicolor-2:custom hierarchical-2:tertiary SFSymbolsPreviewWireframe" d="M67.9-21L25-21C21.7-21 17.8-23.7 17.8-27L20.6-63.1C20.6-66.4 23.3-69.1 26.6-69.1L66.4-69.1C69.7-69.1 72.4-66.4 72.4-63.1L75.2-27C75.1-23.7 71.2-21 67.9-21Z"/>
   <path class="monochrome-3 multicolor-3:systemYellowColor hierarchical-3:primary SFSymbolsPreviewWireframe" d="M29.9-31.6C29.9-30.5 28.9-29.5 27.8-29.5C26.7-29.5 25.7-30.5 25.7-31.6C25.7-32.7 26.7-33.7 27.8-33.7C28.9-33.7 29.9-32.7 29.9-31.6ZM35.8-31.6C35.8-30.5 34.8-29.5 33.7-29.5C32.6-29.5 31.6-30.5 31.6-31.6C31.6-32.7 32.6-33.7 33.7-33.7C34.8-33.7 35.8-32.7 35.8-31.6ZM67.2-31.6C67.2-30.5 66.2-29.5 65.1-29.5C64-29.5 63-30.5 63-31.6C63-32.7 64-33.7 65.1-33.7C66.2-33.7 67.2-32.7 67.2-31.6ZM61.3-31.6C61.3-30.5 60.3-29.5 59.2-29.5C58.1-29.5 57.1-30.5 57.1-31.6C57.1-32.7 58.1-33.7 59.2-33.7C60.3-33.7 61.3-32.7 61.3-31.6Z"/>
   <path class="monochrome-4 multicolor-4:tintColor hierarchical-4:tertiary SFSymbolsPreviewWireframe" d="M60.7-40.9L32.2-40.9C30.1-40.9 28.4-42.6 28.4-44.7L29.6-56.2C29.6-58.3 31.3-60 33.4-60L59.6-60C61.7-60 63.4-58.3 63.4-56.2L64.6-44.7C64.5-42.6 62.8-40.9 60.7-40.9Z"/>
   <path class="monochrome-5 multicolor-5:systemMintColor hierarchical-5:primary SFSymbolsPreviewWireframe" d="M41.7-44.8L34.7-44.8C31.4-44.8 31.5-44.8 31.7-47.1L32.7-54C33-56.3 33-56.3 35.7-56.3L42.1-56.3C45.4-56.3 45.1-56.3 45.1-54L45.1-47.1C45-44.8 44.6-44.8 41.7-44.8ZM51.2-44.8L58.2-44.8C61.5-44.8 61.4-44.8 61.2-47.1L60.2-54C59.9-56.3 59.9-56.3 57.2-56.3L50.8-56.3C47.5-56.3 47.8-56.3 47.8-54L47.8-47.1C47.9-44.8 48.3-44.8 51.2-44.8Z"/>
  </g>
  <g id="Ultralight-S" transform="matrix(1 0 0 1 515.611 696)">
   <path class="monochrome-0 multicolor-0:systemBrownColor hierarchical-0:tertiary SFSymbolsPreviewWireframe" d="M67.6-14L21.4-14C20.7-14 20.1-14.7 20.1-15.3C20.1-16 20.8-16.6 21.4-16.6L67.5-16.6C68.2-16.6 68.8-15.9 68.8-15.3C68.9-14.7 68.3-14 67.6-14ZM75-6.5L13.9-6.5C12.7-6.5 11.8-7.5 11.8-8.6C11.8-9.7 12.8-10.7 13.9-10.7L74.9-10.7C76.1-10.7 77-9.7 77-8.6C77.2-7.5 76.1-6.5 75-6.5L75-6.5Z"/>
   <path class="monochrome-1 multicolor-1:systemGrayColor hierarchical-1:secondary SFSymbolsPreviewWireframe" d="M23.1-4C24-5.4 34.3-20.9 34.3-20.9C34.8-21.9 33.9-22.8 35.6-22.7C36.8-22.7 35.9-20.9 35.9-20.9L30-3.2C29.2-0.9 28.7-0.9 25.3-0.9C21.8-1.1 21.1-1.1 23.1-4ZM65.9-4C65.1-5.4 54.7-20.9 54.7-20.9C54.2-21.9 55.1-22.8 53.4-22.7C52.2-22.7 53.1-20.9 53.1-20.9L59-3.2C60-0.9 60.3-0.9 63.7-0.9C67-1 67.9-1.1 65.9-4Z"/>
   <path class="monochrome-2 multicolor-2:custom hierarchical-2:tertiary SFSymbolsPreviewWireframe" d="M65.9-21L23-21C19.7-21 15.8-23.7 15.8-27L18.6-63.1C18.6-66.4 21.3-69.1 24.6-69.1L64.4-69.1C67.7-69.1 70.4-66.4 70.4-63.1L73.2-27C73.1-23.7 69.2-21 65.9-21Z"/>
   <path class="monochrome-3 multicolor-3:systemYellowColor hierarchical-3:primary SFSymbolsPreviewWireframe" d="M27.9-31.6C27.9-30.5 26.9-29.5 25.8-29.5C24.7-29.5 23.7-30.5 23.7-31.6C23.7-32.7 24.7-33.7 25.8-33.7C26.9-33.7 27.9-32.7 27.9-31.6ZM33.8-31.6C33.8-30.5 32.8-29.5 31.7-29.5C30.6-29.5 29.6-30.5 29.6-31.6C29.6-32.7 30.6-33.7 31.7-33.7C32.8-33.7 33.8-32.7 33.8-31.6ZM65.2-31.6C65.2-30.5 64.2-29.5 63.1-29.5C62-29.5 61-30.5 61-31.6C61-32.7 62-33.7 63.1-33.7C64.2-33.7 65.2-32.7 65.2-31.6ZM59.3-31.6C59.3-30.5 58.3-29.5 57.2-29.5C56.1-29.5 55.1-30.5 55.1-31.6C55.1-32.7 56.1-33.7 57.2-33.7C58.3-33.7 59.3-32.7 59.3-31.6Z"/>
   <path class="monochrome-4 multicolor-4:tintColor hierarchical-4:tertiary SFSymbolsPreviewWireframe" d="M58.7-40.9L30.2-40.9C28.1-40.9 26.4-42.6 26.4-44.7L27.6-56.2C27.6-58.3 29.3-60 31.4-60L57.6-60C59.7-60 61.4-58.3 61.4-56.2L62.6-44.7C62.5-42.6 60.8-40.9 58.7-40.9Z"/>
   <path class="monochrome-5 multicolor-5:systemMintColor hierarchical-5:primary SFSymbolsPreviewWireframe" d="M39.7-44.8L32.7-44.8C29.4-44.8 29.5-44.8 29.7-47.1L30.7-54C31-56.3 31-56.3 33.7-56.3L40.1-56.3C43.4-56.3 43.1-56.3 43.1-54L43.1-47.1C43-44.8 42.6-44.8 39.7-44.8ZM49.2-44.8L56.2-44.8C59.5-44.8 59.4-44.8 59.2-47.1L58.2-54C57.9-56.3 57.9-56.3 55.2-56.3L48.8-56.3C45.5-56.3 45.8-56.3 45.8-54L45.8-47.1C45.9-44.8 46.3-44.8 49.2-44.8Z"/>
  </g>
 </g>
</svg>
