<?xml version="1.0" encoding="UTF-8"?>
<!--Generator: Apple Native CoreSVG 341-->
<!DOCTYPE svg
PUBLIC "-//W3C//DTD SVG 1.1//EN"
       "http://www.w3.org/Graphics/SVG/1.1/DTD/svg11.dtd">
<svg version="1.1" xmlns="http://www.w3.org/2000/svg" xmlns:xlink="http://www.w3.org/1999/xlink" viewBox="0 0 3300 2200">
 <!--glyph: "", point size: 100.0, font version: "20.0d10e1", template writer version: "138.0.0"-->
 <style>.monochrome-0 {-sfsymbols-motion-group:1;-sfsymbols-indices:0;-sfsymbols-layer-tags:78705079ffbc3841 circle.fill}
.monochrome-1 {opacity:0.0;-sfsymbols-clear-behind:true;-sfsymbols-motion-group:0;-sfsymbols-always-pulses:true;-sfsymbols-layer-tags:78705079ffbc3841}

.multicolor-0:custom {fill:#FF8201;-sfsymbols-motion-group:1;-sfsymbols-indices:0;-sfsymbols-layer-tags:78705079ffbc3841 circle.fill}
.multicolor-1:white {-sfsymbols-motion-group:0;-sfsymbols-always-pulses:true;-sfsymbols-layer-tags:78705079ffbc3841}

.hierarchical-0:tertiary {-sfsymbols-motion-group:1;-sfsymbols-indices:0;-sfsymbols-layer-tags:78705079ffbc3841 circle.fill}
.hierarchical-1:primary {-sfsymbols-motion-group:0;-sfsymbols-layer-tags:78705079ffbc3841}

.shapeGroupLayer-0 {-sfsymbols-fill-action:draw;-sfsymbols-indices:1 2}
.shapeGroupLayer-1 {-sfsymbols-fill-action:draw;-sfsymbols-indices:3}
.shapeGroupLayer-2 {-sfsymbols-fill-action:erase;-sfsymbols-indices:4 5}
.shapeGroupLayer-3 {-sfsymbols-fill-action:draw;-sfsymbols-indices:6 7}
.shapeGroupLayer-4 {-sfsymbols-fill-action:erase;-sfsymbols-indices:8 9}
.shapeGroupLayer-5 {-sfsymbols-fill-action:erase;-sfsymbols-indices:10}

.SFSymbolsPreviewWireframe {fill:none;opacity:1.0;stroke:black;stroke-width:0.5}
</style>
 <g id="Notes">
  <rect height="2200" id="artboard" style="fill:white;opacity:1" width="3300" x="0" y="0"/>
  <line style="fill:none;stroke:black;opacity:1;stroke-width:0.5;" x1="263" x2="3036" y1="292" y2="292"/>
  <text style="stroke:none;fill:black;font-family:sans-serif;font-size:13;font-weight:bold;" transform="matrix(1 0 0 1 263 322)">Weight/Scale Variations</text>
  <text style="stroke:none;fill:black;font-family:sans-serif;font-size:13;text-anchor:middle;" transform="matrix(1 0 0 1 559.711 322)">Ultralight</text>
  <text style="stroke:none;fill:black;font-family:sans-serif;font-size:13;text-anchor:middle;" transform="matrix(1 0 0 1 856.422 322)">Thin</text>
  <text style="stroke:none;fill:black;font-family:sans-serif;font-size:13;text-anchor:middle;" transform="matrix(1 0 0 1 1153.13 322)">Light</text>
  <text style="stroke:none;fill:black;font-family:sans-serif;font-size:13;text-anchor:middle;" transform="matrix(1 0 0 1 1449.84 322)">Regular</text>
  <text style="stroke:none;fill:black;font-family:sans-serif;font-size:13;text-anchor:middle;" transform="matrix(1 0 0 1 1746.56 322)">Medium</text>
  <text style="stroke:none;fill:black;font-family:sans-serif;font-size:13;text-anchor:middle;" transform="matrix(1 0 0 1 2043.27 322)">Semibold</text>
  <text style="stroke:none;fill:black;font-family:sans-serif;font-size:13;text-anchor:middle;" transform="matrix(1 0 0 1 2339.98 322)">Bold</text>
  <text style="stroke:none;fill:black;font-family:sans-serif;font-size:13;text-anchor:middle;" transform="matrix(1 0 0 1 2636.69 322)">Heavy</text>
  <text style="stroke:none;fill:black;font-family:sans-serif;font-size:13;text-anchor:middle;" transform="matrix(1 0 0 1 2933.4 322)">Black</text>
  <line style="fill:none;stroke:black;opacity:1;stroke-width:0.5;" x1="263" x2="3036" y1="1903" y2="1903"/>
  <g transform="matrix(0.2 0 0 0.2 263 1933)">
   <path d="m46.2402 4.15039c21.7773 0 39.4531-17.627 39.4531-39.4043s-17.6758-39.4043-39.4531-39.4043c-21.7285 0-39.4043 17.627-39.4043 39.4043s17.6758 39.4043 39.4043 39.4043Zm0-7.42188c-17.6758 0-31.9336-14.3066-31.9336-31.9824s14.2578-31.9824 31.9336-31.9824 31.9824 14.3066 31.9824 31.9824-14.3066 31.9824-31.9824 31.9824Zm-17.9688-31.9824c0 2.14844 1.51367 3.61328 3.75977 3.61328h10.498v10.5957c0 2.19727 1.46484 3.71094 3.61328 3.71094 2.24609 0 3.71094-1.51367 3.71094-3.71094v-10.5957h10.5957c2.19727 0 3.71094-1.46484 3.71094-3.61328 0-2.19727-1.51367-3.71094-3.71094-3.71094h-10.5957v-10.5469c0-2.24609-1.46484-3.75977-3.71094-3.75977-2.14844 0-3.61328 1.51367-3.61328 3.75977v10.5469h-10.498c-2.24609 0-3.75977 1.51367-3.75977 3.71094Z"/>
  </g>
  <g transform="matrix(0.2 0 0 0.2 281.506 1933)">
   <path d="m58.5449 14.5508c27.4902 0 49.8047-22.3145 49.8047-49.8047s-22.3145-49.8047-49.8047-49.8047-49.8047 22.3145-49.8047 49.8047 22.3145 49.8047 49.8047 49.8047Zm0-8.30078c-22.9492 0-41.5039-18.5547-41.5039-41.5039s18.5547-41.5039 41.5039-41.5039 41.5039 18.5547 41.5039 41.5039-18.5547 41.5039-41.5039 41.5039Zm-22.6562-41.5039c0 2.39258 1.66016 4.00391 4.15039 4.00391h14.3555v14.4043c0 2.44141 1.66016 4.15039 4.05273 4.15039 2.44141 0 4.15039-1.66016 4.15039-4.15039v-14.4043h14.4043c2.44141 0 4.15039-1.61133 4.15039-4.00391 0-2.44141-1.70898-4.15039-4.15039-4.15039h-14.4043v-14.3555c0-2.49023-1.70898-4.19922-4.15039-4.19922-2.39258 0-4.05273 1.70898-4.05273 4.19922v14.3555h-14.3555c-2.49023 0-4.15039 1.70898-4.15039 4.15039Z"/>
  </g>
  <g transform="matrix(0.2 0 0 0.2 304.924 1933)">
   <path d="m74.8535 28.3203c35.1074 0 63.623-28.4668 63.623-63.5742s-28.5156-63.623-63.623-63.623-63.5742 28.5156-63.5742 63.623 28.4668 63.5742 63.5742 63.5742Zm0-9.08203c-30.127 0-54.4922-24.3652-54.4922-54.4922s24.3652-54.4922 54.4922-54.4922 54.4922 24.3652 54.4922 54.4922-24.3652 54.4922-54.4922 54.4922Zm-28.8574-54.4922c0 2.58789 1.85547 4.39453 4.58984 4.39453h19.7266v19.7754c0 2.68555 1.85547 4.58984 4.44336 4.58984 2.68555 0 4.54102-1.85547 4.54102-4.58984v-19.7754h19.7754c2.68555 0 4.58984-1.80664 4.58984-4.39453 0-2.73438-1.85547-4.58984-4.58984-4.58984h-19.7754v-19.7266c0-2.73438-1.85547-4.63867-4.54102-4.63867-2.58789 0-4.44336 1.9043-4.44336 4.63867v19.7266h-19.7266c-2.73438 0-4.58984 1.85547-4.58984 4.58984Z"/>
  </g>
  <text style="stroke:none;fill:black;font-family:sans-serif;font-size:13;font-weight:bold;" transform="matrix(1 0 0 1 263 1953)">Design Variations</text>
  <text style="stroke:none;fill:black;font-family:sans-serif;font-size:13;" transform="matrix(1 0 0 1 263 1971)">Symbols are supported in up to nine weights and three scales.</text>
  <text style="stroke:none;fill:black;font-family:sans-serif;font-size:13;" transform="matrix(1 0 0 1 263 1989)">For optimal layout with text and other symbols, vertically align</text>
  <text style="stroke:none;fill:black;font-family:sans-serif;font-size:13;" transform="matrix(1 0 0 1 263 2007)">symbols with the adjacent text.</text>
  <line style="fill:none;stroke:#00AEEF;stroke-width:0.5;opacity:1.0;" x1="776" x2="776" y1="1919" y2="1933"/>
  <g transform="matrix(0.2 0 0 0.2 776 1933)">
   <path d="m16.5527 0.78125c2.58789 0 3.85742-0.976562 4.78516-3.71094l6.29883-17.2363h28.8086l6.29883 17.2363c0.927734 2.73438 2.19727 3.71094 4.73633 3.71094 2.58789 0 4.24805-1.5625 4.24805-4.00391 0-0.830078-0.146484-1.61133-0.537109-2.63672l-22.9004-60.9863c-1.12305-2.97852-3.125-4.49219-6.25-4.49219-3.02734 0-5.07812 1.46484-6.15234 4.44336l-22.9004 61.084c-0.390625 1.02539-0.537109 1.80664-0.537109 2.63672 0 2.44141 1.5625 3.95508 4.10156 3.95508Zm13.4766-28.3691 11.8652-32.8613h0.244141l11.8652 32.8613Z"/>
  </g>
  <line style="fill:none;stroke:#00AEEF;stroke-width:0.5;opacity:1.0;" x1="792.836" x2="792.836" y1="1919" y2="1933"/>
  <text style="stroke:none;fill:black;font-family:sans-serif;font-size:13;font-weight:bold;" transform="matrix(1 0 0 1 776 1953)">Margins</text>
  <text style="stroke:none;fill:black;font-family:sans-serif;font-size:13;" transform="matrix(1 0 0 1 776 1971)">Leading and trailing margins on the left and right side of each symbol</text>
  <text style="stroke:none;fill:black;font-family:sans-serif;font-size:13;" transform="matrix(1 0 0 1 776 1989)">can be adjusted by modifying the x-location of the margin guidelines.</text>
  <text style="stroke:none;fill:black;font-family:sans-serif;font-size:13;" transform="matrix(1 0 0 1 776 2007)">Modifications are automatically applied proportionally to all</text>
  <text style="stroke:none;fill:black;font-family:sans-serif;font-size:13;" transform="matrix(1 0 0 1 776 2025)">scales and weights.</text>
  <g transform="matrix(0.2 0 0 0.2 1289 1933)">
   <path d="m14.209 9.32617 8.49609 8.54492c4.29688 4.3457 9.22852 4.05273 13.8672-1.07422l53.4668-58.9355-4.83398-4.88281-53.0762 58.3984c-1.75781 2.00195-3.41797 2.49023-5.76172 0.146484l-5.85938-5.81055c-2.34375-2.29492-1.80664-4.00391 0.195312-5.81055l57.373-54.0039-4.88281-4.83398-57.959 54.4434c-4.93164 4.58984-5.32227 9.47266-1.02539 13.8184Zm32.0801-90.9668c-2.09961 2.05078-2.24609 4.93164-1.07422 6.88477 1.17188 1.80664 3.4668 2.97852 6.68945 2.14844 7.32422-1.70898 14.9414-2.00195 22.0703 2.68555l-2.92969 7.27539c-1.70898 4.15039-0.830078 7.08008 1.85547 9.81445l11.4746 11.5723c2.44141 2.44141 4.49219 2.53906 7.32422 2.05078l5.32227-0.976562 3.32031 3.36914-0.195312 2.7832c-0.195312 2.49023 0.439453 4.39453 2.88086 6.78711l3.80859 3.71094c2.39258 2.39258 5.46875 2.53906 7.8125 0.195312l14.5508-14.5996c2.34375-2.34375 2.24609-5.32227-0.146484-7.71484l-3.85742-3.80859c-2.39258-2.39258-4.24805-3.17383-6.64062-2.97852l-2.88086 0.244141-3.22266-3.17383 1.2207-5.61523c0.634766-2.83203-0.146484-5.0293-3.07617-7.95898l-10.9863-10.9375c-16.6992-16.6016-38.8672-16.2109-53.3203-1.75781Zm7.4707 1.85547c12.1582-8.88672 28.6133-7.37305 39.7461 3.75977l12.1582 12.0605c1.17188 1.17188 1.36719 2.09961 1.02539 3.80859l-1.61133 7.42188 7.51953 7.42188 4.93164-0.292969c1.26953-0.0488281 1.66016 0.0488281 2.63672 1.02539l2.88086 2.88086-12.207 12.207-2.88086-2.88086c-0.976562-0.976562-1.12305-1.36719-1.07422-2.68555l0.341797-4.88281-7.4707-7.42188-7.61719 1.26953c-1.61133 0.341797-2.34375 0.195312-3.56445-0.976562l-10.0098-10.0098c-1.26953-1.17188-1.41602-2.00195-0.634766-3.85742l4.39453-10.4492c-7.8125-7.27539-17.9688-10.4004-28.125-7.42188-0.78125 0.195312-1.07422-0.439453-0.439453-0.976562Z"/>
  </g>
  <text style="stroke:none;fill:black;font-family:sans-serif;font-size:13;font-weight:bold;" transform="matrix(1 0 0 1 1289 1953)">Exporting</text>
  <text style="stroke:none;fill:black;font-family:sans-serif;font-size:13;" transform="matrix(1 0 0 1 1289 1971)">Symbols should be outlined when exporting to ensure the</text>
  <text style="stroke:none;fill:black;font-family:sans-serif;font-size:13;" transform="matrix(1 0 0 1 1289 1989)">design is preserved when submitting to Xcode.</text>
  <text id="template-version" style="stroke:none;fill:black;font-family:sans-serif;font-size:13;text-anchor:end;" transform="matrix(1 0 0 1 3036 1933)">Template v.6.0</text>
  <text style="stroke:none;fill:black;font-family:sans-serif;font-size:13;text-anchor:end;" transform="matrix(1 0 0 1 3036 1951)">Requires Xcode 16 or greater</text>
  <text id="descriptive-name" style="stroke:none;fill:black;font-family:sans-serif;font-size:13;text-anchor:end;" transform="matrix(1 0 0 1 3036 1969)">Generated from circle.fill</text>
  <text style="stroke:none;fill:black;font-family:sans-serif;font-size:13;text-anchor:end;" transform="matrix(1 0 0 1 3036 1987)">Typeset at 100.0 points</text>
  <text style="stroke:none;fill:black;font-family:sans-serif;font-size:13;" transform="matrix(1 0 0 1 263 726)">Small</text>
  <text style="stroke:none;fill:black;font-family:sans-serif;font-size:13;" transform="matrix(1 0 0 1 263 1156)">Medium</text>
  <text style="stroke:none;fill:black;font-family:sans-serif;font-size:13;" transform="matrix(1 0 0 1 263 1586)">Large</text>
 </g>
 <g id="Guides">
  <g id="H-reference" style="fill:#27AAE1;stroke:none;" transform="matrix(1 0 0 1 339 696)">
   <path d="M0.993654 0L3.63775 0L29.3281-67.1323L30.0303-67.1323L30.0303-70.459L28.1226-70.459ZM11.6885-24.4799L46.9815-24.4799L46.2315-26.7285L12.4385-26.7285ZM55.1196 0L57.7637 0L30.6382-70.459L29.4326-70.459L29.4326-67.1323Z"/>
  </g>
  <line id="Baseline-S" style="fill:none;stroke:#27AAE1;opacity:1;stroke-width:0.5;" x1="263" x2="3036" y1="696" y2="696"/>
  <line id="Capline-S" style="fill:none;stroke:#27AAE1;opacity:1;stroke-width:0.5;" x1="263" x2="3036" y1="625.541" y2="625.541"/>
  <g id="H-reference" style="fill:#27AAE1;stroke:none;" transform="matrix(1 0 0 1 339 1126)">
   <path d="M0.993654 0L3.63775 0L29.3281-67.1323L30.0303-67.1323L30.0303-70.459L28.1226-70.459ZM11.6885-24.4799L46.9815-24.4799L46.2315-26.7285L12.4385-26.7285ZM55.1196 0L57.7637 0L30.6382-70.459L29.4326-70.459L29.4326-67.1323Z"/>
  </g>
  <line id="Baseline-M" style="fill:none;stroke:#27AAE1;opacity:1;stroke-width:0.5;" x1="263" x2="3036" y1="1126" y2="1126"/>
  <line id="Capline-M" style="fill:none;stroke:#27AAE1;opacity:1;stroke-width:0.5;" x1="263" x2="3036" y1="1055.54" y2="1055.54"/>
  <g id="H-reference" style="fill:#27AAE1;stroke:none;" transform="matrix(1 0 0 1 339 1556)">
   <path d="M0.993654 0L3.63775 0L29.3281-67.1323L30.0303-67.1323L30.0303-70.459L28.1226-70.459ZM11.6885-24.4799L46.9815-24.4799L46.2315-26.7285L12.4385-26.7285ZM55.1196 0L57.7637 0L30.6382-70.459L29.4326-70.459L29.4326-67.1323Z"/>
  </g>
  <line id="Baseline-L" style="fill:none;stroke:#27AAE1;opacity:1;stroke-width:0.5;" x1="263" x2="3036" y1="1556" y2="1556"/>
  <line id="Capline-L" style="fill:none;stroke:#27AAE1;opacity:1;stroke-width:0.5;" x1="263" x2="3036" y1="1485.54" y2="1485.54"/>
  <line id="right-margin-Black-S" style="fill:none;stroke:#00AEEF;stroke-width:0.5;opacity:1.0;" x1="2982.23" x2="2982.23" y1="600.785" y2="720.121"/>
  <line id="left-margin-Black-S" style="fill:none;stroke:#00AEEF;stroke-width:0.5;opacity:1.0;" x1="2884.57" x2="2884.57" y1="600.785" y2="720.121"/>
  <line id="right-margin-Regular-S" style="fill:none;stroke:#00AEEF;stroke-width:0.5;opacity:1.0;" x1="1496.11" x2="1496.11" y1="600.785" y2="720.121"/>
  <line id="left-margin-Regular-S" style="fill:none;stroke:#00AEEF;stroke-width:0.5;opacity:1.0;" x1="1403.58" x2="1403.58" y1="600.785" y2="720.121"/>
  <line id="right-margin-Ultralight-S" style="fill:none;stroke:#00AEEF;stroke-width:0.5;opacity:1.0;" x1="603.773" x2="603.773" y1="600.785" y2="720.121"/>
  <line id="left-margin-Ultralight-S" style="fill:none;stroke:#00AEEF;stroke-width:0.5;opacity:1.0;" x1="515.649" x2="515.649" y1="600.785" y2="720.121"/>
 </g>
 <g id="Symbols">
  <g id="Black-S" transform="matrix(1 0 0 1 2884.57 696)">
   <path class="SFSymbolsPreviewWireframe" d="M48.8281 6.73828C72.0215 6.73828 90.8203-12.0605 90.8203-35.2539C90.8203-58.4473 72.0215-77.2461 48.8281-77.2461C25.6348-77.2461 6.83594-58.4473 6.83594-35.2539C6.83594-12.0605 25.6348 6.73828 48.8281 6.73828ZM60.4747-12.0464C58.9347-12.0464 57.6047-13.3064 57.6047-14.9164L57.6047-17.6464C57.6047-19.1864 58.8647-20.5164 60.4747-20.5164C62.0847-20.5164 63.3447-19.2564 63.3447-17.6464L63.3447-14.9164C63.2747-13.3064 62.0147-12.0464 60.4747-12.0464ZM37.8647-12.0464C36.3247-12.0464 34.9947-13.3064 34.9947-14.9164L34.9947-17.6464C34.9947-19.1864 36.2547-20.5164 37.8647-20.5164C39.4747-20.5164 40.7347-19.2564 40.7347-17.6464L40.7347-14.9164C40.7347-13.3064 39.4747-12.0464 37.8647-12.0464ZM64.2547-17.2964L34.4347-17.2964C31.6347-17.2964 29.2547-19.6064 29.2547-22.4764L30.1647-54.4664C30.1647-57.2664 32.4747-59.6464 35.3447-59.6464L63.4258-59.6464C66.2258-59.6464 68.6058-57.3364 68.6058-54.4664L69.5158-22.4764C69.4347-19.6764 67.0547-17.2964 64.2547-17.2964ZM63.4147-25.0664C63.4147-23.4564 62.0847-22.1264 60.4747-22.1264C58.8647-22.1264 57.5347-23.4564 57.5347-25.0664C57.5347-26.6764 58.8647-28.0064 60.4747-28.0064C62.0847-28.0064 63.4147-26.6764 63.4147-25.0664ZM40.8747-25.0664C40.8747-23.4564 39.5447-22.1264 37.9347-22.1264C36.3247-22.1264 34.9947-23.4564 34.9947-25.0664C34.9947-26.6764 36.3247-28.0064 37.9347-28.0064C39.5447-28.0064 40.8747-26.6764 40.8747-25.0664ZM61.8747-24.9964C61.8747-24.2264 61.1747-23.5264 60.4047-23.5264C59.6347-23.5264 58.9347-24.2264 58.9347-24.9964C58.9347-25.7664 59.6347-26.4664 60.4047-26.4664C61.1747-26.4664 61.8747-25.7664 61.8747-24.9964ZM37.8647-23.5964C37.0947-23.5964 36.3947-24.2264 36.3947-25.0664C36.3947-25.9064 37.0247-26.5364 37.8647-26.5364C38.6347-26.5364 39.3347-25.9064 39.3347-25.0664C39.4047-24.2264 38.7747-23.5964 37.8647-23.5964ZM47.2447-32.5564L34.0147-32.5564C33.3847-32.5564 32.8947-33.0464 32.8947-33.6764L33.1747-48.0964C33.1747-48.7264 33.6647-49.2164 34.2947-49.2164L47.2447-49.2164C47.8747-49.2164 48.3647-48.7264 48.3647-48.0964L48.3647-33.7464C48.3647-33.1864 47.9447-32.5564 47.2447-32.5564ZM51.3047-32.5564L64.5347-32.5564C65.1647-32.5564 65.6547-33.0464 65.6547-33.6764L65.3747-48.0964C65.3747-48.7264 64.8847-49.2164 64.2547-49.2164L51.3047-49.2164C50.6747-49.2164 50.1847-48.7264 50.1847-48.0964L50.1847-33.7464C50.1847-33.1864 50.6047-32.5564 51.3047-32.5564ZM65.5847-52.2264L32.8947-52.2264L32.8947-54.4664C32.8947-55.7264 33.8747-56.7064 35.1347-56.7064L63.3503-56.7064C64.6103-56.7064 65.5903-55.7264 65.5903-54.4664L65.5847-52.2264Z"/>
  </g>
  <g id="Regular-S" transform="matrix(1 0 0 1 1403.58 696)">
   <path class="SFSymbolsPreviewWireframe" d="M46.2402 4.15039C68.0176 4.15039 85.6934-13.5254 85.6934-35.2539C85.6934-56.9824 68.0176-74.6582 46.2402-74.6582C24.5117-74.6582 6.83594-56.9824 6.83594-35.2539C6.83594-13.5254 24.5117 4.15039 46.2402 4.15039ZM57.6591-11.4775C56.1191-11.4775 54.7891-12.7375 54.7891-14.3475L54.7891-17.0775C54.7891-18.6175 56.0491-19.9475 57.6591-19.9475C59.2691-19.9475 60.5291-18.6875 60.5291-17.0775L60.5291-14.3475C60.4591-12.7375 59.1991-11.4775 57.6591-11.4775ZM35.0491-11.4775C33.5091-11.4775 32.1791-12.7375 32.1791-14.3475L32.1791-17.0775C32.1791-18.6175 33.4391-19.9475 35.0491-19.9475C36.6591-19.9475 37.9191-18.6875 37.9191-17.0775L37.9191-14.3475C37.9191-12.7375 36.6591-11.4775 35.0491-11.4775ZM61.4391-16.7275L31.6191-16.7275C28.8191-16.7275 26.4391-19.0375 26.4391-21.9075L27.3491-53.8975C27.3491-56.6975 29.6591-59.0775 32.5291-59.0775L60.6051-59.0775C63.4051-59.0775 65.7851-56.7675 65.7851-53.8975L66.6951-21.9075C66.6191-19.1075 64.2391-16.7275 61.4391-16.7275ZM60.5991-24.4975C60.5991-22.8875 59.2691-21.5575 57.6591-21.5575C56.0491-21.5575 54.7191-22.8875 54.7191-24.4975C54.7191-26.1075 56.0491-27.4375 57.6591-27.4375C59.2691-27.4375 60.5991-26.1075 60.5991-24.4975ZM38.0591-24.4975C38.0591-22.8875 36.7291-21.5575 35.1191-21.5575C33.5091-21.5575 32.1791-22.8875 32.1791-24.4975C32.1791-26.1075 33.5091-27.4375 35.1191-27.4375C36.7291-27.4375 38.0591-26.1075 38.0591-24.4975ZM59.0591-24.4275C59.0591-23.6575 58.3591-22.9575 57.5891-22.9575C56.8191-22.9575 56.1191-23.6575 56.1191-24.4275C56.1191-25.1975 56.8191-25.8975 57.5891-25.8975C58.3591-25.8975 59.0591-25.1975 59.0591-24.4275ZM35.0491-23.0275C34.2791-23.0275 33.5791-23.6575 33.5791-24.4975C33.5791-25.3375 34.2091-25.9675 35.0491-25.9675C35.8191-25.9675 36.5191-25.3375 36.5191-24.4975C36.5891-23.6575 35.9591-23.0275 35.0491-23.0275ZM44.4291-31.9875L31.1991-31.9875C30.5691-31.9875 30.0791-32.4775 30.0791-33.1075L30.3591-47.5275C30.3591-48.1575 30.8491-48.6475 31.4791-48.6475L44.4291-48.6475C45.0591-48.6475 45.5491-48.1575 45.5491-47.5275L45.5491-33.1775C45.5491-32.6175 45.1291-31.9875 44.4291-31.9875ZM48.4891-31.9875L61.7191-31.9875C62.3491-31.9875 62.8391-32.4775 62.8391-33.1075L62.5591-47.5275C62.5591-48.1575 62.0691-48.6475 61.4391-48.6475L48.4891-48.6475C47.8591-48.6475 47.3691-48.1575 47.3691-47.5275L47.3691-33.1775C47.3691-32.6175 47.7891-31.9875 48.4891-31.9875ZM62.7691-51.6575L30.0791-51.6575L30.0791-53.8975C30.0791-55.1575 31.0591-56.1375 32.3191-56.1375L60.5321-56.1375C61.7921-56.1375 62.7721-55.1575 62.7721-53.8975L62.7691-51.6575Z"/>
  </g>
  <g id="Ultralight-S" transform="matrix(1 0 0 1 515.649 696)">
   <path class="SFSymbolsPreviewWireframe" d="M44.0606 1.97072C64.521 1.97072 81.2886-14.7969 81.2886-35.2539C81.2886-55.7109 64.521-72.4785 44.0606-72.4785C23.6035-72.4785 6.83594-55.7109 6.83594-35.2539C6.83594-14.7969 23.6035 1.97072 44.0606 1.97072ZM55.4492-11.2688C53.9092-11.2688 52.5792-12.5288 52.5792-14.1388L52.5792-16.8688C52.5792-18.4088 53.8392-19.7388 55.4492-19.7388C57.0592-19.7388 58.3192-18.4788 58.3192-16.8688L58.3192-14.1388C58.2492-12.5288 56.9892-11.2688 55.4492-11.2688ZM32.8392-11.2688C31.2992-11.2688 29.9692-12.5288 29.9692-14.1388L29.9692-16.8688C29.9692-18.4088 31.2292-19.7388 32.8392-19.7388C34.4492-19.7388 35.7092-18.4788 35.7092-16.8688L35.7092-14.1388C35.7092-12.5288 34.4492-11.2688 32.8392-11.2688ZM59.2292-16.5188L29.4092-16.5188C26.6092-16.5188 24.2292-18.8288 24.2292-21.6988L25.1392-53.6888C25.1392-56.4888 27.4492-58.8688 30.3192-58.8688L58.28-58.8688C61.08-58.8688 63.46-56.5588 63.46-53.6888L64.37-21.6988C64.4092-18.8988 62.0292-16.5188 59.2292-16.5188ZM58.3892-24.2888C58.3892-22.6788 57.0592-21.3488 55.4492-21.3488C53.8392-21.3488 52.5092-22.6788 52.5092-24.2888C52.5092-25.8988 53.8392-27.2288 55.4492-27.2288C57.0592-27.2288 58.3892-25.8988 58.3892-24.2888ZM35.8492-24.2888C35.8492-22.6788 34.5192-21.3488 32.9092-21.3488C31.2992-21.3488 29.9692-22.6788 29.9692-24.2888C29.9692-25.8988 31.2992-27.2288 32.9092-27.2288C34.5192-27.2288 35.8492-25.8988 35.8492-24.2888ZM56.8492-24.2188C56.8492-23.4488 56.1492-22.7488 55.3792-22.7488C54.6092-22.7488 53.9092-23.4488 53.9092-24.2188C53.9092-24.9888 54.6092-25.6888 55.3792-25.6888C56.1492-25.6888 56.8492-24.9888 56.8492-24.2188ZM32.8392-22.8188C32.0692-22.8188 31.3692-23.4488 31.3692-24.2888C31.3692-25.1288 31.9992-25.7588 32.8392-25.7588C33.6092-25.7588 34.3092-25.1288 34.3092-24.2888C34.3792-23.4488 33.7492-22.8188 32.8392-22.8188ZM42.2192-31.7788L28.9892-31.7788C28.3592-31.7788 27.8692-32.2688 27.8692-32.8988L28.1492-47.3188C28.1492-47.9488 28.6392-48.4388 29.2692-48.4388L42.2192-48.4388C42.8492-48.4388 43.3392-47.9488 43.3392-47.3188L43.3392-32.9688C43.3392-32.4088 42.9192-31.7788 42.2192-31.7788ZM46.2792-31.7788L59.5092-31.7788C60.1392-31.7788 60.6292-32.2688 60.6292-32.8988L60.3492-47.3188C60.3492-47.9488 59.8592-48.4388 59.2292-48.4388L46.2792-48.4388C45.6492-48.4388 45.1592-47.9488 45.1592-47.3188L45.1592-32.9688C45.1592-32.4088 45.5792-31.7788 46.2792-31.7788ZM60.5592-51.4488L27.8692-51.4488L27.8692-53.6888C27.8692-54.9488 28.8492-55.9288 30.1092-55.9288L58.2646-55.9288C59.5246-55.9288 60.5046-54.9488 60.5046-53.6888L60.5592-51.4488Z"/>
  </g>
 </g>
 <g id="LayerTree">
  <g class="monochrome-0 multicolor-0:custom hierarchical-0:tertiary"/>
  <g class="monochrome-1 multicolor-1:white hierarchical-1:primary">
   <g class="shapeGroupLayer-0"/>
   <g class="shapeGroupLayer-1"/>
   <g class="shapeGroupLayer-2"/>
   <g class="shapeGroupLayer-3"/>
   <g class="shapeGroupLayer-4"/>
   <g class="shapeGroupLayer-5"/>
  </g>
 </g>
</svg>
