<?xml version="1.0" encoding="UTF-8"?>
<!--Generator: Apple Native CoreSVG 341-->
<!DOCTYPE svg
PUBLIC "-//W3C//DTD SVG 1.1//EN"
       "http://www.w3.org/Graphics/SVG/1.1/DTD/svg11.dtd">
<svg version="1.1" xmlns="http://www.w3.org/2000/svg" xmlns:xlink="http://www.w3.org/1999/xlink" viewBox="0 0 3300 2200">
 <!--glyph: "", point size: 100.0, font version: "20.0d10e1", template writer version: "138.0.0"-->
 <style>.monochrome-0 {-sfsymbols-motion-group:1;-sfsymbols-indices:0;-sfsymbols-layer-tags:7b31cb8579030193 circle.fill}
.monochrome-1 {opacity:0.0;-sfsymbols-clear-behind:true;-sfsymbols-motion-group:0;-sfsymbols-always-pulses:true;-sfsymbols-layer-tags:7b31cb8579030193}

.multicolor-0:custom {fill:#78BE20;-sfsymbols-motion-group:1;-sfsymbols-indices:0;-sfsymbols-layer-tags:7b31cb8579030193 circle.fill}
.multicolor-1:white {-sfsymbols-motion-group:0;-sfsymbols-always-pulses:true;-sfsymbols-layer-tags:7b31cb8579030193}

.hierarchical-0:tertiary {-sfsymbols-motion-group:1;-sfsymbols-indices:0;-sfsymbols-layer-tags:7b31cb8579030193 circle.fill}
.hierarchical-1:primary {-sfsymbols-motion-group:0;-sfsymbols-layer-tags:7b31cb8579030193}

.shapeGroupLayer-0 {-sfsymbols-fill-action:draw;-sfsymbols-indices:10 11}
.shapeGroupLayer-1 {-sfsymbols-fill-action:draw;-sfsymbols-indices:5 8}
.shapeGroupLayer-2 {-sfsymbols-fill-action:draw;-sfsymbols-indices:13}
.shapeGroupLayer-3 {-sfsymbols-fill-action:erase;-sfsymbols-indices:14}
.shapeGroupLayer-4 {-sfsymbols-fill-action:draw;-sfsymbols-indices:9}
.shapeGroupLayer-5 {-sfsymbols-fill-action:draw;-sfsymbols-indices:1}
.shapeGroupLayer-6 {-sfsymbols-fill-action:erase;-sfsymbols-indices:6 7}
.shapeGroupLayer-7 {-sfsymbols-fill-action:erase;-sfsymbols-indices:2}
.shapeGroupLayer-8 {-sfsymbols-fill-action:draw;-sfsymbols-indices:3}
.shapeGroupLayer-9 {-sfsymbols-fill-action:erase;-sfsymbols-indices:4 12}

.SFSymbolsPreviewWireframe {fill:none;opacity:1.0;stroke:black;stroke-width:0.5}
</style>
 <g id="Notes">
  <rect height="2200" id="artboard" style="fill:white;opacity:1" width="3300" x="0" y="0"/>
  <line style="fill:none;stroke:black;opacity:1;stroke-width:0.5;" x1="263" x2="3036" y1="292" y2="292"/>
  <text style="stroke:none;fill:black;font-family:sans-serif;font-size:13;font-weight:bold;" transform="matrix(1 0 0 1 263 322)">Weight/Scale Variations</text>
  <text style="stroke:none;fill:black;font-family:sans-serif;font-size:13;text-anchor:middle;" transform="matrix(1 0 0 1 559.711 322)">Ultralight</text>
  <text style="stroke:none;fill:black;font-family:sans-serif;font-size:13;text-anchor:middle;" transform="matrix(1 0 0 1 856.422 322)">Thin</text>
  <text style="stroke:none;fill:black;font-family:sans-serif;font-size:13;text-anchor:middle;" transform="matrix(1 0 0 1 1153.13 322)">Light</text>
  <text style="stroke:none;fill:black;font-family:sans-serif;font-size:13;text-anchor:middle;" transform="matrix(1 0 0 1 1449.84 322)">Regular</text>
  <text style="stroke:none;fill:black;font-family:sans-serif;font-size:13;text-anchor:middle;" transform="matrix(1 0 0 1 1746.56 322)">Medium</text>
  <text style="stroke:none;fill:black;font-family:sans-serif;font-size:13;text-anchor:middle;" transform="matrix(1 0 0 1 2043.27 322)">Semibold</text>
  <text style="stroke:none;fill:black;font-family:sans-serif;font-size:13;text-anchor:middle;" transform="matrix(1 0 0 1 2339.98 322)">Bold</text>
  <text style="stroke:none;fill:black;font-family:sans-serif;font-size:13;text-anchor:middle;" transform="matrix(1 0 0 1 2636.69 322)">Heavy</text>
  <text style="stroke:none;fill:black;font-family:sans-serif;font-size:13;text-anchor:middle;" transform="matrix(1 0 0 1 2933.4 322)">Black</text>
  <line style="fill:none;stroke:black;opacity:1;stroke-width:0.5;" x1="263" x2="3036" y1="1903" y2="1903"/>
  <g transform="matrix(0.2 0 0 0.2 263 1933)">
   <path d="m46.2402 4.15039c21.7773 0 39.4531-17.627 39.4531-39.4043s-17.6758-39.4043-39.4531-39.4043c-21.7285 0-39.4043 17.627-39.4043 39.4043s17.6758 39.4043 39.4043 39.4043Zm0-7.42188c-17.6758 0-31.9336-14.3066-31.9336-31.9824s14.2578-31.9824 31.9336-31.9824 31.9824 14.3066 31.9824 31.9824-14.3066 31.9824-31.9824 31.9824Zm-17.9688-31.9824c0 2.14844 1.51367 3.61328 3.75977 3.61328h10.498v10.5957c0 2.19727 1.46484 3.71094 3.61328 3.71094 2.24609 0 3.71094-1.51367 3.71094-3.71094v-10.5957h10.5957c2.19727 0 3.71094-1.46484 3.71094-3.61328 0-2.19727-1.51367-3.71094-3.71094-3.71094h-10.5957v-10.5469c0-2.24609-1.46484-3.75977-3.71094-3.75977-2.14844 0-3.61328 1.51367-3.61328 3.75977v10.5469h-10.498c-2.24609 0-3.75977 1.51367-3.75977 3.71094Z"/>
  </g>
  <g transform="matrix(0.2 0 0 0.2 281.506 1933)">
   <path d="m58.5449 14.5508c27.4902 0 49.8047-22.3145 49.8047-49.8047s-22.3145-49.8047-49.8047-49.8047-49.8047 22.3145-49.8047 49.8047 22.3145 49.8047 49.8047 49.8047Zm0-8.30078c-22.9492 0-41.5039-18.5547-41.5039-41.5039s18.5547-41.5039 41.5039-41.5039 41.5039 18.5547 41.5039 41.5039-18.5547 41.5039-41.5039 41.5039Zm-22.6562-41.5039c0 2.39258 1.66016 4.00391 4.15039 4.00391h14.3555v14.4043c0 2.44141 1.66016 4.15039 4.05273 4.15039 2.44141 0 4.15039-1.66016 4.15039-4.15039v-14.4043h14.4043c2.44141 0 4.15039-1.61133 4.15039-4.00391 0-2.44141-1.70898-4.15039-4.15039-4.15039h-14.4043v-14.3555c0-2.49023-1.70898-4.19922-4.15039-4.19922-2.39258 0-4.05273 1.70898-4.05273 4.19922v14.3555h-14.3555c-2.49023 0-4.15039 1.70898-4.15039 4.15039Z"/>
  </g>
  <g transform="matrix(0.2 0 0 0.2 304.924 1933)">
   <path d="m74.8535 28.3203c35.1074 0 63.623-28.4668 63.623-63.5742s-28.5156-63.623-63.623-63.623-63.5742 28.5156-63.5742 63.623 28.4668 63.5742 63.5742 63.5742Zm0-9.08203c-30.127 0-54.4922-24.3652-54.4922-54.4922s24.3652-54.4922 54.4922-54.4922 54.4922 24.3652 54.4922 54.4922-24.3652 54.4922-54.4922 54.4922Zm-28.8574-54.4922c0 2.58789 1.85547 4.39453 4.58984 4.39453h19.7266v19.7754c0 2.68555 1.85547 4.58984 4.44336 4.58984 2.68555 0 4.54102-1.85547 4.54102-4.58984v-19.7754h19.7754c2.68555 0 4.58984-1.80664 4.58984-4.39453 0-2.73438-1.85547-4.58984-4.58984-4.58984h-19.7754v-19.7266c0-2.73438-1.85547-4.63867-4.54102-4.63867-2.58789 0-4.44336 1.9043-4.44336 4.63867v19.7266h-19.7266c-2.73438 0-4.58984 1.85547-4.58984 4.58984Z"/>
  </g>
  <text style="stroke:none;fill:black;font-family:sans-serif;font-size:13;font-weight:bold;" transform="matrix(1 0 0 1 263 1953)">Design Variations</text>
  <text style="stroke:none;fill:black;font-family:sans-serif;font-size:13;" transform="matrix(1 0 0 1 263 1971)">Symbols are supported in up to nine weights and three scales.</text>
  <text style="stroke:none;fill:black;font-family:sans-serif;font-size:13;" transform="matrix(1 0 0 1 263 1989)">For optimal layout with text and other symbols, vertically align</text>
  <text style="stroke:none;fill:black;font-family:sans-serif;font-size:13;" transform="matrix(1 0 0 1 263 2007)">symbols with the adjacent text.</text>
  <line style="fill:none;stroke:#00AEEF;stroke-width:0.5;opacity:1.0;" x1="776" x2="776" y1="1919" y2="1933"/>
  <g transform="matrix(0.2 0 0 0.2 776 1933)">
   <path d="m16.5527 0.78125c2.58789 0 3.85742-0.976562 4.78516-3.71094l6.29883-17.2363h28.8086l6.29883 17.2363c0.927734 2.73438 2.19727 3.71094 4.73633 3.71094 2.58789 0 4.24805-1.5625 4.24805-4.00391 0-0.830078-0.146484-1.61133-0.537109-2.63672l-22.9004-60.9863c-1.12305-2.97852-3.125-4.49219-6.25-4.49219-3.02734 0-5.07812 1.46484-6.15234 4.44336l-22.9004 61.084c-0.390625 1.02539-0.537109 1.80664-0.537109 2.63672 0 2.44141 1.5625 3.95508 4.10156 3.95508Zm13.4766-28.3691 11.8652-32.8613h0.244141l11.8652 32.8613Z"/>
  </g>
  <line style="fill:none;stroke:#00AEEF;stroke-width:0.5;opacity:1.0;" x1="792.836" x2="792.836" y1="1919" y2="1933"/>
  <text style="stroke:none;fill:black;font-family:sans-serif;font-size:13;font-weight:bold;" transform="matrix(1 0 0 1 776 1953)">Margins</text>
  <text style="stroke:none;fill:black;font-family:sans-serif;font-size:13;" transform="matrix(1 0 0 1 776 1971)">Leading and trailing margins on the left and right side of each symbol</text>
  <text style="stroke:none;fill:black;font-family:sans-serif;font-size:13;" transform="matrix(1 0 0 1 776 1989)">can be adjusted by modifying the x-location of the margin guidelines.</text>
  <text style="stroke:none;fill:black;font-family:sans-serif;font-size:13;" transform="matrix(1 0 0 1 776 2007)">Modifications are automatically applied proportionally to all</text>
  <text style="stroke:none;fill:black;font-family:sans-serif;font-size:13;" transform="matrix(1 0 0 1 776 2025)">scales and weights.</text>
  <g transform="matrix(0.2 0 0 0.2 1289 1933)">
   <path d="m14.209 9.32617 8.49609 8.54492c4.29688 4.3457 9.22852 4.05273 13.8672-1.07422l53.4668-58.9355-4.83398-4.88281-53.0762 58.3984c-1.75781 2.00195-3.41797 2.49023-5.76172 0.146484l-5.85938-5.81055c-2.34375-2.29492-1.80664-4.00391 0.195312-5.81055l57.373-54.0039-4.88281-4.83398-57.959 54.4434c-4.93164 4.58984-5.32227 9.47266-1.02539 13.8184Zm32.0801-90.9668c-2.09961 2.05078-2.24609 4.93164-1.07422 6.88477 1.17188 1.80664 3.4668 2.97852 6.68945 2.14844 7.32422-1.70898 14.9414-2.00195 22.0703 2.68555l-2.92969 7.27539c-1.70898 4.15039-0.830078 7.08008 1.85547 9.81445l11.4746 11.5723c2.44141 2.44141 4.49219 2.53906 7.32422 2.05078l5.32227-0.976562 3.32031 3.36914-0.195312 2.7832c-0.195312 2.49023 0.439453 4.39453 2.88086 6.78711l3.80859 3.71094c2.39258 2.39258 5.46875 2.53906 7.8125 0.195312l14.5508-14.5996c2.34375-2.34375 2.24609-5.32227-0.146484-7.71484l-3.85742-3.80859c-2.39258-2.39258-4.24805-3.17383-6.64062-2.97852l-2.88086 0.244141-3.22266-3.17383 1.2207-5.61523c0.634766-2.83203-0.146484-5.0293-3.07617-7.95898l-10.9863-10.9375c-16.6992-16.6016-38.8672-16.2109-53.3203-1.75781Zm7.4707 1.85547c12.1582-8.88672 28.6133-7.37305 39.7461 3.75977l12.1582 12.0605c1.17188 1.17188 1.36719 2.09961 1.02539 3.80859l-1.61133 7.42188 7.51953 7.42188 4.93164-0.292969c1.26953-0.0488281 1.66016 0.0488281 2.63672 1.02539l2.88086 2.88086-12.207 12.207-2.88086-2.88086c-0.976562-0.976562-1.12305-1.36719-1.07422-2.68555l0.341797-4.88281-7.4707-7.42188-7.61719 1.26953c-1.61133 0.341797-2.34375 0.195312-3.56445-0.976562l-10.0098-10.0098c-1.26953-1.17188-1.41602-2.00195-0.634766-3.85742l4.39453-10.4492c-7.8125-7.27539-17.9688-10.4004-28.125-7.42188-0.78125 0.195312-1.07422-0.439453-0.439453-0.976562Z"/>
  </g>
  <text style="stroke:none;fill:black;font-family:sans-serif;font-size:13;font-weight:bold;" transform="matrix(1 0 0 1 1289 1953)">Exporting</text>
  <text style="stroke:none;fill:black;font-family:sans-serif;font-size:13;" transform="matrix(1 0 0 1 1289 1971)">Symbols should be outlined when exporting to ensure the</text>
  <text style="stroke:none;fill:black;font-family:sans-serif;font-size:13;" transform="matrix(1 0 0 1 1289 1989)">design is preserved when submitting to Xcode.</text>
  <text id="template-version" style="stroke:none;fill:black;font-family:sans-serif;font-size:13;text-anchor:end;" transform="matrix(1 0 0 1 3036 1933)">Template v.6.0</text>
  <text style="stroke:none;fill:black;font-family:sans-serif;font-size:13;text-anchor:end;" transform="matrix(1 0 0 1 3036 1951)">Requires Xcode 16 or greater</text>
  <text id="descriptive-name" style="stroke:none;fill:black;font-family:sans-serif;font-size:13;text-anchor:end;" transform="matrix(1 0 0 1 3036 1969)">Generated from circle.fill</text>
  <text style="stroke:none;fill:black;font-family:sans-serif;font-size:13;text-anchor:end;" transform="matrix(1 0 0 1 3036 1987)">Typeset at 100.0 points</text>
  <text style="stroke:none;fill:black;font-family:sans-serif;font-size:13;" transform="matrix(1 0 0 1 263 726)">Small</text>
  <text style="stroke:none;fill:black;font-family:sans-serif;font-size:13;" transform="matrix(1 0 0 1 263 1156)">Medium</text>
  <text style="stroke:none;fill:black;font-family:sans-serif;font-size:13;" transform="matrix(1 0 0 1 263 1586)">Large</text>
 </g>
 <g id="Guides">
  <g id="H-reference" style="fill:#27AAE1;stroke:none;" transform="matrix(1 0 0 1 339 696)">
   <path d="M0.993654 0L3.63775 0L29.3281-67.1323L30.0303-67.1323L30.0303-70.459L28.1226-70.459ZM11.6885-24.4799L46.9815-24.4799L46.2315-26.7285L12.4385-26.7285ZM55.1196 0L57.7637 0L30.6382-70.459L29.4326-70.459L29.4326-67.1323Z"/>
  </g>
  <line id="Baseline-S" style="fill:none;stroke:#27AAE1;opacity:1;stroke-width:0.5;" x1="263" x2="3036" y1="696" y2="696"/>
  <line id="Capline-S" style="fill:none;stroke:#27AAE1;opacity:1;stroke-width:0.5;" x1="263" x2="3036" y1="625.541" y2="625.541"/>
  <g id="H-reference" style="fill:#27AAE1;stroke:none;" transform="matrix(1 0 0 1 339 1126)">
   <path d="M0.993654 0L3.63775 0L29.3281-67.1323L30.0303-67.1323L30.0303-70.459L28.1226-70.459ZM11.6885-24.4799L46.9815-24.4799L46.2315-26.7285L12.4385-26.7285ZM55.1196 0L57.7637 0L30.6382-70.459L29.4326-70.459L29.4326-67.1323Z"/>
  </g>
  <line id="Baseline-M" style="fill:none;stroke:#27AAE1;opacity:1;stroke-width:0.5;" x1="263" x2="3036" y1="1126" y2="1126"/>
  <line id="Capline-M" style="fill:none;stroke:#27AAE1;opacity:1;stroke-width:0.5;" x1="263" x2="3036" y1="1055.54" y2="1055.54"/>
  <g id="H-reference" style="fill:#27AAE1;stroke:none;" transform="matrix(1 0 0 1 339 1556)">
   <path d="M0.993654 0L3.63775 0L29.3281-67.1323L30.0303-67.1323L30.0303-70.459L28.1226-70.459ZM11.6885-24.4799L46.9815-24.4799L46.2315-26.7285L12.4385-26.7285ZM55.1196 0L57.7637 0L30.6382-70.459L29.4326-70.459L29.4326-67.1323Z"/>
  </g>
  <line id="Baseline-L" style="fill:none;stroke:#27AAE1;opacity:1;stroke-width:0.5;" x1="263" x2="3036" y1="1556" y2="1556"/>
  <line id="Capline-L" style="fill:none;stroke:#27AAE1;opacity:1;stroke-width:0.5;" x1="263" x2="3036" y1="1485.54" y2="1485.54"/>
  <line id="right-margin-Black-S" style="fill:none;stroke:#00AEEF;stroke-width:0.5;opacity:1.0;" x1="2982.23" x2="2982.23" y1="600.785" y2="720.121"/>
  <line id="left-margin-Black-S" style="fill:none;stroke:#00AEEF;stroke-width:0.5;opacity:1.0;" x1="2884.57" x2="2884.57" y1="600.785" y2="720.121"/>
  <line id="right-margin-Regular-S" style="fill:none;stroke:#00AEEF;stroke-width:0.5;opacity:1.0;" x1="1496.11" x2="1496.11" y1="600.785" y2="720.121"/>
  <line id="left-margin-Regular-S" style="fill:none;stroke:#00AEEF;stroke-width:0.5;opacity:1.0;" x1="1403.58" x2="1403.58" y1="600.785" y2="720.121"/>
  <line id="right-margin-Ultralight-S" style="fill:none;stroke:#00AEEF;stroke-width:0.5;opacity:1.0;" x1="603.773" x2="603.773" y1="600.785" y2="720.121"/>
  <line id="left-margin-Ultralight-S" style="fill:none;stroke:#00AEEF;stroke-width:0.5;opacity:1.0;" x1="515.649" x2="515.649" y1="600.785" y2="720.121"/>
 </g>
 <g id="Symbols">
  <g id="Black-S" transform="matrix(1 0 0 1 2884.57 696)">
   <path class="SFSymbolsPreviewWireframe" d="M48.8281 6.73828C72.0215 6.73828 90.8203-12.0605 90.8203-35.2539C90.8203-58.4473 72.0215-77.2461 48.8281-77.2461C25.6348-77.2461 6.83594-58.4473 6.83594-35.2539C6.83594-12.0605 25.6348 6.73828 48.8281 6.73828ZM63.0332-14.5608L33.5132-14.5608C31.0332-14.5608 29.1132-16.5608 29.1132-18.9608L30.2332-47.1208C30.2332-57.1208 30.7132-57.1208 39.1132-57.1208L57.5932-57.1208C66.3132-57.1208 66.4732-57.1208 66.4732-47.1208L67.5932-18.9608C67.4332-16.5608 65.4332-14.5608 63.0332-14.5608ZM59.2732-25.2808L37.1932-25.2808C35.3532-25.2808 33.9132-26.4808 33.9132-28.0008L34.7132-45.5208C34.7132-51.7608 35.0332-51.7608 41.3532-51.7608L55.1132-51.7608C61.5932-51.7608 61.7532-51.7608 61.7532-45.5208L62.5532-28.0008C62.5532-26.4808 61.1132-25.2808 59.2732-25.2808ZM57.0332-27.9208L39.4332-27.9208C37.9932-27.9208 36.7932-28.8808 36.7932-30.1608L37.4332-44.1608C37.4332-49.1208 37.6732-49.1208 42.7132-49.1208L53.6732-49.1208C58.8732-49.1208 58.9532-49.1208 58.9532-44.1608L59.5932-30.1608C59.6732-28.9608 58.4732-27.9208 57.0332-27.9208ZM42.5532-40.0808L42.5532-40.0808C42.9532-40.0008 43.2732-39.6808 43.1932-39.2808L42.1532-30.3208C42.0732-29.9208 41.7532-29.6008 41.3532-29.6808L41.3532-29.6808C40.9532-29.7608 40.6332-30.0808 40.7132-30.4808L41.7532-39.4408C41.7532-39.8408 42.1532-40.0808 42.5532-40.0808ZM38.6332-16.1608L38.6332-16.1608C39.0332-16.1608 39.3532-15.8408 39.3532-15.4408L39.3532-12.7208C39.3532-12.3208 39.0332-12.0008 38.6332-12.0008L38.6332-12.0008C38.2332-12.0008 37.9132-12.3208 37.9132-12.7208L37.9132-15.4408C37.9132-15.7608 38.2332-16.1608 38.6332-16.1608ZM33.6732-21.2808L33.6732-21.2808C33.6732-22.1608 34.3932-22.8808 35.2732-22.8808L40.7132-22.8808C41.5932-22.8808 42.3132-22.1608 42.3132-21.2808L42.3132-21.2808C42.3132-20.4008 41.5932-19.6808 40.7132-19.6808L35.2732-19.6808C34.3932-19.6808 33.6732-20.4008 33.6732-21.2808ZM53.5932-21.2808L53.5932-21.2808C53.5932-22.1608 54.3132-22.8808 55.1932-22.8808L60.6332-22.8808C61.5132-22.8808 62.2332-22.1608 62.2332-21.2808L62.2332-21.2808C62.2332-20.4008 61.5132-19.6808 60.6332-19.6808L55.1932-19.6808C54.3132-19.6808 53.5932-20.4008 53.5932-21.2808ZM57.5132-16.1608L57.5132-16.1608C57.9132-16.1608 58.2332-15.8408 58.2332-15.4408L58.2332-12.7208C58.2332-12.3208 57.9132-12.0008 57.5132-12.0008L57.5132-12.0008C57.1132-12.0008 56.7932-12.3208 56.7932-12.7208L56.7932-15.4408C56.7132-15.7608 57.1132-16.1608 57.5132-16.1608ZM47.5132-61.9208L47.5132-61.9208C47.8332-61.9208 48.0732-61.6808 48.0732-61.3608L48.0732-56.8808C48.0732-56.5608 47.8332-56.3208 47.5132-56.3208L47.5132-56.3208C47.1932-56.3208 46.9532-56.5608 46.9532-56.8808L46.9532-61.3608C46.9532-61.6808 47.1932-61.9208 47.5132-61.9208ZM57.0332-13.1208L57.0332-13.1208C57.3532-13.4408 57.8332-13.4408 58.0732-13.1208L60.7932-10.4008C61.1132-10.0808 61.1132-9.6008 60.7932-9.3608L60.7932-9.3608C60.4732-9.0408 59.9932-9.0408 59.7532-9.3608L57.0332-12.0808C56.7132-12.3208 56.7132-12.8008 57.0332-13.1208ZM39.1932-13.1208L39.1932-13.1208C39.5132-12.8008 39.5132-12.3208 39.1932-12.0808L36.4732-9.3608C36.1532-9.0408 35.6732-9.0408 35.4332-9.3608L35.4332-9.3608C35.1132-9.6808 35.1132-10.1608 35.4332-10.4008L38.1532-13.1208C38.3932-13.3608 38.8732-13.3608 39.1932-13.1208ZM47.1932-26.9608L47.1932-26.9608C46.8732-26.7208 46.3932-26.8008 46.1532-27.1208L41.4332-33.8408C41.1932-34.1608 41.2732-34.6408 41.5932-34.8808L41.5932-34.8808C41.9132-35.1208 42.3932-35.0408 42.6332-34.7208L47.3532-28.0008C47.5932-27.6808 47.5132-27.2008 47.1932-26.9608ZM36.3932-62.1608L58.4732-62.1608C60.0732-62.1608 61.3532-60.8808 61.3532-59.2808L61.3532-59.2808C61.3532-58.7208 60.9532-58.3208 60.3932-58.3208L34.4732-58.3208C33.9132-58.3208 33.5132-58.7208 33.5132-59.2808L33.5132-59.2808C33.5132-60.8008 34.7932-62.1608 36.3932-62.1608ZM36.7932-60.7208L57.9932-60.7208C59.0332-60.7208 59.9132-59.8408 59.9132-58.8008L59.9132-56.8808L34.8732-56.8808L34.8732-58.8008C34.9532-59.8408 35.7532-60.7208 36.7932-60.7208Z"/>
  </g>
  <g id="Regular-S" transform="matrix(1 0 0 1 1403.58 696)">
   <path class="SFSymbolsPreviewWireframe" d="M46.2402 4.15039C68.0176 4.15039 85.6934-13.5254 85.6934-35.2539C85.6934-56.9824 68.0176-74.6582 46.2402-74.6582C24.5117-74.6582 6.83594-56.9824 6.83594-35.2539C6.83594-13.5254 24.5117 4.15039 46.2402 4.15039ZM60.7307-14.5608L31.2107-14.5608C28.7307-14.5608 26.8107-16.5608 26.8107-18.9608L27.9307-47.1208C27.9307-57.1208 28.4107-57.1208 36.8107-57.1208L55.2907-57.1208C64.0107-57.1208 64.1707-57.1208 64.1707-47.1208L65.2907-18.9608C65.1307-16.5608 63.1307-14.5608 60.7307-14.5608ZM56.9707-25.2808L34.8907-25.2808C33.0507-25.2808 31.6107-26.4808 31.6107-28.0008L32.4107-45.5208C32.4107-51.7608 32.7307-51.7608 39.0507-51.7608L52.8107-51.7608C59.2907-51.7608 59.4507-51.7608 59.4507-45.5208L60.2507-28.0008C60.2507-26.4808 58.8107-25.2808 56.9707-25.2808ZM54.7307-27.9208L37.1307-27.9208C35.6907-27.9208 34.4907-28.8808 34.4907-30.1608L35.1307-44.1608C35.1307-49.1208 35.3707-49.1208 40.4107-49.1208L51.3707-49.1208C56.5707-49.1208 56.6507-49.1208 56.6507-44.1608L57.2907-30.1608C57.3707-28.9608 56.1707-27.9208 54.7307-27.9208ZM40.2507-40.0808L40.2507-40.0808C40.6507-40.0008 40.9707-39.6808 40.8907-39.2808L39.8507-30.3208C39.7707-29.9208 39.4507-29.6008 39.0507-29.6808L39.0507-29.6808C38.6507-29.7608 38.3307-30.0808 38.4107-30.4808L39.4507-39.4408C39.4507-39.8408 39.8507-40.0808 40.2507-40.0808ZM36.3307-16.1608L36.3307-16.1608C36.7307-16.1608 37.0507-15.8408 37.0507-15.4408L37.0507-12.7208C37.0507-12.3208 36.7307-12.0008 36.3307-12.0008L36.3307-12.0008C35.9307-12.0008 35.6107-12.3208 35.6107-12.7208L35.6107-15.4408C35.6107-15.7608 35.9307-16.1608 36.3307-16.1608ZM31.3707-21.2808L31.3707-21.2808C31.3707-22.1608 32.0907-22.8808 32.9707-22.8808L38.4107-22.8808C39.2907-22.8808 40.0107-22.1608 40.0107-21.2808L40.0107-21.2808C40.0107-20.4008 39.2907-19.6808 38.4107-19.6808L32.9707-19.6808C32.0907-19.6808 31.3707-20.4008 31.3707-21.2808ZM51.2907-21.2808L51.2907-21.2808C51.2907-22.1608 52.0107-22.8808 52.8907-22.8808L58.3307-22.8808C59.2107-22.8808 59.9307-22.1608 59.9307-21.2808L59.9307-21.2808C59.9307-20.4008 59.2107-19.6808 58.3307-19.6808L52.8907-19.6808C52.0107-19.6808 51.2907-20.4008 51.2907-21.2808ZM55.2107-16.1608L55.2107-16.1608C55.6107-16.1608 55.9307-15.8408 55.9307-15.4408L55.9307-12.7208C55.9307-12.3208 55.6107-12.0008 55.2107-12.0008L55.2107-12.0008C54.8107-12.0008 54.4907-12.3208 54.4907-12.7208L54.4907-15.4408C54.4107-15.7608 54.8107-16.1608 55.2107-16.1608ZM45.2107-61.9208L45.2107-61.9208C45.5307-61.9208 45.7707-61.6808 45.7707-61.3608L45.7707-56.8808C45.7707-56.5608 45.5307-56.3208 45.2107-56.3208L45.2107-56.3208C44.8907-56.3208 44.6507-56.5608 44.6507-56.8808L44.6507-61.3608C44.6507-61.6808 44.8907-61.9208 45.2107-61.9208ZM54.7307-13.1208L54.7307-13.1208C55.0507-13.4408 55.5307-13.4408 55.7707-13.1208L58.4907-10.4008C58.8107-10.0808 58.8107-9.6008 58.4907-9.3608L58.4907-9.3608C58.1707-9.0408 57.6907-9.0408 57.4507-9.3608L54.7307-12.0808C54.4107-12.3208 54.4107-12.8008 54.7307-13.1208ZM36.8907-13.1208L36.8907-13.1208C37.2107-12.8008 37.2107-12.3208 36.8907-12.0808L34.1707-9.3608C33.8507-9.0408 33.3707-9.0408 33.1307-9.3608L33.1307-9.3608C32.8107-9.6808 32.8107-10.1608 33.1307-10.4008L35.8507-13.1208C36.0907-13.3608 36.5707-13.3608 36.8907-13.1208ZM44.8907-26.9608L44.8907-26.9608C44.5707-26.7208 44.0907-26.8008 43.8507-27.1208L39.1307-33.8408C38.8907-34.1608 38.9707-34.6408 39.2907-34.8808L39.2907-34.8808C39.6107-35.1208 40.0907-35.0408 40.3307-34.7208L45.0507-28.0008C45.2907-27.6808 45.2107-27.2008 44.8907-26.9608ZM34.0907-62.1608L56.1707-62.1608C57.7707-62.1608 59.0507-60.8808 59.0507-59.2808L59.0507-59.2808C59.0507-58.7208 58.6507-58.3208 58.0907-58.3208L32.1707-58.3208C31.6107-58.3208 31.2107-58.7208 31.2107-59.2808L31.2107-59.2808C31.2107-60.8008 32.4907-62.1608 34.0907-62.1608ZM34.4907-60.7208L55.6907-60.7208C56.7307-60.7208 57.6107-59.8408 57.6107-58.8008L57.6107-56.8808L32.5707-56.8808L32.5707-58.8008C32.6507-59.8408 33.4507-60.7208 34.4907-60.7208Z"/>
  </g>
  <g id="Ultralight-S" transform="matrix(1 0 0 1 515.649 696)">
   <path class="SFSymbolsPreviewWireframe" d="M44.0606 1.97072C64.521 1.97072 81.2886-14.7969 81.2886-35.2539C81.2886-55.7109 64.521-72.4785 44.0606-72.4785C23.6035-72.4785 6.83594-55.7109 6.83594-35.2539C6.83594-14.7969 23.6035 1.97072 44.0606 1.97072ZM58.701-14.5608L29.181-14.5608C26.701-14.5608 24.781-16.5608 24.781-18.9608L25.901-47.1208C25.901-57.1208 26.381-57.1208 34.781-57.1208L53.261-57.1208C61.981-57.1208 62.141-57.1208 62.141-47.1208L63.261-18.9608C63.101-16.5608 61.101-14.5608 58.701-14.5608ZM54.941-25.2808L32.861-25.2808C31.021-25.2808 29.581-26.4808 29.581-28.0008L30.381-45.5208C30.381-51.7608 30.701-51.7608 37.021-51.7608L50.781-51.7608C57.261-51.7608 57.421-51.7608 57.421-45.5208L58.221-28.0008C58.221-26.4808 56.781-25.2808 54.941-25.2808ZM52.701-27.9208L35.101-27.9208C33.661-27.9208 32.461-28.8808 32.461-30.1608L33.101-44.1608C33.101-49.1208 33.341-49.1208 38.381-49.1208L49.341-49.1208C54.541-49.1208 54.621-49.1208 54.621-44.1608L55.261-30.1608C55.341-28.9608 54.141-27.9208 52.701-27.9208ZM38.221-40.0808L38.221-40.0808C38.621-40.0008 38.941-39.6808 38.861-39.2808L37.821-30.3208C37.741-29.9208 37.421-29.6008 37.021-29.6808L37.021-29.6808C36.621-29.7608 36.301-30.0808 36.381-30.4808L37.421-39.4408C37.421-39.8408 37.821-40.0808 38.221-40.0808ZM34.301-16.1608L34.301-16.1608C34.701-16.1608 35.021-15.8408 35.021-15.4408L35.021-12.7208C35.021-12.3208 34.701-12.0008 34.301-12.0008L34.301-12.0008C33.901-12.0008 33.581-12.3208 33.581-12.7208L33.581-15.4408C33.581-15.7608 33.901-16.1608 34.301-16.1608ZM29.341-21.2808L29.341-21.2808C29.341-22.1608 30.061-22.8808 30.941-22.8808L36.381-22.8808C37.261-22.8808 37.981-22.1608 37.981-21.2808L37.981-21.2808C37.981-20.4008 37.261-19.6808 36.381-19.6808L30.941-19.6808C30.061-19.6808 29.341-20.4008 29.341-21.2808ZM49.261-21.2808L49.261-21.2808C49.261-22.1608 49.981-22.8808 50.861-22.8808L56.301-22.8808C57.181-22.8808 57.901-22.1608 57.901-21.2808L57.901-21.2808C57.901-20.4008 57.181-19.6808 56.301-19.6808L50.861-19.6808C49.981-19.6808 49.261-20.4008 49.261-21.2808ZM53.181-16.1608L53.181-16.1608C53.581-16.1608 53.901-15.8408 53.901-15.4408L53.901-12.7208C53.901-12.3208 53.581-12.0008 53.181-12.0008L53.181-12.0008C52.781-12.0008 52.461-12.3208 52.461-12.7208L52.461-15.4408C52.381-15.7608 52.781-16.1608 53.181-16.1608ZM43.181-61.9208L43.181-61.9208C43.501-61.9208 43.741-61.6808 43.741-61.3608L43.741-56.8808C43.741-56.5608 43.501-56.3208 43.181-56.3208L43.181-56.3208C42.861-56.3208 42.621-56.5608 42.621-56.8808L42.621-61.3608C42.621-61.6808 42.861-61.9208 43.181-61.9208ZM52.701-13.1208L52.701-13.1208C53.021-13.4408 53.501-13.4408 53.741-13.1208L56.461-10.4008C56.781-10.0808 56.781-9.6008 56.461-9.3608L56.461-9.3608C56.141-9.0408 55.661-9.0408 55.421-9.3608L52.701-12.0808C52.381-12.3208 52.381-12.8008 52.701-13.1208ZM34.861-13.1208L34.861-13.1208C35.181-12.8008 35.181-12.3208 34.861-12.0808L32.141-9.3608C31.821-9.0408 31.341-9.0408 31.101-9.3608L31.101-9.3608C30.781-9.6808 30.781-10.1608 31.101-10.4008L33.821-13.1208C34.061-13.3608 34.541-13.3608 34.861-13.1208ZM42.861-26.9608L42.861-26.9608C42.541-26.7208 42.061-26.8008 41.821-27.1208L37.101-33.8408C36.861-34.1608 36.941-34.6408 37.261-34.8808L37.261-34.8808C37.581-35.1208 38.061-35.0408 38.301-34.7208L43.021-28.0008C43.261-27.6808 43.181-27.2008 42.861-26.9608ZM32.061-62.1608L54.141-62.1608C55.741-62.1608 57.021-60.8808 57.021-59.2808L57.021-59.2808C57.021-58.7208 56.621-58.3208 56.061-58.3208L30.141-58.3208C29.581-58.3208 29.181-58.7208 29.181-59.2808L29.181-59.2808C29.181-60.8008 30.461-62.1608 32.061-62.1608ZM32.461-60.7208L53.661-60.7208C54.701-60.7208 55.581-59.8408 55.581-58.8008L55.581-56.8808L30.541-56.8808L30.541-58.8008C30.621-59.8408 31.421-60.7208 32.461-60.7208Z"/>
  </g>
 </g>
 <g id="LayerTree">
  <g class="monochrome-0 multicolor-0:custom hierarchical-0:tertiary"/>
  <g class="monochrome-1 multicolor-1:white hierarchical-1:primary">
   <g class="shapeGroupLayer-0"/>
   <g class="shapeGroupLayer-1"/>
   <g class="shapeGroupLayer-2"/>
   <g class="shapeGroupLayer-3"/>
   <g class="shapeGroupLayer-4"/>
   <g class="shapeGroupLayer-5"/>
   <g class="shapeGroupLayer-6"/>
   <g class="shapeGroupLayer-7"/>
   <g class="shapeGroupLayer-8"/>
   <g class="shapeGroupLayer-9"/>
  </g>
 </g>
</svg>
