<?xml version="1.0" encoding="UTF-8"?>
<!--Generator: Apple Native CoreSVG 341-->
<!DOCTYPE svg
PUBLIC "-//W3C//DTD SVG 1.1//EN"
       "http://www.w3.org/Graphics/SVG/1.1/DTD/svg11.dtd">
<svg version="1.1" xmlns="http://www.w3.org/2000/svg" xmlns:xlink="http://www.w3.org/1999/xlink" viewBox="0 0 3300 2200">
 <!--glyph: "", point size: 100.0, font version: "20.0d10e1", template writer version: "138.0.0"-->
 <style>.monochrome-0 {-sfsymbols-motion-group:5;-sfsymbols-layer-tags:-5b129aa3884dc03a}
.monochrome-1 {-sfsymbols-motion-group:4;-sfsymbols-layer-tags:-5b129aa3884dc03a}
.monochrome-2 {opacity:0.0;-sfsymbols-clear-behind:true;-sfsymbols-motion-group:3;-sfsymbols-layer-tags:-5b129aa3884dc03a}
.monochrome-3 {-sfsymbols-motion-group:2;-sfsymbols-layer-tags:-5b129aa3884dc03a}
.monochrome-4 {opacity:0.0;-sfsymbols-clear-behind:true;-sfsymbols-motion-group:1;-sfsymbols-layer-tags:-5b129aa3884dc03a}
.monochrome-5 {-sfsymbols-motion-group:0;-sfsymbols-layer-tags:-5b129aa3884dc03a}

.multicolor-0:systemTealColor {-sfsymbols-motion-group:5;-sfsymbols-layer-tags:-5b129aa3884dc03a}
.multicolor-1:systemGrayColor {-sfsymbols-motion-group:4;-sfsymbols-layer-tags:-5b129aa3884dc03a}
.multicolor-2:black {opacity:0.3;-sfsymbols-clear-behind:true;-sfsymbols-motion-group:3;-sfsymbols-layer-tags:-5b129aa3884dc03a}
.multicolor-3:white {-sfsymbols-motion-group:2;-sfsymbols-layer-tags:-5b129aa3884dc03a}
.multicolor-4:black {-sfsymbols-clear-behind:true;-sfsymbols-motion-group:1;-sfsymbols-layer-tags:-5b129aa3884dc03a}
.multicolor-5:systemRedColor {-sfsymbols-motion-group:0;-sfsymbols-layer-tags:-5b129aa3884dc03a}

.hierarchical-0:primary {-sfsymbols-motion-group:5;-sfsymbols-layer-tags:-5b129aa3884dc03a}
.hierarchical-1:tertiary {-sfsymbols-motion-group:4;-sfsymbols-layer-tags:-5b129aa3884dc03a}
.hierarchical-2:tertiary {-sfsymbols-clear-behind:true;-sfsymbols-motion-group:3;-sfsymbols-layer-tags:-5b129aa3884dc03a}
.hierarchical-3:primary {-sfsymbols-motion-group:2;-sfsymbols-layer-tags:-5b129aa3884dc03a}
.hierarchical-4:tertiary {-sfsymbols-clear-behind:true;-sfsymbols-motion-group:1;-sfsymbols-layer-tags:-5b129aa3884dc03a}
.hierarchical-5:secondary {-sfsymbols-motion-group:0;-sfsymbols-layer-tags:-5b129aa3884dc03a}

.SFSymbolsPreviewWireframe {fill:none;opacity:1.0;stroke:black;stroke-width:0.5}
</style>
 <g id="Notes">
  <rect height="2200" id="artboard" style="fill:white;opacity:1" width="3300" x="0" y="0"/>
  <line style="fill:none;stroke:black;opacity:1;stroke-width:0.5;" x1="263" x2="3036" y1="292" y2="292"/>
  <text style="stroke:none;fill:black;font-family:sans-serif;font-size:13;font-weight:bold;" transform="matrix(1 0 0 1 263 322)">Weight/Scale Variations</text>
  <text style="stroke:none;fill:black;font-family:sans-serif;font-size:13;text-anchor:middle;" transform="matrix(1 0 0 1 559.711 322)">Ultralight</text>
  <text style="stroke:none;fill:black;font-family:sans-serif;font-size:13;text-anchor:middle;" transform="matrix(1 0 0 1 856.422 322)">Thin</text>
  <text style="stroke:none;fill:black;font-family:sans-serif;font-size:13;text-anchor:middle;" transform="matrix(1 0 0 1 1153.13 322)">Light</text>
  <text style="stroke:none;fill:black;font-family:sans-serif;font-size:13;text-anchor:middle;" transform="matrix(1 0 0 1 1449.84 322)">Regular</text>
  <text style="stroke:none;fill:black;font-family:sans-serif;font-size:13;text-anchor:middle;" transform="matrix(1 0 0 1 1746.56 322)">Medium</text>
  <text style="stroke:none;fill:black;font-family:sans-serif;font-size:13;text-anchor:middle;" transform="matrix(1 0 0 1 2043.27 322)">Semibold</text>
  <text style="stroke:none;fill:black;font-family:sans-serif;font-size:13;text-anchor:middle;" transform="matrix(1 0 0 1 2339.98 322)">Bold</text>
  <text style="stroke:none;fill:black;font-family:sans-serif;font-size:13;text-anchor:middle;" transform="matrix(1 0 0 1 2636.69 322)">Heavy</text>
  <text style="stroke:none;fill:black;font-family:sans-serif;font-size:13;text-anchor:middle;" transform="matrix(1 0 0 1 2933.4 322)">Black</text>
  <line style="fill:none;stroke:black;opacity:1;stroke-width:0.5;" x1="263" x2="3036" y1="1903" y2="1903"/>
  <g transform="matrix(0.2 0 0 0.2 263 1933)">
   <path d="m46.2402 4.15039c21.7773 0 39.4531-17.627 39.4531-39.4043s-17.6758-39.4043-39.4531-39.4043c-21.7285 0-39.4043 17.627-39.4043 39.4043s17.6758 39.4043 39.4043 39.4043Zm0-7.42188c-17.6758 0-31.9336-14.3066-31.9336-31.9824s14.2578-31.9824 31.9336-31.9824 31.9824 14.3066 31.9824 31.9824-14.3066 31.9824-31.9824 31.9824Zm-17.9688-31.9824c0 2.14844 1.51367 3.61328 3.75977 3.61328h10.498v10.5957c0 2.19727 1.46484 3.71094 3.61328 3.71094 2.24609 0 3.71094-1.51367 3.71094-3.71094v-10.5957h10.5957c2.19727 0 3.71094-1.46484 3.71094-3.61328 0-2.19727-1.51367-3.71094-3.71094-3.71094h-10.5957v-10.5469c0-2.24609-1.46484-3.75977-3.71094-3.75977-2.14844 0-3.61328 1.51367-3.61328 3.75977v10.5469h-10.498c-2.24609 0-3.75977 1.51367-3.75977 3.71094Z"/>
  </g>
  <g transform="matrix(0.2 0 0 0.2 281.506 1933)">
   <path d="m58.5449 14.5508c27.4902 0 49.8047-22.3145 49.8047-49.8047s-22.3145-49.8047-49.8047-49.8047-49.8047 22.3145-49.8047 49.8047 22.3145 49.8047 49.8047 49.8047Zm0-8.30078c-22.9492 0-41.5039-18.5547-41.5039-41.5039s18.5547-41.5039 41.5039-41.5039 41.5039 18.5547 41.5039 41.5039-18.5547 41.5039-41.5039 41.5039Zm-22.6562-41.5039c0 2.39258 1.66016 4.00391 4.15039 4.00391h14.3555v14.4043c0 2.44141 1.66016 4.15039 4.05273 4.15039 2.44141 0 4.15039-1.66016 4.15039-4.15039v-14.4043h14.4043c2.44141 0 4.15039-1.61133 4.15039-4.00391 0-2.44141-1.70898-4.15039-4.15039-4.15039h-14.4043v-14.3555c0-2.49023-1.70898-4.19922-4.15039-4.19922-2.39258 0-4.05273 1.70898-4.05273 4.19922v14.3555h-14.3555c-2.49023 0-4.15039 1.70898-4.15039 4.15039Z"/>
  </g>
  <g transform="matrix(0.2 0 0 0.2 304.924 1933)">
   <path d="m74.8535 28.3203c35.1074 0 63.623-28.4668 63.623-63.5742s-28.5156-63.623-63.623-63.623-63.5742 28.5156-63.5742 63.623 28.4668 63.5742 63.5742 63.5742Zm0-9.08203c-30.127 0-54.4922-24.3652-54.4922-54.4922s24.3652-54.4922 54.4922-54.4922 54.4922 24.3652 54.4922 54.4922-24.3652 54.4922-54.4922 54.4922Zm-28.8574-54.4922c0 2.58789 1.85547 4.39453 4.58984 4.39453h19.7266v19.7754c0 2.68555 1.85547 4.58984 4.44336 4.58984 2.68555 0 4.54102-1.85547 4.54102-4.58984v-19.7754h19.7754c2.68555 0 4.58984-1.80664 4.58984-4.39453 0-2.73438-1.85547-4.58984-4.58984-4.58984h-19.7754v-19.7266c0-2.73438-1.85547-4.63867-4.54102-4.63867-2.58789 0-4.44336 1.9043-4.44336 4.63867v19.7266h-19.7266c-2.73438 0-4.58984 1.85547-4.58984 4.58984Z"/>
  </g>
  <text style="stroke:none;fill:black;font-family:sans-serif;font-size:13;font-weight:bold;" transform="matrix(1 0 0 1 263 1953)">Design Variations</text>
  <text style="stroke:none;fill:black;font-family:sans-serif;font-size:13;" transform="matrix(1 0 0 1 263 1971)">Symbols are supported in up to nine weights and three scales.</text>
  <text style="stroke:none;fill:black;font-family:sans-serif;font-size:13;" transform="matrix(1 0 0 1 263 1989)">For optimal layout with text and other symbols, vertically align</text>
  <text style="stroke:none;fill:black;font-family:sans-serif;font-size:13;" transform="matrix(1 0 0 1 263 2007)">symbols with the adjacent text.</text>
  <line style="fill:none;stroke:#00AEEF;stroke-width:0.5;opacity:1.0;" x1="776" x2="776" y1="1919" y2="1933"/>
  <g transform="matrix(0.2 0 0 0.2 776 1933)">
   <path d="m16.5527 0.78125c2.58789 0 3.85742-0.976562 4.78516-3.71094l6.29883-17.2363h28.8086l6.29883 17.2363c0.927734 2.73438 2.19727 3.71094 4.73633 3.71094 2.58789 0 4.24805-1.5625 4.24805-4.00391 0-0.830078-0.146484-1.61133-0.537109-2.63672l-22.9004-60.9863c-1.12305-2.97852-3.125-4.49219-6.25-4.49219-3.02734 0-5.07812 1.46484-6.15234 4.44336l-22.9004 61.084c-0.390625 1.02539-0.537109 1.80664-0.537109 2.63672 0 2.44141 1.5625 3.95508 4.10156 3.95508Zm13.4766-28.3691 11.8652-32.8613h0.244141l11.8652 32.8613Z"/>
  </g>
  <line style="fill:none;stroke:#00AEEF;stroke-width:0.5;opacity:1.0;" x1="792.836" x2="792.836" y1="1919" y2="1933"/>
  <text style="stroke:none;fill:black;font-family:sans-serif;font-size:13;font-weight:bold;" transform="matrix(1 0 0 1 776 1953)">Margins</text>
  <text style="stroke:none;fill:black;font-family:sans-serif;font-size:13;" transform="matrix(1 0 0 1 776 1971)">Leading and trailing margins on the left and right side of each symbol</text>
  <text style="stroke:none;fill:black;font-family:sans-serif;font-size:13;" transform="matrix(1 0 0 1 776 1989)">can be adjusted by modifying the x-location of the margin guidelines.</text>
  <text style="stroke:none;fill:black;font-family:sans-serif;font-size:13;" transform="matrix(1 0 0 1 776 2007)">Modifications are automatically applied proportionally to all</text>
  <text style="stroke:none;fill:black;font-family:sans-serif;font-size:13;" transform="matrix(1 0 0 1 776 2025)">scales and weights.</text>
  <g transform="matrix(0.2 0 0 0.2 1289 1933)">
   <path d="m14.209 9.32617 8.49609 8.54492c4.29688 4.3457 9.22852 4.05273 13.8672-1.07422l53.4668-58.9355-4.83398-4.88281-53.0762 58.3984c-1.75781 2.00195-3.41797 2.49023-5.76172 0.146484l-5.85938-5.81055c-2.34375-2.29492-1.80664-4.00391 0.195312-5.81055l57.373-54.0039-4.88281-4.83398-57.959 54.4434c-4.93164 4.58984-5.32227 9.47266-1.02539 13.8184Zm32.0801-90.9668c-2.09961 2.05078-2.24609 4.93164-1.07422 6.88477 1.17188 1.80664 3.4668 2.97852 6.68945 2.14844 7.32422-1.70898 14.9414-2.00195 22.0703 2.68555l-2.92969 7.27539c-1.70898 4.15039-0.830078 7.08008 1.85547 9.81445l11.4746 11.5723c2.44141 2.44141 4.49219 2.53906 7.32422 2.05078l5.32227-0.976562 3.32031 3.36914-0.195312 2.7832c-0.195312 2.49023 0.439453 4.39453 2.88086 6.78711l3.80859 3.71094c2.39258 2.39258 5.46875 2.53906 7.8125 0.195312l14.5508-14.5996c2.34375-2.34375 2.24609-5.32227-0.146484-7.71484l-3.85742-3.80859c-2.39258-2.39258-4.24805-3.17383-6.64062-2.97852l-2.88086 0.244141-3.22266-3.17383 1.2207-5.61523c0.634766-2.83203-0.146484-5.0293-3.07617-7.95898l-10.9863-10.9375c-16.6992-16.6016-38.8672-16.2109-53.3203-1.75781Zm7.4707 1.85547c12.1582-8.88672 28.6133-7.37305 39.7461 3.75977l12.1582 12.0605c1.17188 1.17188 1.36719 2.09961 1.02539 3.80859l-1.61133 7.42188 7.51953 7.42188 4.93164-0.292969c1.26953-0.0488281 1.66016 0.0488281 2.63672 1.02539l2.88086 2.88086-12.207 12.207-2.88086-2.88086c-0.976562-0.976562-1.12305-1.36719-1.07422-2.68555l0.341797-4.88281-7.4707-7.42188-7.61719 1.26953c-1.61133 0.341797-2.34375 0.195312-3.56445-0.976562l-10.0098-10.0098c-1.26953-1.17188-1.41602-2.00195-0.634766-3.85742l4.39453-10.4492c-7.8125-7.27539-17.9688-10.4004-28.125-7.42188-0.78125 0.195312-1.07422-0.439453-0.439453-0.976562Z"/>
  </g>
  <text style="stroke:none;fill:black;font-family:sans-serif;font-size:13;font-weight:bold;" transform="matrix(1 0 0 1 1289 1953)">Exporting</text>
  <text style="stroke:none;fill:black;font-family:sans-serif;font-size:13;" transform="matrix(1 0 0 1 1289 1971)">Symbols should be outlined when exporting to ensure the</text>
  <text style="stroke:none;fill:black;font-family:sans-serif;font-size:13;" transform="matrix(1 0 0 1 1289 1989)">design is preserved when submitting to Xcode.</text>
  <text id="template-version" style="stroke:none;fill:black;font-family:sans-serif;font-size:13;text-anchor:end;" transform="matrix(1 0 0 1 3036 1933)">Template v.6.0</text>
  <text style="stroke:none;fill:black;font-family:sans-serif;font-size:13;text-anchor:end;" transform="matrix(1 0 0 1 3036 1951)">Requires Xcode 16 or greater</text>
  <text id="descriptive-name" style="stroke:none;fill:black;font-family:sans-serif;font-size:13;text-anchor:end;" transform="matrix(1 0 0 1 3036 1969)">Generated from robot.fill</text>
  <text style="stroke:none;fill:black;font-family:sans-serif;font-size:13;text-anchor:end;" transform="matrix(1 0 0 1 3036 1987)">Typeset at 100.0 points</text>
  <text style="stroke:none;fill:black;font-family:sans-serif;font-size:13;" transform="matrix(1 0 0 1 263 726)">Small</text>
  <text style="stroke:none;fill:black;font-family:sans-serif;font-size:13;" transform="matrix(1 0 0 1 263 1156)">Medium</text>
  <text style="stroke:none;fill:black;font-family:sans-serif;font-size:13;" transform="matrix(1 0 0 1 263 1586)">Large</text>
 </g>
 <g id="Guides">
  <g id="H-reference" style="fill:#27AAE1;stroke:none;" transform="matrix(1 0 0 1 339 696)">
   <path d="M0.993654 0L3.63775 0L29.3281-67.1323L30.0303-67.1323L30.0303-70.459L28.1226-70.459ZM11.6885-24.4799L46.9815-24.4799L46.2315-26.7285L12.4385-26.7285ZM55.1196 0L57.7637 0L30.6382-70.459L29.4326-70.459L29.4326-67.1323Z"/>
  </g>
  <line id="Baseline-S" style="fill:none;stroke:#27AAE1;opacity:1;stroke-width:0.5;" x1="263" x2="3036" y1="696" y2="696"/>
  <line id="Capline-S" style="fill:none;stroke:#27AAE1;opacity:1;stroke-width:0.5;" x1="263" x2="3036" y1="625.541" y2="625.541"/>
  <g id="H-reference" style="fill:#27AAE1;stroke:none;" transform="matrix(1 0 0 1 339 1126)">
   <path d="M0.993654 0L3.63775 0L29.3281-67.1323L30.0303-67.1323L30.0303-70.459L28.1226-70.459ZM11.6885-24.4799L46.9815-24.4799L46.2315-26.7285L12.4385-26.7285ZM55.1196 0L57.7637 0L30.6382-70.459L29.4326-70.459L29.4326-67.1323Z"/>
  </g>
  <line id="Baseline-M" style="fill:none;stroke:#27AAE1;opacity:1;stroke-width:0.5;" x1="263" x2="3036" y1="1126" y2="1126"/>
  <line id="Capline-M" style="fill:none;stroke:#27AAE1;opacity:1;stroke-width:0.5;" x1="263" x2="3036" y1="1055.54" y2="1055.54"/>
  <g id="H-reference" style="fill:#27AAE1;stroke:none;" transform="matrix(1 0 0 1 339 1556)">
   <path d="M0.993654 0L3.63775 0L29.3281-67.1323L30.0303-67.1323L30.0303-70.459L28.1226-70.459ZM11.6885-24.4799L46.9815-24.4799L46.2315-26.7285L12.4385-26.7285ZM55.1196 0L57.7637 0L30.6382-70.459L29.4326-70.459L29.4326-67.1323Z"/>
  </g>
  <line id="Baseline-L" style="fill:none;stroke:#27AAE1;opacity:1;stroke-width:0.5;" x1="263" x2="3036" y1="1556" y2="1556"/>
  <line id="Capline-L" style="fill:none;stroke:#27AAE1;opacity:1;stroke-width:0.5;" x1="263" x2="3036" y1="1485.54" y2="1485.54"/>
  <line id="right-margin-Black-S" style="fill:none;stroke:#00AEEF;stroke-width:0.5;opacity:1.0;" x1="2982.2" x2="2982.2" y1="600.785" y2="720.121"/>
  <line id="left-margin-Black-S" style="fill:none;stroke:#00AEEF;stroke-width:0.5;opacity:1.0;" x1="2884.6" x2="2884.6" y1="600.785" y2="720.121"/>
  <line id="right-margin-Regular-S" style="fill:none;stroke:#00AEEF;stroke-width:0.5;opacity:1.0;" x1="1496.09" x2="1496.09" y1="600.785" y2="720.121"/>
  <line id="left-margin-Regular-S" style="fill:none;stroke:#00AEEF;stroke-width:0.5;opacity:1.0;" x1="1403.59" x2="1403.59" y1="600.785" y2="720.121"/>
  <line id="right-margin-Ultralight-S" style="fill:none;stroke:#00AEEF;stroke-width:0.5;opacity:1.0;" x1="603.811" x2="603.811" y1="600.785" y2="720.121"/>
  <line id="left-margin-Ultralight-S" style="fill:none;stroke:#00AEEF;stroke-width:0.5;opacity:1.0;" x1="515.611" x2="515.611" y1="600.785" y2="720.121"/>
 </g>
 <g id="Symbols">
  <g id="Black-S" transform="matrix(1 0 0 1 2884.6 696)">
   <path class="monochrome-0 multicolor-0:systemTealColor hierarchical-0:primary SFSymbolsPreviewWireframe" d="M66.4 0L30.5 0C23.1 0 17.2-6 17.2-13.3L17.2-49.2C17.2-56.6 23.2-62.5 30.5-62.5L66.4-62.5C73.8-62.5 79.7-56.5 79.7-49.2L79.7-13.3C79.7-5.9 73.7 0 66.4 0Z"/>
   <path class="monochrome-1 multicolor-1:systemGrayColor hierarchical-1:tertiary SFSymbolsPreviewWireframe" d="M13.1-23.5L13.1-23.5C10.9-23.5 9.2-25.2 9.2-27.4L9.2-39.9C9.2-42.1 10.9-43.8 13.1-43.8L13.1-43.8C15.3-43.8 17-42.1 17-39.9L17-27.4C17-25.2 15.3-23.5 13.1-23.5ZM83.6-23.5L83.6-23.5C85.8-23.5 87.5-25.2 87.5-27.4L87.5-39.9C87.5-42.1 85.8-43.8 83.6-43.8L83.6-43.8C81.4-43.8 79.7-42.1 79.7-39.9L79.7-27.4C79.7-25.2 81.4-23.5 83.6-23.5Z"/>
   <path class="monochrome-2 multicolor-2:black hierarchical-2:tertiary SFSymbolsPreviewWireframe" d="M61.7-13.3L35.1-13.3C31.7-13.3 28.8-16.1 28.8-19.6L28.8-19.6C28.8-23 31.6-25.9 35.1-25.9L61.7-25.9C65.1-25.9 68-23.1 68-19.6L68-19.6C68-16.2 65.2-13.3 61.7-13.3Z"/>
   <path class="monochrome-3 multicolor-3:white hierarchical-3:primary SFSymbolsPreviewWireframe" d="M35.8-14.6C35.6-14.6 35.5-14.6 35.5-14.9L35.5-24.3C35.5-24.3 35.7-24.6 35.8-24.6C35.9-24.6 36.1-24.6 36.1-24.3L36.1-14.9C36.1-14.9 35.9-14.6 35.8-14.6ZM43.7-14.6C43.7-14.6 43.4-14.6 43.4-14.9L43.4-24.3C43.4-24.3 43.4-24.6 43.7-24.6C44-24.6 44-24.6 44-24.3L44-14.9C44-14.9 44-14.6 43.7-14.6ZM51.5-14.6C51.5-14.6 51.2-14.6 51.2-14.9L51.2-24.3C51.2-24.3 51.2-24.6 51.5-24.6C51.8-24.6 51.8-24.6 51.8-24.3L51.8-14.9C51.8-14.9 51.8-14.6 51.5-14.6ZM59.3-14.6C59.3-14.6 59-14.6 59-14.9L59-24.3C59-24.3 59-24.6 59.3-24.6C59.6-24.6 59.6-24.6 59.6-24.3L59.6-14.9C59.6-14.9 59.6-14.6 59.3-14.6Z"/>
   <path class="monochrome-4 multicolor-4:black hierarchical-4:tertiary SFSymbolsPreviewWireframe" d="M66.5-42.3C66.5-44.7 64.5-46.7 62.1-46.7C59.7-46.7 57.7-44.7 57.7-42.3L57.7-42.3C57.7-39.9 59.7-37.9 62.1-37.9C64.5-37.9 66.5-39.9 66.5-42.3L66.5-42.3ZM39.1-42.3C39.1-44.7 37.1-46.7 34.7-46.7C32.3-46.7 30.3-44.7 30.3-42.3C30.3-39.9 32.3-37.9 34.7-37.9C37.1-37.9 39.1-39.9 39.1-42.3Z"/>
   <path class="monochrome-5 multicolor-5:systemRedColor hierarchical-5:secondary SFSymbolsPreviewWireframe" d="M45.2-62.7L45.2-66.6C45.2-68.8 46.9-70.5 49.1-70.5C51.3-70.5 53-68.8 53-66.6L53-62.7L45.2-62.7Z"/>
  </g>
  <g id="Regular-S" transform="matrix(1 0 0 1 1403.59 696)">
   <path class="monochrome-0 multicolor-0:systemTealColor hierarchical-0:primary SFSymbolsPreviewWireframe" d="M63.9 0L28 0C20.6 0 14.7-6 14.7-13.3L14.7-49.2C14.7-56.6 20.7-62.5 28-62.5L63.9-62.5C71.3-62.5 77.2-56.5 77.2-49.2L77.2-13.3C77.2-5.9 71.2 0 63.9 0Z"/>
   <path class="monochrome-1 multicolor-1:systemGrayColor hierarchical-1:tertiary SFSymbolsPreviewWireframe" d="M10.6-23.5L10.6-23.5C8.4-23.5 6.7-25.2 6.7-27.4L6.7-39.9C6.7-42.1 8.4-43.8 10.6-43.8L10.6-43.8C12.8-43.8 14.5-42.1 14.5-39.9L14.5-27.4C14.5-25.2 12.8-23.5 10.6-23.5ZM81.2-23.5L81.2-23.5C83.4-23.5 85.1-25.2 85.1-27.4L85.1-39.9C85.1-42.1 83.4-43.8 81.2-43.8L81.2-43.8C79-43.8 77.3-42.1 77.3-39.9L77.3-27.4C77.3-25.2 79-23.5 81.2-23.5Z"/>
   <path class="monochrome-2 multicolor-2:black hierarchical-2:tertiary SFSymbolsPreviewWireframe" d="M59.2-13.3L32.6-13.3C29.2-13.3 26.3-16.1 26.3-19.6L26.3-19.6C26.3-23 29.1-25.9 32.6-25.9L59.2-25.9C62.6-25.9 65.5-23.1 65.5-19.6L65.5-19.6C65.5-16.2 62.7-13.3 59.2-13.3Z"/>
   <path class="monochrome-3 multicolor-3:white hierarchical-3:primary SFSymbolsPreviewWireframe" d="M33.4-14.6C33.2-14.6 33.1-14.6 33.1-14.9L33.1-24.3C33.1-24.3 33.3-24.6 33.4-24.6C33.5-24.6 33.7-24.6 33.7-24.3L33.7-14.9C33.7-14.9 33.5-14.6 33.4-14.6ZM41.2-14.6C41.2-14.6 40.9-14.6 40.9-14.9L40.9-24.3C40.9-24.3 40.9-24.6 41.2-24.6C41.5-24.6 41.5-24.6 41.5-24.3L41.5-14.9C41.5-14.9 41.5-14.6 41.2-14.6ZM49-14.6C49-14.6 48.7-14.6 48.7-14.9L48.7-24.3C48.7-24.3 48.7-24.6 49-24.6C49.3-24.6 49.3-24.6 49.3-24.3L49.3-14.9C49.3-14.9 49.3-14.6 49-14.6ZM56.9-14.6C56.9-14.6 56.6-14.6 56.6-14.9L56.6-24.3C56.6-24.3 56.6-24.6 56.9-24.6C57.2-24.6 57.2-24.6 57.2-24.3L57.2-14.9C57.2-14.9 57.2-14.6 56.9-14.6Z"/>
   <path class="monochrome-4 multicolor-4:black hierarchical-4:tertiary SFSymbolsPreviewWireframe" d="M64.1-42.3C64.1-44.7 62.1-46.7 59.7-46.7C57.3-46.7 55.3-44.7 55.3-42.3L55.3-42.3C55.3-39.9 57.3-37.9 59.7-37.9C62.1-37.9 64.1-39.9 64.1-42.3L64.1-42.3ZM36.7-42.3C36.7-44.7 34.7-46.7 32.3-46.7C29.9-46.7 27.9-44.7 27.9-42.3C27.9-39.9 29.9-37.9 32.3-37.9C34.7-37.9 36.7-39.9 36.7-42.3Z"/>
   <path class="monochrome-5 multicolor-5:systemRedColor hierarchical-5:secondary SFSymbolsPreviewWireframe" d="M42.8-62.7L42.8-66.6C42.8-68.8 44.5-70.5 46.7-70.5C48.9-70.5 50.6-68.8 50.6-66.6L50.6-62.7L42.8-62.7Z"/>
  </g>
  <g id="Ultralight-S" transform="matrix(1 0 0 1 515.611 696)">
   <path class="monochrome-0 multicolor-0:systemTealColor hierarchical-0:primary SFSymbolsPreviewWireframe" d="M62.4 0L26.5 0C19.1 0 13.2-6 13.2-13.3L13.2-49.2C13.2-56.6 19.2-62.5 26.5-62.5L62.4-62.5C69.8-62.5 75.7-56.5 75.7-49.2L75.7-13.3C75.7-5.9 69.7 0 62.4 0Z"/>
   <path class="monochrome-1 multicolor-1:systemGrayColor hierarchical-1:tertiary SFSymbolsPreviewWireframe" d="M9.2-23.5L9.2-23.5C7-23.5 5.3-25.2 5.3-27.4L5.3-39.9C5.3-42.1 7-43.8 9.2-43.8L9.2-43.8C11.4-43.8 13.1-42.1 13.1-39.9L13.1-27.4C13.1-25.2 11.4-23.5 9.2-23.5ZM79.7-23.5L79.7-23.5C81.9-23.5 83.6-25.2 83.6-27.4L83.6-39.9C83.6-42.1 81.9-43.8 79.7-43.8L79.7-43.8C77.5-43.8 75.8-42.1 75.8-39.9L75.8-27.4C75.8-25.2 77.5-23.5 79.7-23.5Z"/>
   <path class="monochrome-2 multicolor-2:black hierarchical-2:tertiary SFSymbolsPreviewWireframe" d="M57.7-13.3L31.1-13.3C27.7-13.3 24.8-16.1 24.8-19.6L24.8-19.6C24.8-23 27.6-25.9 31.1-25.9L57.7-25.9C61.1-25.9 64-23.1 64-19.6L64-19.6C64-16.2 61.2-13.3 57.7-13.3Z"/>
   <path class="monochrome-3 multicolor-3:white hierarchical-3:primary SFSymbolsPreviewWireframe" d="M31.9-14.6C31.7-14.6 31.6-14.6 31.6-14.9L31.6-24.3C31.6-24.3 31.8-24.6 31.9-24.6C32-24.6 32.2-24.6 32.2-24.3L32.2-14.9C32.2-14.9 32-14.6 31.9-14.6ZM39.7-14.6C39.7-14.6 39.4-14.6 39.4-14.9L39.4-24.3C39.4-24.3 39.4-24.6 39.7-24.6C40-24.6 40-24.6 40-24.3L40-14.9C40-14.9 40-14.6 39.7-14.6ZM47.6-14.6C47.6-14.6 47.3-14.6 47.3-14.9L47.3-24.3C47.3-24.3 47.3-24.6 47.6-24.6C47.9-24.6 47.9-24.6 47.9-24.3L47.9-14.9C47.9-14.9 47.9-14.6 47.6-14.6ZM55.4-14.6C55.4-14.6 55.1-14.6 55.1-14.9L55.1-24.3C55.1-24.3 55.1-24.6 55.4-24.6C55.7-24.6 55.7-24.6 55.7-24.3L55.7-14.9C55.7-14.9 55.7-14.6 55.4-14.6Z"/>
   <path class="monochrome-4 multicolor-4:black hierarchical-4:tertiary SFSymbolsPreviewWireframe" d="M62.6-42.3C62.6-44.7 60.6-46.7 58.2-46.7C55.8-46.7 53.8-44.7 53.8-42.3L53.8-42.3C53.8-39.9 55.8-37.9 58.2-37.9C60.6-37.9 62.6-39.9 62.6-42.3L62.6-42.3ZM35.2-42.3C35.2-44.7 33.2-46.7 30.8-46.7C28.4-46.7 26.4-44.7 26.4-42.3C26.4-39.9 28.4-37.9 30.8-37.9C33.2-37.9 35.2-39.9 35.2-42.3Z"/>
   <path class="monochrome-5 multicolor-5:systemRedColor hierarchical-5:secondary SFSymbolsPreviewWireframe" d="M41.3-62.7L41.3-66.6C41.3-68.8 43-70.5 45.2-70.5C47.4-70.5 49.1-68.8 49.1-66.6L49.1-62.7L41.3-62.7Z"/>
  </g>
 </g>
</svg>
