<?xml version="1.0" encoding="UTF-8"?>
<!--Generator: Apple Native CoreSVG 341-->
<!DOCTYPE svg
PUBLIC "-//W3C//DTD SVG 1.1//EN"
       "http://www.w3.org/Graphics/SVG/1.1/DTD/svg11.dtd">
<svg version="1.1" xmlns="http://www.w3.org/2000/svg" xmlns:xlink="http://www.w3.org/1999/xlink" viewBox="0 0 3300 2200">
 <!--glyph: "", point size: 100.0, font version: "20.0d10e1", template writer version: "138.0.0"-->
 <style>.monochrome-0 {-sfsymbols-motion-group:0;-sfsymbols-layer-tags:3a95083a650170eb}

.multicolor-0:tintColor {-sfsymbols-motion-group:0;-sfsymbols-layer-tags:3a95083a650170eb}

.hierarchical-0:primary {-sfsymbols-motion-group:0;-sfsymbols-layer-tags:3a95083a650170eb}

.SFSymbolsPreviewWireframe {fill:none;opacity:1.0;stroke:black;stroke-width:0.5}
</style>
 <g id="Notes">
  <rect height="2200" id="artboard" style="fill:white;opacity:1" width="3300" x="0" y="0"/>
  <line style="fill:none;stroke:black;opacity:1;stroke-width:0.5;" x1="263" x2="3036" y1="292" y2="292"/>
  <text style="stroke:none;fill:black;font-family:sans-serif;font-size:13;font-weight:bold;" transform="matrix(1 0 0 1 263 322)">Weight/Scale Variations</text>
  <text style="stroke:none;fill:black;font-family:sans-serif;font-size:13;text-anchor:middle;" transform="matrix(1 0 0 1 559.711 322)">Ultralight</text>
  <text style="stroke:none;fill:black;font-family:sans-serif;font-size:13;text-anchor:middle;" transform="matrix(1 0 0 1 856.422 322)">Thin</text>
  <text style="stroke:none;fill:black;font-family:sans-serif;font-size:13;text-anchor:middle;" transform="matrix(1 0 0 1 1153.13 322)">Light</text>
  <text style="stroke:none;fill:black;font-family:sans-serif;font-size:13;text-anchor:middle;" transform="matrix(1 0 0 1 1449.84 322)">Regular</text>
  <text style="stroke:none;fill:black;font-family:sans-serif;font-size:13;text-anchor:middle;" transform="matrix(1 0 0 1 1746.56 322)">Medium</text>
  <text style="stroke:none;fill:black;font-family:sans-serif;font-size:13;text-anchor:middle;" transform="matrix(1 0 0 1 2043.27 322)">Semibold</text>
  <text style="stroke:none;fill:black;font-family:sans-serif;font-size:13;text-anchor:middle;" transform="matrix(1 0 0 1 2339.98 322)">Bold</text>
  <text style="stroke:none;fill:black;font-family:sans-serif;font-size:13;text-anchor:middle;" transform="matrix(1 0 0 1 2636.69 322)">Heavy</text>
  <text style="stroke:none;fill:black;font-family:sans-serif;font-size:13;text-anchor:middle;" transform="matrix(1 0 0 1 2933.4 322)">Black</text>
  <line style="fill:none;stroke:black;opacity:1;stroke-width:0.5;" x1="263" x2="3036" y1="1903" y2="1903"/>
  <g transform="matrix(0.2 0 0 0.2 263 1933)">
   <path d="m46.2402 4.15039c21.7773 0 39.4531-17.627 39.4531-39.4043s-17.6758-39.4043-39.4531-39.4043c-21.7285 0-39.4043 17.627-39.4043 39.4043s17.6758 39.4043 39.4043 39.4043Zm0-7.42188c-17.6758 0-31.9336-14.3066-31.9336-31.9824s14.2578-31.9824 31.9336-31.9824 31.9824 14.3066 31.9824 31.9824-14.3066 31.9824-31.9824 31.9824Zm-17.9688-31.9824c0 2.14844 1.51367 3.61328 3.75977 3.61328h10.498v10.5957c0 2.19727 1.46484 3.71094 3.61328 3.71094 2.24609 0 3.71094-1.51367 3.71094-3.71094v-10.5957h10.5957c2.19727 0 3.71094-1.46484 3.71094-3.61328 0-2.19727-1.51367-3.71094-3.71094-3.71094h-10.5957v-10.5469c0-2.24609-1.46484-3.75977-3.71094-3.75977-2.14844 0-3.61328 1.51367-3.61328 3.75977v10.5469h-10.498c-2.24609 0-3.75977 1.51367-3.75977 3.71094Z"/>
  </g>
  <g transform="matrix(0.2 0 0 0.2 281.506 1933)">
   <path d="m58.5449 14.5508c27.4902 0 49.8047-22.3145 49.8047-49.8047s-22.3145-49.8047-49.8047-49.8047-49.8047 22.3145-49.8047 49.8047 22.3145 49.8047 49.8047 49.8047Zm0-8.30078c-22.9492 0-41.5039-18.5547-41.5039-41.5039s18.5547-41.5039 41.5039-41.5039 41.5039 18.5547 41.5039 41.5039-18.5547 41.5039-41.5039 41.5039Zm-22.6562-41.5039c0 2.39258 1.66016 4.00391 4.15039 4.00391h14.3555v14.4043c0 2.44141 1.66016 4.15039 4.05273 4.15039 2.44141 0 4.15039-1.66016 4.15039-4.15039v-14.4043h14.4043c2.44141 0 4.15039-1.61133 4.15039-4.00391 0-2.44141-1.70898-4.15039-4.15039-4.15039h-14.4043v-14.3555c0-2.49023-1.70898-4.19922-4.15039-4.19922-2.39258 0-4.05273 1.70898-4.05273 4.19922v14.3555h-14.3555c-2.49023 0-4.15039 1.70898-4.15039 4.15039Z"/>
  </g>
  <g transform="matrix(0.2 0 0 0.2 304.924 1933)">
   <path d="m74.8535 28.3203c35.1074 0 63.623-28.4668 63.623-63.5742s-28.5156-63.623-63.623-63.623-63.5742 28.5156-63.5742 63.623 28.4668 63.5742 63.5742 63.5742Zm0-9.08203c-30.127 0-54.4922-24.3652-54.4922-54.4922s24.3652-54.4922 54.4922-54.4922 54.4922 24.3652 54.4922 54.4922-24.3652 54.4922-54.4922 54.4922Zm-28.8574-54.4922c0 2.58789 1.85547 4.39453 4.58984 4.39453h19.7266v19.7754c0 2.68555 1.85547 4.58984 4.44336 4.58984 2.68555 0 4.54102-1.85547 4.54102-4.58984v-19.7754h19.7754c2.68555 0 4.58984-1.80664 4.58984-4.39453 0-2.73438-1.85547-4.58984-4.58984-4.58984h-19.7754v-19.7266c0-2.73438-1.85547-4.63867-4.54102-4.63867-2.58789 0-4.44336 1.9043-4.44336 4.63867v19.7266h-19.7266c-2.73438 0-4.58984 1.85547-4.58984 4.58984Z"/>
  </g>
  <text style="stroke:none;fill:black;font-family:sans-serif;font-size:13;font-weight:bold;" transform="matrix(1 0 0 1 263 1953)">Design Variations</text>
  <text style="stroke:none;fill:black;font-family:sans-serif;font-size:13;" transform="matrix(1 0 0 1 263 1971)">Symbols are supported in up to nine weights and three scales.</text>
  <text style="stroke:none;fill:black;font-family:sans-serif;font-size:13;" transform="matrix(1 0 0 1 263 1989)">For optimal layout with text and other symbols, vertically align</text>
  <text style="stroke:none;fill:black;font-family:sans-serif;font-size:13;" transform="matrix(1 0 0 1 263 2007)">symbols with the adjacent text.</text>
  <line style="fill:none;stroke:#00AEEF;stroke-width:0.5;opacity:1.0;" x1="776" x2="776" y1="1919" y2="1933"/>
  <g transform="matrix(0.2 0 0 0.2 776 1933)">
   <path d="m16.5527 0.78125c2.58789 0 3.85742-0.976562 4.78516-3.71094l6.29883-17.2363h28.8086l6.29883 17.2363c0.927734 2.73438 2.19727 3.71094 4.73633 3.71094 2.58789 0 4.24805-1.5625 4.24805-4.00391 0-0.830078-0.146484-1.61133-0.537109-2.63672l-22.9004-60.9863c-1.12305-2.97852-3.125-4.49219-6.25-4.49219-3.02734 0-5.07812 1.46484-6.15234 4.44336l-22.9004 61.084c-0.390625 1.02539-0.537109 1.80664-0.537109 2.63672 0 2.44141 1.5625 3.95508 4.10156 3.95508Zm13.4766-28.3691 11.8652-32.8613h0.244141l11.8652 32.8613Z"/>
  </g>
  <line style="fill:none;stroke:#00AEEF;stroke-width:0.5;opacity:1.0;" x1="792.836" x2="792.836" y1="1919" y2="1933"/>
  <text style="stroke:none;fill:black;font-family:sans-serif;font-size:13;font-weight:bold;" transform="matrix(1 0 0 1 776 1953)">Margins</text>
  <text style="stroke:none;fill:black;font-family:sans-serif;font-size:13;" transform="matrix(1 0 0 1 776 1971)">Leading and trailing margins on the left and right side of each symbol</text>
  <text style="stroke:none;fill:black;font-family:sans-serif;font-size:13;" transform="matrix(1 0 0 1 776 1989)">can be adjusted by modifying the x-location of the margin guidelines.</text>
  <text style="stroke:none;fill:black;font-family:sans-serif;font-size:13;" transform="matrix(1 0 0 1 776 2007)">Modifications are automatically applied proportionally to all</text>
  <text style="stroke:none;fill:black;font-family:sans-serif;font-size:13;" transform="matrix(1 0 0 1 776 2025)">scales and weights.</text>
  <g transform="matrix(0.2 0 0 0.2 1289 1933)">
   <path d="m14.209 9.32617 8.49609 8.54492c4.29688 4.3457 9.22852 4.05273 13.8672-1.07422l53.4668-58.9355-4.83398-4.88281-53.0762 58.3984c-1.75781 2.00195-3.41797 2.49023-5.76172 0.146484l-5.85938-5.81055c-2.34375-2.29492-1.80664-4.00391 0.195312-5.81055l57.373-54.0039-4.88281-4.83398-57.959 54.4434c-4.93164 4.58984-5.32227 9.47266-1.02539 13.8184Zm32.0801-90.9668c-2.09961 2.05078-2.24609 4.93164-1.07422 6.88477 1.17188 1.80664 3.4668 2.97852 6.68945 2.14844 7.32422-1.70898 14.9414-2.00195 22.0703 2.68555l-2.92969 7.27539c-1.70898 4.15039-0.830078 7.08008 1.85547 9.81445l11.4746 11.5723c2.44141 2.44141 4.49219 2.53906 7.32422 2.05078l5.32227-0.976562 3.32031 3.36914-0.195312 2.7832c-0.195312 2.49023 0.439453 4.39453 2.88086 6.78711l3.80859 3.71094c2.39258 2.39258 5.46875 2.53906 7.8125 0.195312l14.5508-14.5996c2.34375-2.34375 2.24609-5.32227-0.146484-7.71484l-3.85742-3.80859c-2.39258-2.39258-4.24805-3.17383-6.64062-2.97852l-2.88086 0.244141-3.22266-3.17383 1.2207-5.61523c0.634766-2.83203-0.146484-5.0293-3.07617-7.95898l-10.9863-10.9375c-16.6992-16.6016-38.8672-16.2109-53.3203-1.75781Zm7.4707 1.85547c12.1582-8.88672 28.6133-7.37305 39.7461 3.75977l12.1582 12.0605c1.17188 1.17188 1.36719 2.09961 1.02539 3.80859l-1.61133 7.42188 7.51953 7.42188 4.93164-0.292969c1.26953-0.0488281 1.66016 0.0488281 2.63672 1.02539l2.88086 2.88086-12.207 12.207-2.88086-2.88086c-0.976562-0.976562-1.12305-1.36719-1.07422-2.68555l0.341797-4.88281-7.4707-7.42188-7.61719 1.26953c-1.61133 0.341797-2.34375 0.195312-3.56445-0.976562l-10.0098-10.0098c-1.26953-1.17188-1.41602-2.00195-0.634766-3.85742l4.39453-10.4492c-7.8125-7.27539-17.9688-10.4004-28.125-7.42188-0.78125 0.195312-1.07422-0.439453-0.439453-0.976562Z"/>
  </g>
  <text style="stroke:none;fill:black;font-family:sans-serif;font-size:13;font-weight:bold;" transform="matrix(1 0 0 1 1289 1953)">Exporting</text>
  <text style="stroke:none;fill:black;font-family:sans-serif;font-size:13;" transform="matrix(1 0 0 1 1289 1971)">Symbols should be outlined when exporting to ensure the</text>
  <text style="stroke:none;fill:black;font-family:sans-serif;font-size:13;" transform="matrix(1 0 0 1 1289 1989)">design is preserved when submitting to Xcode.</text>
  <text id="template-version" style="stroke:none;fill:black;font-family:sans-serif;font-size:13;text-anchor:end;" transform="matrix(1 0 0 1 3036 1933)">Template v.6.0</text>
  <text style="stroke:none;fill:black;font-family:sans-serif;font-size:13;text-anchor:end;" transform="matrix(1 0 0 1 3036 1951)">Requires Xcode 16 or greater</text>
  <text id="descriptive-name" style="stroke:none;fill:black;font-family:sans-serif;font-size:13;text-anchor:end;" transform="matrix(1 0 0 1 3036 1969)">Generated from social.appstore</text>
  <text style="stroke:none;fill:black;font-family:sans-serif;font-size:13;text-anchor:end;" transform="matrix(1 0 0 1 3036 1987)">Typeset at 100.0 points</text>
  <text style="stroke:none;fill:black;font-family:sans-serif;font-size:13;" transform="matrix(1 0 0 1 263 726)">Small</text>
  <text style="stroke:none;fill:black;font-family:sans-serif;font-size:13;" transform="matrix(1 0 0 1 263 1156)">Medium</text>
  <text style="stroke:none;fill:black;font-family:sans-serif;font-size:13;" transform="matrix(1 0 0 1 263 1586)">Large</text>
 </g>
 <g id="Guides">
  <g id="H-reference" style="fill:#27AAE1;stroke:none;" transform="matrix(1 0 0 1 339 696)">
   <path d="M0.993654 0L3.63775 0L29.3281-67.1323L30.0303-67.1323L30.0303-70.459L28.1226-70.459ZM11.6885-24.4799L46.9815-24.4799L46.2315-26.7285L12.4385-26.7285ZM55.1196 0L57.7637 0L30.6382-70.459L29.4326-70.459L29.4326-67.1323Z"/>
  </g>
  <line id="Baseline-S" style="fill:none;stroke:#27AAE1;opacity:1;stroke-width:0.5;" x1="263" x2="3036" y1="696" y2="696"/>
  <line id="Capline-S" style="fill:none;stroke:#27AAE1;opacity:1;stroke-width:0.5;" x1="263" x2="3036" y1="625.541" y2="625.541"/>
  <g id="H-reference" style="fill:#27AAE1;stroke:none;" transform="matrix(1 0 0 1 339 1126)">
   <path d="M0.993654 0L3.63775 0L29.3281-67.1323L30.0303-67.1323L30.0303-70.459L28.1226-70.459ZM11.6885-24.4799L46.9815-24.4799L46.2315-26.7285L12.4385-26.7285ZM55.1196 0L57.7637 0L30.6382-70.459L29.4326-70.459L29.4326-67.1323Z"/>
  </g>
  <line id="Baseline-M" style="fill:none;stroke:#27AAE1;opacity:1;stroke-width:0.5;" x1="263" x2="3036" y1="1126" y2="1126"/>
  <line id="Capline-M" style="fill:none;stroke:#27AAE1;opacity:1;stroke-width:0.5;" x1="263" x2="3036" y1="1055.54" y2="1055.54"/>
  <g id="H-reference" style="fill:#27AAE1;stroke:none;" transform="matrix(1 0 0 1 339 1556)">
   <path d="M0.993654 0L3.63775 0L29.3281-67.1323L30.0303-67.1323L30.0303-70.459L28.1226-70.459ZM11.6885-24.4799L46.9815-24.4799L46.2315-26.7285L12.4385-26.7285ZM55.1196 0L57.7637 0L30.6382-70.459L29.4326-70.459L29.4326-67.1323Z"/>
  </g>
  <line id="Baseline-L" style="fill:none;stroke:#27AAE1;opacity:1;stroke-width:0.5;" x1="263" x2="3036" y1="1556" y2="1556"/>
  <line id="Capline-L" style="fill:none;stroke:#27AAE1;opacity:1;stroke-width:0.5;" x1="263" x2="3036" y1="1485.54" y2="1485.54"/>
  <line id="right-margin-Black-S" style="fill:none;stroke:#00AEEF;stroke-width:0.5;opacity:1.0;" x1="2982.2" x2="2982.2" y1="600.785" y2="720.121"/>
  <line id="left-margin-Black-S" style="fill:none;stroke:#00AEEF;stroke-width:0.5;opacity:1.0;" x1="2884.6" x2="2884.6" y1="600.785" y2="720.121"/>
  <line id="right-margin-Regular-S" style="fill:none;stroke:#00AEEF;stroke-width:0.5;opacity:1.0;" x1="1496.09" x2="1496.09" y1="600.785" y2="720.121"/>
  <line id="left-margin-Regular-S" style="fill:none;stroke:#00AEEF;stroke-width:0.5;opacity:1.0;" x1="1403.59" x2="1403.59" y1="600.785" y2="720.121"/>
  <line id="right-margin-Ultralight-S" style="fill:none;stroke:#00AEEF;stroke-width:0.5;opacity:1.0;" x1="603.811" x2="603.811" y1="600.785" y2="720.121"/>
  <line id="left-margin-Ultralight-S" style="fill:none;stroke:#00AEEF;stroke-width:0.5;opacity:1.0;" x1="515.611" x2="515.611" y1="600.785" y2="720.121"/>
 </g>
 <g id="Symbols">
  <g id="Black-S" transform="matrix(1 0 0 1 2884.6 696)">
   <path class="monochrome-0 multicolor-0:tintColor hierarchical-0:primary SFSymbolsPreviewWireframe" d="M36.1165-25.8227L55.8065-61.3857C56.0762-61.8732 56.3485-62.3588 56.5918-62.8628C56.8125-63.3203 57.0001-63.7824 57.1222-64.2815C57.3809-65.3317 57.3116-66.4263 56.9095-67.4287C56.5106-68.426 55.8085-69.2583 54.9114-69.7986C54.0216-70.3371 52.9747-70.5558 51.9437-70.4186C50.9104-70.28 49.9669-69.7951 49.2232-69.0369C48.8707-68.6767 48.5801-68.2761 48.3107-67.8479C48.0142-67.3765 47.7468-66.888 47.4761-66.4005L46.2311-64.1517L44.9857-66.4005C44.716-66.8886 44.4485-67.3768 44.1521-67.8479C43.8824-68.2761 43.5917-68.6767 43.2386-69.0369C42.4959-69.7951 41.5524-70.2797 40.519-70.4192C39.488-70.5561 38.4411-70.3372 37.5514-69.7986C36.6543-69.2583 35.9518-68.426 35.5526-67.4287C35.1511-66.4266 35.0818-65.3317 35.3399-64.2815C35.4624-63.7821 35.6499-63.32 35.871-62.8628C36.1136-62.3588 36.3859-61.8736 36.6562-61.3857L40.6776-54.1219L25.0095-25.8227L14.2727-25.8227C13.7327-25.8227 13.1929-25.8249 12.6532-25.793C12.1628-25.764 11.6853-25.7015 11.2097-25.563C10.2082-25.271 9.33368-24.6614 8.7018-23.7972C8.07347-22.9385 7.7332-21.8867 7.7332-20.8073C7.7332-19.7272 8.07379-18.6767 8.7018-17.818C9.33336-16.9535 10.2082-16.3439 11.2093-16.0522C11.6853-15.9137 12.1631-15.8515 12.6532-15.8219C13.1929-15.7896 13.7327-15.7928 14.2727-15.7928L56.4755-15.7928C56.5306-15.9079 56.6656-16.2098 56.7977-16.6619C58.1349-21.2216 54.8141-25.8227 50.2414-25.8227L36.1165-25.8227ZM17.6093-13.9926L15.2113-9.31458C14.9478-8.81417 14.6816-8.31569 14.4432-7.79852C14.2273-7.32872 14.0436-6.85441 13.9241-6.34207C13.6711-5.26392 13.7385-4.14001 14.1319-3.11051C14.5224-2.08745 15.2101-1.23195 16.0878-0.67805C16.9665-0.123824 17.986 0.10044 18.992-0.0416595C20.0034-0.183439 20.9269-0.681596 21.6545-1.46009C21.9999-1.83 22.2841-2.24115 22.5477-2.68034C22.8383-3.16464 23.1-3.66602 23.3645-4.16644L27.0666-11.1802C26.7778-11.6604 24.0141-15.9182 17.764-14.1505L17.6093-13.9926ZM84.097-23.8352C83.4756-24.6772 82.593-25.2898 81.5869-25.5775C81.1113-25.7144 80.6328-25.776 80.1424-25.8046C79.6017-25.8365 79.0623-25.834 78.5216-25.834L67.8213-25.834L53.6786-51.0221C51.5342-48.7649 50.5749-46.2371 50.2073-43.9409C49.674-40.6114 50.3255-37.1955 51.9666-34.273L68.9609-4.00563C69.2316-3.52423 69.4991-3.04219 69.7958-2.57658C70.0655-2.15446 70.3562-1.7591 70.7096-1.40368C71.454-0.655162 72.3975-0.176341 73.4321-0.040037C74.4606 0.0965865 75.504-0.118662 76.402-0.651936C77.2991-1.18457 78.0028-2.00656 78.403-2.99031C78.8045-3.98017 78.8735-5.06058 78.6151-6.09685C78.4923-6.58953 78.3051-7.0458 78.0834-7.49723C77.8408-7.99442 77.5685-8.47357 77.2978-8.95497L73.3796-15.935L78.5223-15.935C79.0626-15.935 79.602-15.9321 80.1427-15.964C80.6331-15.993 81.1116-16.0542 81.5872-16.1911C82.5933-16.4788 83.476-17.0914 84.0973-17.9334C84.7282-18.7878 85.0679-19.8222 85.0666-20.8843C85.0678-21.9464 84.7279-22.9808 84.097-23.8352Z"/>
  </g>
  <g id="Regular-S" transform="matrix(1 0 0 1 1403.59 696)">
   <path class="monochrome-0 multicolor-0:tintColor hierarchical-0:primary SFSymbolsPreviewWireframe" d="M36.1266-25.8227L55.8167-61.3857C56.0864-61.8732 56.3586-62.3588 56.6019-62.8628C56.8227-63.3203 57.0102-63.7824 57.1323-64.2815C57.3911-65.3317 57.3218-66.4263 56.9196-67.4287C56.5207-68.426 55.8186-69.2583 54.9215-69.7986C54.0318-70.3371 52.9848-70.5558 51.9539-70.4186C50.9205-70.28 49.977-69.7951 49.2333-69.0369C48.8808-68.6767 48.5902-68.2761 48.3208-67.8479C48.0244-67.3765 47.7569-66.888 47.4863-66.4005L46.2412-64.1517L44.9958-66.4005C44.7261-66.8886 44.4587-67.3768 44.1622-67.8479C43.8925-68.2761 43.6019-68.6767 43.2487-69.0369C42.506-69.7951 41.5625-70.2797 40.5291-70.4192C39.4981-70.5561 38.4512-70.3372 37.5615-69.7986C36.6644-69.2583 35.962-68.426 35.5627-67.4287C35.1612-66.4266 35.092-65.3317 35.3501-64.2815C35.4725-63.7821 35.66-63.32 35.8811-62.8628C36.1237-62.3588 36.396-61.8736 36.6663-61.3857L40.6877-54.1219L25.0196-25.8227L14.2828-25.8227C13.7428-25.8227 13.2031-25.8249 12.6634-25.793C12.1729-25.764 11.6954-25.7015 11.2198-25.563C10.2183-25.271 9.34381-24.6614 8.71194-23.7972C8.0836-22.9385 7.74334-21.8867 7.74334-20.8073C7.74334-19.7272 8.08393-18.6767 8.71194-17.818C9.34349-16.9535 10.2183-16.3439 11.2195-16.0522C11.6954-15.9137 12.1733-15.8515 12.6634-15.8219C13.2031-15.7896 13.7428-15.7928 14.2828-15.7928L56.4856-15.7928C56.5407-15.9079 56.6757-16.2098 56.8078-16.6619C58.1451-21.2216 54.8242-25.8227 50.2516-25.8227L36.1266-25.8227ZM17.6195-13.9926L15.2215-9.31458C14.9579-8.81417 14.6917-8.31569 14.4533-7.79852C14.2374-7.32872 14.0537-6.85441 13.9342-6.34207C13.6813-5.26392 13.7486-4.14001 14.142-3.11051C14.5326-2.08745 15.2202-1.23195 16.0979-0.67805C16.9766-0.123824 17.9961 0.10044 19.0021-0.0416595C20.0136-0.183439 20.9371-0.681596 21.6646-1.46009C22.0101-1.83 22.2943-2.24115 22.5578-2.68034C22.8485-3.16464 23.1101-3.66602 23.3747-4.16644L27.0767-11.1802C26.788-11.6604 24.0243-15.9182 17.7741-14.1505L17.6195-13.9926ZM84.1072-23.8352C83.4858-24.6772 82.6032-25.2898 81.5971-25.5775C81.1215-25.7144 80.6429-25.776 80.1525-25.8046C79.6118-25.8365 79.0724-25.834 78.5318-25.834L67.8314-25.834L53.6887-51.0221C51.5443-48.7649 50.5851-46.2371 50.2174-43.9409C49.6841-40.6114 50.3357-37.1955 51.9767-34.273L68.9711-4.00563C69.2417-3.52423 69.5092-3.04219 69.806-2.57658C70.0757-2.15446 70.3663-1.7591 70.7198-1.40368C71.4641-0.655162 72.4076-0.176341 73.4422-0.040037C74.4708 0.0965865 75.5141-0.118662 76.4122-0.651936C77.3092-1.18457 78.013-2.00656 78.4132-2.99031C78.8147-3.98017 78.8836-5.06058 78.6252-6.09685C78.5024-6.58953 78.3152-7.0458 78.0935-7.49723C77.8509-7.99442 77.5786-8.47357 77.3079-8.95497L73.3897-15.935L78.5324-15.935C79.0728-15.935 79.6122-15.9321 80.1528-15.964C80.6433-15.993 81.1218-16.0542 81.5974-16.1911C82.6035-16.4788 83.4861-17.0914 84.1075-17.9334C84.7383-18.7878 85.0781-19.8222 85.0767-20.8843C85.0779-21.9464 84.738-22.9808 84.1072-23.8352Z"/>
  </g>
  <g id="Ultralight-S" transform="matrix(1 0 0 1 515.611 696)">
   <path class="monochrome-0 multicolor-0:tintColor hierarchical-0:primary SFSymbolsPreviewWireframe" d="M34.1056-25.8227L53.7956-61.3857C54.0653-61.8732 54.3376-62.3588 54.5809-62.8628C54.8016-63.3203 54.9891-63.7824 55.1113-64.2815C55.37-65.3317 55.3007-66.4263 54.8986-67.4287C54.4997-68.426 53.7976-69.2583 52.9005-69.7986C52.0107-70.3371 50.9638-70.5558 49.9328-70.4186C48.8994-70.28 47.956-69.7951 47.2123-69.0369C46.8598-68.6767 46.5691-68.2761 46.2998-67.8479C46.0033-67.3765 45.7359-66.888 45.4652-66.4005L44.2201-64.1517L42.9747-66.4005C42.705-66.8886 42.4376-67.3768 42.1411-67.8479C41.8714-68.2761 41.5808-68.6767 41.2276-69.0369C40.4849-69.7951 39.5415-70.2797 38.5081-70.4192C37.4771-70.5561 36.4302-70.3372 35.5404-69.7986C34.6434-69.2583 33.9409-68.426 33.5417-67.4287C33.1402-66.4266 33.0709-65.3317 33.329-64.2815C33.4515-63.7821 33.639-63.32 33.86-62.8628C34.1027-62.3588 34.3749-61.8736 34.6453-61.3857L38.6666-54.1219L22.9986-25.8227L12.2618-25.8227C11.7217-25.8227 11.182-25.8249 10.6423-25.793C10.1519-25.764 9.67434-25.7015 9.19874-25.563C8.19727-25.271 7.32276-24.6614 6.69088-23.7972C6.06255-22.9385 5.72228-21.8867 5.72228-20.8073C5.72228-19.7272 6.06287-18.6767 6.69088-17.818C7.32244-16.9535 8.19727-16.3439 9.19841-16.0522C9.67434-15.9137 10.1522-15.8515 10.6423-15.8219C11.182-15.7896 11.7217-15.7928 12.2618-15.7928L54.4645-15.7928C54.5196-15.9079 54.6547-16.2098 54.7868-16.6619C56.124-21.2216 52.8032-25.8227 48.2305-25.8227L34.1056-25.8227ZM15.5984-13.9926L13.2004-9.31458C12.9368-8.81417 12.6707-8.31569 12.4322-7.79852C12.2163-7.32872 12.0327-6.85441 11.9131-6.34207C11.6602-5.26392 11.7275-4.14001 12.121-3.11051C12.5115-2.08745 13.1991-1.23195 14.0769-0.67805C14.9556-0.123824 15.9751 0.10044 16.9811-0.0416595C17.9925-0.183439 18.916-0.681596 19.6436-1.46009C19.989-1.83 20.2732-2.24115 20.5368-2.68034C20.8274-3.16464 21.0891-3.66602 21.3536-4.16644L25.0556-11.1802C24.7669-11.6604 22.0032-15.9182 15.7531-14.1505L15.5984-13.9926ZM82.0861-23.8352C81.4647-24.6772 80.5821-25.2898 79.576-25.5775C79.1004-25.7144 78.6219-25.776 78.1315-25.8046C77.5908-25.8365 77.0514-25.834 76.5107-25.834L65.8103-25.834L51.6677-51.0221C49.5233-48.7649 48.564-46.2371 48.1964-43.9409C47.6631-40.6114 48.3146-37.1955 49.9557-34.273L66.95-4.00563C67.2207-3.52423 67.4881-3.04219 67.7849-2.57658C68.0546-2.15446 68.3452-1.7591 68.6987-1.40368C69.4431-0.655162 70.3865-0.176341 71.4212-0.040037C72.4497 0.0965865 73.4931-0.118662 74.3911-0.651936C75.2882-1.18457 75.9919-2.00656 76.3921-2.99031C76.7936-3.98017 76.8626-5.06058 76.6041-6.09685C76.4814-6.58953 76.2941-7.0458 76.0725-7.49723C75.8298-7.99442 75.5575-8.47357 75.2869-8.95497L71.3687-15.935L76.5113-15.935C77.0517-15.935 77.5911-15.9321 78.1318-15.964C78.6222-15.993 79.1007-16.0542 79.5763-16.1911C80.5824-16.4788 81.465-17.0914 82.0864-17.9334C82.7172-18.7878 83.057-19.8222 83.0557-20.8843C83.0568-21.9464 82.717-22.9808 82.0861-23.8352Z"/>
  </g>
 </g>
</svg>
