<?xml version="1.0" encoding="UTF-8"?>
<!--Generator: Apple Native CoreSVG 341-->
<!DOCTYPE svg
PUBLIC "-//W3C//DTD SVG 1.1//EN"
       "http://www.w3.org/Graphics/SVG/1.1/DTD/svg11.dtd">
<svg version="1.1" xmlns="http://www.w3.org/2000/svg" xmlns:xlink="http://www.w3.org/1999/xlink" viewBox="0 0 3300 2200">
 <!--glyph: "", point size: 100.0, font version: "20.0d10e1", template writer version: "138.0.0"-->
 <style>.monochrome-0 {-sfsymbols-motion-group:2;-sfsymbols-layer-tags:-3bef0a6ff7fa0c20}
.monochrome-1 {-sfsymbols-motion-group:1;-sfsymbols-layer-tags:-3bef0a6ff7fa0c20}
.monochrome-2 {-sfsymbols-motion-group:0;-sfsymbols-layer-tags:-3bef0a6ff7fa0c20}

.multicolor-0:white {-sfsymbols-motion-group:3;-sfsymbols-layer-tags:-3bef0a6ff7fa0c20}
.multicolor-1:systemCyanColor {-sfsymbols-motion-group:2;-sfsymbols-layer-tags:-3bef0a6ff7fa0c20}
.multicolor-2:systemGreenColor {-sfsymbols-motion-group:1;-sfsymbols-layer-tags:-3bef0a6ff7fa0c20}
.multicolor-3:systemOrangeColor {-sfsymbols-motion-group:0;-sfsymbols-layer-tags:-3bef0a6ff7fa0c20}

.hierarchical-0:primary {-sfsymbols-motion-group:2;-sfsymbols-layer-tags:-3bef0a6ff7fa0c20}
.hierarchical-1:primary {-sfsymbols-motion-group:1;-sfsymbols-layer-tags:-3bef0a6ff7fa0c20}
.hierarchical-2:primary {-sfsymbols-motion-group:0;-sfsymbols-layer-tags:-3bef0a6ff7fa0c20}

.SFSymbolsPreviewWireframe {fill:none;opacity:1.0;stroke:black;stroke-width:0.5}
</style>
 <g id="Notes">
  <rect height="2200" id="artboard" style="fill:white;opacity:1" width="3300" x="0" y="0"/>
  <line style="fill:none;stroke:black;opacity:1;stroke-width:0.5;" x1="263" x2="3036" y1="292" y2="292"/>
  <text style="stroke:none;fill:black;font-family:sans-serif;font-size:13;font-weight:bold;" transform="matrix(1 0 0 1 263 322)">Weight/Scale Variations</text>
  <text style="stroke:none;fill:black;font-family:sans-serif;font-size:13;text-anchor:middle;" transform="matrix(1 0 0 1 559.711 322)">Ultralight</text>
  <text style="stroke:none;fill:black;font-family:sans-serif;font-size:13;text-anchor:middle;" transform="matrix(1 0 0 1 856.422 322)">Thin</text>
  <text style="stroke:none;fill:black;font-family:sans-serif;font-size:13;text-anchor:middle;" transform="matrix(1 0 0 1 1153.13 322)">Light</text>
  <text style="stroke:none;fill:black;font-family:sans-serif;font-size:13;text-anchor:middle;" transform="matrix(1 0 0 1 1449.84 322)">Regular</text>
  <text style="stroke:none;fill:black;font-family:sans-serif;font-size:13;text-anchor:middle;" transform="matrix(1 0 0 1 1746.56 322)">Medium</text>
  <text style="stroke:none;fill:black;font-family:sans-serif;font-size:13;text-anchor:middle;" transform="matrix(1 0 0 1 2043.27 322)">Semibold</text>
  <text style="stroke:none;fill:black;font-family:sans-serif;font-size:13;text-anchor:middle;" transform="matrix(1 0 0 1 2339.98 322)">Bold</text>
  <text style="stroke:none;fill:black;font-family:sans-serif;font-size:13;text-anchor:middle;" transform="matrix(1 0 0 1 2636.69 322)">Heavy</text>
  <text style="stroke:none;fill:black;font-family:sans-serif;font-size:13;text-anchor:middle;" transform="matrix(1 0 0 1 2933.4 322)">Black</text>
  <line style="fill:none;stroke:black;opacity:1;stroke-width:0.5;" x1="263" x2="3036" y1="1903" y2="1903"/>
  <g transform="matrix(0.2 0 0 0.2 263 1933)">
   <path d="m46.2402 4.15039c21.7773 0 39.4531-17.627 39.4531-39.4043s-17.6758-39.4043-39.4531-39.4043c-21.7285 0-39.4043 17.627-39.4043 39.4043s17.6758 39.4043 39.4043 39.4043Zm0-7.42188c-17.6758 0-31.9336-14.3066-31.9336-31.9824s14.2578-31.9824 31.9336-31.9824 31.9824 14.3066 31.9824 31.9824-14.3066 31.9824-31.9824 31.9824Zm-17.9688-31.9824c0 2.14844 1.51367 3.61328 3.75977 3.61328h10.498v10.5957c0 2.19727 1.46484 3.71094 3.61328 3.71094 2.24609 0 3.71094-1.51367 3.71094-3.71094v-10.5957h10.5957c2.19727 0 3.71094-1.46484 3.71094-3.61328 0-2.19727-1.51367-3.71094-3.71094-3.71094h-10.5957v-10.5469c0-2.24609-1.46484-3.75977-3.71094-3.75977-2.14844 0-3.61328 1.51367-3.61328 3.75977v10.5469h-10.498c-2.24609 0-3.75977 1.51367-3.75977 3.71094Z"/>
  </g>
  <g transform="matrix(0.2 0 0 0.2 281.506 1933)">
   <path d="m58.5449 14.5508c27.4902 0 49.8047-22.3145 49.8047-49.8047s-22.3145-49.8047-49.8047-49.8047-49.8047 22.3145-49.8047 49.8047 22.3145 49.8047 49.8047 49.8047Zm0-8.30078c-22.9492 0-41.5039-18.5547-41.5039-41.5039s18.5547-41.5039 41.5039-41.5039 41.5039 18.5547 41.5039 41.5039-18.5547 41.5039-41.5039 41.5039Zm-22.6562-41.5039c0 2.39258 1.66016 4.00391 4.15039 4.00391h14.3555v14.4043c0 2.44141 1.66016 4.15039 4.05273 4.15039 2.44141 0 4.15039-1.66016 4.15039-4.15039v-14.4043h14.4043c2.44141 0 4.15039-1.61133 4.15039-4.00391 0-2.44141-1.70898-4.15039-4.15039-4.15039h-14.4043v-14.3555c0-2.49023-1.70898-4.19922-4.15039-4.19922-2.39258 0-4.05273 1.70898-4.05273 4.19922v14.3555h-14.3555c-2.49023 0-4.15039 1.70898-4.15039 4.15039Z"/>
  </g>
  <g transform="matrix(0.2 0 0 0.2 304.924 1933)">
   <path d="m74.8535 28.3203c35.1074 0 63.623-28.4668 63.623-63.5742s-28.5156-63.623-63.623-63.623-63.5742 28.5156-63.5742 63.623 28.4668 63.5742 63.5742 63.5742Zm0-9.08203c-30.127 0-54.4922-24.3652-54.4922-54.4922s24.3652-54.4922 54.4922-54.4922 54.4922 24.3652 54.4922 54.4922-24.3652 54.4922-54.4922 54.4922Zm-28.8574-54.4922c0 2.58789 1.85547 4.39453 4.58984 4.39453h19.7266v19.7754c0 2.68555 1.85547 4.58984 4.44336 4.58984 2.68555 0 4.54102-1.85547 4.54102-4.58984v-19.7754h19.7754c2.68555 0 4.58984-1.80664 4.58984-4.39453 0-2.73438-1.85547-4.58984-4.58984-4.58984h-19.7754v-19.7266c0-2.73438-1.85547-4.63867-4.54102-4.63867-2.58789 0-4.44336 1.9043-4.44336 4.63867v19.7266h-19.7266c-2.73438 0-4.58984 1.85547-4.58984 4.58984Z"/>
  </g>
  <text style="stroke:none;fill:black;font-family:sans-serif;font-size:13;font-weight:bold;" transform="matrix(1 0 0 1 263 1953)">Design Variations</text>
  <text style="stroke:none;fill:black;font-family:sans-serif;font-size:13;" transform="matrix(1 0 0 1 263 1971)">Symbols are supported in up to nine weights and three scales.</text>
  <text style="stroke:none;fill:black;font-family:sans-serif;font-size:13;" transform="matrix(1 0 0 1 263 1989)">For optimal layout with text and other symbols, vertically align</text>
  <text style="stroke:none;fill:black;font-family:sans-serif;font-size:13;" transform="matrix(1 0 0 1 263 2007)">symbols with the adjacent text.</text>
  <line style="fill:none;stroke:#00AEEF;stroke-width:0.5;opacity:1.0;" x1="776" x2="776" y1="1919" y2="1933"/>
  <g transform="matrix(0.2 0 0 0.2 776 1933)">
   <path d="m16.5527 0.78125c2.58789 0 3.85742-0.976562 4.78516-3.71094l6.29883-17.2363h28.8086l6.29883 17.2363c0.927734 2.73438 2.19727 3.71094 4.73633 3.71094 2.58789 0 4.24805-1.5625 4.24805-4.00391 0-0.830078-0.146484-1.61133-0.537109-2.63672l-22.9004-60.9863c-1.12305-2.97852-3.125-4.49219-6.25-4.49219-3.02734 0-5.07812 1.46484-6.15234 4.44336l-22.9004 61.084c-0.390625 1.02539-0.537109 1.80664-0.537109 2.63672 0 2.44141 1.5625 3.95508 4.10156 3.95508Zm13.4766-28.3691 11.8652-32.8613h0.244141l11.8652 32.8613Z"/>
  </g>
  <line style="fill:none;stroke:#00AEEF;stroke-width:0.5;opacity:1.0;" x1="792.836" x2="792.836" y1="1919" y2="1933"/>
  <text style="stroke:none;fill:black;font-family:sans-serif;font-size:13;font-weight:bold;" transform="matrix(1 0 0 1 776 1953)">Margins</text>
  <text style="stroke:none;fill:black;font-family:sans-serif;font-size:13;" transform="matrix(1 0 0 1 776 1971)">Leading and trailing margins on the left and right side of each symbol</text>
  <text style="stroke:none;fill:black;font-family:sans-serif;font-size:13;" transform="matrix(1 0 0 1 776 1989)">can be adjusted by modifying the x-location of the margin guidelines.</text>
  <text style="stroke:none;fill:black;font-family:sans-serif;font-size:13;" transform="matrix(1 0 0 1 776 2007)">Modifications are automatically applied proportionally to all</text>
  <text style="stroke:none;fill:black;font-family:sans-serif;font-size:13;" transform="matrix(1 0 0 1 776 2025)">scales and weights.</text>
  <g transform="matrix(0.2 0 0 0.2 1289 1933)">
   <path d="m14.209 9.32617 8.49609 8.54492c4.29688 4.3457 9.22852 4.05273 13.8672-1.07422l53.4668-58.9355-4.83398-4.88281-53.0762 58.3984c-1.75781 2.00195-3.41797 2.49023-5.76172 0.146484l-5.85938-5.81055c-2.34375-2.29492-1.80664-4.00391 0.195312-5.81055l57.373-54.0039-4.88281-4.83398-57.959 54.4434c-4.93164 4.58984-5.32227 9.47266-1.02539 13.8184Zm32.0801-90.9668c-2.09961 2.05078-2.24609 4.93164-1.07422 6.88477 1.17188 1.80664 3.4668 2.97852 6.68945 2.14844 7.32422-1.70898 14.9414-2.00195 22.0703 2.68555l-2.92969 7.27539c-1.70898 4.15039-0.830078 7.08008 1.85547 9.81445l11.4746 11.5723c2.44141 2.44141 4.49219 2.53906 7.32422 2.05078l5.32227-0.976562 3.32031 3.36914-0.195312 2.7832c-0.195312 2.49023 0.439453 4.39453 2.88086 6.78711l3.80859 3.71094c2.39258 2.39258 5.46875 2.53906 7.8125 0.195312l14.5508-14.5996c2.34375-2.34375 2.24609-5.32227-0.146484-7.71484l-3.85742-3.80859c-2.39258-2.39258-4.24805-3.17383-6.64062-2.97852l-2.88086 0.244141-3.22266-3.17383 1.2207-5.61523c0.634766-2.83203-0.146484-5.0293-3.07617-7.95898l-10.9863-10.9375c-16.6992-16.6016-38.8672-16.2109-53.3203-1.75781Zm7.4707 1.85547c12.1582-8.88672 28.6133-7.37305 39.7461 3.75977l12.1582 12.0605c1.17188 1.17188 1.36719 2.09961 1.02539 3.80859l-1.61133 7.42188 7.51953 7.42188 4.93164-0.292969c1.26953-0.0488281 1.66016 0.0488281 2.63672 1.02539l2.88086 2.88086-12.207 12.207-2.88086-2.88086c-0.976562-0.976562-1.12305-1.36719-1.07422-2.68555l0.341797-4.88281-7.4707-7.42188-7.61719 1.26953c-1.61133 0.341797-2.34375 0.195312-3.56445-0.976562l-10.0098-10.0098c-1.26953-1.17188-1.41602-2.00195-0.634766-3.85742l4.39453-10.4492c-7.8125-7.27539-17.9688-10.4004-28.125-7.42188-0.78125 0.195312-1.07422-0.439453-0.439453-0.976562Z"/>
  </g>
  <text style="stroke:none;fill:black;font-family:sans-serif;font-size:13;font-weight:bold;" transform="matrix(1 0 0 1 1289 1953)">Exporting</text>
  <text style="stroke:none;fill:black;font-family:sans-serif;font-size:13;" transform="matrix(1 0 0 1 1289 1971)">Symbols should be outlined when exporting to ensure the</text>
  <text style="stroke:none;fill:black;font-family:sans-serif;font-size:13;" transform="matrix(1 0 0 1 1289 1989)">design is preserved when submitting to Xcode.</text>
  <text id="template-version" style="stroke:none;fill:black;font-family:sans-serif;font-size:13;text-anchor:end;" transform="matrix(1 0 0 1 3036 1933)">Template v.6.0</text>
  <text style="stroke:none;fill:black;font-family:sans-serif;font-size:13;text-anchor:end;" transform="matrix(1 0 0 1 3036 1951)">Requires Xcode 16 or greater</text>
  <text id="descriptive-name" style="stroke:none;fill:black;font-family:sans-serif;font-size:13;text-anchor:end;" transform="matrix(1 0 0 1 3036 1969)">Generated from social.letterboxd</text>
  <text style="stroke:none;fill:black;font-family:sans-serif;font-size:13;text-anchor:end;" transform="matrix(1 0 0 1 3036 1987)">Typeset at 100.0 points</text>
  <text style="stroke:none;fill:black;font-family:sans-serif;font-size:13;" transform="matrix(1 0 0 1 263 726)">Small</text>
  <text style="stroke:none;fill:black;font-family:sans-serif;font-size:13;" transform="matrix(1 0 0 1 263 1156)">Medium</text>
  <text style="stroke:none;fill:black;font-family:sans-serif;font-size:13;" transform="matrix(1 0 0 1 263 1586)">Large</text>
 </g>
 <g id="Guides">
  <g id="H-reference" style="fill:#27AAE1;stroke:none;" transform="matrix(1 0 0 1 339 696)">
   <path d="M0.993654 0L3.63775 0L29.3281-67.1323L30.0303-67.1323L30.0303-70.459L28.1226-70.459ZM11.6885-24.4799L46.9815-24.4799L46.2315-26.7285L12.4385-26.7285ZM55.1196 0L57.7637 0L30.6382-70.459L29.4326-70.459L29.4326-67.1323Z"/>
  </g>
  <line id="Baseline-S" style="fill:none;stroke:#27AAE1;opacity:1;stroke-width:0.5;" x1="263" x2="3036" y1="696" y2="696"/>
  <line id="Capline-S" style="fill:none;stroke:#27AAE1;opacity:1;stroke-width:0.5;" x1="263" x2="3036" y1="625.541" y2="625.541"/>
  <g id="H-reference" style="fill:#27AAE1;stroke:none;" transform="matrix(1 0 0 1 339 1126)">
   <path d="M0.993654 0L3.63775 0L29.3281-67.1323L30.0303-67.1323L30.0303-70.459L28.1226-70.459ZM11.6885-24.4799L46.9815-24.4799L46.2315-26.7285L12.4385-26.7285ZM55.1196 0L57.7637 0L30.6382-70.459L29.4326-70.459L29.4326-67.1323Z"/>
  </g>
  <line id="Baseline-M" style="fill:none;stroke:#27AAE1;opacity:1;stroke-width:0.5;" x1="263" x2="3036" y1="1126" y2="1126"/>
  <line id="Capline-M" style="fill:none;stroke:#27AAE1;opacity:1;stroke-width:0.5;" x1="263" x2="3036" y1="1055.54" y2="1055.54"/>
  <g id="H-reference" style="fill:#27AAE1;stroke:none;" transform="matrix(1 0 0 1 339 1556)">
   <path d="M0.993654 0L3.63775 0L29.3281-67.1323L30.0303-67.1323L30.0303-70.459L28.1226-70.459ZM11.6885-24.4799L46.9815-24.4799L46.2315-26.7285L12.4385-26.7285ZM55.1196 0L57.7637 0L30.6382-70.459L29.4326-70.459L29.4326-67.1323Z"/>
  </g>
  <line id="Baseline-L" style="fill:none;stroke:#27AAE1;opacity:1;stroke-width:0.5;" x1="263" x2="3036" y1="1556" y2="1556"/>
  <line id="Capline-L" style="fill:none;stroke:#27AAE1;opacity:1;stroke-width:0.5;" x1="263" x2="3036" y1="1485.54" y2="1485.54"/>
  <line id="right-margin-Black-S" style="fill:none;stroke:#FF3B30;stroke-width:0.5;opacity:1.0;" x1="2982.2" x2="2982.2" y1="600.785" y2="720.121"/>
  <line id="left-margin-Black-S" style="fill:none;stroke:#00AEEF;stroke-width:0.5;opacity:1.0;" x1="2884.6" x2="2884.6" y1="600.785" y2="720.121"/>
  <line id="right-margin-Regular-S" style="fill:none;stroke:#FF3B30;stroke-width:0.5;opacity:1.0;" x1="1496.09" x2="1496.09" y1="600.785" y2="720.121"/>
  <line id="left-margin-Regular-S" style="fill:none;stroke:#00AEEF;stroke-width:0.5;opacity:1.0;" x1="1403.59" x2="1403.59" y1="600.785" y2="720.121"/>
  <line id="right-margin-Ultralight-S" style="fill:none;stroke:#FF3B30;stroke-width:0.5;opacity:1.0;" x1="603.811" x2="603.811" y1="600.785" y2="720.121"/>
  <line id="left-margin-Ultralight-S" style="fill:none;stroke:#FF3B30;stroke-width:0.5;opacity:1.0;" x1="515.611" x2="515.611" y1="600.785" y2="720.121"/>
 </g>
 <g id="Symbols">
  <g id="Black-S" transform="matrix(1 0 0 1 2884.6 696)">
   <path class="multicolor-0:white SFSymbolsPreviewWireframe" d="M79.1754-54.3585C72.9092-54.3585 67.3819-51.2256 64.0508-46.4477C60.7322-51.3148 55.1462-54.5126 48.811-54.5126C42.5103-54.5126 36.9539-51.3471 33.6288-46.5247C30.3037-51.3471 24.7473-54.5126 18.4466-54.5126C8.2649-54.5126 0.0110474-46.2587 0.0110474-36.077C0.0110474-25.8954 8.2649-17.6415 18.4466-17.6415C24.7473-17.6415 30.3037-20.8069 33.6288-25.6294C36.9539-20.8069 42.5103-17.6415 48.811-17.6415C55.0771-17.6415 60.6044-20.7744 63.9356-25.5523C67.2542-20.6852 72.8401-17.4874 79.1754-17.4874C89.357-17.4874 97.6109-25.7413 97.6109-35.923C97.6109-46.1046 89.357-54.3585 79.1754-54.3585Z"/>
   <path class="monochrome-0 multicolor-1:systemCyanColor hierarchical-0:primary SFSymbolsPreviewWireframe" d="M79.1754-54.3585C72.9092-54.3585 67.3819-51.2256 64.0508-46.4477C66.0657-43.4926 67.2465-39.9235 67.2465-36.077C67.2465-32.1615 66.0172-28.5378 63.9356-25.5523C67.2542-20.6852 72.8401-17.4874 79.1754-17.4874C89.357-17.4874 97.6109-25.7413 97.6109-35.923C97.6109-46.1046 89.357-54.3585 79.1754-54.3585Z"/>
   <path class="monochrome-1 multicolor-2:systemGreenColor hierarchical-1:primary SFSymbolsPreviewWireframe" d="M60.7398-35.923C60.7398-39.8385 61.9692-43.4622 64.0508-46.4477C60.7322-51.3148 55.1462-54.5126 48.811-54.5126C42.5103-54.5126 36.9539-51.3471 33.6288-46.5247C35.6769-43.5542 36.8821-39.958 36.8821-36.077C36.8821-32.196 35.6769-28.5998 33.6288-25.6294C36.9539-20.8069 42.5103-17.6415 48.811-17.6415C55.0771-17.6415 60.6044-20.7744 63.9356-25.5523C61.9207-28.5074 60.7398-32.0765 60.7398-35.923Z"/>
   <path class="monochrome-2 multicolor-3:systemOrangeColor hierarchical-2:primary SFSymbolsPreviewWireframe" d="M30.3754-36.077C30.3754-39.958 31.5806-43.5542 33.6288-46.5247C30.3037-51.3471 24.7473-54.5126 18.4466-54.5126C8.2649-54.5126 0.0110474-46.2587 0.0110474-36.077C0.0110474-25.8954 8.2649-17.6415 18.4466-17.6415C24.7473-17.6415 30.3037-20.8069 33.6288-25.6294C31.5806-28.5998 30.3754-32.196 30.3754-36.077Z"/>
  </g>
  <g id="Regular-S" transform="matrix(1 0 0 1 1403.59 696)">
   <path class="multicolor-0:white SFSymbolsPreviewWireframe" d="M75.0761-53.3992C69.1374-53.3992 63.8989-50.43 60.7418-45.9018C57.5966-50.5146 52.3025-53.5452 46.2983-53.5452C40.3269-53.5452 35.0608-50.5452 31.9095-45.9747C28.7581-50.5452 23.492-53.5452 17.5206-53.5452C7.87091-53.5452 0.0483449-45.7226 0.0483449-36.073C0.0483449-26.4234 7.87091-18.6008 17.5206-18.6008C23.492-18.6008 28.7581-21.6008 31.9095-26.1712C35.0608-21.6008 40.3269-18.6008 46.2983-18.6008C52.237-18.6008 57.4756-21.57 60.6327-26.0982C63.7778-21.4854 69.0719-18.4548 75.0761-18.4548C84.7258-18.4548 92.5483-26.2774 92.5483-35.927C92.5483-45.5766 84.7258-53.3992 75.0761-53.3992Z"/>
   <path class="monochrome-0 multicolor-1:systemCyanColor hierarchical-0:primary SFSymbolsPreviewWireframe" d="M75.0761-53.3992C69.1374-53.3992 63.8989-50.43 60.7418-45.9018C62.6515-43.1011 63.7706-39.7185 63.7706-36.073C63.7706-32.3621 62.6055-28.9278 60.6327-26.0982C63.7778-21.4854 69.0719-18.4548 75.0761-18.4548C84.7258-18.4548 92.5483-26.2774 92.5483-35.927C92.5483-45.5766 84.7258-53.3992 75.0761-53.3992Z"/>
   <path class="monochrome-1 multicolor-2:systemGreenColor hierarchical-1:primary SFSymbolsPreviewWireframe" d="M57.6039-35.927C57.6039-39.6379 58.769-43.0722 60.7418-45.9018C57.5966-50.5146 52.3025-53.5452 46.2983-53.5452C40.3269-53.5452 35.0608-50.5452 31.9095-45.9747C33.8506-43.1595 34.9928-39.7512 34.9928-36.073C34.9928-32.3948 33.8506-28.9865 31.9095-26.1712C35.0608-21.6008 40.3269-18.6008 46.2983-18.6008C52.237-18.6008 57.4756-21.57 60.6327-26.0982C58.723-28.8989 57.6039-32.2815 57.6039-35.927Z"/>
   <path class="monochrome-2 multicolor-3:systemOrangeColor hierarchical-2:primary SFSymbolsPreviewWireframe" d="M28.8261-36.073C28.8261-39.7512 29.9683-43.1595 31.9095-45.9747C28.7581-50.5452 23.492-53.5452 17.5206-53.5452C7.87091-53.5452 0.0483449-45.7226 0.0483449-36.073C0.0483449-26.4234 7.87091-18.6008 17.5206-18.6008C23.492-18.6008 28.7581-21.6008 31.9095-26.1712C29.9683-28.9865 28.8261-32.3948 28.8261-36.073Z"/>
  </g>
  <g id="Ultralight-S" transform="matrix(1 0 0 1 515.611 696)">
   <path class="multicolor-0:white SFSymbolsPreviewWireframe" d="M71.54-52.5904C65.8774-52.5904 60.8824-49.7592 57.872-45.4415C54.8731-49.8399 49.8251-52.7296 44.1-52.7296C38.4061-52.7296 33.3848-49.869 30.38-45.511C27.3752-49.869 22.3539-52.7296 16.66-52.7296C7.45892-52.7296 0-45.2706 0-36.0696C0-26.8685 7.45892-19.4096 16.66-19.4096C22.3539-19.4096 27.3752-22.2702 30.38-26.6282C33.3848-22.2702 38.4061-19.4096 44.1-19.4096C49.7626-19.4096 54.7576-22.2408 57.768-26.5585C60.7669-22.1601 65.8149-19.2704 71.54-19.2704C80.7411-19.2704 88.2-26.7294 88.2-35.9304C88.2-45.1315 80.7411-52.5904 71.54-52.5904Z"/>
   <path class="monochrome-0 multicolor-1:systemCyanColor hierarchical-0:primary SFSymbolsPreviewWireframe" d="M71.54-52.5904C65.8774-52.5904 60.8824-49.7592 57.872-45.4415C59.6929-42.771 60.76-39.5456 60.76-36.0696C60.76-32.5312 59.6491-29.2565 57.768-26.5585C60.7669-22.1601 65.8149-19.2704 71.54-19.2704C80.7411-19.2704 88.2-26.7294 88.2-35.9304C88.2-45.1315 80.7411-52.5904 71.54-52.5904Z"/>
   <path class="monochrome-1 multicolor-2:systemGreenColor hierarchical-1:primary SFSymbolsPreviewWireframe" d="M54.88-35.9304C54.88-39.4688 55.9909-42.7435 57.872-45.4415C54.8731-49.8399 49.8251-52.7296 44.1-52.7296C38.4061-52.7296 33.3848-49.869 30.38-45.511C32.2309-42.8267 33.32-39.5768 33.32-36.0696C33.32-32.5624 32.2309-29.3125 30.38-26.6282C33.3848-22.2702 38.4061-19.4096 44.1-19.4096C49.7626-19.4096 54.7576-22.2408 57.768-26.5585C55.9471-29.229 54.88-32.4544 54.88-35.9304Z"/>
   <path class="monochrome-2 multicolor-3:systemOrangeColor hierarchical-2:primary SFSymbolsPreviewWireframe" d="M27.44-36.0696C27.44-39.5768 28.5291-42.8267 30.38-45.511C27.3752-49.869 22.3539-52.7296 16.66-52.7296C7.45892-52.7296 0-45.2706 0-36.0696C0-26.8685 7.45892-19.4096 16.66-19.4096C22.3539-19.4096 27.3752-22.2702 30.38-26.6282C28.5291-29.3125 27.44-32.5624 27.44-36.0696Z"/>
  </g>
 </g>
</svg>
