<?xml version="1.0" encoding="UTF-8"?>
<!--Generator: Apple Native CoreSVG 341-->
<!DOCTYPE svg
PUBLIC "-//W3C//DTD SVG 1.1//EN"
       "http://www.w3.org/Graphics/SVG/1.1/DTD/svg11.dtd">
<svg version="1.1" xmlns="http://www.w3.org/2000/svg" xmlns:xlink="http://www.w3.org/1999/xlink" viewBox="0 0 3300 2200">
 <!--glyph: "", point size: 100.0, font version: "20.0d10e1", template writer version: "138.0.0"-->
 <style>.monochrome-0 {-sfsymbols-motion-group:1;-sfsymbols-layer-tags:512ddecc62d93107 square.fill}
.monochrome-1 {opacity:0.0;-sfsymbols-clear-behind:true;-sfsymbols-motion-group:0;-sfsymbols-always-pulses:true;-sfsymbols-layer-tags:512ddecc62d93107 604c065dea129b21}

.multicolor-0:systemIndigoColor {-sfsymbols-motion-group:1;-sfsymbols-layer-tags:512ddecc62d93107 square.fill}
.multicolor-1:white {-sfsymbols-motion-group:0;-sfsymbols-always-pulses:true;-sfsymbols-layer-tags:512ddecc62d93107 604c065dea129b21}

.hierarchical-0:tertiary {-sfsymbols-motion-group:1;-sfsymbols-layer-tags:512ddecc62d93107 square.fill}
.hierarchical-1:primary {-sfsymbols-motion-group:0;-sfsymbols-layer-tags:512ddecc62d93107 604c065dea129b21}

.SFSymbolsPreviewWireframe {fill:none;opacity:1.0;stroke:black;stroke-width:0.5}
</style>
 <g id="Notes">
  <rect height="2200" id="artboard" style="fill:white;opacity:1" width="3300" x="0" y="0"/>
  <line style="fill:none;stroke:black;opacity:1;stroke-width:0.5;" x1="263" x2="3036" y1="292" y2="292"/>
  <text style="stroke:none;fill:black;font-family:sans-serif;font-size:13;font-weight:bold;" transform="matrix(1 0 0 1 263 322)">Weight/Scale Variations</text>
  <text style="stroke:none;fill:black;font-family:sans-serif;font-size:13;text-anchor:middle;" transform="matrix(1 0 0 1 559.711 322)">Ultralight</text>
  <text style="stroke:none;fill:black;font-family:sans-serif;font-size:13;text-anchor:middle;" transform="matrix(1 0 0 1 856.422 322)">Thin</text>
  <text style="stroke:none;fill:black;font-family:sans-serif;font-size:13;text-anchor:middle;" transform="matrix(1 0 0 1 1153.13 322)">Light</text>
  <text style="stroke:none;fill:black;font-family:sans-serif;font-size:13;text-anchor:middle;" transform="matrix(1 0 0 1 1449.84 322)">Regular</text>
  <text style="stroke:none;fill:black;font-family:sans-serif;font-size:13;text-anchor:middle;" transform="matrix(1 0 0 1 1746.56 322)">Medium</text>
  <text style="stroke:none;fill:black;font-family:sans-serif;font-size:13;text-anchor:middle;" transform="matrix(1 0 0 1 2043.27 322)">Semibold</text>
  <text style="stroke:none;fill:black;font-family:sans-serif;font-size:13;text-anchor:middle;" transform="matrix(1 0 0 1 2339.98 322)">Bold</text>
  <text style="stroke:none;fill:black;font-family:sans-serif;font-size:13;text-anchor:middle;" transform="matrix(1 0 0 1 2636.69 322)">Heavy</text>
  <text style="stroke:none;fill:black;font-family:sans-serif;font-size:13;text-anchor:middle;" transform="matrix(1 0 0 1 2933.4 322)">Black</text>
  <line style="fill:none;stroke:black;opacity:1;stroke-width:0.5;" x1="263" x2="3036" y1="1903" y2="1903"/>
  <g transform="matrix(0.2 0 0 0.2 263 1933)">
   <path d="m46.2402 4.15039c21.7773 0 39.4531-17.627 39.4531-39.4043s-17.6758-39.4043-39.4531-39.4043c-21.7285 0-39.4043 17.627-39.4043 39.4043s17.6758 39.4043 39.4043 39.4043Zm0-7.42188c-17.6758 0-31.9336-14.3066-31.9336-31.9824s14.2578-31.9824 31.9336-31.9824 31.9824 14.3066 31.9824 31.9824-14.3066 31.9824-31.9824 31.9824Zm-17.9688-31.9824c0 2.14844 1.51367 3.61328 3.75977 3.61328h10.498v10.5957c0 2.19727 1.46484 3.71094 3.61328 3.71094 2.24609 0 3.71094-1.51367 3.71094-3.71094v-10.5957h10.5957c2.19727 0 3.71094-1.46484 3.71094-3.61328 0-2.19727-1.51367-3.71094-3.71094-3.71094h-10.5957v-10.5469c0-2.24609-1.46484-3.75977-3.71094-3.75977-2.14844 0-3.61328 1.51367-3.61328 3.75977v10.5469h-10.498c-2.24609 0-3.75977 1.51367-3.75977 3.71094Z"/>
  </g>
  <g transform="matrix(0.2 0 0 0.2 281.506 1933)">
   <path d="m58.5449 14.5508c27.4902 0 49.8047-22.3145 49.8047-49.8047s-22.3145-49.8047-49.8047-49.8047-49.8047 22.3145-49.8047 49.8047 22.3145 49.8047 49.8047 49.8047Zm0-8.30078c-22.9492 0-41.5039-18.5547-41.5039-41.5039s18.5547-41.5039 41.5039-41.5039 41.5039 18.5547 41.5039 41.5039-18.5547 41.5039-41.5039 41.5039Zm-22.6562-41.5039c0 2.39258 1.66016 4.00391 4.15039 4.00391h14.3555v14.4043c0 2.44141 1.66016 4.15039 4.05273 4.15039 2.44141 0 4.15039-1.66016 4.15039-4.15039v-14.4043h14.4043c2.44141 0 4.15039-1.61133 4.15039-4.00391 0-2.44141-1.70898-4.15039-4.15039-4.15039h-14.4043v-14.3555c0-2.49023-1.70898-4.19922-4.15039-4.19922-2.39258 0-4.05273 1.70898-4.05273 4.19922v14.3555h-14.3555c-2.49023 0-4.15039 1.70898-4.15039 4.15039Z"/>
  </g>
  <g transform="matrix(0.2 0 0 0.2 304.924 1933)">
   <path d="m74.8535 28.3203c35.1074 0 63.623-28.4668 63.623-63.5742s-28.5156-63.623-63.623-63.623-63.5742 28.5156-63.5742 63.623 28.4668 63.5742 63.5742 63.5742Zm0-9.08203c-30.127 0-54.4922-24.3652-54.4922-54.4922s24.3652-54.4922 54.4922-54.4922 54.4922 24.3652 54.4922 54.4922-24.3652 54.4922-54.4922 54.4922Zm-28.8574-54.4922c0 2.58789 1.85547 4.39453 4.58984 4.39453h19.7266v19.7754c0 2.68555 1.85547 4.58984 4.44336 4.58984 2.68555 0 4.54102-1.85547 4.54102-4.58984v-19.7754h19.7754c2.68555 0 4.58984-1.80664 4.58984-4.39453 0-2.73438-1.85547-4.58984-4.58984-4.58984h-19.7754v-19.7266c0-2.73438-1.85547-4.63867-4.54102-4.63867-2.58789 0-4.44336 1.9043-4.44336 4.63867v19.7266h-19.7266c-2.73438 0-4.58984 1.85547-4.58984 4.58984Z"/>
  </g>
  <text style="stroke:none;fill:black;font-family:sans-serif;font-size:13;font-weight:bold;" transform="matrix(1 0 0 1 263 1953)">Design Variations</text>
  <text style="stroke:none;fill:black;font-family:sans-serif;font-size:13;" transform="matrix(1 0 0 1 263 1971)">Symbols are supported in up to nine weights and three scales.</text>
  <text style="stroke:none;fill:black;font-family:sans-serif;font-size:13;" transform="matrix(1 0 0 1 263 1989)">For optimal layout with text and other symbols, vertically align</text>
  <text style="stroke:none;fill:black;font-family:sans-serif;font-size:13;" transform="matrix(1 0 0 1 263 2007)">symbols with the adjacent text.</text>
  <line style="fill:none;stroke:#00AEEF;stroke-width:0.5;opacity:1.0;" x1="776" x2="776" y1="1919" y2="1933"/>
  <g transform="matrix(0.2 0 0 0.2 776 1933)">
   <path d="m16.5527 0.78125c2.58789 0 3.85742-0.976562 4.78516-3.71094l6.29883-17.2363h28.8086l6.29883 17.2363c0.927734 2.73438 2.19727 3.71094 4.73633 3.71094 2.58789 0 4.24805-1.5625 4.24805-4.00391 0-0.830078-0.146484-1.61133-0.537109-2.63672l-22.9004-60.9863c-1.12305-2.97852-3.125-4.49219-6.25-4.49219-3.02734 0-5.07812 1.46484-6.15234 4.44336l-22.9004 61.084c-0.390625 1.02539-0.537109 1.80664-0.537109 2.63672 0 2.44141 1.5625 3.95508 4.10156 3.95508Zm13.4766-28.3691 11.8652-32.8613h0.244141l11.8652 32.8613Z"/>
  </g>
  <line style="fill:none;stroke:#00AEEF;stroke-width:0.5;opacity:1.0;" x1="792.836" x2="792.836" y1="1919" y2="1933"/>
  <text style="stroke:none;fill:black;font-family:sans-serif;font-size:13;font-weight:bold;" transform="matrix(1 0 0 1 776 1953)">Margins</text>
  <text style="stroke:none;fill:black;font-family:sans-serif;font-size:13;" transform="matrix(1 0 0 1 776 1971)">Leading and trailing margins on the left and right side of each symbol</text>
  <text style="stroke:none;fill:black;font-family:sans-serif;font-size:13;" transform="matrix(1 0 0 1 776 1989)">can be adjusted by modifying the x-location of the margin guidelines.</text>
  <text style="stroke:none;fill:black;font-family:sans-serif;font-size:13;" transform="matrix(1 0 0 1 776 2007)">Modifications are automatically applied proportionally to all</text>
  <text style="stroke:none;fill:black;font-family:sans-serif;font-size:13;" transform="matrix(1 0 0 1 776 2025)">scales and weights.</text>
  <g transform="matrix(0.2 0 0 0.2 1289 1933)">
   <path d="m14.209 9.32617 8.49609 8.54492c4.29688 4.3457 9.22852 4.05273 13.8672-1.07422l53.4668-58.9355-4.83398-4.88281-53.0762 58.3984c-1.75781 2.00195-3.41797 2.49023-5.76172 0.146484l-5.85938-5.81055c-2.34375-2.29492-1.80664-4.00391 0.195312-5.81055l57.373-54.0039-4.88281-4.83398-57.959 54.4434c-4.93164 4.58984-5.32227 9.47266-1.02539 13.8184Zm32.0801-90.9668c-2.09961 2.05078-2.24609 4.93164-1.07422 6.88477 1.17188 1.80664 3.4668 2.97852 6.68945 2.14844 7.32422-1.70898 14.9414-2.00195 22.0703 2.68555l-2.92969 7.27539c-1.70898 4.15039-0.830078 7.08008 1.85547 9.81445l11.4746 11.5723c2.44141 2.44141 4.49219 2.53906 7.32422 2.05078l5.32227-0.976562 3.32031 3.36914-0.195312 2.7832c-0.195312 2.49023 0.439453 4.39453 2.88086 6.78711l3.80859 3.71094c2.39258 2.39258 5.46875 2.53906 7.8125 0.195312l14.5508-14.5996c2.34375-2.34375 2.24609-5.32227-0.146484-7.71484l-3.85742-3.80859c-2.39258-2.39258-4.24805-3.17383-6.64062-2.97852l-2.88086 0.244141-3.22266-3.17383 1.2207-5.61523c0.634766-2.83203-0.146484-5.0293-3.07617-7.95898l-10.9863-10.9375c-16.6992-16.6016-38.8672-16.2109-53.3203-1.75781Zm7.4707 1.85547c12.1582-8.88672 28.6133-7.37305 39.7461 3.75977l12.1582 12.0605c1.17188 1.17188 1.36719 2.09961 1.02539 3.80859l-1.61133 7.42188 7.51953 7.42188 4.93164-0.292969c1.26953-0.0488281 1.66016 0.0488281 2.63672 1.02539l2.88086 2.88086-12.207 12.207-2.88086-2.88086c-0.976562-0.976562-1.12305-1.36719-1.07422-2.68555l0.341797-4.88281-7.4707-7.42188-7.61719 1.26953c-1.61133 0.341797-2.34375 0.195312-3.56445-0.976562l-10.0098-10.0098c-1.26953-1.17188-1.41602-2.00195-0.634766-3.85742l4.39453-10.4492c-7.8125-7.27539-17.9688-10.4004-28.125-7.42188-0.78125 0.195312-1.07422-0.439453-0.439453-0.976562Z"/>
  </g>
  <text style="stroke:none;fill:black;font-family:sans-serif;font-size:13;font-weight:bold;" transform="matrix(1 0 0 1 1289 1953)">Exporting</text>
  <text style="stroke:none;fill:black;font-family:sans-serif;font-size:13;" transform="matrix(1 0 0 1 1289 1971)">Symbols should be outlined when exporting to ensure the</text>
  <text style="stroke:none;fill:black;font-family:sans-serif;font-size:13;" transform="matrix(1 0 0 1 1289 1989)">design is preserved when submitting to Xcode.</text>
  <text id="template-version" style="stroke:none;fill:black;font-family:sans-serif;font-size:13;text-anchor:end;" transform="matrix(1 0 0 1 3036 1933)">Template v.6.0</text>
  <text style="stroke:none;fill:black;font-family:sans-serif;font-size:13;text-anchor:end;" transform="matrix(1 0 0 1 3036 1951)">Requires Xcode 16 or greater</text>
  <text id="descriptive-name" style="stroke:none;fill:black;font-family:sans-serif;font-size:13;text-anchor:end;" transform="matrix(1 0 0 1 3036 1969)">Generated from square.fill</text>
  <text style="stroke:none;fill:black;font-family:sans-serif;font-size:13;text-anchor:end;" transform="matrix(1 0 0 1 3036 1987)">Typeset at 100.0 points</text>
  <text style="stroke:none;fill:black;font-family:sans-serif;font-size:13;" transform="matrix(1 0 0 1 263 726)">Small</text>
  <text style="stroke:none;fill:black;font-family:sans-serif;font-size:13;" transform="matrix(1 0 0 1 263 1156)">Medium</text>
  <text style="stroke:none;fill:black;font-family:sans-serif;font-size:13;" transform="matrix(1 0 0 1 263 1586)">Large</text>
 </g>
 <g id="Guides">
  <g id="H-reference" style="fill:#27AAE1;stroke:none;" transform="matrix(1 0 0 1 339 696)">
   <path d="M0.993654 0L3.63775 0L29.3281-67.1323L30.0303-67.1323L30.0303-70.459L28.1226-70.459ZM11.6885-24.4799L46.9815-24.4799L46.2315-26.7285L12.4385-26.7285ZM55.1196 0L57.7637 0L30.6382-70.459L29.4326-70.459L29.4326-67.1323Z"/>
  </g>
  <line id="Baseline-S" style="fill:none;stroke:#27AAE1;opacity:1;stroke-width:0.5;" x1="263" x2="3036" y1="696" y2="696"/>
  <line id="Capline-S" style="fill:none;stroke:#27AAE1;opacity:1;stroke-width:0.5;" x1="263" x2="3036" y1="625.541" y2="625.541"/>
  <g id="H-reference" style="fill:#27AAE1;stroke:none;" transform="matrix(1 0 0 1 339 1126)">
   <path d="M0.993654 0L3.63775 0L29.3281-67.1323L30.0303-67.1323L30.0303-70.459L28.1226-70.459ZM11.6885-24.4799L46.9815-24.4799L46.2315-26.7285L12.4385-26.7285ZM55.1196 0L57.7637 0L30.6382-70.459L29.4326-70.459L29.4326-67.1323Z"/>
  </g>
  <line id="Baseline-M" style="fill:none;stroke:#27AAE1;opacity:1;stroke-width:0.5;" x1="263" x2="3036" y1="1126" y2="1126"/>
  <line id="Capline-M" style="fill:none;stroke:#27AAE1;opacity:1;stroke-width:0.5;" x1="263" x2="3036" y1="1055.54" y2="1055.54"/>
  <g id="H-reference" style="fill:#27AAE1;stroke:none;" transform="matrix(1 0 0 1 339 1556)">
   <path d="M0.993654 0L3.63775 0L29.3281-67.1323L30.0303-67.1323L30.0303-70.459L28.1226-70.459ZM11.6885-24.4799L46.9815-24.4799L46.2315-26.7285L12.4385-26.7285ZM55.1196 0L57.7637 0L30.6382-70.459L29.4326-70.459L29.4326-67.1323Z"/>
  </g>
  <line id="Baseline-L" style="fill:none;stroke:#27AAE1;opacity:1;stroke-width:0.5;" x1="263" x2="3036" y1="1556" y2="1556"/>
  <line id="Capline-L" style="fill:none;stroke:#27AAE1;opacity:1;stroke-width:0.5;" x1="263" x2="3036" y1="1485.54" y2="1485.54"/>
  <line id="right-margin-Black-S" style="fill:none;stroke:#00AEEF;stroke-width:0.5;opacity:1.0;" x1="2981.3" x2="2981.3" y1="600.785" y2="720.121"/>
  <line id="left-margin-Black-S" style="fill:none;stroke:#00AEEF;stroke-width:0.5;opacity:1.0;" x1="2885.5" x2="2885.5" y1="600.785" y2="720.121"/>
  <line id="right-margin-Regular-S" style="fill:none;stroke:#00AEEF;stroke-width:0.5;opacity:1.0;" x1="1495.18" x2="1495.18" y1="600.785" y2="720.121"/>
  <line id="left-margin-Regular-S" style="fill:none;stroke:#00AEEF;stroke-width:0.5;opacity:1.0;" x1="1404.51" x2="1404.51" y1="600.785" y2="720.121"/>
  <line id="right-margin-Ultralight-S" style="fill:none;stroke:#00AEEF;stroke-width:0.5;opacity:1.0;" x1="603.073" x2="603.073" y1="600.785" y2="720.121"/>
  <line id="left-margin-Ultralight-S" style="fill:none;stroke:#00AEEF;stroke-width:0.5;opacity:1.0;" x1="516.35" x2="516.35" y1="600.785" y2="720.121"/>
 </g>
 <g id="Symbols">
  <g id="Black-S" transform="matrix(1 0 0 1 2885.5 696)">
   <path class="monochrome-0 multicolor-0:systemIndigoColor hierarchical-0:tertiary SFSymbolsPreviewWireframe" d="M25 2.88086L70.8008 2.88086C80.3711 2.88086 86.0352-2.7832 86.0352-12.3535L86.0352-58.1543C86.0352-67.7246 80.3711-73.3887 70.8008-73.3887L25-73.3887C15.4297-73.3887 9.76562-67.7246 9.76562-58.1543L9.76562-12.3535C9.76562-2.7832 15.4297 2.88086 25 2.88086Z"/>
   <path class="monochrome-1 multicolor-1:white hierarchical-1:primary SFSymbolsPreviewWireframe" d="M66.9284-47.2202C66.3114-51.7646 62.3152-55.3465 57.5787-56.0411C56.7784-56.1592 53.75-56.5858 46.7359-56.5858L46.683-56.5858C39.6672-56.5858 38.1601-56.1592 37.3615-56.0411C32.7554-55.3659 28.5495-52.1471 27.5288-47.5481C27.0405-45.2829 26.9877-42.771 27.0776-40.4688C27.208-37.1654 27.2327-33.8672 27.5359-30.5779C27.7439-28.3921 28.1088-26.2239 28.6288-24.0909C29.5983-20.1476 33.524-16.8671 37.3721-15.5292C41.4899-14.1331 45.9198-13.9021 50.1627-14.8593C50.6299-14.9669 51.0917-15.092 51.5483-15.2348C52.5795-15.5591 53.787-15.9223 54.6754-16.5622C54.6996-16.5801 54.7145-16.6079 54.716-16.638L54.716-19.8268C54.716-19.855 54.703-19.8817 54.6807-19.8991C54.6579-19.9173 54.6279-19.9238 54.5996-19.9167C51.8797-19.2731 49.0938-18.9507 46.2988-18.956C41.4864-18.956 40.1943-21.2194 39.8224-22.1607C39.5247-22.9744 39.3357-23.8237 39.26-24.6868C39.2575-24.7383 39.2972-24.7821 39.3487-24.7847C39.358-24.7852 39.3673-24.7842 39.3764-24.7819C42.0505-24.1421 44.7916-23.8195 47.5415-23.8195C48.2043-23.8195 48.8636-23.8195 49.5246-23.8371C52.2922-23.9147 55.2078-24.0557 57.9295-24.581C57.9965-24.5951 58.0652-24.6074 58.1234-24.6233C62.4157-25.4412 66.5018-28.0078 66.9178-34.5018C66.9319-34.7574 66.9707-37.1812 66.9707-37.4457C66.9742-38.3482 67.2651-43.8445 66.9284-47.2202ZM60.3216-31.0116L55.8071-31.0116L55.8071-41.9724C55.8071-44.2799 54.8376-45.4557 52.8633-45.4557C50.6951-45.4557 49.6092-44.0631 49.6092-41.3132L49.6092-35.3145L45.1212-35.3145L45.1212-41.3149C45.1212-44.0648 44.0336-45.4574 41.8636-45.4574C39.9034-45.4574 38.9234-44.2799 38.9198-41.9724L38.9198-31.0116L34.4124-31.0116L34.4124-42.3038C34.4124-44.613 35.0065-46.4463 36.1946-47.8037C37.4215-49.161 39.0291-49.8555 41.0246-49.8555C43.3356-49.8555 45.0825-48.9741 46.2459-47.2149L47.3705-45.3464L48.4952-47.2149C49.6586-48.9759 51.4037-49.8555 53.713-49.8555C55.7049-49.8555 57.3143-49.1592 58.5429-47.8037C59.7328-46.4463 60.3269-44.613 60.3269-42.3038C60.3269-42.3038 60.3216-31.0116 60.3216-31.0116Z"/>
  </g>
  <g id="Regular-S" transform="matrix(1 0 0 1 1404.51 696)">
   <path class="monochrome-0 multicolor-0:systemIndigoColor hierarchical-0:tertiary SFSymbolsPreviewWireframe" d="M22.2168 0.390625L68.457 0.390625C76.8066 0.390625 80.9082-3.71094 80.9082-11.9141L80.9082-58.4961C80.9082-66.6992 76.8066-70.8008 68.457-70.8008L22.2168-70.8008C13.916-70.8008 9.76562-66.6992 9.76562-58.4961L9.76562-11.9141C9.76562-3.71094 13.916 0.390625 22.2168 0.390625Z"/>
   <path class="monochrome-1 multicolor-1:white hierarchical-1:primary SFSymbolsPreviewWireframe" d="M64.5915-47.2144C63.9746-51.7588 59.9784-55.3407 55.2418-56.0353C54.4415-56.1534 51.4131-56.58 44.3991-56.58L44.3462-56.58C37.3304-56.58 35.8232-56.1534 35.0247-56.0353C30.4186-55.3601 26.2126-52.1413 25.192-47.5423C24.7037-45.2771 24.6508-42.7652 24.7407-40.463C24.8711-37.1596 24.8958-33.8614 25.199-30.5721C25.407-28.3863 25.7719-26.2181 26.2919-24.0851C27.2614-20.1418 31.1871-16.8613 35.0352-15.5234C39.1531-14.1273 43.5829-13.8963 47.8259-14.8535C48.293-14.9611 48.7548-15.0862 49.2114-15.229C50.2426-15.5533 51.4501-15.9165 52.3386-16.5564C52.3627-16.5743 52.3776-16.6021 52.3791-16.6322L52.3791-19.821C52.3791-19.8492 52.3661-19.8759 52.3438-19.8933C52.321-19.9115 52.2911-19.918 52.2628-19.9109C49.5429-19.2673 46.7569-18.9449 43.9619-18.9502C39.1495-18.9502 37.8574-21.2136 37.4855-22.1549C37.1879-22.9686 36.9988-23.8179 36.9232-24.681C36.9206-24.7325 36.9603-24.7763 37.0118-24.7789C37.0211-24.7794 37.0305-24.7784 37.0395-24.7761C39.7136-24.1363 42.4547-23.8137 45.2046-23.8137C45.8674-23.8137 46.5267-23.8137 47.1878-23.8313C49.9553-23.9089 52.8709-24.0499 55.5926-24.5752C55.6596-24.5893 55.7284-24.6016 55.7865-24.6175C60.0789-25.4354 64.165-28.002 64.581-34.496C64.5951-34.7516 64.6338-37.1754 64.6338-37.4399C64.6374-38.3424 64.9282-43.8387 64.5915-47.2144ZM57.9847-31.0058L53.4702-31.0058L53.4702-41.9666C53.4702-44.2741 52.5007-45.4499 50.5264-45.4499C48.3582-45.4499 47.2724-44.0573 47.2724-41.3074L47.2724-35.3087L42.7844-35.3087L42.7844-41.3091C42.7844-44.059 41.6967-45.4516 39.5268-45.4516C37.5666-45.4516 36.5865-44.2741 36.583-41.9666L36.583-31.0058L32.0756-31.0058L32.0756-42.298C32.0756-44.6073 32.6696-46.4405 33.8577-47.7979C35.0846-49.1552 36.6922-49.8497 38.6877-49.8497C40.9987-49.8497 42.7456-48.9683 43.909-47.2091L45.0337-45.3406L46.1583-47.2091C47.3217-48.9701 49.0669-49.8497 51.3761-49.8497C53.368-49.8497 54.9774-49.1534 56.2061-47.7979C57.3959-46.4405 57.99-44.6073 57.99-42.298C57.99-42.298 57.9847-31.0058 57.9847-31.0058Z"/>
  </g>
  <g id="Ultralight-S" transform="matrix(1 0 0 1 516.35 696)">
   <path class="monochrome-0 multicolor-0:systemIndigoColor hierarchical-0:tertiary SFSymbolsPreviewWireframe" d="M19.7647-1.65282L66.9585-1.65282C73.4917-1.65282 76.9576-5.20946 76.9576-11.6416L76.9576-58.8594C76.9576-65.2915 73.4917-68.8482 66.9585-68.8482L19.7647-68.8482C13.2349-68.8482 9.76562-65.3823 9.76562-58.8594L9.76562-11.6416C9.76562-5.11864 13.2349-1.65282 19.7647-1.65282Z"/>
   <path class="monochrome-1 multicolor-1:white hierarchical-1:primary SFSymbolsPreviewWireframe" d="M62.3504-47.1236C61.7334-51.668 57.7372-55.2499 53.0007-55.9444C52.2004-56.0625 49.1719-56.4891 42.1579-56.4891L42.105-56.4891C35.0892-56.4891 33.582-56.0625 32.7835-55.9444C28.1774-55.2693 23.9714-52.0505 22.9508-47.4514C22.4625-45.1863 22.4096-42.6743 22.4995-40.3722C22.63-37.0687 22.6547-33.7706 22.9579-30.4813C23.1659-28.2955 23.5308-26.1273 24.0508-23.9943C25.0203-20.051 28.946-16.7705 32.7941-15.4326C36.9119-14.0364 41.3417-13.8055 45.5847-14.7627C46.0519-14.8702 46.5137-14.9954 46.9703-15.1382C48.0015-15.4625 49.209-15.8257 50.0974-16.4655C50.1216-16.4835 50.1365-16.5113 50.1379-16.5413L50.1379-19.7302C50.138-19.7584 50.1249-19.7851 50.1027-19.8025C50.0799-19.8207 50.0499-19.8272 50.0216-19.8201C47.3017-19.1765 44.5157-18.854 41.7207-18.8594C36.9084-18.8594 35.6163-21.1228 35.2443-22.0641C34.9467-22.8777 34.7577-23.7271 34.682-24.5901C34.6794-24.6417 34.7191-24.6855 34.7707-24.6881C34.78-24.6885 34.7893-24.6876 34.7984-24.6853C37.4725-24.0454 40.2136-23.7228 42.9635-23.7228C43.6263-23.7228 44.2856-23.7228 44.9466-23.7405C47.7141-23.818 50.6298-23.9591 53.3515-24.4844C53.4185-24.4985 53.4872-24.5108 53.5454-24.5267C57.8377-25.3446 61.9238-27.9112 62.3398-34.4052C62.3539-34.6608 62.3927-37.0846 62.3927-37.349C62.3962-38.2516 62.6871-43.7479 62.3504-47.1236ZM55.7435-30.9149L51.2291-30.9149L51.2291-41.8758C51.2291-44.1833 50.2596-45.359 48.2853-45.359C46.1171-45.359 45.0312-43.9664 45.0312-41.2165L45.0312-35.2178L40.5432-35.2178L40.5432-41.2183C40.5432-43.9682 39.4556-45.3608 37.2856-45.3608C35.3254-45.3608 34.3453-44.1833 34.3418-41.8758L34.3418-30.9149L29.8344-30.9149L29.8344-42.2072C29.8344-44.5164 30.4285-46.3497 31.6166-47.707C32.8435-49.0644 34.4511-49.7589 36.4465-49.7589C38.7575-49.7589 40.5044-48.8775 41.6679-47.1183L42.7925-45.2497L43.9171-47.1183C45.0806-48.8793 46.8257-49.7589 49.1349-49.7589C51.1269-49.7589 52.7363-49.0626 53.9649-47.707C55.1548-46.3497 55.7488-44.5164 55.7488-42.2072C55.7488-42.2072 55.7435-30.9149 55.7435-30.9149Z"/>
  </g>
 </g>
</svg>
