<?xml version="1.0" encoding="UTF-8"?>
<!--Generator: Apple Native CoreSVG 341-->
<!DOCTYPE svg
PUBLIC "-//W3C//DTD SVG 1.1//EN"
       "http://www.w3.org/Graphics/SVG/1.1/DTD/svg11.dtd">
<svg version="1.1" xmlns="http://www.w3.org/2000/svg" xmlns:xlink="http://www.w3.org/1999/xlink" viewBox="0 0 3300 2200">
 <!--glyph: "", point size: 100.0, font version: "20.0d10e1", template writer version: "138.0.0"-->
 <style>.monochrome-0 {-sfsymbols-motion-group:0;-sfsymbols-layer-tags:604c065dea129b21}

.multicolor-0:white {-sfsymbols-motion-group:0;-sfsymbols-layer-tags:604c065dea129b21}

.hierarchical-0:primary {-sfsymbols-motion-group:0;-sfsymbols-layer-tags:604c065dea129b21}

.SFSymbolsPreviewWireframe {fill:none;opacity:1.0;stroke:black;stroke-width:0.5}
</style>
 <g id="Notes">
  <rect height="2200" id="artboard" style="fill:white;opacity:1" width="3300" x="0" y="0"/>
  <line style="fill:none;stroke:black;opacity:1;stroke-width:0.5;" x1="263" x2="3036" y1="292" y2="292"/>
  <text style="stroke:none;fill:black;font-family:sans-serif;font-size:13;font-weight:bold;" transform="matrix(1 0 0 1 263 322)">Weight/Scale Variations</text>
  <text style="stroke:none;fill:black;font-family:sans-serif;font-size:13;text-anchor:middle;" transform="matrix(1 0 0 1 559.711 322)">Ultralight</text>
  <text style="stroke:none;fill:black;font-family:sans-serif;font-size:13;text-anchor:middle;" transform="matrix(1 0 0 1 856.422 322)">Thin</text>
  <text style="stroke:none;fill:black;font-family:sans-serif;font-size:13;text-anchor:middle;" transform="matrix(1 0 0 1 1153.13 322)">Light</text>
  <text style="stroke:none;fill:black;font-family:sans-serif;font-size:13;text-anchor:middle;" transform="matrix(1 0 0 1 1449.84 322)">Regular</text>
  <text style="stroke:none;fill:black;font-family:sans-serif;font-size:13;text-anchor:middle;" transform="matrix(1 0 0 1 1746.56 322)">Medium</text>
  <text style="stroke:none;fill:black;font-family:sans-serif;font-size:13;text-anchor:middle;" transform="matrix(1 0 0 1 2043.27 322)">Semibold</text>
  <text style="stroke:none;fill:black;font-family:sans-serif;font-size:13;text-anchor:middle;" transform="matrix(1 0 0 1 2339.98 322)">Bold</text>
  <text style="stroke:none;fill:black;font-family:sans-serif;font-size:13;text-anchor:middle;" transform="matrix(1 0 0 1 2636.69 322)">Heavy</text>
  <text style="stroke:none;fill:black;font-family:sans-serif;font-size:13;text-anchor:middle;" transform="matrix(1 0 0 1 2933.4 322)">Black</text>
  <line style="fill:none;stroke:black;opacity:1;stroke-width:0.5;" x1="263" x2="3036" y1="1903" y2="1903"/>
  <g transform="matrix(0.2 0 0 0.2 263 1933)">
   <path d="m46.2402 4.15039c21.7773 0 39.4531-17.627 39.4531-39.4043s-17.6758-39.4043-39.4531-39.4043c-21.7285 0-39.4043 17.627-39.4043 39.4043s17.6758 39.4043 39.4043 39.4043Zm0-7.42188c-17.6758 0-31.9336-14.3066-31.9336-31.9824s14.2578-31.9824 31.9336-31.9824 31.9824 14.3066 31.9824 31.9824-14.3066 31.9824-31.9824 31.9824Zm-17.9688-31.9824c0 2.14844 1.51367 3.61328 3.75977 3.61328h10.498v10.5957c0 2.19727 1.46484 3.71094 3.61328 3.71094 2.24609 0 3.71094-1.51367 3.71094-3.71094v-10.5957h10.5957c2.19727 0 3.71094-1.46484 3.71094-3.61328 0-2.19727-1.51367-3.71094-3.71094-3.71094h-10.5957v-10.5469c0-2.24609-1.46484-3.75977-3.71094-3.75977-2.14844 0-3.61328 1.51367-3.61328 3.75977v10.5469h-10.498c-2.24609 0-3.75977 1.51367-3.75977 3.71094Z"/>
  </g>
  <g transform="matrix(0.2 0 0 0.2 281.506 1933)">
   <path d="m58.5449 14.5508c27.4902 0 49.8047-22.3145 49.8047-49.8047s-22.3145-49.8047-49.8047-49.8047-49.8047 22.3145-49.8047 49.8047 22.3145 49.8047 49.8047 49.8047Zm0-8.30078c-22.9492 0-41.5039-18.5547-41.5039-41.5039s18.5547-41.5039 41.5039-41.5039 41.5039 18.5547 41.5039 41.5039-18.5547 41.5039-41.5039 41.5039Zm-22.6562-41.5039c0 2.39258 1.66016 4.00391 4.15039 4.00391h14.3555v14.4043c0 2.44141 1.66016 4.15039 4.05273 4.15039 2.44141 0 4.15039-1.66016 4.15039-4.15039v-14.4043h14.4043c2.44141 0 4.15039-1.61133 4.15039-4.00391 0-2.44141-1.70898-4.15039-4.15039-4.15039h-14.4043v-14.3555c0-2.49023-1.70898-4.19922-4.15039-4.19922-2.39258 0-4.05273 1.70898-4.05273 4.19922v14.3555h-14.3555c-2.49023 0-4.15039 1.70898-4.15039 4.15039Z"/>
  </g>
  <g transform="matrix(0.2 0 0 0.2 304.924 1933)">
   <path d="m74.8535 28.3203c35.1074 0 63.623-28.4668 63.623-63.5742s-28.5156-63.623-63.623-63.623-63.5742 28.5156-63.5742 63.623 28.4668 63.5742 63.5742 63.5742Zm0-9.08203c-30.127 0-54.4922-24.3652-54.4922-54.4922s24.3652-54.4922 54.4922-54.4922 54.4922 24.3652 54.4922 54.4922-24.3652 54.4922-54.4922 54.4922Zm-28.8574-54.4922c0 2.58789 1.85547 4.39453 4.58984 4.39453h19.7266v19.7754c0 2.68555 1.85547 4.58984 4.44336 4.58984 2.68555 0 4.54102-1.85547 4.54102-4.58984v-19.7754h19.7754c2.68555 0 4.58984-1.80664 4.58984-4.39453 0-2.73438-1.85547-4.58984-4.58984-4.58984h-19.7754v-19.7266c0-2.73438-1.85547-4.63867-4.54102-4.63867-2.58789 0-4.44336 1.9043-4.44336 4.63867v19.7266h-19.7266c-2.73438 0-4.58984 1.85547-4.58984 4.58984Z"/>
  </g>
  <text style="stroke:none;fill:black;font-family:sans-serif;font-size:13;font-weight:bold;" transform="matrix(1 0 0 1 263 1953)">Design Variations</text>
  <text style="stroke:none;fill:black;font-family:sans-serif;font-size:13;" transform="matrix(1 0 0 1 263 1971)">Symbols are supported in up to nine weights and three scales.</text>
  <text style="stroke:none;fill:black;font-family:sans-serif;font-size:13;" transform="matrix(1 0 0 1 263 1989)">For optimal layout with text and other symbols, vertically align</text>
  <text style="stroke:none;fill:black;font-family:sans-serif;font-size:13;" transform="matrix(1 0 0 1 263 2007)">symbols with the adjacent text.</text>
  <line style="fill:none;stroke:#00AEEF;stroke-width:0.5;opacity:1.0;" x1="776" x2="776" y1="1919" y2="1933"/>
  <g transform="matrix(0.2 0 0 0.2 776 1933)">
   <path d="m16.5527 0.78125c2.58789 0 3.85742-0.976562 4.78516-3.71094l6.29883-17.2363h28.8086l6.29883 17.2363c0.927734 2.73438 2.19727 3.71094 4.73633 3.71094 2.58789 0 4.24805-1.5625 4.24805-4.00391 0-0.830078-0.146484-1.61133-0.537109-2.63672l-22.9004-60.9863c-1.12305-2.97852-3.125-4.49219-6.25-4.49219-3.02734 0-5.07812 1.46484-6.15234 4.44336l-22.9004 61.084c-0.390625 1.02539-0.537109 1.80664-0.537109 2.63672 0 2.44141 1.5625 3.95508 4.10156 3.95508Zm13.4766-28.3691 11.8652-32.8613h0.244141l11.8652 32.8613Z"/>
  </g>
  <line style="fill:none;stroke:#00AEEF;stroke-width:0.5;opacity:1.0;" x1="792.836" x2="792.836" y1="1919" y2="1933"/>
  <text style="stroke:none;fill:black;font-family:sans-serif;font-size:13;font-weight:bold;" transform="matrix(1 0 0 1 776 1953)">Margins</text>
  <text style="stroke:none;fill:black;font-family:sans-serif;font-size:13;" transform="matrix(1 0 0 1 776 1971)">Leading and trailing margins on the left and right side of each symbol</text>
  <text style="stroke:none;fill:black;font-family:sans-serif;font-size:13;" transform="matrix(1 0 0 1 776 1989)">can be adjusted by modifying the x-location of the margin guidelines.</text>
  <text style="stroke:none;fill:black;font-family:sans-serif;font-size:13;" transform="matrix(1 0 0 1 776 2007)">Modifications are automatically applied proportionally to all</text>
  <text style="stroke:none;fill:black;font-family:sans-serif;font-size:13;" transform="matrix(1 0 0 1 776 2025)">scales and weights.</text>
  <g transform="matrix(0.2 0 0 0.2 1289 1933)">
   <path d="m14.209 9.32617 8.49609 8.54492c4.29688 4.3457 9.22852 4.05273 13.8672-1.07422l53.4668-58.9355-4.83398-4.88281-53.0762 58.3984c-1.75781 2.00195-3.41797 2.49023-5.76172 0.146484l-5.85938-5.81055c-2.34375-2.29492-1.80664-4.00391 0.195312-5.81055l57.373-54.0039-4.88281-4.83398-57.959 54.4434c-4.93164 4.58984-5.32227 9.47266-1.02539 13.8184Zm32.0801-90.9668c-2.09961 2.05078-2.24609 4.93164-1.07422 6.88477 1.17188 1.80664 3.4668 2.97852 6.68945 2.14844 7.32422-1.70898 14.9414-2.00195 22.0703 2.68555l-2.92969 7.27539c-1.70898 4.15039-0.830078 7.08008 1.85547 9.81445l11.4746 11.5723c2.44141 2.44141 4.49219 2.53906 7.32422 2.05078l5.32227-0.976562 3.32031 3.36914-0.195312 2.7832c-0.195312 2.49023 0.439453 4.39453 2.88086 6.78711l3.80859 3.71094c2.39258 2.39258 5.46875 2.53906 7.8125 0.195312l14.5508-14.5996c2.34375-2.34375 2.24609-5.32227-0.146484-7.71484l-3.85742-3.80859c-2.39258-2.39258-4.24805-3.17383-6.64062-2.97852l-2.88086 0.244141-3.22266-3.17383 1.2207-5.61523c0.634766-2.83203-0.146484-5.0293-3.07617-7.95898l-10.9863-10.9375c-16.6992-16.6016-38.8672-16.2109-53.3203-1.75781Zm7.4707 1.85547c12.1582-8.88672 28.6133-7.37305 39.7461 3.75977l12.1582 12.0605c1.17188 1.17188 1.36719 2.09961 1.02539 3.80859l-1.61133 7.42188 7.51953 7.42188 4.93164-0.292969c1.26953-0.0488281 1.66016 0.0488281 2.63672 1.02539l2.88086 2.88086-12.207 12.207-2.88086-2.88086c-0.976562-0.976562-1.12305-1.36719-1.07422-2.68555l0.341797-4.88281-7.4707-7.42188-7.61719 1.26953c-1.61133 0.341797-2.34375 0.195312-3.56445-0.976562l-10.0098-10.0098c-1.26953-1.17188-1.41602-2.00195-0.634766-3.85742l4.39453-10.4492c-7.8125-7.27539-17.9688-10.4004-28.125-7.42188-0.78125 0.195312-1.07422-0.439453-0.439453-0.976562Z"/>
  </g>
  <text style="stroke:none;fill:black;font-family:sans-serif;font-size:13;font-weight:bold;" transform="matrix(1 0 0 1 1289 1953)">Exporting</text>
  <text style="stroke:none;fill:black;font-family:sans-serif;font-size:13;" transform="matrix(1 0 0 1 1289 1971)">Symbols should be outlined when exporting to ensure the</text>
  <text style="stroke:none;fill:black;font-family:sans-serif;font-size:13;" transform="matrix(1 0 0 1 1289 1989)">design is preserved when submitting to Xcode.</text>
  <text id="template-version" style="stroke:none;fill:black;font-family:sans-serif;font-size:13;text-anchor:end;" transform="matrix(1 0 0 1 3036 1933)">Template v.6.0</text>
  <text style="stroke:none;fill:black;font-family:sans-serif;font-size:13;text-anchor:end;" transform="matrix(1 0 0 1 3036 1951)">Requires Xcode 16 or greater</text>
  <text id="descriptive-name" style="stroke:none;fill:black;font-family:sans-serif;font-size:13;text-anchor:end;" transform="matrix(1 0 0 1 3036 1969)">Generated from social.mastodon</text>
  <text style="stroke:none;fill:black;font-family:sans-serif;font-size:13;text-anchor:end;" transform="matrix(1 0 0 1 3036 1987)">Typeset at 100.0 points</text>
  <text style="stroke:none;fill:black;font-family:sans-serif;font-size:13;" transform="matrix(1 0 0 1 263 726)">Small</text>
  <text style="stroke:none;fill:black;font-family:sans-serif;font-size:13;" transform="matrix(1 0 0 1 263 1156)">Medium</text>
  <text style="stroke:none;fill:black;font-family:sans-serif;font-size:13;" transform="matrix(1 0 0 1 263 1586)">Large</text>
 </g>
 <g id="Guides">
  <g id="H-reference" style="fill:#27AAE1;stroke:none;" transform="matrix(1 0 0 1 339 696)">
   <path d="M0.993654 0L3.63775 0L29.3281-67.1323L30.0303-67.1323L30.0303-70.459L28.1226-70.459ZM11.6885-24.4799L46.9815-24.4799L46.2315-26.7285L12.4385-26.7285ZM55.1196 0L57.7637 0L30.6382-70.459L29.4326-70.459L29.4326-67.1323Z"/>
  </g>
  <line id="Baseline-S" style="fill:none;stroke:#27AAE1;opacity:1;stroke-width:0.5;" x1="263" x2="3036" y1="696" y2="696"/>
  <line id="Capline-S" style="fill:none;stroke:#27AAE1;opacity:1;stroke-width:0.5;" x1="263" x2="3036" y1="625.541" y2="625.541"/>
  <g id="H-reference" style="fill:#27AAE1;stroke:none;" transform="matrix(1 0 0 1 339 1126)">
   <path d="M0.993654 0L3.63775 0L29.3281-67.1323L30.0303-67.1323L30.0303-70.459L28.1226-70.459ZM11.6885-24.4799L46.9815-24.4799L46.2315-26.7285L12.4385-26.7285ZM55.1196 0L57.7637 0L30.6382-70.459L29.4326-70.459L29.4326-67.1323Z"/>
  </g>
  <line id="Baseline-M" style="fill:none;stroke:#27AAE1;opacity:1;stroke-width:0.5;" x1="263" x2="3036" y1="1126" y2="1126"/>
  <line id="Capline-M" style="fill:none;stroke:#27AAE1;opacity:1;stroke-width:0.5;" x1="263" x2="3036" y1="1055.54" y2="1055.54"/>
  <g id="H-reference" style="fill:#27AAE1;stroke:none;" transform="matrix(1 0 0 1 339 1556)">
   <path d="M0.993654 0L3.63775 0L29.3281-67.1323L30.0303-67.1323L30.0303-70.459L28.1226-70.459ZM11.6885-24.4799L46.9815-24.4799L46.2315-26.7285L12.4385-26.7285ZM55.1196 0L57.7637 0L30.6382-70.459L29.4326-70.459L29.4326-67.1323Z"/>
  </g>
  <line id="Baseline-L" style="fill:none;stroke:#27AAE1;opacity:1;stroke-width:0.5;" x1="263" x2="3036" y1="1556" y2="1556"/>
  <line id="Capline-L" style="fill:none;stroke:#27AAE1;opacity:1;stroke-width:0.5;" x1="263" x2="3036" y1="1485.54" y2="1485.54"/>
  <line id="right-margin-Black-S" style="fill:none;stroke:#00AEEF;stroke-width:0.5;opacity:1.0;" x1="2982.2" x2="2982.2" y1="600.785" y2="720.121"/>
  <line id="left-margin-Black-S" style="fill:none;stroke:#00AEEF;stroke-width:0.5;opacity:1.0;" x1="2884.6" x2="2884.6" y1="600.785" y2="720.121"/>
  <line id="right-margin-Regular-S" style="fill:none;stroke:#00AEEF;stroke-width:0.5;opacity:1.0;" x1="1496.09" x2="1496.09" y1="600.785" y2="720.121"/>
  <line id="left-margin-Regular-S" style="fill:none;stroke:#00AEEF;stroke-width:0.5;opacity:1.0;" x1="1403.59" x2="1403.59" y1="600.785" y2="720.121"/>
  <line id="right-margin-Ultralight-S" style="fill:none;stroke:#00AEEF;stroke-width:0.5;opacity:1.0;" x1="603.811" x2="603.811" y1="600.785" y2="720.121"/>
  <line id="left-margin-Ultralight-S" style="fill:none;stroke:#00AEEF;stroke-width:0.5;opacity:1.0;" x1="515.611" x2="515.611" y1="600.785" y2="720.121"/>
 </g>
 <g id="Symbols">
  <g id="Black-S" transform="matrix(1 0 0 1 2884.6 696)">
   <path class="monochrome-0 multicolor-0:white hierarchical-0:primary SFSymbolsPreviewWireframe" d="M80.5037-55.193C79.4754-62.767 72.8151-68.7369 64.9209-69.8944C63.587-70.0913 58.5397-70.8023 46.8496-70.8023L46.7614-70.8023C35.0684-70.8023 32.5565-70.0913 31.2256-69.8944C23.5488-68.7692 16.5388-63.4045 14.8378-55.7394C14.0239-51.9642 13.9358-47.7776 14.0856-43.9407C14.303-38.435 14.3442-32.9381 14.8495-27.4559C15.1962-23.8128 15.8043-20.1991 16.671-16.6442C18.2869-10.0721 24.8297-4.60454 31.2432-2.37464C38.1063-0.0477891 45.4893 0.33708 52.5609-1.25822C53.3395-1.43744 54.1092-1.64603 54.8702-1.88401C56.5889-2.42459 58.6014-3.0298 60.0821-4.09627C60.1224-4.12614 60.1472-4.1725 60.1496-4.2226L60.1496-9.53735C60.1497-9.5844 60.128-9.62885 60.0909-9.6578C60.0529-9.68816 60.0029-9.69903 59.9557-9.68718C55.4226-8.61452 50.7793-8.07712 46.121-8.086C38.1004-8.086 35.9469-11.8583 35.327-13.4272C34.831-14.7833 34.5158-16.1988 34.3898-17.6373C34.3855-17.7232 34.4517-17.7963 34.5375-17.8005C34.5531-17.8013 34.5686-17.7997 34.5837-17.7959C39.0405-16.7294 43.609-16.1918 48.1922-16.1918C49.2969-16.1918 50.3957-16.1918 51.4974-16.2212C56.11-16.3504 60.9693-16.5855 65.5055-17.461C65.6172-17.4845 65.7317-17.5051 65.8287-17.5315C72.9826-18.8947 79.7927-23.1724 80.4861-33.9957C80.5096-34.4217 80.5742-38.4614 80.5742-38.9021C80.5801-40.4063 81.0649-49.5668 80.5037-55.193ZM69.4923-28.1786L61.9682-28.1786L61.9682-46.4467C61.9682-50.2925 60.3524-52.2521 57.0619-52.2521C53.4482-52.2521 51.6384-49.9311 51.6384-45.3479L51.6384-35.3501L44.1584-35.3501L44.1584-45.3509C44.1584-49.9341 42.3457-52.255 38.7291-52.255C35.4621-52.255 33.8286-50.2925 33.8227-46.4467L33.8227-28.1786L26.3104-28.1786L26.3104-46.9991C26.3104-50.8478 27.3005-53.9032 29.2807-56.1654C31.3255-58.4277 34.0049-59.5852 37.3306-59.5852C41.1823-59.5852 44.0938-58.1162 46.0328-55.1842L47.9072-52.0699L49.7816-55.1842C51.7207-58.1192 54.6293-59.5852 58.478-59.5852C61.7978-59.5852 64.4802-58.4247 66.5279-56.1654C68.511-53.9032 69.5011-50.8478 69.5011-46.9991C69.5011-46.9991 69.4923-28.1786 69.4923-28.1786Z"/>
  </g>
  <g id="Regular-S" transform="matrix(1 0 0 1 1403.59 696)">
   <path class="monochrome-0 multicolor-0:white hierarchical-0:primary SFSymbolsPreviewWireframe" d="M78.5138-55.193C77.4856-62.767 70.8252-68.7369 62.931-69.8944C61.5972-70.0913 56.5498-70.8023 44.8597-70.8023L44.7716-70.8023C33.0786-70.8023 30.5666-70.0913 29.2357-69.8944C21.5589-68.7692 14.549-63.4045 12.8479-55.7394C12.0341-51.9642 11.9459-47.7776 12.0958-43.9407C12.3132-38.435 12.3543-32.9381 12.8596-27.4559C13.2063-23.8128 13.8145-20.1991 14.6812-16.6442C16.297-10.0721 22.8398-4.60454 29.2534-2.37464C36.1164-0.0477891 43.4994 0.33708 50.5711-1.25822C51.3496-1.43744 52.1194-1.64603 52.8803-1.88401C54.599-2.42459 56.6115-3.0298 58.0922-4.09627C58.1325-4.12614 58.1573-4.1725 58.1598-4.2226L58.1598-9.53735C58.1598-9.5844 58.1381-9.62885 58.101-9.6578C58.063-9.68816 58.013-9.69903 57.9659-9.68718C53.4327-8.61452 48.7894-8.07712 44.1311-8.086C36.1105-8.086 33.957-11.8583 33.3371-13.4272C32.8411-14.7833 32.526-16.1988 32.3999-17.6373C32.3956-17.7232 32.4618-17.7963 32.5477-17.8005C32.5632-17.8013 32.5787-17.7997 32.5938-17.7959C37.0507-16.7294 41.6192-16.1918 46.2024-16.1918C47.307-16.1918 48.4058-16.1918 49.5075-16.2212C54.1201-16.3504 58.9795-16.5855 63.5157-17.461C63.6273-17.4845 63.7419-17.5051 63.8388-17.5315C70.9927-18.8947 77.8029-23.1724 78.4962-33.9957C78.5197-34.4217 78.5844-38.4614 78.5844-38.9021C78.5902-40.4063 79.075-49.5668 78.5138-55.193ZM67.5024-28.1786L59.9784-28.1786L59.9784-46.4467C59.9784-50.2925 58.3625-52.2521 55.072-52.2521C51.4583-52.2521 49.6486-49.9311 49.6486-45.3479L49.6486-35.3501L42.1686-35.3501L42.1686-45.3509C42.1686-49.9341 40.3558-52.255 36.7392-52.255C33.4722-52.255 31.8388-50.2925 31.8329-46.4467L31.8329-28.1786L24.3206-28.1786L24.3206-46.9991C24.3206-50.8478 25.3106-53.9032 27.2908-56.1654C29.3356-58.4277 32.015-59.5852 35.3408-59.5852C39.1924-59.5852 42.1039-58.1162 44.043-55.1842L45.9174-52.0699L47.7918-55.1842C49.7308-58.1192 52.6394-59.5852 56.4881-59.5852C59.808-59.5852 62.4903-58.4247 64.5381-56.1654C66.5212-53.9032 67.5113-50.8478 67.5113-46.9991C67.5113-46.9991 67.5024-28.1786 67.5024-28.1786Z"/>
  </g>
  <g id="Ultralight-S" transform="matrix(1 0 0 1 515.611 696)">
   <path class="monochrome-0 multicolor-0:white hierarchical-0:primary SFSymbolsPreviewWireframe" d="M75.4928-54.9949C74.4645-62.5689 67.8042-68.5388 59.9099-69.6964C58.5761-69.8932 53.5287-70.6042 41.8387-70.6042L41.7505-70.6042C30.0575-70.6042 27.5456-69.8932 26.2147-69.6964C18.5378-68.5711 11.5279-63.2065 9.82683-55.5414C9.01302-51.7661 8.92488-47.5795 9.07472-43.7426C9.29212-38.2369 9.33325-32.74 9.83858-27.2578C10.1853-23.6147 10.7934-20.0011 11.6601-16.4462C13.276-9.87399 19.8188-4.40647 26.2323-2.17657C33.0953 0.15028 40.4784 0.535149 47.55-1.06015C48.3286-1.23937 49.0983-1.44796 49.8592-1.68594C51.5779-2.22652 53.5904-2.83173 55.0711-3.89821C55.1115-3.92807 55.1363-3.97443 55.1387-4.02453L55.1387-9.33928C55.1387-9.38634 55.1171-9.43078 55.08-9.45974C55.042-9.49009 54.992-9.50096 54.9448-9.48911C50.4117-8.41645 45.7684-7.87905 41.1101-7.88793C33.0895-7.88793 30.936-11.6603 30.316-13.2291C29.82-14.5852 29.5049-16.0008 29.3788-17.4392C29.3746-17.5251 29.4407-17.5982 29.5266-17.6025C29.5421-17.6032 29.5577-17.6017 29.5728-17.5978C34.0296-16.5314 38.5981-15.9937 43.1813-15.9937C44.286-15.9937 45.3848-15.9937 46.4865-16.0231C51.0991-16.1524 55.9584-16.3874 60.4946-17.2629C60.6062-17.2864 60.7208-17.307 60.8178-17.3334C67.9717-18.6966 74.7818-22.9743 75.4752-33.7977C75.4987-34.2237 75.5633-38.2633 75.5633-38.704C75.5692-40.2083 76.0539-49.3688 75.4928-54.9949ZM64.4814-27.9805L56.9573-27.9805L56.9573-46.2487C56.9573-50.0944 55.3414-52.054 52.0509-52.054C48.4373-52.054 46.6275-49.7331 46.6275-45.1499L46.6275-35.152L39.1475-35.152L39.1475-45.1528C39.1475-49.736 37.3348-52.057 33.7182-52.057C30.4512-52.057 28.8177-50.0944 28.8118-46.2487L28.8118-27.9805L21.2995-27.9805L21.2995-46.801C21.2995-50.6497 22.2896-53.7052 24.2698-55.9674C26.3146-58.2296 28.994-59.3871 32.3197-59.3871C36.1714-59.3871 39.0829-57.9182 41.0219-54.9861L42.8963-51.8719L44.7707-54.9861C46.7098-57.9211 49.6183-59.3871 53.467-59.3871C56.7869-59.3871 59.4693-58.2266 61.517-55.9674C63.5001-53.7052 64.4902-50.6497 64.4902-46.801C64.4902-46.801 64.4814-27.9805 64.4814-27.9805Z"/>
  </g>
 </g>
</svg>
