<?xml version="1.0" encoding="UTF-8"?>
<!--Generator: Apple Native CoreSVG 341-->
<!DOCTYPE svg
PUBLIC "-//W3C//DTD SVG 1.1//EN"
       "http://www.w3.org/Graphics/SVG/1.1/DTD/svg11.dtd">
<svg version="1.1" xmlns="http://www.w3.org/2000/svg" xmlns:xlink="http://www.w3.org/1999/xlink" viewBox="0 0 3300 2200">
 <!--glyph: "", point size: 100.0, font version: "20.0d10e1", template writer version: "138.0.0"-->
 <style>.monochrome-0 {-sfsymbols-motion-group:1;-sfsymbols-layer-tags:6ea44036eb48dace}
.monochrome-1 {opacity:0.0;-sfsymbols-clear-behind:true;-sfsymbols-motion-group:0;-sfsymbols-layer-tags:6ea44036eb48dace}

.multicolor-0:systemGreenColor {-sfsymbols-motion-group:1;-sfsymbols-layer-tags:6ea44036eb48dace}
.multicolor-1:white {-sfsymbols-motion-group:0;-sfsymbols-layer-tags:6ea44036eb48dace}

.hierarchical-0:tertiary {-sfsymbols-motion-group:1;-sfsymbols-layer-tags:6ea44036eb48dace}
.hierarchical-1:primary {-sfsymbols-motion-group:0;-sfsymbols-layer-tags:6ea44036eb48dace}

.SFSymbolsPreviewWireframe {fill:none;opacity:1.0;stroke:black;stroke-width:0.5}
</style>
 <g id="Notes">
  <rect height="2200" id="artboard" style="fill:white;opacity:1" width="3300" x="0" y="0"/>
  <line style="fill:none;stroke:black;opacity:1;stroke-width:0.5;" x1="263" x2="3036" y1="292" y2="292"/>
  <text style="stroke:none;fill:black;font-family:sans-serif;font-size:13;font-weight:bold;" transform="matrix(1 0 0 1 263 322)">Weight/Scale Variations</text>
  <text style="stroke:none;fill:black;font-family:sans-serif;font-size:13;text-anchor:middle;" transform="matrix(1 0 0 1 559.711 322)">Ultralight</text>
  <text style="stroke:none;fill:black;font-family:sans-serif;font-size:13;text-anchor:middle;" transform="matrix(1 0 0 1 856.422 322)">Thin</text>
  <text style="stroke:none;fill:black;font-family:sans-serif;font-size:13;text-anchor:middle;" transform="matrix(1 0 0 1 1153.13 322)">Light</text>
  <text style="stroke:none;fill:black;font-family:sans-serif;font-size:13;text-anchor:middle;" transform="matrix(1 0 0 1 1449.84 322)">Regular</text>
  <text style="stroke:none;fill:black;font-family:sans-serif;font-size:13;text-anchor:middle;" transform="matrix(1 0 0 1 1746.56 322)">Medium</text>
  <text style="stroke:none;fill:black;font-family:sans-serif;font-size:13;text-anchor:middle;" transform="matrix(1 0 0 1 2043.27 322)">Semibold</text>
  <text style="stroke:none;fill:black;font-family:sans-serif;font-size:13;text-anchor:middle;" transform="matrix(1 0 0 1 2339.98 322)">Bold</text>
  <text style="stroke:none;fill:black;font-family:sans-serif;font-size:13;text-anchor:middle;" transform="matrix(1 0 0 1 2636.69 322)">Heavy</text>
  <text style="stroke:none;fill:black;font-family:sans-serif;font-size:13;text-anchor:middle;" transform="matrix(1 0 0 1 2933.4 322)">Black</text>
  <line style="fill:none;stroke:black;opacity:1;stroke-width:0.5;" x1="263" x2="3036" y1="1903" y2="1903"/>
  <g transform="matrix(0.2 0 0 0.2 263 1933)">
   <path d="m46.2402 4.15039c21.7773 0 39.4531-17.627 39.4531-39.4043s-17.6758-39.4043-39.4531-39.4043c-21.7285 0-39.4043 17.627-39.4043 39.4043s17.6758 39.4043 39.4043 39.4043Zm0-7.42188c-17.6758 0-31.9336-14.3066-31.9336-31.9824s14.2578-31.9824 31.9336-31.9824 31.9824 14.3066 31.9824 31.9824-14.3066 31.9824-31.9824 31.9824Zm-17.9688-31.9824c0 2.14844 1.51367 3.61328 3.75977 3.61328h10.498v10.5957c0 2.19727 1.46484 3.71094 3.61328 3.71094 2.24609 0 3.71094-1.51367 3.71094-3.71094v-10.5957h10.5957c2.19727 0 3.71094-1.46484 3.71094-3.61328 0-2.19727-1.51367-3.71094-3.71094-3.71094h-10.5957v-10.5469c0-2.24609-1.46484-3.75977-3.71094-3.75977-2.14844 0-3.61328 1.51367-3.61328 3.75977v10.5469h-10.498c-2.24609 0-3.75977 1.51367-3.75977 3.71094Z"/>
  </g>
  <g transform="matrix(0.2 0 0 0.2 281.506 1933)">
   <path d="m58.5449 14.5508c27.4902 0 49.8047-22.3145 49.8047-49.8047s-22.3145-49.8047-49.8047-49.8047-49.8047 22.3145-49.8047 49.8047 22.3145 49.8047 49.8047 49.8047Zm0-8.30078c-22.9492 0-41.5039-18.5547-41.5039-41.5039s18.5547-41.5039 41.5039-41.5039 41.5039 18.5547 41.5039 41.5039-18.5547 41.5039-41.5039 41.5039Zm-22.6562-41.5039c0 2.39258 1.66016 4.00391 4.15039 4.00391h14.3555v14.4043c0 2.44141 1.66016 4.15039 4.05273 4.15039 2.44141 0 4.15039-1.66016 4.15039-4.15039v-14.4043h14.4043c2.44141 0 4.15039-1.61133 4.15039-4.00391 0-2.44141-1.70898-4.15039-4.15039-4.15039h-14.4043v-14.3555c0-2.49023-1.70898-4.19922-4.15039-4.19922-2.39258 0-4.05273 1.70898-4.05273 4.19922v14.3555h-14.3555c-2.49023 0-4.15039 1.70898-4.15039 4.15039Z"/>
  </g>
  <g transform="matrix(0.2 0 0 0.2 304.924 1933)">
   <path d="m74.8535 28.3203c35.1074 0 63.623-28.4668 63.623-63.5742s-28.5156-63.623-63.623-63.623-63.5742 28.5156-63.5742 63.623 28.4668 63.5742 63.5742 63.5742Zm0-9.08203c-30.127 0-54.4922-24.3652-54.4922-54.4922s24.3652-54.4922 54.4922-54.4922 54.4922 24.3652 54.4922 54.4922-24.3652 54.4922-54.4922 54.4922Zm-28.8574-54.4922c0 2.58789 1.85547 4.39453 4.58984 4.39453h19.7266v19.7754c0 2.68555 1.85547 4.58984 4.44336 4.58984 2.68555 0 4.54102-1.85547 4.54102-4.58984v-19.7754h19.7754c2.68555 0 4.58984-1.80664 4.58984-4.39453 0-2.73438-1.85547-4.58984-4.58984-4.58984h-19.7754v-19.7266c0-2.73438-1.85547-4.63867-4.54102-4.63867-2.58789 0-4.44336 1.9043-4.44336 4.63867v19.7266h-19.7266c-2.73438 0-4.58984 1.85547-4.58984 4.58984Z"/>
  </g>
  <text style="stroke:none;fill:black;font-family:sans-serif;font-size:13;font-weight:bold;" transform="matrix(1 0 0 1 263 1953)">Design Variations</text>
  <text style="stroke:none;fill:black;font-family:sans-serif;font-size:13;" transform="matrix(1 0 0 1 263 1971)">Symbols are supported in up to nine weights and three scales.</text>
  <text style="stroke:none;fill:black;font-family:sans-serif;font-size:13;" transform="matrix(1 0 0 1 263 1989)">For optimal layout with text and other symbols, vertically align</text>
  <text style="stroke:none;fill:black;font-family:sans-serif;font-size:13;" transform="matrix(1 0 0 1 263 2007)">symbols with the adjacent text.</text>
  <line style="fill:none;stroke:#00AEEF;stroke-width:0.5;opacity:1.0;" x1="776" x2="776" y1="1919" y2="1933"/>
  <g transform="matrix(0.2 0 0 0.2 776 1933)">
   <path d="m16.5527 0.78125c2.58789 0 3.85742-0.976562 4.78516-3.71094l6.29883-17.2363h28.8086l6.29883 17.2363c0.927734 2.73438 2.19727 3.71094 4.73633 3.71094 2.58789 0 4.24805-1.5625 4.24805-4.00391 0-0.830078-0.146484-1.61133-0.537109-2.63672l-22.9004-60.9863c-1.12305-2.97852-3.125-4.49219-6.25-4.49219-3.02734 0-5.07812 1.46484-6.15234 4.44336l-22.9004 61.084c-0.390625 1.02539-0.537109 1.80664-0.537109 2.63672 0 2.44141 1.5625 3.95508 4.10156 3.95508Zm13.4766-28.3691 11.8652-32.8613h0.244141l11.8652 32.8613Z"/>
  </g>
  <line style="fill:none;stroke:#00AEEF;stroke-width:0.5;opacity:1.0;" x1="792.836" x2="792.836" y1="1919" y2="1933"/>
  <text style="stroke:none;fill:black;font-family:sans-serif;font-size:13;font-weight:bold;" transform="matrix(1 0 0 1 776 1953)">Margins</text>
  <text style="stroke:none;fill:black;font-family:sans-serif;font-size:13;" transform="matrix(1 0 0 1 776 1971)">Leading and trailing margins on the left and right side of each symbol</text>
  <text style="stroke:none;fill:black;font-family:sans-serif;font-size:13;" transform="matrix(1 0 0 1 776 1989)">can be adjusted by modifying the x-location of the margin guidelines.</text>
  <text style="stroke:none;fill:black;font-family:sans-serif;font-size:13;" transform="matrix(1 0 0 1 776 2007)">Modifications are automatically applied proportionally to all</text>
  <text style="stroke:none;fill:black;font-family:sans-serif;font-size:13;" transform="matrix(1 0 0 1 776 2025)">scales and weights.</text>
  <g transform="matrix(0.2 0 0 0.2 1289 1933)">
   <path d="m14.209 9.32617 8.49609 8.54492c4.29688 4.3457 9.22852 4.05273 13.8672-1.07422l53.4668-58.9355-4.83398-4.88281-53.0762 58.3984c-1.75781 2.00195-3.41797 2.49023-5.76172 0.146484l-5.85938-5.81055c-2.34375-2.29492-1.80664-4.00391 0.195312-5.81055l57.373-54.0039-4.88281-4.83398-57.959 54.4434c-4.93164 4.58984-5.32227 9.47266-1.02539 13.8184Zm32.0801-90.9668c-2.09961 2.05078-2.24609 4.93164-1.07422 6.88477 1.17188 1.80664 3.4668 2.97852 6.68945 2.14844 7.32422-1.70898 14.9414-2.00195 22.0703 2.68555l-2.92969 7.27539c-1.70898 4.15039-0.830078 7.08008 1.85547 9.81445l11.4746 11.5723c2.44141 2.44141 4.49219 2.53906 7.32422 2.05078l5.32227-0.976562 3.32031 3.36914-0.195312 2.7832c-0.195312 2.49023 0.439453 4.39453 2.88086 6.78711l3.80859 3.71094c2.39258 2.39258 5.46875 2.53906 7.8125 0.195312l14.5508-14.5996c2.34375-2.34375 2.24609-5.32227-0.146484-7.71484l-3.85742-3.80859c-2.39258-2.39258-4.24805-3.17383-6.64062-2.97852l-2.88086 0.244141-3.22266-3.17383 1.2207-5.61523c0.634766-2.83203-0.146484-5.0293-3.07617-7.95898l-10.9863-10.9375c-16.6992-16.6016-38.8672-16.2109-53.3203-1.75781Zm7.4707 1.85547c12.1582-8.88672 28.6133-7.37305 39.7461 3.75977l12.1582 12.0605c1.17188 1.17188 1.36719 2.09961 1.02539 3.80859l-1.61133 7.42188 7.51953 7.42188 4.93164-0.292969c1.26953-0.0488281 1.66016 0.0488281 2.63672 1.02539l2.88086 2.88086-12.207 12.207-2.88086-2.88086c-0.976562-0.976562-1.12305-1.36719-1.07422-2.68555l0.341797-4.88281-7.4707-7.42188-7.61719 1.26953c-1.61133 0.341797-2.34375 0.195312-3.56445-0.976562l-10.0098-10.0098c-1.26953-1.17188-1.41602-2.00195-0.634766-3.85742l4.39453-10.4492c-7.8125-7.27539-17.9688-10.4004-28.125-7.42188-0.78125 0.195312-1.07422-0.439453-0.439453-0.976562Z"/>
  </g>
  <text style="stroke:none;fill:black;font-family:sans-serif;font-size:13;font-weight:bold;" transform="matrix(1 0 0 1 1289 1953)">Exporting</text>
  <text style="stroke:none;fill:black;font-family:sans-serif;font-size:13;" transform="matrix(1 0 0 1 1289 1971)">Symbols should be outlined when exporting to ensure the</text>
  <text style="stroke:none;fill:black;font-family:sans-serif;font-size:13;" transform="matrix(1 0 0 1 1289 1989)">design is preserved when submitting to Xcode.</text>
  <text id="template-version" style="stroke:none;fill:black;font-family:sans-serif;font-size:13;text-anchor:end;" transform="matrix(1 0 0 1 3036 1933)">Template v.6.0</text>
  <text style="stroke:none;fill:black;font-family:sans-serif;font-size:13;text-anchor:end;" transform="matrix(1 0 0 1 3036 1951)">Requires Xcode 16 or greater</text>
  <text id="descriptive-name" style="stroke:none;fill:black;font-family:sans-serif;font-size:13;text-anchor:end;" transform="matrix(1 0 0 1 3036 1969)">Generated from toggle.on</text>
  <text style="stroke:none;fill:black;font-family:sans-serif;font-size:13;text-anchor:end;" transform="matrix(1 0 0 1 3036 1987)">Typeset at 100.0 points</text>
  <text style="stroke:none;fill:black;font-family:sans-serif;font-size:13;" transform="matrix(1 0 0 1 263 726)">Small</text>
  <text style="stroke:none;fill:black;font-family:sans-serif;font-size:13;" transform="matrix(1 0 0 1 263 1156)">Medium</text>
  <text style="stroke:none;fill:black;font-family:sans-serif;font-size:13;" transform="matrix(1 0 0 1 263 1586)">Large</text>
 </g>
 <g id="Guides">
  <g id="H-reference" style="fill:#27AAE1;stroke:none;" transform="matrix(1 0 0 1 339 696)">
   <path d="M0.993654 0L3.63775 0L29.3281-67.1323L30.0303-67.1323L30.0303-70.459L28.1226-70.459ZM11.6885-24.4799L46.9815-24.4799L46.2315-26.7285L12.4385-26.7285ZM55.1196 0L57.7637 0L30.6382-70.459L29.4326-70.459L29.4326-67.1323Z"/>
  </g>
  <line id="Baseline-S" style="fill:none;stroke:#27AAE1;opacity:1;stroke-width:0.5;" x1="263" x2="3036" y1="696" y2="696"/>
  <line id="Capline-S" style="fill:none;stroke:#27AAE1;opacity:1;stroke-width:0.5;" x1="263" x2="3036" y1="625.541" y2="625.541"/>
  <g id="H-reference" style="fill:#27AAE1;stroke:none;" transform="matrix(1 0 0 1 339 1126)">
   <path d="M0.993654 0L3.63775 0L29.3281-67.1323L30.0303-67.1323L30.0303-70.459L28.1226-70.459ZM11.6885-24.4799L46.9815-24.4799L46.2315-26.7285L12.4385-26.7285ZM55.1196 0L57.7637 0L30.6382-70.459L29.4326-70.459L29.4326-67.1323Z"/>
  </g>
  <line id="Baseline-M" style="fill:none;stroke:#27AAE1;opacity:1;stroke-width:0.5;" x1="263" x2="3036" y1="1126" y2="1126"/>
  <line id="Capline-M" style="fill:none;stroke:#27AAE1;opacity:1;stroke-width:0.5;" x1="263" x2="3036" y1="1055.54" y2="1055.54"/>
  <g id="H-reference" style="fill:#27AAE1;stroke:none;" transform="matrix(1 0 0 1 339 1556)">
   <path d="M0.993654 0L3.63775 0L29.3281-67.1323L30.0303-67.1323L30.0303-70.459L28.1226-70.459ZM11.6885-24.4799L46.9815-24.4799L46.2315-26.7285L12.4385-26.7285ZM55.1196 0L57.7637 0L30.6382-70.459L29.4326-70.459L29.4326-67.1323Z"/>
  </g>
  <line id="Baseline-L" style="fill:none;stroke:#27AAE1;opacity:1;stroke-width:0.5;" x1="263" x2="3036" y1="1556" y2="1556"/>
  <line id="Capline-L" style="fill:none;stroke:#27AAE1;opacity:1;stroke-width:0.5;" x1="263" x2="3036" y1="1485.54" y2="1485.54"/>
  <line id="right-margin-Black-S" style="fill:none;stroke:#00AEEF;stroke-width:0.5;opacity:1.0;" x1="2982.2" x2="2982.2" y1="600.785" y2="720.121"/>
  <line id="left-margin-Black-S" style="fill:none;stroke:#00AEEF;stroke-width:0.5;opacity:1.0;" x1="2884.6" x2="2884.6" y1="600.785" y2="720.121"/>
  <line id="right-margin-Regular-S" style="fill:none;stroke:#00AEEF;stroke-width:0.5;opacity:1.0;" x1="1496.09" x2="1496.09" y1="600.785" y2="720.121"/>
  <line id="left-margin-Regular-S" style="fill:none;stroke:#00AEEF;stroke-width:0.5;opacity:1.0;" x1="1403.59" x2="1403.59" y1="600.785" y2="720.121"/>
  <line id="right-margin-Ultralight-S" style="fill:none;stroke:#00AEEF;stroke-width:0.5;opacity:1.0;" x1="603.811" x2="603.811" y1="600.785" y2="720.121"/>
  <line id="left-margin-Ultralight-S" style="fill:none;stroke:#FF3B30;stroke-width:0.5;opacity:1.0;" x1="515.611" x2="515.611" y1="600.785" y2="720.121"/>
 </g>
 <g id="Symbols">
  <g id="Black-S" transform="matrix(1 0 0 1 2884.6 696)">
   <path class="SFSymbolsPreviewWireframe" d="M40.6-60.8C38.1-60.8 35.5-60.8 33-60.7C29.9-60.5 27.5-60.1 25.2-59.6C19.9-58 15.1-55.1 11.8-50.7C8.5-46.4 6.6-41.2 6.6-35.8C6.6-30.5 8.4-25.1 11.7-20.9C15.1-16.7 19.9-13.6 25.2-12.1C27.5-11.5 30-11.2 33-11C35.7-10.9 38.4-10.9 41.2-10.9L57.6-10.9C60.3-10.9 63.1-10.9 65.8-11C68.9-11.2 71.3-11.6 73.6-12.1C78.9-13.6 83.7-16.6 87-20.9C90.3-25.2 92.1-30.4 92.1-35.8C92.1-41.1 90.3-46.5 87-50.7C83.7-54.9 79-58 73.5-59.5C71.2-60.1 68.7-60.4 65.7-60.6C63-60.7 60.3-60.7 57.4-60.7L41.2-60.7C41.1-60.8 40.8-60.8 40.6-60.8ZM88.1-35.7C88.1-24.2 78.4-14.8 66.5-14.8C54.6-14.8 44.9-24.2 44.9-35.7C44.9-47.2 54.6-56.6 66.5-56.6C78.4-56.6 88.1-47.2 88.1-35.7Z"/>
   <path class="monochrome-0 multicolor-0:systemGreenColor hierarchical-0:tertiary SFSymbolsPreviewWireframe" d="M42-9.7L41.2-9.7C38.4-9.7 35.7-9.7 33-9.8C29.9-10 27.3-10.4 25-10.9C19.4-12.5 14.5-15.6 11-20.1C7.5-24.5 5.6-30.1 5.6-35.7C5.6-41.2 7.5-46.8 11-51.3C14.5-55.8 19.4-59 25-60.5C27.4-61.1 30-61.5 33-61.6C35.8-61.7 38.6-61.7 41.3-61.7L57.5-61.7C60.5-61.7 63.1-61.7 65.8-61.6C68.9-61.4 71.5-61 73.8-60.5C79.4-58.9 84.3-55.8 87.8-51.3C91.3-46.9 93.2-41.3 93.2-35.7C93.2-30.2 91.3-24.6 87.8-20.1C84.3-15.6 79.4-12.4 73.8-10.9C71.4-10.3 68.9-9.9 65.8-9.8C63.1-9.7 60.3-9.7 57.6-9.7L42-9.7Z"/>
   <path class="monochrome-1 multicolor-1:white hierarchical-1:primary SFSymbolsPreviewWireframe" d="M66.5-13.8C54-13.8 43.8-23.7 43.8-35.7C43.8-47.8 54-57.6 66.5-57.6C79-57.6 89.2-47.7 89.2-35.7C89.2-23.7 79-13.8 66.5-13.8Z"/>
  </g>
  <g id="Regular-S" transform="matrix(1 0 0 1 1403.59 696)">
   <path class="SFSymbolsPreviewWireframe" d="M37.6-60.8C35.1-60.8 32.5-60.8 30-60.7C26.9-60.5 24.5-60.1 22.2-59.6C16.9-58 12.1-55.1 8.8-50.7C5.5-46.4 3.6-41.2 3.6-35.8C3.6-30.5 5.4-25.1 8.7-20.9C12.1-16.7 16.9-13.6 22.2-12.1C24.5-11.5 27-11.2 30-11C32.7-10.9 35.4-10.9 38.2-10.9L54.6-10.9C57.3-10.9 60.1-10.9 62.8-11C65.9-11.2 68.3-11.6 70.6-12.1C75.9-13.6 80.7-16.6 84-20.9C87.3-25.2 89.1-30.4 89.1-35.8C89.1-41.1 87.3-46.5 84-50.7C80.7-54.9 76-58 70.5-59.5C68.2-60.1 65.7-60.4 62.7-60.6C60-60.7 57.3-60.7 54.4-60.7L38.2-60.7C38.1-60.8 37.8-60.8 37.6-60.8ZM85.1-35.7C85.1-24.2 75.4-14.8 63.5-14.8C51.6-14.8 41.9-24.2 41.9-35.7C41.9-47.2 51.6-56.6 63.5-56.6C75.4-56.6 85.1-47.2 85.1-35.7Z"/>
   <path class="monochrome-0 multicolor-0:systemGreenColor hierarchical-0:tertiary SFSymbolsPreviewWireframe" d="M39-9.7L38.2-9.7C35.4-9.7 32.7-9.7 30-9.8C26.9-10 24.3-10.4 22-10.9C16.4-12.5 11.5-15.6 8-20.1C4.5-24.5 2.6-30.1 2.6-35.7C2.6-41.2 4.5-46.8 8-51.3C11.5-55.8 16.4-59 22-60.5C24.4-61.1 27-61.5 30-61.6C32.8-61.7 35.6-61.7 38.3-61.7L54.5-61.7C57.5-61.7 60.1-61.7 62.8-61.6C65.9-61.4 68.5-61 70.8-60.5C76.4-58.9 81.3-55.8 84.8-51.3C88.3-46.9 90.2-41.3 90.2-35.7C90.2-30.2 88.3-24.6 84.8-20.1C81.3-15.6 76.4-12.4 70.8-10.9C68.4-10.3 65.9-9.9 62.8-9.8C60.1-9.7 57.3-9.7 54.6-9.7L39-9.7Z"/>
   <path class="monochrome-1 multicolor-1:white hierarchical-1:primary SFSymbolsPreviewWireframe" d="M63.5-13.8C51-13.8 40.8-23.7 40.8-35.7C40.8-47.8 51-57.6 63.5-57.6C76-57.6 86.2-47.7 86.2-35.7C86.2-23.7 76-13.8 63.5-13.8Z"/>
  </g>
  <g id="Ultralight-S" transform="matrix(1 0 0 1 515.611 696)">
   <path class="SFSymbolsPreviewWireframe" d="M35.1-60.8C32.6-60.8 30-60.8 27.5-60.7C24.4-60.5 22-60.1 19.7-59.6C14.4-58 9.6-55.1 6.3-50.7C3-46.4 1.1-41.2 1.1-35.8C1.1-30.5 2.9-25.1 6.2-20.9C9.6-16.7 14.4-13.6 19.7-12.1C22-11.5 24.5-11.2 27.5-11C30.2-10.9 32.9-10.9 35.7-10.9L52.1-10.9C54.8-10.9 57.6-10.9 60.3-11C63.4-11.2 65.8-11.6 68.1-12.1C73.4-13.6 78.2-16.6 81.5-20.9C84.8-25.2 86.6-30.4 86.6-35.8C86.6-41.1 84.8-46.5 81.5-50.7C78.2-54.9 73.5-58 68-59.5C65.7-60.1 63.2-60.4 60.2-60.6C57.5-60.7 54.8-60.7 51.9-60.7L35.7-60.7C35.6-60.8 35.3-60.8 35.1-60.8ZM82.6-35.7C82.6-24.2 72.9-14.8 61-14.8C49.1-14.8 39.4-24.2 39.4-35.7C39.4-47.2 49.1-56.6 61-56.6C72.8-56.6 82.6-47.2 82.6-35.7Z"/>
   <path class="monochrome-0 multicolor-0:systemGreenColor hierarchical-0:tertiary SFSymbolsPreviewWireframe" d="M36.4-9.7L35.6-9.7C32.8-9.7 30.1-9.7 27.4-9.8C24.3-10 21.7-10.4 19.4-10.9C13.8-12.5 8.9-15.6 5.4-20.1C1.9-24.5 0-30.1 0-35.7C0-41.2 1.9-46.8 5.4-51.3C8.9-55.8 13.8-59 19.4-60.5C21.8-61.1 24.4-61.5 27.4-61.6C30.2-61.7 33-61.7 35.7-61.7L51.9-61.7C54.9-61.7 57.5-61.7 60.2-61.6C63.3-61.4 65.9-61 68.2-60.5C73.8-58.9 78.7-55.8 82.2-51.3C85.7-46.9 87.6-41.3 87.6-35.7C87.6-30.2 85.7-24.6 82.2-20.1C78.7-15.6 73.8-12.4 68.2-10.9C65.8-10.3 63.3-9.9 60.2-9.8C57.5-9.7 54.7-9.7 52-9.7L36.4-9.7Z"/>
   <path class="monochrome-1 multicolor-1:white hierarchical-1:primary SFSymbolsPreviewWireframe" d="M60.9-13.8C48.4-13.8 38.2-23.7 38.2-35.7C38.2-47.8 48.4-57.6 60.9-57.6C73.4-57.6 83.6-47.7 83.6-35.7C83.6-23.7 73.4-13.8 60.9-13.8Z"/>
  </g>
 </g>
</svg>
