<?xml version="1.0" encoding="UTF-8"?>
<!--Generator: Apple Native CoreSVG 341-->
<!DOCTYPE svg
PUBLIC "-//W3C//DTD SVG 1.1//EN"
       "http://www.w3.org/Graphics/SVG/1.1/DTD/svg11.dtd">
<svg version="1.1" xmlns="http://www.w3.org/2000/svg" xmlns:xlink="http://www.w3.org/1999/xlink" viewBox="0 0 3300 2200">
 <!--glyph: "", point size: 100.0, font version: "20.0d10e1", template writer version: "138.0.0"-->
 <style>.monochrome-0 {-sfsymbols-motion-group:3;-sfsymbols-layer-tags:-2a5498b60b49e37a}
.monochrome-1 {-sfsymbols-motion-group:2;-sfsymbols-layer-tags:-2a5498b60b49e37a}
.monochrome-2 {opacity:0.0;-sfsymbols-clear-behind:true;-sfsymbols-motion-group:1;-sfsymbols-layer-tags:-2a5498b60b49e37a}
.monochrome-3 {opacity:0.0;-sfsymbols-clear-behind:true;-sfsymbols-motion-group:0;-sfsymbols-layer-tags:-2a5498b60b49e37a}

.multicolor-0:custom {fill:#BDCF46;-sfsymbols-motion-group:3;-sfsymbols-layer-tags:-2a5498b60b49e37a}
.multicolor-1:custom {fill:#6E823A;-sfsymbols-clear-behind:true;-sfsymbols-motion-group:2;-sfsymbols-layer-tags:-2a5498b60b49e37a}
.multicolor-2:custom {fill:#484E23;-sfsymbols-motion-group:1;-sfsymbols-layer-tags:-2a5498b60b49e37a}
.multicolor-3:black {-sfsymbols-motion-group:0;-sfsymbols-layer-tags:-2a5498b60b49e37a}

.hierarchical-0:tertiary {-sfsymbols-motion-group:3;-sfsymbols-layer-tags:-2a5498b60b49e37a}
.hierarchical-1:secondary {-sfsymbols-clear-behind:true;-sfsymbols-motion-group:2;-sfsymbols-layer-tags:-2a5498b60b49e37a}
.hierarchical-2:primary {-sfsymbols-motion-group:1;-sfsymbols-layer-tags:-2a5498b60b49e37a}
.hierarchical-3:primary {-sfsymbols-motion-group:0;-sfsymbols-layer-tags:-2a5498b60b49e37a}

.SFSymbolsPreviewWireframe {fill:none;opacity:1.0;stroke:black;stroke-width:0.5}
</style>
 <g id="Notes">
  <rect height="2200" id="artboard" style="fill:white;opacity:1" width="3300" x="0" y="0"/>
  <line style="fill:none;stroke:black;opacity:1;stroke-width:0.5;" x1="263" x2="3036" y1="292" y2="292"/>
  <text style="stroke:none;fill:black;font-family:sans-serif;font-size:13;font-weight:bold;" transform="matrix(1 0 0 1 263 322)">Weight/Scale Variations</text>
  <text style="stroke:none;fill:black;font-family:sans-serif;font-size:13;text-anchor:middle;" transform="matrix(1 0 0 1 559.711 322)">Ultralight</text>
  <text style="stroke:none;fill:black;font-family:sans-serif;font-size:13;text-anchor:middle;" transform="matrix(1 0 0 1 856.422 322)">Thin</text>
  <text style="stroke:none;fill:black;font-family:sans-serif;font-size:13;text-anchor:middle;" transform="matrix(1 0 0 1 1153.13 322)">Light</text>
  <text style="stroke:none;fill:black;font-family:sans-serif;font-size:13;text-anchor:middle;" transform="matrix(1 0 0 1 1449.84 322)">Regular</text>
  <text style="stroke:none;fill:black;font-family:sans-serif;font-size:13;text-anchor:middle;" transform="matrix(1 0 0 1 1746.56 322)">Medium</text>
  <text style="stroke:none;fill:black;font-family:sans-serif;font-size:13;text-anchor:middle;" transform="matrix(1 0 0 1 2043.27 322)">Semibold</text>
  <text style="stroke:none;fill:black;font-family:sans-serif;font-size:13;text-anchor:middle;" transform="matrix(1 0 0 1 2339.98 322)">Bold</text>
  <text style="stroke:none;fill:black;font-family:sans-serif;font-size:13;text-anchor:middle;" transform="matrix(1 0 0 1 2636.69 322)">Heavy</text>
  <text style="stroke:none;fill:black;font-family:sans-serif;font-size:13;text-anchor:middle;" transform="matrix(1 0 0 1 2933.4 322)">Black</text>
  <line style="fill:none;stroke:black;opacity:1;stroke-width:0.5;" x1="263" x2="3036" y1="1903" y2="1903"/>
  <g transform="matrix(0.2 0 0 0.2 263 1933)">
   <path d="m46.2402 4.15039c21.7773 0 39.4531-17.627 39.4531-39.4043s-17.6758-39.4043-39.4531-39.4043c-21.7285 0-39.4043 17.627-39.4043 39.4043s17.6758 39.4043 39.4043 39.4043Zm0-7.42188c-17.6758 0-31.9336-14.3066-31.9336-31.9824s14.2578-31.9824 31.9336-31.9824 31.9824 14.3066 31.9824 31.9824-14.3066 31.9824-31.9824 31.9824Zm-17.9688-31.9824c0 2.14844 1.51367 3.61328 3.75977 3.61328h10.498v10.5957c0 2.19727 1.46484 3.71094 3.61328 3.71094 2.24609 0 3.71094-1.51367 3.71094-3.71094v-10.5957h10.5957c2.19727 0 3.71094-1.46484 3.71094-3.61328 0-2.19727-1.51367-3.71094-3.71094-3.71094h-10.5957v-10.5469c0-2.24609-1.46484-3.75977-3.71094-3.75977-2.14844 0-3.61328 1.51367-3.61328 3.75977v10.5469h-10.498c-2.24609 0-3.75977 1.51367-3.75977 3.71094Z"/>
  </g>
  <g transform="matrix(0.2 0 0 0.2 281.506 1933)">
   <path d="m58.5449 14.5508c27.4902 0 49.8047-22.3145 49.8047-49.8047s-22.3145-49.8047-49.8047-49.8047-49.8047 22.3145-49.8047 49.8047 22.3145 49.8047 49.8047 49.8047Zm0-8.30078c-22.9492 0-41.5039-18.5547-41.5039-41.5039s18.5547-41.5039 41.5039-41.5039 41.5039 18.5547 41.5039 41.5039-18.5547 41.5039-41.5039 41.5039Zm-22.6562-41.5039c0 2.39258 1.66016 4.00391 4.15039 4.00391h14.3555v14.4043c0 2.44141 1.66016 4.15039 4.05273 4.15039 2.44141 0 4.15039-1.66016 4.15039-4.15039v-14.4043h14.4043c2.44141 0 4.15039-1.61133 4.15039-4.00391 0-2.44141-1.70898-4.15039-4.15039-4.15039h-14.4043v-14.3555c0-2.49023-1.70898-4.19922-4.15039-4.19922-2.39258 0-4.05273 1.70898-4.05273 4.19922v14.3555h-14.3555c-2.49023 0-4.15039 1.70898-4.15039 4.15039Z"/>
  </g>
  <g transform="matrix(0.2 0 0 0.2 304.924 1933)">
   <path d="m74.8535 28.3203c35.1074 0 63.623-28.4668 63.623-63.5742s-28.5156-63.623-63.623-63.623-63.5742 28.5156-63.5742 63.623 28.4668 63.5742 63.5742 63.5742Zm0-9.08203c-30.127 0-54.4922-24.3652-54.4922-54.4922s24.3652-54.4922 54.4922-54.4922 54.4922 24.3652 54.4922 54.4922-24.3652 54.4922-54.4922 54.4922Zm-28.8574-54.4922c0 2.58789 1.85547 4.39453 4.58984 4.39453h19.7266v19.7754c0 2.68555 1.85547 4.58984 4.44336 4.58984 2.68555 0 4.54102-1.85547 4.54102-4.58984v-19.7754h19.7754c2.68555 0 4.58984-1.80664 4.58984-4.39453 0-2.73438-1.85547-4.58984-4.58984-4.58984h-19.7754v-19.7266c0-2.73438-1.85547-4.63867-4.54102-4.63867-2.58789 0-4.44336 1.9043-4.44336 4.63867v19.7266h-19.7266c-2.73438 0-4.58984 1.85547-4.58984 4.58984Z"/>
  </g>
  <text style="stroke:none;fill:black;font-family:sans-serif;font-size:13;font-weight:bold;" transform="matrix(1 0 0 1 263 1953)">Design Variations</text>
  <text style="stroke:none;fill:black;font-family:sans-serif;font-size:13;" transform="matrix(1 0 0 1 263 1971)">Symbols are supported in up to nine weights and three scales.</text>
  <text style="stroke:none;fill:black;font-family:sans-serif;font-size:13;" transform="matrix(1 0 0 1 263 1989)">For optimal layout with text and other symbols, vertically align</text>
  <text style="stroke:none;fill:black;font-family:sans-serif;font-size:13;" transform="matrix(1 0 0 1 263 2007)">symbols with the adjacent text.</text>
  <line style="fill:none;stroke:#00AEEF;stroke-width:0.5;opacity:1.0;" x1="776" x2="776" y1="1919" y2="1933"/>
  <g transform="matrix(0.2 0 0 0.2 776 1933)">
   <path d="m16.5527 0.78125c2.58789 0 3.85742-0.976562 4.78516-3.71094l6.29883-17.2363h28.8086l6.29883 17.2363c0.927734 2.73438 2.19727 3.71094 4.73633 3.71094 2.58789 0 4.24805-1.5625 4.24805-4.00391 0-0.830078-0.146484-1.61133-0.537109-2.63672l-22.9004-60.9863c-1.12305-2.97852-3.125-4.49219-6.25-4.49219-3.02734 0-5.07812 1.46484-6.15234 4.44336l-22.9004 61.084c-0.390625 1.02539-0.537109 1.80664-0.537109 2.63672 0 2.44141 1.5625 3.95508 4.10156 3.95508Zm13.4766-28.3691 11.8652-32.8613h0.244141l11.8652 32.8613Z"/>
  </g>
  <line style="fill:none;stroke:#00AEEF;stroke-width:0.5;opacity:1.0;" x1="792.836" x2="792.836" y1="1919" y2="1933"/>
  <text style="stroke:none;fill:black;font-family:sans-serif;font-size:13;font-weight:bold;" transform="matrix(1 0 0 1 776 1953)">Margins</text>
  <text style="stroke:none;fill:black;font-family:sans-serif;font-size:13;" transform="matrix(1 0 0 1 776 1971)">Leading and trailing margins on the left and right side of each symbol</text>
  <text style="stroke:none;fill:black;font-family:sans-serif;font-size:13;" transform="matrix(1 0 0 1 776 1989)">can be adjusted by modifying the x-location of the margin guidelines.</text>
  <text style="stroke:none;fill:black;font-family:sans-serif;font-size:13;" transform="matrix(1 0 0 1 776 2007)">Modifications are automatically applied proportionally to all</text>
  <text style="stroke:none;fill:black;font-family:sans-serif;font-size:13;" transform="matrix(1 0 0 1 776 2025)">scales and weights.</text>
  <g transform="matrix(0.2 0 0 0.2 1289 1933)">
   <path d="m14.209 9.32617 8.49609 8.54492c4.29688 4.3457 9.22852 4.05273 13.8672-1.07422l53.4668-58.9355-4.83398-4.88281-53.0762 58.3984c-1.75781 2.00195-3.41797 2.49023-5.76172 0.146484l-5.85938-5.81055c-2.34375-2.29492-1.80664-4.00391 0.195312-5.81055l57.373-54.0039-4.88281-4.83398-57.959 54.4434c-4.93164 4.58984-5.32227 9.47266-1.02539 13.8184Zm32.0801-90.9668c-2.09961 2.05078-2.24609 4.93164-1.07422 6.88477 1.17188 1.80664 3.4668 2.97852 6.68945 2.14844 7.32422-1.70898 14.9414-2.00195 22.0703 2.68555l-2.92969 7.27539c-1.70898 4.15039-0.830078 7.08008 1.85547 9.81445l11.4746 11.5723c2.44141 2.44141 4.49219 2.53906 7.32422 2.05078l5.32227-0.976562 3.32031 3.36914-0.195312 2.7832c-0.195312 2.49023 0.439453 4.39453 2.88086 6.78711l3.80859 3.71094c2.39258 2.39258 5.46875 2.53906 7.8125 0.195312l14.5508-14.5996c2.34375-2.34375 2.24609-5.32227-0.146484-7.71484l-3.85742-3.80859c-2.39258-2.39258-4.24805-3.17383-6.64062-2.97852l-2.88086 0.244141-3.22266-3.17383 1.2207-5.61523c0.634766-2.83203-0.146484-5.0293-3.07617-7.95898l-10.9863-10.9375c-16.6992-16.6016-38.8672-16.2109-53.3203-1.75781Zm7.4707 1.85547c12.1582-8.88672 28.6133-7.37305 39.7461 3.75977l12.1582 12.0605c1.17188 1.17188 1.36719 2.09961 1.02539 3.80859l-1.61133 7.42188 7.51953 7.42188 4.93164-0.292969c1.26953-0.0488281 1.66016 0.0488281 2.63672 1.02539l2.88086 2.88086-12.207 12.207-2.88086-2.88086c-0.976562-0.976562-1.12305-1.36719-1.07422-2.68555l0.341797-4.88281-7.4707-7.42188-7.61719 1.26953c-1.61133 0.341797-2.34375 0.195312-3.56445-0.976562l-10.0098-10.0098c-1.26953-1.17188-1.41602-2.00195-0.634766-3.85742l4.39453-10.4492c-7.8125-7.27539-17.9688-10.4004-28.125-7.42188-0.78125 0.195312-1.07422-0.439453-0.439453-0.976562Z"/>
  </g>
  <text style="stroke:none;fill:black;font-family:sans-serif;font-size:13;font-weight:bold;" transform="matrix(1 0 0 1 1289 1953)">Exporting</text>
  <text style="stroke:none;fill:black;font-family:sans-serif;font-size:13;" transform="matrix(1 0 0 1 1289 1971)">Symbols should be outlined when exporting to ensure the</text>
  <text style="stroke:none;fill:black;font-family:sans-serif;font-size:13;" transform="matrix(1 0 0 1 1289 1989)">design is preserved when submitting to Xcode.</text>
  <text id="template-version" style="stroke:none;fill:black;font-family:sans-serif;font-size:13;text-anchor:end;" transform="matrix(1 0 0 1 3036 1933)">Template v.6.0</text>
  <text style="stroke:none;fill:black;font-family:sans-serif;font-size:13;text-anchor:end;" transform="matrix(1 0 0 1 3036 1951)">Requires Xcode 16 or greater</text>
  <text id="descriptive-name" style="stroke:none;fill:black;font-family:sans-serif;font-size:13;text-anchor:end;" transform="matrix(1 0 0 1 3036 1969)">Generated from turtle</text>
  <text style="stroke:none;fill:black;font-family:sans-serif;font-size:13;text-anchor:end;" transform="matrix(1 0 0 1 3036 1987)">Typeset at 100.0 points</text>
  <text style="stroke:none;fill:black;font-family:sans-serif;font-size:13;" transform="matrix(1 0 0 1 263 726)">Small</text>
  <text style="stroke:none;fill:black;font-family:sans-serif;font-size:13;" transform="matrix(1 0 0 1 263 1156)">Medium</text>
  <text style="stroke:none;fill:black;font-family:sans-serif;font-size:13;" transform="matrix(1 0 0 1 263 1586)">Large</text>
 </g>
 <g id="Guides">
  <g id="H-reference" style="fill:#27AAE1;stroke:none;" transform="matrix(1 0 0 1 339 696)">
   <path d="M0.993654 0L3.63775 0L29.3281-67.1323L30.0303-67.1323L30.0303-70.459L28.1226-70.459ZM11.6885-24.4799L46.9815-24.4799L46.2315-26.7285L12.4385-26.7285ZM55.1196 0L57.7637 0L30.6382-70.459L29.4326-70.459L29.4326-67.1323Z"/>
  </g>
  <line id="Baseline-S" style="fill:none;stroke:#27AAE1;opacity:1;stroke-width:0.5;" x1="263" x2="3036" y1="696" y2="696"/>
  <line id="Capline-S" style="fill:none;stroke:#27AAE1;opacity:1;stroke-width:0.5;" x1="263" x2="3036" y1="625.541" y2="625.541"/>
  <g id="H-reference" style="fill:#27AAE1;stroke:none;" transform="matrix(1 0 0 1 339 1126)">
   <path d="M0.993654 0L3.63775 0L29.3281-67.1323L30.0303-67.1323L30.0303-70.459L28.1226-70.459ZM11.6885-24.4799L46.9815-24.4799L46.2315-26.7285L12.4385-26.7285ZM55.1196 0L57.7637 0L30.6382-70.459L29.4326-70.459L29.4326-67.1323Z"/>
  </g>
  <line id="Baseline-M" style="fill:none;stroke:#27AAE1;opacity:1;stroke-width:0.5;" x1="263" x2="3036" y1="1126" y2="1126"/>
  <line id="Capline-M" style="fill:none;stroke:#27AAE1;opacity:1;stroke-width:0.5;" x1="263" x2="3036" y1="1055.54" y2="1055.54"/>
  <g id="H-reference" style="fill:#27AAE1;stroke:none;" transform="matrix(1 0 0 1 339 1556)">
   <path d="M0.993654 0L3.63775 0L29.3281-67.1323L30.0303-67.1323L30.0303-70.459L28.1226-70.459ZM11.6885-24.4799L46.9815-24.4799L46.2315-26.7285L12.4385-26.7285ZM55.1196 0L57.7637 0L30.6382-70.459L29.4326-70.459L29.4326-67.1323Z"/>
  </g>
  <line id="Baseline-L" style="fill:none;stroke:#27AAE1;opacity:1;stroke-width:0.5;" x1="263" x2="3036" y1="1556" y2="1556"/>
  <line id="Capline-L" style="fill:none;stroke:#27AAE1;opacity:1;stroke-width:0.5;" x1="263" x2="3036" y1="1485.54" y2="1485.54"/>
  <line id="right-margin-Black-S" style="fill:none;stroke:#00AEEF;stroke-width:0.5;opacity:1.0;" x1="2982.2" x2="2982.2" y1="600.785" y2="720.121"/>
  <line id="left-margin-Black-S" style="fill:none;stroke:#00AEEF;stroke-width:0.5;opacity:1.0;" x1="2884.6" x2="2884.6" y1="600.785" y2="720.121"/>
  <line id="right-margin-Regular-S" style="fill:none;stroke:#00AEEF;stroke-width:0.5;opacity:1.0;" x1="1496.09" x2="1496.09" y1="600.785" y2="720.121"/>
  <line id="left-margin-Regular-S" style="fill:none;stroke:#00AEEF;stroke-width:0.5;opacity:1.0;" x1="1403.59" x2="1403.59" y1="600.785" y2="720.121"/>
  <line id="right-margin-Ultralight-S" style="fill:none;stroke:#00AEEF;stroke-width:0.5;opacity:1.0;" x1="603.811" x2="603.811" y1="600.785" y2="720.121"/>
  <line id="left-margin-Ultralight-S" style="fill:none;stroke:#00AEEF;stroke-width:0.5;opacity:1.0;" x1="515.611" x2="515.611" y1="600.785" y2="720.121"/>
 </g>
 <g id="Symbols">
  <g id="Black-S" transform="matrix(1 0 0 1 2884.6 696)">
   <path class="monochrome-0 multicolor-0:custom hierarchical-0:tertiary SFSymbolsPreviewWireframe" d="M88.3-45.9C88.3-45.9 91.5-47.7 92.3-48.1C93.1-48.5 96.1-50.4 97.2-48.8C97.9-47.8 96.6-45.2 94.7-42.4C92.9-39.9 88.8-34.6 88.6-33.6C88.4-32.6 89.5-28.4 89.8-26.8C90.1-25.1 91.2-21.3 90.8-19.8C90.4-18.4 88-14.2 82-14.3C77.3-14.3 75.8-15.7 75.7-16.6C75.6-17.3 75.3-19.2 75.3-19.2C75.3-19.2 71.4-16.8 69.6-15.9C67.7-15 62.9-12.5 62.9-12.5C62.9-12.5 63.9-8.1 64-6.3C64.1-4.5 64.7-2 63.8-0.3C62.9 1.2 60.4 3.8 54.1 3.8C49.2 3.8 48 2.3 47.3 1.4C46.5 0.5 46.4-3.9 46.4-4.8C46.4-5.7 46.3-9 46.3-9C46.3-9 39.8-9.3 35.8-9.7C32.3-9.9 27.5-10.5 27.5-10.5C27.5-10.5 27.7-8.6 27.8-7.2C27.9-6 28-3.4 26.7-2.1C24.9-0.4 20.5-0.3 18.1-0.6C15.7-0.8 12.2-2 11.3-4.4C10.4-6.8 11.6-9.6 12.2-11.2C12.6-12.6 13.5-14.8 13.2-15.4C12.9-16.1 9.9-16.8 5.6-21C1.3-25.3-4.3-40.2 8.2-50.6C20.9-61 44-49.7 45.2-48.9C46.3-48.1 88.3-45.9 88.3-45.9L88.3-45.9Z"/>
   <path class="monochrome-1 multicolor-1:custom hierarchical-1:secondary SFSymbolsPreviewWireframe" d="M50.4-73.6C39-73 30.5-67.4 26.2-61.3C23.7-57.7 22.4-55 22.4-55C22.4-55 26.4-54.9 29.9-53C34-50.8 38.7-48.5 41.8-38.2C44.1-30.5 45-23.1 51.2-21.4C58.2-19.5 74.2-20.5 81.9-27.9C89.6-35.3 91.1-41 89.2-48.3C87.2-55.7 78.5-68.7 66.2-72.3C60.9-73.8 55.6-73.8 50.4-73.6Z"/>
   <path class="monochrome-2 multicolor-2:custom hierarchical-2:primary SFSymbolsPreviewWireframe" d="M87.7-52.3C87.4-53.1 86.6-54.3 86.6-54.3C86.6-54.3 86.6-52.6 86.4-51.8C86.2-50.4 85.4-47.4 85-47.8C84.2-48.6 80.4-53.4 78.5-56.2C77.1-58.3 72.3-63.6 72.2-65.4C72.2-66.3 73.2-69.2 73.2-69.2C73.2-69.2 72.2-69.8 71.3-70.3C70.5-70.7 69.5-71.2 69.5-71.2C69.5-71.2 68.8-67.2 68.2-66.5C67.5-65.8 63.9-64.4 60.9-63.3C57.4-62 53.9-60.2 52.7-60C51.6-59.8 45.3-61.1 42.9-61.7C39.9-62.3 35.4-63.6 34.4-64.2C33.2-65.1 31.9-67.3 31.9-67.3C31.9-67.3 31.1-66.7 30.5-66.2C29.7-65.6 28.8-64.5 28.8-64.5C28.8-64.5 30.7-62.6 30.8-61.9C30.9-60.9 29.8-59.6 28.8-58.4C28.2-57.6 26.6-54.4 26.6-54.4C26.6-54.4 27.4-54.3 28.4-53.8C29.4-53.4 30.4-52.8 30.4-52.8C30.4-52.8 32.8-58.4 34.4-59C35.7-59.4 39.6-58.2 42.3-57.6C46.2-56.8 50.1-56.1 51-55.1C51.9-54 52.7-49.7 53.4-45.9C54.3-41.8 56.5-31.4 55.9-30.6C55.3-29.8 51.3-30 48.8-30.4C46.8-30.6 43.6-31.8 43.6-31.8C43.6-31.8 44-30 44.3-29.6C44.5-28.9 45.3-27.1 45.3-27.1C45.3-27.1 49.9-25.1 63.6-26.3C77.3-27.5 84-36.9 86-41C88.5-46.5 88.9-49.5 88.9-49.5C88.9-49.5 88-51.5 87.7-52.3L87.7-52.3ZM75.2-34.4C71.8-32.2 62.8-29.9 61.2-30.8C59.9-31.5 58-42.2 57-46.9C56.4-50 55-54.6 55.9-56.1C56.5-57.1 59.8-58.5 62.3-59.7C64.6-60.8 68-62.2 69-62.1C70.4-62 73.4-57.1 76.4-52.9C79.4-48.7 82.7-44.4 82.7-43C82.7-41.5 78.9-36.6 75.2-34.4L75.2-34.4Z"/>
   <path class="monochrome-3 multicolor-3:black hierarchical-3:primary SFSymbolsPreviewWireframe" d="M29.9-40.4C30.3-38.1 29.1-35.7 26.6-35.4C24.5-35.2 22.8-36.7 22.4-39C22-41.3 23.3-43.5 25.4-43.9C27.5-44.3 29.5-42.7 29.9-40.4ZM14.9-40.3C14.9-38 12.9-35.7 10.4-36.1C8.3-36.5 7.2-38.3 7.4-40.6C7.6-42.9 9.5-44.6 11.6-44.4C13.7-44.1 14.8-42.6 14.9-40.3ZM21.4-31.7C22.4-32.4 23.9-33.9 24.9-32.6C25.9-31.3 24.1-30.1 23.1-29.3C22.1-28.5 19.8-26.8 18.1-26.8C16.6-26.8 14.2-28.7 12.7-30C11.5-31 10.9-32.3 11.6-33.2C12.3-34 13.4-33.8 14.2-32.9C15.2-32 17.2-30.1 18.1-30.1C19-29.9 20.1-30.8 21.4-31.7L21.4-31.7Z"/>
  </g>
  <g id="Regular-S" transform="matrix(1 0 0 1 1403.59 696)">
   <path class="monochrome-0 multicolor-0:custom hierarchical-0:tertiary SFSymbolsPreviewWireframe" d="M83.7-45.3C83.7-45.3 86.7-47 87.5-47.4C88.2-47.8 91.1-49.6 92.1-48C92.7-47.1 91.6-44.5 89.7-41.9C88-39.5 84.2-34.5 83.9-33.5C83.7-32.6 84.7-28.6 85.1-27C85.4-25.4 86.5-21.8 86-20.4C85.6-18.9 83.4-15.1 77.7-15.2C73.2-15.2 71.9-16.6 71.7-17.4C71.6-18 71.3-19.9 71.3-19.9C71.3-19.9 67.6-17.6 65.9-16.8C64.1-16 59.5-13.6 59.5-13.6C59.5-13.6 60.4-9.5 60.5-7.8C60.6-6.1 61.1-3.7 60.3-2.2C59.5-0.7 57.1 1.7 51.2 1.7C46.6 1.7 45.4 0.2 44.7-0.6C44-1.4 43.9-5.6 43.9-6.5C43.9-7.3 43.8-10.4 43.8-10.4C43.8-10.4 37.6-10.7 33.9-11C30.6-11.2 26.1-11.7 26.1-11.7C26.1-11.7 26.3-9.9 26.4-8.6C26.5-7.4 26.6-5 25.4-3.8C23.7-2.2 19.5-2.1 17.2-2.3C14.9-2.5 11.7-3.7 10.7-5.9C9.8-8 11-10.7 11.5-12.4C11.9-13.8 12.8-15.9 12.4-16.4C12.1-16.9 9.3-17.8 5.2-21.7C1.1-25.8-4.2-39.9 7.7-49.7C19.6-59.5 41.6-48.9 42.7-48.1C44-47.5 83.7-45.3 83.7-45.3L83.7-45.3Z"/>
   <path class="monochrome-1 multicolor-1:custom hierarchical-1:secondary SFSymbolsPreviewWireframe" d="M47.8-71.6C37-71.1 29-65.7 25-60C22.6-56.5 21.4-54 21.4-54C21.4-54 25.2-53.9 28.5-52.1C32.4-50 36.9-47.8 39.8-38.1C42-30.8 42.8-23.8 48.7-22.2C55.2-20.4 70.5-21.4 77.8-28.4C85.1-35.5 86.5-40.8 84.6-47.8C82.7-54.8 74.5-67.2 62.8-70.4C57.8-71.8 52.7-71.8 47.8-71.6Z"/>
   <path class="monochrome-2 multicolor-2:custom hierarchical-2:primary SFSymbolsPreviewWireframe" d="M83.1-51.4C82.8-52.1 82.1-53.3 82.1-53.3C82.1-53.3 82.1-51.7 81.9-50.9C81.7-49.5 81-46.7 80.5-47.1C79.8-47.8 76.1-52.4 74.3-55.1C72.9-57.1 68.4-62.1 68.3-63.8C68.3-64.6 69.2-67.4 69.2-67.4C69.2-67.4 68.3-67.9 67.4-68.4C66.7-68.8 65.7-69.2 65.7-69.2C65.7-69.2 65.1-65.4 64.4-64.7C63.8-64.1 60.3-62.7 57.6-61.7C54.3-60.4 51.1-58.8 49.9-58.6C48.9-58.4 42.9-59.6 40.6-60.2C37.8-60.7 33.5-62 32.5-62.6C31.3-63.4 30.1-65.5 30.1-65.5C30.1-65.5 29.4-65.1 28.7-64.5C28-64 27.1-62.9 27.1-62.9C27.1-62.9 28.9-61.1 29-60.4C29.1-59.5 28.1-58.2 27.1-57.1C26.6-56.4 25-53.3 25-53.3C25-53.3 25.7-53.2 26.7-52.8C27.6-52.4 28.6-51.9 28.6-51.9C28.6-51.9 30.9-57.2 32.4-57.8C33.7-58.2 37.3-57.1 39.9-56.4C43.6-55.7 47.3-54.9 48.2-54C49-53 49.8-48.9 50.5-45.3C51.3-41.4 53.4-31.6 52.9-30.9C52.4-30.2 48.5-30.4 46.3-30.7C44.4-30.9 41.4-32.1 41.4-32.1C41.4-32.1 41.8-30.4 42-30C42.2-29.4 42.9-27.6 42.9-27.6C42.9-27.6 47.3-25.7 60.3-26.9C73.3-28.1 79.7-36.9 81.4-40.8C83.8-46 84.1-48.9 84.1-48.9C84.1-48.9 83.4-50.7 83.1-51.4L83.1-51.4ZM71.3-34.5C68.1-32.4 59.6-30.2 58-31C56.7-31.6 55-41.8 54.1-46.3C53.6-49.2 52.2-53.6 53.1-55C53.6-55.9 56.8-57.3 59.2-58.5C61.4-59.5 64.6-60.9 65.5-60.8C66.9-60.7 69.6-56.1 72.5-52.1C75.3-48.2 78.5-44.1 78.5-42.7C78.4-41.3 74.7-36.7 71.3-34.5L71.3-34.5Z"/>
   <path class="monochrome-3 multicolor-3:black hierarchical-3:primary SFSymbolsPreviewWireframe" d="M28.5-40.2C28.9-38 27.8-35.8 25.4-35.6C23.4-35.4 21.8-36.9 21.4-39.1C21-41.3 22.2-43.4 24.2-43.7C26.2-43.9 28.1-42.4 28.5-40.2ZM14.2-40C14.2-37.8 12.3-35.6 9.9-36C7.9-36.4 6.9-38.1 7.1-40.3C7.3-42.5 9.1-44.1 11.1-43.9C13.1-43.8 14.2-42.3 14.2-40ZM20.4-31.9C21.3-32.5 22.8-34 23.7-32.7C24.6-31.4 23-30.3 22-29.6C21.1-28.9 18.9-27.2 17.3-27.2C15.8-27.2 13.6-29 12.2-30.2C11-31.1 10.5-32.4 11.2-33.2C11.8-33.9 12.9-33.7 13.7-32.9C14.6-32.1 16.5-30.3 17.4-30.3C18.1-30.3 19.2-31.1 20.4-31.9L20.4-31.9Z"/>
  </g>
  <g id="Ultralight-S" transform="matrix(1 0 0 1 515.611 696)">
   <path class="monochrome-0 multicolor-0:custom hierarchical-0:tertiary SFSymbolsPreviewWireframe" d="M79.8-45.1C79.8-45.1 82.7-46.7 83.4-47.1C84.1-47.5 86.8-49.2 87.7-47.7C88.3-46.9 87.2-44.4 85.4-41.9C83.8-39.6 80.2-34.9 80-33.9C79.8-33 80.8-29.2 81.1-27.8C81.4-26.4 82.4-22.9 82-21.5C81.6-20.1 79.5-16.5 74.1-16.5C69.8-16.5 68.6-17.8 68.4-18.6C68.3-19.2 68-21 68-21C68-21 64.5-18.8 62.8-18C61.1-17.2 56.7-14.9 56.7-14.9C56.7-14.9 57.6-11 57.7-9.4C57.8-7.8 58.3-5.5 57.5-4C56.7-2.6 54.4-0.3 48.8-0.3C44.4-0.3 43.3-1.7 42.6-2.5C41.9-3.3 41.8-7.3 41.8-8.1C41.8-8.9 41.7-11.8 41.7-11.8C41.7-11.8 35.8-12.1 32.2-12.4C29-12.6 24.7-13.1 24.7-13.1C24.7-13.1 24.9-11.4 25-10.1C25.1-9 25.2-6.7 24-5.6C22.4-4.1 18.4-4 16.2-4.2C14-4.4 10.9-5.5 10-7.5C9.1-9.5 10.3-12.1 10.8-13.7C11.2-15 12-17 11.7-17.5C11.4-18.1 8.7-18.7 4.9-22.6C1-26.5-4-39.9 7.3-49.3C18.7-58.7 39.6-48.5 40.7-47.8C41.8-47.1 79.8-45.1 79.8-45.1L79.8-45.1Z"/>
   <path class="monochrome-1 multicolor-1:custom hierarchical-1:secondary SFSymbolsPreviewWireframe" d="M45.6-70.1C35.3-69.6 27.6-64.6 23.8-59C21.5-55.7 20.4-53.3 20.4-53.3C20.4-53.3 23.9-53.2 27.1-51.5C30.8-49.5 35.1-47.4 37.9-38.1C40-31.1 40.8-24.5 46.3-23C52.5-21.3 67-22.2 74-28.9C80.9-35.6 82.3-40.7 80.5-47.4C78.7-54 70.8-65.9 59.8-69C55-70.3 50.2-70.3 45.6-70.1Z"/>
   <path class="monochrome-2 multicolor-2:custom hierarchical-2:primary SFSymbolsPreviewWireframe" d="M79.2-50.9C78.9-51.6 78.2-52.7 78.2-52.7C78.2-52.7 78.2-51.2 78-50.4C77.8-49.1 77.1-46.4 76.7-46.8C76-47.5 72.5-51.9 70.8-54.3C69.5-56.2 65.2-61 65.1-62.6C65.1-63.4 66-66 66-66C66-66 65.1-66.5 64.3-67C63.7-67.4 62.7-67.8 62.7-67.8C62.7-67.8 62.1-64.2 61.5-63.5C60.9-62.9 57.6-61.6 55-60.6C51.8-59.4 48.8-57.9 47.6-57.6C46.6-57.4 40.9-58.6 38.8-59C36.1-59.5 32-60.7 31.1-61.3C30-62.1 28.8-64.1 28.8-64.1C28.8-64.1 28.1-63.7 27.5-63.1C26.9-62.6 26-61.6 26-61.6C26-61.6 27.7-59.9 27.8-59.3C27.9-58.4 26.9-57.2 26-56.1C25.5-55.4 24-52.5 24-52.5C24-52.5 24.7-52.4 25.6-52C26.5-51.6 27.4-51.2 27.4-51.2C27.4-51.2 29.6-56.3 31-56.8C32.2-57.2 35.6-56.1 38.1-55.6C41.6-54.9 45.2-54.2 45.9-53.3C46.7-52.3 47.4-48.4 48.1-45.1C48.9-41.5 50.9-32 50.4-31.3C49.9-30.6 46.2-30.8 44.1-31.1C42.3-31.3 39.4-32.4 39.4-32.4C39.4-32.4 39.8-30.8 40-30.4C40.2-29.8 40.8-28.1 40.8-28.1C40.8-28.1 45-26.3 57.3-27.4C69.6-28.5 75.7-36.9 77.5-40.7C79.8-45.7 80.1-48.3 80.1-48.3C80.1-48.3 79.5-50.2 79.2-50.9L79.2-50.9ZM68-34.8C64.9-32.8 56.8-30.8 55.3-31.5C54.1-32.1 52.4-41.8 51.6-46.1C51.1-48.9 49.8-53 50.6-54.3C51.1-55.2 54.1-56.5 56.4-57.5C58.5-58.5 61.5-59.8 62.4-59.7C63.6-59.6 66.3-55.2 69-51.5C71.7-47.8 74.6-43.9 74.7-42.5C74.7-41.2 71.2-36.8 68-34.8L68-34.8Z"/>
   <path class="monochrome-3 multicolor-3:black hierarchical-3:primary SFSymbolsPreviewWireframe" d="M27.1-40.2C27.5-38.1 26.4-36 24.1-35.8C22.2-35.6 20.7-37 20.4-39C20-41.1 21.2-43 23.1-43.4C24.9-43.7 26.7-42.3 27.1-40.2ZM13.6-40C13.6-37.9 11.8-35.8 9.5-36.2C7.6-36.6 6.6-38.2 6.8-40.3C7-42.4 8.7-43.9 10.6-43.7C12.5-43.6 13.5-42.2 13.6-40ZM19.4-32.3C20.2-32.9 21.7-34.3 22.6-33.1C23.5-31.9 21.9-30.8 21-30.1C20.1-29.4 18-27.8 16.5-27.8C15.1-27.8 13-29.5 11.6-30.7C10.5-31.6 10-32.8 10.6-33.6C11.2-34.3 12.2-34.1 13-33.3C13.9-32.5 15.7-30.8 16.5-30.8C17.3-30.7 18.3-31.5 19.4-32.3L19.4-32.3Z"/>
  </g>
 </g>
</svg>
