<?xml version="1.0" encoding="UTF-8"?>
<!--Generator: Apple Native CoreSVG 341-->
<!DOCTYPE svg
PUBLIC "-//W3C//DTD SVG 1.1//EN"
       "http://www.w3.org/Graphics/SVG/1.1/DTD/svg11.dtd">
<svg version="1.1" xmlns="http://www.w3.org/2000/svg" xmlns:xlink="http://www.w3.org/1999/xlink" viewBox="0 0 3300 2200">
 <!--glyph: "", point size: 100.0, font version: "20.0d10e1", template writer version: "138.0.0"-->
 <style>.monochrome-0 {-sfsymbols-motion-group:3;-sfsymbols-layer-tags:-3cb0932f7b6b8bab}
.monochrome-1 {-sfsymbols-motion-group:2;-sfsymbols-layer-tags:-3cb0932f7b6b8bab}
.monochrome-2 {opacity:0.0;-sfsymbols-clear-behind:true;-sfsymbols-motion-group:1;-sfsymbols-layer-tags:-3cb0932f7b6b8bab}
.monochrome-3 {opacity:0.0;-sfsymbols-clear-behind:true;-sfsymbols-motion-group:0;-sfsymbols-layer-tags:-3cb0932f7b6b8bab}

.multicolor-0:custom {fill:#BDCF46;-sfsymbols-motion-group:3;-sfsymbols-layer-tags:-3cb0932f7b6b8bab}
.multicolor-1:custom {fill:#6E823A;-sfsymbols-clear-behind:true;-sfsymbols-motion-group:2;-sfsymbols-layer-tags:-3cb0932f7b6b8bab}
.multicolor-2:custom {fill:#484E23;-sfsymbols-motion-group:1;-sfsymbols-layer-tags:-3cb0932f7b6b8bab}
.multicolor-3:black {-sfsymbols-motion-group:0;-sfsymbols-layer-tags:-3cb0932f7b6b8bab}

.hierarchical-0:tertiary {-sfsymbols-motion-group:3;-sfsymbols-layer-tags:-3cb0932f7b6b8bab}
.hierarchical-1:secondary {-sfsymbols-clear-behind:true;-sfsymbols-motion-group:2;-sfsymbols-layer-tags:-3cb0932f7b6b8bab}
.hierarchical-2:primary {-sfsymbols-motion-group:1;-sfsymbols-layer-tags:-3cb0932f7b6b8bab}
.hierarchical-3:primary {-sfsymbols-motion-group:0;-sfsymbols-layer-tags:-3cb0932f7b6b8bab}

.SFSymbolsPreviewWireframe {fill:none;opacity:1.0;stroke:black;stroke-width:0.5}
</style>
 <g id="Notes">
  <rect height="2200" id="artboard" style="fill:white;opacity:1" width="3300" x="0" y="0"/>
  <line style="fill:none;stroke:black;opacity:1;stroke-width:0.5;" x1="263" x2="3036" y1="292" y2="292"/>
  <text style="stroke:none;fill:black;font-family:sans-serif;font-size:13;font-weight:bold;" transform="matrix(1 0 0 1 263 322)">Weight/Scale Variations</text>
  <text style="stroke:none;fill:black;font-family:sans-serif;font-size:13;text-anchor:middle;" transform="matrix(1 0 0 1 559.711 322)">Ultralight</text>
  <text style="stroke:none;fill:black;font-family:sans-serif;font-size:13;text-anchor:middle;" transform="matrix(1 0 0 1 856.422 322)">Thin</text>
  <text style="stroke:none;fill:black;font-family:sans-serif;font-size:13;text-anchor:middle;" transform="matrix(1 0 0 1 1153.13 322)">Light</text>
  <text style="stroke:none;fill:black;font-family:sans-serif;font-size:13;text-anchor:middle;" transform="matrix(1 0 0 1 1449.84 322)">Regular</text>
  <text style="stroke:none;fill:black;font-family:sans-serif;font-size:13;text-anchor:middle;" transform="matrix(1 0 0 1 1746.56 322)">Medium</text>
  <text style="stroke:none;fill:black;font-family:sans-serif;font-size:13;text-anchor:middle;" transform="matrix(1 0 0 1 2043.27 322)">Semibold</text>
  <text style="stroke:none;fill:black;font-family:sans-serif;font-size:13;text-anchor:middle;" transform="matrix(1 0 0 1 2339.98 322)">Bold</text>
  <text style="stroke:none;fill:black;font-family:sans-serif;font-size:13;text-anchor:middle;" transform="matrix(1 0 0 1 2636.69 322)">Heavy</text>
  <text style="stroke:none;fill:black;font-family:sans-serif;font-size:13;text-anchor:middle;" transform="matrix(1 0 0 1 2933.4 322)">Black</text>
  <line style="fill:none;stroke:black;opacity:1;stroke-width:0.5;" x1="263" x2="3036" y1="1903" y2="1903"/>
  <g transform="matrix(0.2 0 0 0.2 263 1933)">
   <path d="m46.2402 4.15039c21.7773 0 39.4531-17.627 39.4531-39.4043s-17.6758-39.4043-39.4531-39.4043c-21.7285 0-39.4043 17.627-39.4043 39.4043s17.6758 39.4043 39.4043 39.4043Zm0-7.42188c-17.6758 0-31.9336-14.3066-31.9336-31.9824s14.2578-31.9824 31.9336-31.9824 31.9824 14.3066 31.9824 31.9824-14.3066 31.9824-31.9824 31.9824Zm-17.9688-31.9824c0 2.14844 1.51367 3.61328 3.75977 3.61328h10.498v10.5957c0 2.19727 1.46484 3.71094 3.61328 3.71094 2.24609 0 3.71094-1.51367 3.71094-3.71094v-10.5957h10.5957c2.19727 0 3.71094-1.46484 3.71094-3.61328 0-2.19727-1.51367-3.71094-3.71094-3.71094h-10.5957v-10.5469c0-2.24609-1.46484-3.75977-3.71094-3.75977-2.14844 0-3.61328 1.51367-3.61328 3.75977v10.5469h-10.498c-2.24609 0-3.75977 1.51367-3.75977 3.71094Z"/>
  </g>
  <g transform="matrix(0.2 0 0 0.2 281.506 1933)">
   <path d="m58.5449 14.5508c27.4902 0 49.8047-22.3145 49.8047-49.8047s-22.3145-49.8047-49.8047-49.8047-49.8047 22.3145-49.8047 49.8047 22.3145 49.8047 49.8047 49.8047Zm0-8.30078c-22.9492 0-41.5039-18.5547-41.5039-41.5039s18.5547-41.5039 41.5039-41.5039 41.5039 18.5547 41.5039 41.5039-18.5547 41.5039-41.5039 41.5039Zm-22.6562-41.5039c0 2.39258 1.66016 4.00391 4.15039 4.00391h14.3555v14.4043c0 2.44141 1.66016 4.15039 4.05273 4.15039 2.44141 0 4.15039-1.66016 4.15039-4.15039v-14.4043h14.4043c2.44141 0 4.15039-1.61133 4.15039-4.00391 0-2.44141-1.70898-4.15039-4.15039-4.15039h-14.4043v-14.3555c0-2.49023-1.70898-4.19922-4.15039-4.19922-2.39258 0-4.05273 1.70898-4.05273 4.19922v14.3555h-14.3555c-2.49023 0-4.15039 1.70898-4.15039 4.15039Z"/>
  </g>
  <g transform="matrix(0.2 0 0 0.2 304.924 1933)">
   <path d="m74.8535 28.3203c35.1074 0 63.623-28.4668 63.623-63.5742s-28.5156-63.623-63.623-63.623-63.5742 28.5156-63.5742 63.623 28.4668 63.5742 63.5742 63.5742Zm0-9.08203c-30.127 0-54.4922-24.3652-54.4922-54.4922s24.3652-54.4922 54.4922-54.4922 54.4922 24.3652 54.4922 54.4922-24.3652 54.4922-54.4922 54.4922Zm-28.8574-54.4922c0 2.58789 1.85547 4.39453 4.58984 4.39453h19.7266v19.7754c0 2.68555 1.85547 4.58984 4.44336 4.58984 2.68555 0 4.54102-1.85547 4.54102-4.58984v-19.7754h19.7754c2.68555 0 4.58984-1.80664 4.58984-4.39453 0-2.73438-1.85547-4.58984-4.58984-4.58984h-19.7754v-19.7266c0-2.73438-1.85547-4.63867-4.54102-4.63867-2.58789 0-4.44336 1.9043-4.44336 4.63867v19.7266h-19.7266c-2.73438 0-4.58984 1.85547-4.58984 4.58984Z"/>
  </g>
  <text style="stroke:none;fill:black;font-family:sans-serif;font-size:13;font-weight:bold;" transform="matrix(1 0 0 1 263 1953)">Design Variations</text>
  <text style="stroke:none;fill:black;font-family:sans-serif;font-size:13;" transform="matrix(1 0 0 1 263 1971)">Symbols are supported in up to nine weights and three scales.</text>
  <text style="stroke:none;fill:black;font-family:sans-serif;font-size:13;" transform="matrix(1 0 0 1 263 1989)">For optimal layout with text and other symbols, vertically align</text>
  <text style="stroke:none;fill:black;font-family:sans-serif;font-size:13;" transform="matrix(1 0 0 1 263 2007)">symbols with the adjacent text.</text>
  <line style="fill:none;stroke:#00AEEF;stroke-width:0.5;opacity:1.0;" x1="776" x2="776" y1="1919" y2="1933"/>
  <g transform="matrix(0.2 0 0 0.2 776 1933)">
   <path d="m16.5527 0.78125c2.58789 0 3.85742-0.976562 4.78516-3.71094l6.29883-17.2363h28.8086l6.29883 17.2363c0.927734 2.73438 2.19727 3.71094 4.73633 3.71094 2.58789 0 4.24805-1.5625 4.24805-4.00391 0-0.830078-0.146484-1.61133-0.537109-2.63672l-22.9004-60.9863c-1.12305-2.97852-3.125-4.49219-6.25-4.49219-3.02734 0-5.07812 1.46484-6.15234 4.44336l-22.9004 61.084c-0.390625 1.02539-0.537109 1.80664-0.537109 2.63672 0 2.44141 1.5625 3.95508 4.10156 3.95508Zm13.4766-28.3691 11.8652-32.8613h0.244141l11.8652 32.8613Z"/>
  </g>
  <line style="fill:none;stroke:#00AEEF;stroke-width:0.5;opacity:1.0;" x1="792.836" x2="792.836" y1="1919" y2="1933"/>
  <text style="stroke:none;fill:black;font-family:sans-serif;font-size:13;font-weight:bold;" transform="matrix(1 0 0 1 776 1953)">Margins</text>
  <text style="stroke:none;fill:black;font-family:sans-serif;font-size:13;" transform="matrix(1 0 0 1 776 1971)">Leading and trailing margins on the left and right side of each symbol</text>
  <text style="stroke:none;fill:black;font-family:sans-serif;font-size:13;" transform="matrix(1 0 0 1 776 1989)">can be adjusted by modifying the x-location of the margin guidelines.</text>
  <text style="stroke:none;fill:black;font-family:sans-serif;font-size:13;" transform="matrix(1 0 0 1 776 2007)">Modifications are automatically applied proportionally to all</text>
  <text style="stroke:none;fill:black;font-family:sans-serif;font-size:13;" transform="matrix(1 0 0 1 776 2025)">scales and weights.</text>
  <g transform="matrix(0.2 0 0 0.2 1289 1933)">
   <path d="m14.209 9.32617 8.49609 8.54492c4.29688 4.3457 9.22852 4.05273 13.8672-1.07422l53.4668-58.9355-4.83398-4.88281-53.0762 58.3984c-1.75781 2.00195-3.41797 2.49023-5.76172 0.146484l-5.85938-5.81055c-2.34375-2.29492-1.80664-4.00391 0.195312-5.81055l57.373-54.0039-4.88281-4.83398-57.959 54.4434c-4.93164 4.58984-5.32227 9.47266-1.02539 13.8184Zm32.0801-90.9668c-2.09961 2.05078-2.24609 4.93164-1.07422 6.88477 1.17188 1.80664 3.4668 2.97852 6.68945 2.14844 7.32422-1.70898 14.9414-2.00195 22.0703 2.68555l-2.92969 7.27539c-1.70898 4.15039-0.830078 7.08008 1.85547 9.81445l11.4746 11.5723c2.44141 2.44141 4.49219 2.53906 7.32422 2.05078l5.32227-0.976562 3.32031 3.36914-0.195312 2.7832c-0.195312 2.49023 0.439453 4.39453 2.88086 6.78711l3.80859 3.71094c2.39258 2.39258 5.46875 2.53906 7.8125 0.195312l14.5508-14.5996c2.34375-2.34375 2.24609-5.32227-0.146484-7.71484l-3.85742-3.80859c-2.39258-2.39258-4.24805-3.17383-6.64062-2.97852l-2.88086 0.244141-3.22266-3.17383 1.2207-5.61523c0.634766-2.83203-0.146484-5.0293-3.07617-7.95898l-10.9863-10.9375c-16.6992-16.6016-38.8672-16.2109-53.3203-1.75781Zm7.4707 1.85547c12.1582-8.88672 28.6133-7.37305 39.7461 3.75977l12.1582 12.0605c1.17188 1.17188 1.36719 2.09961 1.02539 3.80859l-1.61133 7.42188 7.51953 7.42188 4.93164-0.292969c1.26953-0.0488281 1.66016 0.0488281 2.63672 1.02539l2.88086 2.88086-12.207 12.207-2.88086-2.88086c-0.976562-0.976562-1.12305-1.36719-1.07422-2.68555l0.341797-4.88281-7.4707-7.42188-7.61719 1.26953c-1.61133 0.341797-2.34375 0.195312-3.56445-0.976562l-10.0098-10.0098c-1.26953-1.17188-1.41602-2.00195-0.634766-3.85742l4.39453-10.4492c-7.8125-7.27539-17.9688-10.4004-28.125-7.42188-0.78125 0.195312-1.07422-0.439453-0.439453-0.976562Z"/>
  </g>
  <text style="stroke:none;fill:black;font-family:sans-serif;font-size:13;font-weight:bold;" transform="matrix(1 0 0 1 1289 1953)">Exporting</text>
  <text style="stroke:none;fill:black;font-family:sans-serif;font-size:13;" transform="matrix(1 0 0 1 1289 1971)">Symbols should be outlined when exporting to ensure the</text>
  <text style="stroke:none;fill:black;font-family:sans-serif;font-size:13;" transform="matrix(1 0 0 1 1289 1989)">design is preserved when submitting to Xcode.</text>
  <text id="template-version" style="stroke:none;fill:black;font-family:sans-serif;font-size:13;text-anchor:end;" transform="matrix(1 0 0 1 3036 1933)">Template v.6.0</text>
  <text style="stroke:none;fill:black;font-family:sans-serif;font-size:13;text-anchor:end;" transform="matrix(1 0 0 1 3036 1951)">Requires Xcode 16 or greater</text>
  <text id="descriptive-name" style="stroke:none;fill:black;font-family:sans-serif;font-size:13;text-anchor:end;" transform="matrix(1 0 0 1 3036 1969)">Generated from turtle</text>
  <text style="stroke:none;fill:black;font-family:sans-serif;font-size:13;text-anchor:end;" transform="matrix(1 0 0 1 3036 1987)">Typeset at 100.0 points</text>
  <text style="stroke:none;fill:black;font-family:sans-serif;font-size:13;" transform="matrix(1 0 0 1 263 726)">Small</text>
  <text style="stroke:none;fill:black;font-family:sans-serif;font-size:13;" transform="matrix(1 0 0 1 263 1156)">Medium</text>
  <text style="stroke:none;fill:black;font-family:sans-serif;font-size:13;" transform="matrix(1 0 0 1 263 1586)">Large</text>
 </g>
 <g id="Guides">
  <g id="H-reference" style="fill:#27AAE1;stroke:none;" transform="matrix(1 0 0 1 339 696)">
   <path d="M0.993654 0L3.63775 0L29.3281-67.1323L30.0303-67.1323L30.0303-70.459L28.1226-70.459ZM11.6885-24.4799L46.9815-24.4799L46.2315-26.7285L12.4385-26.7285ZM55.1196 0L57.7637 0L30.6382-70.459L29.4326-70.459L29.4326-67.1323Z"/>
  </g>
  <line id="Baseline-S" style="fill:none;stroke:#27AAE1;opacity:1;stroke-width:0.5;" x1="263" x2="3036" y1="696" y2="696"/>
  <line id="Capline-S" style="fill:none;stroke:#27AAE1;opacity:1;stroke-width:0.5;" x1="263" x2="3036" y1="625.541" y2="625.541"/>
  <g id="H-reference" style="fill:#27AAE1;stroke:none;" transform="matrix(1 0 0 1 339 1126)">
   <path d="M0.993654 0L3.63775 0L29.3281-67.1323L30.0303-67.1323L30.0303-70.459L28.1226-70.459ZM11.6885-24.4799L46.9815-24.4799L46.2315-26.7285L12.4385-26.7285ZM55.1196 0L57.7637 0L30.6382-70.459L29.4326-70.459L29.4326-67.1323Z"/>
  </g>
  <line id="Baseline-M" style="fill:none;stroke:#27AAE1;opacity:1;stroke-width:0.5;" x1="263" x2="3036" y1="1126" y2="1126"/>
  <line id="Capline-M" style="fill:none;stroke:#27AAE1;opacity:1;stroke-width:0.5;" x1="263" x2="3036" y1="1055.54" y2="1055.54"/>
  <g id="H-reference" style="fill:#27AAE1;stroke:none;" transform="matrix(1 0 0 1 339 1556)">
   <path d="M0.993654 0L3.63775 0L29.3281-67.1323L30.0303-67.1323L30.0303-70.459L28.1226-70.459ZM11.6885-24.4799L46.9815-24.4799L46.2315-26.7285L12.4385-26.7285ZM55.1196 0L57.7637 0L30.6382-70.459L29.4326-70.459L29.4326-67.1323Z"/>
  </g>
  <line id="Baseline-L" style="fill:none;stroke:#27AAE1;opacity:1;stroke-width:0.5;" x1="263" x2="3036" y1="1556" y2="1556"/>
  <line id="Capline-L" style="fill:none;stroke:#27AAE1;opacity:1;stroke-width:0.5;" x1="263" x2="3036" y1="1485.54" y2="1485.54"/>
  <line id="right-margin-Black-S" style="fill:none;stroke:#00AEEF;stroke-width:0.5;opacity:1.0;" x1="2982.2" x2="2982.2" y1="600.785" y2="720.121"/>
  <line id="left-margin-Black-S" style="fill:none;stroke:#00AEEF;stroke-width:0.5;opacity:1.0;" x1="2884.6" x2="2884.6" y1="600.785" y2="720.121"/>
  <line id="right-margin-Regular-S" style="fill:none;stroke:#00AEEF;stroke-width:0.5;opacity:1.0;" x1="1496.09" x2="1496.09" y1="600.785" y2="720.121"/>
  <line id="left-margin-Regular-S" style="fill:none;stroke:#00AEEF;stroke-width:0.5;opacity:1.0;" x1="1403.59" x2="1403.59" y1="600.785" y2="720.121"/>
  <line id="right-margin-Ultralight-S" style="fill:none;stroke:#00AEEF;stroke-width:0.5;opacity:1.0;" x1="603.811" x2="603.811" y1="600.785" y2="720.121"/>
  <line id="left-margin-Ultralight-S" style="fill:none;stroke:#00AEEF;stroke-width:0.5;opacity:1.0;" x1="515.611" x2="515.611" y1="600.785" y2="720.121"/>
 </g>
 <g id="Symbols">
  <g id="Black-S" transform="matrix(1 0 0 1 2884.6 696)">
   <path class="monochrome-0 multicolor-0:custom hierarchical-0:tertiary SFSymbolsPreviewWireframe" d="M85-44.8C85-44.8 87.9-46.4 88.6-46.8C89.3-47.2 92-48.9 93-47.4C93.6-46.5 92.5-44.1 90.7-41.6C89.1-39.3 85.5-34.6 85.2-33.6C85-32.7 86-28.9 86.3-27.4C86.6-25.9 87.6-22.4 87.2-21.1C86.8-19.7 84.7-16.1 79.3-16.1C75-16.1 73.8-17.4 73.6-18.2C73.5-18.8 73.2-20.6 73.2-20.6C73.2-20.6 69.7-18.4 68.1-17.6C66.4-16.8 62-14.6 62-14.6C62-14.6 62.9-10.7 63-9.1C63.1-7.5 63.6-5.2 62.8-3.8C62-2.4 59.8-0.1 54.1-0.1C49.7-0.1 48.6-1.5 47.9-2.3C47.2-3.1 47.1-7.1 47.1-7.9C47.1-8.7 47-11.6 47-11.6C47-11.6 41.1-11.9 37.6-12.2C34.5-12.4 30.2-12.9 30.2-12.9C30.2-12.9 30.4-11.2 30.5-9.9C30.6-8.8 30.7-6.5 29.5-5.3C27.9-3.8 23.9-3.7 21.7-3.9C19.5-4.1 16.5-5.2 15.5-7.3C14.6-9.3 15.8-11.9 16.3-13.5C16.7-14.8 17.5-16.8 17.2-17.3C16.9-17.8 14.2-18.6 10.3-22.3C6.4-26.2 1.3-39.6 12.7-49C24-58.3 45.1-48.2 46.1-47.5C47.2-46.9 85-44.8 85-44.8Z"/>
   <path class="monochrome-1 multicolor-1:custom hierarchical-1:secondary SFSymbolsPreviewWireframe" d="M50.8-69.9C40.5-69.4 32.8-64.2 29-58.8C26.7-55.5 25.6-53.1 25.6-53.1C25.6-53.1 29.2-53 32.4-51.3C36.1-49.3 40.4-47.2 43.2-38C45.3-31 46.1-24.4 51.7-22.9C57.9-21.2 72.5-22.1 79.4-28.8C86.4-35.6 87.7-40.6 85.9-47.3C84.1-54 76.3-65.8 65.1-68.8C60.3-70.1 55.5-70.1 50.8-69.9Z"/>
   <path class="monochrome-2 multicolor-2:custom hierarchical-2:primary SFSymbolsPreviewWireframe" d="M84.4-50.6C84.1-51.3 83.4-52.4 83.4-52.4C83.4-52.4 83.4-50.9 83.2-50.1C83-48.8 82.3-46.1 81.9-46.5C81.2-47.2 77.7-51.5 76-54.1C74.7-56 70.4-60.8 70.3-62.4C70.3-63.2 71.2-65.8 71.2-65.8L69.5-66.8C68.8-67.2 67.9-67.6 67.9-67.6C67.9-67.6 67.3-64 66.7-63.3C66.1-62.7 62.8-61.4 60.2-60.4C57.1-59.2 54-57.6 52.9-57.4C51.9-57.2 46.2-58.4 44-58.9C41.3-59.4 37.2-60.6 36.3-61.2C35.2-62 34-64 34-64C34-64 33.3-63.6 32.7-63C32-62.5 31.2-61.5 31.2-61.5C31.2-61.5 32.9-59.8 33-59.1C33.1-58.2 32.1-57 31.2-56C30.7-55.3 29.2-52.4 29.2-52.4C29.2-52.4 29.9-52.3 30.8-51.9C31.7-51.5 32.6-51 32.6-51C32.6-51 34.8-56 36.2-56.6C37.4-57 40.9-55.9 43.3-55.3C46.8-54.6 50.3-53.9 51.2-53C52-52 52.7-48.1 53.4-44.7C54.2-41 56.2-31.7 55.7-31C55.2-30.3 51.5-30.5 49.4-30.8C47.6-31 44.7-32.1 44.7-32.1C44.7-32.1 45.1-30.5 45.3-30.1C45.5-29.5 46.2-27.8 46.2-27.8C46.2-27.8 50.4-26 62.8-27.1C75.2-28.2 81.3-36.6 82.9-40.3C85.2-45.3 85.5-48 85.5-48C85.5-48 84.7-49.9 84.4-50.6ZM73.2-34.5C70.2-32.5 62.1-30.4 60.5-31.2C59.3-31.8 57.6-41.5 56.8-45.8C56.3-48.6 55-52.8 55.8-54.1C56.3-55 59.3-56.3 61.6-57.4C63.7-58.4 66.7-59.7 67.6-59.6C68.9-59.5 71.5-55.1 74.3-51.3C77-47.6 80-43.7 80-42.3C79.9-41 76.4-36.6 73.2-34.5Z"/>
   <path class="monochrome-3 multicolor-3:black hierarchical-3:primary SFSymbolsPreviewWireframe" d="M32.3-39.9C32.7-37.8 31.6-35.7 29.3-35.5C27.4-35.3 25.9-36.7 25.5-38.8C25.1-40.9 26.3-42.9 28.2-43.2C30.1-43.4 31.9-42 32.3-39.9ZM18.7-39.7C18.7-37.6 16.9-35.5 14.6-35.9C12.7-36.3 11.7-37.9 11.9-40C12.1-42.1 13.8-43.6 15.7-43.4C17.6-43.3 18.7-41.9 18.7-39.7ZM24.6-32C25.5-32.6 26.9-34 27.7-32.8C28.6-31.6 27-30.5 26.1-29.8C25.2-29.1 23.1-27.5 21.6-27.5C20.2-27.5 18.1-29.2 16.7-30.4C15.6-31.3 15.1-32.5 15.7-33.3C16.3-34 17.3-33.8 18.1-33C19-32.2 20.8-30.5 21.6-30.5C22.4-30.5 23.5-31.2 24.6-32Z"/>
  </g>
  <g id="Regular-S" transform="matrix(1 0 0 1 1403.59 696)">
   <path class="monochrome-0 multicolor-0:custom hierarchical-0:tertiary SFSymbolsPreviewWireframe" d="M82-44.8C82-44.8 84.9-46.4 85.6-46.8C86.3-47.2 89-48.9 90-47.4C90.6-46.5 89.5-44.1 87.7-41.6C86.1-39.3 82.5-34.6 82.2-33.6C82-32.7 83-28.9 83.3-27.4C83.6-25.9 84.6-22.4 84.2-21.1C83.8-19.7 81.7-16.1 76.3-16.1C72-16.1 70.8-17.4 70.6-18.2C70.5-18.8 70.2-20.6 70.2-20.6C70.2-20.6 66.7-18.4 65.1-17.6C63.4-16.8 59-14.6 59-14.6C59-14.6 59.9-10.7 60-9.1C60.1-7.5 60.6-5.2 59.8-3.8C59-2.4 56.8-0.1 51.1-0.1C46.7-0.1 45.6-1.5 44.9-2.3C44.2-3.1 44.1-7.1 44.1-7.9C44.1-8.7 44-11.6 44-11.6C44-11.6 38.1-11.9 34.6-12.2C31.5-12.4 27.2-12.9 27.2-12.9C27.2-12.9 27.4-11.2 27.5-9.9C27.6-8.8 27.7-6.5 26.5-5.3C24.9-3.8 20.9-3.7 18.7-3.9C16.5-4.1 13.5-5.2 12.5-7.3C11.6-9.3 12.8-11.9 13.3-13.5C13.7-14.8 14.5-16.8 14.2-17.3C13.9-17.8 11.2-18.6 7.3-22.3C3.4-26.2-1.7-39.6 9.7-49C21-58.3 42.1-48.2 43.1-47.5C44.2-46.9 82-44.8 82-44.8Z"/>
   <path class="monochrome-1 multicolor-1:custom hierarchical-1:secondary SFSymbolsPreviewWireframe" d="M47.8-69.9C37.5-69.4 29.8-64.2 26-58.8C23.7-55.5 22.6-53.1 22.6-53.1C22.6-53.1 26.2-53 29.4-51.3C33.1-49.3 37.4-47.2 40.2-38C42.3-31 43.1-24.4 48.7-22.9C54.9-21.2 69.5-22.1 76.4-28.8C83.4-35.6 84.7-40.6 82.9-47.3C81.1-54 73.3-65.8 62.1-68.8C57.3-70.1 52.5-70.1 47.8-69.9Z"/>
   <path class="monochrome-2 multicolor-2:custom hierarchical-2:primary SFSymbolsPreviewWireframe" d="M81.4-50.6C81.1-51.3 80.4-52.4 80.4-52.4C80.4-52.4 80.4-50.9 80.2-50.1C80-48.8 79.3-46.1 78.9-46.5C78.2-47.2 74.7-51.5 73-54.1C71.7-56 67.4-60.8 67.3-62.4C67.3-63.2 68.2-65.8 68.2-65.8L66.5-66.8C65.8-67.2 64.9-67.6 64.9-67.6C64.9-67.6 64.3-64 63.7-63.3C63.1-62.7 59.8-61.4 57.2-60.4C54.1-59.2 51-57.6 49.9-57.4C48.9-57.2 43.2-58.4 41-58.9C38.3-59.4 34.2-60.6 33.3-61.2C32.2-62 31-64 31-64C31-64 30.3-63.6 29.7-63C29-62.5 28.2-61.5 28.2-61.5C28.2-61.5 29.9-59.8 30-59.1C30.1-58.2 29.1-57 28.2-56C27.7-55.3 26.2-52.4 26.2-52.4C26.2-52.4 26.9-52.3 27.8-51.9C28.7-51.5 29.6-51 29.6-51C29.6-51 31.8-56 33.2-56.6C34.4-57 37.9-55.9 40.3-55.3C43.8-54.6 47.3-53.9 48.2-53C49-52 49.7-48.1 50.4-44.7C51.2-41 53.2-31.7 52.7-31C52.2-30.3 48.5-30.5 46.4-30.8C44.6-31 41.7-32.1 41.7-32.1C41.7-32.1 42.1-30.5 42.3-30.1C42.5-29.5 43.2-27.8 43.2-27.8C43.2-27.8 47.4-26 59.8-27.1C72.2-28.2 78.3-36.6 79.9-40.3C82.2-45.3 82.5-48 82.5-48C82.5-48 81.7-49.9 81.4-50.6ZM70.2-34.5C67.2-32.5 59.1-30.4 57.5-31.2C56.3-31.8 54.6-41.5 53.8-45.8C53.3-48.6 52-52.8 52.8-54.1C53.3-55 56.3-56.3 58.6-57.4C60.7-58.4 63.7-59.7 64.6-59.6C65.9-59.5 68.5-55.1 71.3-51.3C74-47.6 77-43.7 77-42.3C76.9-41 73.4-36.6 70.2-34.5Z"/>
   <path class="monochrome-3 multicolor-3:black hierarchical-3:primary SFSymbolsPreviewWireframe" d="M29.3-39.9C29.7-37.8 28.6-35.7 26.3-35.5C24.4-35.3 22.9-36.7 22.5-38.8C22.1-40.9 23.3-42.9 25.2-43.2C27.1-43.4 28.9-42 29.3-39.9ZM15.7-39.7C15.7-37.6 13.9-35.5 11.6-35.9C9.7-36.3 8.7-37.9 8.9-40C9.1-42.1 10.8-43.6 12.7-43.4C14.6-43.3 15.7-41.9 15.7-39.7ZM21.6-32C22.5-32.6 23.9-34 24.7-32.8C25.6-31.6 24-30.5 23.1-29.8C22.2-29.1 20.1-27.5 18.6-27.5C17.2-27.5 15.1-29.2 13.7-30.4C12.6-31.3 12.1-32.5 12.7-33.3C13.3-34 14.3-33.8 15.1-33C16-32.2 17.8-30.5 18.6-30.5C19.4-30.5 20.5-31.2 21.6-32Z"/>
  </g>
  <g id="Ultralight-S" transform="matrix(1 0 0 1 515.611 696)">
   <path class="monochrome-0 multicolor-0:custom hierarchical-0:tertiary SFSymbolsPreviewWireframe" d="M80-44.8C80-44.8 82.9-46.4 83.6-46.8C84.3-47.2 87-48.9 88-47.4C88.6-46.5 87.5-44.1 85.7-41.6C84.1-39.3 80.5-34.6 80.2-33.6C80-32.7 81-28.9 81.3-27.4C81.6-25.9 82.6-22.4 82.2-21.1C81.8-19.7 79.7-16.1 74.3-16.1C70-16.1 68.8-17.4 68.6-18.2C68.5-18.8 68.2-20.6 68.2-20.6C68.2-20.6 64.7-18.4 63.1-17.6C61.4-16.8 57-14.6 57-14.6C57-14.6 57.9-10.7 58-9.1C58.1-7.5 58.6-5.2 57.8-3.8C57-2.4 54.8-0.1 49.1-0.1C44.7-0.1 43.6-1.5 42.9-2.3C42.2-3.1 42.1-7.1 42.1-7.9C42.1-8.7 42-11.6 42-11.6C42-11.6 36.1-11.9 32.6-12.2C29.5-12.4 25.2-12.9 25.2-12.9C25.2-12.9 25.4-11.2 25.5-9.9C25.6-8.8 25.7-6.5 24.5-5.3C22.9-3.8 18.9-3.7 16.7-3.9C14.5-4.1 11.5-5.2 10.5-7.3C9.6-9.3 10.8-11.9 11.3-13.5C11.7-14.8 12.5-16.8 12.2-17.3C11.9-17.8 9.2-18.6 5.3-22.3C1.4-26.2-3.7-39.6 7.7-49C19-58.3 40.1-48.2 41.1-47.5C42.2-46.9 80-44.8 80-44.8Z"/>
   <path class="monochrome-1 multicolor-1:custom hierarchical-1:secondary SFSymbolsPreviewWireframe" d="M45.8-69.9C35.5-69.4 27.8-64.2 24-58.8C21.7-55.5 20.6-53.1 20.6-53.1C20.6-53.1 24.2-53 27.4-51.3C31.1-49.3 35.4-47.2 38.2-38C40.3-31 41.1-24.4 46.7-22.9C52.9-21.2 67.5-22.1 74.4-28.8C81.4-35.6 82.7-40.6 80.9-47.3C79.1-54 71.3-65.8 60.1-68.8C55.3-70.1 50.5-70.1 45.8-69.9Z"/>
   <path class="monochrome-2 multicolor-2:custom hierarchical-2:primary SFSymbolsPreviewWireframe" d="M79.4-50.6C79.1-51.3 78.4-52.4 78.4-52.4C78.4-52.4 78.4-50.9 78.2-50.1C78-48.8 77.3-46.1 76.9-46.5C76.2-47.2 72.7-51.5 71-54.1C69.7-56 65.4-60.8 65.3-62.4C65.3-63.2 66.2-65.8 66.2-65.8L64.5-66.8C63.8-67.2 62.9-67.6 62.9-67.6C62.9-67.6 62.3-64 61.7-63.3C61.1-62.7 57.8-61.4 55.2-60.4C52.1-59.2 49-57.6 47.9-57.4C46.9-57.2 41.2-58.4 39-58.9C36.3-59.4 32.2-60.6 31.3-61.2C30.2-62 29-64 29-64C29-64 28.3-63.6 27.7-63C27-62.5 26.2-61.5 26.2-61.5C26.2-61.5 27.9-59.8 28-59.1C28.1-58.2 27.1-57 26.2-56C25.7-55.3 24.2-52.4 24.2-52.4C24.2-52.4 24.9-52.3 25.8-51.9C26.7-51.5 27.6-51 27.6-51C27.6-51 29.8-56 31.2-56.6C32.4-57 35.9-55.9 38.3-55.3C41.8-54.6 45.3-53.9 46.2-53C47-52 47.7-48.1 48.4-44.7C49.2-41 51.2-31.7 50.7-31C50.2-30.3 46.5-30.5 44.4-30.8C42.6-31 39.7-32.1 39.7-32.1C39.7-32.1 40.1-30.5 40.3-30.1C40.5-29.5 41.2-27.8 41.2-27.8C41.2-27.8 45.4-26 57.8-27.1C70.2-28.2 76.3-36.6 77.9-40.3C80.2-45.3 80.5-48 80.5-48C80.5-48 79.7-49.9 79.4-50.6ZM68.2-34.5C65.2-32.5 57.1-30.4 55.5-31.2C54.3-31.8 52.6-41.5 51.8-45.8C51.3-48.6 50-52.8 50.8-54.1C51.3-55 54.3-56.3 56.6-57.4C58.7-58.4 61.7-59.7 62.6-59.6C63.9-59.5 66.5-55.1 69.3-51.3C72-47.6 75-43.7 75-42.3C74.9-41 71.4-36.6 68.2-34.5Z"/>
   <path class="monochrome-3 multicolor-3:black hierarchical-3:primary SFSymbolsPreviewWireframe" d="M27.3-39.9C27.7-37.8 26.6-35.7 24.3-35.5C22.4-35.3 20.9-36.7 20.5-38.8C20.1-40.9 21.3-42.9 23.2-43.2C25.1-43.4 26.9-42 27.3-39.9ZM13.7-39.7C13.7-37.6 11.9-35.5 9.6-35.9C7.7-36.3 6.7-37.9 6.9-40C7.1-42.1 8.8-43.6 10.7-43.4C12.6-43.3 13.7-41.9 13.7-39.7ZM19.6-32C20.5-32.6 21.9-34 22.7-32.8C23.6-31.6 22-30.5 21.1-29.8C20.2-29.1 18.1-27.5 16.6-27.5C15.2-27.5 13.1-29.2 11.7-30.4C10.6-31.3 10.1-32.5 10.7-33.3C11.3-34 12.3-33.8 13.1-33C14-32.2 15.8-30.5 16.6-30.5C17.4-30.5 18.5-31.2 19.6-32Z"/>
  </g>
 </g>
</svg>
